<?xml version="1.0" encoding="UTF-8"?>
<svg version="1.1" width="64" height="320" viewBox="0 0 64 320" opacity="0.7" xmlns="http://www.w3.org/2000/svg" xmlns:cc="http://creativecommons.org/ns#" xmlns:dc="http://purl.org/dc/elements/1.1/" xmlns:osb="http://www.openswatchbook.org/uri/2009/osb" xmlns:rdf="http://www.w3.org/1999/02/22-rdf-syntax-ns#">
<metadata>
<dc:format>image/svg+xml</dc:format>
</metadata>
<path d="m16.102 4.2373 2.0846 4.4789 9.1406 3.7998-3.6155 3.3666-0.78922 9.8674-4.3191-2.3982-9.6283 2.2986 0.94616-4.8488-5.1614-8.4468 4.9039-0.59852z" fill="#ff0" stroke="#000"/>
<path transform="matrix(.85234 0 0 .81217 2.3804 9.1481)" d="m16.206 37.345 4.4212 4.5311 6.804 3.7476-2.9431 5.605l-1.4616 7.6291-6.2401-1.067-7.7073 0.96742-0.91348-6.2644-3.3018-7.0312 5.6755-2.8046z" fill="#ff0" stroke="#130000"/>
<path transform="matrix(.85234 0 0 .81217 2.0377 41.069)" d="m16.206 37.345 5.9126 2.6007 5.3126 5.678-0.64634 6.4268l-3.7584 6.8072-6.312 1.3713-7.6354-1.4709-3.2547-5.5793-0.96054-7.7163 4.3005-4.8195z" fill="#ff0" stroke="#130000"/>
<path transform="matrix(.74389 0 0 .74326 3.8469 76.522)" d="m16.206 37.345 8.5971 0.98335 2.6281 7.2953 1.7214 8.4802-6.1262 4.7538-7.5332 4.2577-6.4142-4.3573-6.3772-5.8488 2.162-7.4468 3.5919-7.8725z" fill="#ffc600" stroke="#060000"/>
<path transform="matrix(.70106 0 0 .68848 4.6852 109.32)" d="m16.206 37.345 8.5971 0.98335 2.6281 7.2953 1.7214 8.4802-6.1262 4.7538-7.5332 4.2577-6.4142-4.3573-6.3772-5.8488 2.162-7.4468 3.5919-7.8725z" fill="#ffad00" stroke="#060000"/>
<path transform="matrix(.77505 0 0 .75498 3.6782 138.06)" d="m16.206 37.345c-0.39969-0.0016 7.552 2.1186 7.2303 1.8813-0.32474-0.2395 4.118 6.7816 3.9948 6.3974-0.12197-0.38063 0.3188 7.8371 0.44502 7.4578 0.12743-0.38285-5.1772 6.0121-4.8498 5.7762 0.32431-0.23362-7.355 2.725-6.9553 2.7278 0.40349 0.0029-7.3176-3.066-6.9922-2.8275 0.32241 0.23624-4.8644-6.1529-4.7436-5.7719 0.12194 0.38463 0.65462-7.9069 0.52838-7.5237-0.12505 0.37963 4.3486-6.5277 4.0236-6.2951-0.32813 0.23484 7.7222-1.8208 7.3187-1.8224z" fill="#ff7300" stroke="#060000"/>
<path transform="matrix(.67362 0 0 .67201 5.124 175.03)" d="m16.206 37.345c2.1218 0.0086 5.5227 0.62194 7.2303 1.8813 1.7239 1.2714 3.3412 4.3575 3.9948 6.3974 0.6475 2.0206 1.1151 5.4446 0.44502 7.4578-0.67646 2.0324-3.1118 4.5242-4.8498 5.7762-1.7216 1.2402-4.8335 2.743-6.9553 2.7278-2.142-0.0153-5.2643-1.5614-6.9922-2.8275-1.7115-1.2541-4.1024-3.7493-4.7436-5.7719-0.64735-2.0419-0.14179-5.4892 0.52838-7.5237 0.66384-2.0153 2.2981-5.0602 4.0236-6.2951 1.7419-1.2466 5.1767-1.8311 7.3187-1.8224z" fill="#ff5d00" stroke="#060000"/>
<path transform="matrix(.62638 0 0 .62721 5.9185 208.92)" d="m16.206 37.345c2.1218 0.0086 5.5227 0.62194 7.2303 1.8813 1.7239 1.2714 3.3412 4.3575 3.9948 6.3974 0.6475 2.0206 1.1151 5.4446 0.44502 7.4578-0.67646 2.0324-3.1118 4.5242-4.8498 5.7762-1.7216 1.2402-4.8335 2.743-6.9553 2.7278-2.142-0.0153-5.2643-1.5614-6.9922-2.8275-1.7115-1.2541-4.1024-3.7493-4.7436-5.7719-0.64735-2.0419-0.14179-5.4892 0.52838-7.5237 0.66384-2.0153 2.2981-5.0602 4.0236-6.2951 1.7419-1.2466 5.1767-1.8311 7.3187-1.8224z" fill="#ff4d00" stroke="#060000"/>
<path transform="matrix(.58313 0 0 .55618 6.5721 244.51)" d="m16.206 37.345c2.1218 0.0086 5.5227 0.62194 7.2303 1.8813 1.7239 1.2714 3.3412 4.3575 3.9948 6.3974 0.6475 2.0206 1.1151 5.4446 0.44502 7.4578-0.67646 2.0324-3.1118 4.5242-4.8498 5.7762-1.7216 1.2402-4.8335 2.743-6.9553 2.7278-2.142-0.0153-5.2643-1.5614-6.9922-2.8275-1.7115-1.2541-4.1024-3.7493-4.7436-5.7719-0.64735-2.0419-0.14179-5.4892 0.52838-7.5237 0.66384-2.0153 2.2981-5.0602 4.0236-6.2951 1.7419-1.2466 5.1767-1.8311 7.3187-1.8224z" fill="#b15d00" stroke="#060000"/>
<path transform="matrix(.48538 0 0 .46329 8.19 281.21)" d="m16.206 37.345c2.1218 0.0086 5.5227 0.62194 7.2303 1.8813 1.7239 1.2714 3.3412 4.3575 3.9948 6.3974 0.6475 2.0206 1.1151 5.4446 0.44502 7.4578-0.67646 2.0324-3.1118 4.5242-4.8498 5.7762-1.7216 1.2402-4.8335 2.743-6.9553 2.7278-2.142-0.0153-5.2643-1.5614-6.9922-2.8275-1.7115-1.2541-4.1024-3.7493-4.7436-5.7719-0.64735-2.0419-0.14179-5.4892 0.52838-7.5237 0.66384-2.0153 2.2981-5.0602 4.0236-6.2951 1.7419-1.2466 5.1767-1.8311 7.3187-1.8224z" fill="#b14500" stroke="#060000"/>
<path d="m48.102 4.2373 2.0846 4.4789 9.1406 3.7998-3.6155 3.3666-0.78922 9.8674-4.3191-2.3982-9.6283 2.2986 0.94616-4.8488-5.1614-8.4468 4.9039-0.59852z" fill="#ff0" stroke="#000"/>
<path transform="matrix(.85234 0 0 .81217 34.38 9.1481)" d="m16.206 37.345 4.4212 4.5311 6.804 3.7476-2.9431 5.605l-1.4616 7.6291-6.2401-1.067-7.7073 0.96742-0.91348-6.2644-3.3018-7.0312 5.6755-2.8046z" fill="#ff0" stroke="#130000"/>
<path transform="matrix(.85234 0 0 .81217 34.038 41.069)" d="m16.206 37.345 5.9126 2.6007 5.3126 5.678-0.64634 6.4268l-3.7584 6.8072-6.312 1.3713-7.6354-1.4709-3.2547-5.5793-0.96054-7.7163 4.3005-4.8195z" fill="#ff0" stroke="#130000"/>
<path transform="matrix(.74389 0 0 .74326 35.847 76.522)" d="m16.206 37.345 8.5971 0.98335 2.6281 7.2953 1.7214 8.4802-6.1262 4.7538-7.5332 4.2577-6.4142-4.3573-6.3772-5.8488 2.162-7.4468 3.5919-7.8725z" fill="#ffc600" stroke="#060000"/>
<path transform="matrix(.70106 0 0 .68848 36.685 109.32)" d="m16.206 37.345 8.5971 0.98335 2.6281 7.2953 1.7214 8.4802-6.1262 4.7538-7.5332 4.2577-6.4142-4.3573-6.3772-5.8488 2.162-7.4468 3.5919-7.8725z" fill="#ffad00" stroke="#060000"/>
<path transform="matrix(.77505 0 0 .75498 35.678 138.06)" d="m16.206 37.345c-0.39969-0.0016 7.552 2.1186 7.2303 1.8813-0.32474-0.2395 4.118 6.7816 3.9948 6.3974-0.12197-0.38063 0.3188 7.8371 0.44502 7.4578 0.12743-0.38285-5.1772 6.0121-4.8498 5.7762 0.32431-0.23362-7.355 2.725-6.9553 2.7278 0.40349 0.0029-7.3176-3.066-6.9922-2.8275 0.32241 0.23624-4.8644-6.1529-4.7436-5.7719 0.12194 0.38463 0.65462-7.9069 0.52838-7.5237-0.12505 0.37963 4.3486-6.5277 4.0236-6.2951-0.32813 0.23484 7.7222-1.8208 7.3187-1.8224z" fill="#ff7300" stroke="#060000"/>
<path transform="matrix(.67362 0 0 .67201 37.124 175.03)" d="m16.206 37.345c2.1218 0.0086 5.5227 0.62194 7.2303 1.8813 1.7239 1.2714 3.3412 4.3575 3.9948 6.3974 0.6475 2.0206 1.1151 5.4446 0.44502 7.4578-0.67646 2.0324-3.1118 4.5242-4.8498 5.7762-1.7216 1.2402-4.8335 2.743-6.9553 2.7278-2.142-0.0153-5.2643-1.5614-6.9922-2.8275-1.7115-1.2541-4.1024-3.7493-4.7436-5.7719-0.64735-2.0419-0.14179-5.4892 0.52838-7.5237 0.66384-2.0153 2.2981-5.0602 4.0236-6.2951 1.7419-1.2466 5.1767-1.8311 7.3187-1.8224z" fill="#ff5d00" stroke="#060000"/>
<path transform="matrix(.62638 0 0 .62721 37.919 208.92)" d="m16.206 37.345c2.1218 0.0086 5.5227 0.62194 7.2303 1.8813 1.7239 1.2714 3.3412 4.3575 3.9948 6.3974 0.6475 2.0206 1.1151 5.4446 0.44502 7.4578-0.67646 2.0324-3.1118 4.5242-4.8498 5.7762-1.7216 1.2402-4.8335 2.743-6.9553 2.7278-2.142-0.0153-5.2643-1.5614-6.9922-2.8275-1.7115-1.2541-4.1024-3.7493-4.7436-5.7719-0.64735-2.0419-0.14179-5.4892 0.52838-7.5237 0.66384-2.0153 2.2981-5.0602 4.0236-6.2951 1.7419-1.2466 5.1767-1.8311 7.3187-1.8224z" fill="#ff4d00" stroke="#060000"/>
<path transform="matrix(.58313 0 0 .55618 38.572 244.51)" d="m16.206 37.345c2.1218 0.0086 5.5227 0.62194 7.2303 1.8813 1.7239 1.2714 3.3412 4.3575 3.9948 6.3974 0.6475 2.0206 1.1151 5.4446 0.44502 7.4578-0.67646 2.0324-3.1118 4.5242-4.8498 5.7762-1.7216 1.2402-4.8335 2.743-6.9553 2.7278-2.142-0.0153-5.2643-1.5614-6.9922-2.8275-1.7115-1.2541-4.1024-3.7493-4.7436-5.7719-0.64735-2.0419-0.14179-5.4892 0.52838-7.5237 0.66384-2.0153 2.2981-5.0602 4.0236-6.2951 1.7419-1.2466 5.1767-1.8311 7.3187-1.8224z" fill="#b15d00" stroke="#060000"/>
<path transform="matrix(.48538 0 0 .46329 40.19 281.21)" d="m16.206 37.345c2.1218 0.0086 5.5227 0.62194 7.2303 1.8813 1.7239 1.2714 3.3412 4.3575 3.9948 6.3974 0.6475 2.0206 1.1151 5.4446 0.44502 7.4578-0.67646 2.0324-3.1118 4.5242-4.8498 5.7762-1.7216 1.2402-4.8335 2.743-6.9553 2.7278-2.142-0.0153-5.2643-1.5614-6.9922-2.8275-1.7115-1.2541-4.1024-3.7493-4.7436-5.7719-0.64735-2.0419-0.14179-5.4892 0.52838-7.5237 0.66384-2.0153 2.2981-5.0602 4.0236-6.2951 1.7419-1.2466 5.1767-1.8311 7.3187-1.8224z" fill="#b14500" stroke="#060000"/>
<path d="m56.5 5h3m-1.5-1.5v3m2-1.5a2 2 0 0 1 -2 2 2 2 0 0 1 -2 -2 2 2 0 0 1 2 -2 2 2 0 0 1 2 2z" stroke="#ff0" stroke-width=".4"/>
<path d="m55.915 39.619h3m-1.5-1.5v3m2-1.5a2 2 0 0 1 -2 2 2 2 0 0 1 -2 -2 2 2 0 0 1 2 -2 2 2 0 0 1 2 2z" stroke="#ff0" stroke-width=".4"/>
<path d="m54.709 71.913h3m-1.5-1.5v3m2-1.5a2 2 0 0 1 -2 2 2 2 0 0 1 -2 -2 2 2 0 0 1 2 -2 2 2 0 0 1 2 2z" stroke="#ff0" stroke-width=".4"/>
<path d="m55.188 102.59h3m-1.5-1.5v3m2-1.5a2 2 0 0 1 -2 2 2 2 0 0 1 -2 -2 2 2 0 0 1 2 -2 2 2 0 0 1 2 2z" stroke="#ffc600" stroke-width=".4"/>
<path d="m54.829 133.4h3m-1.5-1.5v3m2-1.5a2 2 0 0 1 -2 2 2 2 0 0 1 -2 -2 2 2 0 0 1 2 -2 2 2 0 0 1 2 2z" stroke="#ffad00" stroke-width=".4"/>
<path d="m56.027 165.75h3m-1.5-1.5v3m2-1.5a2 2 0 0 1 -2 2 2 2 0 0 1 -2 -2 2 2 0 0 1 2 -2 2 2 0 0 1 2 2z" stroke="#ff7300" stroke-width=".4"/>
<path d="m54.349 199.31h3m-1.5-1.5v3m2-1.5a2 2 0 0 1 -2 2 2 2 0 0 1 -2 -2 2 2 0 0 1 2 -2 2 2 0 0 1 2 2z" stroke="#ff5d00" stroke-width=".4"/>
<path d="m53.511 231.07h3m-1.5-1.5v3m2-1.5a2 2 0 0 1 -2 2 2 2 0 0 1 -2 -2 2 2 0 0 1 2 -2 2 2 0 0 1 2 2z" stroke="#ff4d00" stroke-width=".4"/>
<path d="m54.23 264.63h3m-1.5-1.5v3m2-1.5a2 2 0 0 1 -2 2 2 2 0 0 1 -2 -2 2 2 0 0 1 2 -2 2 2 0 0 1 2 2z" stroke="#b15d00" stroke-width=".4"/>
<path d="m52.911 297.95h3m-1.5-1.5v3m2-1.5a2 2 0 0 1 -2 2 2 2 0 0 1 -2 -2 2 2 0 0 1 2 -2 2 2 0 0 1 2 2z" stroke="#b14500" stroke-width=".4"/>
</svg>
