<?xml version="1.0" encoding="UTF-8" standalone="no"?>
<svg
   xmlns:dc="http://purl.org/dc/elements/1.1/"
   xmlns:cc="http://creativecommons.org/ns#"
   xmlns:rdf="http://www.w3.org/1999/02/22-rdf-syntax-ns#"
   xmlns:svg="http://www.w3.org/2000/svg"
   xmlns="http://www.w3.org/2000/svg"
   viewBox="0 0 71.6 90.3"
   y="0px"
   x="0px"
   width="20mm"
   height="20mm"
   id="_x3F__x3F__x3F__x3F__1_xA0_Image_1_"
   version="1.1"><metadata
   id="metadata28"><rdf:RDF><cc:Work
       rdf:about=""><dc:format>image/svg+xml</dc:format><dc:type
         rdf:resource="http://purl.org/dc/dcmitype/StillImage" /><dc:title></dc:title></cc:Work></rdf:RDF></metadata><defs
   id="defs26" />

<path
   id="path3"
   d="M0.1,39c0.4,0,0.3-0.4,0.4-0.6c0.1-0.7,0.2-1.3,0.3-2 c0.1-0.6,0.1-1.6,0.7-1.8c0.6-0.1,0.6,0.9,0.9,1.4c0.7,1,1.6,1.8,2.5,2.5s1.6,1.6,1.8,2.8s0,2.5-1.1,3.2c-1.1,0.8-2.3,0.4-3.4-0.1 c-0.6-0.3-0.9-0.8-1.4-1.3c-0.4-0.6-0.5-1.4-0.7-2.1C0,40.5,0.2,40,0,39.5C0.1,39.4,0.1,39.2,0.1,39z"
   style="fill:#0D3F56;" />
<path
   id="path5"
   d="M28.4,74.5c0.1-3.7,0.7-7.8,2.7-11.6 c1.3-2.4,1.6-5,1.5-7.7c-0.2-3.9-0.2-7.8,0.6-11.7c0.2-1,0.5-1.9,1-2.8c1.7-2.7,4.5-3.6,7.3-2.1c2.5,1.3,4.4,3.2,5.6,5.7 c1.6,3.3,4.3,3.5,6.9,2.9c2.5-0.6,4.7-1.7,7-2.8c1.6-0.8,3.3-1.3,5.1-1c3,0.5,5,2.9,5.4,6.3c0.5,4.7-0.9,8.9-3.8,12.6 c-2.7,3.4-6.1,5.7-10.2,7.1c-2.8,1-5.4,2.2-7.8,3.9c-2.1,1.4-3.2,3.2-3.7,5.6c-0.3,1.6-0.6,3.2-1,4.8c-0.7,2.4-1.9,4.5-4.2,5.7 c-2.6,1.4-4.9,1.3-7.2-0.6c-2.8-2.3-4.1-5.5-4.9-8.9C28.5,78.4,28.4,76.7,28.4,74.5z"
   style="fill:#0C3F56;" />
<path
   id="path7"
   d="M13,24.4c0-4,2.9-6.4,6.8-5.6 c6.9,1.4,12.4,8.1,12.4,15.2c0,1.6-0.4,3.2-1.4,4.5c-1.5,2.1-3.5,2.9-6.1,2.3c-0.9-0.2-1.8-0.5-2.6-0.9C17.5,37.3,13,29.7,13,24.4z"
   style="fill:#0C3F56;" />
<path
   id="path9"
   d="M20.1,61.4c-2.5-0.2-5.2-1.2-7.5-3.3 c-2.2-2-4-4.4-4.9-7.3c-1.5-4.8,1.1-8.2,6.1-7.9c4.8,0.3,11.6,3.9,12.8,10.6c0.1,0.4,0.1,0.7,0.2,1.1C27.3,59,25.1,61.4,20.1,61.4z"
   style="fill:#0C3F56;" />
<path
   id="path11"
   d="M36.8,14.4c1.6-1,3.2-0.5,4.7,0.2 c5.2,2.5,7.9,6.8,8.6,12.4c0.3,2.2,0,4.3-0.7,6.4c-0.7,1.9-1.8,3.2-3.9,3.5c-2.1,0.3-3.8-0.4-4.9-2.2c-2.7-4.4-4.8-9.1-5.9-14.2 c-0.3-1.6-0.4-3.3,0.7-4.7C35.7,15.2,36.3,14.8,36.8,14.4z"
   style="fill:#0C3F56;" />
<path
   id="path13"
   d="M62.2,21.1c3,0.8,4.7,2.9,5.1,6.3 c0.4,3.2-0.4,6.2-2.1,8.9c-0.4,0.7-1,1.3-1.6,1.8c-3.4,2.8-7.6,1.4-8.6-2.8c-0.4-1.7-0.5-3.5,0-5.2c0.4-1.5,0.9-2.9,1.4-4.3 c0.8-2.2,2-4.2,4.6-4.8C61.5,20.9,61.9,20.8,62.2,21.1z"
   style="fill:#0C3F56;" />
<path
   id="path15"
   d="M19.8,82.7c-1.2,0-2.4-0.4-3.4-1 c-2.6-1.5-4.7-3.4-6.4-5.8c-0.6-0.9-1.1-2-1.3-3.1c-0.6-3.2,1.5-5.5,4.7-5.4c4.6,0.2,9.8,4.2,11.1,8.7 C25.5,79.6,23.3,82.7,19.8,82.7z"
   style="fill:#0C3F56;" />
<path
   id="path17"
   d="M0.5,63.8c-0.1-1.8,0.4-3.2,0.8-4.5 c0.1-0.3,0.2-0.7,0.6-0.7s0.4,0.4,0.6,0.7c0.6,1.2,1.4,2.3,2.4,3.1c1.6,1.2,2.1,3,2.4,4.8c0.1,0.8-0.1,1.5-0.8,2 c-0.8,0.5-1.6,0.5-2.4,0.1C1.8,68,0.4,66.2,0.5,63.8z"
   style="fill:#0C3F56;" />
<path
   id="path19"
   d="M8.7,9.6c0.4,1,0.7,2.1,1.2,3c0.5,0.8,1.1,1.6,2,2 c1.2,0.6,1.9,1.6,1.8,3c-0.1,1.2-0.7,2-1.9,2.4c-1.3,0.4-2.5,0.1-3.6-0.8c-0.5-0.4-0.8-1-1-1.6C6.4,14.7,7.5,12.1,8.7,9.6z"
   style="fill:#0C3F56;" />
<path
   id="path21"
   d="M57.7,17.9c-0.2-1.3,0-2.5,0.8-3.7s1.5-2.5,1.8-4 c0.1-0.4,0.3-1,0.7-0.3c1.5,2.4,2.8,4.8,2.9,7.7c-0.4,1.6-1.6,2.7-3,2.8C59.6,20.5,58.4,19.5,57.7,17.9z"
   style="fill:#0D3F56;" />
<path
   id="path23"
   d="M30.8,9.8C30.9,8.4,31,7,31.1,5.6 c0-0.2-0.1-0.5,0.2-0.6c0.3-0.1,0.5,0.1,0.6,0.3c0.6,0.6,1.1,1.3,1.7,1.9c0.7,0.7,1.4,1.4,2.2,2c1.6,1.1,1.8,3.1,0.6,4.4 c-1.2,1.2-3.2,1.2-4.5-0.2C31.1,12.5,30.7,11.3,30.8,9.8z"
   style="fill:#0D4057;" />
</svg>
