<svg width="1024" height="1024" preserveAspectRatio="xMinYMid meet" version="1.1" xmlns="http://www.w3.org/2000/svg">
 <path d="m891.88 538.06-427.17-2.8669s76.083 72.554 28.007 120.63c-2.2053 2.2053-4.8517 4.4106-7.2775 6.3954-62.631 47.634-138.27 3.749-138.27 3.749l57.117-73.878c-198.04-179.51-49.399-331.68-49.399-331.68l-31.756-97.033c157.9-135.41 281.18-13.893 281.18-13.893l-185.02 175.76c399.6-116 472.6 212.81 472.6 212.81m26.243 21.391-5.7338-26.023c-1.1026-5.5132-31.315-135.41-153.27-207.96-73.657-43.665-163.85-56.676-269.27-38.593l128.79-122.17 15.878-14.996-15.658-15.217c-1.3232-1.3232-35.505-34.623-90.638-49.178-50.942-13.452-130.55-13.673-219.21 62.189l-10.585 9.2623 4.4106 13.232 28.007 85.786c-16.981 21.391-52.927 75.421-50.722 148.64 1.9848 65.938 34.182 129.89 95.489 189.88l-45.429 58.661-14.776 19.186 20.95 12.129c3.5285 2.2053 88.653 50.281 161.65-5.0722 3.5285-2.6464 6.6159-5.2927 9.7033-8.3801 14.776-14.776 22.274-33.3 22.053-53.368-0.22053-19.186-7.2775-39.475-20.73-60.866l382.62 2.4258z" fill="#4a4a4a" stroke-width="3.1188"/>
 <path d="m302.63 728.6s43.885 73.878-45.87 83.36c0 0-43.665-66.159 45.87-83.36zm32.197-56.897-34.182 62.41m-43.224-48.076s-25.14 82.037-92.402 22.274c0 0 19.407-76.744 92.402-22.274zm67.482-15.437-72.775 17.642m387.91-391.88-38.372 47.634m165.4 2.6464-140.7 57.779m241.7 47.193-245.23 16.76" fill="none" stroke="#4a4a4a" stroke-linecap="round" stroke-linejoin="round" stroke-miterlimit="10" stroke-width="21.143"/>
</svg>