<svg width="1024" height="1024" preserveAspectRatio="xMinYMid meet" version="1.1" viewBox="0 0 115 115" xmlns="http://www.w3.org/2000/svg">
 <path transform="scale(.1123)" d="m450.32 17.672c-0.22695 0.0026-0.45118 0.03076-0.67188 0.08594-1.7658 0.8829-5.2967 5.2967-7.0625 7.0625l-408.78 408.78c-1.7658 1.7658-14.127 11.478-14.127 14.127 0 2.6487 12.362 12.362 15.01 15.01l244.57 244.57c3.5316 3.5316 1.7654 1.7656 4.4141 1.7656 0.88286 0 0.88462-1.7656 1.7676-1.7656 0.88287 0 3.5312 1.7656 4.4141 1.7656 2.6487 1.7658 6.1793 2.6482 9.7109 4.4141 13.243 5.2974 26.488 7.9471 40.615 9.7129 58.258 5.5864 116.52-16.963 165.64-46.777-11.734 78.917 23.497 159.96 90.385 204.82 71.515 47.677 167.75 45.029 236.62-4.4141 8.829-7.9462 17.659-15.009 25.605-22.955l2e-3 6e-3c60.92-60.92 77.696-156.27 41.496-234.85-37.082-78.578-121.84-127.14-208.36-118.31-4.9629 0.45578-9.884 1.1027-14.758 1.918 14.849-24.678 27.153-50.731 35.947-77.854 9.712-30.018 15.01-60.92 11.479-92.703-1.7658-14.127-4.4158-27.37-10.596-39.73-0.88286-2.6487-2.6483-5.2985-3.5312-7.9473 0-0.88287-1.7656-1.7654-1.7656-3.5312 0-0.88287 2.6484-1.7656 2.6484-2.6484 0-1.7658-1.7654-3.5311-3.5313-5.2969-37.082-37.965-75.046-75.932-113.01-113.02l-134.2-134.2c-2.4832-2.4831-6.5195-8.07-9.9238-8.0312zm0.21484 54.818c1.7658 0 7.0643 7.0643 8.8301 8.8301l90.939 90.939c35.316 35.316 70.632 69.75 105.06 105.06 9.712 9.712 18.54 21.19 23.838 35.316 6.1803 17.658 7.0646 37.082 5.2988 54.74-5.2975 48.56-28.253 95.357-55.623 135.09-4.9791 7.4686-10.22 14.849-15.719 22.09-35.792 19.355-65.684 49.029-85.152 85.184-28.628 22.371-59.907 41.256-93.377 54.301-37.082 15.009-82.11 25.605-120.96 10.596-18.541-7.0632-31.786-21.19-45.029-35.316l-184.52-184.53c-0.8829-0.88286-7.9473-6.1795-7.9473-7.9453 0-0.88287 4.4139-4.414 5.2969-5.2969l163.34-163.34c47.677-46.794 93.585-93.585 140.39-140.39l60.92-60.92c0.88287-0.8829 3.5312-4.4141 4.4141-4.4141zm261.23 466.37c55.258 0.52573 108.64 28.604 139.6 75.742 43.263 66.218 34.431 156.27-21.191 211.9l-2e-3 -2e-3c-49.442 49.442-127.14 63.569-190.71 33.551-63.569-30.902-102.42-98.883-96.236-168.63 1.9214-18.974 7.1155-37.226 15.02-54.105 15.035-12.622 29.56-25.785 43.268-39.492l-8e-3 -4e-3c13.628-13.628 26.699-28.09 38.922-43.289 9.257-4.3779 18.968-7.9374 29.053-10.557 13.988-3.5868 28.196-5.2434 42.281-5.1094z" fill="#4a4a4a" stroke-width="8.829"/>
</svg>