<svg width="1024" height="1024" preserveAspectRatio="xMinYMid meet" version="1.1" viewBox="0 0 113 113" xmlns="http://www.w3.org/2000/svg">
 <path transform="scale(.11035)" d="m325.35 82.875c-31.858 0.3823-61.422 13.634-87.928 34.023-17.218 13.593-33.53 29.905-49.842 45.311-17.218 16.312-35.341 30.81-50.746 48.934-32.623 36.248-52.56 79.745-43.498 128.68 6.5812 33.564 25.116 65.212 53.859 81.762 7.995 34.516 23.729 74.44 57.604 84.979 14.818 4.5098 31.923 4.892 47.088 0.50586 8.6307 8.1895 16.391 17.251 23.279 26.959-32.237 125.59 0.18245 260.86 87.311 357.67 45.31 49.841 104.21 88.808 168.55 108.74 65.246 19.936 135.02 19.936 200.27 3.625 131.4-32.623 241.05-130.49 277.29-262.8 34.435-124.15 6.3442-268.23-81.557-364.29-84.276-92.432-214.77-135.93-338.01-120.52-8.3715 0.98489-16.739 2.2475-24.965 3.7676-1.6098-0.17672-3.2562-0.23117-4.9394-0.14258-7.2496 0-13.594 4.5311-20.844 2.7188-8.1558-1.8124-14.498-7.2503-20.842-12.688-3.6304-2.9043-7.1297-6.0064-10.588-9.1777 5.1188-41.972-34.926-81.924-75.342-100.21-15.183-26.848-43.884-45.811-73.561-53.725-11.101-2.9451-21.976-4.2466-32.596-4.1191zm-3.082 40.201c1.9221-4e-3 3.8478 0.0527 5.7734 0.16602 28.998 2.7186 60.716 19.031 71.59 47.123 0.50517 1.1366 0.64681 2.5059 0.51172 3.9824 31.646 5.3046 58.463 26.763 65.639 59.451 1.8124 5.4372-4.5296 13.592-9.9668 19.029-4.531 4.531-8.1564 3.6246-9.9688-2.7187-6.3434-20.842-20.843-37.153-40.779-46.215-44.404-19.936-86.994 12.685-116.9 42.59-14.499 13.593-28.093 28.093-41.686 41.686-12.687 12.687-25.374 26.28-34.436 42.592-17.218 29.904-10.874 64.34 4.5312 94.244 3.6248 5.4372 7.2503 11.78 12.688 15.404s10.873 0.90636 15.404 2.7188c14.868 8.6489 1.5789 25.583-12.686 25.373-31.717 2.7186-42.592-47.121-47.123-69.775-0.6816-3.408-1.2673-6.8166-1.7266-10.225-7.735 0.8228-16.264-2.6618-21.834-6.9941-9.9681-8.1558-16.311-20.843-20.842-32.623-4.531-11.781-8.1563-25.374-9.0625-38.061-0.9062-18.124 8.1549-35.341 18.123-50.746 23.561-34.435 57.998-60.715 88.809-87.9 14.499-12.687 28.091-28.092 45.309-38.967 11.894-7.1363 25.176-10.11 38.631-10.135zm-11.229 23.795c-7.5275 0.10139-14.97 1.6877-21.965 5.3691-19.03 9.062-34.435 28.093-50.746 41.686-26.28 22.655-58.903 46.217-77.027 76.121-8.1558 12.687-10.875 26.278-7.25 40.777 2.7186 11.781 6.3441 23.561 12.688 34.436 4.4285 7.5916 9.3048 12.525 16.158 14.816 0.73148-5.2406 1.9431-10.482 3.7773-15.723 6.3434-18.124 18.124-32.622 31.717-46.215 25.373-26.28 47.123-55.279 74.309-80.652 22.756-20.402 48.912-40.112 79.639-43.857-1.6442-2.1952-3.7157-4.0919-6.2363-5.9824-6.3434-5.4372-14.5-9.969-22.656-13.594-10.223-4.3044-21.405-7.3298-32.406-7.1816zm119.4 141.3c2.5473 0 5.1555 0.31036 7.9375 0.66016 1.2826 1.0268 2.5662 2.025 3.8418 2.9648 18.124 13.593 34.437 28.999 53.467 41.686 19.575 12.528 41.18 18.281 63.061 13.186 1.9137-0.0604 3.8483-0.21996 5.8086-0.5 6.2701-1.045 12.397-2.2186 18.502-3.377 1.8888 0.33389 3.3349 0.25904 3.8027-0.71875 8.4993-1.5938 16.984-3.0893 25.725-4.0605 62.527-6.3434 125.96 7.2499 179.43 38.061 55.278 31.717 100.59 81.558 125.96 139.55 26.28 58.903 29.905 125.96 13.594 188.49-16.312 62.527-51.653 120.52-101.49 161.3-48.935 39.873-110.56 61.621-173.99 64.34-62.527 2.7186-126.87-14.5-179.43-48.936-49.841-32.623-87.9-82.462-108.74-137.74-20.842-56.184-25.374-117.81-13.594-176.71 0.85628-4.1102 1.8923-8.2881 2.8984-12.473 0.57467-0.94742 1.1262-1.9184 1.6328-2.9316 14.499-27.186-2.7198-57.091-19.938-77.934-16.559-19.871-37.659-38.217-59.84-52.988 1.18-1.6092 2.6767-3.122 3.6562-4.1016 8.1558-9.9681 17.217-19.03 25.373-28.998 8.1558-8.1558 17.219-16.311 23.562-26.279 3.1189-4.2196 5.2573-8.5142 6.5801-12.822 8.8344-7.1291 17.728-14.258 26.752-21.387 0.9769-0.32967 1.9501-0.70353 2.916-1.1328 11.781-4.531 22.653-16.311 33.527-24.467 6.3434-4.531 12.688-8.1564 19.031-10.875 3.6248-1.3593 6.7971-1.8125 9.9688-1.8125z" fill="#4a4a4a" stroke-width="9.0619"/>
 <path d="m37.8 32.9c5.2 5.2 10.4 10.4 15.7 15.5 2.6 2.6 5.3 5.1 7.9 7.7 1.9 1.9 3.8 3.8 5.9 5.4 3 2.4 7.9 5.7 11.9 3.7 4.3-2.1 4.8-8.7 0.4-11-2.4-1.3-5.2-0.5-7.6 0.6-2.9 1.3-5.5 3.1-7.9 5.1-2.3 1.9-4.4 4.1-6.2 6.4s-3.4 5-3.8 8c-0.2 2.3 0.4 4.5 2.2 6 1.5 1.2 3.6 1.8 5.5 1.3 2.4-0.5 3.9-2.6 4.7-4.9 0.9-2.7 0.3-5.5-1-8-1.4-2.4-3.5-4.7-5.5-6.9-2.4-2.6-4.9-5.1-7.4-7.6-5-5-10-10-14.9-15.1-1.2-1.3-2.4-2.6-3.6-3.9-0.3-0.3-0.5-0.8-0.9-0.7-0.3 0-0.6 0.5-0.8 0.7-0.5 0.6-1.1 1.4-1.1 2.2 0 0.5 0.3 0.8 0.6 1.1 0.6 0.6 1.1 1.2 1.7 1.8 4.6 4.9 9.4 9.4 14.2 14.1 4.7 4.7 9.4 9.4 13.6 14.6 1.4 1.8 6 8.1 1.8 9.3-2.6 0.8-5.1-1.4-6.2-3.6-1-2.1-0.3-4.2 0.9-6 1.4-2 3.2-3.6 5-5.1 2.2-1.8 4.4-3.5 6.9-4.8 2-1 4.5-2.3 6.7-1.3 1.3 0.6 3.2 1.7 3.8 3.1 1 2.2-3.4 1.6-4.3 1.3-2.7-0.8-5.3-2.6-7.5-4.4-5.1-4-9.4-9-14-13.6-2.6-2.6-5.2-5.2-7.8-7.7l-5.7-5.7c-0.3-0.3-1-1.3-1.4-1.3-0.9 0.1-2.6 3-1.8 3.7z" fill="#4a4a4a"/>
</svg>