<svg width="1024" height="1024" preserveAspectRatio="xMinYMid meet" version="1.1" viewBox="0 0 115 115" xmlns="http://www.w3.org/2000/svg">
 <path transform="scale(.1123)" d="m501.97 6.3984c-0.11086 0.014929-0.21755 0.047252-0.32227 0.099609-2.5132 0-8.3792 8.3773-10.893 10.891l-475.01 475.01c-1.6755 1.6755-10.053 8.3773-10.053 10.053 0 1.6755 5.8635 5.8654 6.7012 6.7031l116.45 116.45c0.83772 0.83781 5.8635 7.5391 7.5391 7.5391s8.3773-8.3773 9.2148-9.2148l20.945-20.943c1.6755-1.6755 6.7014-7.541 8.377-7.541 0.83772 0 1.6758 1.6758 1.6758 1.6758 3.3511 2.5132 6.7018 6.7018 10.053 10.053l252.16 252.16c25.133 25.133 54.454 44.403 87.127 57.807 71.21 29.321 154.14 27.646 224.52-3.3516 35.186-16.755 68.697-39.374 96.346-67.02v-2e-3c56.129-56.129 89.64-133.2 90.477-213.62 0-72.885-27.647-144.09-79.588-196.04-21.782-22.62-44.4-44.403-66.182-66.184l-185.99-185.98c-3.3511-3.3511-7.5396-5.864-10.053-10.053l-1.6758-1.6758c0-1.6755 6.7014-6.7034 8.377-8.3789l20.945-20.943c0.83772-0.83772 8.377-6.7014 8.377-8.377s-7.5392-7.5412-8.377-8.3789l-20.107-20.105c-26.808-26.808-53.616-54.453-81.262-81.262l-14.242-14.242c-1.5708-1.5708-3.8782-5.3509-5.541-5.127zm-0.32227 55.395c1.6755 0 5.0275 5.0256 5.8652 5.8633l60.318 60.32c2.5133 2.5132 7.5409 5.864 6.7031 9.2148-0.83772 2.5132-6.7034 6.7014-8.3789 8.377l-14.24 14.242c-1.6755 1.6755-14.242 11.727-14.242 14.24 0 0.83772 3.3498 3.3517 4.1875 4.1894l267.25 267.25c25.133 25.133 49.426 51.103 65.344 83.775 30.159 62.832 29.322 136.56 3.3516 201.06-12.567 32.673-33.51 62.832-58.643 87.965v4e-3c-51.103 51.103-122.31 81.264-195.2 78.75-60.319-1.6756-116.45-26.808-159.17-68.695-56.129-55.292-111.42-110.58-166.72-165.88l-120.63-120.63c-0.83772-0.83772-3.3517-4.1894-4.1894-4.1895-0.83772 0-3.3517 3.3517-4.1895 4.1895l-25.131 25.133c-1.6755 1.6755-5.8656 7.5392-8.3789 8.377-2.5132 0-7.5396-6.7018-10.053-9.2148l-59.48-59.482c-0.83776-0.83772-5.0273-4.1876-5.0273-5.0254 0-0.83772 0.83801-0.83797 1.6758-1.6758 3.3511-5.8643 11.729-11.729 15.918-15.918l406.31-406.31c4.1888-4.1888 10.052-13.402 15.078-15.078 1.6755-0.83776 2.5e-4 -0.83789 1.6758-0.83789zm125.32 338.02c-0.89829 0.13254-1.9588 1.074-3.8438 2.959l-221.17 221.17c-5.0265 4.1888-5.0265 3.3504 0 8.377l9.2148 9.2148c0.83772 0.83772 4.1896 5.0273 5.0273 5.0273 0.83782 0 0.83807-1.6758 1.6758-1.6758 5.0261-2.5128 9.2136-9.2155 13.402-13.404l215.3-215.3c-5.0261-4.1889-9.2155-8.3774-13.404-10.891-3.6651-3.6652-4.7118-5.6936-6.209-5.4727zm45.234 45.232c-0.8983 0.13254-1.9569 1.076-3.8418 2.9609l-73.723 73.723c-43.563 43.562-87.128 87.126-129.85 130.69l-16.754 16.754c-5.0265 4.1888-5.0265 3.3524 0 8.3789l9.2148 9.2148c0.83772 0.83773 4.1877 5.0254 5.0254 5.0254 0.83781 0 0.83806-1.6738 1.6758-1.6738 5.0262-2.5128 9.2155-9.2155 13.404-13.404l214.46-214.46c-4.1886-4.189-8.3758-8.3775-13.402-11.729-3.6652-3.6652-4.7138-5.6955-6.2109-5.4746zm46.916 45.244c-0.89829 0.13254-1.9568 1.076-3.8418 2.9609l-221.17 221.17c-5.0265 4.1888-5.0265 3.3504 0 8.377l9.2148 9.2148c0.83773 0.83781 4.1877 5.0274 5.0254 5.0274 0.83781 0 0.83806-1.6758 1.6758-1.6758 5.0262-2.5128 9.2155-9.2155 13.404-13.404l214.46-214.46c-4.1889-4.1886-9.2136-8.3797-12.564-11.73-3.6651-3.6652-4.7138-5.6936-6.2109-5.4727z" fill="#4a4a4a" stroke-width="8.3776"/>
</svg>