<svg width="1024" height="1024" preserveAspectRatio="xMinYMid meet" version="1.1" viewBox="0 0 88 88" xmlns="http://www.w3.org/2000/svg">
  <path style="fill:#4a4a4a" d="m 74.4,73 c -1.9,1.9 -4.2,1.7 -6.5,1 -1.9,-0.7 -3.9,-1.3 -5.8,-2 -3.5,-1.2 -7,-2.6 -10.6,-3.6 -1.7,-0.5 -3,0.9 -4.2,1.8 l -5.7,4.2 c -1.9,1.4 -3.7,2.8 -5.6,4.2 -1.5,1.1 -3,2.3 -5,2.2 -3.1,-0.2 -5.1,-2.9 -5.1,-5.8 0,-1.8 0,-3.5 0.1,-5.3 0.1,-4.2 0.2,-8.3 0.2,-12.5 0,-1.6 -1,-2.2 -2.2,-3 -1.8,-1.3 -3.6,-2.5 -5.4,-3.8 l -6,-4.2 C 11.5,45.4 10.2,44.7 9.2,43.7 6.5,40.8 8,36.2 11.7,34.9 c 1.4,-0.5 2.8,-0.9 4.2,-1.3 4.2,-1.3 8.5,-2.6 12.7,-4 0.7,-0.2 1.3,-0.4 1.7,-1 0.3,-0.4 0.5,-0.9 0.6,-1.4 0.6,-1.9 1.2,-3.7 1.7,-5.6 1.2,-3.7 2.2,-7.5 3.5,-11.2 1.3,-3.7 6.1,-5.1 9,-2.2 0.9,1 1.7,2.2 2.4,3.3 2.7,3.8 5.3,7.5 8,11.3 0.8,1.1 1.4,2 2.9,2 1.7,0 3.4,0 5.1,-0.1 4.3,-0.1 8.5,-0.1 12.8,-0.2 3,0 5.7,2.2 5.7,5.4 0,2 -1.2,3.4 -2.3,4.9 -2.8,3.7 -5.6,7.5 -8.4,11.2 -0.9,1.2 -2.1,2.4 -1.7,4 0.3,1.2 0.8,2.5 1.3,3.7 1.5,4.3 2.9,8.6 4.4,12.8 0.8,2.3 0.9,4.6 -0.9,6.5 m 3.4,3.4 c 2.8,-2.8 3.6,-6.9 2.4,-10.6 -0.5,-1.5 -1,-2.9 -1.5,-4.4 -0.8,-2.4 -1.7,-4.9 -2.5,-7.3 -0.3,-1 -0.7,-1.9 -1,-2.9 -0.1,-0.3 -0.5,-1.1 -0.5,-1.5 0,-0.2 0.3,-0.5 0.5,-0.7 0.5,-0.7 1,-1.4 1.6,-2.1 1.5,-2 3,-4.1 4.6,-6.1 1.1,-1.5 2.3,-3 3.4,-4.5 2,-2.7 2.8,-6 1.8,-9.2 -1.1,-3.8 -4.3,-6.7 -8.2,-7.3 -1.6,-0.2 -3.2,-0.1 -4.8,-0.1 -4.5,0.1 -9,0.1 -13.5,0.2 -0.9,0 -1.1,-0.9 -1.6,-1.6 -1.4,-2 -2.8,-4 -4.3,-6 C 53,10.6 51.7,8.8 50.4,7 49,5 47.5,3.3 45.2,2.4 41.1,0.8 36.3,2 33.5,5.4 32.2,7.1 31.6,9 31,10.9 c -1.4,4.4 -2.7,8.8 -4.1,13.3 -0.1,0.2 -0.1,0.8 -0.3,1 -0.2,0.2 -0.9,0.3 -1.2,0.4 -2.1,0.7 -4.3,1.3 -6.4,2 l -6.9,2.1 C 10,30.3 8,31 6.4,32.5 3.3,35.5 2.3,40.1 4,44 c 1,2.2 2.6,3.7 4.5,5.1 3.8,2.7 7.6,5.4 11.4,8 0.4,0.3 1.2,0.6 1.4,1 0.1,0.2 0.1,0.4 0.1,0.6 0,2.1 -0.1,4.1 -0.1,6.2 0,2.5 -0.1,5 -0.1,7.5 0,1.6 -0.2,3.3 0.1,4.8 0.7,4 3.9,7.2 7.8,8.1 3.1,0.7 6.2,-0.2 8.7,-2 3.6,-2.7 7.2,-5.3 10.8,-8 l 2.1,-1.5 c 0.2,-0.1 0.4,-0.3 0.6,-0.4 0.4,0 1.1,0.4 1.5,0.5 1,0.3 2,0.7 3,1 3.8,1.3 7.7,2.7 11.5,3.9 3.7,1.2 7.7,0.4 10.5,-2.4 z" />
</svg>