<?xml version="1.0" encoding="UTF-8"?>
<svg width="16px" height="18px" version="1.1" viewBox="0 0 16 18" xmlns="http://www.w3.org/2000/svg">
 <g fill="none" fill-rule="evenodd">
  <g transform="translate(-577 -482)" fill="#FAFAFA">
   <g id="Edit-profile" transform="translate(577 482)">
    <path d="m5.8947 13.113-2.9496 2.0086c-0.26849 0.14078-0.51008-0.15066-0.38489-0.43345l1.7855-3.3194 1.5489 1.7443zm4.9197-9.3233 1.8172 2.0192-5.7746 6.5071c-0.6761-0.76255-1.6127-1.8179-1.8043-2.0337l5.7618-6.4927zm1.8617-1.7078c0.16724-0.24923 0.43837-0.24923 0.60604 0l0.9082 1.3506c0.16724 0.24923 0.16724 0.65221 0 0.9008l-0.9082 1.3512-1.4927-2.2847 0.88665-1.3179zm-8.8221 8.3442-2.1255 4.8316c-0.17845 0.5445 0.20909 1.0318 0.69352 0.77928l4.3-2.3883c0.18537-0.040518 0.3653-0.12155 0.50865-0.28252l7.6396-8.5843c0.38359-0.43016 0.38359-1.1295 0-1.5602l-1.736-1.951c-0.38408-0.43071-1.0054-0.43071-1.389 0l-7.6396 8.5837c-0.14384 0.16152-0.21503 0.36355-0.2516 0.57169zm11.146-3.6758v9c0 0.61819-0.543 1.1318-1.0915 1.1318h-11.922c-0.5485 0-0.9935-0.50062-0.9935-1.1188v-13.42c0-0.61819 0.4575-1.2178 1.0065-1.2178h8v-1.125h-8c-1.097 0-2 1.1076-2 2.3428v13.42c0 1.2358 0.8895 2.2371 1.987 2.2371h11.922c1.0975 0 2.0915-1.0148 2.0915-2.25v-9h-1z"/>
   </g>
  </g>
 </g>
</svg>
