
<svg width="20px" height="24px" viewBox="0 0 20 24" version="1.1" xmlns="http://www.w3.org/2000/svg" xmlns:xlink="http://www.w3.org/1999/xlink">
    <g id="Welcome" stroke="none" stroke-width="1" fill="none" fill-rule="evenodd">
        <g id="battles" transform="translate(-1372.000000, -247.000000)">
            <g id="Боковое-меню" transform="translate(1363.000000, 0.000000)">
                <g id="pin" transform="translate(18.993001, 261.489887) rotate(-135.000000) translate(-18.993001, -261.489887) translate(6.493001, 248.489887)">
                    <g id="Group" transform="translate(0.000000, 0.000000)">
                        <path d="M15.7626117,9.54179756 C15.0056501,10.3426679 14.2486886,11.1206561 13.491727,11.8986444 C12.334021,13.0885089 11.1763151,14.2783733 10.0186091,15.4682378 C9.86276411,15.6284118 9.70691908,15.7885859 9.55107405,15.9487599 C9.52881047,15.971642 9.48428332,16.040288 9.43975617,16.06317 C9.37296544,16.086052 9.46201974,16.108934 9.35070186,16.040288 C9.15032968,15.9029959 9.17259326,15.8801139 9.28391114,15.7657039 C9.41749259,15.6284118 9.57333762,15.4682378 9.70691908,15.3309457 C10.8423614,14.1639633 12.0000674,12.9740988 13.1355098,11.8071164 C13.6920992,11.2350662 14.226425,10.685898 14.7830144,10.1138478 C14.961123,9.9307917 15.1392316,9.74773563 15.3173402,9.56467957 C15.3618673,9.51891555 15.4954488,9.33585948 15.539976,9.33585948 C15.5845031,9.33585948 15.7180846,9.51891555 15.7626117,9.54179756 Z" id="Path" fill="#4A4A4A"></path>
                        <path d="M13.3358819,6.20102431 C12.4898661,7.07054064 11.6438502,7.94005696 10.7755707,8.83245529 C9.48428332,10.1596118 8.17073234,11.5096503 6.87944494,12.8368068 C6.70133634,13.0198629 6.52322773,13.2029189 6.34511912,13.385975 C6.2783284,13.454621 6.21153767,13.5690311 6.14474694,13.5461491 C6.10021979,13.523267 5.96663833,13.385975 5.96663833,13.340211 C5.96663833,13.317329 6.05569264,13.2486829 6.07795621,13.2258009 C6.23380124,13.0656269 6.38964627,12.9054528 6.54549131,12.7452788 C7.81451513,11.4410043 9.10580253,10.1138478 10.3748264,8.80957328 C10.9982065,8.16887705 11.599323,7.55106282 12.2227032,6.91036658 C12.4230753,6.7044285 12.6234475,6.49849042 12.8460833,6.26967034 C12.8906104,6.22390632 13.0464555,6.01796824 13.1132462,5.99508624 C13.1577733,5.97220423 13.2913548,6.1552603 13.3358819,6.20102431 Z" id="Path" fill="#4A4A4A"></path>
                        <path d="M13.2023005,0.846634316 C13.9815256,1.64750461 14.7607508,2.44837491 15.539976,3.24924521 C15.6067667,3.31789124 15.8739296,3.52382931 15.8961932,3.61535735 C15.9184567,3.68400337 15.6290303,3.91282346 15.5622395,3.98146948 C15.4509217,4.09587953 15.3173402,4.23317158 15.2060223,4.34758162 C15.1392316,4.41622765 14.961123,4.53063769 14.9165958,4.64504773 C14.9165958,4.69081175 14.9165958,4.66792974 14.9833866,4.73657577 C15.1837587,4.98827786 15.4509217,5.21709795 15.6735574,5.44591803 C16.0743018,5.85779418 16.4750461,6.26967034 16.8757905,6.68154649 C17.899915,7.73411888 18.9017759,8.76380927 19.9259004,9.81638166 C20.6605984,10.5714879 21.3730328,11.3037122 22.1077308,12.0588185 C23.0873282,13.0656269 23.7997626,14.2097273 24.0891891,15.6055298 C25.0019957,19.7929374 22.1077308,24.026109 18.0780236,24.8498613 C16.1856197,25.2388554 14.1596343,24.8269793 12.6011839,23.6371148 C11.9555402,23.1337106 11.3989508,22.4930144 10.8200979,21.8980822 C8.97222108,19.9988755 7.12434428,18.0996687 5.25420391,16.17758 C5.03156815,15.9487599 4.78666881,15.6970579 4.56403305,15.4682378 C4.5195059,15.4224738 4.5195059,15.3995917 4.47497875,15.3995917 C4.40818802,15.4224738 4.29687014,15.5826478 4.25234299,15.6284118 C4.11876154,15.7657039 3.98518008,15.9029959 3.8738622,16.017406 C3.80707147,16.086052 3.58443571,16.3835181 3.49538141,16.3835181 C3.40632711,16.3835181 3.20595493,16.086052 3.16142777,16.040288 C2.6716291,15.5368838 2.20409401,15.0563616 1.71429534,14.5529574 C1.49165958,14.3241373 1.2912874,14.1181993 1.06865164,13.8893792 C1.02412449,13.8436152 0.779225155,13.6605591 0.779225155,13.5919131 C0.779225155,13.5461491 0.979597338,13.385975 1.00186091,13.363093 C1.58071389,12.7681608 2.13730328,12.1961105 2.71615626,11.6011783 C4.65308736,9.61044358 6.61228203,7.59682683 8.54921313,5.60609209 C10.0186091,4.11876154 11.4880051,2.60854897 12.9796647,1.0754544 C13.0464555,1.00680838 13.1355098,0.915280341 13.2023005,0.846634316 Z" id="Path"></path>
                        <path d="M21.6401957,22.2870763 C20.2821176,23.6828788 18.3897137,24.5066311 16.4527826,24.4379851 C14.8498051,24.3922211 13.3581455,23.7057608 12.2227032,22.5616604 C10.7310436,21.0514478 9.26164756,19.5412353 7.79225155,18.0310227 C6.94623567,17.1615064 6.10021979,16.2919901 5.25420391,15.4224738 C5.03156815,15.1936537 4.80893239,14.9648336 4.58629663,14.7360135 C4.56403305,14.7131315 4.49724233,14.6216035 4.47497875,14.6216035 C4.45271517,14.6216035 4.38592445,14.7131315 4.36366087,14.7360135 C4.25234299,14.8504235 4.14102511,14.9648336 4.05197081,15.0563616 C3.94065293,15.1707717 3.80707147,15.3080637 3.69575359,15.4224738 C3.65122644,15.4682378 3.53990856,15.6284118 3.47311784,15.6512938 C3.40632711,15.6512938 3.27274565,15.4682378 3.20595493,15.3995917 C2.76068341,14.9419516 2.31541189,14.4843114 1.87014037,14.0266712 C1.78108607,13.9351432 1.71429534,13.8664972 1.62524104,13.7749691 C1.60297746,13.7520871 1.49165958,13.6605591 1.49165958,13.6376771 C1.49165958,13.6147951 1.51392316,13.6147951 1.53618673,13.5919131 C1.62524104,13.431739 1.8478768,13.2715649 1.95919468,13.1571549 C3.51764499,11.5554143 5.0760953,9.95367371 6.63454561,8.35193311 C8.41563168,6.52137243 10.1967177,4.69081175 11.9555402,2.88313308 C12.2227032,2.60854897 12.4898661,2.33396487 12.757029,2.05938077 C12.8683469,1.94497073 13.0241919,1.69326863 13.1577733,1.64750461 C13.2023005,1.62462261 13.1577733,1.62462261 13.2023005,1.62462261 C13.2468276,1.62462261 13.3358819,1.76191466 13.3581455,1.78479667 C13.4471998,1.8763247 13.5362541,1.96785273 13.6253084,2.05938077 C14.0705799,2.51702094 14.5158515,2.97466111 14.961123,3.43230128 C15.0279137,3.50094731 15.1614952,3.59247534 15.1392316,3.68400337 C15.116968,3.7526494 14.961123,3.86705944 14.9165958,3.91282346 C14.7830144,4.05011551 14.6716965,4.16452555 14.538115,4.3018176 C14.4935879,4.34758162 14.1596343,4.62216572 14.1596343,4.69081175 C14.1596343,4.71369376 14.2486886,4.78233978 14.2709521,4.80522179 C14.8720687,5.42303602 15.4954488,6.06373226 16.0965654,6.68154649 C17.8553878,8.48922517 19.6142103,10.2969038 21.3730328,12.1045825 C22.0409401,12.7910428 22.6865838,13.500385 23.1095918,14.3927834 C23.9110805,16.108934 23.8888169,18.1225508 23.1986461,19.8844654 C22.8646924,20.7768637 22.308103,21.6006161 21.6401957,22.2870763 Z M22.3748937,23.0650646 C23.8665533,21.53197 24.7570964,19.4268252 24.7793599,17.2301524 C24.7793599,15.2394177 24.0446619,13.294447 22.6643202,11.8757624 C22.0854673,11.2579482 21.4843507,10.663016 20.9054977,10.0680838 C19.8368461,8.96974734 18.790458,7.89429294 17.7218064,6.79595653 C17.2765349,6.33831636 16.8535269,5.9035582 16.4082554,5.44591803 C16.2524104,5.28574397 16.1188289,5.14845192 15.9629839,4.98827786 C15.8739296,4.89674983 15.7626117,4.8281038 15.695821,4.71369376 C15.695821,4.71369376 15.6512938,4.66792974 15.6512938,4.66792974 C15.6512938,4.62216572 15.8294024,4.48487367 15.8739296,4.43910966 C16.0520382,4.25605359 16.2524104,4.05011551 16.430519,3.86705944 C16.4527826,3.84417743 16.6531547,3.68400337 16.6531547,3.63823936 C16.6531547,3.59247534 16.4527826,3.43230128 16.430519,3.40941927 C16.2524104,3.2263632 16.0743018,3.04330713 15.8961932,2.86025107 C15.1837587,2.12802679 14.4713243,1.37292051 13.7366263,0.640696239 C13.6030449,0.503404188 13.491727,0.388994145 13.3581455,0.251702094 C13.3136184,0.205938077 13.2468276,0.0915280341 13.2023005,0.114410043 C13.1355098,0.114410043 12.9796647,0.343230128 12.912874,0.411876154 C12.8015561,0.526286196 12.6679747,0.663578247 12.5566568,0.77798829 C12.4676025,0.869516324 12.3562846,0.983926367 12.2672303,1.0754544 C11.6438502,1.71615064 11.0427336,2.33396487 10.4193535,2.97466111 C9.41749259,4.00435149 8.43789525,5.01115987 7.43603434,6.04085025 C6.3673827,7.13918666 5.29873106,8.23752307 4.20781584,9.35874149 C3.36179996,10.2282578 2.51578407,11.0977741 1.66976819,11.9672905 C1.33581455,12.3105206 1.00186091,12.6537507 0.6456437,13.0198629 C0.534325821,13.1342729 0.400744366,13.2715649 0.289426486,13.385975 C0.244899335,13.431739 0.0222635759,13.6147951 0.0222635759,13.6605591 C0.0222635759,13.7063231 0.178108607,13.8207332 0.200372183,13.8436152 C0.333953638,13.9809072 0.445271517,14.0953173 0.578852973,14.2326093 C0.890543035,14.5529574 1.2022331,14.8733055 1.53618673,15.2165357 C1.9369311,15.6284118 2.33767547,16.040288 2.73841983,16.4521641 C2.91652844,16.6352202 3.09463705,16.8182763 3.29500923,17.0242143 C3.3172728,17.0470964 3.45085426,17.2301524 3.49538141,17.2301524 C3.53990856,17.2301524 3.71801717,17.0013323 3.74028075,16.9784503 C3.91838935,16.7953943 4.09649796,16.6123382 4.29687014,16.4064001 C4.34139729,16.3606361 4.47497875,16.200462 4.5195059,16.200462 C4.54176948,16.200462 4.56403305,16.2462261 4.56403305,16.2462261 C4.65308736,16.3148721 4.74214166,16.4292821 4.83119596,16.5208102 C4.98704099,16.6809842 5.14288603,16.8411583 5.27646748,16.9784503 C6.25606482,17.9852587 7.23566216,18.9920671 8.2152595,19.9988755 C9.15032968,20.9599198 10.0631363,21.8980822 10.9982065,22.8591265 C11.1763151,23.0421826 11.3544237,23.2252387 11.5325323,23.4082947 C12.2004396,24.094755 12.9796647,24.6210412 13.8479442,24.9871533 C15.7403481,25.7880236 17.9444422,25.7422596 19.8145825,24.8956253 C20.7496527,24.4379851 21.6401957,23.8201709 22.3748937,23.0650646 Z" id="Shape" fill="#4A4A4A" fill-rule="nonzero"></path>
                        <path d="M19.4806289,13.7978511 C18.7014037,14.5987214 17.9221786,15.3995917 17.1429534,16.200462 C16.0297746,17.3445625 14.8943323,18.5115449 13.7811535,19.6556453 C13.6698356,19.7700554 13.5585177,19.9531114 13.4249362,20.0217575 C13.4026727,20.0217575 13.4026727,20.0675215 13.3804091,20.0675215 C13.3581455,20.0675215 13.2690912,19.9531114 13.2468276,19.9302294 C13.1577733,19.8387014 13.0909826,19.7700554 13.0019283,19.6785273 C12.8683469,19.5412353 12.8683469,19.5641173 13.0019283,19.4497073 C13.1577733,19.2895332 13.2913548,19.1522411 13.4471998,18.9920671 C14.6049058,17.8022026 15.7626117,16.6123382 16.9203177,15.4224738 C17.4323799,14.8961876 17.9444422,14.3699014 18.4565044,13.8436152 C18.5900859,13.7063231 18.7459309,13.5461491 18.8795123,13.408857 C19.0130938,13.2715649 18.9908302,13.317329 19.1466752,13.477503 C19.2357296,13.5690311 19.369311,13.6834411 19.4806289,13.7978511 Z" id="Path" fill="#4A4A4A"></path>
                        <path d="M18.2561322,12.5622227 C17.4769071,13.363093 16.6976819,14.1639633 15.9184567,14.9648336 C14.805278,16.108934 13.6698356,17.2759164 12.5566568,18.4200169 C12.4453389,18.5344269 12.334021,18.717483 12.2004396,18.786129 C12.178176,18.786129 12.178176,18.831893 12.1559124,18.831893 C12.1336488,18.831893 12.0445945,18.717483 12.022331,18.694601 C11.9332767,18.6030729 11.8664859,18.5344269 11.7774316,18.4428989 C11.6438502,18.3056068 11.6438502,18.3284888 11.7774316,18.2140788 C11.9332767,18.0539047 12.0668581,17.9166127 12.2227032,17.7564386 C13.3581455,16.5665742 14.5158515,15.3767097 15.6735574,14.1868453 C16.1856197,13.6605591 16.6976819,13.1342729 17.2097441,12.6079867 C17.3433256,12.4706946 17.4991706,12.3105206 17.6327521,12.1732285 C17.7663335,12.0359365 17.74407,12.0817005 17.899915,12.2418746 C18.0334965,12.3334026 18.1448143,12.4478126 18.2561322,12.5622227 Z" id="Path" fill="#4A4A4A"></path>
                        <path d="M17.0538991,11.3037122 C16.274674,12.1045825 15.4954488,12.9054528 14.7162236,13.7063231 C13.5807813,14.8733055 12.4676025,16.017406 11.3321601,17.1843884 C11.2208422,17.2987985 11.1095244,17.4818545 10.9759429,17.5505005 C10.9536793,17.5505005 10.9536793,17.5962646 10.9314158,17.5962646 C10.9091522,17.5962646 10.8200979,17.4818545 10.7978343,17.4589725 C10.70878,17.3674445 10.6419893,17.2987985 10.552935,17.2072704 C10.4193535,17.0699784 10.4193535,17.0928604 10.552935,16.9784503 C10.70878,16.8182763 10.8423614,16.6809842 10.9982065,16.5208102 C12.1559124,15.3309457 13.3136184,14.1410813 14.4713243,12.9512168 C14.9833866,12.4249306 15.4954488,11.8986444 16.007511,11.3723582 C16.1410925,11.2350662 16.2969375,11.0748921 16.430519,10.9376001 C16.5641004,10.800308 16.5418369,10.846072 16.6976819,11.0062461 C16.8089998,11.0748921 16.9203177,11.1893022 17.0538991,11.3037122 Z" id="Path" fill="#4A4A4A"></path>
                    </g>
                </g>
            </g>
        </g>
    </g>
</svg>