<svg width="111" height="51" viewBox="0 0 111 51" fill="none" xmlns="http://www.w3.org/2000/svg">
<path d="M34.7959 28.2608C38.1759 25.4691 44.9702 26.5147 46.5969 31.0054C47.5833 33.7291 44.987 38.0158 41.9743 36.5942C40.5351 35.9147 40.1957 33.9993 40.3609 32.5685C40.8018 28.7491 44.4473 33.2508 43.983 33.5735C43.3896 33.986 44.2834 34.2238 44.6552 33.9655C45.969 33.0518 44.0392 31.4563 43.2523 30.8982C42.0656 30.058 40.4088 30.681 39.6338 31.747C38.5911 33.181 39.4105 36.0342 40.7956 36.9328C42.3266 37.9259 44.0197 37.7242 45.5126 36.759C49.0814 34.4529 48.1225 29.6701 45.0921 27.5913C41.9499 25.4354 37.0952 25.4148 34.1237 27.8688C33.5658 28.3292 34.4392 28.5552 34.7959 28.2608Z" fill="#E94444"/>
<path d="M48.5387 29.3424C53.9784 27.9012 56.8503 32.1724 60.7542 33.9454C63.1634 35.0398 66.4474 35.3885 69.2236 35.0928C75.3582 34.4374 77.5966 28.1417 83.9879 28.3343C84.7486 28.3576 85.4912 27.5302 84.4863 27.5C78.1344 27.3084 75.7069 31.9442 70.7381 33.8783C66.0066 35.7194 61.0923 33.0158 57.9003 30.7818C55.1511 28.8591 52.0474 27.5384 48.2457 28.5456C47.3591 28.7802 47.6296 29.5829 48.5387 29.3424Z" fill="#E94444"/>
<path d="M36.7971 41.241C38.3134 41.7626 38.0409 42.4737 35.98 43.3759C35.138 43.3928 34.402 42.9086 33.8787 42.2929C33.0084 41.2688 33.8574 39.7418 34.5775 38.9806C36.3464 37.1112 38.8753 38.6045 39.8355 40.4131C40.4173 41.5093 40.4111 42.8881 40.2728 44.0828C39.4137 51.514 28.6132 50.7062 23.6277 49.4681C20.9535 48.8041 18.6839 47.4253 16.424 45.8664C14.4663 44.515 12.3678 42.8205 10.0463 42.2017C7.05039 41.4039 3.70533 41.6983 0.664682 42.1058C0.804262 42.2099 0.943843 42.3144 1.08387 42.4184C2.71408 38.8797 8.73423 38.5475 11.852 38.9477C15.3393 39.395 18.5762 40.2657 22.1109 39.7605C24.79 39.3781 27.096 38.0578 28.9602 36.0748C30.1065 34.8554 31.0153 33.3968 31.9184 31.9861C32.6557 30.8343 33.736 29.7298 34.3174 28.499C34.5398 28.0275 33.4866 28.1567 33.3359 28.4757C32.8666 29.4697 31.9162 30.4217 31.3166 31.3636C30.1938 33.1289 29.0767 34.8723 27.6463 36.3938C24.0208 40.2516 18.6804 39.4315 14.0782 38.6159C11.1204 38.092 8.39126 37.9893 5.49196 38.845C3.51745 39.4287 1.04355 40.3524 0.102371 42.3952C-0.0296765 42.6813 0.31285 42.7356 0.521114 42.7082C3.44256 42.3167 6.8665 41.9151 9.7011 42.8981C14.0507 44.4064 17.2163 48.2605 21.651 49.6616C27.7305 51.5825 40.3504 52.393 41.3917 43.3846C41.7236 40.5135 39.7797 37.1879 36.6411 37.5265C34.4876 37.7593 32.1727 39.4725 32.548 41.9534C32.8813 44.1577 36.5618 44.5401 37.9664 43.3581C39.9254 41.7115 37.8459 39.5643 35.952 41.0616C35.4748 41.44 36.5308 41.4514 36.7971 41.241Z" fill="#E94444"/>
<path d="M41.4084 42.6048C43.3031 39.1528 50.6012 46.3192 52.0529 47.3894C54.3717 49.0999 57.399 50.3577 60.2332 49.2569C62.5587 48.3542 64.5185 46.8121 64.5305 44.0579C64.5407 41.7162 62.7714 39.3878 60.7623 38.4673C56.8651 36.681 53.1407 43.4107 57.275 44.7885C58.716 45.2691 61.0016 44.0597 61.201 42.4656C61.4402 40.5538 59.822 40.8861 58.8019 41.718C58.5804 41.8988 59.5592 41.7911 59.7546 41.6313C60.3559 41.1412 59.9168 43.3765 59.8982 43.4185C58.8117 45.8583 57.2431 44.0132 56.8141 43.1273C56.6209 42.7271 56.6054 42.2484 56.5819 41.8153C56.5257 40.7802 57.0383 39.8095 57.7074 39.0884C58.6943 38.0251 60.1583 38.9433 60.9967 39.574C65.1092 42.6723 63.8822 49.9976 57.4677 49.1323C53.0831 48.5413 50.1377 43.9999 46.311 42.1009C44.4535 41.1795 41.5852 40.584 40.3697 42.7983C40.2953 42.9338 41.2604 42.875 41.4084 42.6048Z" fill="#E94444"/>
<path d="M63.4053 45.1488C66.0821 49.4328 70.905 50.3108 75.5204 49.7892C77.2455 49.5939 79.0716 48.7893 80.1683 47.3585C80.8639 46.4503 81.3204 45.491 81.7307 44.4231C82.0169 43.6788 82.1999 42.8765 82.4317 42.1129C82.6546 41.3782 83.1628 40.8237 83.3503 40.0875C83.4544 39.6786 82.3918 39.8416 82.2952 40.2185C82.1193 40.9095 81.646 41.5772 81.3771 42.2439C80.9021 43.4223 80.6836 44.6531 80.1523 45.8228C78.9674 48.4333 76.5768 49.1886 73.9651 49.3123C70.1384 49.4939 66.4978 48.1056 64.3823 44.7193C64.1865 44.4053 63.1638 44.7617 63.4053 45.1488Z" fill="#E94444"/>
<path d="M110.748 1.90179C103.889 -1.53153 95.8327 0.21274 89.7297 4.5401C86.9881 6.48426 84.7575 9.33022 84.4748 12.8343C84.2289 15.881 85.6938 18.5175 88.5125 19.417C92.1229 20.5685 98.7182 18.3222 97.567 13.4038C97.1576 11.6541 95.0568 10.719 93.4545 10.9873C91.4029 11.3305 90.1945 12.6882 89.9654 14.8273C89.9269 15.1846 90.9788 14.9683 91.0116 14.6625C91.2416 12.518 92.6307 10.8518 94.8813 11.8001C96.5926 12.5217 96.8709 14.4644 96.3711 16.0755C94.8853 20.8619 87.4733 19.7844 85.9716 15.6967C84.0906 10.5748 88.0317 6.15338 91.9723 3.699C97.3964 0.318621 104.131 -0.512896 109.896 2.37231C110.156 2.50238 111.129 2.09164 110.748 1.90179Z" fill="#E94444"/>
<path d="M108.193 40.4281C106.986 41.3651 106.227 42.6502 105.277 43.8386C102.982 46.706 98.4929 46.837 95.2719 46.0954C91.2228 45.1639 87.7146 42.381 84.1449 40.3401C79.381 37.6169 75.1275 38.7131 70.4531 40.8594C70.731 40.864 71.0083 40.8685 71.2862 40.8731C72.7715 38.3904 74.3738 36.8867 77.5522 37.129C78.5488 37.2048 79.5374 37.1673 80.5247 37.0167C82.2497 36.7529 83.5582 35.7389 84.456 34.241C87.3114 29.4779 83.961 22.6199 87.8511 18.3414C88.1032 18.0639 87.077 18.1816 86.8887 18.3893C83.209 22.4369 85.6776 29.0338 83.6965 33.8061C82.0304 37.8181 78.0618 36.0638 74.8572 36.8661C72.7405 37.3955 71.3261 39.2356 70.2422 41.0465C70.0805 41.3167 71.0168 41.0867 71.0753 41.0602C74.3202 39.5697 77.2704 38.536 80.834 39.6669C84.7373 40.9069 88.0634 43.9463 91.8046 45.6409C94.8031 46.999 98.0104 47.2934 101.196 46.5741C102.649 46.246 104.021 45.5838 105.245 44.7281C106.807 43.6369 107.503 41.6768 109.012 40.5066C109.457 40.1607 108.4 40.2666 108.193 40.4281Z" fill="#E94444"/>
</svg>