<svg width="512" height="512" viewBox="7 7 70 70" fill="none" xmlns="http://www.w3.org/2000/svg">
<path fill-rule="evenodd" clip-rule="evenodd" d="M8.06612 8.06617C7.85046 8.25073 7.70762 8.51518 7.70762 8.82065L7.71823 21.4291C7.71823 21.9849 8.16936 22.436 8.72656 22.4374C9.28306 22.4367 9.73348 21.9863 9.73348 21.4305L9.72288 9.72292L21.4311 9.73282C21.9862 9.73353 22.4374 9.28239 22.4374 8.72661C22.4359 8.16941 21.9848 7.71827 21.429 7.71827L8.82131 7.70696C8.51584 7.70696 8.25139 7.8498 8.06612 8.06617V8.06617Z" fill="#FAFAFA"/>
<path d="M7.70762 8.82065L7.45762 8.82065L7.45762 8.82086L7.70762 8.82065ZM7.71823 21.4291L7.96823 21.4291L7.96823 21.4289L7.71823 21.4291ZM8.72656 22.4374L8.72593 22.6874L8.72688 22.6874L8.72656 22.4374ZM9.73348 21.4305L9.98348 21.4305L9.98348 21.4303L9.73348 21.4305ZM9.72288 9.72292L9.72309 9.47292L9.47265 9.47271L9.47288 9.72315L9.72288 9.72292ZM21.4311 9.73282L21.4315 9.48282L21.4314 9.48282L21.4311 9.73282ZM22.4374 8.72661H22.6874L22.6874 8.72597L22.4374 8.72661ZM21.429 7.71827L21.4288 7.96827L21.429 7.96827V7.71827ZM8.82131 7.70696L8.82154 7.45696H8.82131L8.82131 7.70696ZM7.90358 7.87622C7.63979 8.10196 7.45762 8.43295 7.45762 8.82065H7.95762C7.95762 8.59742 8.06112 8.39949 8.22867 8.25612L7.90358 7.87622ZM7.45762 8.82086L7.46823 21.4293L7.96823 21.4289L7.95762 8.82044L7.45762 8.82086ZM7.46823 21.4291C7.46823 22.1233 8.0315 22.6856 8.72593 22.6874L8.7272 22.1874C8.30722 22.1863 7.96823 21.8464 7.96823 21.4291H7.46823ZM8.72688 22.6874C9.42102 22.6865 9.98348 22.1245 9.98348 21.4305H9.48348C9.48348 21.848 9.14509 22.1869 8.72624 22.1874L8.72688 22.6874ZM9.98348 21.4303L9.97288 9.7227L9.47288 9.72315L9.48348 21.4307L9.98348 21.4303ZM9.72266 9.97292L21.4309 9.98282L21.4314 9.48282L9.72309 9.47292L9.72266 9.97292ZM21.4308 9.98282C22.1244 9.98371 22.6874 9.42029 22.6874 8.72661L22.1874 8.72661C22.1874 9.1445 21.8481 9.48335 21.4315 9.48282L21.4308 9.98282ZM22.6874 8.72597C22.6856 8.03155 22.1232 7.46827 21.429 7.46827L21.429 7.96827C21.8464 7.96827 22.1863 8.30727 22.1874 8.72724L22.6874 8.72597ZM21.4293 7.46827L8.82154 7.45696L8.82109 7.95696L21.4288 7.96827L21.4293 7.46827ZM8.82131 7.45696C8.43349 7.45696 8.10256 7.63923 7.87622 7.90358L8.25603 8.22877C8.40022 8.06036 8.5982 7.95696 8.82131 7.95696V7.45696Z" fill="#979797"/>
<path d="M75.75 51C75.75 64.669 64.669 75.75 51 75.75C37.331 75.75 26.25 64.669 26.25 51C26.25 37.331 37.331 26.25 51 26.25C64.669 26.25 75.75 37.331 75.75 51Z" fill="#FAFAFA" stroke="#979797" stroke-width="0.5"/>
<mask id="mask0" mask-type="alpha" maskUnits="userSpaceOnUse" x="26" y="26" width="50" height="50">
<path fill-rule="evenodd" clip-rule="evenodd" d="M51 76C64.8071 76 76 64.8071 76 51C76 37.1929 64.8071 26 51 26C37.1929 26 26 37.1929 26 51C26 64.8071 37.1929 76 51 76Z" fill="white"/>
</mask>
<g mask="url(#mask0)">
<path d="M37.5959 33.4144C31.6239 30.772 26.1702 39.0258 26.8689 44.2865C26.9146 44.6298 27.4091 44.0847 27.3756 43.8318C26.7282 38.9623 31.7929 31.6594 37.2191 34.06C37.4869 34.1786 37.8475 33.5253 37.5959 33.4144Z" fill="#7F7F7F"/>
<path d="M51.1882 20.0759C48.1573 21.4968 45.8807 24.3556 43.3283 26.4607C41.7924 27.7271 40.2194 28.9474 38.6487 30.1687C36.9173 31.5145 35.0352 32.4549 33.0663 33.3898C32.8771 33.4798 32.7127 34.0547 32.7475 34.038C34.2207 33.3386 35.6897 32.6565 37.0669 31.7746C38.6927 30.7331 40.1869 29.3954 41.6969 28.1925C43.0758 27.0938 44.4471 25.9782 45.7519 24.7911C47.3905 23.3001 48.8319 21.679 50.8695 20.7241C51.059 20.6354 51.2243 20.0587 51.1882 20.0759Z" fill="#7FD0DE"/>
<path d="M47.2427 47.6759C48.3663 49.9027 49.2135 52.2447 50.0568 54.5926C50.8338 56.7559 51.7968 58.8394 52.5794 60.9962C53.2296 62.7876 53.4549 64.6814 53.1386 66.5824C52.8019 68.6033 51.66 70.2942 50.9395 72.1791C50.7687 72.6242 51.2375 72.1309 51.3053 71.9534C51.9597 70.2417 52.9053 68.7093 53.3904 66.928C53.8458 65.2564 53.7909 63.5283 53.4268 61.8634C52.9074 59.4906 51.6722 57.2764 50.8391 55.0093C49.8559 52.3317 48.9459 49.6324 47.6608 47.084C47.5916 46.9473 47.1564 47.5044 47.2427 47.6759Z" fill="#7FD0DE"/>
<path d="M49.5738 71.7434C46.2099 68.3025 44.2527 63.9889 43.3479 59.2646C42.8836 56.8368 42.7556 54.3444 42.7696 51.8674C42.7757 50.7728 42.4667 49.127 43.7722 48.7278C44.9687 48.3629 46.1552 47.9278 47.3872 47.7151C47.6673 47.6666 47.9 46.9783 47.5157 47.0444C46.1817 47.2752 44.8919 47.7549 43.5963 48.1506C43.043 48.3199 42.7076 48.6052 42.4621 49.1223C42.0596 49.9741 42.2405 51.2708 42.2267 52.1663C42.2024 53.7412 42.2786 55.3134 42.4262 56.877C42.9717 62.6495 45.0469 68.1546 49.1068 72.307C49.3475 72.5532 49.7729 71.9472 49.5738 71.7434Z" fill="#7FD0DE"/>
<path d="M50.311 54.7506C51.6541 53.7551 52.4108 52.223 52.2802 50.5465C52.086 48.0537 51.108 44.7581 49.3468 42.959C49.2462 42.8558 48.9712 43.4076 48.9591 43.4724C48.6733 45.0272 47.7485 46.3714 47.4439 47.9206C47.3749 48.2689 47.8134 47.6836 47.8418 47.5392C48.1462 45.9918 49.071 44.6477 49.3574 43.091L48.9697 43.6044C50.1322 44.7923 50.654 46.3898 51.1353 47.9512C51.739 49.9119 52.7092 52.5338 50.5425 54.1394C50.4069 54.2404 50.1585 54.8634 50.311 54.7506Z" fill="#7FD0DE"/>
<path d="M42.8229 48.9768C42.6126 48.5601 41.8054 48.21 41.4372 47.9627C40.7852 47.5249 40.1274 47.0938 39.4641 46.6736C39.2747 46.5534 38.8883 47.1933 39.0873 47.3192C39.7014 47.7087 40.3086 48.1082 40.9145 48.5111C41.2847 48.7573 42.1763 49.1445 42.3847 49.5567C42.4873 49.7608 42.9272 49.183 42.8229 48.9768Z" fill="#7FD0DE"/>
<path d="M42.8772 56.4797C39.6759 56.1724 38.6079 50.4883 38.3769 47.9242C38.3731 47.8825 37.9497 48.3151 37.9684 48.5213C38.1973 51.0652 39.2727 56.8153 42.5003 57.1253C42.7063 57.1451 42.9329 56.4852 42.8772 56.4797Z" fill="#7FD0DE"/>
<path d="M64.4302 59.1111C62.3482 59.6366 60.6152 58.753 59.1176 57.4078C57.4299 55.8916 57.2328 53.5362 56.7817 51.439C56.7079 51.0951 56.3346 51.7304 56.312 51.8471C55.69 55.0482 54.8309 58.0607 56.2174 61.1578C57.3213 63.6227 59.7283 65.4774 62.5097 64.5919C62.7146 64.5267 62.9905 63.8559 62.6904 63.9519C59.7959 64.8735 57.6021 62.6875 56.51 60.2495C55.2472 57.4292 56.2203 54.3951 56.7815 51.5063C56.6249 51.6422 56.4681 51.7783 56.3115 51.9142C56.7357 53.8882 56.9144 56.2003 58.4016 57.7095C59.9947 59.3267 61.934 60.3356 64.2498 59.7514C64.4575 59.6993 64.7419 59.0327 64.4302 59.1111Z" fill="#FAEE5A"/>
<path d="M38.0226 68.828C32.7514 63.4213 31.7478 54.9291 35.9961 48.4193C40.1314 42.0839 48.3017 39.6333 55.2316 41.9565C61.9811 44.2193 66.2628 50.9218 66.0289 57.9821C65.7636 66.0042 59.234 72.462 51.4303 73.4575C46.4615 74.0912 41.5309 72.2482 38.0226 68.828C37.9207 68.7287 37.489 69.3211 37.6458 69.4736C42.3351 74.0455 49.1721 75.4001 55.3859 73.0442C61.1214 70.8696 65.2161 65.4442 66.2579 59.5058C67.3866 53.0771 64.4496 46.6478 59.1682 43.0701C53.8233 39.4488 46.6023 39.6244 41.0902 43.0345C31.828 48.765 30.2624 61.9005 37.6458 69.4736C37.7413 69.5717 38.1768 68.986 38.0226 68.828Z" fill="#A55E95"/>
<path d="M39.2396 67.7107C34.0231 62.3459 33.6252 53.883 38.5167 47.9704C43.3257 42.1569 51.8834 41.188 57.965 45.1405C64.2539 49.2275 66.0529 57.8006 62.4221 64.3817C58.7199 71.0925 50.2337 73.5902 43.4692 70.6336C41.8844 69.941 40.4716 68.9088 39.2396 67.7107C38.9642 67.4431 38.5159 68.0323 38.7546 68.2641C43.2876 72.672 49.9784 73.8084 55.839 71.1567C61.5465 68.5739 65.0243 62.5621 64.9245 56.4439C64.8206 50.0239 60.3619 44.5135 54.3589 42.6264C48.2918 40.7187 41.5683 43.1966 37.6564 48.1928C32.9238 54.2376 33.5758 62.9383 38.7546 68.2641C39.0218 68.539 39.4726 67.9507 39.2396 67.7107Z" fill="#A45E94"/>
<path d="M34.1641 51.6086C30.45 51.275 26.7355 50.9413 23.0214 50.6076C21.9121 50.5082 20.7785 50.4681 19.6822 50.2768C18.4889 50.0681 16.7024 49.3388 15.5089 49.702C14.4201 50.0326 13.106 50.624 12.5096 51.6595C11.516 53.3865 12.983 54.826 14.2723 55.8284C15.0636 56.4433 16.5758 56.2061 17.5348 56.258C19.8234 56.3822 22.1119 56.5067 24.4001 56.6313C27.242 56.7853 30.0841 56.9395 32.9263 57.0942C33.187 57.1081 33.4934 56.4359 33.1994 56.4198C29.7638 56.233 26.328 56.0463 22.8919 55.8599C20.7936 55.7458 18.695 55.6319 16.5963 55.5182C16.1024 55.4914 15.6083 55.4645 15.114 55.4373C14.2493 55.3907 13.1772 53.9031 12.8122 53.1639C12.0151 51.5482 14.3811 50.6276 15.569 50.2945C15.9481 50.188 16.931 50.5176 17.3958 50.5992C18.1824 50.7366 18.9855 50.9435 19.782 51.0157C23.575 51.3561 27.3682 51.6971 31.1613 52.0378C32.071 52.1196 32.981 52.2011 33.8909 52.283C34.1495 52.3063 34.4614 51.6354 34.1641 51.6086Z" fill="#A55E94"/>
<path d="M48.0593 66.6187C47.3717 65.8511 47.2727 64.7701 48.1057 64.0202C48.7939 63.4012 49.8105 63.5752 50.4804 64.0541C51.3767 64.6949 51.353 66.0468 50.5571 66.7628C49.797 67.4471 48.6799 67.1748 48.0118 66.5764C47.7905 66.3774 47.393 67.0049 47.6349 67.2219C49.9075 69.2583 53.0378 65.7943 51.0747 63.6033C50.2159 62.6442 48.5578 62.7699 47.7072 63.715C46.7962 64.7272 46.674 66.1599 47.5881 67.1798C47.8224 67.4416 48.2582 66.8408 48.0593 66.6187Z" fill="#EFBB40"/>
<path d="M45.7548 60.8214C44.8032 59.7592 44.7219 58.193 46.0041 57.2635C46.9084 56.6082 48.1077 56.8328 48.936 57.425C50.1868 58.3192 50.0932 60.2481 48.8631 61.1394C47.8629 61.8636 46.545 61.5268 45.7158 60.7836C45.531 60.6182 45.1242 61.2377 45.3385 61.4296C48.1335 63.9334 51.9788 59.7016 49.5671 57.0091C47.0467 54.1962 42.8705 58.6808 45.2999 61.3923C45.5062 61.6223 45.9238 61.0101 45.7548 60.8214Z" fill="#EFBB40"/>
<path d="M34.2562 47.8455C33.8408 47.1681 33.3166 46.5579 32.7598 45.9937C32.6794 45.9121 32.2393 46.4939 32.3829 46.6393C32.9242 47.1883 33.4358 47.7791 33.8399 48.4382C33.9242 48.5754 34.3512 48.0003 34.2562 47.8455Z" fill="#7FD0DE"/>
<path d="M68.8004 62.7118C67.8688 63.5906 66.6743 64.0839 65.6118 64.7747C65.4601 64.8737 65.2074 65.5196 65.3979 65.3957C66.4966 64.681 67.725 64.1669 68.6895 63.2568C68.8094 63.1445 69.0678 62.46 68.8004 62.7118Z" fill="#7FD0DE"/>
<path d="M68.0623 66.2894C68.2486 65.4606 68.2175 64.6255 68.1615 63.7875C68.1503 63.6173 67.9707 63.7319 67.9075 63.7968C67.7935 63.9146 67.6871 64.0986 67.6987 64.2668C67.7476 64.9996 67.8 65.7539 67.6364 66.4812C67.5307 66.9535 68.0093 66.5263 68.0623 66.2894Z" fill="#7FD0DE"/>
<path d="M63.2402 68.8332C63.0601 69.3436 63.1207 69.8024 63.2164 70.3214C63.3527 71.0559 62.986 71.4433 62.3136 71.6807C61.6599 71.9108 61.5384 71.8517 61.619 71.1185C61.6647 70.701 61.1352 71.1905 61.1079 71.4359C61.0689 71.7973 61.1021 72.1273 61.1619 72.483C61.1766 72.5713 61.2542 72.6063 61.3358 72.5825C62.2346 72.3183 63.022 72.119 63.5626 71.3059C64.1003 70.4969 63.3865 69.6648 63.6734 68.8514C63.839 68.3812 63.3624 68.4861 63.2402 68.8332Z" fill="#7FD0DE"/>
<path d="M68.3169 61.0001C67.7629 60.52 67.8699 59.6885 67.5574 59.0839C67.4658 58.9054 67.0294 59.4786 67.1274 59.6687C67.4576 60.3076 67.3516 61.1363 67.9401 61.6457C68.0725 61.7605 68.4903 61.1498 68.3169 61.0001Z" fill="#7FD0DE"/>
<path d="M69.1663 60.6713C68.7405 61.2571 67.7872 61.3096 67.1638 61.5795C66.9995 61.6501 66.8836 61.8137 66.844 61.9857C66.82 62.0908 66.8479 62.3075 67.0126 62.2365C67.8318 61.8823 68.8329 61.8123 69.3995 61.0331C69.6117 60.742 69.4631 60.264 69.1663 60.6713Z" fill="#7FD0DE"/>
<path d="M67.9271 58.4332C67.6282 58.957 66.905 58.984 66.3932 59.1794C66.0704 59.3018 66.0165 59.9851 66.4494 59.8201C67.2017 59.5337 67.9442 59.4649 68.3838 58.6941C68.6133 58.2917 68.157 58.0295 67.9271 58.4332Z" fill="#7FD0DE"/>
<path d="M56.1421 77.5018C56.9419 77.0143 57.706 76.4514 58.0489 75.5482C58.3789 74.6773 58.0487 73.6933 57.759 72.8763C57.6989 72.7073 57.5316 72.7447 57.4135 72.8336C56.5562 73.4809 55.7675 74.1813 54.7646 74.5953C54.4817 74.7115 54.3663 75.388 54.785 75.2157C55.841 74.7804 56.6705 74.0416 57.574 73.3596C57.4589 73.3456 57.3436 73.3314 57.2285 73.317C57.4541 73.9525 57.6995 74.6327 57.5995 75.3225C57.4938 76.0543 56.6918 76.5336 56.1214 76.8812C55.8676 77.0363 55.7613 77.7341 56.1421 77.5018Z" fill="#7FD0DE"/>
<path d="M54.5105 77.3766C54.5717 76.7603 54.6321 76.1467 54.5891 75.529C54.5813 75.4141 54.4769 75.4332 54.4088 75.4933C54.2026 75.6763 53.9831 75.8186 53.7391 75.9453C53.3621 76.1421 53.4307 75.7225 53.3925 75.4464C53.3121 74.8628 53.2191 74.282 53.112 73.7035C53.0605 73.4267 52.6256 74 52.6609 74.1892C52.8127 75.0078 52.9289 75.832 53.04 76.6579C53.0503 76.7379 53.091 76.7575 53.1652 76.7293C53.5936 76.5672 53.9741 76.3558 54.318 76.0503C54.2579 76.0387 54.1981 76.0272 54.138 76.0147C54.1778 76.5896 54.1248 77.159 54.0679 77.7327C54.0293 78.1191 54.4921 77.5617 54.5105 77.3766Z" fill="#7FD0DE"/>
<path d="M50.9868 40.3118C51.2804 39.1992 51.0975 38.0709 50.7995 36.9897C50.7936 36.9656 50.7788 36.9577 50.7553 36.9647C50.2433 37.1088 49.753 37.0899 49.231 37.0385C49.0266 37.0181 48.8 37.6788 48.8542 37.684C49.1602 37.7143 49.4618 37.7355 49.7698 37.7325C50.2889 37.7268 50.4175 37.6417 50.5478 38.2021C50.7365 39.0137 50.8187 39.8799 50.6025 40.7012C50.5154 41.0322 50.9519 40.4437 50.9868 40.3118Z" fill="#7FD0DE"/>
<path d="M36.1984 47.3413C35.7578 46.5153 35.5827 45.5935 35.3039 44.7057C35.2674 44.5904 35.1026 44.734 35.068 44.7687C34.4894 45.3536 33.9415 46.0234 33.2118 46.4236C33.0345 46.5203 32.7808 47.1884 33.0199 47.0572C33.84 46.608 34.456 45.8823 35.106 45.2251C35.0272 45.2461 34.9484 45.2671 34.8702 45.2883C35.1492 46.1764 35.3241 47.0984 35.7649 47.9242C35.8665 48.1149 36.3021 47.5358 36.1984 47.3413Z" fill="#7FD0DE"/>
<path d="M32.7933 43.6243C32.2995 43.5675 31.8282 43.4224 31.3487 43.3054C31.0886 43.2419 30.7727 43.9028 30.9714 43.9514C31.482 44.0762 31.9846 44.2325 32.5097 44.2926C32.7418 44.3192 33.063 43.6554 32.7933 43.6243Z" fill="#7FD0DE"/>
<path d="M31.1157 46.0912C31.4817 44.5435 31.2545 42.924 31.1111 41.3718C31.0881 41.1252 30.6575 41.6869 30.6739 41.8655C30.8131 43.3721 31.0481 44.9572 30.6928 46.4588C30.6091 46.8155 31.0778 46.2511 31.1157 46.0912Z" fill="#7FD0DE"/>
<path d="M32.7451 39.6849C32.0334 40.2334 31.247 39.3968 30.4894 39.5725C30.2892 39.6192 30.0654 40.2518 30.1783 40.2254C30.9846 40.038 31.7379 40.9015 32.5196 40.2995C32.6557 40.1946 32.7539 40.0378 32.8127 39.8777C32.83 39.83 32.8812 39.5801 32.7451 39.6849Z" fill="#7FD0DE"/>
<path d="M46.561 75.8786C46.0297 76.3268 45.4672 76.7475 44.969 77.2331C44.8503 77.3488 44.7358 77.5388 44.7731 77.7103C44.8094 77.8757 44.9885 77.8169 45.0779 77.73C45.5755 77.2438 46.1384 76.8235 46.6699 76.3755C46.8956 76.1853 46.9365 75.5625 46.561 75.8786Z" fill="#7F7F7F"/>
<path d="M49.6364 74.2494C51.0958 74.9599 51.5849 76.8634 51.8945 78.3304C52.1914 79.7371 52.6055 82.5595 51.4229 83.7108C51.1845 83.9434 51.2407 84.5829 51.5912 84.2413C52.9122 82.9548 52.7772 80.6541 52.6045 79.0043C52.4124 77.1674 51.8387 74.492 50.0137 73.6034C49.7181 73.4597 49.3481 74.1091 49.6364 74.2494Z" fill="#808080"/>
<path d="M44.8684 73.2713C44.4974 73.644 44.1315 74.0609 43.6641 74.314C43.5095 74.3977 43.4004 74.5579 43.3543 74.726C43.3309 74.8097 43.33 75.0406 43.4863 74.956C44.047 74.6522 44.4845 74.1894 44.9301 73.7412C45.0437 73.6276 45.1574 73.4355 45.1358 73.2694C45.1139 73.1017 44.9413 73.1984 44.8684 73.2713Z" fill="#7F7F7F"/>
<path d="M71.0062 67.9412C71.4354 67.0589 71.3088 66.0235 71.2489 65.0831C71.1483 63.5084 71.196 61.9354 71.1101 60.3599C70.9117 56.7144 69.7556 53.2936 68.0772 50.102C66.2181 46.5663 63.51 43.4887 60.5226 40.8738C59.1675 39.6877 57.6907 38.685 56.169 37.7271C54.5878 36.7314 52.8044 35.6285 52.0462 33.8401C51.8888 33.468 51.3883 33.9947 51.5072 34.2753C52.5155 36.6549 55.1031 37.9121 57.1614 39.2404C60.4933 41.3907 63.3471 44.371 65.6732 47.5613C67.955 50.69 69.6004 54.3842 70.2728 58.224C70.555 59.8349 70.6132 61.4825 70.5968 63.1199C70.5831 64.4263 71.166 66.5 70.583 67.6995C70.3848 68.1069 70.8032 68.3585 71.0062 67.9412Z" fill="#7F7F7F"/>
<path d="M70.7779 67.6066C66.6797 71.8087 61.3323 74.688 56.8989 78.5192C55.4249 79.7937 54.0798 81.2303 52.7025 82.6076C52.107 83.2031 51.6875 83.7957 50.8773 84.0355C49.4675 84.4533 47.9544 83.9063 46.7275 83.2726C44.2956 82.0162 42.1445 80.0238 42.0734 77.1336C42.0089 74.524 44.2608 74.6601 45.6297 75.4991C46.4643 76.0107 47.2493 76.7956 47.7925 77.6072C48.2768 78.3316 49.1535 80.5821 47.4305 80.1108C46.4017 79.8291 45.1626 78.5453 45.1096 77.4312C45.0899 77.0063 44.5983 77.5101 44.6098 77.7547C44.6782 79.2068 47.0411 81.9405 48.5687 80.5462C49.9277 79.3063 48.1737 76.7876 47.2827 75.921C45.6988 74.3815 43.3502 73.3203 41.9593 75.7554C41.3999 76.735 41.5389 78.0069 41.7617 79.0405C42.129 80.7417 43.358 81.7754 44.6605 82.809C46.2529 84.0725 48.329 85.1214 50.4395 84.7538C51.6942 84.5358 52.4078 83.4859 53.2676 82.626C55.7815 80.1121 58.3557 77.7974 61.2213 75.6769C64.4778 73.2663 68.0316 71.0082 70.8727 68.0954C71.0652 67.8978 71.1189 67.2568 70.7779 67.6066Z" fill="#808080"/>
<path d="M37.4589 40.6561C37.9634 39.0555 36.1736 36.9199 34.6571 38.3562C33.4413 39.5079 33.9797 42.578 35.0861 43.5769C36.9375 45.2489 39.0464 43.5201 39.9941 41.6986C41.5412 38.7255 39.7404 35.5655 37.6966 33.5114C37.4578 33.2713 37.036 33.8796 37.2315 34.076C38.5214 35.3728 39.5032 36.663 39.8995 38.4973C40.3267 40.4737 39.4201 42.9987 37.2997 43.5758C35.659 44.0216 34.8997 42.1762 34.6517 40.9432C34.505 40.2149 34.358 38.8765 35.2968 38.5735C36.2507 38.2658 37.2555 39.7782 36.9914 40.6178C36.8428 41.0891 37.3431 41.0242 37.4589 40.6561Z" fill="#7F7F7F"/>
<path d="M39.0974 42.9368C39.9315 42.1027 41.3975 41.521 42.3979 40.8855C43.5125 40.1781 44.6112 39.4461 45.702 38.7029C47.7667 37.2959 49.7535 35.7909 51.6722 34.1895C52.4931 33.5049 53.2193 32.8576 54.1523 32.3406C54.6902 32.0428 55.3123 31.7805 55.7866 31.3813C56.0797 31.135 56.1919 30.7891 56.3246 30.4413C56.9646 28.7638 57.2575 26.9305 56.9817 25.1656C56.5133 22.1744 53.9029 20.6665 51.1653 20.0627C50.9189 20.0082 50.5882 20.6702 50.8925 20.7376C53.6982 21.3556 56.0524 22.8711 56.5219 25.8693C56.7726 27.4724 56.3899 29.214 55.7809 30.7162C55.552 31.2813 54.4089 31.6178 53.8735 31.9148C52.3619 32.7526 51.1315 34.0767 49.7787 35.1472C47.8719 36.6549 45.8716 38.0333 43.8449 39.3711C42.9062 39.9908 41.9556 40.5912 41.001 41.1855C40.3753 41.5758 39.5147 41.9213 38.9932 42.4428C38.7923 42.6437 38.7514 43.2828 39.0974 42.9368Z" fill="#7F7F7F"/>
<path d="M38.3958 35.3757C38.2028 35.7518 37.6369 36.0853 37.3105 36.3391C36.8448 36.701 36.3644 37.0439 35.8911 37.3961C35.3745 37.7798 34.7504 38.1832 34.5116 38.8085C34.3403 39.2566 34.8402 38.8085 34.9178 38.6057C34.9486 38.5246 35.6253 38.086 35.8016 37.9535C36.2726 37.5986 36.7519 37.2546 37.2207 36.8968C37.7939 36.4591 38.4022 35.9946 38.7373 35.3418C38.9711 34.8869 38.5384 35.0981 38.3958 35.3757Z" fill="#7F7F7F"/>
<path d="M40.0408 38.277C39.1974 39.1116 38.2984 39.8308 37.2155 40.3269C36.9391 40.4535 36.8247 41.1353 37.2355 40.9473C38.3659 40.4291 39.3184 39.6753 40.1999 38.8026C40.4322 38.5738 40.3887 37.9333 40.0408 38.277Z" fill="#7F7F7F"/>
<path d="M34.4465 50.934C33.1146 49.6387 31.615 48.5929 30.1049 47.5181C28.7238 46.5352 27.6995 45.5226 27.3511 43.818C27.2925 43.5306 26.8533 44.1048 26.893 44.3001C27.616 47.843 31.6863 49.2617 34.0696 51.5796C34.1954 51.7019 34.6201 51.1025 34.4465 50.934Z" fill="#7F7F7F"/>
</g>
</svg>
