<?xml version="1.0" encoding="UTF-8"?>
<svg width="1024" height="1024" preserveAspectRatio="xMinYMid meet" version="1.1" viewBox="0 0 131 131" xmlns="http://www.w3.org/2000/svg">
 <path d="m0.4 27.2v-5.8c0.2-3.6 0.4-7.1 0.5-10.7 0.1-5.3 3.8-9.2 9.4-9.6 19.8-1.1 39.5 0.1 58.8 4.7 11.2 2.7 21.9 6.7 31.7 12.9 11.7 7.4 20.5 17.2 25.6 30.2 8.6 21.6 3.3 47.4-13.1 63.9-7 7-15.1 12.3-24.6 15.1-23 6.7-43.5 1.8-60.8-14.9-8.7-8.4-14.2-18.8-18.3-30.1-3.8-10.4-6.1-21.1-7.5-32-1-7.9-1.5-15.7-1.7-23.7zm15.7 45.5c0.2 13.5 5.1 26.3 15.2 37 11.7 12.3 26.3 17.8 43 17.1 13.5-0.6 25.4-5.9 35.2-15.4 11.2-10.8 16.9-24.1 16.9-39.7 0-15.2-5.4-28.3-16-39-11.4-11.5-25.5-16.9-41.5-16.3-14.7 0.6-27.7 6.5-37.8 17.4-9.9 10.6-14.8 23.3-15 38.9z" style="fill:#294068"/>
 <path d="m16.1 72.7c0.1-15.6 5.1-28.3 14.9-38.9 10.2-11 23.1-16.8 37.9-17.4 15.9-0.6 30.1 4.7 41.5 16.2 10.7 10.8 16.1 23.9 16 39 0 15.6-5.8 28.9-16.9 39.7-9.8 9.5-21.7 14.8-35.2 15.4-16.7 0.7-31.3-4.8-42.9-17.1-10.2-10.6-15.1-23.4-15.3-36.9zm91.3-32c0.6-0.6 0.8-1.4 0.7-2.2-0.4-2.4-1-4.6-2.3-6.7-1.7-2.8-4.2-3.9-7.3-3.6-1.5 0.1-3 0.6-4.4 1.3-4 2-7.5 4.5-10.8 7.5-0.7 0.7-1.1 0.6-1.7-0.1-2.8-3.2-5.7-6.1-8.6-9.2-2.2-2.3-3.1-1.3-4.8-0.1l-0.6 0.6c-3.3 3.1-6.2 6.6-9.4 9.8-1.7 1.7-3.3 3.4-4.7 5.3-1 1.4-1 2.1-0.1 3.6 1 1.7 2.6 2.8 4.1 4 0.4 0.3 0.8 0.6 0.2 1.1-1.7 1.4-3 3.2-4.5 4.8-0.5 0.5-0.7 0.5-1.1 0-0.8-1-1.6-2.1-2.6-3-2.3-2.1-4.5-3-6.9-0.3-4.7 5.1-9.4 10.2-14 15.3-1 1.1-0.8 2.7 0.4 3.9 2.9 3 5.7 6 8.6 9 0.6 0.6 0.5 1 0 1.5-1.6 1.6-3.2 3.2-4.6 4.9-3 3.9-5.6 7.9-5.2 13.3 0.3 4.2 4.3 8.8 10.1 7.8 1.3-0.2 2.5-0.9 3.5-2-3.5-0.6-5.7-3-5.4-5.9 0.2-2.3 2-3.8 3.8-5 3.1-2 6.6-3.1 10.4-2.6 2.9 0.4 5.9 0.7 8.6 2 0.8 0.4 1.1 0.6 0.3 1.4-1 0.9-2 2-3 3-1.2 1.3-2.5 2.6-3.2 4.2-2.5 6.4-1.4 10.6 3.7 15.6 0.2 0.2 0.4 0.4 0.6 0.3 0.3-0.1 0.1-0.4 0.1-0.6 0-0.3-0.1-0.6-0.1-0.8 0-2.3 0.2-4.6 1.5-6.7 2.6-4.1 6.4-5.6 11-5.5 1.3 0 2.7 0.1 3.9 0.9 2.1 1.4 4.2 2.7 6.2 4.1 1.2 0.9 2.2 0.9 3.4 0 0.3-0.3 0.7-0.5 1-0.8 3.5-3 6.5-6.5 9.7-9.8 4.8-4.8 9.6-9.6 14.2-14.6 1.5-1.6 3.2-3 4.3-5 0.4-0.7 0.5-1.3-0.1-1.9-0.9-0.9-1.7-1.9-2.6-2.8-2.5-2.5-3.7-5.5-3.3-9.1 0.5-4.8 3.2-8.1 7.4-10.2 1.8-0.9 3.7-0.9 5.4 0.2 0.3 0.2 0.6 0.4 1 0.3-1-3.4-5.4-6.8-8.8-6.7-2.1 0-4.1 0.5-6 1.4-2.8 1.4-5.1 3.5-7.6 5.4-1.2 0.9-1.2 0.9-1.7-0.5-1.6-4.1-1.7-8.3-0.9-12.5 0.6-3.3 2-6.2 4.9-8.3 2.3-1.6 5-1.2 6.6 1.1 0.4 0.9 0.6 1.8 0.7 2.9z" style="fill:#E7F0FD"/>
 <path d="m107.4 40.7c-0.1-1.1-0.3-2-0.9-2.9-1.5-2.3-4.3-2.7-6.6-1.1-2.9 2-4.2 5-4.9 8.3-0.8 4.2-0.6 8.4 0.9 12.5 0.5 1.4 0.5 1.4 1.7 0.5 2.5-1.9 4.8-4 7.6-5.4 1.9-0.9 3.9-1.4 6-1.4 3.4-0.1 7.8 3.3 8.8 6.7-0.4 0.1-0.7-0.1-1-0.3-1.8-1.1-3.6-1.2-5.4-0.2-4.2 2.2-6.8 5.5-7.4 10.2-0.4 3.5 0.8 6.6 3.3 9.1 0.9 0.9 1.8 1.8 2.6 2.8 0.6 0.6 0.4 1.2 0.1 1.9-1.1 2-2.8 3.4-4.3 5-4.6 5-9.4 9.8-14.2 14.6-3.3 3.2-6.2 6.8-9.7 9.8-0.3 0.3-0.7 0.6-1 0.8-1.1 0.9-2.2 0.8-3.4 0-2-1.5-4.1-2.8-6.2-4.1-1.2-0.8-2.6-0.9-3.9-0.9-4.6-0.1-8.4 1.4-11 5.5-1.3 2.1-1.5 4.3-1.5 6.7 0 0.3 0.1 0.6 0.1 0.8s0.2 0.5-0.1 0.6-0.5-0.1-0.6-0.3c-5.1-5-6.2-9.2-3.7-15.6 0.6-1.6 2-2.9 3.2-4.2 1-1 1.9-2.1 3-3 0.8-0.7 0.5-1-0.3-1.4-2.7-1.4-5.6-1.6-8.6-2-3.8-0.5-7.2 0.6-10.4 2.6-1.8 1.1-3.6 2.6-3.8 5-0.2 2.9 2 5.3 5.4 5.9-1 1.1-2.1 1.8-3.5 2-5.8 1-9.8-3.6-10.1-7.8-0.2-5.4 2.4-9.4 5.5-13.3 1.4-1.7 3-3.3 4.6-4.9 0.6-0.6 0.6-0.9 0-1.5-2.9-3-5.8-6-8.6-9-1.2-1.2-1.3-2.8-0.4-3.9 4.6-5.1 9.3-10.2 14-15.3 2.5-2.6 4.6-1.8 6.9 0.3 1 0.9 1.8 1.9 2.6 3 0.4 0.5 0.6 0.5 1.1 0 1.5-1.6 2.8-3.4 4.5-4.8 0.6-0.5 0.2-0.8-0.2-1.1-1.5-1.2-3.1-2.3-4.1-4-0.9-1.5-1-2.2 0.1-3.6 1.4-1.9 3-3.6 4.7-5.3 3.2-3.2 6.1-6.7 9.4-9.8l0.6-0.6c1.7-1.2 2.6-2.1 4.8 0.1 2.9 3 5.9 6 8.6 9.2 0.6 0.7 1 0.8 1.7 0.1 3.3-3 6.8-5.5 10.8-7.5 1.4-0.7 2.8-1.1 4.4-1.3 3.1-0.3 5.6 0.8 7.3 3.6 1.3 2.1 2 4.4 2.3 6.7 0 0.8-0.2 1.5-0.8 2.2zm-3.4-7.3c-1-1.6-3.3-2.3-5.2-1.4-3 1.3-5.9 2.8-8.6 4.8s-4.9 4.5-7.2 7c-5 5.4-10.5 10.3-15.6 15.6-4.7 5-9.6 9.9-14.4 14.8-4.7 4.7-9.8 9-14.3 13.9-2.5 2.8-4.7 5.9-6.5 9.2-1.3 2.6-1.1 5.1 0.5 7.5 0.2 0.3 0.4 0.7 0.9 0.5-1.3-3.2-1.5-6.1 1-8.8 3.5-3.8 8.1-5.1 13-5.7h0.1c4.6 0.1 9 1.3 13.3 3 0.8 0.3 1.3 0.3 1.9-0.3 2.2-2.5 4.5-5 6.8-7.4 7.6-8 15.2-16.1 23.2-23.7 0.5-0.5 0.5-0.8 0.2-1.3-0.4-0.8-0.8-1.7-1-2.6-1.2-4.3-1.5-8.6-0.7-12.9 0.8-4.6 2.8-8.6 6.9-11.4 1.8-1.4 3.5-2 5.7-0.8zm9.7 21.4c-1.3-0.8-2.6-0.4-3.8 0-1.7 0.5-3.2 1.3-4.6 2.3-2.3 1.7-4.5 3.5-6.5 5.5-6.6 6.2-12.8 12.7-19.2 19.1-7.1 7.1-14 14.4-21.1 21.5-2.1 2.1-3 4.8-3.4 7.8 0.6-0.2 0.7-0.5 0.9-0.8 0.4-0.8 1-1.5 1.5-2.1 4.6-5.2 14.1-5.9 19.4-3.4 0.5 0.2 0.7 0.4 1.2-0.1 4.1-4.4 8.3-8.8 12.3-13.3 4.3-4.9 8.7-9.7 13.6-14 0.4-0.3 0.6-0.6 0.4-1.2-1.9-4.5-1.8-9-0.1-13.4 1.7-4.2 4.8-7 9.4-7.9zm-51-3.6c-0.2 1.3-0.8 2.5-1.7 3.6-1.2 1.6-2.8 2.9-4 4.5-1.9 2.4-5.4 2.7-7.7 0.6-1.1-1-2.1-2-2.9-3.2-0.7-1-1-0.6-1.5 0.1-1.1 1.5-2.4 2.9-3.7 4.2-3.1 3.1-6.1 6.3-9.2 9.4-0.4 0.5-0.5 0.7 0 1.1 2.9 2.4 5.3 5.2 7.7 8 0.5 0.5 0.7 0.7 1.3 0.1 2.1-2.1 4.3-4 6.3-6.1 6.9-7.3 14.1-14.4 20.7-22 3.4-3.9 7.3-7.4 11.1-10.9 0.4-0.4 0.8-0.6 0.2-1.2-2.8-2.7-5.4-5.6-8.3-8.2-0.4-0.2-0.6-0.2-1 0.3-1 1.3-2 2.6-3.2 3.8-2.7 2.9-5.9 5.3-8.5 8.3-0.8 0.9-0.7 1.3 0.1 2.1 1.3 1.2 2.4 2.6 3.7 4 0.4 0.3 0.6 0.8 0.6 1.5zm19.8 58.1 0.6-0.6c2-2 3.8-4.1 5.7-6.2 3.2-3.5 6.8-6.7 10.1-10.2 2.8-3 5.8-6 8.6-9 0.5-0.6 1.3-1.1 1.5-1.8 0.1-0.7-1-1.2-1.4-1.8-0.1-0.1-0.2-0.2-0.3-0.4-0.3-0.6-0.6-0.5-1.1-0.1-1.7 1.9-3.4 3.7-5.2 5.5-6.5 7-12.9 14.2-20 20.7-1.5 1.4-1.5 1.4 0 2.7 0.6 0.4 1 0.8 1.5 1.2z" style="fill:#294068"/>
 <path d="m82.5 109.3c-0.5-0.4-0.9-0.8-1.3-1.2-1.5-1.3-1.5-1.3 0-2.7 7.1-6.5 13.5-13.6 20-20.7 1.7-1.8 3.5-3.7 5.2-5.5 0.4-0.5 0.7-0.6 1.1 0.1 0.1 0.1 0.2 0.2 0.3 0.4 0.4 0.7 1.5 1.1 1.4 1.8s-0.9 1.2-1.5 1.8c-2.9 3-5.8 6-8.6 9-3.3 3.5-6.9 6.6-10.1 10.2-1.9 2.1-3.7 4.2-5.7 6.2-0.3 0.2-0.6 0.4-0.8 0.6zm-19.8-58.1c0-0.7-0.2-1.2-0.6-1.6-1.2-1.3-2.4-2.7-3.7-4-0.8-0.8-0.8-1.2-0.1-2.1 2.6-3 5.8-5.4 8.5-8.3 1.1-1.2 2.1-2.5 3.2-3.8 0.4-0.5 0.6-0.5 1.1-0.1 2.9 2.6 5.5 5.5 8.3 8.2 0.6 0.6 0.2 0.8-0.2 1.2-3.8 3.5-7.7 7-11.1 10.9-6.7 7.6-13.8 14.7-20.7 22-2 2.1-4.2 4-6.3 6.1-0.6 0.6-0.8 0.4-1.3-0.1-2.4-2.8-4.9-5.6-7.7-8-0.5-0.4-0.5-0.7 0-1.1 3.1-3.1 6.1-6.3 9.2-9.4 1.3-1.3 2.6-2.7 3.7-4.2 0.5-0.7 0.8-1 1.5-0.1 0.8 1.2 1.9 2.2 2.9 3.2 2.3 2.1 5.8 1.9 7.7-0.6 1.2-1.6 2.8-2.9 4-4.5 0.8-1.2 1.4-2.4 1.6-3.7zm51 3.6c-4.6 0.9-7.7 3.7-9.4 7.9-1.7 4.4-1.9 9 0.1 13.4 0.3 0.6 0 0.9-0.4 1.2-4.9 4.3-9.3 9.2-13.6 14-4 4.5-8.2 8.8-12.3 13.3-0.5 0.5-0.7 0.3-1.2 0.1-5.3-2.5-14.8-1.8-19.4 3.4-0.6 0.7-1.1 1.3-1.5 2.1-0.2 0.3-0.3 0.6-0.9 0.8 0.4-3 1.3-5.6 3.4-7.8 7.1-7.1 14-14.4 21.1-21.5 6.4-6.4 12.6-13 19.2-19.2 2.1-2 4.2-3.8 6.5-5.5 1.4-1 2.9-1.8 4.6-2.3 1.2-0.3 2.5-0.7 3.8 0.1zm-9.7-21.4c-2.2-1.2-3.9-0.6-5.6 0.5-4 2.7-6 6.8-6.9 11.4-0.8 4.3-0.4 8.7 0.7 12.9 0.2 0.9 0.6 1.7 1 2.6 0.3 0.5 0.3 0.9-0.2 1.3-8 7.6-15.6 15.7-23.2 23.7-2.3 2.4-4.6 4.9-6.8 7.4-0.6 0.7-1.1 0.6-1.9 0.3-4.3-1.7-8.6-2.8-13.3-3h-0.1c-4.9 0.6-9.5 1.9-13 5.7-2.5 2.7-2.3 5.6-1 8.8-0.5 0.2-0.7-0.2-0.9-0.5-1.6-2.4-1.9-4.9-0.5-7.5 1.8-3.3 3.9-6.4 6.5-9.2 4.5-4.9 9.6-9.1 14.3-13.9 4.8-4.9 9.6-9.8 14.4-14.8 5.1-5.3 10.6-10.2 15.6-15.6 2.3-2.5 4.5-5 7.2-7 2.6-2 5.6-3.5 8.6-4.8 1.9-0.6 4.2 0.1 5.1 1.7z" style="fill:#e7f0fd"/>
</svg>
