<?xml version="1.0" encoding="UTF-8"?>
<svg width="1024" height="1024" preserveAspectRatio="xMinYMid meet" version="1.1" viewBox="0 0 155 155" xmlns="http://www.w3.org/2000/svg">
 <path d="m29.3 0.9c19.5 0 38.7 1.9 57.5 7.2 12.7 3.6 24.7 8.5 35.6 16.1 15.7 11 26.4 25.5 30.1 44.4 5.3 27.3-2.7 50.4-23.4 68.9-7.7 6.8-16.6 11.5-26.5 14.2-22.2 5.9-42.8 2.3-61.5-11.2-9.8-7.1-17-16.5-22.7-27-6.5-12-10.6-24.7-13.3-37.8-3.5-16.6-4.7-33.3-4.6-50.2 0.1-4.8 0.2-9.7 0.7-14.5 0.4-4.8 5.1-9.3 10.2-9.6 3-0.2 6-0.4 8.9-0.5h9zm52.6 18.4c-15.3 0.3-30.6 6.2-43.1 18.5-14.4 14.2-21 31.6-19.6 51.9 2.3 31.7 28.5 60.1 65.4 60 36.8-0.1 66.8-31.2 64.6-69.1-1.7-32.7-28.6-61.2-67.3-61.3z" style="fill:#ED3941"/>
 <path d="m81.9 19.3c38.6 0.1 65.5 28.6 67.4 61.2 2.2 38-27.8 69-64.6 69.1-36.9 0.1-63.2-28.3-65.4-60-1.5-20.2 5.1-37.6 19.5-51.8 12.6-12.3 27.9-18.2 43.1-18.5zm-61.3 63.3v7.8c0 0.7 0.2 1 0.9 0.9 2.7-0.4 5.4 0 8.1 0.2 0.6 0.1 0.8-0.1 0.8-0.7 0-0.3 0.1-0.6 0-0.8-0.1-1.2 0.4-1.6 1.5-1.4 2.7 0.3 5.3 0.3 8 0.2 0.8 0 0.9 0.3 0.9 1-0.1 1.5-0.1 3-0.1 4.6-0.1 1 0.3 1.5 1.4 1.6 1.6 0.1 3.2 0.2 4.7 0.4 1.2 0.2 1.9-0.3 2.4-1.1 1.3-2 2.7-3.9 4-5.9 0.5-0.8 1.1-1 1.9-0.9 1.9 0.2 3.8 0.4 5.7 0.7 3.2 0.4 6.3 1.5 9.6 1.6 0.8 0 1.2 0.4 1.2 1.3 0 3.9-0.1 7.8-0.3 11.7-0.2 3.8 0.2 7.6 0.2 11.4 0 3.2-0.4 6.5 0.1 9.7 0.1 0.4 0.1 0.8 0.5 1.2 1.4 1.6 2.7 3.2 4.1 4.8 2.4 2.9 4.6 6 6.8 9.1 1.2 1.8 2.6 3.6 3.9 5.3 1 1.4 1.5 1.3 2.2-0.2 3.5-8.6 7.5-16.9 11.3-25.4 0.2-0.5 0.3-1 0.2-1.6-1.6-7.5-3.2-15.1-4.9-22.6-0.2-1 0-1.2 1-1 2.7 0.5 5.5 1 8.3 1.4 5 0.6 9.8 1.6 14.7 2.6 1.2 0.2 2.3 1 3.5 0 0.7-0.6 1.6-0.9 2.4-1.2 5.2-2.2 10.2-4.8 15.4-6.8 2.1-0.8 4.1-1.7 6.2-2.6 0.8-0.4 1.1-0.9 0.5-1.7-0.5-0.7-0.9-1.4-1.6-1.9-2.5-2.1-5-4.2-7.6-6.2l-9-7.2c-0.8-0.7-1.6-1.4-2.9-1.1-1.8 0.4-3.7 0.4-5.6 0.7-3.2 0.4-6.4 0.2-9.6 0.5-6.8 0.7-13.5 1.3-20.3 1.9-0.7 0.1-0.9-0.2-1-0.8-1.2-5.1-2.4-10.1-3.5-15.2-0.5-2.2-0.4-2.4 1.5-3.6 0.1-0.1 0.2-0.1 0.3-0.2 1.8-1.1 3.6-2.3 5.1-3.8 0.4-0.4 0.6-0.8 0.5-1.4-0.2-2-0.5-4-1-5.9-0.2-0.6-0.4-0.9-1.1-0.8-2.2 0.3-4.4 0.6-6.6 1-0.8 0.1-1 0-1.2-0.8-0.5-2.9-1-5.9-1.6-8.8-0.2-0.9 0-1.2 0.9-1.3 1.2-0.2 1.6-0.8 1.3-1.8-0.7-2.2-0.9-4.4-1.1-6.6-0.1-1.1-0.6-1.3-1.5-1.1-4.6 1.1-9.3 1.9-13.9 3.1-1.2 0.1-1.4 0.7-1.2 1.6 0.4 1.9 0.8 3.8 1 5.8 0.2 1.6 0.8 2 2.3 1.6 0.9-0.2 1.1 0.1 1.1 0.8 0.1 2.8 0.6 5.5 1 8.3 0.1 0.9 0 1.2-0.9 1.3-2.4 0.4-4.9 0.9-7.3 1.3-0.8 0.1-1.2 0.4-1.2 1.3 0.2 2.2 0.3 4.5 0.4 6.7 0 0.6 0.3 1 1 1.1 2 0.5 3.9 1.1 5.9 1.6 1.8 0.5 1.9 0.4 1.9 2.3 0 4.7 0.2 9.4-0.2 14-0.1 0.9-0.5 1.2-1.3 1.4-1.5 0.4-3.1 0.2-4.6 0.4-3.6 0.4-7.2 0.8-10.8 0.9-0.7 0-1.1-0.2-1.3-0.9-0.7-1.8-1.5-3.6-2.2-5.4-0.3-0.6-0.6-1.5-1.4-1.3-2.5 0.6-5.1 0.5-7.6 0.8-0.6 0.1-0.7 0.3-0.7 0.9-0.1 1.7-0.4 3.5-0.4 5.2 0 0.9-0.5 1.2-1.2 1.2-2.6 0-5.3 0.3-7.9 0.4-1.7 0.1-1.7 0-1.8-1.6 0-0.4-0.1-0.7-0.1-1.1 0-0.5-0.3-0.7-0.8-0.6-2.4 0.1-4.9 0.3-7.3 0.3-1.5 0-1.9 0.6-1.9 2.1-0.1 2.5-0.1 4.9-0.1 7.3z" style="fill:#FEE0D5"/>
 <path d="m81.8 26.3c-0.1 2.3 0 2.3-2.2 3-0.9 0.3-0.9 0.9-0.8 1.6 0.4 2.6 0.9 5.2 1.3 7.8 0.2 1.2 0.3 2.5 0.5 3.7 0.1 0.5-0.1 0.7-0.6 0.8-1.1 0.1-2.3 0.3-3.4 0.5-0.6 0.1-0.8-0.1-0.9-0.7-0.4-3.2-0.8-6.3-1.2-9.5-0.4-2.8-0.1-2.6-3.2-2.3-0.9 0.1-1-0.1-1.2-0.9-0.6-2.9-0.6-2.9 2.2-3.6 2.6-0.6 5.2-1.3 7.8-1.9 1.4-0.5 1.7-0.2 1.7 1.5zm-14.5 56.5h3.6c0.5 0 0.7 0.2 0.7 0.7v3.6c0 0.6-0.1 0.8-0.8 0.7-4.7-0.9-9.4-1.1-14.1-1.7-1.3-0.2-1.3-0.2-0.5-1.3l0.6-0.9c0.6-0.8 0.9-1.5 0.2-2.5-0.5-0.7-0.9-1.6-1.2-2.5-0.3-0.7-0.3-1.2 0.7-1 0.7 0.1 1.4 0.1 2 0 4-0.5 8.1 0.1 12.1-0.4 0.9-0.1 1.3 0.2 1.2 1.2-0.2 3.6 0.4 3.4-3.3 3.1-1.7-0.1-3.5 0.3-5.3 0-0.3-0.1-0.7 0.1-0.7 0.4 0 0.4 0.3 0.6 0.7 0.7 1.4 0.2 2.7 0 4.1-0.1zm-1.5-33c-0.2-0.5 0.1-0.8 0.7-0.8 6.3-0.7 12.5-1.8 18.7-3l4.5-0.9c0.4-0.1 1-0.3 1.2 0.4 0.1 0.6 0.5 1.3-0.3 1.8-2.3 1.5-4.7 2.9-7 4.6-1.4 1-2.8 2-4.2 2.9-0.6 0.4-1.2 0.5-1.8 0.3-2.2-0.6-4.4-1.2-6.5-2-1.1-0.4-2.3-0.4-3.4-0.6-1-0.2-1.8-0.4-1.7-1.7-0.1-0.2-0.2-0.6-0.2-1zm-21.6 41.9c0.3-6.5 0.6-12.9 1.3-19.2 0.1-0.7 0.3-0.9 1-1 2.3-0.1 2.3-0.2 3.3 2 1.3 2.9 2.6 5.7 3.7 8.7 0.2 0.5 0.1 0.9-0.2 1.3-1.9 3.2-3.7 6.4-5.4 9.7-0.3 0.6-0.6 0.8-1.2 0.6-0.2-0.1-0.4-0.1-0.6-0.1-2.3-0.3-1.9 0-1.9-2zm-11.1-5.5h-1.5c-1.4-0.2-2.6-0.1-2.8 1.7-0.1 0.5-0.4 0.7-0.9 0.7-1.2 0.1-2.5 0-3.7 0-0.6 0-0.9-0.2-0.9-0.9 0-3.4 0-6.7-0.1-10.1 0-0.9 0.2-1.2 1.1-1.2 1.3 0 2.6-0.1 3.9-0.3 0.8-0.1 1.2 0.2 1.1 1v0.1c0.1 2 0.1 2 2.2 2 2.9 0 5.7 0.1 8.6 0.1 0.5 0 0.7 0.2 0.7 0.7v4.7c0 0.7-0.4 1-1 1-2.3 0-4.6 0.7-6.7 0.5zm91.8-2.8c-2-0.1-4.1-0.3-6.1-0.4-3.4-0.2-6.7-0.9-10.1-0.9-5 0-10-0.1-15 0.1-0.9 0-1.3-0.2-1.4-1.1-0.2-1.1-0.5-2.3-0.8-3.4-0.3-1-0.1-1.3 0.9-1.4 3.3-0.2 6.6-0.8 9.9-1.2 6.7-0.8 13.4-1.3 20.2-1.9 3.1-0.3 5.7 0.5 8 2.5 4.1 3.6 8.4 7 12.8 10.2 1 0.7 0.5 0.8-0.2 1.1-1.1 0.5-2.3 1-3.4 1.4-3.9 1.4-7.6 3-11.4 4.5-3 1.2-6 2.6-9.4 2.1-1.9-0.3-3.8-0.7-5.6-1.1-6.1-1.2-12-2.9-18.2-3.7-0.5-0.1-0.7-0.2-0.8-0.7-0.3-1.6-0.7-3.1-1.1-4.7-0.2-0.8 0.3-0.7 0.8-0.7 6 0.1 12 0.3 18 0.2 4.2 0 8.4-0.4 12.6-0.6 0.1 0.1 0.2 0.1 0.3-0.3zm-37.6 57.8c-2.2-2.8-4.3-5.4-6.5-8.1-3.9-4.9-6.2-10.4-6.3-16.8 0-2.1-0.1-4.2-0.2-6.2-0.2-5.4 0.6-10.8 1.1-16.1 0.1-1.2 0.2-2.5 0.2-3.7-0.1-3 0.1-6.1 0.2-9.1 0.2-4.3 0.3-8.5 0.3-12.8 0.1-3.1 0.5-6.1 0.4-9.2 0-0.9 0.4-1.3 1.2-0.8 1.2 0.7 2.1 0.2 3-0.6 2.1-1.7 2.3-1.6 2.9 0.9 2.9 10.7 5.4 21.5 7.6 32.3 1.4 6.5 2.8 13 3.8 19.6 0.6 3.7 1.2 7.3 0.8 11.1-0.2 1.9-1.1 3.5-1.8 5.2-1.8 4.9-3.8 9.7-6.7 14.3zm-5.9-72.2c-0.5 0.3-0.3 0.6-0.3 0.8 0.2 3.5 0.6 7.1 0.7 10.6 0.2 4.9 0.5 9.8 0.9 14.7 0.5 6.2 1.3 12.3 2 18.4 0.6 4.6 1.6 9.2 3.1 13.6-1.1-19.4-3.5-38.8-6.4-58.1z" style="fill:#fee0d5"/>
 <path d="m81.4 69c2.9 19.4 5.3 38.7 6.4 58.2-1.5-4.4-2.5-9-3.1-13.6-0.8-6.1-1.6-12.3-2-18.4-0.4-4.9-0.8-9.8-0.9-14.7-0.1-3.5-0.4-7.1-0.7-10.6 0-0.4-0.2-0.7 0.3-0.9zm-60.8 13.6v-7.3c0-1.5 0.4-2.1 1.9-2.1 2.4 0 4.9-0.2 7.3-0.3 0.5 0 0.8 0.1 0.8 0.6 0 0.4 0.1 0.7 0.1 1.1 0.1 1.7 0.1 1.7 1.8 1.6 2.6-0.2 5.3-0.5 7.9-0.4 0.7 0 1.1-0.3 1.2-1.2 0.1-1.7 0.3-3.5 0.4-5.2 0-0.5 0.1-0.8 0.7-0.9 2.5-0.3 5.1-0.2 7.6-0.8 0.8-0.2 1.1 0.7 1.4 1.3 0.8 1.8 1.5 3.6 2.2 5.4 0.3 0.7 0.6 0.9 1.3 0.9 3.6-0.1 7.2-0.5 10.8-0.9 1.5-0.2 3.1 0 4.6-0.4 0.8-0.2 1.2-0.5 1.3-1.4 0.4-4.7 0.2-9.4 0.2-14 0-1.8-0.1-1.8-1.9-2.3-2-0.5-3.9-1.1-5.9-1.6-0.7-0.2-0.9-0.5-1-1.1-0.1-2.2-0.3-4.5-0.4-6.7-0.1-0.9 0.4-1.2 1.2-1.3 2.4-0.4 4.9-0.9 7.3-1.3 0.9-0.1 1.1-0.5 0.9-1.3-0.5-2.8-0.9-5.5-1-8.3 0-0.7-0.3-1-1.1-0.8-1.5 0.4-2.2 0-2.3-1.6-0.2-2-0.6-3.9-1-5.8-0.2-1 0-1.5 1.2-1.9 4.6-1.2 9.3-2 13.9-3.1 0.9-0.2 1.4 0 1.5 1.1 0.2 2.2 0.4 4.4 1.1 6.6 0.3 1-0.1 1.7-1.3 1.8-0.9 0.1-1.1 0.4-0.9 1.3 0.6 2.9 1.1 5.9 1.6 8.8 0.1 0.8 0.4 0.9 1.2 0.8 2.2-0.4 4.4-0.6 6.6-1 0.7-0.1 0.9 0.2 1.1 0.8 0.5 1.9 0.8 3.9 1 5.9 0.1 0.6-0.1 1-0.5 1.4-1.5 1.5-3.3 2.6-5.1 3.8-0.1 0.1-0.2 0.1-0.3 0.2-1.9 1.2-2 1.4-1.5 3.6 1.2 5.1 2.4 10.1 3.5 15.2 0.1 0.6 0.3 0.9 1 0.8 6.8-0.7 13.5-1.3 20.3-1.9 3.2-0.3 6.4 0 9.6-0.5 1.9-0.3 3.7-0.3 5.6-0.7 1.3-0.2 2 0.5 2.9 1.1 3 2.4 6 4.7 9 7.2 2.5 2.1 5 4.2 7.6 6.2 0.7 0.5 1.1 1.3 1.6 1.9 0.6 0.8 0.3 1.3-0.5 1.7-2 0.9-4.1 1.8-6.2 2.6-5.2 2-10.2 4.6-15.4 6.8-0.8 0.4-1.7 0.6-2.4 1.2-1.2 1-2.4 0.3-3.5 0-4.9-1-9.8-1.9-14.7-2.6-2.8-0.3-5.5-0.9-8.3-1.4-1-0.2-1.2 0-1 1 1.6 7.5 3.2 15.1 4.9 22.6 0.1 0.6 0 1.1-0.2 1.6-3.8 8.5-7.8 16.8-11.3 25.4-0.6 1.5-1.2 1.6-2.2 0.2-1.3-1.7-2.6-3.5-3.9-5.3-2.2-3.1-4.3-6.2-6.8-9.1-1.4-1.6-2.7-3.3-4.1-4.8-0.3-0.4-0.4-0.7-0.5-1.2-0.5-3.2-0.1-6.5-0.1-9.7 0-3.8-0.3-7.6-0.2-11.4 0.2-3.9 0.3-7.8 0.3-11.7 0-1-0.4-1.3-1.2-1.3-3.3-0.1-6.4-1.1-9.6-1.6-1.9-0.3-3.8-0.5-5.7-0.7-0.8-0.1-1.4 0.1-1.9 0.9-1.2 2-2.6 4-4 5.9-0.6 0.8-1.3 1.3-2.4 1.1-1.6-0.3-3.2-0.4-4.7-0.4-1.1 0-1.5-0.6-1.4-1.6 0.1-1.5 0.1-3 0.1-4.6 0-0.7-0.1-1-0.9-1-2.7 0.1-5.4 0.1-8-0.2-1.1-0.1-1.6 0.3-1.5 1.4v0.8c0 0.5-0.2 0.7-0.8 0.7-2.7-0.2-5.4-0.6-8.1-0.2-0.7 0.1-0.9-0.3-0.9-0.9 0.1-2.3 0.1-4.9 0.1-7.5zm66.7 58.6c2.9-4.6 4.9-9.5 6.7-14.4 0.6-1.7 1.5-3.3 1.8-5.2 0.5-3.7-0.2-7.4-0.8-11.1-1-6.5-2.4-13-3.8-19.5-2.3-10.8-4.7-21.6-7.5-32.3-0.6-2.5-0.9-2.6-2.9-0.9-0.9 0.7-1.8 1.3-3 0.6-0.8-0.5-1.3-0.2-1.2 0.8 0.1 3.1-0.3 6.1-0.4 9.2-0.1 4.3-0.2 8.5-0.3 12.8-0.1 3-0.3 6.1-0.2 9.1 0 1.2-0.1 2.5-0.2 3.7-0.5 5.4-1.3 10.7-1.1 16.1 0.1 2.1 0.2 4.2 0.2 6.2 0.1 6.4 2.4 11.9 6.3 16.8 2.1 2.7 4.2 5.4 6.4 8.1zm37.6-57.8c-0.1 0.4-0.2 0.4-0.4 0.4-4.2 0.2-8.4 0.6-12.6 0.6-6 0-12-0.1-18-0.2-0.5 0-1-0.1-0.8 0.7 0.4 1.6 0.7 3.1 1.1 4.7 0.1 0.5 0.4 0.6 0.8 0.7 6.2 0.8 12.1 2.6 18.2 3.7 1.9 0.4 3.7 0.8 5.6 1.1 3.4 0.5 6.4-0.9 9.4-2.1 3.8-1.5 7.6-3.2 11.4-4.5 1.2-0.4 2.3-0.9 3.4-1.4 0.6-0.3 1.1-0.4 0.2-1.1-4.4-3.2-8.7-6.6-12.8-10.2-2.3-2-5-2.8-8-2.5-6.7 0.6-13.5 1.1-20.2 1.9-3.3 0.4-6.6 1-9.9 1.2-1 0-1.2 0.4-0.9 1.4 0.4 1.1 0.7 2.2 0.8 3.4 0.1 0.9 0.5 1.2 1.4 1.1 5-0.2 10-0.1 15-0.1 3.4 0 6.7 0.7 10.1 0.9 2.1 0 4.2 0.2 6.2 0.3zm-91.8 2.8c2.1 0.2 4.4-0.5 6.8-0.4 0.6 0 1.1-0.3 1-1v-4.7c0-0.5-0.2-0.7-0.7-0.7-2.9 0-5.7-0.1-8.6-0.1-2.1 0-2.1 0.1-2.2-2v-0.1c0.1-0.8-0.3-1.1-1.1-1-1.3 0.1-2.6 0.3-3.9 0.3-0.9 0-1.1 0.3-1.1 1.2 0.1 3.4 0.1 6.7 0.1 10.1 0 0.6 0.3 0.9 0.9 0.9 1.2 0 2.5 0.1 3.7 0 0.5 0 0.9-0.2 0.9-0.7 0.2-1.8 1.4-1.9 2.8-1.7 0.3-0.1 0.7-0.1 1.4-0.1zm11.1 5.5c0 2-0.3 1.7 1.9 2 0.2 0 0.4 0.1 0.6 0.1 0.6 0.2 0.9 0 1.2-0.6 1.7-3.3 3.5-6.5 5.4-9.7 0.3-0.4 0.3-0.8 0.2-1.3-1-3-2.3-5.8-3.7-8.7-1-2.2-1-2.1-3.3-2-0.7 0-0.9 0.3-1 1-0.8 6.3-1 12.6-1.3 19.2zm21.6-41.9c0 0.4 0.1 0.7 0.1 1.1-0.1 1.3 0.7 1.5 1.7 1.7 1.1 0.2 2.3 0.2 3.4 0.6 2.2 0.7 4.4 1.3 6.5 2 0.6 0.2 1.2 0.1 1.8-0.3 1.4-0.9 2.9-1.9 4.2-2.9 2.2-1.7 4.6-3.1 7-4.6 0.8-0.5 0.5-1.2 0.3-1.8-0.2-0.7-0.7-0.4-1.2-0.4l-4.5 0.9c-6.2 1.1-12.4 2.2-18.7 3-0.5 0-0.8 0.2-0.6 0.7zm1.5 33c-1.4 0.1-2.7 0.3-4.1 0-0.4-0.1-0.7-0.3-0.7-0.7s0.4-0.5 0.7-0.4c1.8 0.3 3.5-0.1 5.3 0 3.7 0.3 3.1 0.5 3.3-3.1 0.1-1-0.3-1.3-1.2-1.2-4 0.5-8.1-0.1-12.1 0.4-0.7 0.1-1.4 0.1-2 0-1-0.2-1 0.3-0.7 1 0.4 0.8 0.7 1.7 1.2 2.5 0.6 1 0.4 1.7-0.2 2.5l-0.6 0.9c-0.7 1.1-0.7 1.1 0.5 1.3 4.7 0.6 9.5 0.8 14.1 1.7 0.6 0.1 0.8-0.1 0.8-0.7 0-1.2-0.1-2.4 0-3.6 0-0.5-0.2-0.7-0.7-0.7-1.2 0.2-2.4 0.1-3.6 0.1zm14.5-56.5c0-1.6-0.2-1.9-1.8-1.5-2.6 0.6-5.2 1.3-7.8 1.9-2.9 0.7-2.8 0.7-2.2 3.6 0.2 0.8 0.3 1 1.2 0.9 3.1-0.3 2.7-0.5 3.2 2.3 0.5 3.2 0.9 6.3 1.2 9.5 0.1 0.6 0.3 0.8 0.9 0.7 1.1-0.2 2.3-0.4 3.4-0.5 0.5-0.1 0.7-0.2 0.6-0.8-0.2-1.2-0.3-2.5-0.5-3.7-0.4-2.6-0.8-5.2-1.3-7.8-0.1-0.7-0.1-1.3 0.8-1.6 2.2-0.7 2.2-0.8 2.3-3z" style="fill:#ED3941"/>
</svg>
