<?xml version="1.0" encoding="UTF-8"?>
<svg width="1024" height="1024" preserveAspectRatio="xMinYMid meet" version="1.1" viewBox="0 0 113 113" xmlns="http://www.w3.org/2000/svg">
 <path d="m27.7 44.4 0.6 0.6c-0.8-1.4-1.5-3.4-1.2-5.1 0.3-1.6 1.4-2.8 2.5-3.9 1.7-1.7 3.4-3.4 5.2-5.1 1.6-1.6 3.4-3.4 5.6-4.1 2.3-0.7 3.9 0.7 4.8 2.7 1.8-2.3 3.5-4.6 5.3-6.8-5.1-1.3-9.9 1.7-13.8 4.6 1.9 0.3 3.7 0.5 5.6 0.8-3.8-3.8-7.9 0.6-10.9 3.1-1.5 1.2-3.4 2.3-3.6 4.5-0.2 1.8 0.7 3.3 1.9 4.6v-6.6c-2.9 3.2-6.3 6.5-7.7 10.7-1 3.1-0.5 8.8 3.5 9.4 2.9 0.4 5.8-2.2 5.6-5.1 0-0.4-0.1-0.7-0.2-1-0.1-0.2-0.4-0.7-0.3-0.9 0-0.3 0.4-0.7 0.6-0.9 0.9-1.1 1.9-2.1 2.8-3.2 0.9-0.9 1.9-1.8 2.6-2.9 1.7-2.3 0.8-4.8-0.9-6.7v6.6c2.1-1.7 4.2-3.4 6.4-5.1h-6.6c1.3 1.3 3.3 2.1 5.1 1.3 1.3-0.5 2.5-1.8 3.7-2.7 0.7-0.5 1.4-0.9 2.1-1.2 0.8-0.3 1.4-0.2 2.2-0.1 1.6 0.2 3.1-0.3 4.1-1.6 2.4-3.1 0.2-7.1-2.2-9.5-2.8-2.8-6.9-4.3-10.9-3.5-4.2 0.8-7.7 3.4-10.7 6.3-3 2.8-6.1 5.8-8.4 9.2-2.1 3.1-3.3 7-2.7 10.8 0.6 3.3 2.3 6.9 5.1 8.8 2.6 1.8 6.2 1.5 7.7-1.6 1.3-2.6 0.1-5.8-2.9-6.4zm-6.1-10.3c-0.2-1.9 1.4-3.5 2.8-4.6 1.4-1.2 2.8-2.3 4-3.7 2.3-2.3 5.8-6.1 9.2-3.4l2.1-7.8c-6 1.1-10.5 5.7-14.5 10-3.9 4.2-8.5 8.4-9.6 14.3 2.3-1 4.5-1.9 6.8-2.9-0.7-0.5-0.8-1.9-1-2.7s-0.5-1.6-1-2.3c-1-1.2-2.6-1.7-4.1-1.4-1.5 0.2-2.9 1.1-3.7 2.4-1 1.8-0.2 4 0.5 5.8 1.4 3.8 5.7 9.4 10.1 5.7 0.8-0.7 1.2-1.6 1.5-2.6 0.3-1.3 0.8-2.5 1.6-3.6 1.5-2.2 3.4-4 5.2-5.9 1.8-2 3.6-4.1 5.7-5.7 1.1-0.8 2.2-1.4 3.4-1.9 1.1-0.4 2.1-0.4 3-1.2 1.4-1.2 2.2-3.3 1.7-5.2-0.6-2.2-3.6-3.6-5.5-4.5-2.4-1.1-5.4-1.8-8-1.1s-4.7 2.6-6.6 4.3c-3.4 3.1-7.4 5.8-10.3 9.5-2.3 2.9-4.5 8.2-1.3 11.2 2 1.9 6.2 2.2 7.6-0.7 0.4-0.4 0.5-1.2 0.4-2zm9.1 23.6c-4.1 14.2-0.6 29.7 9.3 40.7 5 5.5 11.5 9.8 18.6 12 7.2 2.2 14.9 2.2 22.1 0.4 14.5-3.6 26.6-14.4 30.6-29 3.8-13.7 0.7-29.6-9-40.2-9.3-10.2-23.7-15-37.3-13.3-1.7 0.2-3.4 0.5-5 0.9 1.5 2.6 3 5.2 4.5 7.8 1.4-1.4 1.8-3.3 1.2-5.2-0.6-1.7-2.1-3.2-4-3.1-0.8 0-1.5 0.5-2.3 0.3-0.9-0.2-1.6-0.8-2.3-1.4-1.5-1.2-2.8-2.7-4.4-3.8 0.6 2.1 1.2 4.2 1.7 6.4 5-6.6-2.9-13.9-9.1-15.5 1.2 1.5 2.3 3 3.5 4.5-0.5-4.9-4.8-8.4-9.3-9.6-4.9-1.3-9.4 0.3-13.3 3.3-1.9 1.5-3.7 3.3-5.5 5-1.9 1.8-3.9 3.4-5.6 5.4-3.6 4-5.8 8.8-4.8 14.2 1 5.1 4.5 9.8 10 10.3-1.5-1.2-3-2.3-4.5-3.5 0.7 4.1 2.3 10.2 6.8 11.6 2.3 0.7 5.1 0.5 7.1-0.8 2.1-1.4 2.9-3.8 2.6-6.3-2.3 1.8-4.6 3.5-6.8 5.3 2.5 1.7 4.5 4 6 6.6-0.1-1.2-0.3-2.3-0.4-3.5-0.9 2.5-0.1 4.9 2.5 5.8 2.3 0.8 4.9 0 6-2.2 1.6-3-0.3-6.3-2.2-8.6-2-2.4-4.6-4.6-7.3-6.3-1.7-1.1-3.6-1-5.1 0.4s-1.9 3.4-1.7 5.4c0.1-0.5 0.1-1 0.2-1.6 0.1-0.5 0-1.3 0.2-1.7 0.3-0.6 2-1 2.7-1.3-0.6-1-0.9-2.1-1.2-3.1s-0.3-2.2-0.8-3.2c-0.8-1.5-2.5-2.3-4.2-2.5 0.7 0.1-0.5-1.9-0.6-2.1-0.6-1.5-0.4-2.8 0.3-4.2 1.5-2.8 4.1-4.7 6.3-6.8l3.9-3.6c1.2-1.1 2.6-2.6 4.1-3.2 1.1-0.4 2.8-0.2 3.8 0.5 0.5 0.3 1.6 1.6 1.4 0.2 0.3 2.3 1.5 3.9 3.8 4.6 0.8 0.2 1.5 0.5 2.3 0.8 0.2 0.1 0.7 0.3 0.8 0.5 0.2 0.4-0.1 0.6-0.3 1-1.2 2.5 0.9 4.8 2.8 6.2 2 1.5 3.8 3.2 5.9 4.6 2.5 1.6 5.3 2.2 8.1 1.1-1.5-2.6-3-5.2-4.5-7.8-2.1 2-2.1 5.2 0.2 7.1 1.1 0.9 2.4 1.2 3.8 1 1.8-0.3 3.5-0.7 5.3-0.9 6.9-0.7 13.9 0.8 19.8 4.2 6.1 3.5 11.1 9 13.9 15.4 2.9 6.5 3.3 13.9 1.5 20.8s-5.7 13.3-11.2 17.8c-5.4 4.4-12.2 6.8-19.2 7.1-6.9 0.3-14-1.6-19.8-5.4-5.5-3.6-9.7-9.1-12-15.2-2.3-6.2-2.8-13-1.5-19.5 0.5-2.4 1.6-5-0.6-6.9-1.6-1.3-4-1.7-5.8-0.6-1 0.6-1.6 1.6-2 2.7z" style="fill:#fff"/>
 <path d="m44.1 18.8c-1.2-3.1-4.7-4.9-7.9-5.2-1.7-0.1-3.4 0.2-4.9 1.1-1.9 1.2-3.4 2.9-5 4.3-3.4 3-7.2 5.9-9.8 9.7-1.1 1.7-2.1 3.6-2 5.6 0.1 1.4 0.5 2.9 1 4.2s1.2 2.7 2.3 3.6c0.9 0.7 2.5 1.2 3.5 0.3 0.6-0.6 1.4-2.5 0-2.5s-2.2-0.6-2.9-1.8-1.1-2.5-1.4-3.8c-0.4-1.6-0.1-3.1 0.8-4.5 2-3.3 5.6-5.9 8.5-8.4 1.8-1.5 3.5-3.6 5.6-4.6 1.9-1 4.1-0.6 6 0.2 0.9 0.4 1.8 0.9 2.5 1.5 0.4 0.3 0.7 0.6 0.9 1 0.2 0.3 0.3 0.8 0.6 1.1 1 1.3 2.6-0.9 2.2-1.8zm7.3 7c-0.9-4.1-4.6-6.6-8.7-6.7-4.1-0.2-7.5 2.3-10.4 4.9-3 2.8-5.4 6-8.2 8.9-1.5 1.5-2.8 3.1-3.5 5.1s-0.6 4-0.2 6c0.5 2.5 1.7 8 5.2 7.7 0.6-0.1 1.9-0.4 2.1-1.1 0.1-0.4-0.3-1.5-0.7-1.7-0.5-0.2-1.1 0.1-1.7-0.3s-1-1.1-1.4-1.7c-1.7-3.3-2.4-7.1-0.5-10.4 1-1.8 2.4-3.3 3.8-4.7 1.5-1.5 3-3.1 4.6-4.6 3.3-3.3 8-6.9 12.9-4.7 2.2 1 3.8 2.8 4.5 5.1 0.2 0.7 0.6 0.8 1.1 0.3 0.6-0.6 1.3-1.5 1.1-2.1zm46.2 70.6c8.8-8.8 12.7-21.7 10.3-33.9-2.6-12.9-12-23.8-24.4-28-7.1-2.4-14.8-2.7-22.1-0.8 0.1-0.1 0.1-0.2 0.2-0.2-3.6 2-7.3-2.7-9.7-4.6-1.3-1-2.9-2.2-4.7-1.9-2.4 0.5-4.7 1.9-6.7 3.3-4.6 3.2-8.5 7.2-11.8 11.6-1.4 1.9-4 5-1.9 7.3 0.8 0.8 1.9 1.4 2.8 2.1 1.2 1 2.3 2.2 3.4 3.4 0.5 0.6 0.9 1.1 1.3 1.7 0.4 0.5 1.1 1.4 1.1 2s-0.4 1.4-0.6 2c-0.2 0.7-0.4 1.5-0.5 2.2-0.6 2.8-0.8 5.7-0.7 8.6 0.2 5.8 1.7 11.5 4.5 16.6 5.4 9.9 15.2 17 26.3 19 10.6 1.9 21.7-0.9 30.1-7.6 1-0.9 2.1-1.8 3.1-2.8z" style="fill:#faac55"/>
 <path d="m37.8 32.9c5.2 5.2 10.4 10.4 15.7 15.5 2.6 2.6 5.3 5.1 7.9 7.7 1.9 1.9 3.8 3.8 5.9 5.4 3 2.4 7.9 5.7 11.9 3.7 4.3-2.1 4.8-8.7 0.4-11-2.4-1.3-5.2-0.5-7.6 0.6-2.9 1.3-5.5 3.1-7.9 5.1-2.3 1.9-4.4 4.1-6.2 6.4s-3.4 5-3.8 8c-0.2 2.3 0.4 4.5 2.2 6 1.5 1.2 3.6 1.8 5.5 1.3 2.4-0.5 3.9-2.6 4.7-4.9 0.9-2.7 0.3-5.5-1-8-1.4-2.4-3.5-4.7-5.5-6.9-2.4-2.6-4.9-5.1-7.4-7.6-5-5-10-10-14.9-15.1-1.2-1.3-2.4-2.6-3.6-3.9-0.3-0.3-0.5-0.8-0.9-0.7-0.3 0-0.6 0.5-0.8 0.7-0.5 0.6-1.1 1.4-1.1 2.2 0 0.5 0.3 0.8 0.6 1.1 0.6 0.6 1.1 1.2 1.7 1.8 4.6 4.9 9.4 9.4 14.2 14.1 4.7 4.7 9.4 9.4 13.6 14.6 1.4 1.8 6 8.1 1.8 9.3-2.6 0.8-5.1-1.4-6.2-3.6-1-2.1-0.3-4.2 0.9-6 1.4-2 3.2-3.6 5-5.1 2.2-1.8 4.4-3.5 6.9-4.8 2-1 4.5-2.3 6.7-1.3 1.3 0.6 3.2 1.7 3.8 3.1 1 2.2-3.4 1.6-4.3 1.3-2.7-0.8-5.3-2.6-7.5-4.4-5.1-4-9.4-9-14-13.6-2.6-2.6-5.2-5.2-7.8-7.7l-5.7-5.7c-0.3-0.3-1-1.3-1.4-1.3-0.9 0.1-2.6 3-1.8 3.7z" style="fill:#fff"/>
 <path d="m6 1.6c-2-0.5-4-1.1-6-1.6 0.5 2 1.1 4 1.6 6l4.4-4.4z" style="fill:#E84445"/>
</svg>
