<?xml version="1.0" encoding="UTF-8"?>
 <svg id="mapPic_23" width="1024" height="1024" preserveAspectRatio="xMinYMid meet" version="1.1" viewBox="0 0 484 484">
  <path d="m102.7 417.9c-126.2-126.2-100.6-385.5-100.6-385.5 1.5-15.2 15.1-28.8 30.3-30.3 0 0 259.3-25.6 385.5 100.6 87 87 87 228.1 0 315.2-87 87-228.1 87-315.2 0z" style="fill:#283F68"/>
  <path d="m323.5 354.9-8.1 2.6c-8.1-10.2-17.5-20.9-28.2-32.2-34.6-36.7-60.4-63.5-77.4-80.5-15.9-15.9-30.1-28.8-42.7-38.7-5-3.8-9.4-5.5-13.4-5-3.9 0.5-10.5 4.5-19.8 12.1l-16.7 13.4-10.6-10.6c22.4-20.7 42.4-39.8 60.1-57.5 17.4-17.4 34.5-35.4 51.3-53.9l10.6 10.6-17.4 20.7c-6.9 7.9-10.3 13.5-10.2 17s4.9 10.4 14.5 20.9c14.8 16.3 35.9 38.1 63.2 65.4 19 19 34 33.2 45 42.8 4.1 3.5 8.1 4.9 11.9 4.2 3.9-0.7 9.8-5 17.7-13l16.6-16.6 10.6 10.6c-15.8 20.1-27 35.4-33.7 45.7-6.3 10.2-14.2 24.2-23.3 42z" style="fill:#fff;stroke:#fff;strokeMiterlimit:10;strokeWidth:2"/>
  <path d="m394.6 384.5c-12.2 12.2-31.9 12.2-44.1 0s-12.2-31.9 0-44.1 31.9-12.2 44.1 0 12.2 31.9 0 44.1z" style="fill:#fff;stroke:#fff;strokeMiterlimit:10;strokeWidth:2"/>
 </svg>
