<?xml version="1.0" encoding="UTF-8"?>
<svg width="1024" height="1024" preserveAspectRatio="xMinYMid meet" version="1.1" viewBox="0 0 115 115" xmlns="http://www.w3.org/2000/svg">
 <path d="m56.338 3.741 9.8788 9.8788c0.28225 0.28225 1.4113 1.129 1.5053 1.5053 0.09408 0.28225-1.129 1.2231-1.4113 1.5053l-1.5053 1.5053c-0.28225 0.28225-1.0349 0.75267-1.2231 1.2231 0 0.18817 0 0.09408 0.28225 0.37634 0.84676 1.0349 1.9758 1.9758 2.9166 2.9166l27.19 27.19c4.1397 4.1397 7.1504 8.8439 8.3735 14.583 3.8574 17.217-8.3735 34.623-25.403 38.01-7.9972 1.5994-16.559-0.0941-23.145-4.9865-2.7284-2.0699-5.0805-4.7042-7.5267-7.1504l-26.438-26.438c-0.18817-0.18817-0.18817-0.28225-0.37634-0.28225-0.28225 0.09408-0.75267 0.75267-0.94084 0.94084l-1.5994 1.5994c-0.28225 0.28225-1.2231 1.5053-1.5994 1.5053s-1.2231-1.2231-1.4113-1.4113l-8.8439-8.8439c-0.18817-0.18817-1.2231-0.94084-1.2231-1.2231 0-0.18817 0.84676-0.84676 0.94084-0.94084l31.895-31.895c6.2096-6.1155 12.419-12.325 18.723-18.629z" style="fill:#7f7f7f;stroke-width:.94084"/>
 <path d="m91.996 91.898c-5.7391 5.7391-13.736 9.1262-21.922 8.8439-6.7741-0.18817-13.078-3.0107-17.876-7.7149-6.3036-6.2096-12.513-12.419-18.723-18.629l-13.548-13.548c-0.09408-0.09408-0.37634-0.47042-0.47042-0.47042s-0.37634 0.37634-0.47042 0.47042l-2.8225 2.8225c-0.18817 0.18817-0.65859 0.84676-0.94084 0.94084-0.28225 0-0.84676-0.75267-1.129-1.0349l-6.68-6.68c-0.094084-0.09408-0.56451-0.47042-0.56451-0.56451 0-0.09408 0.094084-0.09408 0.18817-0.18817 0.37634-0.65859 1.3172-1.3172 1.7876-1.7876l45.631-45.631c0.47042-0.47042 1.129-1.5053 1.6935-1.6935 0.18817-0.094084 0-0.094084 0.18817-0.094084s0.56451 0.56451 0.65859 0.65859l6.7741 6.7741c0.28225 0.28225 0.84676 0.65859 0.75267 1.0349-0.09408 0.28225-0.75267 0.75267-0.94084 0.94084l-1.5994 1.5994c-0.18817 0.18817-1.5994 1.3172-1.5994 1.5994 0 0.09408 0.37634 0.37634 0.47042 0.47042l30.013 30.013c2.8225 2.8225 5.551 5.7391 7.3386 9.4084 3.387 7.0563 3.2929 15.336 0.37634 22.58-1.4113 3.6693-3.7634 7.0563-6.5859 9.8788m3.1048 3.1989c6.3036-6.3036 10.067-14.959 10.161-23.991 0-8.1853-3.1048-16.182-8.938-22.016-2.4462-2.5403-4.9865-4.9865-7.4327-7.4326l-20.887-20.887c-0.37634-0.37634-0.84676-0.65859-1.129-1.129l-0.18817-0.18817c0-0.18817 0.75267-0.75267 0.94084-0.94084l2.3521-2.3521c0.09408-0.09408 0.94084-0.75267 0.94084-0.94084s-0.84676-0.84676-0.94084-0.94084l-2.258-2.258c-3.0107-3.0107-6.0214-6.1155-9.1262-9.1262l-1.5994-1.5994c-0.18817-0.18817-0.47042-0.65859-0.65859-0.56451-0.28225 0-0.94084 0.94084-1.2231 1.2231l-53.346 53.346c-0.18817 0.18817-1.129 0.94084-1.129 1.129 0 0.18817 0.65859 0.65859 0.75267 0.75267l13.078 13.078c0.09408 0.09409 0.65859 0.84676 0.84676 0.84676s0.94084-0.94084 1.0349-1.0349l2.3521-2.3521c0.18817-0.18817 0.75267-0.84676 0.94084-0.84676 0.09408 0 0.18817 0.18817 0.18817 0.18817 0.37634 0.28225 0.75267 0.75267 1.129 1.129l28.319 28.319c2.8225 2.8225 6.1155 4.9865 9.7848 6.4918 7.9972 3.2929 17.311 3.1048 25.215-0.37634 3.9515-1.8817 7.7149-4.422 10.82-7.5267z" style="fill:#fff;stroke-width:.94084"/>
 <path d="m82.87 56.993-24.086 24.086c-0.47042 0.47042-0.94084 1.2231-1.5053 1.5053-0.09408 0-0.09408 0.18817-0.18817 0.18817-0.09408 0-0.47042-0.47042-0.5645-0.56451l-1.0349-1.0349c-0.5645-0.5645-0.5645-0.47042 0-0.94084l24.838-24.838c0.5645-0.5645 0.47042-0.37634 1.129 0.28225 0.37634 0.37634 0.94084 0.84676 1.4113 1.3172z" style="fill:#fff;stroke-width:.94084"/>
 <path d="m77.695 51.912-24.086 24.086c-0.47042 0.47042-0.94084 1.2231-1.5053 1.5053-0.09408 0-0.09408 0.18817-0.18817 0.18817-0.09408 0-0.47042-0.47042-0.5645-0.5645l-1.0349-1.0349c-0.5645-0.5645-0.5645-0.47042 0-0.94084l1.8817-1.8817c4.7983-4.8924 9.6907-9.7848 14.583-14.677l8.2794-8.2794c0.5645-0.5645 0.47042-0.37634 1.129 0.28225 0.5645 0.37634 1.0349 0.84676 1.5053 1.3172z" style="fill:#fff;stroke-width:.94084"/>
 <path d="m72.615 46.738-24.18 24.18c-0.47042 0.47042-0.94084 1.2231-1.5053 1.5053-0.09408 0-0.09408 0.18817-0.18817 0.18817-0.09408 0-0.47042-0.47042-0.5645-0.5645l-1.0349-1.0349c-0.5645-0.5645-0.5645-0.47042 0-0.94084l24.838-24.838c0.5645-0.5645 0.47042-0.37634 1.129 0.28225 0.47042 0.28225 0.94084 0.75267 1.5053 1.2231z" style="fill:#fff;stroke-width:.94084"/>
 <path d="m6.888 1.7862c-2.3-0.575-4.6-1.265-6.9-1.84 0.575 2.3 1.265 4.6 1.84 6.9 1.725-1.725 3.335-3.45 5.06-5.06z" style="fill:#e84445;stroke-width:1.15"/>
</svg>
