<?xml version="1.0" encoding="UTF-8"?>
<svg width="1024" height="1024" preserveAspectRatio="xMinYMid meet" version="1.1" xmlns="http://www.w3.org/2000/svg">
 <path d="m315.86 155.22c46.973-40.357 121.29-83.36 209.5-59.984 52.707 13.893 84.904 45.209 86.227 46.532l7.7186 7.7186-163.19 154.81c117.98-27.125 218.1-16.981 297.49 30.213 118.2 70.129 147.31 195.83 148.42 201.34l2.8669 13.011-416.58-2.8669c13.452 16.981 30.433 44.106 30.654 71.672 0.22053 17.422-6.1748 33.08-18.966 45.87-2.6464 2.6464-5.5132 5.0722-8.6007 7.2775-67.482 51.163-146.65 6.3954-149.96 4.4106l-10.365-5.9543 58.44-75.642c-63.733-60.205-97.254-123.72-99.238-189.21-2.4258-76.083 38.372-130.11 51.825-146.21l-31.977-98.136z" style="fill:#34c0cc;stroke-width:3.1188"/>
 <path d="m891.88 538.06-427.17-2.8669s76.083 72.554 28.007 120.63c-2.2053 2.2053-4.8517 4.4106-7.2775 6.3954-62.631 47.634-138.27 3.749-138.27 3.749l57.117-73.878c-198.04-179.51-49.399-331.68-49.399-331.68l-31.756-97.033c157.9-135.41 281.18-13.893 281.18-13.893l-185.02 175.76c399.6-116 472.6 212.81 472.6 212.81m26.243 21.391-5.7338-26.023c-1.1026-5.5132-31.315-135.41-153.27-207.96-73.657-43.665-163.85-56.676-269.27-38.593l128.79-122.17 15.878-14.996-15.658-15.217c-1.3232-1.3232-35.505-34.623-90.638-49.178-50.942-13.452-130.55-13.673-219.21 62.189l-10.585 9.2623 4.4106 13.232 28.007 85.786c-16.981 21.391-52.927 75.421-50.722 148.64 1.9848 65.938 34.182 129.89 95.489 189.88l-45.429 58.661-14.776 19.186 20.95 12.129c3.5285 2.2053 88.653 50.281 161.65-5.0722 3.5285-2.6464 6.6159-5.2927 9.7033-8.3801 14.776-14.776 22.274-33.3 22.053-53.368-0.22053-19.186-7.2775-39.475-20.73-60.866l382.62 2.4258z" style="fill:#fff;stroke-width:3.1188"/>
 <path d="m302.63 728.6s43.885 73.878-45.87 83.36c0 0-43.665-66.159 45.87-83.36zm32.197-56.897-34.182 62.41m-43.224-48.076s-25.14 82.037-92.402 22.274c0 0 19.407-76.744 92.402-22.274zm67.482-15.437-72.775 17.642m387.91-391.88-38.372 47.634m165.4 2.6464-140.7 57.779m241.7 47.193-245.23 16.76" style="fill:none;stroke-linecap:round;stroke-linejoin:round;stroke-miterlimit:10;stroke-width:21.143;stroke:#fff"/>
 <path d="m63.639 16.984c-21.113-5.2783-42.227-11.612-63.34-16.891 5.2783 21.113 11.612 42.227 16.891 63.34 14.779-15.835 30.614-30.614 46.45-46.45z" style="fill:#e84445;stroke-width:10.557"/>
</svg>
