<?xml version="1.0" encoding="UTF-8"?>
<svg id="mapPic_25" width="1024" height="1024" preserveAspectRatio="xMinYMid meet" version="1.1" viewBox="0 0 485 485">
  <path d="M103.1,419.3C-23.5,292.7,2.1,32.5,2.1,32.5C3.6,17.3,17.3,3.6,32.5,2.1c0,0,260.2-25.7,386.8,100.9c87.3,87.3,87.3,228.9,0,316.2C332,506.6,190.4,506.6,103.1,419.3z" style="fill:#807F7F"/>
  <path d="m118.7 118.7c80.3-80.3 210.8-80.2 291.1 0 80.3 80.3 80.3 210.8 0 291.1s-210.8 80.3-291.1 0c-80.2-80.2-80.2-210.8 0-291.1z" style="fill:#E5E5E4"/>
  <path d="m172 404.1c-0.1 9.4 5 17.9 13.4 22.2s18.3 3.4 25.9-2.2l67.3-50.2c2.9-2.1 6.6-2.7 10-1.6l79.5 27c8.9 3 18.6 0.8 25.3-5.9s8.9-16.4 5.9-25.3l-27-79.5c-1.2-3.4-0.6-7.1 1.6-10l50.2-67.3c5.6-7.6 6.5-17.5 2.2-25.9s-12.8-13.6-22.2-13.4l-84 1.1c-3.6 0-7-1.7-9-4.6l-48.5-68.5c-4.3-6-10.6-9.7-17.9-10.3-11.3-1-22.3 6.2-25.7 17.2l-24.8 80.1c-1 3.3-3.8 6.1-7.2 7.2l-80.2 24.9c-3.9 1.2-7.3 3.3-10.1 6.1-5.1 5.1-7.7 12.3-7.1 19.6s4.3 13.7 10.3 17.9l68.5 48.5c2.9 2.1 4.6 5.4 4.6 9l-1 83.9z" style="fill:#807F7F"/>
 </svg>