<?xml version="1.0" encoding="UTF-8"?>
<svg width="1024" height="1024" preserveAspectRatio="xMinYMid meet" version="1.1" viewBox="0 0 92 92" xmlns="http://www.w3.org/2000/svg">
 <path d="m6 1.6c-2-0.5-4-1.1-6-1.6 0.5 2 1.1 4 1.6 6l4.4-4.4z" style="fill:#E84445"/>
 <path d="m21.2 19.7c11.7-11.7 30.1-15 45.2-8 15.3 7.1 24.6 23.4 23 40.2-1.6 16.7-13.9 31.1-30.3 35-16.3 4-33.7-2.8-43-16.8-9.1-13.8-8.6-32.3 1.1-45.7 1.2-1.6 2.6-3.2 4-4.7z" style="fill:#263F66"/>
 <path d="m61.7 52.1-8.1 8.1-29.3-29.3c-0.2-0.2-1.5-1.2-1.5-1.5 0-0.2 0.8-0.8 0.9-1l7.2-7.2 27 27c1.3 1.3 2.6 2.6 3.8 3.9zm11.1 19.2c-2.5 2.5-6.3 3.1-9.5 1.6s-5.1-4.9-4.7-8.4c0.3-3.5 2.9-6.4 6.3-7.3 3.4-0.8 7 0.5 9 3.4 2.2 3.4 1.7 7.9-1.1 10.7zm3.6 3.6c-11.2 11.2-28.6 14.2-42.9 7.6-14.5-6.7-23.3-22.3-21.8-38.2s13.2-29.4 28.7-33.2c15.4-3.8 32 2.6 40.8 15.8 8.7 13.1 8.3 30.8-0.9 43.5-1.2 1.6-2.5 3.1-3.9 4.5m2.9 2.8c12.3-12.3 15.7-31.6 8.3-47.5s-24.6-25.7-42.1-24c-17.6 1.6-32.6 14.6-36.8 31.9-4.1 17 3 35.3 17.6 45 14.5 9.6 34 9.2 48-1.1 1.7-1.3 3.4-2.7 5-4.3z" style="fill:#fff"/>
</svg>
