<?xml version="1.0" encoding="UTF-8"?>
<svg id="mapPic_26" width="1024" height="1024" preserveAspectRatio="xMinYMid meet" version="1.1" viewBox="0 0 115 115" xmlns="http://www.w3.org/2000/svg">
 <path d="m44.749-1.3653 25.879 25.879c2.0822 2.0822 2.7763 5.9492 2.7763 8.9239-0.09915 5.7509-2.4789 11.403-5.5526 16.162-3.7679 6.0484-8.9239 11.403-14.675 15.567-4.8586 3.4704-10.51 6.445-16.46 7.1391-2.3797 0.29746-4.7594 0.29746-7.0399-0.39662-2.0822-0.59492-3.6687-1.6856-5.156-3.1729l-3.6687-3.6687c-5.7509-5.6518-11.304-11.204-16.955-16.757l-2.9746-2.9746c-0.19831-0.19831-1.289-0.99154-1.3882-1.3882 0-0.39662 1.5865-1.6856 1.8839-1.9831l31.531-31.531c3.7679-3.7679 7.5357-7.5357 11.304-11.204 0.19831-0.19831 0.39662-0.39662 0.49577-0.59493z" style="fill:#80d0de;stroke-width:.99154"/>
 <path d="m58.531 57.631c-4.4619 4.4619-9.7171 8.329-15.567 10.609-4.1645 1.6856-9.2213 2.8755-13.584 1.1899-2.0822-0.79323-3.5696-2.3797-5.0569-3.9662l-20.723-20.723c-0.099154-0.09915-0.89239-0.69408-0.89239-0.89239 0-0.09915 0.49577-0.49577 0.59493-0.59492l18.344-18.344c5.3543-5.2552 10.51-10.51 15.766-15.766l6.8416-6.8416c0.09915-0.099154 0.39662-0.49577 0.49577-0.49577 0.19831 0 0.79323 0.79323 0.99154 0.99154l10.213 10.213c3.9662 3.9662 7.9323 7.8332 11.799 11.799 1.0907 1.0907 2.0822 2.3797 2.6772 3.9662 0.69408 1.9831 0.79323 4.1645 0.59493 6.1476-0.59493 5.4535-3.1729 10.709-6.2467 15.171-1.7848 2.6772-3.867 5.2552-6.2467 7.5357m3.1729 3.1729c5.4535-5.4535 10.114-12.097 12.493-19.434 1.0907-3.3712 1.6856-6.8416 1.289-10.411-0.19831-1.5865-0.49577-3.0738-1.1898-4.4619-0.09915-0.29746-0.29746-0.59492-0.39662-0.89239 0-0.09915-0.19831-0.19831-0.19831-0.39662 0-0.09915 0.29746-0.19831 0.29746-0.29746 0-0.19831-0.19831-0.39662-0.39662-0.59492-4.1645-4.2636-8.4281-8.5273-12.692-12.692l-15.071-15.071c-0.29746-0.29746-0.79323-0.99154-1.1898-0.89239-0.19831 0.099154-0.59492 0.59492-0.79323 0.79323l-45.908 45.908c-0.19831 0.19831-1.5865 1.289-1.5865 1.5865 0 0.29746 1.3882 1.3882 1.6856 1.6856l27.466 27.466c0.39662 0.39662 0.19831 0.19831 0.49577 0.19831 0.09915 0 0.09915-0.19831 0.19831-0.19831 0.09915 0 0.39662 0.19831 0.49577 0.19831 0.29746 0.19831 0.69408 0.29746 1.0907 0.49577 1.4873 0.59492 2.9746 0.89239 4.5611 1.0907 7.2383 0.69408 14.477-2.4789 20.327-6.3459 3.1729-2.3797 6.2467-4.9577 9.023-7.734z" style="fill:#fff;stroke-width:.99154"/>
 <path d="m59.027 58.127c6.2467-6.2467 15.964-7.9323 23.896-4.1645s12.89 12.295 11.998 21.021c-0.79323 8.8247-7.3374 16.46-15.964 18.542-8.5273 2.0822-17.649-1.4873-22.607-8.7256-5.4535-8.2298-4.3628-19.633 2.6772-26.672z" style="fill:#80d0de;stroke-width:.99154"/>
 <path d="m87.385 86.485c-5.5526 5.5526-14.278 7.1391-21.417 3.7679-7.1391-3.4704-11.502-11.105-10.808-18.938 0.79323-7.8332 6.5442-14.576 14.179-16.559 7.734-1.9831 16.063 1.289 20.426 7.9323 4.8586 7.4366 3.867 17.55-2.3797 23.797m3.1729 3.0738c6.8416-6.8416 8.7256-17.55 4.6602-26.375-4.1645-8.8247-13.683-14.278-23.4-13.287-9.7171 0.89239-18.046 8.0315-20.426 17.55-2.3797 9.5188 1.5865 19.732 9.7171 25.185 8.0315 5.3543 18.839 5.0569 26.573-0.49577 0.99154-0.89239 1.9831-1.6856 2.8755-2.578z" style="fill:#fff;stroke-width:.99154"/>
 <path d="m6.8983 1.8537c-2.3-0.575-4.6-1.265-6.9-1.84 0.575 2.3 1.265 4.6 1.84 6.9 1.725-1.725 3.335-3.45 5.06-5.06z" style="fill:#e84445;stroke-width:1.15"/>
</svg>
