<?xml version="1.0" encoding="UTF-8"?>
<svg width="1024" height="1024" preserveAspectRatio="xMinYMid meet" version="1.1" viewBox="0 0 110 110" xmlns="http://www.w3.org/2000/svg">
 <path d="M6,1.6C4,1.1,2,0.6,0,0c0.5,2,1.1,4,1.6,6C3.1,4.6,4.6,3.1,6,1.6z" style="fill:#E84445"/>
 <path d="m42.372 7.1476c2.3294-2.3294 5.8236-3.1059 8.8324-1.9412 3.1059 1.1647 5.2412 4.1736 5.7265 7.3765 0.19412 1.65 0 3.3-0.58236 4.853-0.29118 0.77648-0.67942 1.4559-1.1647 2.1353-0.29118 0.38824-0.87353 0.77648-0.97059 1.1647-0.19412 0.67942 0.09706 1.7471 0.09706 2.4265 0 0.67942 0.09706 1.3588 0.09706 1.9412 1.4559-0.09706 2.8147-0.09706 4.2706-0.19412 0.19412 0 1.3588-0.19412 1.4559-0.09706 0.09706 0.09706 0 0.87354 0 0.97059 0.09706 2.9118 0.19412 5.7265 0.29118 8.6383-1.1647 0-2.3294 0.09706-3.4941 0.09706 0.29118 2.0382 0.4853 4.1736 0.77648 6.2118 0.09706 0.58236-0.09706 0.4853 0.38824 0.58236s1.1647-0.09706 1.7471-0.09706c4.95-0.19412 9.9971-0.4853 14.947-0.67942 2.1353-0.09706 4.2706-0.19412 6.4059-0.29118 0.67942 0 1.3588-0.19412 1.9412 0.09706 1.3588 0.58236 2.7177 1.4559 3.9794 2.2324 2.2324 1.2618 4.5618 2.5235 6.7942 3.7853 3.5912 2.0382 7.2795 3.9794 10.871 6.0177-6.3089 2.9118-12.521 5.7265-18.83 8.6383-1.2618 0.58236-2.5235 1.1647-3.6883 1.7471-0.4853 0.19412-0.67942 0.29118-1.2618 0.19412-3.6883-0.38824-7.2795-0.87353-10.968-1.2618-3.3-0.38824-6.6971-0.77648-9.9971-1.1647 0.77648 6.6971 1.65 13.394 2.4265 20.091 0.09706 0.4853 0.19412 1.0677 0.09706 1.5529-0.29118 0.97059-0.97059 2.0382-1.3588 2.9118-1.7471 3.8824-3.5912 7.6677-5.3383 11.55-1.2618 2.8147-2.6206 5.5324-3.8824 8.3471-3.9794-6.9883-7.8618-13.977-11.841-20.965-0.38824-0.58236-0.58236-0.87354-0.58236-1.65 0.09706-1.65 0.19412-3.3971 0.19412-5.0471 0.19412-5.0471 0.4853-10.191 0.67942-15.238 0-0.87353 0.09706-1.8441 0.09706-2.7177 0-0.19412 0.09706-0.87354 0-0.97059-0.09706-0.09706-0.97059-0.09706-1.0677-0.09706-0.67942-0.09706-1.4559-0.19412-2.1353-0.19412-0.97059-0.09706-2.0382-0.19412-3.0088-0.38824 0 0.58236-0.09706 1.0677-0.09706 1.65 0 0.29118 0.09706 1.5529-0.09706 1.7471-0.29118 0.29118-1.9412 0-2.3294 0-2.4265-0.09706-4.853-0.19412-7.2795-0.19412 0.09706-1.8441 0.19412-3.7853 0.29118-5.6294-0.67942 0-1.3588 0-2.0382-0.09706-0.67942 0-1.7471-0.29118-2.4265-0.09706-0.38824 0.09706-0.87354 0.77648-1.2618 1.0677-0.67942 0.4853-1.3588 0.87354-2.1353 1.1647-1.553 0.58236-3.3 0.77648-4.95 0.58236-3.3-0.4853-6.3089-2.7177-7.3765-5.9206s0.19412-6.7942 2.8147-8.9295c2.6206-2.1353 6.2118-2.7177 9.4148-1.65 0.77648 0.29118 1.4559 0.58236 2.0382 1.0677 0.67942 0.4853 1.0677 1.0677 1.7471 1.553 0.4853 0.38824 1.3588 0.29118 2.0382 0.29118 0.4853 0 0.97059 0 1.4559 0.09706 0.29118 0 0.87353 0.19412 1.0677 0 0.29118-0.09706 0.19412-0.67942 0.19412-1.0677 0.09706-0.97059 0.09706-2.0382 0.19412-3.0088 0-0.19412-0.09706-1.3588 0.09706-1.553 0.19412-0.19412 1.3588 0 1.65 0.09706 1.0677 0 2.2324 0.09706 3.3 0.09706 1.553 0.09706 3.1059 0.09706 4.7559 0.19412-0.09706 1.1647-0.09706 2.3294-0.19412 3.4941 1.1647-0.09706 2.3294-0.09706 3.3971-0.19412 0.4853 0 2.4265 0.19412 2.7177-0.19412 0.19412-0.19412 0-1.0677 0.09706-1.3588 0-0.77648 0.09706-1.553 0.09706-2.3294 0-1.0677 0.09706-2.1353 0.09706-3.203-1.1647 0-2.4265 0.09706-3.5912 0.09706-0.09706-2.9118-0.19412-5.7265-0.29118-8.6383 0-0.09706-0.09706-0.87353 0-0.97059 0.19412-0.19412 1.2618-0.09706 1.4559-0.09706 1.4559-0.09706 2.8147-0.09706 4.2706-0.19412 0-1.0677-0.09706-2.0382-0.09706-3.1059 0-0.38824 0.09706-0.97059-0.09706-1.3588-0.09706-0.19412-0.4853-0.4853-0.67942-0.67942-0.38824-0.38824-0.77648-0.77648-1.0677-1.2618-2.7177-3.4941-2.3294-8.8324 0.87354-12.035z" style="fill:#e74244;stroke-width:.97059"/>
 <path d="m99.54 52.28c-5.7265 2.6206-11.55 5.3383-17.277 7.9589-0.38824 0.19412-0.77648 0.4853-1.2618 0.4853-1.0677 0.09706-2.1353-0.29118-3.203-0.38824-3.9794-0.4853-7.9589-0.87353-11.938-1.3588-2.9118-0.29118-5.7265-0.67942-8.6383-0.97059 0.77648 6.4059 1.553 12.812 2.3294 19.121 0.19412 1.2618 0.29118 2.6206 0.4853 3.8824 0.09706 0.4853 0.09706 0.67942-0.09706 1.0677-1.4559 3.1059-2.9118 6.1147-4.2706 9.2206-1.3588 2.9118-2.7177 5.7265-3.9794 8.6383-1.9412-3.3971-3.8824-6.8912-5.8236-10.288-1.1647-1.9412-2.2324-3.9794-3.3971-5.9206-0.38824-0.67942-0.77648-1.0677-0.67942-1.8441 0.19412-4.2706 0.38824-8.6383 0.58236-12.909 0.09706-2.6206 0.19412-5.2412 0.38824-7.8618 0-0.97059 0.09706-1.8441 0.09706-2.8147 0-0.4853 0.19412-1.2618 0.09706-1.7471-0.09706-0.38824 0-0.29118-0.58236-0.29118-1.1647-0.09706-2.4265-0.29118-3.5912-0.38824-2.2324-0.29118-4.4647-0.4853-6.6971-0.77648 0 0.77648-0.09706 1.553-0.09706 2.3294 0 0.29118 0.09706 0.97059-0.09706 1.1647-0.19412 0.19412 0.09706 0-0.19412 0.09706-0.29118 0.09706-0.77648 0-1.0677 0-0.4853 0-1.0677 0-1.553-0.09706-0.67942 0-1.3588 0-2.1353-0.09706 0.09706-1.8441 0.19412-3.7853 0.29118-5.6294-1.4559 0-2.8147-0.09706-4.2706-0.09706-0.87354 0-1.8441-0.09706-2.7177-0.09706-0.77648 0-0.87353-0.09706-1.3588 0.4853-2.2324 2.5235-5.8236 3.203-8.6383 1.8441-2.5235-1.1647-4.0765-3.8824-3.4941-6.6 0.67942-3.3 4.0765-5.2412 7.2795-5.0471 1.553 0.09706 3.0088 0.58236 4.1736 1.553 0.29118 0.19412 0.4853 0.4853 0.77648 0.77648 0.19412 0.19412 0.38824 0.67942 0.58236 0.87353 0.19412 0.09706 0.19412 0.09706 0.38824 0.09706 1.7471 0.29118 3.5912 0.09706 5.3383 0.19412 0.4853 0 1.65 0.29118 2.1353 0.09706h0.19412c0.09706-0.09706 0-0.58236 0-0.67942 0.09706-1.0677 0.09706-2.1353 0.19412-3.203 0-0.29118-0.09706-1.553 0.19412-1.65 0.19412-0.09706 0.77648 0 0.97059 0 0.58236 0 1.0677 0 1.65 0.09706 0.77648 0 1.553 0.09706 2.3294 0.09706-0.09706 1.2618-0.09706 2.5235-0.19412 3.6883 3.3-0.19412 6.503-0.29118 9.803-0.4853 0.19412 0 0.87354 0.09706 1.0677-0.09706 0.09706-0.19412 0-0.97059 0.09706-1.1647l0.29118-5.8236c0.09706-1.553 0.09706-3.0088 0.19412-4.5618-0.77648 0-1.65 0.09706-2.4265 0.09706-0.29118 0-0.87353 0.19412-1.1647 0-0.29118-0.09706-0.09706 0.09706-0.19412-0.29118-0.29118-0.77648-0.09706-2.0382-0.09706-2.9118 0-0.29118-0.29118-1.65-0.09706-1.8441 0.19412-0.29118 1.8441-0.09706 2.2324-0.09706 1.0677 0 2.0382-0.09706 3.1059-0.09706 0.58236 0 0.4853 0 0.4853-0.4853 0-0.87354-0.09706-1.8441-0.09706-2.7177 0-1.0677-0.09706-2.1353-0.09706-3.203 0-0.38824 0.09706-1.2618-0.09706-1.553-0.09706-0.19412-0.77648-0.4853-0.97059-0.67942-0.29118-0.19412-0.4853-0.4853-0.77648-0.77648-0.58236-0.67942-0.97059-1.4559-1.2618-2.3294-0.58236-1.65-0.4853-3.3971 0.09706-4.95 1.2618-3.203 4.95-5.1441 8.153-3.6883 3.0088 1.3588 4.5618 4.853 3.7853 8.0559-0.19412 0.97059-0.58236 1.8441-1.1647 2.6206-0.29118 0.38824-0.58236 0.77648-0.97059 1.0677-0.19412 0.09706-0.4853 0.29118-0.58236 0.4853-0.19412 0.58236 0.09706 1.65 0.09706 2.2324 0.09706 1.9412 0.19412 3.7853 0.19412 5.7265 0.87353 0 1.7471-0.09706 2.6206-0.09706 0.67942 0 1.2618-0.09706 1.9412-0.09706 0.19412 0 0.97059-0.19412 1.1647 0 0.29118 0.19412 0.09706 1.7471 0.19412 2.1353 0 0.97059 0.09706 1.9412 0.09706 2.9118-1.2618 0-2.5235 0.09706-3.6883 0.09706 0.19412 1.8441 0.4853 3.6883 0.67942 5.5324 0.19412 1.2618 0.29118 2.6206 0.4853 3.8824 0 0.29118 0 1.7471 0.19412 2.0382 0.09706 0.09706 0.58236 0 0.67942 0 0.67942 0 1.4559-0.09706 2.1353-0.09706 2.4265-0.09706 4.7559-0.19412 7.1824-0.38824 4.95-0.19412 9.803-0.4853 14.753-0.67942 0.67942 0 1.3588-0.19412 2.0382 0.09706 1.65 0.67942 3.203 1.8441 4.853 2.6206 3.6883 2.0382 7.7648 4.2706 11.841 6.503m10.288 0.38824c-6.7942-3.7853-13.588-7.4736-20.382-11.259-1.553-0.87353-3.203-1.7471-4.7559-2.6206-0.38824-0.19412-0.87354-0.58236-1.3588-0.77648-0.4853-0.09706-1.0677 0-1.553 0-4.1736 0.19412-8.25 0.38824-12.424 0.58236-2.6206 0.09706-5.2412 0.29118-7.7648 0.38824-0.38824 0-1.4559 0.29118-1.7471 0.09706-0.38824-0.19412-0.29118-1.65-0.38824-2.1353 1.0677 0 2.2324-0.09706 3.3-0.09706-0.19412-4.2706-0.29118-8.4442-0.4853-12.715 0-0.19412 0.09706-1.3588-0.09706-1.553-0.09706-0.09706-0.67942 0-0.87353 0-1.2618 0.09706-2.5235 0.09706-3.7853 0.19412-0.29118 0-0.97059 0.19412-1.1647 0-0.09706-0.09706-0.09706-0.77648 0-0.87353 0.09706-0.4853 0.4853-0.77648 0.77648-1.2618 1.4559-2.1353 2.1353-4.6588 2.0382-7.1824-0.19412-4.95-3.4941-9.5118-8.4442-10.774-4.95-1.3588-10.191 1.4559-12.327 6.1147-1.0677 2.3294-1.3588 4.853-0.87353 7.3765 0.19412 1.0677 0.58236 2.1353 1.0677 3.203 0.29118 0.58236 0.58236 1.0677 0.97059 1.553 0.29118 0.38824 0.97059 0.97059 1.1647 1.3588 0.09706 0.29118 0.09706 1.0677-0.09706 1.1647-0.29118 0.19412-0.97059 0-1.3588 0.09706-1.2618 0-2.7177-0.09706-3.9794 0.19412-0.4853 0.09706-0.38824 0-0.29118 0.58236 0 0.77648 0.09706 1.553 0.09706 2.3294 0 0.97059 0.09706 1.9412 0.09706 2.9118 0.09706 2.4265 0.19412 4.95 0.29118 7.3765l-7.8618-0.29118c-0.87354 0-1.7471-0.09706-2.6206-0.09706-0.29118 0-1.5529-0.19412-1.7471 0-0.29118 0.29118-0.09706 1.8441-0.09706 2.2324 0 0.77648-0.09706 1.4559-0.09706 2.2324v0.87353c-0.09706 0.38824-0.09706 0.29118-0.58236 0.29118-0.58236 0-0.67942 0-1.1647-0.4853-0.58236-0.58236-1.3588-1.0677-2.0382-1.4559-2.9118-1.65-6.503-1.9412-9.6089-0.87354-6.6 2.0382-9.9971 9.9971-5.9206 16.015 2.0382 3.0088 5.6294 4.853 9.2206 4.95 1.9412 0.09706 3.8824-0.38824 5.7265-1.1647 0.87354-0.38824 1.553-1.1647 2.3294-1.553 0.38824-0.19412 0.87354-0.09706 1.2618-0.09706-0.09706 1.8441-0.19412 3.7853-0.29118 5.6294 2.2324 0.09706 4.4647 0.19412 6.7942 0.19412 1.0677 0 2.1353 0.09706 3.203 0.09706 0.67942 0 1.3588 0 2.0382 0.09706 0.4853 0 1.553 0.29118 2.0382 0.09706 0.38824-0.19412 0.19412-0.67942 0.29118-1.1647 0-0.67942 0.09706-1.3588 0.09706-2.1353 0.4853 0.09706 1.4559 0 1.65 0.29118s-0.09706 1.1647-0.09706 1.553c-0.09706 2.2324-0.19412 4.3677-0.29118 6.6-0.19412 4.3677-0.38824 8.6383-0.58236 13.006 0 0.4853-0.09706 0.87353-0.09706 1.3588 0 0.67942 0.38824 1.0677 0.67942 1.65 0.77648 1.2618 1.4559 2.6206 2.2324 3.8824 2.3294 4.1736 4.6588 8.3471 7.0853 12.424 1.65 3.0088 3.3971 6.0177 5.0471 8.9295 2.8147-6.0177 5.5324-11.938 8.3471-17.956 1.3588-2.8147 2.6206-5.7265 3.9794-8.5412 0.19412-0.38824 0.4853-0.77648 0.58236-1.1647 0.09706-0.38824-0.09706-0.87353-0.09706-1.2618 0-0.29118-0.09706-0.58236-0.09706-0.87353-0.19412-1.7471-0.38824-3.5912-0.67942-5.3383-0.4853-3.8824-0.97059-7.8618-1.4559-11.744 3.3971 0.38824 6.6971 0.77648 10.094 1.1647 2.0382 0.19412 4.1736 0.4853 6.2118 0.67942 0.87353 0.09706 2.2324 0.4853 3.0088 0.29118 0.77648-0.09706 2.0382-0.97059 2.8147-1.2618 1.8441-0.87353 3.6883-1.65 5.5324-2.5235l10.774-4.95c2.9118-1.1647 5.8236-2.5235 8.7353-3.8824zm-70.756-14.947c0 0.58236 0.09706 1.65-0.09706 2.1353-0.09706 0.29118 0 0.09706-0.38824 0.19412-0.29118 0.09706-0.67942 0-1.0677 0.09706 0-0.58236-0.09706-1.553 0.09706-2.1353 0.19412-0.38824-0.09706-0.09706 0.29118-0.29118 0.29118 0 0.77648 0.09706 1.1647 0z" style="fill:#fff;stroke-width:.97059"/>
</svg>
