<?xml version="1.0" encoding="UTF-8" standalone="no"?>
<svg viewBox="0 0 110 110" version="1.1" preserveAspectRatio="xMinYMid meet" height="1024" width="1024" id="mapPic_32">
  <path id="path2" style="fill:#E84445" d="M6,1.6C4,1.1,2,0.6,0,0c0.5,2,1.1,4,1.6,6C3.1,4.6,4.6,3.1,6,1.6z" />
  <path id="path4" style="fill:#e74244;stroke-width:0.97059375" d="m 42.371879,7.1475714 c 2.329425,-2.329425 5.823562,-3.1059 8.832403,-1.9411875 3.1059,1.1647125 5.241206,4.1735531 5.726503,7.3765121 0.194118,1.650009 0,3.300019 -0.582357,4.852969 -0.291178,0.776475 -0.679415,1.45589 -1.164712,2.135306 -0.291178,0.388237 -0.873534,0.776475 -0.970594,1.164712 -0.194119,0.679416 0.09706,1.747069 0.09706,2.426485 0,0.679415 0.09706,1.358831 0.09706,1.941187 1.455891,-0.09706 2.814722,-0.09706 4.270612,-0.194118 0.194119,0 1.358832,-0.194119 1.455891,-0.09706 0.09706,0.09706 0,0.873535 0,0.970594 0.09706,2.911781 0.194119,5.726503 0.291178,8.638284 -1.164712,0 -2.329425,0.09706 -3.494137,0.09706 0.291178,2.038247 0.485297,4.173553 0.776475,6.2118 0.09706,0.582356 -0.09706,0.485296 0.388237,0.582356 0.485297,0.09706 1.164713,-0.09706 1.747069,-0.09706 4.950028,-0.194118 9.997115,-0.485296 14.947144,-0.679415 2.135306,-0.09706 4.270612,-0.194119 6.405918,-0.291178 0.679416,0 1.358832,-0.194119 1.941188,0.09706 1.358831,0.582356 2.717662,1.455891 3.979434,2.232366 2.232366,1.261772 4.561791,2.523543 6.794156,3.785315 3.591204,2.038247 7.279463,3.979435 10.870653,6.017682 -6.308855,2.911781 -12.520662,5.726503 -18.829521,8.638284 -1.261772,0.582356 -2.523544,1.164712 -3.688257,1.747069 -0.485296,0.194118 -0.679415,0.291178 -1.261771,0.194118 -3.688257,-0.388237 -7.279454,-0.873534 -10.96771,-1.261772 -3.300018,-0.388237 -6.697097,-0.776475 -9.997115,-1.164712 0.776475,6.697097 1.650009,13.394194 2.426484,20.091291 0.09706,0.485296 0.194119,1.067653 0.09706,1.552949 -0.291178,0.970594 -0.970593,2.038247 -1.358831,2.911782 -1.747069,3.882375 -3.591197,7.66769 -5.338265,11.550065 -1.261772,2.814716 -2.620604,5.532375 -3.882375,8.347095 -3.979435,-6.988263 -7.86181,-13.976538 -11.841244,-20.964813 -0.388238,-0.582357 -0.582356,-0.873535 -0.582356,-1.65001 0.09706,-1.650009 0.194118,-3.397078 0.194118,-5.047087 0.194119,-5.047088 0.485297,-10.191235 0.679416,-15.238322 0,-0.873534 0.09706,-1.844128 0.09706,-2.717662 0,-0.194119 0.09706,-0.873535 0,-0.970594 -0.09706,-0.09706 -0.970593,-0.09706 -1.067653,-0.09706 -0.679415,-0.09706 -1.45589,-0.194118 -2.135306,-0.194118 -0.970594,-0.09706 -2.038247,-0.194119 -3.008841,-0.388238 0,0.582356 -0.09706,1.067653 -0.09706,1.65001 0,0.291178 0.09706,1.552949 -0.09706,1.747068 -0.291178,0.291178 -1.941188,0 -2.329425,0 -2.426485,-0.09706 -4.852969,-0.194119 -7.279453,-0.194119 0.09706,-1.844128 0.194118,-3.785315 0.291178,-5.629443 -0.679416,0 -1.358831,0 -2.038247,-0.09706 -0.679416,0 -1.747069,-0.291178 -2.426484,-0.09706 -0.388238,0.09706 -0.873535,0.776475 -1.261772,1.067653 -0.679416,0.485297 -1.358832,0.873535 -2.135307,1.164713 -1.55295,0.582356 -3.300018,0.776475 -4.950028,0.582356 C 8.6922764,57.424327 5.6834358,55.191961 4.6157827,51.989002 3.5481296,48.786043 4.8099014,45.194846 7.4305045,43.05954 c 2.6206035,-2.135307 6.2118005,-2.717663 9.4147595,-1.65001 0.776475,0.291178 1.455891,0.582356 2.038247,1.067653 0.679416,0.485297 1.067653,1.067653 1.747069,1.55295 0.485297,0.388238 1.358831,0.291178 2.038247,0.291178 0.485296,0 0.970593,0 1.45589,0.09706 0.291178,0 0.873534,0.194119 1.067653,0 0.291178,-0.09706 0.194119,-0.679416 0.194119,-1.067653 0.09706,-0.970594 0.09706,-2.038247 0.194119,-3.008841 0,-0.194119 -0.09706,-1.358831 0.09706,-1.55295 0.194119,-0.194119 1.358831,0 1.650009,0.09706 1.067654,0 2.232366,0.09706 3.300019,0.09706 1.55295,0.09706 3.1059,0.09706 4.75591,0.194119 -0.09706,1.164712 -0.09706,2.329425 -0.194119,3.494137 1.164712,-0.09706 2.329425,-0.09706 3.397078,-0.194119 0.485297,0 2.426484,0.194119 2.717662,-0.194118 0.194119,-0.194119 0,-1.067654 0.09706,-1.358832 0,-0.776475 0.09706,-1.55295 0.09706,-2.329425 0,-1.067653 0.09706,-2.135306 0.09706,-3.202959 -1.164713,0 -2.426485,0.09706 -3.591197,0.09706 -0.09706,-2.911781 -0.194119,-5.726503 -0.291178,-8.638284 0,-0.09706 -0.09706,-0.873534 0,-0.970594 0.194118,-0.194118 1.261771,-0.09706 1.45589,-0.09706 1.455891,-0.09706 2.814722,-0.09706 4.270613,-0.194119 0,-1.067653 -0.09706,-2.038247 -0.09706,-3.1059 0,-0.388237 0.09706,-0.970594 -0.09706,-1.358831 -0.09706,-0.19412 -0.485299,-0.485298 -0.679418,-0.679417 C 42.17776,20.056468 41.789522,19.66823 41.498344,19.182933 38.780682,15.688796 39.168919,10.350531 42.371879,7.1475714 Z" />
  <path id="path6" style="fill:#ffffff;stroke-width:0.97059375" d="m 99.539857,52.28018 c -5.72651,2.620603 -11.550072,5.338266 -17.276576,7.958869 -0.388237,0.194119 -0.776475,0.485297 -1.261771,0.485297 -1.067654,0.09706 -2.135307,-0.291178 -3.20296,-0.388238 -3.979434,-0.485297 -7.958869,-0.873534 -11.938303,-1.358831 -2.911781,-0.291178 -5.726503,-0.679416 -8.638284,-0.970594 0.776475,6.405919 1.55295,12.811838 2.329425,19.120697 0.194119,1.261772 0.291178,2.620603 0.485297,3.882375 0.09706,0.485297 0.09706,0.679416 -0.09706,1.067653 -1.45589,3.1059 -2.911781,6.114741 -4.270612,9.220641 -1.358831,2.911781 -2.717663,5.726503 -3.979435,8.638278 -1.941187,-3.397072 -3.882375,-6.89121 -5.823562,-10.288288 -1.164712,-1.941187 -2.232366,-3.979434 -3.397078,-5.920622 -0.388238,-0.679415 -0.776475,-1.067653 -0.679416,-1.844128 0.194119,-4.270612 0.388238,-8.638284 0.582357,-12.908896 0.09706,-2.620604 0.194118,-5.241207 0.388237,-7.86181 0,-0.970593 0.09706,-1.844128 0.09706,-2.814722 0,-0.485296 0.194119,-1.261771 0.09706,-1.747068 -0.09706,-0.388238 0,-0.291178 -0.582356,-0.291178 -1.164713,-0.09706 -2.426485,-0.291179 -3.591197,-0.388238 -2.232366,-0.291178 -4.464732,-0.485297 -6.697097,-0.776475 0,0.776475 -0.09706,1.55295 -0.09706,2.329425 0,0.291178 0.09706,0.970594 -0.09706,1.164713 -0.194119,0.194118 0.09706,0 -0.194119,0.09706 -0.291178,0.09706 -0.776475,0 -1.067653,0 -0.485297,0 -1.067653,0 -1.55295,-0.09706 -0.679415,0 -1.358831,0 -2.135306,-0.09706 0.09706,-1.844128 0.194119,-3.785315 0.291178,-5.629444 -1.455891,0 -2.814722,-0.09706 -4.270612,-0.09706 -0.873535,0 -1.844128,-0.09706 -2.717663,-0.09706 -0.776475,0 -0.873534,-0.09706 -1.358831,0.485297 -2.232366,2.523543 -5.823563,3.202959 -8.638284,1.844128 -2.5235443,-1.164713 -4.0764943,-3.882375 -3.4941381,-6.600038 0.6794156,-3.300019 4.0764941,-5.241206 7.2794531,-5.047087 1.55295,0.09706 3.008841,0.582356 4.173553,1.55295 0.291178,0.194118 0.485297,0.485297 0.776475,0.776475 0.194119,0.194118 0.388238,0.679415 0.582357,0.873534 0.194118,0.09706 0.194118,0.09706 0.388237,0.09706 1.747069,0.291179 3.591197,0.09706 5.338266,0.194119 0.485296,0 1.650009,0.291178 2.135306,0.09706 h 0.194119 c 0.09706,-0.09706 0,-0.582357 0,-0.679416 0.09706,-1.067653 0.09706,-2.135306 0.194118,-3.202959 0,-0.291179 -0.09706,-1.55295 0.194119,-1.65001 0.194119,-0.09706 0.776475,0 0.970594,0 0.582356,0 1.067653,0 1.650009,0.09706 0.776475,0 1.55295,0.09706 2.329425,0.09706 -0.09706,1.261772 -0.09706,2.523544 -0.194119,3.688256 3.300019,-0.194119 6.502979,-0.291178 9.802997,-0.485297 0.194119,0 0.873535,0.09706 1.067653,-0.09706 0.09706,-0.194119 0,-0.970594 0.09706,-1.164713 l 0.291178,-5.823562 c 0.09706,-1.55295 0.09706,-3.008841 0.194119,-4.561791 -0.776475,0 -1.65001,0.09706 -2.426485,0.09706 -0.291178,0 -0.873534,0.194119 -1.164712,0 -0.291178,-0.09706 -0.09706,0.09706 -0.194119,-0.291178 -0.291178,-0.776475 -0.09706,-2.038247 -0.09706,-2.911782 0,-0.291178 -0.291178,-1.650009 -0.09706,-1.844128 0.194119,-0.291178 1.844128,-0.09706 2.232366,-0.09706 1.067653,0 2.038247,-0.09706 3.1059,-0.09706 0.582356,0 0.485297,0 0.485297,-0.485297 0,-0.873535 -0.09706,-1.844128 -0.09706,-2.717663 0,-1.067653 -0.09706,-2.135306 -0.09706,-3.202959 0,-0.388238 0.09706,-1.261772 -0.09706,-1.55295 -0.09706,-0.194119 -0.776475,-0.485297 -0.970594,-0.679416 -0.291178,-0.194119 -0.485297,-0.485297 -0.776475,-0.776475 -0.582356,-0.679415 -0.970594,-1.45589 -1.261772,-2.329425 -0.582356,-1.650009 -0.485297,-3.397078 0.09706,-4.950028 1.261772,-3.2029589 4.950028,-5.1441464 8.152988,-3.6882558 3.00884,1.3588313 4.56179,4.8529688 3.785315,8.0559278 -0.194118,0.970594 -0.582356,1.844128 -1.164712,2.620603 -0.291178,0.388238 -0.582356,0.776475 -0.970594,1.067653 -0.194119,0.09706 -0.485297,0.291178 -0.582356,0.485297 -0.194119,0.582356 0.09706,1.650009 0.09706,2.232366 0.09706,1.941187 0.194119,3.785315 0.194119,5.726503 0.873534,0 1.747069,-0.09706 2.620603,-0.09706 0.679416,0 1.261772,-0.09706 1.941188,-0.09706 0.194118,0 0.970593,-0.194119 1.164712,0 0.291178,0.194119 0.09706,1.747069 0.194119,2.135306 0,0.970594 0.09706,1.941188 0.09706,2.911782 -1.261772,0 -2.523543,0.09706 -3.688256,0.09706 0.194119,1.844128 0.485297,3.688256 0.679416,5.532384 0.194118,1.261772 0.291178,2.620603 0.485297,3.882375 0,0.291178 0,1.747069 0.194118,2.038247 0.09706,0.09706 0.582357,0 0.679416,0 0.679416,0 1.455891,-0.09706 2.135306,-0.09706 2.426485,-0.09706 4.75591,-0.194119 7.182394,-0.388238 4.950028,-0.194119 9.802997,-0.485297 14.753025,-0.679415 0.679415,0 1.358831,-0.194119 2.038247,0.09706 1.650009,0.679416 3.202959,1.844128 4.852968,2.620603 3.688257,2.038247 7.76475,4.270613 11.841251,6.502978 m 10.288293,0.388238 c -6.79416,-3.785316 -13.588316,-7.473572 -20.382475,-11.258888 -1.55295,-0.873534 -3.202959,-1.747069 -4.755909,-2.620603 -0.388238,-0.194119 -0.873535,-0.582356 -1.358831,-0.776475 -0.485297,-0.09706 -1.067654,0 -1.55295,0 -4.173554,0.194119 -8.250047,0.388238 -12.4236,0.582356 -2.620603,0.09706 -5.241207,0.291179 -7.76475,0.388238 -0.388238,0 -1.455891,0.291178 -1.747069,0.09706 -0.388238,-0.194118 -0.291178,-1.650009 -0.388238,-2.135306 1.067654,0 2.232366,-0.09706 3.300019,-0.09706 -0.194119,-4.270613 -0.291178,-8.444166 -0.485297,-12.714778 0,-0.194119 0.09706,-1.358832 -0.09706,-1.55295 -0.09706,-0.09706 -0.679416,0 -0.873534,0 -1.261772,0.09706 -2.523544,0.09706 -3.785316,0.194118 -0.291178,0 -0.970594,0.194119 -1.164713,0 -0.09706,-0.09706 -0.09706,-0.776475 0,-0.873534 0.09706,-0.485297 0.485297,-0.776475 0.776475,-1.261772 1.455891,-2.135306 2.135307,-4.65885 2.038247,-7.182394 C 58.969032,8.5064026 55.669013,3.944612 50.718985,2.6828401 45.768957,1.324009 40.52775,4.1387308 38.392444,8.7975807 37.324791,11.127006 37.033613,13.650549 37.51891,16.174093 c 0.194119,1.067653 0.582356,2.135306 1.067653,3.202959 0.291178,0.582356 0.582356,1.067653 0.970594,1.55295 0.291178,0.388238 0.970593,0.970594 1.164712,1.358831 0.09706,0.291179 0.09706,1.067654 -0.09706,1.164713 -0.291178,0.194119 -0.970594,0 -1.358831,0.09706 -1.261772,0 -2.717663,-0.09706 -3.979435,0.194119 -0.485297,0.09706 -0.388237,0 -0.291178,0.582356 0,0.776475 0.09706,1.55295 0.09706,2.329425 0,0.970594 0.09706,1.941188 0.09706,2.911782 0.09706,2.426484 0.194119,4.950028 0.291178,7.376512 l -7.861809,-0.291178 c -0.873535,0 -1.747069,-0.09706 -2.620604,-0.09706 -0.291178,0 -1.552949,-0.194119 -1.747068,0 -0.291178,0.291178 -0.09706,1.844128 -0.09706,2.232365 0,0.776475 -0.09706,1.455891 -0.09706,2.232366 v 0.873534 c -0.09706,0.388238 -0.09706,0.291178 -0.582356,0.291178 -0.582356,0 -0.679416,0 -1.164713,-0.485297 -0.582356,-0.582356 -1.358831,-1.067653 -2.038247,-1.45589 -2.911781,-1.65001 -6.502978,-1.941188 -9.6088779,-0.873535 -6.6000374,2.038247 -9.99711561,9.997116 -5.9206218,16.014797 2.0382469,3.008841 5.6294437,4.852969 9.2206407,4.950028 1.941188,0.09706 3.882375,-0.388237 5.726503,-1.164712 0.873535,-0.388238 1.55295,-1.164713 2.329425,-1.55295 0.388238,-0.194119 0.873535,-0.09706 1.261772,-0.09706 -0.09706,1.844129 -0.194119,3.785316 -0.291178,5.629444 2.232366,0.09706 4.464731,0.194119 6.794156,0.194119 1.067653,0 2.135306,0.09706 3.202959,0.09706 0.679416,0 1.358832,0 2.038247,0.09706 0.485297,0 1.55295,0.291178 2.038247,0.09706 0.388238,-0.194119 0.194119,-0.679416 0.291178,-1.164713 0,-0.679415 0.09706,-1.358831 0.09706,-2.135306 0.485297,0.09706 1.45589,0 1.650009,0.291178 0.194119,0.291178 -0.09706,1.164713 -0.09706,1.55295 -0.09706,2.232366 -0.194119,4.367672 -0.291178,6.600038 -0.194119,4.367672 -0.388238,8.638284 -0.582357,13.005956 0,0.485297 -0.09706,0.873534 -0.09706,1.358831 0,0.679416 0.388237,1.067653 0.679416,1.65001 0.776475,1.261771 1.45589,2.620603 2.232365,3.882375 2.329425,4.173553 4.65885,8.347106 7.085334,12.423592 1.65001,3.00884 3.397079,6.01768 5.047088,8.92946 2.814722,-6.01768 5.532384,-11.938293 8.347106,-17.955974 1.358831,-2.814722 2.620603,-5.726503 3.979435,-8.541225 0.194118,-0.388238 0.485296,-0.776475 0.582356,-1.164713 0.09706,-0.388237 -0.09706,-0.873534 -0.09706,-1.261772 0,-0.291178 -0.09706,-0.582356 -0.09706,-0.873534 -0.194119,-1.747069 -0.388237,-3.591197 -0.679416,-5.338266 -0.485296,-3.882375 -0.970593,-7.861809 -1.45589,-11.744184 3.397078,0.388238 6.697097,0.776475 10.094175,1.164713 2.038247,0.194118 4.173553,0.485296 6.2118,0.679415 0.873534,0.09706 2.232365,0.485297 3.00884,0.291178 0.776475,-0.09706 2.038247,-0.970593 2.814722,-1.261772 1.844128,-0.873534 3.688256,-1.650009 5.532384,-2.523543 l 10.773605,-4.950028 c 2.91178,-1.164713 5.82356,-2.523544 8.73534,-3.882375 z M 39.07186,37.721274 c 0,0.582356 0.09706,1.650009 -0.09706,2.135306 -0.09706,0.291178 0,0.09706 -0.388237,0.194119 -0.291178,0.09706 -0.679416,0 -1.067653,0.09706 0,-0.582356 -0.09706,-1.55295 0.09706,-2.135306 0.194119,-0.388237 -0.09706,-0.09706 0.291178,-0.291178 0.291178,0 0.776475,0.09706 1.164713,0 z" />
</svg>
