<?xml version="1.0" encoding="UTF-8"?>
<svg width="1024" height="1024" preserveAspectRatio="xMinYMid meet" version="1.1" viewBox="0 0 85 85" xmlns="http://www.w3.org/2000/svg">
 <path d="m6 1.7c-2-0.6-4-1.1-6-1.6 0.5 2 1.1 4 1.6 6l4.4-4.4z" style="fill:#E84445"/>
 <path d="m16.2 24.7c1.3 1.4 2.5 2.7 4.4 3.2 2.5 0.7 5.3-0.1 7.1-1.9 1.8-1.9 2.4-4.6 1.7-7.1-0.6-1.8-1.8-2.9-3.1-4.2l12.1-12.1 10.5 10.5c0.2 0.2 0.5 0.6 0.7 0.7 0.3 0.1 0 0.1 0.4-0.1 0.4-0.3 0.8-0.7 1.2-1.1 0.6-0.5 1.3-1.1 2-1.5 3.7-2.5 8.4-4.3 12.8-2.7 4.1 1.5 6.3 5.3 8.4 8.8-2.3-0.3-4.5-0.7-6.8-0.3-2.1 0.4-4.2 1.3-5.4 3.1-1.5 2.3-1.6 5.5-1.1 8.1 3.5-3.1 8.5-5.7 13.3-4.2 3.9 1.3 5.9 4.9 7.9 8.2-3.4-0.5-7.6-1.2-10.3 1.6-2.1 2.2-2 6.1-1.2 8.8 0.6 2 1.7 3.8 3.2 5.2 0.9 0.8 1.9 1.4 2.9 2l-25.2 25.2c-1.6-2.6-3.4-4.6-6.3-5.7-2.6-1-6.2-1.3-8.8 0.2-2.3 1.4-3.1 4.2-3.1 6.7 0 1.4 0.3 2.9 0.5 4.3-3.3-2-6.9-4-8.2-8-1.5-4.7 1.1-9.7 4.2-13.1-2.6-0.5-5.7-0.4-8 1-1.9 1.2-2.9 3.3-3.2 5.4-0.4 2.3 0 4.6 0.3 6.9-3.1-1.9-6.3-3.7-8.1-7-2.3-4.2-1.1-9.1 1.3-13 0.8-1.4 1.8-2.7 2.9-3.9 0.6-0.6 0.8-0.6 0.2-1.1l-10.9-10.9 10.6-10.6c0.1-0.4 0.6-0.9 1.1-1.4z" style="fill:#263F66"/>
 <path d="m49.8 16-32.2 32.2c-0.2-0.2-1-0.8-0.9-1 0-0.1 0.4-0.4 0.4-0.4l31.1-31.1c0.1-0.1 0.4-0.6 0.6-0.6 0.2-0.1 0.7 0.6 1 0.9zm10.9 14.6-10.3 10.3c-5.1 5.2-10.4 10.4-15.6 15.7l-2.2 2.2c-0.1 0.1-0.3 0.5-0.5 0.5s-0.8-0.7-1-0.9l28.7-28.7zm-9 42c-4-6.2-16.6-8.7-19.4-0.3-0.6 1.6-0.7 3.5-0.5 5.2-3.5-2.1-5.8-5.6-4.9-9.8 0.6-2.7 2.2-5.2 4-7.3l1.8-1.8c-4.5-1.6-10.8-1.6-13.9 2.5-1.8 2.4-2.4 5.8-2 8.7-4-2.4-6.7-6.4-5.7-11.2 0.6-3.1 2.4-6 4.5-8.4 0.6-0.7 1.4-1.4 2.1-2.1l-11.3-11.3 9.9-9.9c3.3 3.6 9.1 3.7 12.5 0.3s3.3-9.2-0.3-12.5l9.4-9.4c0.1-0.1 0.4-0.5 0.5-0.4 0.2 0 0.8 0.8 1 1 0.6 0.4 1.2 1.1 1.8 1.7l7.1 7.1c0.3 0.3 0.8 1 1.2 1.2s0.8-0.5 1.2-0.9c0.2-0.2 0.5-0.5 0.8-0.7 1.3-1.2 2.7-2.2 4.2-3 2.3-1.3 5-2.2 7.7-1.9 3.6 0.4 6.2 2.9 8 5.9-2.9-0.4-6.3 0.2-8.7 2-4.1 3.1-4.1 9.4-2.4 13.8 3.4-3.4 8.3-7.3 13.4-5.6 2.4 0.8 4.2 2.7 5.5 4.8-3.8-0.5-8.2 0.9-9.8 4.7-1.8 4.4-0.4 9.9 2.7 13.3 0.6 0.7 1.4 1.4 2.2 1.9-6 5.9-12 11.9-17.9 17.8-1.6 1.5-3.1 3.1-4.7 4.6m-0.5 5c3.9-4 7.9-8 11.9-11.9l16.1-16.1c-2.7-1.7-5.2-3-6.5-6.1-1.1-2.6-1.7-7 0.7-9 1.6-1.3 4-1.4 6-1.2 1.9 0.2 3.8 0.5 5.7 0.7-1.9-3.2-3.7-6.9-6.5-9.3-4.9-4.1-11.3-2.9-16.2 0.5 0-2.7 0.9-5.2 3.6-6.3 1.5-0.6 3.3-0.8 4.9-0.7 2.2 0.2 4.3 0.6 6.5 0.9-2.9-4.6-5.4-10.1-10.8-12.1-4-1.5-8.3-0.6-11.9 1.4-1.5 0.8-2.9 1.8-4.3 2.9-0.2 0.2-0.5 0.6-0.7 0.5-0.2 0-0.5-0.5-0.6-0.6l-9.5-9.5c-0.2-0.2-0.9-1.2-1.2-1.2-0.4 0-1.6 1.5-2 1.9l-12.4 12.4c1 0.9 2.3 1.8 3.1 3 1.6 2.2 1.4 5.2-0.5 7.2-1.9 1.9-4.9 2.3-7.2 0.8-1.2-0.8-2.2-2.1-3.2-3.2l-14.3 14.3 10.8 10.8c0.1 0.1 0.6 0.5 0.6 0.6 0 0.3-1.1 1.4-1.3 1.7-1.4 1.9-2.7 4.1-3.4 6.4-1.7 5.2-0.3 10.5 3.8 14.1 2.5 2.2 5.6 3.7 8.3 5.4-0.3-2.1-0.6-4.3-0.9-6.4-0.2-1.8 0.1-3.8 0.8-5.4 1.2-2.4 3.6-3.1 6.1-3.2-2.7 3.8-4.2 8.8-2.3 13.3 1.5 3.5 4.7 5.5 7.8 7.4 1.1 0.7 2.3 1.4 3.4 2.1-0.2-1.7-0.5-3.4-0.7-5.1-0.3-1.9-0.4-3.8 0.4-5.6 1.4-3.2 5.7-3.1 8.5-2.2 1.9 0.6 3.7 1.7 4.9 3.3 1.1 0.9 1.7 2.3 2.5 3.5z" style="fill:#fff"/>
</svg>
