<svg width="24px" height="24px" viewBox="0 0 24 24" version="1.1" xmlns="http://www.w3.org/2000/svg" xmlns:xlink="http://www.w3.org/1999/xlink">
    <g id="Page-1" stroke="none" stroke-width="1" fill="none" fill-rule="evenodd">
        <g id="no-coordinates" transform="translate(-100.000000, -156.000000)">
            <rect fill="#FFFFFF" x="0" y="0" width="1440" height="1024"></rect>
            <g id="Icon/Error/White" transform="translate(104.000000, 158.000000)" fill="#686565">
                <path d="M8,10.38 C7.72385763,10.38 7.5,10.1561424 7.5,9.88 L7.5,4.04 C7.5,3.76385763 7.72385763,3.54 8,3.54 C8.27614237,3.54 8.5,3.76385763 8.5,4.04 L8.5,9.88 C8.5,10.1561424 8.27614237,10.38 8,10.38 Z" id="Shape"></path>
                <circle id="Oval" cx="8" cy="11.985" r="1"></circle>
                <path d="M8,16 C3.581722,16 4.4408921e-16,12.418278 0,8 C-5.55111512e-16,3.581722 3.581722,8.8817842e-16 8,0 C12.418278,-7.77156117e-16 16,3.581722 16,8 C16,10.1217319 15.1571453,12.1565632 13.6568542,13.6568542 C12.1565632,15.1571453 10.1217319,16 8,16 Z M8,1 C4.13400675,1 1,4.13400675 1,8 C1,11.8659932 4.13400675,15 8,15 C11.8659932,15 15,11.8659932 15,8 C15,4.13400675 11.8659932,1 8,1 L8,1 Z" id="Shape"></path>
            </g>
        </g>
    </g>
</svg>