<?xml version="1.0" encoding="utf-8"?>
<!-- Generator: Adobe Illustrator 15.0.0, SVG Export Plug-In . SVG Version: 6.00 Build 0)  -->
<!DOCTYPE svg PUBLIC "-//W3C//DTD SVG 1.1//EN" "http://www.w3.org/Graphics/SVG/1.1/DTD/svg11.dtd">
<svg version="1.1" id="Layer_1" xmlns="http://www.w3.org/2000/svg" xmlns:xlink="http://www.w3.org/1999/xlink" x="0px" y="0px"
	 width="198.43px" height="85.04px" viewBox="0 0 198.43 85.04" enable-background="new 0 0 198.43 85.04" xml:space="preserve">
<rect x="-0.087" y="17.74" opacity="0.65" fill="#FFFFFF" width="198.425" height="40.01"/>
<g>
	<path fill="#273F66" d="M21.659,47.56l-7.584-10.204L6.49,47.56H5.044l8.288-11.064L5.865,26.449h1.447l6.763,9.147l6.841-9.147
		h1.407l-7.466,10.007l8.249,11.104H21.659z"/>
	<path fill="#273F66" d="M41.226,26.058c1.56,0,2.998,0.279,4.312,0.838c1.313,0.561,2.438,1.327,3.375,2.302
		c0.937,0.976,1.671,2.134,2.205,3.474c0.533,1.34,0.799,2.79,0.799,4.352c0,1.561-0.266,3.004-0.799,4.331
		c-0.534,1.328-1.269,2.478-2.205,3.454c-0.937,0.977-2.062,1.742-3.375,2.303c-1.313,0.559-2.751,0.84-4.312,0.84
		c-2.159,0-4.077-0.527-5.755-1.581s-2.959-2.479-3.843-4.274v12.929h-1.29V26.487h1.009l0.242,5.502
		c0.884-1.793,2.165-3.23,3.843-4.312C37.109,26.598,39.041,26.058,41.226,26.058z M41.146,46.738c1.379,0,2.646-0.24,3.804-0.724
		c1.157-0.482,2.159-1.159,3.004-2.034c0.846-0.872,1.508-1.902,1.99-3.087c0.481-1.185,0.722-2.482,0.722-3.89
		c0-1.408-0.241-2.705-0.722-3.89c-0.482-1.186-1.144-2.215-1.99-3.089c-0.845-0.873-1.847-1.551-3.004-2.033
		c-1.158-0.482-2.425-0.724-3.804-0.724c-1.352,0-2.613,0.249-3.784,0.743c-1.17,0.496-2.185,1.179-3.043,2.053
		c-0.859,0.873-1.529,1.902-2.01,3.088c-0.481,1.186-0.721,2.469-0.721,3.851s0.24,2.665,0.721,3.851
		c0.481,1.186,1.151,2.214,2.01,3.087c0.858,0.874,1.873,1.56,3.043,2.053C38.533,46.49,39.794,46.738,41.146,46.738z"/>
	<path fill="#273F66" d="M115.565,26.41v21.15h-1.252V37.199h-14.308V47.56h-1.251V26.41h1.251v9.578h14.308V26.41H115.565z"/>
	<path fill="#273F66" d="M142.656,26.449v21.11h-1.251V28.794L126.941,47.56h-0.782v-21.11h1.25v18.725l14.504-18.725H142.656z"/>
	<path fill="#273F66" d="M162.163,47.951c-1.537,0-2.964-0.281-4.28-0.84c-1.316-0.561-2.463-1.326-3.44-2.303
		c-0.978-0.976-1.738-2.126-2.287-3.454c-0.547-1.327-0.82-2.77-0.82-4.331c0-1.562,0.266-3.011,0.801-4.352
		c0.534-1.34,1.29-2.498,2.268-3.474c0.978-0.976,2.13-1.742,3.46-2.302c1.328-0.56,2.763-0.838,4.3-0.838
		c2.346,0,4.379,0.6,6.1,1.797c1.72,1.199,2.957,2.802,3.714,4.809h-1.291c-0.729-1.693-1.851-3.016-3.362-3.968
		c-1.512-0.951-3.231-1.427-5.16-1.427c-1.355,0-2.619,0.249-3.792,0.743c-1.173,0.496-2.189,1.179-3.05,2.053
		c-0.859,0.873-1.53,1.902-2.013,3.088s-0.724,2.469-0.724,3.851s0.241,2.665,0.724,3.851c0.482,1.186,1.153,2.214,2.013,3.087
		c0.86,0.874,1.877,1.56,3.05,2.053c1.173,0.495,2.437,0.743,3.792,0.743c1.929,0,3.643-0.475,5.142-1.429
		c1.498-0.949,2.651-2.298,3.459-4.044h1.29c-0.808,2.059-2.085,3.688-3.83,4.886C166.477,47.35,164.456,47.951,162.163,47.951z"/>
	<path fill="#273F66" d="M195.314,27.621h-8.679V47.56h-1.251V27.621h-8.679V26.41h18.608V27.621z"/>
	<g>
		<path fill="none" stroke="#000000" stroke-width="0.123" stroke-miterlimit="10" d="M69.444,39.327"/>
		<g>
			<g>
				<path fill="#273F66" d="M75.063,51.718c-8.299-0.372-14.311-6.421-14.682-14.696c-0.371-8.273,6.949-14.384,14.684-14.731
					c8.29-0.372,14.336,6.967,14.683,14.696C90.119,45.261,82.799,51.371,75.063,51.718c-0.394,0.018-0.377,0.567,0.002,0.551
					c8.596-0.385,14.906-6.635,15.292-15.247c0.385-8.6-7.269-14.922-15.294-15.282c-8.586-0.385-14.931,7.208-15.292,15.247
					c-0.386,8.599,7.269,14.922,15.293,15.282C75.464,52.286,75.441,51.734,75.063,51.718z"/>
			</g>
		</g>
		<g>
			<g>
				<path fill="#3E5B84" d="M87.742,37.151c-0.136-5.214-3.069-9.701-7.81-11.892c-0.218-0.101-0.018,0.458,0.137,0.53
					c4.454,2.058,7.174,6.147,7.303,11.067C87.376,37.024,87.75,37.482,87.742,37.151L87.742,37.151z"/>
			</g>
		</g>
		<g>
			<g>
				<path fill="#3E5B84" d="M70.847,48.983c6.879,2.026,13.826-1.221,16.366-8.008c0.085-0.227-0.522-0.208-0.6-0.001
					c-2.382,6.365-8.767,9.661-15.37,7.714C71.048,48.631,70.513,48.885,70.847,48.983L70.847,48.983z"/>
			</g>
		</g>
		<g>
			<g>
				<path fill="#3E5B84" d="M62.27,37.014c0.117,4.576,2.397,8.542,6.286,10.953c0.284,0.177,0.728-0.154,0.387-0.365
					c-3.78-2.345-5.951-6.165-6.065-10.606C62.869,36.677,62.261,36.664,62.27,37.014L62.27,37.014z"/>
			</g>
		</g>
		<g>
			<g>
				<path fill="#3E5B84" d="M73.886,24.268c-4.546,0.502-8.319,3.15-10.361,7.238c-0.136,0.272,0.306,0.675,0.469,0.349
					c1.987-3.979,5.647-6.518,10.064-7.005C74.394,24.813,74.192,24.234,73.886,24.268L73.886,24.268z"/>
			</g>
		</g>
		<g>
			<g>
				<path fill="#4B6E8C" d="M76.952,46.645c-8.888,1.461-14.004-7.402-10.236-14.562c0.017-0.033-0.537-0.29-0.576-0.215
					c-4.299,8.168,2.868,16.4,11.36,15.006C77.441,46.883,77.119,46.617,76.952,46.645L76.952,46.645z"/>
			</g>
		</g>
		<g>
			<g>
				<path fill="#4B6E8C" d="M69.543,29.045c4.48-2.803,9.895-2.188,13.378,1.986c3.48,4.17,1.967,10.122-1.689,13.442
					c-0.139,0.126,0.248,0.603,0.372,0.49c9.392-8.531-1.669-23.142-12.434-16.408C69.029,28.644,69.384,29.145,69.543,29.045
					L69.543,29.045z"/>
			</g>
		</g>
		<g>
			<g>
				<path fill="#5584A3" d="M70.696,43.441c6.377,3.797,14.007-2.254,11.612-9.329c-0.045-0.132-0.585,0.139-0.523,0.322
					c2.222,6.563-4.542,12.259-10.617,8.641C71.019,42.987,70.543,43.35,70.696,43.441L70.696,43.441z"/>
			</g>
		</g>
		<g>
			<g>
				<path fill="#5584A3" d="M79.063,30.369c-6.205-3.432-13.176,1.997-11.445,8.84c0.079,0.312,0.657,0.369,0.562-0.008
					c-1.619-6.4,4.823-11.608,10.71-8.351C79.242,31.045,79.379,30.544,79.063,30.369L79.063,30.369z"/>
			</g>
		</g>
		<g>
			<g>
				<path fill="#68A5BA" d="M75.154,41.789c-5.337,0.154-6.171-6.417-2.385-8.906c2.488-1.635,5.748-0.172,6.779,2.454
					c0.709,1.807-0.034,3.766-1.279,5.103c-0.122,0.131,0.368,0.496,0.512,0.341c4-4.295-0.771-10.581-6.005-8.525
					c-5.583,2.192-2.528,10.097,2.743,9.946C75.766,42.193,75.332,41.784,75.154,41.789L75.154,41.789z"/>
			</g>
		</g>
		<g>
			<path fill="#80D0DE" d="M77.56,37.004c0-1.384-1.113-2.497-2.496-2.497s-2.496,1.113-2.496,2.497
				c0,1.383,1.113,2.496,2.496,2.496S77.56,38.387,77.56,37.004z"/>
		</g>
		<g>
			<circle fill="#80D0DE" cx="80.781" cy="32.335" r="0.366"/>
		</g>
		<g>
			<circle fill="#80D0DE" cx="79.635" cy="45.87" r="0.366"/>
		</g>
		<g>
			<circle fill="#80D0DE" cx="63.006" cy="34.273" r="0.433"/>
		</g>
		<g>
			<circle fill="#80D0DE" cx="77.111" cy="24.727" r="0.366"/>
		</g>
	</g>
</g>
</svg>
