<?xml version="1.0" encoding="UTF-8"?>
<!-- Generator: Adobe Illustrator 15.0.0, SVG Export Plug-In . SVG Version: 6.00 Build 0)  -->
<svg width="190" height="34" enable-background="new 0 0 190 35" version="1.1" viewBox="5.5 19 190 36.5" xml:space="preserve" xmlns="http://www.w3.org/2000/svg" xmlns:cc="http://creativecommons.org/ns#" xmlns:dc="http://purl.org/dc/elements/1.1/" xmlns:rdf="http://www.w3.org/1999/02/22-rdf-syntax-ns#"><metadata><rdf:RDF><cc:Work rdf:about=""><dc:format>image/svg+xml</dc:format><dc:type rdf:resource="http://purl.org/dc/dcmitype/StillImage"/><dc:title/></cc:Work></rdf:RDF></metadata>
<g fill="#273f66">
	<path d="m21.659 47.56-7.584-10.204-7.585 10.204h-1.446l8.288-11.064-7.467-10.047h1.447l6.763 9.147 6.841-9.147h1.407l-7.466 10.007 8.249 11.104z"/>
	<path d="m41.226 26.058c1.56 0 2.998 0.279 4.312 0.838 1.313 0.561 2.438 1.327 3.375 2.302 0.937 0.976 1.671 2.134 2.205 3.474 0.533 1.34 0.799 2.79 0.799 4.352 0 1.561-0.266 3.004-0.799 4.331-0.534 1.328-1.269 2.478-2.205 3.454-0.937 0.977-2.062 1.742-3.375 2.303-1.313 0.559-2.751 0.84-4.312 0.84-2.159 0-4.077-0.527-5.755-1.581s-2.959-2.479-3.843-4.274v12.929h-1.29v-28.539h1.009l0.242 5.502c0.884-1.793 2.165-3.23 3.843-4.312 1.677-1.079 3.609-1.619 5.794-1.619zm-0.08 20.68c1.379 0 2.646-0.24 3.804-0.724 1.157-0.482 2.159-1.159 3.004-2.034 0.846-0.872 1.508-1.902 1.99-3.087 0.481-1.185 0.722-2.482 0.722-3.89s-0.241-2.705-0.722-3.89c-0.482-1.186-1.144-2.215-1.99-3.089-0.845-0.873-1.847-1.551-3.004-2.033-1.158-0.482-2.425-0.724-3.804-0.724-1.352 0-2.613 0.249-3.784 0.743-1.17 0.496-2.185 1.179-3.043 2.053-0.859 0.873-1.529 1.902-2.01 3.088s-0.721 2.469-0.721 3.851 0.24 2.665 0.721 3.851 1.151 2.214 2.01 3.087c0.858 0.874 1.873 1.56 3.043 2.053 1.171 0.497 2.432 0.745 3.784 0.745z"/>
	<path d="m115.56 26.41v21.15h-1.252v-10.361h-14.308v10.361h-1.251v-21.15h1.251v9.578h14.308v-9.578z"/>
	<path d="m142.66 26.449v21.11h-1.251v-18.765l-14.464 18.766h-0.782v-21.11h1.25v18.725l14.504-18.725h0.743z"/>
	<path d="m162.16 47.951c-1.537 0-2.964-0.281-4.28-0.84-1.316-0.561-2.463-1.326-3.44-2.303-0.978-0.976-1.738-2.126-2.287-3.454-0.547-1.327-0.82-2.77-0.82-4.331 0-1.562 0.266-3.011 0.801-4.352 0.534-1.34 1.29-2.498 2.268-3.474s2.13-1.742 3.46-2.302c1.328-0.56 2.763-0.838 4.3-0.838 2.346 0 4.379 0.6 6.1 1.797 1.72 1.199 2.957 2.802 3.714 4.809h-1.291c-0.729-1.693-1.851-3.016-3.362-3.968-1.512-0.951-3.231-1.427-5.16-1.427-1.355 0-2.619 0.249-3.792 0.743-1.173 0.496-2.189 1.179-3.05 2.053-0.859 0.873-1.53 1.902-2.013 3.088s-0.724 2.469-0.724 3.851 0.241 2.665 0.724 3.851c0.482 1.186 1.153 2.214 2.013 3.087 0.86 0.874 1.877 1.56 3.05 2.053 1.173 0.495 2.437 0.743 3.792 0.743 1.929 0 3.643-0.475 5.142-1.429 1.498-0.949 2.651-2.298 3.459-4.044h1.29c-0.808 2.059-2.085 3.688-3.83 4.886-1.75 1.2-3.771 1.801-6.064 1.801z"/>
	<path d="m195.31 27.621h-8.679v19.939h-1.251v-19.939h-8.679v-1.211h18.608v1.211z"/>
	</g>
		<path d="m69.444 39.327" fill="none" stroke="#000" stroke-miterlimit="10" stroke-width=".123"/>
				<path d="m75.063 51.718c-8.299-0.372-14.311-6.421-14.682-14.696-0.371-8.273 6.949-14.384 14.684-14.731 8.29-0.372 14.336 6.967 14.683 14.696 0.371 8.274-6.949 14.384-14.685 14.731-0.394 0.018-0.377 0.567 2e-3 0.551 8.596-0.385 14.906-6.635 15.292-15.247 0.385-8.6-7.269-14.922-15.294-15.282-8.586-0.385-14.931 7.208-15.292 15.247-0.386 8.599 7.269 14.922 15.293 15.282 0.4 0.017 0.377-0.535-1e-3 -0.551z" fill="#273f66"/>
				<path d="m87.742 37.151c-0.136-5.214-3.069-9.701-7.81-11.892-0.218-0.101-0.018 0.458 0.137 0.53 4.454 2.058 7.174 6.147 7.303 11.067 4e-3 0.168 0.378 0.626 0.37 0.295z" fill="#3e5b84"/>
				<path d="m70.847 48.983c6.879 2.026 13.826-1.221 16.366-8.008 0.085-0.227-0.522-0.208-0.6-1e-3 -2.382 6.365-8.767 9.661-15.37 7.714-0.195-0.057-0.73 0.197-0.396 0.295z" fill="#3e5b84"/>
				<path d="m62.27 37.014c0.117 4.576 2.397 8.542 6.286 10.953 0.284 0.177 0.728-0.154 0.387-0.365-3.78-2.345-5.951-6.165-6.065-10.606-9e-3 -0.319-0.617-0.332-0.608 0.018z" fill="#3e5b84"/>
				<path d="m73.886 24.268c-4.546 0.502-8.319 3.15-10.361 7.238-0.136 0.272 0.306 0.675 0.469 0.349 1.987-3.979 5.647-6.518 10.064-7.005 0.336-0.037 0.134-0.616-0.172-0.582z" fill="#3e5b84"/>
				<path d="m76.952 46.645c-8.888 1.461-14.004-7.402-10.236-14.562 0.017-0.033-0.537-0.29-0.576-0.215-4.299 8.168 2.868 16.4 11.36 15.006-0.059 9e-3 -0.381-0.257-0.548-0.229z" fill="#4b6e8c"/>
				<path d="m69.543 29.045c4.48-2.803 9.895-2.188 13.378 1.986 3.48 4.17 1.967 10.122-1.689 13.442-0.139 0.126 0.248 0.603 0.372 0.49 9.392-8.531-1.669-23.142-12.434-16.408-0.141 0.089 0.214 0.59 0.373 0.49z" fill="#4b6e8c"/>
				<path d="m70.696 43.441c6.377 3.797 14.007-2.254 11.612-9.329-0.045-0.132-0.585 0.139-0.523 0.322 2.222 6.563-4.542 12.259-10.617 8.641-0.149-0.088-0.625 0.275-0.472 0.366z" fill="#5584a3"/>
				<path d="m79.063 30.369c-6.205-3.432-13.176 1.997-11.445 8.84 0.079 0.312 0.657 0.369 0.562-8e-3 -1.619-6.4 4.823-11.608 10.71-8.351 0.352 0.195 0.489-0.306 0.173-0.481z" fill="#5584a3"/>
				<path d="m75.154 41.789c-5.337 0.154-6.171-6.417-2.385-8.906 2.488-1.635 5.748-0.172 6.779 2.454 0.709 1.807-0.034 3.766-1.279 5.103-0.122 0.131 0.368 0.496 0.512 0.341 4-4.295-0.771-10.581-6.005-8.525-5.583 2.192-2.528 10.097 2.743 9.946 0.247-9e-3 -0.187-0.418-0.365-0.413z" fill="#68a5ba"/>
			<path d="m77.56 37.004c0-1.384-1.113-2.497-2.496-2.497s-2.496 1.113-2.496 2.497c0 1.383 1.113 2.496 2.496 2.496s2.496-1.113 2.496-2.496z" fill="#80d0de"/>
			<circle cx="80.781" cy="32.335" r=".366" fill="#80d0de"/>
			<circle cx="79.635" cy="45.87" r=".366" fill="#80d0de"/>
			<circle cx="63.006" cy="34.273" r=".433" fill="#80d0de"/>
			<circle cx="77.111" cy="24.727" r=".366" fill="#80d0de"/>
</svg>
