<?xml version="1.0" encoding="utf-8"?>
<!-- Generator: Adobe Illustrator 15.0.0, SVG Export Plug-In . SVG Version: 6.00 Build 0)  -->
<!DOCTYPE svg PUBLIC "-//W3C//DTD SVG 1.1//EN" "http://www.w3.org/Graphics/SVG/1.1/DTD/svg11.dtd">
<svg version="1.1" id="Layer_1" xmlns="http://www.w3.org/2000/svg" xmlns:xlink="http://www.w3.org/1999/xlink" x="0px" y="0px"
	 width="198.43px" height="85.04px" viewBox="0 0 198.43 85.04" enable-background="new 0 0 198.43 85.04" xml:space="preserve">
<rect x="-0.087" y="17.74" opacity="0.65" fill="#FFFFFF" width="198.425" height="40.01"/>
<g>
	<g>
		<path fill="none" stroke="#000000" stroke-width="0.1253" stroke-miterlimit="10" d="M89.82,41.2"/>
		<g>
			<g>
				<path fill="#273F66" d="M95.544,53.823c-8.455-0.379-14.58-6.541-14.958-14.971c-0.378-8.429,7.079-14.655,14.959-15.008
					c8.446-0.379,14.606,7.098,14.958,14.972C110.883,47.245,103.425,53.47,95.544,53.823c-0.402,0.018-0.384,0.578,0.002,0.561
					c8.757-0.393,15.186-6.759,15.58-15.532c0.393-8.761-7.405-15.203-15.582-15.57c-8.748-0.392-15.211,7.344-15.579,15.534
					c-0.393,8.76,7.405,15.202,15.581,15.568C95.953,54.402,95.929,53.84,95.544,53.823z"/>
			</g>
		</g>
		<g>
			<g>
				<path fill="#3E5B84" d="M108.5,38.995c-0.141-5.324-3.188-9.854-8.006-12.082c-0.298-0.138,0.018,0.382,0.162,0.449
					c4.562,2.109,7.259,6.318,7.391,11.311C108.051,38.839,108.507,39.235,108.5,38.995L108.5,38.995z"/>
			</g>
		</g>
		<g>
			<g>
				<path fill="#3E5B84" d="M91.505,51.093c6.909,2.037,13.827-1.232,16.373-8.04c0.084-0.225-0.451-0.535-0.521-0.347
					c-2.47,6.601-9.149,9.987-15.959,7.979C91.003,50.568,91.28,51.026,91.505,51.093L91.505,51.093z"/>
			</g>
		</g>
		<g>
			<g>
				<path fill="#3E5B84" d="M82.506,38.815c0.121,4.699,2.448,8.715,6.435,11.188c0.271,0.168,0.687-0.157,0.339-0.373
					c-3.826-2.374-6.033-6.288-6.148-10.778C83.124,38.545,82.499,38.515,82.506,38.815L82.506,38.815z"/>
			</g>
		</g>
		<g>
			<g>
				<path fill="#3E5B84" d="M94.344,25.857c-4.631,0.512-8.475,3.21-10.555,7.375c-0.139,0.278,0.312,0.688,0.478,0.355
					c2.024-4.053,5.753-6.641,10.253-7.138C94.861,26.413,94.656,25.823,94.344,25.857L94.344,25.857z"/>
			</g>
		</g>
		<g>
			<g>
				<path fill="#4B6E8C" d="M97.458,48.69c-8.834,1.442-14.295-7.522-10.407-14.906c0.007-0.013-0.559-0.245-0.608-0.15
					c-4.415,8.383,2.958,16.633,11.596,15.222C97.962,48.869,97.633,48.661,97.458,48.69L97.458,48.69z"/>
			</g>
		</g>
		<g>
			<g>
				<path fill="#4B6E8C" d="M89.92,30.724c4.566-2.853,10.081-2.23,13.631,2.024c3.544,4.248,2.003,10.313-1.721,13.696
					c-0.142,0.128,0.253,0.613,0.379,0.498c9.569-8.692-1.699-23.57-12.668-16.717C89.396,30.315,89.758,30.826,89.92,30.724
					L89.92,30.724z"/>
			</g>
		</g>
		<g>
			<g>
				<path fill="#5584A3" d="M91.212,45.45c6.56,3.909,14.164-2.208,11.708-9.444c-0.119-0.35-0.652-0.297-0.521,0.091
					c2.287,6.738-4.795,12.524-10.94,8.863C91.108,44.751,90.907,45.27,91.212,45.45L91.212,45.45z"/>
			</g>
		</g>
		<g>
			<g>
				<path fill="#5584A3" d="M99.62,32.073c-6.318-3.494-13.429,2.035-11.661,9.007c0.081,0.318,0.669,0.376,0.572-0.008
					c-1.654-6.521,4.917-11.824,10.912-8.509C99.802,32.762,99.941,32.251,99.62,32.073L99.62,32.073z"/>
			</g>
		</g>
		<g>
			<g>
				<path fill="#68A5BA" d="M95.636,43.708c-5.437,0.154-6.288-6.537-2.43-9.073c2.535-1.667,5.856-0.176,6.907,2.5
					c0.722,1.84-0.035,3.837-1.304,5.2c-0.124,0.133,0.375,0.504,0.521,0.347c4.074-4.376-0.785-10.78-6.119-8.686
					c-5.69,2.234-2.574,10.284,2.795,10.133C96.259,44.12,95.818,43.703,95.636,43.708L95.636,43.708z"/>
			</g>
		</g>
		<g>
			<path fill="#80D0DE" d="M98.089,38.834c0-1.41-1.133-2.544-2.543-2.544c-1.409,0-2.542,1.134-2.542,2.544
				c0,1.409,1.132,2.542,2.542,2.542C96.956,41.376,98.089,40.243,98.089,38.834z"/>
		</g>
		<g>
			<circle fill="#80D0DE" cx="101.37" cy="34.077" r="0.373"/>
		</g>
		<g>
			<circle fill="#80D0DE" cx="100.202" cy="47.867" r="0.373"/>
		</g>
		<g>
			<circle fill="#80D0DE" cx="83.26" cy="36.051" r="0.441"/>
		</g>
		<g>
			<circle fill="#80D0DE" cx="97.631" cy="26.326" r="0.373"/>
		</g>
	</g>
	<path fill="#273F66" d="M16.108,49.985c-1.568,0-3.021-0.284-4.362-0.854c-1.341-0.571-2.509-1.353-3.505-2.347
		c-0.995-0.994-1.772-2.167-2.33-3.519c-0.559-1.352-0.837-2.822-0.837-4.414c0-1.589,0.272-3.067,0.817-4.433
		c0.543-1.365,1.314-2.544,2.31-3.539c0.996-0.994,2.17-1.775,3.525-2.346c1.354-0.57,2.813-0.854,4.381-0.854
		c2.39,0,4.461,0.611,6.213,1.832c1.753,1.222,3.014,2.854,3.784,4.899h-1.314c-0.744-1.726-1.886-3.073-3.425-4.043
		c-1.54-0.968-3.292-1.454-5.257-1.454c-1.381,0-2.669,0.253-3.864,0.757c-1.194,0.505-2.23,1.202-3.105,2.091
		c-0.876,0.89-1.56,1.938-2.051,3.146c-0.492,1.208-0.737,2.517-0.737,3.923c0,1.408,0.245,2.715,0.737,3.923
		c0.491,1.208,1.175,2.257,2.051,3.146c0.875,0.891,1.911,1.587,3.105,2.091c1.195,0.505,2.483,0.757,3.864,0.757
		c1.965,0,3.71-0.484,5.237-1.453c1.527-0.97,2.702-2.344,3.525-4.123h1.314c-0.823,2.098-2.124,3.758-3.903,4.979
		C20.502,49.375,18.444,49.985,16.108,49.985z"/>
	<path fill="#273F66" d="M44.307,27.602c1.301,0,2.47,0.226,3.504,0.677c1.036,0.452,1.919,1.075,2.649,1.872
		c0.73,0.796,1.294,1.759,1.693,2.887c0.398,1.129,0.597,2.396,0.597,3.804v12.746h-1.274V37.081c0-2.575-0.651-4.594-1.952-6.054
		c-1.301-1.46-3.121-2.19-5.457-2.19c-1.089,0-2.132,0.219-3.127,0.657c-0.995,0.438-1.865,1.036-2.609,1.792
		s-1.334,1.626-1.772,2.608c-0.438,0.983-0.657,2.032-0.657,3.147v12.546h-1.274V20.432h1.274v12.506
		c0.77-1.566,1.905-2.848,3.405-3.843C40.809,28.1,42.475,27.602,44.307,27.602z"/>
	<path fill="#273F66" d="M73.859,28v1.235h-1.911c-1.115,0-2.138,0.206-3.067,0.618c-0.93,0.412-1.726,0.982-2.39,1.712
		c-0.665,0.731-1.175,1.6-1.534,2.608c-0.358,1.01-0.537,2.111-0.537,3.306v12.109h-1.275V28.08h1.036l0.199,4.859
		c0.664-1.514,1.646-2.714,2.948-3.604c1.3-0.889,2.867-1.334,4.7-1.334H73.859z"/>
	<path fill="#273F66" d="M130.407,27.602c1.302,0,2.47,0.226,3.506,0.677s1.919,1.083,2.648,1.892
		c0.73,0.81,1.294,1.779,1.692,2.907c0.397,1.128,0.599,2.384,0.599,3.764v12.746h-1.275V37.081c0-2.575-0.65-4.594-1.952-6.054
		c-1.301-1.46-3.12-2.19-5.455-2.19c-1.09,0-2.133,0.219-3.128,0.657c-0.995,0.438-1.865,1.036-2.608,1.792
		c-0.744,0.757-1.334,1.626-1.772,2.608c-0.438,0.983-0.656,2.032-0.656,3.147v12.546h-1.275V28.054h1.036l0.198,5.005
		c0.743-1.594,1.873-2.901,3.386-3.924C126.863,28.113,128.55,27.602,130.407,27.602z"/>
	<path fill="#273F66" d="M148.968,21.069h1.872v2.23h-1.872V21.069z M149.248,28.08h1.273v21.508h-1.273V28.08z"/>
	<path fill="#273F66" d="M167.527,49.985c-2.416,0-4.34-0.558-5.774-1.672c-1.434-1.116-2.229-2.655-2.39-4.621h1.234
		c0.187,1.62,0.883,2.868,2.092,3.744c1.207,0.877,2.833,1.314,4.879,1.314c2.071,0,3.723-0.438,4.958-1.314
		c1.234-0.876,1.853-2.071,1.853-3.585c0-0.929-0.199-1.686-0.598-2.27c-0.397-0.584-0.929-1.049-1.592-1.395
		c-0.666-0.345-1.422-0.61-2.271-0.796s-1.712-0.359-2.587-0.518c-0.932-0.16-1.848-0.339-2.75-0.538
		c-0.903-0.199-1.713-0.491-2.43-0.876s-1.294-0.903-1.732-1.554c-0.438-0.65-0.658-1.507-0.658-2.569
		c0-0.85,0.187-1.626,0.559-2.33c0.372-0.704,0.896-1.307,1.574-1.812c0.677-0.504,1.479-0.896,2.409-1.175
		c0.929-0.278,1.965-0.418,3.107-0.418c2.31,0,4.142,0.544,5.496,1.633c1.353,1.089,2.084,2.563,2.189,4.421h-1.273
		c-0.107-1.514-0.723-2.695-1.847-3.545c-1.127-0.849-2.667-1.274-4.627-1.274c-1.905,0-3.434,0.412-4.585,1.234
		c-1.152,0.823-1.728,1.912-1.728,3.266c0,0.797,0.179,1.448,0.538,1.952c0.357,0.504,0.843,0.91,1.454,1.214
		c0.61,0.306,1.314,0.539,2.11,0.698c0.797,0.159,1.634,0.318,2.509,0.478c0.929,0.159,1.873,0.346,2.829,0.558
		c0.955,0.213,1.817,0.538,2.588,0.975c0.771,0.438,1.396,1.023,1.873,1.753c0.477,0.73,0.717,1.693,0.717,2.887
		c0,0.93-0.193,1.772-0.577,2.529c-0.385,0.757-0.937,1.401-1.653,1.933s-1.574,0.942-2.569,1.234S168.75,49.985,167.527,49.985z"/>
	<path fill="#273F66" d="M195.051,48.353v1.235h-2.829c-1.99,0-3.557-0.578-4.7-1.732c-1.141-1.155-1.712-2.755-1.712-4.8V29.234
		h-4.979v-1.115h4.979v-6.373h1.275v6.373h7.806v1.115h-7.806v13.753c0,1.695,0.457,3.014,1.373,3.954
		c0.916,0.941,2.212,1.411,3.884,1.411H195.051z"/>
</g>
</svg>
