<?xml version="1.0" encoding="UTF-8"?>
<!-- Generator: Adobe Illustrator 15.0.0, SVG Export Plug-In . SVG Version: 6.00 Build 0)  -->
<svg width="190" height="34" enable-background="new 0 0 200 35" version="1.1" viewBox="5 20 190 36.5" xml:space="preserve" xmlns="http://www.w3.org/2000/svg" xmlns:cc="http://creativecommons.org/ns#" xmlns:dc="http://purl.org/dc/elements/1.1/" xmlns:rdf="http://www.w3.org/1999/02/22-rdf-syntax-ns#"><metadata><rdf:RDF><cc:Work rdf:about=""><dc:format>image/svg+xml</dc:format><dc:type rdf:resource="http://purl.org/dc/dcmitype/StillImage"/><dc:title/></cc:Work></rdf:RDF></metadata>
		<path d="m87.673 41.2" fill="none" stroke="#000" stroke-miterlimit="10" stroke-width=".1253"/>
				<path d="m93.397 53.823c-8.455-0.379-14.58-6.541-14.958-14.971-0.378-8.429 7.079-14.655 14.959-15.008 8.446-0.379 14.606 7.098 14.958 14.972 0.38 8.429-7.078 14.654-14.959 15.007-0.402 0.018-0.384 0.578 2e-3 0.561 8.757-0.393 15.186-6.759 15.58-15.532 0.393-8.761-7.405-15.203-15.582-15.57-8.748-0.392-15.211 7.344-15.579 15.534-0.393 8.76 7.405 15.202 15.581 15.568 0.407 0.018 0.383-0.544-2e-3 -0.561z" fill="#273f66"/><g fill="#3e5b84">
				<path d="m106.35 38.995c-0.141-5.324-3.188-9.854-8.006-12.082-0.298-0.138 0.018 0.382 0.162 0.449 4.562 2.109 7.259 6.318 7.391 11.311 4e-3 0.166 0.46 0.562 0.453 0.322z"/>
				<path d="m89.358 51.093c6.909 2.037 13.827-1.232 16.373-8.04 0.084-0.225-0.451-0.535-0.521-0.347-2.47 6.601-9.149 9.987-15.959 7.979-0.395-0.117-0.118 0.341 0.107 0.408z"/>
				<path d="m80.359 38.815c0.121 4.699 2.448 8.715 6.435 11.188 0.271 0.168 0.687-0.157 0.339-0.373-3.826-2.374-6.033-6.288-6.148-10.778-8e-3 -0.307-0.633-0.337-0.626-0.037z"/>
				<path d="m92.197 25.857c-4.631 0.512-8.475 3.21-10.555 7.375-0.139 0.278 0.312 0.688 0.478 0.355 2.024-4.053 5.753-6.641 10.253-7.138 0.341-0.036 0.136-0.626-0.176-0.592z"/>
				</g><path d="m95.311 48.69c-8.834 1.442-14.295-7.522-10.407-14.906 7e-3 -0.013-0.559-0.245-0.608-0.15-4.415 8.383 2.958 16.633 11.596 15.222-0.077 0.013-0.406-0.195-0.581-0.166z" fill="#4b6e8c"/>
				<path d="m87.773 30.724c4.566-2.853 10.081-2.23 13.631 2.024 3.544 4.248 2.003 10.313-1.721 13.696-0.142 0.128 0.253 0.613 0.379 0.498 9.569-8.692-1.699-23.57-12.668-16.717-0.145 0.09 0.217 0.601 0.379 0.499z" fill="#4b6e8c"/>
				<path d="m89.065 45.45c6.56 3.909 14.164-2.208 11.708-9.444-0.119-0.35-0.652-0.297-0.521 0.091 2.287 6.738-4.795 12.524-10.94 8.863-0.351-0.209-0.552 0.31-0.247 0.49z" fill="#5584a3"/>
				<path d="m97.473 32.073c-6.318-3.494-13.429 2.035-11.661 9.007 0.081 0.318 0.669 0.376 0.572-8e-3 -1.654-6.521 4.917-11.824 10.912-8.509 0.359 0.199 0.498-0.312 0.177-0.49z" fill="#5584a3"/>
				<path d="m93.489 43.708c-5.437 0.154-6.288-6.537-2.43-9.073 2.535-1.667 5.856-0.176 6.907 2.5 0.722 1.84-0.035 3.837-1.304 5.2-0.124 0.133 0.375 0.504 0.521 0.347 4.074-4.376-0.785-10.78-6.119-8.686-5.69 2.234-2.574 10.284 2.795 10.133 0.253-9e-3 -0.188-0.426-0.37-0.421z" fill="#68a5ba"/><g fill="#80d0de">
			<path d="m95.942 38.834c0-1.41-1.133-2.544-2.543-2.544-1.409 0-2.542 1.134-2.542 2.544 0 1.409 1.132 2.542 2.542 2.542s2.543-1.133 2.543-2.542z"/>
			<circle cx="99.223" cy="34.077" r=".373"/>
			<circle cx="98.053" cy="47.867" r=".373"/>
			<circle cx="81.113" cy="36.051" r=".441"/>
			<circle cx="95.484" cy="26.326" r=".373"/>
	</g><g fill="#273f66">
	<path d="m16.108 49.985c-1.568 0-3.021-0.284-4.362-0.854-1.341-0.571-2.509-1.353-3.505-2.347-0.995-0.994-1.772-2.167-2.33-3.519-0.559-1.352-0.837-2.822-0.837-4.414 0-1.589 0.272-3.067 0.817-4.433 0.543-1.365 1.314-2.544 2.31-3.539 0.996-0.994 2.17-1.775 3.525-2.346 1.354-0.57 2.813-0.854 4.381-0.854 2.39 0 4.461 0.611 6.213 1.832 1.753 1.222 3.014 2.854 3.784 4.899h-1.314c-0.744-1.726-1.886-3.073-3.425-4.043-1.54-0.968-3.292-1.454-5.257-1.454-1.381 0-2.669 0.253-3.864 0.757-1.194 0.505-2.23 1.202-3.105 2.091-0.876 0.89-1.56 1.938-2.051 3.146-0.492 1.208-0.737 2.517-0.737 3.923 0 1.408 0.245 2.715 0.737 3.923 0.491 1.208 1.175 2.257 2.051 3.146 0.875 0.891 1.911 1.587 3.105 2.091 1.195 0.505 2.483 0.757 3.864 0.757 1.965 0 3.71-0.484 5.237-1.453 1.527-0.97 2.702-2.344 3.525-4.123h1.314c-0.823 2.098-2.124 3.758-3.903 4.979-1.779 1.225-3.837 1.835-6.173 1.835z"/>
	<path d="m44.307 27.602c1.301 0 2.47 0.226 3.504 0.677 1.036 0.452 1.919 1.075 2.649 1.872 0.73 0.796 1.294 1.759 1.693 2.887 0.398 1.129 0.597 2.396 0.597 3.804v12.746h-1.274v-12.507c0-2.575-0.651-4.594-1.952-6.054s-3.121-2.19-5.457-2.19c-1.089 0-2.132 0.219-3.127 0.657s-1.865 1.036-2.609 1.792-1.334 1.626-1.772 2.608c-0.438 0.983-0.657 2.032-0.657 3.147v12.546h-1.274v-29.155h1.274v12.506c0.77-1.566 1.905-2.848 3.405-3.843 1.502-0.995 3.168-1.493 5-1.493z"/>
	<path d="m73.859 28v1.235h-1.911c-1.115 0-2.138 0.206-3.067 0.618-0.93 0.412-1.726 0.982-2.39 1.712-0.665 0.731-1.175 1.6-1.534 2.608-0.358 1.01-0.537 2.111-0.537 3.306v12.109h-1.275v-21.508h1.036l0.199 4.859c0.664-1.514 1.646-2.714 2.948-3.604 1.3-0.889 2.867-1.334 4.7-1.334h1.831z"/>
	<path d="m126.12 27.602c1.302 0 2.47 0.226 3.506 0.677s1.919 1.083 2.648 1.892c0.73 0.81 1.294 1.779 1.692 2.907 0.397 1.128 0.599 2.384 0.599 3.764v12.746h-1.275v-12.507c0-2.575-0.65-4.594-1.952-6.054-1.301-1.46-3.12-2.19-5.455-2.19-1.09 0-2.133 0.219-3.128 0.657s-1.865 1.036-2.608 1.792c-0.744 0.757-1.334 1.626-1.772 2.608-0.438 0.983-0.656 2.032-0.656 3.147v12.546h-1.275v-21.533h1.036l0.198 5.005c0.743-1.594 1.873-2.901 3.386-3.924 1.512-1.022 3.199-1.533 5.056-1.533z"/>
	<path d="m148.97 21.069h1.872v2.23h-1.872zm0.28 7.011h1.273v21.508h-1.273z"/>
	<path d="m167.53 49.985c-2.416 0-4.34-0.558-5.774-1.672-1.434-1.116-2.229-2.655-2.39-4.621h1.234c0.187 1.62 0.883 2.868 2.092 3.744 1.207 0.877 2.833 1.314 4.879 1.314 2.071 0 3.723-0.438 4.958-1.314 1.234-0.876 1.853-2.071 1.853-3.585 0-0.929-0.199-1.686-0.598-2.27-0.397-0.584-0.929-1.049-1.592-1.395-0.666-0.345-1.422-0.61-2.271-0.796s-1.712-0.359-2.587-0.518c-0.932-0.16-1.848-0.339-2.75-0.538-0.903-0.199-1.713-0.491-2.43-0.876s-1.294-0.903-1.732-1.554c-0.438-0.65-0.658-1.507-0.658-2.569 0-0.85 0.187-1.626 0.559-2.33s0.896-1.307 1.574-1.812c0.677-0.504 1.479-0.896 2.409-1.175 0.929-0.278 1.965-0.418 3.107-0.418 2.31 0 4.142 0.544 5.496 1.633 1.353 1.089 2.084 2.563 2.189 4.421h-1.273c-0.107-1.514-0.723-2.695-1.847-3.545-1.127-0.849-2.667-1.274-4.627-1.274-1.905 0-3.434 0.412-4.585 1.234-1.152 0.823-1.728 1.912-1.728 3.266 0 0.797 0.179 1.448 0.538 1.952 0.357 0.504 0.843 0.91 1.454 1.214 0.61 0.306 1.314 0.539 2.11 0.698 0.797 0.159 1.634 0.318 2.509 0.478 0.929 0.159 1.873 0.346 2.829 0.558 0.955 0.213 1.817 0.538 2.588 0.975 0.771 0.438 1.396 1.023 1.873 1.753s0.717 1.693 0.717 2.887c0 0.93-0.193 1.772-0.577 2.529-0.385 0.757-0.937 1.401-1.653 1.933s-1.574 0.942-2.569 1.234-2.104 0.439-3.327 0.439z"/>
	<path d="m195.05 48.353v1.235h-2.829c-1.99 0-3.557-0.578-4.7-1.732-1.141-1.155-1.712-2.755-1.712-4.8v-13.822h-4.979v-1.115h4.979v-6.373h1.275v6.373h7.806v1.115h-7.806v13.753c0 1.695 0.457 3.014 1.373 3.954 0.916 0.941 2.212 1.411 3.884 1.411h2.709z"/>
<path d="m141.31 47.22h1.872v2.23h-1.872z"/></g>
</svg>
