<?xml version="1.0" encoding="UTF-8"?>
<!-- Created with Inkscape (http://www.inkscape.org/) -->
<svg width="145" height="20.5" version="1.1" viewBox="" xmlns="http://www.w3.org/2000/svg">
 <g transform="matrix(.26363 0 0 .26363 -6.3758 -131.72)">
  <path d="m42.061 557.05c3.211 0 6.047-0.879 8.508-2.637s3.691-4.395 3.691-7.91h1.617l0.07 0.211c0.093 3.727-1.271 6.697-4.096 8.912s-6.088 3.322-9.791 3.322c-4.852 0-8.654-1.746-11.408-5.238s-4.131-8.086-4.131-13.781v-1.477c0-5.672 1.371-10.254 4.113-13.746s6.527-5.238 11.355-5.238c3.938 0 7.271 1.154 10.002 3.463 2.73 2.309 4.048 5.561 3.955 9.756l-0.07 0.211h-1.616c0-3.727-1.195-6.58-3.586-8.561s-5.286-2.971-8.684-2.971c-4.453 0-7.828 1.594-10.125 4.781-2.297 3.188-3.445 7.289-3.445 12.305v1.477c0 5.062 1.148 9.182 3.445 12.357 2.298 3.176 5.696 4.764 10.196 4.764z"/>
  <path d="m81.984 528.08c1.195-2.719 2.93-4.834 5.203-6.346s5.039-2.268 8.297-2.268c3.96 0 6.966 1.254 9.018 3.762 2.051 2.508 3.076 6.457 3.076 11.848v23.133h-1.934v-23.203c0-4.992-0.92-8.514-2.76-10.564-1.84-2.051-4.295-3.076-7.365-3.076-4.031 0-7.143 1.184-9.334 3.551-2.192 2.367-3.592 5.402-4.201 9.105v24.188h-1.898v-19.478h-0.07v-1.23c0-0.328 0.023-0.656 0.07-0.984v-33.152h1.898z"/>
  <path d="m150.67 521.54-2.461-0.211c-3.398 0-6.158 1.096-8.279 3.287-2.122 2.191-3.498 5.08-4.131 8.666v24.926h-1.898v-38.039h1.547l0.352 6.609v1.301c1.055-2.719 2.625-4.834 4.711-6.346s4.652-2.268 7.699-2.268c0.539 0 1.037 0.041 1.494 0.123s0.849 0.17 1.178 0.264z"/>
  <path d="m168.69 538.45c0-5.578 1.541-10.137 4.623-13.676s7.084-5.309 12.006-5.309c4.945 0 8.959 1.77 12.041 5.309s4.623 8.098 4.623 13.676v1.477c0 5.602-1.542 10.172-4.623 13.711-3.082 3.539-7.072 5.309-11.971 5.309-4.945 0-8.965-1.77-12.059-5.309s-4.641-8.109-4.641-13.711v-1.477zm1.898 1.477c0 4.781 1.336 8.83 4.008 12.146s6.27 4.975 10.793 4.975c4.453 0 8.016-1.664 10.688-4.992s4.008-7.371 4.008-12.129v-1.477c0-4.664-1.348-8.678-4.043-12.041s-6.27-5.045-10.723-5.045c-4.477 0-8.051 1.682-10.723 5.045s-4.008 7.377-4.008 12.041z"/>
  <path d="m227.1 520.17 0.246 7.664c1.172-2.648 2.859-4.705 5.062-6.17s4.91-2.197 8.121-2.197c4.148 0 7.26 1.307 9.334 3.92s3.111 6.756 3.111 12.428v22.395h-1.898v-22.465c0-5.273-0.944-8.988-2.83-11.145-1.887-2.156-4.447-3.234-7.682-3.234-3.985 0-7.031 1.16-9.141 3.48s-3.458 5.309-4.043 8.965v24.398h-1.898v-19.477h-0.105c0-0.445 5e-3 -0.896 0.018-1.354 0.012-0.457 0.041-0.92 0.088-1.389v-15.82h1.617z"/>
 </g>
 <g transform="matrix(.26363 0 0 .26363 -6.3758 -131.72)">
  <path d="m356.68 520.2 0.246 7.664c1.172-2.648 2.824-4.705 4.957-6.17s4.734-2.197 7.805-2.197c3.234 0 5.871 0.814 7.91 2.443s3.457 4.154 4.254 7.576c1.055-3.164 2.713-5.631 4.975-7.4s5.08-2.654 8.455-2.654c4.195 0 7.383 1.371 9.562 4.113s3.27 7.055 3.27 12.938v21.691h-1.934v-21.762c0-5.508-0.984-9.398-2.953-11.672s-4.594-3.41-7.875-3.41c-3.914 0-6.896 1.148-8.947 3.445s-3.369 5.273-3.955 8.93c0.023 0.469 0.047 0.943 0.07 1.424s0.035 0.967 0.035 1.459v21.621h-1.934v-19.477h-0.105c0-0.445 6e-3 -0.891 0.018-1.336s0.041-0.879 0.088-1.301c-0.07-5.391-1.078-9.193-3.023-11.408s-4.559-3.322-7.84-3.322c-3.867 0-6.814 1.119-8.842 3.357s-3.346 5.139-3.955 8.701v24.785h-1.934v-19.477h-0.07c0-0.328 6e-3 -0.656 0.018-0.984s0.029-0.738 0.053-1.23v-16.348h1.651z"/>
  <path d="m458.16 551.21c-1.313 2.297-3.27 4.166-5.871 5.607s-5.754 2.162-9.457 2.162c-3.539 0-6.316-0.967-8.332-2.9-2.017-1.934-3.023-4.541-3.023-7.822 0-3.188 1.506-5.859 4.518-8.016 3.011-2.156 6.779-3.234 11.303-3.234h10.863v-5.555c0-3.164-1.015-5.631-3.041-7.4-2.027-1.77-4.882-2.654-8.561-2.654-3.445 0-6.218 0.832-8.314 2.496-2.098 1.664-3.146 3.809-3.146 6.434l-1.582-0.07-0.07-0.176c-0.141-2.953 1.007-5.455 3.445-7.506s5.66-3.076 9.668-3.076c4.078 0 7.348 1.031 9.809 3.094s3.691 5.039 3.691 8.93v19.055c0 1.336 0.075 2.637 0.229 3.902 0.152 1.266 0.404 2.52 0.756 3.762h-2.109c-0.305-1.664-0.51-2.912-0.615-3.744s-0.158-1.729-0.158-2.689v-0.6zm-15.328 5.906c3.773 0 6.966-0.832 9.58-2.496 2.613-1.664 4.529-4.043 5.748-7.137v-8.543h-10.758c-3.938 0-7.26 0.908-9.967 2.725s-4.061 4.061-4.061 6.732c0 2.555 0.861 4.646 2.584 6.275s4.014 2.444 6.874 2.444z"/>
  <path d="m515.77 539.93c0 5.859-1.266 10.5-3.797 13.922s-6.024 5.133-10.477 5.133c-2.953 0-5.525-0.586-7.717-1.758s-3.92-2.766-5.186-4.781v20.426h-1.898v-25.031c-0.023-0.07-0.041-0.129-0.053-0.176-0.013-0.047-0.018-0.094-0.018-0.141v-15.469-0.053c0-0.012 0.022-0.088 0.07-0.229v-11.566h1.477l0.387 6.715c1.266-2.297 2.988-4.107 5.168-5.432s4.746-1.986 7.699-1.986c4.477 0 7.985 1.775 10.529 5.326 2.543 3.551 3.814 8.338 3.814 14.361v0.739zm-1.934-0.738c0-5.273-1.061-9.557-3.182-12.85-2.122-3.293-5.186-4.939-9.193-4.939-3.609 0-6.429 0.902-8.455 2.707-2.027 1.805-3.498 4.031-4.412 6.68v18.176c0.961 2.484 2.531 4.459 4.711 5.924s4.922 2.197 8.227 2.197c4.008 0 7.061-1.547 9.158-4.641s3.146-7.266 3.146-12.516z"/>
  <path d="m563.81 548.93c0-2.016-0.861-3.85-2.584-5.502s-4.729-2.947-9.018-3.885c-4.523-0.961-7.8-2.197-9.826-3.709-2.027-1.512-3.041-3.756-3.041-6.732 0-2.719 1.147-4.998 3.445-6.838 2.297-1.84 5.391-2.76 9.281-2.76 4.195 0 7.5 0.984 9.914 2.953 2.413 1.969 3.562 4.535 3.445 7.699l-0.07 0.211h-1.617c0-2.484-1.05-4.6-3.146-6.346-2.098-1.746-4.939-2.619-8.525-2.619-3.563 0-6.258 0.768-8.086 2.303s-2.742 3.311-2.742 5.326c0 1.992 0.773 3.691 2.32 5.098s4.617 2.637 9.211 3.691c4.241 0.984 7.458 2.326 9.65 4.025 2.191 1.699 3.287 4.072 3.287 7.119 0 2.977-1.219 5.391-3.656 7.242-2.438 1.852-5.673 2.777-9.703 2.777-4.43 0-7.905-0.99-10.424-2.971-2.52-1.98-3.697-4.389-3.533-7.225l0.07-0.211h1.547c0.188 3 1.477 5.168 3.867 6.504s5.215 2.004 8.473 2.004c3.516 0 6.305-0.82 8.367-2.461 2.061-1.639 3.094-3.537 3.094-5.693z"/>
 </g>
 <g transform="matrix(.26363 0 0 .26363 -6.3758 -131.72)" fill="none" stroke="#000" stroke-width=".8076">
  <polygon points="280.77 560.94 280.77 536.55 288.64 526.86 288.64 560.94"/>
  <polygon points="305.7 538.15 305.7 529.01 310.45 525.38 310.45 538.15"/>
  <rect x="318.32" y="515.96" width="4.745" height="11.909"/>
  <polygon points="272.89 543.9 280.77 543.9 280.77 560.94 272.89 567.64"/>
  <polygon points="323.07 508.99 330.94 508.99 330.94 515.02 323.07 523.73"/>
  <rect x="310.45" y="514.39" width="7.874" height="20.541"/>
  <rect x="288.64" y="531.53" width="9.187" height="22.281"/>
  <rect x="312.92" y="511.26" width="2.928" height="3.129"/>
  <rect x="297.83" y="516.26" width="7.875" height="29.479"/>
 </g>
 <g transform="matrix(.26363 0 0 .26363 -6.3758 -131.72)">
  <polygon points="296.47 567.57 272.77 568.15 299.19 544.02" fill="#fff" stroke="#000" stroke-width=".8076"/>
  <polygon points="290.8 551.68 299.19 544.02 296.47 567.57"/>
  <polygon points="319.13 557.81 283.14 558.68 323.26 522.04" fill="#fff" stroke="#000" stroke-width=".8076"/>
  <polygon points="310.52 533.67 323.26 522.04 319.13 557.81"/>
  <polygon points="328.65 538.19 304.95 538.76 331.37 514.63" fill="#fff" stroke="#000" stroke-width=".8076"/>
  <polygon points="322.98 522.29 331.37 514.63 328.65 538.19"/>
 </g>
 <g stroke-width=".26363">
  <rect x="65.956" y="12.336" width=".35484" height="1.0606"/>
  <rect x="66.834" y="14.267" width=".35484" height="1.06"/>
  <rect x="71.215" y="9.0295" width=".35484" height="1.0606"/>
  <rect x="71.215" y="10.688" width=".35484" height="1.0606"/>
  <rect x="68.088" y="10.09" width=".35484" height=".64456"/>
  <rect x="68.088" y="11.218" width=".35484" height=".64509"/>
  <rect x="68.088" y="12.336" width=".35484" height=".64509"/>
  <rect x="73.377" y="6.0334" width=".35458" height=".64483"/>
  <rect x="76.712" y="5.4695" width=".35484" height=".64483"/>
  <rect x="75.94" y="5.4695" width=".35484" height=".64483"/>
  <rect x="73.377" y="7.1517" width=".35458" height=".64483"/>
 </g>
 <g fill="none" stroke="#000">
  <g stroke-width=".2129">
   <line x1="69.799" x2="72.059" y1="15.527" y2="13.59"/>
   <line x1="71.577" x2="73.223" y1="15.409" y2="13.998"/>
   <line x1="73.223" x2="74.435" y1="15.409" y2="14.37"/>
   <line x1="75.283" x2="76.929" y1="10.265" y2="8.8544"/>
   <line x1="76.929" x2="78.142" y1="10.265" y2="9.2261"/>
  </g>
  <polyline transform="matrix(.26363 0 0 .26363 -6.3758 -131.72)" points="343.5 574.12 266.43 574.12 266.43 573.6 337.19 509.11 343.5 503.36 342.64 503.36 268.43 503.36" stroke-width="1.0232"/>
 </g>
 <circle cx="84.178" cy="19.636" r=".59316" stroke-width=".26363"/>
 <circle cx="64.39" cy=".98206" r=".59316" stroke-width=".26363"/>
</svg>
