<?xml version="1.0" encoding="utf-8"?>
<!-- Generator: Adobe Illustrator 21.0.0, SVG Export Plug-In . SVG Version: 6.00 Build 0)  -->
<svg version="1.1" id="Layer_2_xA0_Изображение_1_"
	 xmlns="http://www.w3.org/2000/svg" xmlns:xlink="http://www.w3.org/1999/xlink" x="0px" y="0px" viewBox="0 0 624.5 617.8"
	 style="enable-background:new 0 0 624.5 617.8;" xml:space="preserve">
<g>
		<path d="M625,252.5c-0.2,0.7-0.5,1.4-0.5,2c-0.6,12.7-2.9,25.1-5.3,37.5c-1.5,7.6-2.9,15.2-4.5,22.8c-0.9,4.5-2.2,9-3.2,13.5
		c-2.1,8.5-4.1,17.1-6.2,25.6c-2.2,8.8-4.4,17.7-6.7,26.5c-2.7,10.8-5.4,21.5-8.4,32.2c-2,7.3-4.6,14.4-6.8,21.7
		c-1.3,4.3-2.1,8.7-3.1,13.1c-0.6,2.5-1.2,5-1.9,7.4c-1.6,5.7-3.1,11.4-4.8,17.1c-0.5,1.8-1.5,3.5-2.3,5.3c-0.6,1.5-1.7,2-3.3,1.7
		c-2-0.4-4.1-0.6-6.1-1.1c-5.3-1.5-10.7-1.7-16.1-2.6c-5.9-1-11.8-1.9-17.7-2.9c-7.5-1.3-15-2.5-22.4-3.9c-4.4-0.8-8.8-1.7-13.2-2.6
		c-9.2-1.8-18.3-3.7-27.5-5.5c-1.4-0.3-2.8-0.2-4.5-0.3c0.4,3.1,0.7,6,1.2,8.8c1.8,9.4,1.6,18.8,0.6,28.2
		c-0.9,9.4-1.9,18.8-2.8,28.1c-0.3,3.6-0.3,7.2-0.4,10.8c-0.2,4.9-0.6,9.7-0.7,14.6c-0.1,4.6-0.2,9.1,0,13.7c0,1.2,1,2.5,1.8,3.5
		c3.2,3.8,6.6,7.4,10.5,10.5c2.1,1.6,4,3.4,6,5.2c1.3,1.2,2.6,1.9,4.4,2.3c4.2,1,8.1,3,11.8,5.3c2.6,1.6,3.4,4.2,3.1,7.5
		c-0.3,3.5-2.2,5.6-4.6,7.5c-3.8,3-8.2,4.4-13,3.9c-6.7-0.7-13.4-1.3-19.8-3.6c-2.4-0.9-4.6-2-6.2-3.9c-2.7-3.3-6.3-4.4-10.3-4.9
		c-1.6-0.2-3.2-0.4-4.8-0.5c-1.8-0.2-3-1-3.7-2.7c-0.7-1.7-1.3-3.4-0.9-5.3c0.1-0.5,0.2-1.1,0-1.6c-1.2-4.3-0.7-8.6,0.6-12.8
		c1.1-3.6,1.2-7.2,1-10.9c-0.2-2.8-0.3-5.6-0.4-8.4c-0.3-6.2-0.3-12.5-1.1-18.7c-0.6-5.2-2.1-10.3-3.4-15.4
		c-0.6-2.5-1.5-4.9-2.3-7.3c-0.9-2.7-2-5.1-4-7.3c-2.2-2.3-3.3-5.2-4-8.3c-1.6-7.3-1.3-14.5,0.6-21.6c1.1-4.2,2.5-8.4,3.5-12.7
		c1.7-7,0.8-13.6-3-20.1c-0.6,1-1.1,1.7-1.5,2.5c-3.5,7.7-7.7,14.9-12.1,22c-4,6.5-8.6,12.5-12.9,18.7c-2.9,4.2-5.8,8.2-9.1,12
		c-1.7,1.9-4,1.8-5.4,0.4c-1.4-1.4-2.7-3-3.7-4.7c-1.7-3.2-3.3-6.6-4.7-10c-2.6-6.6-4.8-13.4-6.4-20.3c-1.9-8.1-3.9-16.1-5.9-24.2
		c-0.1-0.5-0.3-1-0.6-1.9c-0.4,0.8-0.7,1.3-0.9,1.7c-1.9,3.3-3.6,6.6-5.6,9.7c-3,4.7-6.3,9.2-9.5,13.9c-1.2,1.7-1.9,3.5-1.9,5.6
		c0.1,4.6,0.3,9.3,0.5,13.9c0.2,3.1,0.5,6.2,0.8,9.3c0.2,2.8-0.2,5.4-1.2,8c-1.6,4.1-3,8.2-5.6,11.9c-2.2,3.1-3.1,6.8-3.7,10.5
		c-0.9,5-1.8,10.1-2.6,15.1c-1.3,8.4-3,16.8-3.1,25.4c0,2.5,0.2,5,0.5,7.4c0.3,2.3-0.1,4.5-1,6.6c-0.3,0.7-0.5,1.3-0.9,2
		c-3,5.1-2.9,10.5-1.1,15.8c1.3,3.9,0.9,7.5-0.5,11.2c-0.6,1.6-1,3.2-1.8,4.7c-2.2,4.6-5.9,6.8-11.1,7.1c-5.3,0.3-10.1-1.6-14.9-3.1
		c-2.6-0.8-5.1-2-7.6-3.1c-3.3-1.4-5.5-3.6-5.3-7.5c0.1-2.4,0.2-4.8,0.5-7.1c0.1-0.9,0.8-1.8,1.4-2.4c1.4-1.3,3-2.4,4.4-3.6
		c0.1-0.1,0.2-0.2,0.4-0.3c2.1-1,1.5-4.5,4.5-4.7c1.3-1.8,2.6-3.6,3.8-5.5c0.9-1.3,1.3-2.7,1.1-4.3c-0.5-4.1,1.1-7.9,2.5-11.6
		c1-2.9,1.5-5.8,1.6-8.9c0.2-8.9-0.8-17.7-1.8-26.5c-0.4-3.2-0.5-6.4-0.7-9.6c-0.2-2-0.2-4-0.5-6c-1-7.2-0.4-14.4-0.1-21.6
		c0.2-3.7,0.5-7.5,1-11.2c0.6-5.1,2.1-10,4-14.8c2.4-5.9,5.1-11.7,7.6-17.6c1.1-2.5,1.7-5.1,1.9-7.9c0.1-3.1,0.5-6.2,1.3-9.2
		c0.4-1.7,0.4-3.7,0-5.4c-0.6-2.4-1.5-4.7-2.7-6.9c-1.5-2.7-1.2-5.2-0.3-7.8c0.2-0.7,0.5-1.4,0.8-2c0.9-1.8,1.1-3.6,1-5.6
		c-0.1-1.6,0.2-3.4,0.8-4.9c1.8-5.4,3.1-10.8,2-16.5c-0.7-3.7,0.9-6.9,2.3-10.1c1.4-3,2.6-6,2.6-9.4c0-1.6,0.4-3.2,0.7-4.7
		c0.3-1.5,0.2-2.9-0.5-4.2c-1.5-2.8-1.1-5.4,0.7-7.9c1-1.4,1.8-2.8,2.7-4.3c1.7-2.9,2.1-6.1,1.6-9.4c-0.2-1.3,0-2.7,0.2-4
		c0.2-1.5,0.6-3,0.6-4.5c0.1-4.5,2.3-7.7,6.2-9.8c1-0.6,1.3-1.3,1.7-2.4c1.1-3.6,1-7.1-0.3-10.7c-0.8-2.4-0.4-4.7,1.9-6.4
		c1.5-1.1,2-2.9,2.2-4.7c0.3-2.1,0.3-4.3,0.3-6.5c0.1-2,0.1-4,0.2-6c0-1.6,0.3-3.1-0.8-4.8c-1.2-1.7,0-5.1,1.7-6.4
		c2.3-1.8,2.4-3.3,1.1-5.9c-1.3-2.5-1-5.1,0.1-7.6c0.2-0.5,0.9-0.8,1.5-1.1c0.6-0.3,1.3-0.5,2-0.7c1.4-0.6,2-1.6,2.1-3.1
		c0.2-3,0.3-6.1,0.8-9.1c0.3-2.1,1.3-4.1,1.8-6.2c1.1-4.3,0.6-8.6,0-12.9c-0.3-2.1-1-4-1.9-5.8c-2.5-4.8-5-9.7-6.9-14.7
		c-1.6-4.5-2.4-9.3-3.6-13.9c-0.1-0.6-0.3-1.2-0.4-1.9c-1.7,0.7-2.9,1.6-3.6,3.2c-0.8,1.9-1.6,3.9-3.9,4.6c-0.4,0.1-0.7,1-0.9,1.5
		c-1.6,3.6-3.1,7.4-5,10.9c-1.2,2.4-3,4.5-4.6,6.7c-3,4.1-6,8.1-9,12.1c-2.6,3.6-4,7.8-5.2,12.1c-0.8,3-1.5,6.1-2.4,9
		c-1.2,3.8-3.1,7.4-5.3,10.7c-1.1,1.6-2.1,3.2-3.2,4.8c-5.8,8.2-11.5,16.5-19,23.5c-1.6,1.5-3.2,3.1-4.8,4.7
		c-0.5,0.5-0.9,1.1-1.2,1.8c-2.3,5-4.6,10-6.8,15.1c-0.2,0.6-0.4,1.2-0.3,1.8c0.7,4.3,0.4,8.6-1,12.8c-0.1,0.2,0,0.5,0,0.9
		c1.4,0.7,2.9,1.5,4.4,2.2c6.5,3.1,13,6.2,19.5,9.3c1.4,0.7,1.8,1.2,1.5,2.9c-0.5,3.2-0.9,6.3-1.7,9.4c-1.1,4.6-2.4,9.1-3.7,13.6
		c-0.1,0.5-0.3,0.9-0.6,1.3c-1.4,2.1-3.8,2-4.9-0.3c-0.6-1.2-0.9-2.6-1.3-3.9c-0.6-2-1.5-3.8-2.9-5.5c-2.8-3.4-5.9-6.5-9.6-9
		c-2.2-1.5-4.4-3.1-6.6-4.7c-0.7,0.5-1.2,0.8-1.6,1.1c-1.8,1.5-3.7,1.6-5.8,0.4c-0.5-0.3-1.2-0.7-1.7-0.7c-2.2,0-3.9-0.7-4.9-2.2
		c-1.8,0.2-3.3,0.5-4.9,0.5c-1.4,0-2.6-0.7-3.5-1.9c-0.8-1-1.9-1.7-3.2-1.7c-3.8,0-7.1-2.9-6-8.1c-1.5-1.8-3.4-1.5-5.2-0.5
		c-1.6,0.9-3.1,2-4.7,3c-1-1.2-1.4-2.6-1.1-4c0.5-2.3-0.4-3.4-2.4-4.4c-7.6-4-15-8.5-22.7-12.4c-6.6-3.3-13.4-6-20.1-9
		c-3.5-1.6-7-3.2-10.5-4.8c-0.6-0.3-1.2-0.5-1.8-0.8c-6.9-2.9-10.5,1.6-11.7,6.3c-0.3,1.1-0.3,2.2-0.6,3.3c-0.4,1.7-0.8,2-2.5,2
		c-10.4,0-20.7-0.7-30.8-3.7c-6.3-1.8-12.5-3.8-18.6-6.2c-7.3-2.8-14-6.6-20.4-11c-8-5.6-15.6-11.8-22.7-18.4
		c-16.1-15-29.1-32.3-38.3-52.3c-3.7-8.1-6.3-16.6-7.7-25.4c-0.1-0.5,0-1.1,0-1.8c0.8,0.3,1.5,0.4,2.2,0.7c4.9,2.1,10,3.9,14.8,6.3
		c4.2,2.2,8.1,5.1,12.2,7.6c0.8,0.5,0.7,1.3,0.8,2.1c0.3,3.3,0.2,6.6,1,9.7c1.7,6.7,4.3,13,7.9,19c5.9,10,14,18,22.6,25.6
		c6.1,5.4,12.9,9.7,20,13.7c3.9,2.2,8.2,3.9,12.4,5.6c5.2,2.1,10.4,4.1,15.7,5.8c5.7,1.8,11.6,2.2,17.6,1.9c4-0.2,7-2,8.9-5.5
		c0.6-1,1.2-2.1,1.9-3.1c0.8-1.1,1.7-1.6,3.3-1.3c9.3,2.2,18.3,5.2,26.8,9.5c4.1,2,8.3,3.7,12.4,5.7c5.7,2.7,11.4,5.5,17.1,8.1
		c4.8,2.2,9.7,4.2,14.5,6.2c1,0.4,2.1,0.4,3,0.6c1.6-1.7,1-4.5,4-5c1.1,3,2.8,5.6,6.2,6.8c0.7-0.5,1.5-1.2,2.4-1.7
		c3.5-2.5,7.1-4.9,10.6-7.4c4.3-3,7.1-7.3,9.2-12c1.5-3.3,2.5-6.7,3.1-10.3c0.9-5.4,3.2-10.3,5.4-15.4c1.6-3.8,3.9-7.2,5.8-10.7
		c3.7-6.8,8.5-13,12.5-19.6c1.7-2.7,3.2-5.6,4.5-8.5c0.7-1.6,1-3.5,1.3-5.3c1.1-7.4,2-14.9,4.7-22c1.6-4.3,3.9-8.1,7.1-11.3
		c1.2-1.2,1.8-2.4,1.8-4.2c0-2.6,0.7-5.1,3.1-6.7c1.1-0.7,1.2-1.8,1.2-3c0.3-5.9,1.1-11.8,2.4-17.6c1.5-6.8,4.6-12.9,8.9-18.4
		c1.7-2.2,3.6-4.3,5.5-6.3c3.7-4.1,8.6-5.6,13.9-6.4c1.9-0.3,3.2-0.8,4.4-2.4c2.8-3.5,6.3-6.1,10.2-8.3c3.8-2.1,7.7-4,11.5-5.9
		c0.9-0.5,1.7-1,2.8-1.7c-3-2.7-1.6-6-1.8-9.1c0-0.6,0.1-1.3,0.2-1.9c0.2-2-0.1-3.8-1.8-5.4c-1.3-1.2-2.2-2.9-3.1-4.5
		c-0.3-0.6-0.4-1.5-0.3-2.3c1.4-8.4,3.5-16.6,6-24.7c2.9-9.3,5.6-18.7,8.3-28c1.4-4.8,3.9-8.7,8.2-11.4c3.1-2,6.1-4.2,9.3-6
		c6.1-3.4,12.8-4.1,19.5-2.7c2.8,0.6,5.3,2.1,8,3.3c2.1,1,4.2,2,6.2,3.1c2.6,1.5,4.5,3.7,6.3,6.1c4.8,6.5,7.2,14.2,9.9,21.7
		c0.9,2.6,1.6,5.4,2.3,8.1c2.5,9.2,4.9,18.4,7.3,27.6c0.1,0.5,0.3,1.1,0.5,1.6c0.8,1.7,0.6,3.2-0.2,4.8c-2.2,4.5-3.8,9.1-4.4,14.1
		c-0.3,2.2-1.8,3.3-3.7,4.2c0.4,0.4,0.6,0.7,0.9,0.8c5.1,2.3,9.4,5.8,13.6,9.3c3.5,2.9,7.4,5,11.6,6.6c4.7,1.8,9.2,4.1,12.9,7.6
		c2.2,2.1,4.1,4.4,5.4,7.3c2.1,4.9,3.6,9.9,4.3,15.2c0.7,5.5,1.4,11,1,16.5c-0.3,3.8-0.8,7.6-1.2,11.4c-0.1,1-0.3,2.1-0.3,3.1
		c0.1,0.8,0.5,1.5,1,2.6c3.8-3.2,7.2-6.2,10.6-9.2c0.7-0.6,1.4-1.4,2.3-1.7c4.6-2,8.9-4.7,13.7-6.3c6.5-2.1,13.1-3.5,19.9-4.3
		c8.1-1,16.1-1.1,24.1,0.5c3.7,0.7,7.2,2,10.8,3c1.2,0.3,2.3,0.7,3.4,1.1c8.5,2.3,16.1,6.5,22.8,11.9c4.5,3.6,8.2,8.3,11.8,12.9
		c3.6,4.6,6.7,9.6,9.6,14.6c2.2,3.9,3.9,8,5.6,12.2c1.3,3.1,2.5,6.2,3.2,9.5c1.1,4.9,2.2,9.8,1.9,14.9c0,0.9,0.3,1.8,0.4,2.7
		C625,243.2,625,247.8,625,252.5z M539.6,219c-0.5-0.8-1.1-1.6-1.3-2.4c-0.3-0.8-0.3-1.7-0.2-2.6c0.2-5.3,0.5-10.7,0.8-16
		c0.1-1.5,0.6-3.1,0.2-4.5c-0.6-2.1-0.8-4.2-0.7-6.4c0.1-0.8-0.3-1.2-1.4-0.9c0,1.8,0.1,3.7,0,5.6c-0.5,7-0.8,14.1-1.6,21
		c-0.7,6.2-1.8,12.3-2.8,18.5c-0.2,1.3-0.5,2.6-1.7,3.6c0.3-5.2,0.6-10.5,1-15.7c-1.3,2.6-1.3,5.6-3.3,8.4c-0.1-1.4-0.3-2.4-0.3-3.3
		c0.1-2.6,0.2-5.1,0.6-7.6c0.9-6,0.9-7.2-0.5-11.8c-0.2,0.7-0.3,1.5-0.3,2.3c0,2.2-0.1,4.3,0,6.5c0.1,3.1-0.5,6-1.7,8.9
		c-1.1,2.4-1.4,4.8-1,7.4c0.4,2.4,0.5,5,0.3,7.4c-0.5,3.9-1.4,7.7-2.1,11.5c-0.1,0.7-0.2,1.6-1.5,2c-0.1-0.9-0.3-1.7-0.2-2.4
		c0.2-1.6,0.3-3.2,0.7-4.7c1.1-4.8,1.9-9.6,0.8-14.5c-0.7-2.8,0.1-5.2,1.2-7.6c1.2-2.7,1.6-5.5,1.6-8.4c0-4.9-0.7-9.9,0-14.8
		c0.3-2.3,0.4-4.6,0.6-6.9c0-0.5-0.1-1-0.2-1.7c-2.6,2.5-2.8,2.8-2.9,4.2c-0.4,4.5-0.7,8.9-1.1,13.4c-0.2,2.2-0.5,4.5-0.8,6.7
		c-0.1,0-0.3,0-0.4,0c-0.2-0.4-0.5-0.9-0.9-1.6c-1.1,3.4-0.2,7.1-2.6,10.2c-0.5-1.3-0.9-2.3-1.3-3.2c-1.2,4.7-0.6,9.6-2.3,14.2
		c-0.4-1.3-0.6-2.5-0.6-3.8c0-3.9-0.1-7.8,0.2-11.8c0.1-2.4-1-4.1-2-6.5c-0.3,1.7-0.4,2.9-0.7,4c-0.4,1.4-0.7,2.8-1.5,4
		c-1.3,2.2-2.3,4.3-0.3,6.7c0.6,0.8,1,1.8,1.4,2.8c1.3,3.4,2.6,6.9,4,10.5c0,0,0.3,0.1,0.6,0.2c3.1,1.5,4,3.2,3.8,6.9
		c0,0.5,0.1,1.1,0.4,1.6c1.9,4.2,3.9,8.4,5.8,12.6c0.2,0.4,0.6,0.6,1,1.1c0.8-4,1.4-7.7,2.2-11.4c0.8-3.6,1.2-7.3,3-11.1
		c0.8,2.6,0.7,4.9,0.4,7.1c-0.7,6.1-1.6,12.2-3.7,18c-0.4,1.2-0.3,2.2,0.5,3.1c0.5,0.6,1.2,1,1.9,1.3c2.5,1.1,3.3,2.6,2.9,5.3
		c-0.1,0.4-0.2,0.7-0.3,1.3c0.6,0.3,1.2,0.6,2,1c0.2-1.4,0.5-2.5,0.5-3.6c0-0.5-0.3-1.3-0.7-1.6c-1.8-1.4-2.2-3.2-2.1-5.3
		c0.1-1.1,0.2-2.2,0.3-3.3c0.7-9.5,1.4-19,3.1-28.3C537.2,229.3,538.5,224.1,539.6,219c0.2,0,0.8,0.1,0.8,0.3
		c0.1,0.6,0.1,1.3,0.1,1.9c-0.6,6.6-1.2,13.2-1.8,19.8c-0.2,2.7-0.8,5.4-0.6,8.6c1.3-2.7,1-5.5,2.7-7.6c0.2,2.6,0.2,5.1-0.1,7.6
		c-0.6,4.6-0.8,9.2-0.7,13.9c0,0.8-0.1,1.7,1.2,1.8c0.1-0.2,0.3-0.4,0.5-0.7c1.1-1.7,1.2-3.6,1.5-5.5c0.7-4.9,1.6-9.8,2.3-14.7
		c0.1-0.5,0-1.1-0.1-1.6c-0.1-0.7-0.6-1.3-0.6-2c0.1-2.9-0.1-5.9,0.4-8.8c1.1-6.7,2.5-13.3,3.7-20c1-5.8,1.9-11.7,2.8-17.5
		c0.3-1.7,0.5-3.4,0.8-5.1c-0.2,0-0.3-0.1-0.5-0.1c-0.2,0.4-0.4,0.8-0.5,1.2c-1.1,6.1-2.2,12.3-3.4,18.4c-0.7,3.5-1.5,7-2.4,10.5
		c-0.4,1.7-0.9,3.4-2.5,5c-0.4-6.9,1-13.2,1.8-19.6c-1.1,1.3-2.5,2.5-2.9,4.1C541,212.1,540.4,215.6,539.6,219z M9.5,193.3
		c0.9,0.3,1.8,0.5,2.7,0.9c5.3,2.1,9.2,6.1,13.3,9.8c0,0,0,0,0,0c-0.6-0.2-1.3-0.4-2.2-0.7c-0.3,6.6-0.8,13.1-0.2,19.5
		c0.6,6.6,3,12.4,7.5,17.5c5,5.7,9.9,11.5,15.3,16.9c5.3,5.3,10.9,10.1,17,14.3c3.9,2.7,7.7,5.4,11.7,7.9c4.6,2.8,9.2,5.4,14,7.8
		c3.4,1.7,7.1,2.9,10.6,4.3c9.4,3.7,19,6.6,29.2,7.4c3.6,0.3,7.3-0.1,11-0.2c0.1-0.6,0.1-0.9,0.1-1.2c0.2-2.1,0.1-4.3,0.6-6.4
		c0.9-3.7,2.7-5,6.5-5.1c0.4,0,0.8,0,1.2,0c4.9,0,9.2,2,13.5,3.9c8.8,4.1,17.6,8.4,26.4,12.5c8,3.7,15.9,7.4,23.5,11.9
		c0.6,0.4,1.4,0.6,2.1,0.9c0.8-3.7,1.5-7.1,2.2-10.4c-4.5-2.1-8.8-4-13.1-6c-4.3-2-8.7-4-13-6.2c-7.6-3.8-15.2-7.9-22.8-11.7
		c-7.2-3.6-14.7-6.2-22.5-8.1c-0.8-0.2-1.5-0.3-2.1-0.5c-1.5,2.9-2.9,5.6-4.3,8.3c-0.7,1.3-1.7,2.2-3,2.6c-1.7,0.4-3.4,0.9-5.1,1.1
		c-6.2,0.6-12.3-0.1-18.3-1.5c-7.6-1.8-15-4.5-22.1-7.9c-8-3.8-15.4-8.5-22.3-14c-6.3-4.9-12.4-10.2-17.5-16.3
		c-6.6-8-12.3-16.5-16.4-26.1c-2.3-5.3-3.7-10.9-4.2-16.7c-0.1-1-0.3-1.7-1.1-2.3c-2.5-1.9-4.9-3.9-7.5-5.5
		c-2.6-1.6-5.4-2.8-8.1-4.2c-2.9-1.5-5.8-3.1-9-4.8c2.8,12.7,7.7,24.3,14.4,35.1c-0.1-0.8-0.3-1.5-0.6-2.2c-1.7-3.9-3.4-7.7-5-11.7
		c-1.1-2.8-2.1-5.7-2.9-8.6c-0.5-1.5-0.5-3.2-0.8-5.3C8.9,193,9.2,193.2,9.5,193.3c-1.2,0.2-1,0.9-0.7,1.7
		c3.7,9.2,7.4,18.5,11.1,27.8c0.2,0.5,0.6,1,0.9,1.5c0.2,0,0.3-0.1,0.5-0.1c-0.4-7.3,0.3-14.5,1.8-21.7c-2.8-1.9-5.5-3.6-8.1-5.4
		C13,195.9,11.3,194.6,9.5,193.3z M354.6,191.5c0.4-0.2,0.5-0.2,0.5-0.2c0.8,0.2,1.6,0.4,2.3,0.5c5.3,1.1,10.5,1.2,15.5-1.1
		c3.8-1.8,7.3-4.4,10.3-7.3c2.5-2.4,5-4.9,7.5-7.4c0.9-0.8,2-1.4,2.8-2.2c6.3-6.2,16.5-4.6,22,0c1.5,1.2,2.9,2.5,4.5,3.6
		c2.8,2,5.4,4.3,7.3,7.2c0.5,0.8,1.2,1.5,1.8,2.2c1.5,1.7,3.2,1.8,5.2,1.1c1.9-0.7,3.4-2.1,4.7-3.6c2.8-3.3,3.9-7.4,5.3-11.5
		c0.2-0.6,0.2-1.2,0.3-1.8c-0.3-0.1-0.4-0.3-0.6-0.3c-0.6,0-1.3-0.1-1.9-0.1c-4.7,0.1-9.2-0.8-13.6-2.4c-4.3-1.6-8.6-2.9-13-4.3
		c-7.7-2.5-15.4-2.5-23,0.5c-3.1,1.2-6.1,2.7-9.3,3.9c-6,2.3-12.3,3.6-18.8,2.9c-2.3-0.2-4.6-0.6-6.9-0.8c-4-0.4-7.2-2.4-10.3-4.8
		c-0.7-0.5-1.2-1.3-1.6-2.1c-0.3-0.5-0.2-1.1-0.3-1.8c0.5-0.1,0.8-0.2,1-0.1c0.4,0.1,0.8,0.2,1.1,0.4c3.9,2.4,8.1,4,12.8,4.4
		c5.1,0.4,10.1,0.7,15.2-0.6c4.6-1.2,8.9-3.1,13.2-5.1c3.5-1.6,6.9-3.3,9.8-5.9c2.2-2,3.1-4.6,3-7.5c0-1-0.1-1.9-0.2-2.9
		c-0.4-6.8-0.7-13.6-2.5-20.2c-0.1-0.4,0-0.8,0-1.2c1.4-0.3,2.2,0.2,2.6,1.5c0.4,1.6,0.9,3.1,1.1,4.7c0.6,5.2,1,10.5,1.5,15.7
		c0.2,2.5,1,4.9,2.6,6.8c3.5,4.2,7.8,7,13.1,8.3c1.8,0.5,3.6,0.9,5.3,1.4c4.8,1.3,9.6,2.6,14.3,3.9c1.5,0.4,2.8,0.2,4.2-0.2
		c2-0.7,3.5-2.2,5-3.7c3.3-3.4,5.3-7.2,4.9-12.2c-0.5-5.8-2-11.3-4.5-16.6c-1.4-3-2.9-6.1-4.3-9.1c-0.4-0.8-0.8-1.7,0.1-3
		c0.8,1.2,1.6,2,2.2,3c5.3,8.7,10,17.7,14.1,27c1.3,3,3.1,5.6,5.5,7.7c3.7,3.4,7.4,6.8,11.2,10.1c0.8,0.7,1.5,1.3,2.5,2.1
		c0.2-0.6,0.5-0.9,0.5-1.3c0.3-4.5,1.1-9.1,0.8-13.6c-0.5-6.4-1.5-12.7-2.7-19c-0.8-4.1-2-8.1-5.1-11.2c-3.3-3.3-7.2-5.8-11.4-7.8
		c-3.3-1.5-6.7-3.1-10-4.7c-0.8-0.4-1.5-1-2.1-1.5c-2.2-2-4.2-4.2-6.4-6.1c-2.5-2.2-5.4-3.9-8.7-4.8c-0.4,0.7-0.7,1.2-1,1.8
		c-0.9-0.4-1.7-0.7-2.9-1.2c0.8,1.1,1.3,1.7,1.6,2.4c0.2,0.6,0.3,1.5,0.1,2c-0.2,0.4-1.1,0.4-1.8,0.5c-0.7,0.7-1.5,1.5-2.4,2.4
		c0,0.6,0,1.4,0,2.4c-0.8-0.4-1.4-0.7-1.7-0.8c-0.7,0.4-1.4,1.1-1.8,0.9c-0.6-0.2-1-1.1-1.5-1.7c-1,0.4-2,0.9-3.1,1.1
		c-0.9,0.2-1.9,0.2-2.8,0c-0.8-0.1-1.4-0.7-1.1-1.8c0.3,0,0.5-0.1,0.7-0.1c0.6-0.1,1.5,0,1.6-0.3c0.2-0.6,0.1-1.4-0.1-2
		c-0.2-0.6-0.8-1.2-1.2-1.7c-2.9,0.6-2.9,0.6-4.2-0.8c2-1.3,2-1.7-0.2-3.4c-0.2,0.9-0.4,1.7-0.7,2.6c-1.1,2.9-2.3,5.8-3.5,8.6
		c-0.4,1-1.2,1.8-2.9,1.7c0.9-2.4,1.8-4.7,2.6-7.1c1.3-3.9,2.8-7.7,3.5-11.7c0.5-3.1,1.3-5.9,3.1-8.4c1.3-2,0.8-3.8-0.1-6.2
		c-2.8,3.1-5.3,5.8-7.7,8.6c-0.4,0.4-0.3,1.3-0.2,2c1.1,5.8,0.1,11.4-1.7,17c-0.5,1.4-1.4,2.3-2.9,2.6c-0.8,0.1-1.2,0.5-1.5,1.2
		c-0.6,1.2-1.4,1.5-2.6,0.8c-0.7-0.4-1.3-1.1-1.8-1.8c-2.8-3.4-4.1-7.6-5.9-11.5c-0.1-0.3,0-0.7,0.1-1.6c1,0.7,1.8,1.1,2.2,1.7
		c1.3,1.8,2.5,3.7,3.6,5.6c0.9,1.5,1.8,2.9,3.2,4.5c0.1-1.9,0.3-3.3,0.3-4.8c0.1-1,0.1-1.9,0-2.9c-0.2-4.4-2.7-6.9-7.2-7
		c-1,0-2.1-0.2-3.1-0.1c-2.9,0.3-4.9-1.1-6.6-3.2c-1-1.2-2-2.4-3-3.6c-0.2,0.4-0.2,0.6-0.1,0.7c4,7,7.3,14.4,12.2,20.9
		c0.6,0.8,1.2,1.7,0.4,3c-0.9-0.6-1.7-1-2.4-1.6c-0.9-0.9-1.7-1.9-2.3-3.1c-2.4-4.3-4.8-8.7-7.2-13c-0.4-0.7-0.8-1.4-1.2-2.1
		c-0.1,0.1-0.2,0.1-0.3,0.2c0.3,2.7,0.6,5.3,0.9,8c0.8,0.3,1.4,0.5,2,0.7c0,0.1,0,0.3,0,0.4c-0.8,0.3-1.7,0.6-2.7,0.9
		c0.8,0.5,1.4,1,2.4,1.6c-1.2,1.1-2.3,2-3.6,3.2c0.7,0.6,1.5,1.3,2.6,2.3c-0.9,0.3-1.6,0.8-1.9,0.6c-1.3-0.8-2.7-0.1-3.9-0.4
		c-0.4,0.6-0.7,1-1,1.4c-0.5-0.2-1-0.4-1.6-0.6c-0.2,0.7-0.4,1.4-0.6,2.1c0.6,0.2,0.9,0.4,1.3,0.4c3.9,0.9,7.9,1,11.9,0.3
		c2.5-0.4,4.8-0.4,7.2,0.7c2.4,1.1,4.9,1.7,7.7,1.6c2.4-0.1,4.6-0.6,6.8-1.4c1.9-0.7,3.8-1.4,5.8-1.5c5.8-0.3,11.7-0.4,17.5-0.4
		c3.6,0,6.8,1.5,9.8,3.3c-0.5,0.2-0.9,0.3-1.4,0.2c-5.9-1.1-11.8-0.3-17.7,0.3c-4.5,0.5-8.7,2.1-12.9,3.5c-5,1.7-10,2.3-15,0.2
		c-2-0.9-4.1-1.3-6.3-1.1c-4.8,0.4-9.5-0.4-14.2-1.7c-6.3-1.8-12.7-2.5-19.2-0.8c-0.3,0.1-0.7,0-1.2-0.1c0.6-1.4,1.5-1.9,2.6-2.1
		c1.6-0.4,3.1-0.7,4.7-0.9c3.4-0.4,6.8-0.7,10-1c0-1.8,0-3.6,0-5.6c-0.9,0.5-1.5,1-2.3,1.4c-0.3-1.2-0.6-2.1-0.8-3
		c-1.2,3.9-2.4,5.2-4.9,4.3c1.8-1.2,1.6-2.5,0.6-4.1c-1-1.7-1.6-3.5-1.4-5.5c0-0.3-0.2-0.5-0.3-0.8c-1.9,1.1-3.6,2.1-5.3,3
		c-3.2,1.6-6.5,3.1-9.7,4.7c-3.2,1.6-5.9,3.8-8.3,6.4c-0.3,0.3-0.4,0.9-0.9,1.8c1.3-0.4,2-0.6,2.7-0.8c1.8-0.4,3.6-0.9,5.4-1.2
		c1-0.2,2.1-0.1,2.7,1.2c-0.5,0.2-0.9,0.4-1.3,0.5c-1.6,0.4-3.3,0.7-4.9,1.3c-4,1.6-8.1,2.4-12.3,3.1c-1.5,0.2-3.1,0.4-4.4,1
		c-3.8,1.7-7.3,4-9.8,7.5c-0.9,1.2-1.9,2.3-2.8,3.6c-3.2,4.5-5.8,9.3-6.7,15c-1.1,7.1-1.3,14.2-0.9,21.3c0,0.6,0.2,1.2,0.3,2
		c5-2,9.7-4.3,14.6-5.7c5-1.4,10.3-1.8,15.8-2.7c0-2.1,0-4.2,0.1-6.4c0.1-2.2-1.5-4.2-0.8-6.7c1.2,0.7,1.5,1.8,1.7,2.7
		c1.2,4.8,2.6,9.6,3.6,14.4c0.5,2.4,0.3,4.9,0.2,7.4c-0.2,4.2-0.2,8.5,0.7,12.7c2.1,10.6,6.7,20.1,12.1,29.4c2.7,4.7,5,9.5,6,14.8
		c0.6,2.9,1.2,5.8,1.7,8.7c0.1,0.3-0.1,0.6-0.2,1.2c-2.7-2.4-4-5.6-6.5-7.9c-1.1,3.1-2.2,5.9-3.1,8.8c-1.4,4.8-0.6,9.3,3.1,12.8
		c1.8,1.8,4,3.3,6.2,4.4c4.6,2.3,9.3,4.3,13.9,6.4c2.3,1,4.6,2,6.9,2.6c3.5,1,7.1,1.8,10.9,1.1c3.2-0.6,6.5-1,9.7-1.5
		c1.6-0.2,3.1-0.3,4.8-0.5c0.1-0.9,0.3-1.8,0.4-2.6c0.1-0.6,0.1-1.5,0.9-1.4c0.5,0.1,1,0.7,1.2,1.2c0.4,0.9,0.5,2,0.8,3
		c3.4,0.2,6.5,0,9.5-1.4c2.3-1.1,4.2-2.6,6.2-4.1c2.8-2,4.3-4.7,5.1-7.9c1-4.3-0.8-7.7-3.2-11.1c-0.9,0.4-1.5,0.9-2.1,1.1
		c-1.7,0.6-3.3,1.2-5,1.5c-1.6,0.3-3.3,0.1-4.3-1.8c0.9-1.3,2.2-1.6,3.6-1.6c1.7-0.1,3.1-0.8,4.2-2c1.9-2,3.5-4.3,3.7-7.1
		c0.5-5.3-0.4-10.5-2.8-15.4c-0.5-1.1-1.3-1.7-2.6-1.8c-1.4-0.2-2.8-0.5-4.2-1c-0.9-0.3-2.1-0.9-1.7-2.2c0.4-1.2,1.7-0.8,2.5-0.6
		c5,0.9,9.7-0.1,14.2-2.3c0.8-0.4,1.5-0.7,2.2-0.1c0.8,0.5,1.1,1.3,1,2.3c-0.5,4.9-1.3,9.6-2.8,14.3c-0.6,1.8-0.7,3.8-0.6,5.7
		c0.2,4.3,1.2,8.5,3.2,12.4c0.6,1.1,0.9,2.4,1.3,3.6c1.1,3.6,1,7.1-0.7,10.5c-1,1.8-2.1,3.6-3.2,5.3c-0.2,0.4-0.3,0.8-0.5,1.3
		c3.4-0.6,8.3-4.7,9.1-7.6c0.2-0.8,0.2-1.7,0.2-2.6c0.1-2.9-1.3-5.4-2.4-7.9c-2.2-5-3.5-10.1-2.6-15.6c0.6-3.8,1.3-7.6,2.2-11.3
		c0.9-3.8,1.5-7.5,1.3-11.4c0-0.9,0-1.9-1-2.5c-3.9,2.5-3.9,2.5-5.4,1.2c0.7-0.8,1.6-1.6,2.2-2.5c1.4-2,2.8-4.1,3.9-6.3
		c0.6-1.1,1-2.5,0.3-3.8c-0.3,0-0.5,0-0.6,0c-5.3,2-9.9,0.9-13.7-3.3c-0.8-0.9-1.5-1.9-2.2-2.8c-1-1.2-2-2.5-3.2-3.6
		c-1.7-1.5-3.7-2.8-5.4-4.4c-3.1-3-6.9-4.5-11-5.6c-0.4-0.1-0.9,0-1.5,0.1c0.1,0.4,0.2,0.8,0.4,1c1.7,2.5,2.6,5.3,2.9,8.3
		c0.4,2.9,0.6,5.9,0.7,8.8c0.1,6.3,0.5,12.6-1,18.9c-0.4,1.6-0.5,3.3-0.5,5c0.3,8.5,0.7,17.1,1.1,25.6c0,0.2,0.1,0.5,0,0.7
		c-0.2,0.5-0.5,1-0.9,1.3c-0.3,0.2-0.9-0.1-1.3-0.4c-1-0.8-1.4-1.8-1.4-3.2c0-1.6,0-3.3-0.5-4.7c-1.4-4.4-1.9-8.9-1.8-13.5
		c0.1-2.8-0.2-5.5-1.5-7.9c-0.8-1.5-0.8-2.6,0.2-3.9c1.3-1.6,1.8-3.5,2.1-5.5c0.9-6.1,0.7-12.1-0.2-18.2c-0.2-1.2-0.5-2.4-0.9-3.5
		c-0.9-1.9-2.5-2.4-4.4-1.5c-0.4,0.2-0.8,0.5-1.2,0.8c-2.4,2-4.9,4.1-7.3,6.2c-1.5,1.3-2.8,2.7-4.3,3.8c-2.8,2.1-5.9,3.9-9.4,4.6
		c-5.3,1-10.4,0.1-15.2-2C357.1,193.1,356,192.3,354.6,191.5z M408.6,278.4c-7.1,1.5-13.7,2.8-20.3,4.2c0.9-0.9,1.9-1.6,3-2.1
		c5.4-2.5,11.2-2.9,17-3c0.3-2.4,0-5-0.9-6.8c-4-0.1-8.1,0.1-12.1,0.8c-5,0.9-9.7,2.5-14.4,4.5c-8.4,3.5-15,9.1-20,16.6
		c-3.8,5.6-5.8,11.9-6.7,18.5c-1,7.5-2.1,15.1-2.8,22.6c-0.6,7.2-1,14.4-0.8,21.6c0.2,8.2,1.1,16.4,1.7,24.6c1,13,3.3,25.8,6.1,38.6
		c0.7,3.1,1.3,6.3,1.9,9.4c0.3,1.7,0.5,3.5,0.8,5.2c2.1,10.1,4.5,20.1,7.1,30.1c2.2,8.7,5.3,17.1,9.2,25.2c1,2,2.4,3.9,3.8,6.2
		c0.4-0.7,0.6-1.1,0.7-1.4c1.2-4,2.2-8,3.5-12c0.8-2.3,0.2-4.3-0.9-6.3c-4.9-9-8.4-18.7-11-28.6c-3.9-14.8-7.4-29.6-8.9-44.9
		c-1.1-10.8-2-21.5-1.7-32.3c0.4-11.6,0.7-23.2,1-34.8c0-1.5,0.3-2.9,0.5-4.4c0.3,4.2,0.6,8.3,0.5,12.5c-0.1,4.7-0.6,9.4-0.6,14.1
		c0,9.8-0.1,19.5,0.3,29.3c0.3,7.6,1.2,15.1,2.3,22.6c1.5,10.6,3.7,21.1,6.4,31.5c2.8,10.7,6.3,21.1,11,31.2
		c0.5,1.1,1.2,2.2,1.7,3.2c0.7-1.2,1-2.2,1.1-3.3c0.4-3.8,1.7-7.5,0.2-11.3c-0.3-0.8-0.5-1.7-0.8-2.5c-1-3-2.1-5.9-2.9-8.9
		c-1.9-6.8-3.4-13.6-4.8-20.5c-2.9-14.7-4-29.5-4.4-44.3c-0.4-16.2-0.1-32.5-0.1-48.7c0-1.9,0.3-3.8,0.4-5.7
		c0.3,1.7,0.6,3.5,0.6,5.2c0.1,5.6,0.1,11.2,0.1,16.8c-0.1,21.5,0.1,43,3,64.4c1.7,12.6,4.3,25,8.2,37.2c0.5,1.6,1.1,3.1,1.6,4.6
		c0.3-0.1,0.5-0.2,0.5-0.2c0.6-4.3,2.6-8.4,1.5-12.9c-0.1-0.4,0-1,0.1-1.4c0.2-1.9,0.4-3.8,0.8-5.7c0.7-3.4,0.5-6.7-0.3-10
		c-2.4-9.7-3.5-19.6-4.5-29.6c-0.6-6-1-11.9-1.6-17.9c-0.8-8.1-0.7-16.3-0.2-24.4c0-0.5,0.3-1,0.4-1.4c-0.1,12.1,0.5,24.2,1.8,36.2
		c1.3,11.9,2.4,23.9,5.5,35.6c0.7-3.6,1.2-7.3,1.7-10.9c0.6-4.9,1.1-9.8,1.8-14.7c0.8-5.4,1.8-10.7,2.6-16.1
		c0.8-5.2,1.6-10.4,2.4-15.6c0.4-2.6,1-5.2,1.4-7.8c0.8-6.1,1.6-12.2,2.3-18.3c0.2-1.7,0.3-3.5,0.3-5.2c0-2.1-0.2-4.3-0.1-6.4
		c0.2-2.1,0.7-4.3,1.1-6.4c1.1-6.5,2.3-13.1,2.1-19.8c0-0.8-0.1-1.6-0.1-2.2c-0.4-0.1-0.5-0.2-0.7-0.2c-0.2,0-0.5,0-0.7,0
		c-8.3,1.5-13.8,6.3-16.7,14.1c-2.3,6.3-2.8,12.9-3.1,19.6c-0.1,2.5-0.6,4.9-0.9,7.4c-0.2,0-0.4,0-0.6-0.1
		c0.3-6.2,0.3-12.5,0.9-18.7c0.5-5,1.8-9.9,4.6-14.3c3.6-5.5,8.2-9.4,14.9-10.2c0.8-0.1,1.5-0.3,2.3-0.5c0.2-2.6,0.4-5.1,0.5-7.6
		c0-0.2-0.1-0.4-0.3-0.9c-17.7,1.4-27.3,12-32.1,28.6c0.1-4.6,0.9-8.6,2.9-12.3c2-3.6,4.5-6.8,7.4-9.7c2.9-3,6.4-5.2,10.3-6.5
		c3.8-1.3,7.9-1.8,12-2.6C408.6,285,408.6,281.9,408.6,278.4z M463.5,437.2c-0.8,2.4-1.1,4.5-2.2,6.2c-1.5,2.4-1.2,4.8-0.9,7.3
		c0.5,0.2,0.9,0.3,1.2,0.5c6.8,2.6,13.9,3.7,20.9,5.2c10.6,2.3,21.2,3.7,31.9,5.1c12.7,1.6,25.3,3.6,38,5.5c3.8,0.5,7.6,1,11.4,1.5
		c0.3-0.5,0.5-0.8,0.6-1.2c3.8-9.4,6.3-19.3,8.7-29.1c1.3-5.1,2.5-10.2,4-15.3c2.8-9.7,5.7-19.5,8.6-29.2c1.3-4.3,2.7-8.5,4-12.8
		c1.1-3.4,2.2-6.8,3.2-10.3c0.9-3.4,1.4-6.9,2.4-10.3c2.8-9.5,4.4-19.3,6.3-29c1.6-8.1,2.4-16.4,4.7-24.4c2.6-9.3,4.5-18.8,6.6-28.2
		c1.3-6.2,2.4-12.4,2.4-18.8c0-3.9-0.2-7.8,0-11.8c0.3-9.8-0.9-19.5-2.6-29.1c-0.6-3.1-1.1-6.4-2.5-9.2c-2.5-5-5.6-9.7-8.7-14.4
		c-2.2-3.3-4.7-6.5-7.1-9.7c-1.9-2.5-3.5-5.3-5.8-7.3c-3.9-3.4-8.1-6.5-12.4-9.4c-5.8-4.1-12.6-6.1-19.4-8.2
		c-10.1-3.1-20.4-2.5-30.7-1.3c-5.7,0.7-11.1,2.4-16.4,4.3c-0.9,0.3-1.9,0.7-3,1.1c1.2,1.9,3.2,3.1,3.2,5.4
		c-1.4,0.4-2.4-0.2-3.4-0.9c-2.4-1.8-6.1-1.6-8.8,0.9c-1.8,1.8-3.9,3.3-5.8,5c-1.4,1.2-2.7,2.5-4,3.7c-1,0.9-1,1.9-0.6,3
		c1.2,3.5,2.3,7,3.4,10.5c0.5,1.6,1,3.3,1.4,4.8c4.1,0,6.4-2.2,8.3-5.2c0.8-1.3,2.1-2.4,3.3-3.5c0.4-0.4,0.9-0.6,1.4-0.9
		c0.9-0.6,1.9-1.1,2.8-1.7c1.2-0.8,2.2-1.9,3.4-2.6c2.4-1.5,3-3.8,2.8-6.4c0-0.5-0.3-0.9-0.3-1.4c0-0.9,0.3-1.4,1.4-1.5
		c1.8,0,1.8-0.1,1.9-1.8c0.2-2.6,1.3-4.8,2.6-7.5c0,0.8,0.1,1.2,0.1,1.5c-0.1,1.4-0.2,2.9-0.3,4.3c-0.2,2.5,1.6,3.9,3.9,3
		c4.1-1.6,8-1.1,11.8,0.7c1.5,0.7,3.1,1.5,4.7,1.7c5.3,0.5,10.6,1.1,15.7,2.9c3,1.1,5.5-0.1,7.1-2.9c0.7-1.2,1.2-2.6,1.8-3.9
		c0.5-0.9,1.1-1.8,1.6-2.7c0.2,0.1,0.4,0.1,0.5,0.2c0.1,2.2,0.4,4.4-0.7,6.5c-1,1.9-2.3,3.7-3.6,5.9c1.4,0.4,2.8,0.8,4.2,1.1
		c2.2,0.4,4.2,1,5.7,2.7c0.4,0.5,1.2,0.7,1.8,1.1c1,0.6,2,1,2.9,1.7c0.6,0.5,1.1,1.2,1.3,1.9c0.7,2.1,3.6,3.1,5.4,1.8
		c1.4-1,2.8-1.8,4.3-2.5c1-0.5,2.2-0.6,3.1,0.6c-1.1,2.8-4.7,3-6.2,5.7c0.9,0.5,1.7,1,2.4,1.5c2.2,1.4,4.7,2.7,4.4,6.1
		c1.9-0.8,3.5-1.7,5.2-2.2c1.7-0.5,3.5-1,5.5,0.2c-3.2,3.2-7.6,3.5-10.7,6c2,5.4,4.1,10.7,6.1,16.1c1.1-0.1,2,0,2.8-0.2
		c1.3-0.3,2.5-0.7,3.7-1c1.1-0.3,2.2-0.6,3.2,0.3c-0.6,3-3.5,2.6-5.4,3.9c0,0.9,0.1,1.9,0.2,2.8c0.3,5.1,0.4,10.2-1.1,15.2
		c-0.3,1-0.5,2-0.5,3.1c0,1.7,1.3,2.7,3,2.6c1.2-0.1,2.4-0.3,3.6-0.3c0.9,0,1.8,0.2,2,1.4c-1.4,1.8-3.7,1-5.5,1.8c0,1.2,0,2.3,0,3.4
		c1.1,0.4,2.4-0.4,3.1,1c-0.6,1.4-1.9,1.5-3,1.7c-3.1,0.5-4.9,2.6-6,5.3c-1.3,2.9-2.4,5.9-3.5,8.9c-0.5,1.3-1.2,2.7-1.2,4.1
		c0,4.8,0.3,9.6,0.6,14.4c0.1,1.4,0.7,1.8,2.2,2c0.9,0.1,1.8,0.1,2.6,0.2c0.9,0.1,1.7,0.4,2,1.4c-0.9,2-2.8,1.3-4.3,1.8
		c-0.1,0.5-0.1,1-0.1,1.4c-0.1,7-2.2,13.2-7.8,17.9c-1.4,1.2-2.3,2.8-2.5,4.8c-0.5,5.1-1,10.2-1.7,15.2c-0.3,2.4-1.1,4.6-1.6,7
		c-0.5,2.6-1,5.2-1.3,7.8c-0.1,1.4,0.4,1.7,1.8,1.4c0.7-0.1,1.5-0.3,2.4-0.5c-0.2,1.5-0.9,2.4-2,2.9c-1,0.5-1.5,1.3-1.9,2.3
		c-1.7,3.5-1.4,7.3-1.7,11.1c-0.6,6.9-1.3,13.8-2,20.8c-0.3,3.2-1.7,5.9-3.7,8.5c-0.4,0.5-0.8,1.2-0.9,1.9c-0.3,2-0.4,4-0.5,6
		c-0.1,2.7-0.7,5.2-1.5,7.7c-0.8,2.3-1.5,4.7-2.1,7.1c-1,4.2-2.4,8.3-5.4,11.6c-0.5,0.5-0.9,1.2-1.2,1.8c-1.1,1.8-1.3,3.6,0.4,5.2
		c0.7,0.7,1.4,1.3,1.9,2.1c0.5,0.8,1,1.6,1.2,2.5c0.3,1.1,0.4,2.3,0.5,3.5c0.1,1.5,0.2,3,0.2,4.5c0,0.9-0.2,1.7-1.1,2.3
		c-1.8-2.5-0.5-5.7-2-8.2c-2.5,0.5-5,1.6-7,3.2c-2.1,1.7-2.5,3.3-1.6,5.9c0.5,1.4,1,2.9,1.5,4.3c0.2,0.7,0.5,1.4-0.6,2
		c-3.3-1.2-2.4-5-4.2-7.3c-4.5,0.7-8.8,0-12.7-2.3c-1.5-0.9-3.2-0.9-5-0.7c-1.1,2.6-0.1,5.8-2.5,8.3c-2.3-2.9-0.5-6-0.8-8.9
		c-1.5-0.2-2.9-0.3-4.2-0.5c-2-0.3-4.2-0.4-6.1-1.1c-3.4-1.2-6.7-2.7-10-4c-2-0.8-3.8-0.3-4.9,1.6c-0.5,0.9-0.9,1.9-1.3,2.8
		c-0.3,0.6-0.6,1.1-1.1,2c-1.2-2.9,0.4-4.8,1.1-6.8c-2.3-1.6-4.4-2.1-7.4-1.8c-2,0.2-4.1,0.6-6,0.2c-3.9-1-6.3,0.3-8,3.7
		c-0.8,1.5-1.8,3-3.3,4.2c-1.8-3.5,1-5.6,1.9-8.1c-0.5-1.5-1.8-1.6-3.1-1.8c-1.7-0.1-3.5-0.1-5.2-0.5c-2.4-0.6-4.7-1.4-7.1-2.2
		C465.1,437.6,464.3,437.4,463.5,437.2z M437.1,383.9c-0.6,4.6-1.9,9.1-3.7,13.5c-2.7,6.7-5.4,13.5-8.1,20.2
		c-1.4,3.3-2.8,6.7-4.4,9.8c-3.3,6.4-7,12.6-10.3,19c-2.5,4.9-5.4,9.4-8.6,13.8c-2.7,3.8-5.5,7.7-8.3,11.5c-1.6,2.2-3.5,4.2-4.6,6.7
		c-1.1,2.4-1.3,5.2-1.9,7.9c-0.1,0.5-0.1,1-0.1,1.5c0.1,0,0.2,0.1,0.3,0.1c0.7-1,1.4-1.9,2.1-2.9c4.4-6,9.1-11.8,13-18.1
		c4.3-6.9,8-14.2,11.9-21.3c0.7-1.2,1.3-2.4,1.9-3.6c1.3-2.4,2.7-4.7,3.8-7.2c1.5-3,2.6-6.2,4.1-9.2c2.5-5.1,5.2-10.1,7-15.5
		c2.4-7,5.3-13.7,7.4-20.7c2.8-9.2,6.4-18,8.2-27.5c1.1-6,3.3-11.9,3.7-18c0.3-4.8,0.9-9.5,1.1-14.3c0.2-5.4-0.1-10.7-0.7-16
		c-1-9.3-3.5-18-8-26.2c-1-1.8-2.3-3.4-3.6-5c-3.6-4.7-7.9-8.6-13.8-10.3c-2.8-0.8-5.6-1.5-8.4-1.9c-1.8-0.3-3.8,0-5.8,0
		c0.2,2.5,0.4,4.6,0.6,6.8c3.2,0.5,6.1,1.1,9.2,1.4c3.2,0.3,5.8,1.9,8.7,3.6c-3.1-0.7-5.9-1.4-8.7-1.8c-2.9-0.5-5.7-1.3-8.6-1.3
		c0,1.8,0,3.4,0,5c0,1.6,0,3.3,0,4.9c6.9,1,9.1,1.9,11.5,4.4c-3.8-1.5-7.6-2.6-11.8-2.3c0,2.9,0,5.5,0,8.1c0.3,0.1,0.5,0.3,0.7,0.3
		c4.5,0.6,8.3,2.6,11.7,5.5c2.6,2.2,3.6,4.9,3.2,8.3c-0.4-2.2-1.5-4-3.2-5.5c-3.4-3-7.2-5-11.6-5.7c-0.4-0.1-0.7,0.1-1.1,0.1
		c-0.1,0.4-0.2,0.7-0.2,1c-0.6,5.5-1.2,11-1.9,16.4c-0.8,6.2-2.9,12.3-2.2,18.7c0,0.2,0,0.3-0.1,0.5c-0.4,4.3-0.8,8.6-1.4,12.9
		c-0.6,4.7-1.3,9.3-2,14c-0.8,5.6-1.7,11.2-2.6,16.8c-0.7,4.3-1.4,8.7-2.1,13c-0.5,3.3-1.1,6.6-1.6,9.9c-0.6,5.1-1.2,10.2-1.7,15.2
		c-0.2,2.2-0.5,4.4-0.8,6.7c0.4-0.2,0.6-0.2,0.7-0.3c2.2-3.5,4.6-6.9,6.5-10.6c2.5-4.7,4.9-9.5,7-14.4c2.4-5.3,4.8-10.7,6.6-16.2
		c3.1-9.7,5.9-19.6,8.5-29.5c2.4-9.1,4.1-18.2,3.9-27.7c0-2.4,0.2-4.7,0.3-7.4c1,3.1,1.5,12.5,0.8,16.5c-0.9,5.4-1.6,10.8-3,16
		c-2.7,10.4-5.5,20.7-8.6,30.9c-4.6,15.3-11.2,29.7-19.8,43.2c-2.8,4.4-5.2,9-5.1,14.5c0,2.5-0.1,4.9-0.2,7.4
		c-0.1,1.2-0.3,2.4-0.5,3.6c0.2,0.1,0.3,0.1,0.5,0.2c3.8-5.1,7.7-10.1,11.2-15.4c3.5-5.3,7-10.8,9.8-16.5c2.8-5.6,4.8-11.6,7.1-17.5
		c0.1,0.4,0,0.8-0.1,1.2c-2.3,8.7-5.6,17-10.4,24.6c-1.4,2.3-2.7,4.7-4.2,7c-4.5,6.6-9,13.2-13.6,19.7c-1,1.4-1.4,2.8-1.6,4.4
		c-0.5,3.5-0.9,7-1.4,10.5c-0.1,0.6,0,1.3,0,2.5c0.6-0.7,0.9-1,1.2-1.4c2.5-3.5,5-7.1,7.5-10.6c4.1-5.7,8.2-11.4,11.4-17.8
		c2.1-4.2,4.7-8.2,6.9-12.4c2.4-4.6,4.8-9.2,7-13.9c1.8-3.8,3.1-7.9,4.6-11.8C431.2,398.8,434.2,391.4,437.1,383.9z M545,317.7
		c1.5,1,1.7,2.3,1.5,3.7c-0.3,2-0.5,4-0.8,5.9c-2,10.1-4.1,20.2-7.1,30.1c-1.7,5.5-3,11.1-3.6,16.9c-0.3,3.3-1.1,6.4-2.5,9.5
		c-0.8,1.7-1.1,3.7-1.5,5.5c-0.4,1.9-0.6,3.8-1.1,5.6c-1.4,5.7-2.9,11.3-4.4,16.9c-0.4,1.4-0.9,2.7-1.3,4c-0.2,0-0.3,0-0.5-0.1
		c-0.1-0.6-0.3-1.2-0.2-1.8c0.3-2.5,0.6-5.1,1.1-7.6c1.4-6.3,3-12.6,4.5-18.9c0.4-1.8,1.1-3.5,1.9-5.2c1.3-2.7,2-5.6,2.3-8.5
		c0.1-1,0.2-2.1,0.4-3.1c0.8-3.6,1.4-7.2,1-10.9c-0.1-0.9,0-1.8,0-2.6c-1,1.5-1.5,3-2.1,4.4c-0.6,1.5-1,3-2,4.3
		c0-4,2.1-7.6,1.8-11.7c-0.5,1.2-1.1,2.4-1.6,3.5c-0.1,0-0.3-0.1-0.4-0.1c0.5-4.3,1-8.6,1.4-12.9c-0.6,0.5-0.9,1-1,1.6
		c-1,3.8-2,7.6-2.9,11.4c-1,4.5-1.9,9.1-2.8,13.6c-0.2,0.9-0.3,1.8-1.1,2.5c-0.2-0.5-0.4-0.9-0.7-1.7c-0.8,2.6-1.5,4.8-2.2,7
		c-0.8,2.2-1.5,4.5-2.9,6.7c-0.6-1.5,0-3-1.5-3.8c-0.1-0.1-0.1-0.6-0.1-0.9c0.4-4.1,0.7-8.3,1.3-12.4c1.6-10.4,3.4-20.8,5.1-31.2
		c0-0.3,0-0.6-0.1-1.3c-0.3,0.7-0.4,1-0.5,1.3c-2.3,8.1-4.7,16.3-7,24.4c-0.4,1.2-1,2.3-1.9,3.2c-0.4-0.6-0.6-1-1.2-1.8
		c-0.5,2.8-0.9,5-1.2,7.3c-0.1,0.5,0.1,0.9,0.1,1.4c0.1,1.2,0.3,2.4,0.3,3.6c0,2.4-0.2,4.8-0.3,7.2c-0.5,12.3-0.8,24.6-3.4,36.7
		c-0.4,2.1-0.2,4.2,0.2,6.4c0.4-0.3,0.6-0.3,0.6-0.4c0.1-0.3,0.2-0.6,0.3-0.9c1.6-5.2,2.6-10.5,3.2-16c0.6-5.7,1.2-11.4,2-17.1
		c0.2-1.7,0.8-3.3,1.2-5c1.6,6.3,0.4,12.4,0.6,18.6c1.8-5.1,2.8-10.5,5.6-15.3c0.3,0.9,0.4,1.7,0.3,2.6c-0.2,2.3-0.5,4.6-0.9,6.9
		c-1.3,6.9-2,13.9-2.2,21c-0.1,5.5-1,11-1.6,16.4c-0.1,1.1-0.3,2.3-0.5,3.4c0.1,0.2,0.3,0.4,0.4,0.6c0.4-4.4,3.8-2.7,5.9-3.4
		c0.4-3,0.7-5.8,1.3-8.6c0.8-4,1.8-7.9,2.8-11.9c0.2-0.8,0.4-1.8,1.6-2.5c1.1,3.9,0.6,7.7,0.6,11.4c0.9-2.2,1.6-4.4,2.2-6.6
		c1.7-5.9,3.4-11.8,5-17.7c0.4-1.6,0.6-3.3,1-4.9c1.3-5.8,2.9-11.5,3.4-17.4c0.4-4.5,1-9.1,1.6-13.6c0.2-1.6,0.6-3.2,0.9-5.1
		c0.4,0.4,0.6,0.5,0.6,0.6c0.1,0.5,0.2,0.9,0.2,1.4c0.3,6.8,0.2,13.6-0.7,20.4c-0.6,4.6-1.8,9.1-2.8,13.6c-0.7,3.4-1.3,6.8-2.1,10.1
		c-2,8-4,16-6,23.9c-0.1,0.5-0.2,1.1-0.3,2.1c2.9-4,3.6-8.3,4.4-12.5c0.7-3.6,1.7-7.1,2.6-10.7c0-0.1,0-0.2,0.1-0.2
		c1.2-1.4,1.2-3.2,1.7-4.9c1.2-4.8,2.5-9.6,3.9-14.4c0.2-0.8,0.4-1.8,1.5-2.6c0.1,1,0.2,1.8,0.2,2.6c-0.1,2.9-0.2,5.8-0.5,8.6
		c-0.7,6.2-1.7,12.4-4.4,18.1c-0.8,1.7-0.7,3.4-0.2,5.3c0.4-0.4,0.6-0.7,1-1.1c0.3,1.2,0.5,2.3,0.9,3.7c1-3.2,1-6,2.6-8.5
		c0.3,1.6,0.6,3.3,0.5,4.9c-0.3,6.7-1.3,13.4-2.6,20c-0.3,1.5-0.6,2.9-0.9,4.6c1.1,0.1,1.9,0.2,2.7,0.3c0.2-0.5,0.3-0.7,0.4-0.9
		c0.5-4.5,1.4-9,3.5-13.1c0.3-0.6,0.4-1.2,0.5-1.8c2.5-9.1,3-18.4,4.2-27.7c0.3-2.6,0.4-5.2,1.3-7.6c2.1,0.1,2.4,1.5,2.5,3.1
		c0,0.8,0.1,1.6,0.1,2.4c-0.3,5.2-0.4,10.4-0.9,15.6c-0.5,6-1.4,11.9-2,17.9c-0.1,1.2-0.1,2.4-0.1,3.6c0,1.1,0,2.2,0,3.3
		c0.4-0.2,0.5-0.4,0.5-0.7c-0.3-4.8,1.3-8.9,4.1-12.7c1.2-1.6,1.7-3.4,1.7-5.4c0-1.8,0.1-3.5,0.3-5.3c2.2-13,4.4-26,6.6-39
		c0.1-0.7,0.4-1.4,0.7-2.3c0.5,0.4,0.7,0.5,0.8,0.7c1,4.1-0.1,8.2,0,12.4c0.7-4.1,1.4-8.2,1.7-12.3c0.4-5.2,0.8-10.4,2.8-15.3
		c0.6-1.6,1-3.2,0.4-4.9c-0.2-0.7,0.1-1.6,0.2-2.3c0-0.8,0.6-1.7-0.2-2.7c-1.2,2-1.3,4.4-3,5.9c0.2-2.6,0.4-5.2,0.9-7.8
		c1.3-7.2,2.8-14.4,4.1-21.7c0.5-2.6,0.8-5.2,1.2-7.8c0.1-0.5,0.3-1.2,0.7-1.5c0.3-0.3,1-0.2,1.8-0.3c1-7.3,2-14.5,3-21.8
		c-0.4,0.2-0.8,0.4-1.5,0.8c0.4-2.2,0.6-4,1-5.8c1.4-6.2,2.8-12.3,4.2-18.5c0.1-0.6,0.1-1.3,0.2-1.9c-0.1,0-0.2,0-0.4,0
		c-1.4,3.6-2.8,7.2-4.2,10.8c-0.2,0-0.4-0.1-0.7-0.1c0.1-1.6,0-3.3,0.3-4.9c0.8-4.6,1.6-9.1,2.5-13.7c2.8-12.9,4.7-25.9,5.3-39.1
		c0.1-2-1-4.2-2.8-5.6c0,4.9,0.1,9.6,0,14.3c-0.1,5.7-1.2,12.3-2.4,14.5c0.2-5.7,0.4-11,0.5-16.2c0.1-5.3,0-10.7,0-16
		c-0.5,1.3-0.7,2.6-0.9,3.9c-0.7,4.6-1.4,9.2-2.1,13.8c-0.7,4.8-1.2,9.7-1.8,14.5c-0.6,4.8-1.4,9.6-2.1,14.5
		c-0.4,2.8-0.7,5.7-1.2,8.6c-0.2,1.1-0.3,2.4-1.6,3.1c-1-1.1-0.9-2.4-0.7-3.7c0.5-4.3,1.1-8.5,1.3-12.9c0.3-9.6,1-19.2,1.7-28.7
		c0.5-6.3,1.3-12.6,1.9-18.8c0.1-1.2,0.1-2.2-1.6-2.7c-0.1,1.4-0.2,2.8-0.4,4.1c-0.4,3.2-0.9,6.3-1.4,9.5c-0.2,1.1-0.5,2.2-1.8,3.1
		c-0.4-2.4-0.8-4.5-1.2-6.8c-0.9,3.4-0.5,6.9-2.5,10.3c-0.5-1.5-0.8-2.6-1.2-3.7c-1.2,1.9-1.5,3.8-1.2,5.9
		c0.8,6.7,0.3,13.2-1.3,19.8c-0.2,0.7-0.5,1.3-0.8,2c-0.2,0-0.4-0.1-0.6-0.1c0-1.7-0.1-3.5,0-5.2c0.6-5.8,1.3-11.6,0.4-17.5
		c-0.1-0.6,0-1.3,0.1-1.9c1.3-5.3,3-10.6,2.8-16.2c0-0.2,0.1-0.3,0.1-0.5c0.3-3.3,0.9-6.7,0.2-10c-0.2-1.1-0.5-2-2-2.2
		c-0.3,3.7,0,7.4-1.9,10.8c-1-3.9-0.1-7.9-0.5-11.8c-0.5,1.6-0.8,3.2-1.1,4.9c-0.3,1.5-1,2.4-1.9,2.4c-1.3,0-2-0.8-2.3-2
		c0-0.1-0.2-0.3-0.4-0.6c-0.3,0.9-0.6,1.6-0.8,2.3c-0.5,2.2-1.2,4.4-1.3,6.6c-0.4,7.3-2.6,14.2-5,21.1c0,0.1-0.3,0.1-0.6,0.2
		c0.1-1.3,0.1-2.6,0.2-3.8c0.8-6.9,2.1-13.7,1.3-20.8c-0.2-1.7,0.1-3.4,0.1-5c0-0.7,0-1.4,0-2.1c-0.3,0.3-0.4,0.6-0.4,0.9
		c-0.8,4.8-1.4,9.6-2.3,14.4c-1.2,6.8-2.5,13.5-3.8,20.3c0,0.2,0.1,0.4,0.1,0.7c0.4-0.6,0.7-1.1,1.1-1.5c0.5,10.5-1.1,20.7-1.6,31
		c1.9-9.3,4-17.3,5.4-19.2c0,2.2,0,4.2,0,6.1c0.2,0,0.3,0.1,0.5,0.1c0.6-1.7,1.4-3.4,1.7-5.2c1.5-8.3,2.9-16.5,4.3-24.8
		c0.4-2.1,0.7-4.2,1.7-6.5c0.3,0.6,0.5,0.9,0.5,1.2c0.2,3.9,0.5,7.8,0.4,11.7c-0.2,5.9-0.9,11.8-1.3,17.7
		c-0.5,7.7-1.3,15.4-2.6,23.1c-0.4,2.2-0.4,4.5-0.6,6.7c0.2,0,0.4,0.1,0.6,0.1c1.4-7.8,2.2-15.7,5-23.2c1.3,2.6,1.1,5.4,1.1,8.2
		c0,2.8-0.7,5.6-0.4,8.4c0.4-0.3,0.7-0.6,0.9-0.9c0.2-0.3,0.5-0.5,1-0.9c0.9,4.8-1,8.9-1.6,13c1.1,0.4,2.2,0.7,3,1.2
		c0.8,0.5,1.5,1.3,2.2,2c0.2-0.1,0.4-0.2,0.5-0.3c1.5-1,2-0.8,2.1,0.8c0.1,0.9,0.1,1.8-0.1,2.6c-0.9,5.4-1.6,10.9-2.7,16.3
		c-2.8,14.5-5.8,29-8.6,43.5c-1,5.4-1.8,10.9-2.7,16.3c-0.2,1.2-0.7,2.4-1,3.5c-0.2,0-0.4-0.1-0.6-0.1c-0.4-10.5,0.9-20.9,2.6-31.7
		c-0.5,0.6-0.7,1-1.1,1.1c-1.7,0.4-1.8,1.8-2.2,3c-0.7,2.4-1.2,4.9-2.4,7c-1.9,3.6-2.5,7.6-3.5,11.4c-0.4,1.8-0.8,3.6-1.2,5.4
		c-0.2,0.9-0.5,1.7-0.8,2.5c-0.2-0.1-0.3-0.1-0.5-0.2c0.3-8,2.3-15.8,3.3-23.8c-0.6,1.2-1.1,2.5-1.7,3.7c-0.2-0.1-0.4-0.1-0.6-0.2
		c0.3-3.2,0.6-6.5,1-9.7c0.6-4.8,1.4-9.5,2-14.2c0.1-0.5,0-1.4-0.2-1.5c-1-0.5-0.8-1.3-0.8-2.1c0.1-1.5,0.2-3,0.4-4.5
		c0.2-1.9,0.5-3.7,0.8-5.7c-0.7,0-1.2,0-1.5,0c-0.4,2.5-0.8,4.8-1.1,7.2C547.9,315.8,547.4,317.4,545,317.7z M330.4,489.7
		c-3.6,17.6-7.1,34.9-7.1,52.8c1-4.1,2-8.2,2.7-12.3c1.1-5.9,1.7-11.9,3.3-17.7c0.6-2,1.4-3.9,2.7-5.5c5.3-6.3,7.4-13.6,6.8-21.8
		c-0.1-1.8-0.3-3.5-0.5-5.2c-0.2-2-0.5-3.9-0.7-5.9c-0.2,0-0.4-0.1-0.6-0.1c-1.2,1.7-1.8,3.6-2.7,5.4c-0.8,1.9-1.5,3.9-2.3,5.8
		c-0.5-0.7-0.6-1.2-0.6-1.7c0.6-7.2,2.6-14,6-20.3c2.5-4.5,5.5-8.8,8.6-13c2.9-4,5.9-7.9,8-12.5c0.8-1.8,1.2-3.6,0.8-5.6
		c-2-11.1-4-22.2-6-33.3c0-0.2-0.2-0.3-0.6-0.8c-2.1,2.2-4.1,4.4-6.2,6.5c-3.9,4-8.4,7.1-14,8.4c-2.3,0.6-4.6,1.3-6.9,1.9
		c-1.3,0.3-2.1,1.1-2.3,2.5c-0.2,1.4-0.4,2.9-0.4,4.3c0.1,5.4-0.1,10.8-1.4,16.2c-0.7,2.9-1,6-1.5,9c-0.2,1.2-0.5,2.4-0.8,3.5
		c-1.5,5.1-4.1,9.7-7,14.1c-0.7,1.1-1.3,2.2-1.8,3.4c-1.8,4.2-2.6,8.7-3.2,13.2c-1,7.5-1.1,15.1-1.1,22.7c0.1,7.9,0.3,15.8,1.3,23.7
		c0.8,6.9,1.4,13.8,1.9,20.8c0.5,7.2,0.2,14.4-2.9,21.2c-0.8,1.7-0.9,3.4-0.3,5.1c0.6,1.7,0.2,3.1-0.6,4.6c-1.5,2.7-2.9,5.5-4.4,8.2
		c1.9,1.3,4.1,2.5,5.9,4.2c1.7,1.7,3,3.8,4.6,5.8c2.9-2.9,6.3-4.5,10.4-4.5c0-2.6-0.1-4.9,0-7.3c0-1.1-0.1-2-0.8-2.9
		c-0.7-0.9-1.2-1.9-0.4-3.2c0.8,0.4,1.6,0.7,2.3,1c1.5-2.5,1.8-3.9,1.2-6.4c-0.2-0.9-0.5-1.9-0.7-2.8c-1-4.1-1.9-8.2-1.7-12.5
		c0.4-6.1,0.6-12.1,1.1-18.2c1-12,2.5-24,5.7-35.7c1.2-4.4,2.6-8.7,4-13.1C328.8,490.8,328.9,489.8,330.4,489.7z M441.6,395.4
		c-0.3,0.4-0.4,0.5-0.5,0.7c-1.9,5.3-3.9,10.7-5.7,16c-2.1,6-4.3,11.9-7.4,17.4c-1.1,2-1.9,4.2-2.6,6.4c-0.4,1.2-0.3,2.7,0,4
		c0.8,3.8,1.9,7.6,2.7,11.4c0.6,2.8,1.9,5.2,3.7,7.4c3.2,3.9,5.6,8.2,6.5,13.2c0.8,4.4,1.6,8.8,2.3,13.2c0.6,4,1,8.1,1.4,12.1
		c0.1,0.6,0.3,1.4-0.6,2c-0.4-0.7-0.9-1.3-1.1-1.9c-1-3.1-2.3-6.2-2.8-9.4c-1-5.7-2.6-11.2-4.8-16.5c-0.8-1.8-1.6-3.7-2.4-5.5
		c-0.4-0.9-0.9-1.9-2.1-2.1c-0.2,0.2-0.4,0.3-0.4,0.4c-1.9,6-4,12-5.6,18.1c-1.2,4.4-1.2,9,0.2,13.5c1.5,5,4.1,9.3,7.4,13.3
		c1.5,1.9,3.3,3.6,5,5.6c-0.9,0.2-1.6,0.3-2.4,0.5c0.8,2.8,1.9,5.3,2.4,8c1.1,6.1,2.1,12.3,2.9,18.5c0.8,6.7,1.3,13.4,2.1,20
		c0.6,4.6,0.5,9.1-1.3,13.4c-0.8,2-0.8,4.2-0.4,6.4c0.5,2.8,2,4,4.7,4c1.1,0,2.2,0,3.4-0.1c2.3-0.2,4.5,0.1,6.5,1.4
		c0.7,0.4,1.3,0.6,2.2,0.3c4.4-1.3,8.7-1.2,12.9,0.6c2.4,1,4.9,1.9,7.5,3c0-0.9,0-1.7,0.1-2.4c0.3-1.6-0.4-2.7-1.7-3.7
		c-1.6-1.2-3.2-2.4-4.6-3.8c-2.5-2.3-4.9-4.6-7.3-6.9c-1-1-2-2-3.1-3c-1.5-1.4-3.3-2.6-4.1-4.2c0.4-0.9,0.8-1.5,0.8-2.1
		c0-3-0.2-6.1-0.3-9.1c0-0.8-0.1-1.5-0.1-2.6c-1.7,1.4-2.4,2.8-2.5,4.7c-0.1,2.2-0.6,4.4-1,6.6c-0.1,0.4-0.5,0.8-0.9,1.4
		c-1.2-2.2-1.7-4.3-1.7-6.5c0-2.4,0.4-4.8,0.4-7.2c0-1.7,0.8-2.8,2-3.9c1.1-1,2.1-2.2,2.9-3.5c1.4-2.5,2-5.2,2.1-8
		c0.1-4.9,0.1-9.8,0.5-14.6c0.9-9.3,2.1-18.6,2.9-27.9c0.7-7.7,0.7-15.5-0.5-23.2c-1.1-6.8-2.2-13.6-2-20.5c0-0.4-0.2-0.8-0.4-1.4
		c-3.8,3.6-3.8,8.7-6.2,13.1c-1.6-4.3-1.3-8.1,0.8-11.7c1.7-2.8,3.6-5.5,5.6-8c1.3-1.7,2-3.4,2.1-5.5c0-1.4,0-2.9-0.1-4.3
		c-0.1-2.5-0.3-4.9-0.4-7.4c-0.1-2.4-0.1-4.8,0-7.2c0-2.6-0.7-4.9-2.2-7c-0.8-1.1-1.6-2.2-2.5-3.2c-3.1-3.4-6.2-6.7-9.3-10
		C443.6,397,442.6,396.3,441.6,395.4z M324.6,190.7c-1.4-0.6-2.8-1-4.1-1.6c-2.6-1.4-5.2-2.8-7.8-4.3c-4.1-2.4-8.1-4.8-12.2-7.2
		c-1.6-0.9-2.5-0.9-3.5,0.6c-1.9,2.8-4.1,5.5-5.4,8.8c-2.4,6.5-4.1,13.2-5.3,20.1c-0.9,5.6-2,11.2-5,16.2c0,0,0.1,0.1,0.3,0.5
		c1.2-1.3,2.4-2.6,3.6-3.8c-0.1,0.9-0.3,1.7-0.7,2.3c-1.9,2.7-3.5,5.7-6,8.1c-4,3.7-7.3,8.1-10.1,12.7c-6.1,9.8-11.3,20-13.9,31.4
		c-1.3,6-3.9,11.5-7,16.8c-1.2,2.2-2.7,4-5.1,5.2c-4.8,2.5-9.4,5.5-13.8,8.7c-1.5,1.1-2.3,2.4-2.4,4.4c-0.1,2.8-0.6,5.5-1.2,8.3
		c-0.2,1.3,0,2.3,0.9,3.2c1.3,1.4,2.4,2.9,3.6,4.5c0.8,1.1,1.6,2.4,2.4,3.5c2.2-0.7,2.7-1.3,2.2-3.2c-0.3-1.1-0.9-2.2-1.5-3.2
		c-0.6-1.1-1.5-2.1-2.2-3.1c2.4-3,1.9-6.1,0.7-9.2c-0.2-0.5-0.4-1-0.7-1.9c2,0.7,2.6,2,3.2,3.3c1.1,2.4,1.6,2.7,4.2,2.7
		c1.7,0,2.9-0.9,3.9-2.1c2.2-2.8,4.6-5.6,4.6-9.5c0-0.3,0.2-0.6,0.5-1.1c0.2,1.7,0.4,3,0.6,4.6c1.5-0.5,2.8-0.8,4.3-1.3
		c-0.8,0.8-1.5,1.4-2,2.1c-0.9,1.2-1.7,2.5-2.4,3.8c-0.5,0.9-0.3,1.8,0.6,2.3c2.6,1.5,5.1,2.9,7.7,4.3c0.8,0.4,1.6,0.1,2.1-0.6
		c0.4-0.5,0.7-1.1,0.9-1.7c0.9-2.4,0.8-4.9,0.2-7.3c-0.5-1.9-0.5-3.6,0.6-5.3c0.3-0.5,0.4-1.1,0.7-2c-2.3,1-3.3,2.9-4.8,4.3
		c0.6-1.9,1.4-3.8,2.4-5.5c3.2-5.4,7-10.5,11.2-15.3c3.5-4,6.9-8,10.3-12c2.5-2.9,4.7-6.1,7.3-8.9c4.8-5,8.6-10.7,11.2-17.2
		c2.3-5.8,2.9-11.8,2.9-18c-2.3,0.7-4.6,1.5-6.9,2.2c-0.1-0.2-0.2-0.3-0.3-0.5c3-2.3,6.1-4.6,9.1-6.9c3-2.4,6-4.8,8.7-7.5
		c4.8-4.8,8.3-10.6,11.2-16.6C323.7,196.1,324.7,193.5,324.6,190.7z M391.8,20.5c-1.6-5.1-0.3-10.3-0.4-15.5
		c-2.6,0.5-4.9,1.4-7.1,2.8c0.4,4.7,0.7,9.4,1.1,14c-1.6-4.3-1.2-8.9-1.4-13.7c-3.9,1.9-7.2,4.3-10.5,6.4c1.3,4.4,1.9,8.7,2.2,13
		c-1.2-4-1.4-8.2-2.9-12.1c-1.5,0.4-1.8,1.5-2.1,2.4c-0.9,2.6-1.7,5.2-2.5,7.8c-2.9,10-5.9,19.9-8.6,29.9
		c-1.4,5.2-2.6,10.6-3.8,15.9c-0.5,2.4-0.1,3.1,2.3,3.9c0.2-1,0.4-1.9,0.5-2.8c0.5-3.6,1-7.1,1.6-10.7c0.1-0.8,0-2.3,1.4-2.1
		c1.3,0.2,1.1,1.6,1,2.6c-0.2,1.8-0.4,3.5-0.6,5.2c-0.3,3.4-0.6,6.8-0.9,10.2c2.5,1.1,7.4,1.5,9.7,0.7c0-0.4,0.1-0.8,0-1.2
		c-1.2-7.1-1.3-14.3-1.2-21.5c0.1-6.7,0.9-13.4,2.3-20c0.3-1.4,0.8-2.6,1.9-3.7c1.1,2.3-0.5,4.5,0.2,7c3.4,0.8,6.7,2.2,10.5,2.9
		c0-3.8,0-7.4,0-10.9c1.4,3.6,0.5,7.3,0.6,11.1c2.4,0.7,4.9,1.2,7.6,1.1c-0.4-3.5-0.7-6.7-1.1-9.9c0.2,0,0.5-0.1,0.7-0.1
		c1.2,3.2,0.3,6.7,1,10c2.9,0,5.6,0,8.6,0c0-2.8,0-5.4,0-8c0.1,0,0.2,0,0.3,0c0.3,2.6,0.7,5.1,1,7.9c2.4-0.3,4.5-0.6,6.7-0.9
		c-0.1-2.5-0.3-4.8-0.4-7.1c0.1,0,0.2,0,0.3,0c0.3,2.2,0.7,4.5,1.1,7c2.5-0.8,4.7-1.5,6.9-2.2c0.3-3.7-1.3-7.3-0.2-11
		c0.5,0.3,0.9,0.3,0.9,0.5c4.6,15.5,5.7,31.5,6.1,48c2.4-0.4,4.6-0.8,7.3-1.2c-0.6,0.6-0.8,0.9-1.1,1c-1.9,0.3-3.9,0.6-6,1
		c0,2.9-0.5,5.8,0.5,9c3.1-0.8,6-1.6,9.1-2.5c-0.6,2.2-2.2,2.5-3.8,2.6c-1.7,0.2-3.5,0.2-5.3,0.3c-0.2,2.2-0.2,4.2,0.3,6.3
		c3.3,0,6.3-0.5,9.3-1.7c0.1-1.4,0.2-2.7,0.4-3.9c0.3-1.9,0.3-3.8-0.2-5.7c-1.1-4.6-2.2-9.2-3.2-13.8c-0.6-2.6-1.1-5.2-0.5-7.9
		c3.8,6.4,4.2,14,6.5,21.4c0.6-1.4,0.9-2.3,1.4-3.1c1.6-2.6,1.3-5.1,0.5-7.9c-3.3-12.5-6.6-25-10.1-37.5c-1.9-6.7-5.4-12.6-9.2-18.3
		c-0.6-0.9-1.6-1.6-2.6-2.7c-0.7,4.7-1.4,9-2.1,13.2c-0.4-0.9-0.4-1.8-0.3-2.7c0.5-3,1-6,1.5-9c0.5-2.4,0.4-2.6-1.8-3.7
		c-1.2-0.6-2.4-1.3-3.6-1.9c-0.6-0.3-1.3-0.6-2.3-1c0,1.7,0,3.1,0,4.4c-0.1,1.4-0.2,2.7-0.3,4.1c-0.1,1.2,0.1,2.5-0.5,3.6
		c-0.2,0-0.4-0.1-0.5-0.1c0.4-4.1,0.8-8.2,1.3-12.3c-2.7-0.8-4.6-2.7-7.5-2.9c-0.3,6.4-0.6,12.7-0.9,18.9
		c-1.2-6.3-0.3-12.5,0.5-18.7c-2.3-0.8-7-0.7-9.1,0.3C392,10.1,391.9,15.3,391.8,20.5z M508.7,240.1c0.2-2.6,0.4-5.4-0.7-8
		c-2-5.4-5.5-9.6-10-13.2c-1.5-1.2-2.8-2.6-4.2-3.8c-0.3-0.3-0.7-0.6-1.1-1c-0.5,0.9-0.9,1.7-1.3,2.5c-0.9,2.1-2.4,3.8-4.1,5.2
		c-0.3,0.2-0.8,0.3-1.5,0.5c0.3-0.9,0.5-1.4,0.7-1.9c0.6-1.4,1.4-2.7,1.9-4.1c1.9-5.3,1.9-10.7,0.5-16.1c-1.4-5.3-3-10.6-4.6-15.9
		c-1.6-5.5-4.8-10-9.1-13.8c-4-3.5-7.9-7.2-11.9-10.8c-2-1.8-3.9-3.8-5-6.4c-0.1-0.3-0.5-0.5-1.1-1.2c-0.3,4.5-0.7,8.3-0.9,12.2
		c-0.3,6.7,0.8,13.2,3,19.5c0.8,2.2,1,4.7,1.4,7c0.3,1.8,0.5,3.7,1,5.4c0.8,2.4,1.8,4.8,2.9,7.1c1.9,4.2,4.6,7.8,8.4,10.6
		c2.6,1.9,5,4.1,7.5,6.2c-5.8-1.2-10-4.9-14.1-8.9c1.2,5.2,2.2,10.2,3.5,15.1c2,7.9,4.9,15.4,10,21.9c1.6,2.1,3.4,3.8,6,4.1
		c2.8-2.3,5.4-4.4,8.1-6.6c-0.3-2.7-2-4.8-2.9-7.1c-1-2.4-1.9-4.8-3.1-7c-1.2-2.2-2.8-4.2-4.2-6.3c0.9-0.1,1.7,0,2.3,0.4
		c2.1,1.4,3.8,3.1,4.9,5.5c2.1,4.2,4.3,8.4,6.5,12.6C501.2,242.6,504.8,241.4,508.7,240.1z M359.2,280.7c-0.1,0.2-0.1,0.4-0.2,0.6
		c-1.2-0.1-2.5,0-3.7-0.3c-3.9-0.9-7.7-2.2-10.9-4.7c-0.5-0.3-1-0.6-1.8-1c-0.2,3.4-0.5,6.4-0.7,9.4c3.5,1.8,7.7,1.9,10.6,5.4
		c-4.1,0-7.2-2-10.6-3.1c-0.2,2.2-0.4,4.1-0.6,6.2c1.9,0,3.6,0,5.4,0c1.8,0,3.6-0.2,5.3,1.8c-1.5,0.4-2.7,0.8-3.9,1
		c-3,0.5-6,0.9-9,1.4c-1.7,0.3-1.9,0.8-1.5,2.5c0.1,0.5,0.4,1,0.6,1.6c4-1.1,7.6-3.7,12-2.2c-0.9,0.7-2,1.1-3,1.4
		c-2.3,0.8-4.7,1.6-7,2.5c-0.4,0.2-0.8,0.5-1.2,0.8c0.7,0.2,1.2,0.1,1.7,0c2.1-0.4,4.2-0.9,6.3-1.2c1.1-0.2,2.2,0,2.9,1.2
		c-0.6,1.2-1.7,1.4-2.8,1.6c-2.1,0.3-4.1,0.6-6.2,1c-0.8,0.2-1.8,0.3-1.9,1.5c0.4,0.4,0.8,0.9,1.2,1.3c-0.7,0.7-1.2,1.2-2.2,2
		c0.8-0.2,1.1-0.3,1.3-0.4c2.2-0.8,4.3-1.7,6.5-2.5c0.7-0.3,1.6-0.5,2.3-0.4c0.5,0,1.3,0.4,1.5,0.9c0.1,0.4-0.4,1.2-0.8,1.5
		c-0.8,0.5-1.7,0.8-2.6,1.1c-2.3,0.9-4.6,1.8-6.9,2.8c-1.2,0.5-2.2,1.2-3.4,1.7c-1.6,0.6-3.1,1.3-4.2,2.7c-1.1,1.4-2.3,2.9-1.5,5.1
		c1.8-0.2,3.7-0.9,5.3,0.6c-1.1,1.4-2.6,1.6-4,2c-2.2,0.7-2.4,1.1-1.9,3.5c4.5-1.1,8.6-4.2,13.9-3.2c-1.4,1.8-3.1,2.5-4.8,3.1
		c-2.5,0.9-5,1.7-7.5,2.6c-0.6,0.2-1.5,0.7-1.6,1.2c-0.5,2.3-0.8,4.7-1.2,7.5c1.9-1.2,3.5-2.2,5.1-3.1c1.9-1.1,3.7-2.2,5.6-3.2
		c1.1-0.6,2.4-0.9,3.5,0.2c-0.6,1.8-0.7,2.1-2.2,3c-2.3,1.3-4.7,2.5-7,3.8c-2.3,1.3-4.6,2.5-6.8,4c-1.1,0.8-2.1,2-2.9,3.1
		c-0.7,1-0.8,2.2,0.4,3.4c1.1-0.8,2.2-1.6,3.2-2.4c3-2.3,6.3-4.2,9.7-5.6c1.6-0.7,3.4-1.3,5.2-0.4c-1.1,1.8-1.8,2.3-4.4,3.7
		c-3.9,2.1-7.7,4.2-11.6,6.3c-1.2,0.6-1.8,1.5-1.3,2.9c0.6,0.3,1.2,0.5,2.1,0.9c-0.7,0.7-1,1.2-1.5,1.5c-1.5,0.9-1.7,2.1-1.2,3.8
		c3.8-2.1,7.1-5.3,12-6.1c-1.6,2.1-3.4,3.2-5.1,4.3c-2.1,1.4-4.2,2.6-6.4,3.8c-0.8,0.5-1.4,0.9-0.9,2.1c0.8-0.5,1.4-1,2.1-1.3
		c3-1.5,6-3,9-4.5c1.2-0.6,2.5-0.9,3.8-0.3c0.2,1.3-0.6,1.9-1.4,2.5c-1.1,0.8-2.3,1.4-3.5,2.1c-3.1,1.6-6.1,3.1-9.2,4.7
		c-4.2,2.1-5.2,6-5.9,10.1c-0.2,1,0.2,2.1,0.4,3.5c0.8-0.6,1.4-0.9,1.8-1.3c2.7-2,5.2-4.2,8.1-6c2.4-1.6,5-2.7,7.6-4
		c0.7-0.3,1.6-0.7,2.7-0.1c-0.6,0.7-1.1,1.3-1.6,1.8c-1.1,0.9-2.2,1.8-3.4,2.6c-4.8,3.4-9.5,6.7-14.3,10.1c-0.3,0.2-0.5,0.7-0.8,1.1
		c0.1,0.1,0.2,0.2,0.4,0.3c1.5-1,3-2.1,4.5-3.1c1.5-1,3-2.2,5.6-2.3c-1.2,1.2-1.8,2-2.7,2.7c-2.4,1.9-4.8,3.7-7.3,5.5
		c-1,0.8-1.5,1.7-1,3.2c0.8-0.7,1.5-1.2,2.2-1.8c3.2-2.8,6.3-5.6,9.6-8.3c2.1-1.7,4.6-3,7.3-3.6c0.5-0.1,1.1,0,1.7,0
		c0.1,0.2,0.2,0.3,0.2,0.5c-0.9,0.9-1.8,2-2.8,2.8c-5.8,4.6-11.6,9.1-17.3,13.7c-0.9,0.7-1.8,1.6-2.4,2.6c-0.4,0.6-0.4,1.5-0.6,2.3
		c0.2,0.1,0.3,0.2,0.5,0.3c0.9-0.7,1.9-1.4,2.8-2.1c1-0.6,2-1.4,3.5-1c-0.5,0.6-0.8,1.1-1.2,1.6c-0.2,0.3-0.8,0.6-0.7,0.9
		c0.4,2.1-1.5,2.8-2.5,3.9c-1.1,1.2-2.3,2.2-3.4,3.4c-1.4,1.6-1.9,3.8-1.5,5.2c1.4-0.9,2.8-2.1,4.3-2.8c2.8-1.2,5.6-2.3,8.5-3.2
		c3.2-1,6.1-2.6,8.4-4.9c3.9-3.8,7.5-7.8,11.3-11.8c2-2.2,1.9-4.8,1.9-7.8c-2,1.3-3.4,3.1-5.9,3.7c0.4-0.8,0.5-1.3,0.7-1.6
		c1.3-1.4,2.6-2.8,3.8-4.3c0.4-0.5,1.1-1,1.1-1.5c-0.2-2.2-0.1-4.4-0.8-6.6c-3.4,1.2-6.1,3.5-10,4.1c2.4-4.3,6.3-5.7,9.8-7.8
		c-0.2-3.2-0.3-6.3-0.6-9.4c-0.3-3.1,0.3-6.3-0.6-9.5c-2.1,0.5-3.7,1.7-5.9,1.1c1.3-2.6,3.9-3.1,6-4.4c0.5-6.1,1.1-12.2,1.6-18.2
		c-1.5-0.4-2.7,0.9-4,0c0.8-1.4,2.1-2.1,3.4-2.5c1-0.3,1.4-1,1.4-1.9c0-0.7,0-1.4,0-2.1c-1-0.1-1.8-0.2-3.1-0.4
		c0.9-0.8,1.3-1.3,1.8-1.5c1.6-0.5,2-1.7,2.3-3.3c0.5-4.1,1.1-8.2,1.9-12.3c1.2-6.1,3-11.9,6.8-17c0.2-0.2,0.2-0.6,0.2-0.8
		c-1.2-0.5-2.4-0.8-3.5-1.3c-0.6-0.2-1.4-0.6-1.5-1.1c-0.2-1.1-0.9-1.2-1.6-1.5c-0.9-0.5-1.8-1-2.8-1.6c0.1-0.2,0.1-0.4,0.2-0.5
		c1.8-0.2,3.6-0.2,5.3,0.2c2,0.4,3.9,1,5.8,1.5c0.8,0.2,1.5,0.4,2.2-0.3c2-2.1,4.1-4.2,6.2-6.4c-1-0.6-1.9-1.2-2.8-1.8
		c-0.8-0.6-1.6-1.2-2.4-1.8c-0.1,0.1-0.2,0.3-0.3,0.4c0.9,0.8,1.8,1.7,2.7,2.5c-1.1,1.3-2.2,1.6-3.5,0.9c-0.8-0.4-1.6-0.7-2.5-0.2
		c-0.3,0.2-0.8,0-1.2-0.1c-1.7-0.7-3.4-1.5-5-2.3c-0.3-0.2-0.6-0.6-1.2-1.3c1.4,0.1,2.2,0.2,3.5,0.4c-4-3.2-7.8-6.1-11.6-9
		c-0.9,2.3-0.9,2.3,0.7,3.3c1.7,1,3.4,2.1,5.1,3.1c0.4,0.3,0.7,0.7,1,1.1c-0.3,0.2-0.4,0.4-0.6,0.4c-0.3,0-0.6-0.1-0.9-0.2
		c-2.3-1.1-4.6-2.1-6.9-3.3c-0.7-0.4-1.4-0.5-1.9,0.1c-0.6,0.6-0.3,1.7,0.4,2.3c0.1,0,0.1,0.1,0.2,0.1c2.9,2,5.8,3.9,9.2,5.1
		c2.1,0.8,4.1,1.8,6.1,2.7C358.1,279.9,358.7,280.4,359.2,280.7z M374.3,71.4c0.5,3.2,1,6.3,3.2,8.8c2.8,3.2,5.6,6.3,8.4,9.5
		c1.1,1.2,2.3,1.7,4,1.6c2.5-0.1,5-0.1,7.4,0.2c2.1,0.3,3.5-0.2,4.8-1.8c3.2-3.8,6.6-7.4,9.8-11.1c1.4-1.7,2.7-3.6,4-5.4
		c0.3-0.4,0.3-0.9,0.5-1.4c-1.3,0.8-2.2,1.7-3.3,2.6c-1,0.8-2.1,1.6-3.7,1.5c0.2-0.5,0.3-0.8,0.5-1c1.6-2.3,3.1-4.6,4.8-6.9
		c1.6-2.2,2.9-4.6,3.4-7.4c0.5-3.3,0.8-6.7,1-10c0.1-2.2-0.3-4.4-1-6.5c-0.5,0.1-0.8,0.1-1,0.1c-8.2,2.9-16.7,3.2-25.3,2.6
		c-4.1-0.3-8-1.2-11.8-2.8c-2.1-0.9-4.3-1.4-6.7-2.2c-0.2,1.2-0.4,2.1-0.4,3.1c-0.1,5.5-0.2,11-0.1,16.5c0,1.4,0.4,2.8,0.8,4.2
		c0.5,1.5,1.3,2.9,1.9,4.4c0.1,0.2,0.1,0.5,0.1,0.8C375.2,70.9,374.8,71.1,374.3,71.4z M460.4,457.2c1.7,0.2,3.2,0.3,4.6,0.6
		c6.8,1.3,13.6,2.7,20.4,4c7.3,1.4,14.6,2.8,21.9,4.2c2.7,0.5,5.4,1.6,8.1,1.8c8.9,0.8,17.8,2.1,26.6,3.6c8.3,1.4,16.6,2.7,24.8,4
		c2.2,0.4,2.4,0.3,3.1-1.8c1.9-6.3,3.8-12.5,5.5-18.8c2-7.6,3.8-15.2,5.8-22.7c2.6-9.6,5.3-19.1,8.2-28.5c2.1-6.8,4.4-13.5,6-20.5
		c1.9-8.2,4-16.3,5.9-24.5c0.8-3.3,1.1-6.6,1.8-9.9c1.7-7.4,3.5-14.8,5.2-22.2c2.1-9,4.2-17.9,6.1-26.9c1.2-5.5,2.2-11,3.2-16.5
		c0.7-3.9,1.4-7.9,1.9-11.8c0.9-7.7,1.5-15.4,2.3-23.1c0.5-5.7,0.4-11.3-0.3-17c-0.8-6.4-2.3-12.6-4.6-18.6
		c-5.7-14.7-15.1-27-25.9-38.3c-0.6-0.6-1.3-1.2-2-1.7c-4.3-2.7-8.7-5.4-13-8.1c-0.4-0.3-1-0.3-1.4-0.5c0.2,0.5,0.5,0.7,0.8,1
		c5.7,4.4,11.6,8.5,16.6,13.8c5.6,5.9,10.5,12.3,14.6,19.3c5.1,8.8,9.6,17.9,10.5,28.3c0.4,4.7,1.2,9.4,1.5,14.1
		c0.5,9.1,0,18.3-1.3,27.3c-1.4,9.5-3.3,18.9-5.3,28.3c-1.1,5.3-2.6,10.5-3.8,15.8c-1.7,7.6-3.2,15.3-5,22.9c-1.2,5-2.5,9.9-3.2,15
		c-0.9,6.9-2,13.7-3.8,20.5c-2.2,7.9-3.9,16-6.8,23.7c-1,2.7-2,5.4-2.8,8.1c-0.9,3.1-1.6,6.2-2.5,9.2c-1.6,5.5-3.3,10.9-4.8,16.3
		c-1.7,6.3-3.2,12.7-4.9,19c-1,3.6-2,7.2-3.1,10.8c-1.3,4.1-2.6,8.2-3.9,12.3c-0.1,0.4-0.2,0.8-0.4,1.1c-0.4,0.9-1.1,1.2-2.2,1
		c-2-0.4-4.1-0.7-6.1-1c-7.1-1-14.2-2.1-21.3-3c-9.3-1.2-18.6-2-27.7-4c-7.3-1.6-14.7-2.8-22.1-4.3c-7.5-1.5-15-3.2-22.5-4.7
		c-1.5-0.3-3.1-1-4.8-0.2C460.3,455.7,460.3,456.4,460.4,457.2z M450.5,184.2c-0.3,1.1-0.6,1.6-0.7,2.2c-2,9.9-3.9,19.9-5.9,29.8
		c-1.2,5.8-1.3,11.5-0.2,17.4c1.2,6.3,3.6,12.3,5.5,18.3c0.1,0.4,0.5,0.9,0.8,1.1c1.8,0.6,2.5,2.1,3.1,3.7c0.2,0.5,0.5,0.9,1,1.7
		c0.4-1.1,0.7-1.8,0.8-2.6c2.5-13,5.5-25.9,9.5-38.6c0.2-0.6,0.3-1.3,0.1-1.9c-1.1-3.3-2.1-6.6-3.5-9.7c-2.9-6.5-6.1-12.8-9.2-19.2
		C451.6,185.9,451.1,185.3,450.5,184.2z M509.3,278.5c-1.8,1.5-3.4,2.7-4.7,4c-1.1,1.1-1,3.1-0.1,3.9c1.2,1,2.8,0.6,3.8-1
		c0.7-1.1,1.3-2.3,2.2-3.1c5.1-4.3,10.5-7.8,17.3-8.6c0.6-0.1,1.3-0.2,1.9-0.5c0.3-0.1,0.8-0.6,0.7-0.8c-0.1-0.4-0.4-1-0.7-1.1
		c-0.8-0.2-1.6-0.3-2.4-0.1c-3.6,0.6-7,1.5-10.2,3.3c-0.6,0.3-1.2,0.6-1.8,0.9c-0.1-0.1-0.2-0.2-0.3-0.4c0.5-0.6,0.9-1.2,1.4-1.7
		c2-2,4.4-3.2,7-4c0.6-0.2,1.3-0.4,2-0.7c-0.4-0.8-0.6-1.4-0.9-2c-2-4.2-3.9-8.4-5.9-12.6c-0.8-1.7-1.4-3.4-2.1-5.1
		c-0.7-1.5-0.9-1.5-2.9-0.7c0.4,1.3,1.2,2.5,1.3,3.8c0,2,0.7,3.7,1.4,5.5c0.6,1.7,1.2,3.5,1.7,5.2c0.1,0.4,0,0.9,0,1.4
		c-0.4-0.1-0.6-0.2-0.8-0.3c-0.2,0-0.4,0-0.5-0.1c0.1,1.6,0.3,3.1,0.4,4.7c-1-0.2-1.5-0.5-1.9-0.9c-1.3-1.8-2.6-3.6-3.7-5.6
		c-0.7-1.3-1.5-2.3-2.5-3.4c-1.9-2.1-3.4-4.4-5-6.7c-0.7-0.9-0.5-1.8,0.6-2.4c3.1-1.7,6.1-3.5,9.7-4.1c0.7-0.1,1.3-0.4,2-0.6
		c-0.9-1.4-0.9-1.4-1.9-1.3c-4.5,0.4-9,1.2-13.3,2.8c-4.9,1.8-9.1,4.5-13.1,7.8c-1.3,1.1-2.5,2.3-3.6,3.5c-0.6,0.7-0.9,1.7,0,2.6
		c0.8,0.8,1.5,0.7,2.7-0.1c3.3-2.3,6.5-4.6,9.9-6.8c0.9-0.6,2-1.2,3.7-0.8c-0.8,0.8-1.3,1.5-2,2c-1.5,1.1-3,2.1-4.6,3
		c-2.2,1.3-4.3,2.7-6,4.7c5.1,6.4,10.1,12.6,15.2,19C505.2,279.9,506.7,278.4,509.3,278.5z M460,309c2.3,0.2,2.5,0.1,3.2-1.6
		c0.4-1.2,0.8-2.4,1-3.7c0.5-4.1,0.9-8.2,1.4-12.4c0.3-2.1,0.4-4.3,0.9-6.4c1.2-4.1,0.4-8.1-0.4-12.1c-0.1-0.5-0.6-1.1-1-1.4
		c-2.1-1.3-4.2-2.2-6.5-0.5c-0.1,0.1-0.3,0.2-0.5,0.1c-0.5-0.1-1.2-0.1-1.4-0.5c-0.2-0.3,0-1,0.2-1.5c0.1-0.3,0.5-0.7,0.8-0.8
		c2.2-1.2,4.5-2.2,6.9-0.4c0.3,0.2,0.7,0.4,1,0.5c2.9-2.9,4.1-6.3,4.4-10.2c0.3-4.7,0.7-9.4,2.1-13.9c0.4-1.4,0.2-2.6-0.3-4
		c-1.5-4-3-8.1-4.3-12.2c-0.7-2-1-4.2-1.5-6.3c-0.6,1.2-0.9,2.4-1.2,3.6c-2,9.6-4.3,19.1-5.8,28.8c-0.2,1.3-0.5,2.7-0.8,4
		c-0.8,3.7-1.7,7.3-2.6,10.9c-0.4,1.8-0.6,3.5-1.2,5.3c-0.5,1.6,0.4,3.7,0.6,5.6c0.2,1.8,0,3.7,0.6,5.5c0.6,1.9,0.3,3.3-0.4,5
		c-1,2.4-1.2,4.9,0.3,7.3c1.7,2.7,2.9,5.7,3.8,8.7C459.5,307.5,459.8,308.3,460,309z M478,312.9c0.3,0.9,0.8,1.6,0.8,2.4
		c0.1,1.3-0.1,2.7-0.2,4c-0.7,6.7-1.3,13.3-2.1,20c-0.4,3.4-1.4,6.7-1.9,10.1c-0.4,2.5-0.7,5.1-0.9,7.6c0,0.4,0.3,0.8,0.5,1.4
		c2.1-2.6,3.6-5.2,4.5-8.2c2.9-9.7,5.3-19.5,7-29.5c0.7-4,1.3-8.1,1.6-12.1c0.4-6.4,0.6-12.7,3.3-18.7c2.3-5.2,1.7-11,2-16.6
		c0.1-1.6-1.1-2.7-2.5-3.8c-0.9,5.2-0.7,10.3-3,15c-0.4-0.5-0.6-1.1-0.5-1.6c0.2-3.1,0.4-6.2,0.6-9.3c0.2-2.2,0.4-4.5,0.5-6.7
		c0.1-1.4-0.9-2.3-2.4-2.4c-0.2,3.1-0.1,6.2-0.5,9.3c-0.6,4.5-1.3,9-2.5,13.4c-0.6,2.3-1.3,4.6-1.6,6.9c-0.2,1.9-0.4,3.8-0.6,5.7
		C479.3,304.3,478.6,308.6,478,312.9z M489.8,411.2c0.5-1.2,0.5-2.3,0.6-3.4c0.2-1.7,0.2-3.5,0.7-5.2c1.3-4.8,2.1-9.7,2.8-14.6
		c1.2-7.5,2.8-14.9,4.1-22.4c0.5-2.8,0.8-5.7,1.2-8.5c0.1-0.8,0.2-1.7,1.5-2.4c0,1.1,0,1.9,0,2.6c0,6-1.3,11.9-2.3,17.8
		c-0.8,4.6-1.9,9.1-2.6,13.7c-0.6,4-1.1,8.1-2.4,12c-1.4,4-1.2,8.2-1.5,12.3c0,0.1,0.1,0.3,0.2,0.4c1.9-0.2,2.1-1.6,2.3-3.1
		c0.6-5.6,1.7-11.1,3.4-16.4c0.2-0.7,0.5-1.4,0.8-2.1c0.3,4.4-0.8,8.6-0.7,12.9c1.5-5.9,2.8-11.8,4.2-17.7c0.4-1.5,0.7-2.9,0-4.4
		c-0.4-0.9-0.3-2.1-0.2-3.1c0.4-5.9,1.2-11.7,2.6-17.5c1.7-7.2,2.9-14.4,4.2-21.7c0.3-1.6,0.3-3.2,0.4-4.8c-0.2,0-0.4-0.1-0.6-0.1
		c-0.3,0.8-0.8,1.7-1,2.5c-1.1,4.1-2.2,8.2-3.4,12.2c-0.2,0.8-0.3,1.8-1.8,2c-0.7-4.7,1.7-9.1,1.1-14c-2.4,2.1-4.7,4.1-7,6.1
		c0.3,0.7,0.7,1.2,0.9,1.8c0.3,0.7,0.7,1.5,0.6,2.2c-0.2,2-0.3,4-0.9,5.9c-1,3.8-2.3,7.5-3.4,11.3c-0.9,3.1-1.8,6.2-2.2,9.3
		c-0.6,4.4-0.8,8.9-1.2,13.4c-0.1,1.8-0.3,3.6-0.3,5.5c0,2.1,0.3,4.3,0.1,6.4c-0.2,2.7-0.8,5.4-1.1,8.1
		C488.9,409,488.5,410.1,489.8,411.2z M539.4,287.7c-0.2-0.6-0.4-1.2-0.7-1.7c-2.2-3.1-4.6-6.2-7.6-8.6c-0.6-0.5-1.7-0.6-2.4-0.5
		c-4.6,0.8-8.8,2.8-12.7,5.4c-0.3,0.2-0.7,0.5-0.8,0.8c-1.3,2.9-2.4,5.8-1.7,9.2c0.8,3.9,3,6.8,5.9,9.3c1.1,1,1.9,2,2.2,3.6
		c0.2,1.1,0.8,2.3,1.4,3.3c1.3,2,2.6,4,4,6c0.4,0.6,0.8,1.1,1.4,1.8c2.3-1.9,3.2-4.1,2.6-6.7c-0.5-2-1.3-3.9-2.3-5.7
		c-1.6-2.9-2.5-6-3.2-9.2c-0.3-1.1,0-2.3,0-3.6c1.8,0,3.2,0,4.8,0c-1.9,1.7-2.1,2.6-0.8,5.2C532.6,293.4,535.9,290.6,539.4,287.7z
		 M477.8,430.3c0.2,0.1,0.4,0.1,0.6,0.2c0.3-0.7,0.9-1.3,1-2c0.5-2.2,1-4.4,1.2-6.6c0.3-3.7,0.3-7.5,0.6-11.2c0.3-3.3,1-6.5,1-9.8
		c0.1-3.2,0.3-6.4,2-9.2c0.4-0.6,0.6-1.3,0.7-2c1.2-6.1,2.6-12.2,3.4-18.4c0.6-4.9,1-9.8,2.9-14.5c0.3-0.7,0.6-1.5,0.7-2.3
		c0.3-1.6,0.5-3.3,0.7-5c0-0.5-0.2-1.2-0.6-1.4c-1.3-0.9-2.7-1.6-4.1-2.4c-0.2,0.7-0.3,1.2-0.5,1.8c-1.4,5.2-2.4,10.6-5,15.5
		c-0.3,0.5-0.4,1.2-0.5,1.8c-1.1,6.9-2.2,13.7-3.3,20.6c-0.6,3.8-1.4,7.6-1.1,11.4c0.1,1,0.4,2,0.6,2.8c-0.2,1.1-0.6,2.2-0.6,3.3
		c0.1,2.9,0.4,5.7,0.4,8.6c0,3.5-0.4,7-0.6,10.5C477.1,424.7,476.8,427.6,477.8,430.3z M242.2,315.8c0.9,1.9,1.9,2.9,4.1,2.6
		c1-0.1,2.1,0.9,3.1,1.4c0.7,0.4,1.3,1.1,2,1.2c2.6,0.4,3.9,2,4.4,4.4c0.2,0.8,0.5,1.5,1.3,1.8c6.2,2.7,12,6.3,17.7,10
		c1.6,1,3.2,2.2,4.7,3.4c0.8,0.6,1.5,1.5,0.4,2.6c-7.7-4.9-14.8-10.6-23.2-15c-0.4,1.8-0.7,3.3-1,4.9c10.4,5.1,17.8,12.8,22.2,23.6
		c0.4-0.6,0.7-0.9,0.8-1.2c0.9-2.7,1.9-5.4,2.6-8.2c0.9-3.6,1.6-7.2,2.3-10.8c0.4-2.3,0.2-2.7-1.9-3.8c-2.2-1.2-4.3-2.4-6.6-3.5
		c-8.1-3.9-16.3-7.7-24.4-11.6c-2.4-1.1-4.7-2.3-7.1-3.6C243.1,314.7,242.6,315.3,242.2,315.8z M462.2,411.7c1.5-1.6,2-3.4,1.2-5.3
		c-1.7-4.3-3.9-8.2-7.2-11.5c-2-2-3.7-4.4-5.4-6.7c-0.2-0.3-0.2-0.8-0.4-1.7c5.3,3.4,9.7,7,12.9,12.2c0.6-1.3,0.7-2.3,0.3-3.2
		c-0.8-2.2-1.5-4.4-2.5-6.5c-2.7-5.3-6.6-9.6-10.9-13.6c-0.5-0.5-1.1-0.8-1.9-1.4c-0.6,1.9-1.1,3.5-1.6,5.2
		c-1.1,3.4-2.2,6.8-3.3,10.2c-0.4,1.1-0.1,1.9,0.8,2.7c3.6,3.5,7.2,7,10.6,10.7c2.4,2.6,4.5,5.4,6.8,8.1
		C461.7,411.3,461.9,411.4,462.2,411.7z M498.4,335c6.5-3.2,11.1-8.3,16.2-12.6c-1.4-3.4-0.8-4.6,2.5-5.9c0.1-1.4-0.2-2.9,0.3-4
		c0.5-1.2,1.7-2.2,2.7-3.4c-0.2-0.5-0.6-1.2-0.9-2c-0.4,0.2-0.7,0.4-0.9,0.6c-6,4.7-12.1,9.4-18.1,14.2c-1.8,1.4-3.3,3.2-4.6,5.1
		c-1.7,2.5-1.2,5.2,1,7.2c0.2,0.1,0.2,0.4,0.5,0.9c-1.2-0.2-2.1-0.3-3-0.4c-0.6,0-1.4,0-1.7,0.4c-0.8,1.1-1.5,2.3-1.9,3.5
		c-0.4,1.2-0.1,2.4,1,3.2c1.2,0.8,2.4,0.8,3.6,0.1c2.2-1.3,4-3,5.3-5.2C499.8,336.2,499.3,335.7,498.4,335z M560,290.8
		c-0.6-0.3-1.2-0.6-1.7-1c-1.5-1.3-3.2-1.6-5.1-1.2c-2.2,0.4-4.5,0.4-6.7,0.9c-2.4,0.5-4.9,0.4-7,2c-2.9,2.3-5.9,4.4-8.8,6.6
		c-1.3,1-1.4,1.7-0.6,3c0.3,0.4,0.6,0.8,0.9,1.1c1.6,2.2,4.3,2.3,6.3,0.4c1.6-1.5,3.3-3,5.1-4.4c0.8-0.6,1.9-1,3-1.3
		c3.6-0.8,7.2-1.5,10.8-2.2c3.7-0.7,6.5-2.6,8.4-5.8c0.5-0.9,0.9-2.1,1-3.1c0.2-2.1-0.9-3-2.9-2.5c-1.7,0.3-3.1,1.3-4,2.8
		C558.9,287.8,560.8,288.8,560,290.8z M452.9,355.8c-1.5,5.3-2.8,10.1-4.1,14.8c-0.3,1.2,0.4,1.7,1.2,2.4c5.1,4.2,9.8,8.7,13.1,14.5
		c0.2,0.4,0.5,0.7,1.1,1.4c0.1-1,0.2-1.5,0.2-2c0-2.2,0-4.5,0-6.7c-0.1-9.4,0.2-7.8-4.2-15.8c0-0.1-0.1-0.1-0.1-0.2
		C458,361.2,456,358.5,452.9,355.8z M333.8,163.5c-2,0.4-3.8,0.9-5.6,1.2c-4.6,0.8-9.3,1.3-13.7,3.3c-1.8,0.9-3.7,1.8-5.7,2.7
		c0.5,0.6,0.7,0.9,1,1.2c3.2,2.2,6.2,4.7,9.9,6.1c2.2,0.8,4.3,1.7,6.4,2.6c0.5,0.2,1,0.5,1.5,0.6c0.9,0.3,1.4-0.1,1.5-1
		c0.1-0.7,0.1-1.4,0.1-2.2c0.2-4.6,1.3-9,3.7-13C333.3,164.7,333.5,164.1,333.8,163.5z M445.7,283.2c1,1.5,2,2.8,2.8,4.2
		c0.8,1.5,1.5,3,2.4,4.6c0.5-1.3,1.1-2.3,1.4-3.4c0.2-0.8,0.5-1.7,0.3-2.5c-0.4-2.9-0.9-5.8-1.4-8.8c-0.3-1.7-0.7-3.3-1.1-5.1
		c-1.7,0.6-2.8,2.1-5,1.6c0.4-0.9,0.6-1.8,1.1-2.4c0.9-1.1,2-2.1,2.9-3.2c0.7-0.8,1.7-1.6,1.8-2.5c0.5-3.1,0.3-6.1-1.4-9.2
		c-0.8,0.9-1.4,1.6-2,2.4c-1.7,1.9-3.4,3.8-5.8,5c-3.3,1.7-6.5,3.7-9.9,5.6c1.7,1.3,3.4,2.5,5,3.7c0.2,0.2,0.6,0.3,0.9,0.2
		c1.5-0.1,3.1-0.3,4.6-0.4c0.5,0,1,0.1,1.9,0.3c-0.8,1.1-1.3,2-1.9,2.9c1.3-0.2,2.2-1.2,3.7-0.1c-1.1,0.9-2,1.6-2.9,2.4
		c2,0,4.1,0,6.3,0C449.4,281.1,447,281.5,445.7,283.2z M344.4,254.8c-0.4,4.1,0.1,4.9,3.5,6.5c0.4,0.2,0.9,0.4,1.3,0.6
		c5.5,3.4,11,6.7,16.5,10.1c0.5,0.3,0.9,0.7,1.3,1.1c1.3,1.4,3,1.8,4.7,2.1c0.9,0.1,1.9-1,2.9-1.5c1-0.5,2-1.1,2.9-1.6
		c0.4-0.3,0.8-0.6,1.4-1.1c-11.5-4.6-22-10.5-32.4-17C345.9,254.2,345.2,254.5,344.4,254.8z M302,607.5c0.5-1.5,0.8-2.8,1.3-4.2
		c1-2.8,0.7-5.3-1.1-7.7c-1.8-2.5-4.4-4.1-7-5.7c-0.8-0.5-1.4-0.2-2.2,0.4c-2.2,1.9-4.4,3.7-6.6,5.5c-1.9,1.6-2.3,2.6-1.8,5.6
		c0.4-0.8,0.6-1.5,1-2c0.2-0.3,0.8-0.6,1.1-0.5c0.3,0.1,0.6,0.7,0.6,1.1c0,1-0.3,1.9-0.3,2.9c0,1,0.3,1.8,1.6,1.5
		c1.1-1.3,0.4-3.9,3.2-4.5c-0.1,1.1-0.1,1.9-0.3,2.6c-0.4,2.4-0.3,2.7,2.2,3.2c0.4,0.1,0.9,0.1,1.3,0.2c1.9-5.5,1.9-5.5,4-5.8
		c-0.1,0.8-0.1,1.6-0.2,2.3c-0.1,0.7-0.5,1.4-0.6,2.1c-0.5,2,0.1,2.9,2.1,3.1C300.9,607.7,301.4,607.6,302,607.5z M456.8,590.3
		c0.6,1.6,1.2,2.8,1.6,4.1c1.2,3.4,3.6,5.2,7,5.7c3.7,0.5,7.4,1.1,10.6,3.3c0.5,0.4,1.1,0.7,1.7,0.8c1,0.2,2,0.4,3,0.3
		c0.6-0.1,1.3-0.6,1.6-1.2c1.4-2.6-0.1-5.4-3.1-5.9c-0.9-0.1-1.7-0.2-2.6-0.2c-2.2,0-3.7-1.2-5.1-2.8c-0.5-0.6-1.2-1.3-2-1.6
		c-1.8-0.8-3.7-1.4-5.6-2.1C461.8,590,459.5,590.2,456.8,590.3z M299.4,169.5c-1.8,2.1-1.6,3.5,0.5,4.8c2.3,1.5,4.6,3.1,7.1,4.4
		c5.1,2.7,10.3,5.3,15.6,7.9c1.4,0.7,3,1.1,4.5,1.5c2.2,0.5,2.9-0.2,3.1-2.5c-5.1-2.5-10.3-5-15.3-7.7
		C309.6,175.2,304.6,172.3,299.4,169.5z M371.3,80.3c-3.7-0.5-6.9-1-10.3-1.5c-0.2,2.4-0.5,4.7-0.7,7.1c3.5,1.1,6.9,0.3,10.2,0.4
		c-3.2,1.9-6.7,0.6-10.1,0.6c-0.2,2.1-0.8,4.1,0,6.1c2.2,0,4.4,0.2,6.5-0.1c1.9-0.3,3.6-1.1,5.4-1.7c0.8-0.3,1.2-1.1,1-2
		C372.7,86.2,372,83.1,371.3,80.3z M455.6,343.3c1.2,1.2,2.5,2.3,3.6,3.5c1.1,1.2,2,2.5,3.3,4.1c0.1-1,0.2-1.3,0.2-1.7
		c-0.5-7.6-1.2-15.1-3.2-22.5c-0.4-1.7-1.2-3.3-1.9-4.9c-0.2-0.4-0.6-0.8-0.9-1.2C456.4,328.3,456,335.8,455.6,343.3z M310.4,610.4
		c1.5,0.1,2.9-0.4,3.7-1.5c1.8-2.6,3.7-5.2,5.3-8c1.2-2-0.4-4.7-2.7-4.3c-0.5,0.1-1,0-1.4,0.1c-4.9,0.8-9.1,6.4-9.6,10
		c-0.4,2.7,0.1,3.2,2.8,3.5C309.1,610.2,309.7,610.3,310.4,610.4z M545.4,300.3c-4.2,2.4-6.1,5.8-6.1,10.3c-2.8-0.2-3.5-3.1-5.7-3.6
		c0,2.3,0,4.4,0,6.5c0,1.4,0.3,1.8,1.9,1.6c2.8-0.3,5.5-0.6,8.3-1c0.4,0,0.8-0.2,1.2-0.3C546,309.4,545.6,305,545.4,300.3z
		 M489.3,594.8c0.1-0.1,0.1-0.2,0.2-0.2c0.7,0.9,1.3,1.8,2,2.6c0.5,0.6,1.1,1,1.9,0.6c0.9-0.5,0.9-1.4,0.4-2.1
		c-0.8-1-1.7-2.2-2.8-2.8c-2.6-1.4-5.4-2.4-8.1-3.6c-0.7-0.3-1.5-0.6-2.3-0.7c-0.4,0-1.1,0.2-1.4,0.6c-1,1.6-0.7,3.5,0.8,4.8
		c0.7,0.6,1.5,1.2,2.2,1.8c1.9,1.6,3.2,3.5,3.1,6.2c0,0.4,0.1,0.9,0.2,1.3c2.4-0.7,2.6-0.9,2-2.9c-0.6-1.9-1.4-3.7-2.1-5.6
		c1.8,1.2,3,2.7,3.5,4.7c0.2,0.8,0.6,1.6,1.6,1.3c1-0.3,1-1.2,0.7-2C490.6,597.5,489.9,596.1,489.3,594.8z M501.2,425.3
		c0.6-1.2,1.2-1.9,1.5-2.8c2.6-6.6,4.6-13.3,4.7-20.4c0.1-4.5,0.5-8.9,0.8-13.4c0.1-1,0-2.1,0-3.1c-0.6,0.8-0.8,1.7-1,2.5
		c-0.5,1.6-0.8,3.3-1.5,4.8c-0.6,1.3-0.7,2.6-0.8,3.9c-0.3,4-0.6,8-1.2,11.9c-0.7,4.7-1.7,9.4-2.5,14.1
		C501.1,423.6,501.2,424.3,501.2,425.3z M222.8,319.1c0.1-2.5,0.3-4.9,0.4-7.2c0.1-5.6-0.4-3.8,2-8.2c-0.9-0.5-1.8-0.9-2.8-1.5
		c-0.4,1.3-0.9,2.5-1.3,3.7c-0.1,0-0.3,0-0.4-0.1c0-1.7,0-3.3,0-5c-0.2,0-0.4,0-0.5,0c-0.3,1.6-0.5,3.2-0.8,4.8
		c-0.3,1.6-0.6,3.3-1,4.9c-0.4,1.7-0.8,3.4-1.2,5.1c-0.8,3.3-0.8,3.3-0.3,4.9c1.1-3.1,1.4-6.3,3.7-8.8c-0.5,2.6-1,5.2-1.6,8.1
		C220.1,319.6,221.3,319.4,222.8,319.1z M453.5,353.7c4.2,2.9,7,7,9.9,11.6c-0.1-7.6-0.3-9-2.7-12.3c-1.7-2.4-3.1-5.1-5.9-6.9
		C454.3,348.7,453.9,351.1,453.5,353.7z M244.7,320.3c-1,3.4-1.9,6.6-2.7,9.7c-0.4,1.5,0.2,2.7,1.5,3.3c1,0.4,2.3,0,3-1.3
		c1.8-3.1,2.4-6.4,2.2-9.9c-0.1-1.5-0.9-2-2.5-2C245.7,320.2,245.1,320.2,244.7,320.3z M475.1,309.3c-1.4,7-3,13.8-1.7,21
		c0.6-0.8,1.3-1.5,1.4-2.4c0.7-3,0.9-6.2,1.8-9.1C477.8,315.2,476.2,312.3,475.1,309.3z M233.8,330.5c1.2,1.8,2.8,1.4,4.2,1.2
		c0.4-0.1,0.9-0.6,1-1.1c0.8-3.1,1.6-6.2,2.4-9.3c0.3-1.1-0.1-1.9-1.2-2.2c-1.2-0.4-1.9-0.1-2.5,1.2c-0.3,0.8-0.7,1.7-0.7,2.5
		C237.2,325.9,236.6,328.7,233.8,330.5z M534.4,323.1c0-0.2,0-0.3-0.1-0.5c-0.5-0.1-1.1-0.2-1.6-0.3c-2.5-0.4-4.5-1.4-5.9-3.6
		c-1.3-2-2.8-3.8-4.2-5.8c-0.4-0.6-0.9-1.4-1.7-0.9c-0.6,0.3-1.4,1-1.5,1.6c0,0.9,0.2,2.1,0.8,2.8c1.5,1.8,3.3,3.4,5,5.1
		c0.3,0.3,0.6,0.5,1,0.6c2.4,0.4,4.9,0.8,7.3,1.2C533.8,323.4,534.1,323.2,534.4,323.1z M456.8,601.4c0.1-0.1,0.3-0.3,0.4-0.4
		c-0.6-0.9-1.2-1.7-1.7-2.6c-1.7-2.9-4.2-4.5-7.4-5.1c-3.8-0.7-7.7-1.3-11.5-1.9c-0.1,0-0.3,0.1-0.5,0.2c0.1,1.5,0.8,2.3,2.4,2.3
		c1.4,0.1,2.9,0.2,4.3,0.4c4.6,0.5,8.9,1.9,12.2,5.4C455.4,600.4,456.1,600.8,456.8,601.4z M287.1,607.9c0.4,0.3,0.6,0.5,0.8,0.6
		c6.6,1.9,13.1,4,19.7,5.8c2.6,0.7,4.7-0.7,6.4-2.6c-0.8,0-1.5,0.3-2.2,0.5c-1,0.3-2,0.7-3,0.6c-2.2-0.3-4.5-0.3-6.4-1.8
		c-0.3-0.2-0.7-0.2-1.1-0.3c-3.1-0.7-6.1-1.5-9.2-2.2c-0.1,0-0.1-0.1-0.2-0.1C290.5,607.5,289,607.4,287.1,607.9z M254.4,328.8
		c-0.1,0-0.2-0.1-0.3-0.1c0-0.8,0-1.6,0-2.4c-0.1-1-0.3-2.1-1.5-2.1c-1.4-0.1-1.3,1.2-1.4,2.1c-0.4,2.4-0.7,4.9-2.3,6.9
		c-0.8,1-0.3,1.8,1,1.9c1.5,0.2,2.7-0.5,3.3-1.8C253.7,331.9,254,330.3,254.4,328.8z M501.1,283.4c-0.1,0-0.2,0.1-0.4,0.1
		c-0.4,2.9-0.8,5.8-1.2,8.5c1,1.2,2,0.4,3,0.2c1-0.2,2-0.6,3-0.8c1.1-0.2,2.3-0.4,3.6-0.5c-0.2-0.3-0.3-0.5-0.5-0.5
		c-0.7-0.2-1.4-0.3-2.1-0.4c-3-0.6-4.4-2-4.8-5.1C501.5,284.3,501.3,283.9,501.1,283.4z M515.9,319.9c0.9,0.6,1.8,0.9,2.5,1.5
		c1.3,1.1,2.4,2.3,3.6,3.4c1.1,1.1,2.4,1.5,3.9,1.6c0.9,0,1.7,0,2.2-0.9c-0.2-0.2-0.2-0.4-0.3-0.4c-2.5-0.1-4.2-1.6-5.6-3.5
		c-0.4-0.5-0.9-0.9-1.3-1.4C519.3,318.7,518.6,318.6,515.9,319.9z M542,317.6c-3.5-0.4-6.9,1.4-9.9-0.9c-0.7,0.8-1.2,1.4-2,2.3
		c2.5,0.5,4.5,0.9,6.6,1.4C539.5,320.9,540.3,320.5,542,317.6z M458.4,317.2c0-5-2.3-9.2-3.9-13.6c0.6,4.7,1.2,9.3,1.9,14
		C457.2,317.5,457.6,317.4,458.4,317.2z M510.7,293.9c-0.2,0.1-0.3,0.2-0.5,0.3c0.8,1.9,1.3,4,2.9,5.6c1.3,1.3,2.3,2.8,2.9,4.6
		c0.1,0.4,0.5,0.7,0.7,1.1c1.5-1.3,1.5-1.4,0.5-2.7c-1.6-2.1-3.3-4.1-4.9-6.1C511.6,295.8,511.2,294.8,510.7,293.9z M497.6,278.8
		c-0.3,0.1-0.5,0.2-0.5,0.2c-0.2,2.8-0.4,5.7-0.5,8.5c0,0.2,0.6,0.5,1.3,1c0.2-3,0.4-5.5,0.5-8C498.4,280,497.9,279.4,497.6,278.8z
		 M504,214.7c-0.5,4.5-0.5,4.5,1.9,5.9c0-1.9,0-3.6,0-5.3C505.3,215.1,504.7,214.9,504,214.7z M545.8,199.3c1.4-3.8,2.5-9.8,1.9-12
		C546.2,191.3,546.3,195.1,545.8,199.3z M537.3,258.7c-0.4,2.9-0.9,5.7-1.3,8.6c0,0.3,0.4,0.8,0.6,1.1c0.2-0.1,0.4-0.1,0.6-0.2
		C538.1,265.2,537.5,262,537.3,258.7z M225.5,323.8c-0.6,3.5,0.6,5.1,3.4,4.7C227.8,327,226.8,325.6,225.5,323.8z M550.3,268.4
		c0.3-1.8,0.8-3.6,0.1-5.4C549.8,264.8,549.3,266.6,550.3,268.4z M235.4,319.7c1.2-2.3,1.2-2.5-0.5-3.4
		C233.7,318.2,233.7,318.2,235.4,319.7z M494.6,275.9c-0.5,2.4-0.4,2.9,0.5,4C496.3,277.5,496.3,277.2,494.6,275.9z M574.1,208.1
		c0.9-4.1,0.8-5.3,0-6.6C574.1,203.8,574.1,206,574.1,208.1z"/>
	<path d="M396.8,239.8c-0.8,2.1-2.6,2.9-4.7,2.9c-3.9,0-7.6-0.7-10.8-3.3c-0.5-0.4-1.1-0.8-1.9-1.4c-0.7,2.9-1.4,5.6-2,8.2
		c-0.1,0.2-0.1,0.5,0,0.7c0.8,4.4,2.1,8.5,5.5,11.7c1.1,1,2.4,1.9,2.8,3.4c-0.8,1.1-1.7,1-2.7,0.8c-2.2-0.5-3.9-1.8-5.1-3.7
		c-1.8-3-3.1-6.2-3.7-9.5c-0.4-2.2-0.2-4.3,0.5-6.4c2.3-7.2,1.5-14.4-0.3-21.5c-1.2-5-2.7-10-4-15c-0.3-1-0.2-2.1-0.2-3.1
		c0-0.6,0.3-1.1,0.5-1.7c0.2-0.1,0.5-0.2,0.7-0.4c0.2,0.4,0.4,0.9,0.6,1.3c0.5,0.9,1.1,1.7,1.6,2.6c2,3.7,5.4,5.2,9.3,5.4
		c2.5,0.1,5.1-0.4,7.6-0.6c0.9-0.1,1.8-0.3,2.6-0.1c0.6,0.1,1.1,0.7,1.7,1.1c-0.4,0.5-0.7,1.3-1.2,1.6c-3.4,1.7-7.1,2.6-10.9,2
		c-2.1-0.3-4.1-1.1-6.2-1.7c-0.4-0.1-0.7-0.2-1.4-0.5c0.2,0.8,0.2,1.4,0.4,2c1.4,4.8,2.6,9.5,3.4,14.4c1.1,6.5,5.3,9.3,12.1,9.7
		c1,0.1,2.1-0.1,3.1-0.1C395.2,238.6,396.2,238.7,396.8,239.8z"/>
	<path d="M370.1,258.2c-3.1-1-5-2.7-6.4-4.8c-2.4-3.6-4.7-7.4-7-11.1c-0.6-0.9-1-1.9-1.7-3c1.8-0.3,2.8,0.6,3.5,1.6
		c1.2,1.6,2.3,3.3,3.4,4.9c2.2,3.1,4.4,6.3,6.5,9.4C369,256,369.4,256.9,370.1,258.2z"/>
	<path d="M340.4,125.8c0.1,0.4,0.3,0.9,0.2,1.3c-1.3,5.2-2.7,10.3-4.1,15.5c-0.1,0.4-0.5,0.7-1.2,1.1c-0.1-0.9-0.4-1.8-0.3-2.6
		c0.5-3.1,1.1-6.3,1.8-9.4c0.3-1.2,0.7-2.5,1.2-3.6c0.4-0.9,1.1-1.6,1.7-2.4C340,125.6,340.2,125.7,340.4,125.8z"/>
	<path d="M408.3,259c-2.5-1.2-4-3.3-5.4-5.4c-1-1.6-0.4-3.5,1-4.6c0.4-0.4,0.8-0.7,1.2-1.2c0.8-1,1.7-1.2,2.8-0.7
		c1.1,0.5,1.8,1.3,1.3,2.8c-0.3,0-0.6-0.1-0.9-0.1c-1.9,0-3.1,1.6-2.4,3.3c0.4,0.9,1.1,1.8,1.6,2.7
		C407.9,256.8,408.6,257.7,408.3,259z"/>
	<path d="M366.1,318c2.2-11.7,6-22.7,15.4-30.7C374.9,296.8,369.2,306.7,366.1,318z"/>
	<path d="M543.4,457.7c-0.1,2.4-1.6,3.8-3.8,3.7c-2.3-0.1-3.8-1.5-3.7-3.5c0.2-2.5,1.8-4.3,4-4.2
		C542.1,453.8,543.5,455.4,543.4,457.7z M541.5,457.4c-0.9-0.5-1.3-0.9-1.8-1c-0.8-0.1-1.4,0.8-1.3,1.6c0.1,0.8,0.8,1.1,1.4,0.9
		C540.3,458.7,540.7,458.1,541.5,457.4z"/>
	<path d="M599.1,331.4c0,1.8-0.6,3.3-1.9,4.4c-1,0.9-2.3,1.4-3.8,0.8c-1.5-0.6-2.4-1.6-2.5-3.2c-0.1-1.2,0.1-2.6,0.5-3.7
		c0.7-2,2.5-3,4.5-2.7c1.3,0.2,2.7,1.9,3,3.6C599.1,330.9,599.1,331.2,599.1,331.4z M597.5,331.9c-0.1-0.4-0.2-1-0.4-1.5
		c-0.5-1.3-1.5-1.9-2.8-1.8c-1.2,0.1-2,1-2.2,2.5c-0.1,0.5-0.1,1,0,1.4c0.2,1.5,1.2,2.6,2.4,2.5
		C596.2,334.9,597.5,333.5,597.5,331.9z"/>
	<path d="M520.3,458.2c-2.3,0-3.7-1.1-3.7-3.1c0-2.2,1.8-4.3,3.7-4.2c1.8,0.1,3.7,2.1,3.7,4C524.1,457.1,522.8,458.2,520.3,458.2z
		 M518.7,455.8c0.7,0.1,1.2,0.2,1.8,0.2c0.7,0,1.4-0.1,1.3-1c-0.1-0.5-0.5-1.2-0.9-1.5C519.9,453,519.3,453.6,518.7,455.8z"/>
	<path d="M498.7,448.8c1.7,0,2.9,1.3,2.9,2.9c0,2.1-1.8,4-3.8,3.9c-1.8-0.1-2.9-1.4-2.8-3.2C495,450.4,496.7,448.7,498.7,448.8z
		 M499.3,451.1c-0.7,0.1-1.1,0.1-1.3,0.2c-0.4,0.3-0.7,0.7-0.9,1.2c-0.1,0.1,0.5,0.8,0.7,0.8c0.5-0.1,1-0.4,1.3-0.8
		C499.3,452.3,499.2,451.8,499.3,451.1z"/>
	<path d="M591.5,359.4c-0.1,0.3-0.2,1.2-0.6,1.9c-0.8,1.6-1.9,2.2-3.4,2c-1.7-0.3-3.1-1.5-3.2-3.1c-0.3-2.7,0.8-4.4,3.5-5.2
		C589.7,354.5,591.4,356.3,591.5,359.4z M589.6,361.3c0-1.1,0-1.9,0-2.8c-0.1-1-0.7-1.7-1.6-1.7c-0.7,0-1.6,0.3-2.1,0.8
		c-0.8,0.9-0.6,2.1-0.2,3.1c0.5,1,1.4,1.2,2.4,1C588.6,361.6,589,361.5,589.6,361.3z"/>
	<path d="M565.7,457.1c-0.2,2.9-2.5,4.4-5.2,3.2c-0.5-0.3-1-0.8-1.3-1.3c-0.8-1.6,0.6-4.9,2.3-5.5c1.1-0.4,2.2-0.1,2.8,0.8
		C564.9,455.1,565.3,456.1,565.7,457.1z M562.8,455.6c-1.9,1.2-2.5,2-1.8,2.6c0.4,0.4,1.3,0.6,1.8,0.4
		C563.9,458.4,563.8,457.2,562.8,455.6z"/>
	<path d="M601.9,272.8c0-2.1,1.7-3.9,3.7-3.9c1.8,0,2.9,1.1,2.9,3.1c0.1,2.3-1.7,4.5-3.8,4.4C602.8,276.4,601.9,275.3,601.9,272.8z
		 M605.2,270.8c-1-0.1-1.9,0.8-1.9,2c0,1.2,0.6,2,1.8,2.1c1.2,0.1,1.9-0.6,2-2.1C607.1,271.7,606.3,270.8,605.2,270.8z"/>
	<path d="M610.4,239.3c-0.1,0.5-0.3,1.4-0.6,2.2c-0.7,1.6-2.1,2.2-3.5,1.9c-1.3-0.4-2.4-2-2.2-3.6c0.1-0.8,0.5-1.7,0.9-2.4
		c0.8-1.4,1.9-1.9,3.2-1.5C609.4,236.1,610.3,237.4,610.4,239.3z M609,239.7c0-0.9-0.9-1.9-1.7-2c-0.9,0-1.9,1.1-1.9,2.1
		c0,0.9,0.7,1.7,1.6,1.8C607.9,241.6,609,240.7,609,239.7z"/>
	<path d="M538,164.7c1.6-0.3,3,1.7,3.1,3.5c0.1,1.7-1.5,3.5-3.2,3.6c-1.6,0.1-3.8-1.9-3.8-3.6C534.1,166.4,536,164.7,538,164.7z
		 M539.5,168.3c0-1-1.1-2.1-2-2c-1,0.1-2,1.1-2,2.1c0,1,0.9,2,2,2C538.5,170.3,539.5,169.3,539.5,168.3z"/>
	<path d="M573.6,431c0,1.9-1.2,3.4-2.6,3.4c-1.6,0-3-1.4-3-3.1c0-1.7,1.3-3.1,2.9-3.1C572.4,428.2,573.6,429.4,573.6,431z
		 M571.7,430.4c-1.4-0.1-1.9,0.5-1.9,1.6c0,0.2,0.6,0.6,0.8,0.5C571.9,432.4,571.8,431.5,571.7,430.4z"/>
	<path d="M555.3,174c-1.9,0-3.2-1.2-3.3-3c-0.1-2.2,1.5-3.9,3.6-3.9c1.6,0,3.3,1.9,3.3,3.7C559,172.6,557.4,174,555.3,174z
		 M553.2,170.8c0,1.3,0.7,2.2,1.9,2.3c1.3,0.1,2.5-0.9,2.6-2c0.1-1.3-1-2.4-2.4-2.4C554,168.8,553.3,169.5,553.2,170.8z"/>
	<path d="M604.3,208.8c0,1.7-1.8,3.3-3.8,3.2c-1.5,0-2.8-1.3-2.8-2.7c0-1.9,2-3.9,3.8-3.9C602.9,205.5,604.3,207.2,604.3,208.8z
		 M601.4,206.9c-1.1,0-2.3,1.2-2.3,2.2c0,0.9,0.9,1.7,1.7,1.7c1,0,2-1.2,2-2.4C602.7,207.5,602.2,207,601.4,206.9z"/>
	<path d="M601.5,307.7c-1.6,0-2.8-0.9-2.8-2.3c0-1.6,1.5-3.5,2.8-3.5c1.5,0.1,2.6,0.9,2.6,2.4C604.3,306.2,603.1,307.6,601.5,307.7z
		 M602,303.9c-0.9,0.2-1.4,0.6-1.2,1.4c0.1,0.2,0.7,0.5,0.9,0.4C602.5,305.4,602.6,304.7,602,303.9z"/>
	<path d="M494.5,192.5c-1.7,0-2.9-1.1-3-2.8c-0.1-2,1.2-3.5,3-3.6c1.8,0,3.3,1.1,3.4,2.7C498.1,190.7,496.4,192.4,494.5,192.5z
		 M496.3,189.3c0-0.9-1-1.9-1.8-1.9c-0.9,0-1.9,1.1-1.9,2.1c0,0.9,1,1.7,1.9,1.7C495.4,191.1,496.3,190.2,496.3,189.3z"/>
	<path d="M581.7,186.2c-1.8,0.1-3.4-1.5-3.5-3.5c-0.1-1.2,1.5-2.8,2.7-2.8c2,0,3.6,1.5,3.6,3.4C584.5,184.9,583.2,186.2,581.7,186.2
		z M582.9,183.1c0-1.1-0.7-1.9-1.6-2c-1-0.1-2.1,1.1-2,2.2c0,1.1,0.7,1.6,1.9,1.6C582.3,184.9,582.9,184.3,582.9,183.1z"/>
	<path d="M583.6,394.4c0,1.7-0.7,2.9-2.3,3.6c-1.6,0.7-2.9,0-3-1.8c-0.1-0.8,0.1-1.6,0.2-2.4c0.2-1.8,1.1-2.7,2.5-2.7
		C582.3,391.3,583.6,392.8,583.6,394.4z M582.2,395.3c0-1.5-0.6-2.3-1.5-2.3c-0.9,0-1.6,0.9-1.6,2c0,1.2,0.7,2,1.6,1.9
		C581.8,396.8,582.2,396.1,582.2,395.3z"/>
	<path d="M429.7,296.1c4,1.9,5.5,5.2,7,8.6c2.7,6,3.7,12.3,3.9,18.9c0.2,8.4-0.9,16.6-2.1,24.8c-2,13.1-6.3,25.4-10.2,37.9
		c-1.3,4.2-2.8,8.3-4.1,12.4c-0.2,0-0.3-0.1-0.5-0.1c0.1-0.5,0.1-1.1,0.3-1.6c2.1-7.9,3.8-15.8,6.6-23.5c2.8-7.8,4.6-15.8,5.8-24
		c0.7-5,1.6-9.9,2.1-14.9c0.7-7.2,0.6-14.4-0.8-21.5c-1-5-3.1-9.7-5.6-14.2C431.6,297.9,430.7,297.2,429.7,296.1z"/>
	<path d="M439.3,375.4c0.5-8.4,2.7-16.5,4.5-24.6c1.3-5.9,2.1-12,2.2-18c0.1-5.5,0.1-11-0.1-16.5c-0.3-6.7-1.2-13.4-3.7-19.7
		c-0.7-1.8-1.5-3.5-2.3-5.2c-0.3-0.8-0.7-1.5-0.9-2.4c1.8,1.8,3.2,3.9,4.1,6.3c2.8,7,3.9,14.3,4.2,21.8c0.2,5.1,0.2,10.2,0.1,15.3
		c-0.1,9.9-2,19.5-4.7,29c-1.2,4.3-2.1,8.7-3.1,13C439.5,374.6,439.4,375,439.3,375.4z"/>
	<path d="M574.5,289.5c-0.2,2.9-0.4,5.7-0.6,8.6c-0.5,7.4-1.1,14.8-1.4,22.2c-0.2,5.2-1.1,10.2-2.8,15c-1.8,5-2.3,10.2-2.5,15.5
		c-0.3,6.4-1.5,12.7-3.4,18.8c-0.2,0.6-0.6,1.2-0.9,1.8c-0.2,0-0.4-0.1-0.6-0.1c-0.1-1-0.3-2-0.2-3c0.4-2.9,0.7-5.9,1.3-8.8
		c1-4.9,1.5-9.8,1.8-14.7c0.2-2.9,0.9-5.9,1.9-8.6c2.8-7.4,3.4-15,3.8-22.8c0.3-7.8,0.9-15.6,2.9-23.3c0.1-0.3,0.2-0.5,0.3-0.8
		C574.1,289.5,574.3,289.5,574.5,289.5z"/>
	<path d="M548.2,324.7c-0.5,6.5-0.4,13.1-2.8,19.3c-0.6-1.7-0.5-3.5-0.3-5.2c0.4-3.6,0.8-7.3,1.3-10.9
		C546.5,326.7,546.6,325.4,548.2,324.7z"/>
	<path d="M322.3,451.7c-1.5-4.1-2.5-8.2-0.3-12.4c1.6-3.3,1.7-6.9,2-10.5c0.2-2.4,1.2-4.4,2.6-6.2c1.1,0.4,0.9,1.1,0.7,1.6
		c-1.5,2.9-1.5,5.9-1,9.1c0.4,2.4-0.4,4.8-1.3,7C323.4,443.9,322.2,447.6,322.3,451.7z"/>
	<path d="M316.1,494.5c1.4,3.6-2.1,35.7-4.6,40.4c0.1-2,0.1-3.5,0.2-4.9c0.9-9.6,1.8-19.2,2.8-28.8c0.2-1.9,0.6-3.8,1-5.7
		C315.6,495.2,315.8,494.9,316.1,494.5z"/>
	<path d="M346.6,431c0.6,1.9,0.8,3.8,0.6,5.8c-0.4,3.9-2,7.3-4.3,10.5c-1.1,1.5-2.2,3.1-3.1,4.8c-1.5,2.6-3.9,4.1-6.6,5.3
		c-0.1,0-0.3-0.1-0.6-0.2c1.1-1.2,2.4-2.2,3.3-3.4c0.9-1.2,1.7-2.5,2.4-3.8c1.6-2.8,3.3-5.6,4.8-8.5c1.4-2.6,2.2-5.3,2.3-8.2
		c0-0.7,0.2-1.5,0.4-2.2C346.2,430.9,346.4,430.9,346.6,431z"/>
	<path d="M317.3,459.5c0.3,0.5,0.7,1,0.8,1.6c0.4,2,0.9,3.9,1,5.9c0.3,6.1,0.1,12.1-0.9,18.1c-0.2,1.1-0.6,2.2-1.1,3.3
		c-0.9-1.9-0.7-3.8-0.5-5.7c0.5-7.1,0.6-14.2,0-21.3c-0.1-0.6,0.1-1.2,0.1-1.8C316.9,459.6,317.1,459.5,317.3,459.5z"/>
	<path d="M444.5,555.2c-0.3-0.9-0.7-1.7-0.8-2.6c-0.2-3.9-1.2-7.7-2.2-11.5c-0.5-2.1-0.6-4.2-0.9-6.4c-0.4-3.2-0.5-6.5-1-9.8
		c-0.5-3.1-1.4-6-3.8-8.3c0.1-0.1,0.2-0.2,0.4-0.3c0.2,0.1,0.5,0.2,0.7,0.4c4.4,3.5,5.8,8.4,6.1,13.8c0.3,4.9,0.7,9.8,2.1,14.6
		c0.8,2.9,0.9,5.8,0.3,8.8c-0.1,0.4-0.3,0.8-0.5,1.2C444.8,555.2,444.7,555.2,444.5,555.2z"/>
	<path d="M449.1,464.5c0.9,2.6-3.1,31.3-4.7,34.7c-1.1-2.3-1-8.9,0.3-17.6C446.7,468,447.1,466.2,449.1,464.5z"/>
	<path d="M455.3,419.3c0.1,2.8-1,4.8-2.3,6.6c-1.3,1.7-2.7,3.4-3.7,5.3c-1.8,3.4-2.5,7.2-2.9,11c-0.2,1.9-0.6,3.7-1,5.8
		c-1.6-0.6-1.6-1.7-1.7-2.6c-0.1-2-0.3-4,0-6c0.4-2.5,1.2-5,2-7.4c0.3-0.9,1-1.8,1.7-2.6c1.4-1.6,2.9-3,4.2-4.6
		C452.9,423.2,453.9,421.4,455.3,419.3z"/>
	<path d="M263.5,273.1c0.6-1,1.2-2,1.8-2.9c5.5-7.4,10.5-15,14.7-23.3c1.7-3.3,3-6.7,3.8-10.3c0.8-3.3,0.7-3.6-0.8-6.6
		c1.1,0.6,1.5,1,1.9,2.2c0.7,2.2,0.7,4.3,0.1,6.6c-1.7,5.9-4.6,11.2-7.6,16.5c-3.6,6.3-8.4,11.7-12.8,17.4c-0.2,0.3-0.6,0.5-0.8,0.7
		C263.7,273.2,263.6,273.1,263.5,273.1z"/>
	<path d="M363.9,47.9c1.2,2,2,4,1.7,6.5c-0.7,4.9-1.3,9.8-1.9,14.7c0,0.4-0.2,0.7-0.7,1c0.2-3,0.4-5.9,0.6-8.9
		c0.2-2.9,0.6-5.9,0.8-8.8C364.5,50.8,364.1,49.4,363.9,47.9z"/>
	<path d="M366.6,39.8c0,2.6,0,5.3,0,8C366,46.6,365.9,44.1,366.6,39.8z"/>
	<path d="M378.5,34.4c-0.1,1.2-0.3,2.4-0.4,3.6c0,0,0,0-0.1,0c0-1.2,0-2.4,0-3.6C378.2,34.4,378.4,34.4,378.5,34.4z"/>
	<path d="M429.6,55c-0.2-1-0.3-2.1-0.5-3.1c0.1,0,0.1,0,0.2,0c0.2,1,0.4,2.1,0.7,3.1C429.9,55,429.7,55,429.6,55z"/>
	<path d="M25.5,203.9c0.8,3.9,1.6,7.8,2.5,11.6c1.9,8,5.3,15.4,9.5,22.4c5.1,8.6,11.3,16.4,18.5,23.4c7.1,6.9,15,12.7,23.7,17.4
		c9.6,5.1,19.6,9,30.2,11.3c7.4,1.7,15,1.8,22.6,0.8c1.3-0.2,2.6-0.5,3.9-0.8l0,0c-1.6,1.6-3.6,2-5.7,2.2
		c-9.4,0.9-18.6,0.2-27.7-2.4c-10.1-2.9-19.5-7-28.4-12.4c-7.9-4.8-15.2-10.4-21.5-17.1c-3.3-3.5-6.5-7-9.5-10.8
		C35,238.6,29,226.5,26.2,213C25.6,210,25.7,206.9,25.5,203.9C25.5,203.9,25.5,203.9,25.5,203.9z"/>
	<path d="M136.4,290c0.4-1.4,0.6-2.8,1.1-4.1c1.6-3.9,5-5.8,9.5-5.2C142.3,282.5,138.1,284.9,136.4,290
		C136.3,290,136.4,290,136.4,290z"/>
	<path d="M392.1,57.5c-6.3-0.3-11.4-2.5-16.1-6.8c4.4,0.8,8.4,1.5,12.4,2.3c1,0.2,2.1,0.9,2.9,1.6C392.1,55.4,392.8,56.4,392.1,57.5
		z"/>
	<path d="M385.7,77.9c-0.5-1.5,0.1-2.1,1-2.1c1.3,0,2.7,0,4,0.4c3.3,1.1,6.6,1.5,10,0.5c1.2-0.3,2.4-0.4,3.5,0.2
		c0.5,0.3,0.8,0.8,1.1,1.1c-2.2,0.7-4.2,1.3-6.2,2c-0.2,0.1-0.5,0.3-0.7,0.2c-2.6-0.2-5.3,0.2-7.5-1.5
		C389.3,77.7,387.8,76.7,385.7,77.9z"/>
	<path d="M401.1,58.2c0.5-2.7,2.2-4.5,4.7-4.6c3.3-0.1,6.7-0.1,10-0.1c0.3,0,0.6,0.2,1.2,0.5c-0.6,0.3-1,0.5-1.3,0.7
		c-1.7,0.8-3.4,1.7-5.1,2.5c-0.8,0.4-1.7,1-2.6,1C405.6,58.3,403.3,58.2,401.1,58.2z"/>
	<path d="M398.9,49.8c1.7,1.5,3.2,1.1,4.7,0.3c3.5-1.8,7.2-2.9,11.3-2.7c1,0.1,2,0.1,2.2,1.4c0.1,0.8-0.7,1.5-2.1,1.5
		c-3.4-0.1-6.6,1-9.8,2.1c-1.6,0.5-3.1,0.6-4.7,0C399.7,52,398.9,51.5,398.9,49.8z"/>
	<path d="M376.9,46c0.8-0.1,1.7-0.5,2.5-0.4c2,0.3,3.9,0.7,5.8,1.3c2.1,0.6,4,1.5,6.1,2.2c1.1,0.4,2.3,0.5,3.5,0.7
		c0.4,1.7-0.2,2.7-1.8,2.5c-1.6-0.2-3.2-0.5-4.5-1.3c-3.6-2.1-7.2-3.8-11.4-4.3C376.9,46.5,376.9,46.2,376.9,46z"/>
	<path d="M389.3,67.5c1.5,0.7,2.9,1.2,4.2,1.9c1.9,1,3.7,1.2,5.5-0.2c0.6-0.5,1.4-1.4,2.3-0.6c0.9,0.9,0.1,1.8-0.4,2.6
		c-0.3,0.5-0.7,0.9-1.1,1.2c-2,1.4-6.5,1-8.2-0.8c-0.6-0.6-1.1-1.1-1.7-1.7C389.3,69.4,388.8,68.9,389.3,67.5z"/>
	<path d="M386.9,64.6c-0.2,2-1.3,3.5-2.6,4.9c-1.9,2-4.3,3.6-5.1,6.5c-0.5-1.2-0.3-2.2,0.3-3.1c0.3-0.5,0.7-1,1.2-1.5
		C382.7,69.1,384.8,66.8,386.9,64.6z"/>
	<path d="M397.4,53.3c1.6,1.7,1.7,6,0.3,8.8C396.9,59,396.4,56.3,397.4,53.3z"/>
	<path d="M407.7,74.4c-2.9-2.6-4.3-4.9-4.2-6.6C406.4,69.9,407.9,72.2,407.7,74.4z"/>
	<path d="M391.2,82.9c2.4,0.1,4.6,0.3,6.8,0.4C395.9,84.5,392.6,84.3,391.2,82.9z"/>
	<path d="M461,248.9c0-2.3,1.6-4.1,3.7-4c2,0,3.5,1.6,3.4,3.8c0,2.5-1.6,4.3-3.8,4.3C462.2,252.9,460.9,251.4,461,248.9z M463,249.2
		c0,1.2,0.5,1.8,1.4,1.7c0.9,0,1.7-1,1.7-2.2c0-1.1-0.6-1.8-1.5-1.7C463.7,247.1,463,248,463,249.2z"/>
	<path d="M462.7,283.1c0,2.1-0.7,3.4-1.9,3.7c-1.3,0.4-3.5-0.7-4.1-2.2c-0.6-1.4-1-2.9,0.2-4.3c0.9-1,2-1.6,3.4-1.2
		c1.3,0.4,2.2,1.3,2.4,2.7C462.7,282.4,462.7,282.8,462.7,283.1z M461.4,283.3c0-0.4,0-0.5,0-0.7c-0.1-1.3-0.8-2-1.9-2
		c-1.1,0-1.6,0.8-1.6,2.4c0,1.6,0.6,2.6,1.5,2.5c0.6-0.1,1.2-0.6,1.7-1.1C461.4,284.2,461.3,283.6,461.4,283.3z"/>
	<path d="M448.8,265.9c-0.4,2.8-3.5,5.1-6.3,4.9C444,268.3,446.3,267.2,448.8,265.9z"/>
	<path d="M301.4,604.3c-0.7-0.1-1.4-0.2-2.3-0.3C300.1,603.2,300.1,603.2,301.4,604.3z"/>
	<path d="M314.7,604c0.3,2,0.2,2-1.4,1.8c-1.4-0.1-2.9-0.1-4.3-0.1c-0.6,0-1.2,0-2,0C308,604,309.6,603.7,314.7,604z"/>

</g>
</svg>
