<?xml version="1.0" encoding="utf-8"?>
<!-- Generator: Adobe Illustrator 21.0.0, SVG Export Plug-In . SVG Version: 6.00 Build 0)  -->
<svg version="1.1" id="_x3F__x3F__x3F__x3F__2_xA0_Изображение_1_"
	 xmlns="http://www.w3.org/2000/svg" xmlns:xlink="http://www.w3.org/1999/xlink" x="0px" y="0px" viewBox="0 0 404.2 606.7"
	 style="enable-background:new 0 0 404.2 606.7;" xml:space="preserve">
<g>
	<path d="M0.5,354.2c0.3-1.2,0.8-2.4,0.9-3.7c0.1-2.6,0.7-5,1.7-7.4c1.4-3.3,2.5-4,6.3-3.7c0.3-0.7,0.8-1.4,1.1-2.2
		c1.7-3.8,4.1-7,7-9.9c1.4-1.4,2.9-1.8,4.7-1.4c3.5-3.8,6-8.7,12.1-8.7c0.3-0.7,0.6-1.4,1-2.1c0.4-0.7,0.9-1.6,1.5-1.7
		c1.6-0.3,2-1.5,2.5-2.6c1.6-3.1,3.3-6.2,4.9-9.4c0.9-1.8,1.6-3.6,2.4-5.6c-2-1.4-2.5-3.4-2.9-5.4c-0.3-1.4-0.6-2.8-1-4.2
		c-0.7-2.4-2-4.3-4.1-6c-0.4,0.2-1,0.5-1.5,0.8c-0.3,0.2-0.5,0.6-0.8,0.8c-3,2.7-4.8,2.4-6.7-1.1c-2.9-5.3-5-10.9-6.6-16.7
		c-0.3-1.2-0.3-2.6,0-3.7c0.4-1.5,0.3-2.8,0-4.2c-1-4.2-1.9-8.4-2.8-12.6c-0.2-0.8-0.1-1.6-0.2-2.4c-0.1-1.2-0.2-2.3-1.4-3.1
		c-1.1-0.7-1.3-2-1.1-3.2c0.2-1.5-0.1-2.8-0.8-4.1c-2.2-4.4-3.8-9-4.2-13.9c-0.2-2.4-0.2-5,0.1-7.4c0.3-1.9-0.2-3.2-1.4-4.5
		c-1-1.1-2.1-2.2-3-3.4c-1.9-2.4-1.8-4.1,0.4-6.3c0.9-0.9,1.9-1.8,2.9-2.5c1.2-0.8,1.5-1.8,1.4-3.2c-0.5-4.9-0.8-9.9-1.1-14.8
		c-0.2-3.9,0.6-7.6,2.4-11.1c1.5-2.8,3.6-5.1,6.2-6.9c1.6-1.1,3.2-2.1,4.9-3.1c1-0.6,2.1-1.2,3.2-1.6c2.4-0.8,4.6-0.4,6.1,1.8
		c2.6-1.3,5-2.6,7.7-3.9c0.1-0.7,0-1.7,0.3-2.5c0.3-0.8,1-1.4,1.7-2.3c-0.4-0.8-0.9-1.8-1.5-2.6c-0.9-1.2-0.7-2.1,0.2-3.2
		c1.1-1.2,2.1-2.4,3-3.8c1.3-1.9,2.3-4,3.5-6c1.1-1.8,2.3-3.7,3.5-5.4c1.3-1.8,2.7-3.3,5.1-2.1c2.1-2.2,3-4.8,3.9-7.3
		c0.7-2.1,1.3-4.3,1.9-6.4c0.5-1.7,1.6-2.6,3.3-2.4c1.9,0.2,2.8-0.8,3.5-2.2c1.3-2.5,2.6-5.1,3.9-7.8c-0.8-0.6-1.4-1-2-1.4
		c-1.2-0.8-2.4-1.6-3.5-2.4c-1.7-1.1-2.2-2.8-1.8-4.6c0.4-1.8,1.1-3.5,2-5.1c1.6-2.9,3.3-5.6,5-8.4c0.6-0.9,0.9-1.8-0.1-2.8
		c-0.8-0.8-0.1-1.6,0.3-2.4c1.6-2.6,3.2-5.2,4.6-7.8c0.5-1,0.9-2.2,1-3.4c0.1-5.5,2.2-10.1,6.5-13.6c0.4-0.3,0.7-0.7,1.1-0.9
		c2.6-1.4,2.7-3.8,2.4-6.4c-0.1-0.9-0.1-1.8-0.2-3.1c1.5,0.5,2.7,0.9,3.7,1.3c1-0.9,0.9-1.9,0.6-2.8c-1.2-3.5-2.7-6.6-6-8.7
		c-2.3-1.4-4-3.5-4.3-6.3c-0.4-4,3.3-8.1,7.6-8.7c5.7-0.7,10.8,0.7,15.1,4.6c1.4,1.3,2.8,1.8,4.8,2.1c4.5,0.8,8,3.4,9.9,7.8
		c0.4,1,0,1.6-0.6,2.4c-1,1.2-2.1,2.4-2.5,4c2.4,0.1,2.4,0.1,4.1,3.2c5.5,0.2,9.3,3.7,13.4,6.7c2.7,2,5.2,4.3,7.1,7.1
		c0.4,0.5,0.8,0.9,1.6,1.2c-0.2-0.6-0.4-1.2-0.6-1.8c-0.2-0.8-0.5-1.5-0.6-2.3c0-2.3,1.8-3.5,3.9-2.6c0.5,0.2,1,0.5,1.7,0.9
		c0-0.8,0-1.3-0.1-1.8c-1.1-4.2-2.2-8.3-3.3-12.5c-0.1-0.5-0.6-1-1-1.2c-2.9-1.8-4.2-4.5-3.5-7.8c0.3-1.4,0.7-2.8,1.4-4.1
		c0.8-1.6,0.9-3,0.2-4.6c-0.9-2.1-0.9-4.2-0.1-6.3c0.6-1.5,1.7-2.3,3.3-2.4c1.6-0.1,2.8,0.4,3.6,1.9c1.9,3.3,2.9,6.9,3.7,10.6
		c2.2,9.5,2.8,19.1,3.4,28.8c0.4,5.9,1,11.8,2.8,17.5c0.4,1.3,0.6,2.7,0.9,4c0.3,1,0.6,2,1,2.9c0.9,2.3,1.9,4.6,2.7,6.9
		c0.6,1.8,0.7,1.9,2.7,2c0.6,0,1.3,0.1,1.9,0.2c2.9,0.7,3.8,3.1,1.8,5.4c-1.3,1.5-3,2.6-4.8,4.1c0.3,1.4,0.6,3.1,1,4.8
		c0.7,2.7,0.2,5.1-1.3,7.3c-1.3,2-2.6,4-4,6c-0.7,1-1,1.9-1,3.1c0.3,4.9,1.1,9.7,2.8,14.3c1.9,5.1,3.9,10.1,5.9,15.2
		c0.3,0.8,0.6,1.6,0.9,2.6c-4.2,3.1-8.9,2.5-13.6,2.2c0.4,0.2,0.8,0.4,1.2,0.5c1.1,0.3,2.1,0.6,3.2,0.7c0.8,0.1,1.7,0,2.5-0.3
		c1-0.4,1.8-0.3,2.3,0.6c1,1.5,2.4,2.2,4.1,2.7c1.1,0.3,2.1,1.1,3.2,1.7c1.1-0.1,2-0.6,2.2-2c0.1-0.8,0.6-1.7,1-2.4
		c1.6-3,5.4-3.7,8-1.5c2.4,2,4.2,4.4,5.1,7.4c1.6,5.4,3.4,10.8,4.1,16.5c0.1,0.8,0.3,1.6,0.5,2.6c3.7,1.3,4.6,4.5,4.7,8
		c0.2,3.9,0.4,7.8,0.3,11.7c-0.1,2.6-0.3,5,0.9,7.5c1.2,2.5,0.8,5.3,0.6,8.1c-0.2,3-0.5,6-0.7,9.1c0,0.5,0.4,1.2,0.8,1.6
		c2.1,2.1,2.8,4.6,2.6,7.5c-0.4,4.5-0.7,9.1-1,13.6c-0.1,0.9,0,2,0.5,2.7c1.6,2.6,1.7,5.3,1.2,8.1c-0.6,3.9-1.4,7.7-1.8,11.6
		c-0.3,3.5-1.8,6-4.8,7.8c-2.3,1.3-4.5,2.7-7.1,4.2c-0.1,1.9,0,4.2-0.2,6.5c-0.2,2.1-0.8,4.2-1.3,6.3c-0.2,0.9-0.8,1.7-1.5,2.4
		c-1.2,1.3-2.7,1.3-4.1,0.3c-0.3-0.2-0.6-0.5-1-0.9c-1.5,1.7-2.9,3.3-2.6,5.8c0.4,3.2-0.6,6.3-1.1,9.5c-0.7,3.9-1.4,7.7-2,11.6
		c-0.3,1.8-0.1,3.4,0.8,5.2c1.7,3.5,2.7,7.3,1.1,11.2c-0.5,1.2,0.7,3,2.4,3.6c0.9,0.3,1.8,0.4,2.6,0.6c0.9-1.2,1.7-2.3,2.6-3.3
		c2-2.5,6.9-3.2,9.4-1.2c1.2,1,2.5,2,3.7,3c0.5,0.4,1.1,0.9,1.7,1.4c0.5-0.3,0.9-0.5,1.3-0.7c18.2-11.7,36.5-23.4,54.6-35.2
		c14.2-9.2,28.3-18.7,42.5-27.9c10-6.5,20-12.9,30.1-19.3c6.7-4.3,13.3-8.6,19.9-12.9c8.7-5.6,17.5-11.1,26.2-16.8
		c5.9-3.9,11.6-7.9,17.4-12c3.6-2.5,7.2-5.1,10.7-7.6c0.4-0.3,0.9-0.4,1.3-0.6c0,0.2,0,0.3,0,0.5c-1.2,2.2-2.4,4.5-3.5,6.7
		c-3.3,6.9-7.7,13.1-12.6,18.9c-2.8,3.4-6.1,6.3-9.8,8.8c-8.7,5.7-17.3,11.6-26,17.3c-7.7,5-15.5,9.9-23.3,14.8
		c-8.6,5.4-17.2,10.9-25.7,16.3c-20.3,12.9-40.6,25.9-60.9,38.8c-5,3.2-10.1,6.1-15.1,9.3c-2.3,1.5-4.4,3.2-6.6,4.8
		c-2.2,1.5-4.4,2.9-6.6,4.3c-2.4,1.5-4.8,2.9-7.3,4.4c0.5,1.2,1,2.2,1.4,3.3c0.3,0.7,0.5,1.4,0.6,2.1c1.4,5.9-2.7,10.2-8.7,8.9
		c-0.2,0-0.3,0-0.7,0c-0.5,1.2-1.1,2.5-1.8,3.8c0.3,0.6,0.6,1.3,1,1.9c2.9,4.7,4.4,9.9,6.2,15.1c0.6,1.7,0.2,2.6-1.3,3.7
		c-1.4,0.9-2.8,1.8-4.2,2.7c0.2,0.5,0.2,0.8,0.4,1.1c2.5,3.1,4,6.8,5,10.6c1.5,5.4,3.9,10.2,6.4,15.1c0.9,1.9,0.4,4.4-1,5.7
		c-1.3,1.1-2.6,1.5-4.1,0.5c-1.3-0.8-2.8-1.5-4.2-2.3c-0.6,1.2-0.3,2.1,0.3,3.1c2.2,3.4,2.5,7.2,2.4,11.1c-0.1,1.6-0.9,2.9-1.9,4
		c-0.5,0.5-1.1,0.9-1.5,1.1c0.1,0.6,0.1,0.8,0.2,0.9c4,4.3,3.6,9.3,2.1,14.4c-0.6,2.1-0.3,2.7,1.7,3.7c2.1,1,2.9,2.9,2.2,5.2
		c-0.8,3-0.7,5.9,0.9,8.7c3.6,6.4,5.5,13.4,6.8,20.6c1.6,8.3,2.2,16.8,2.1,25.3c0,0.5,0,1,0.1,1.4c2.3,1.2,3.4,3.3,3.3,5.7
		c-0.1,2.7-0.1,5.4-2,7.7c-1,1.2-1,2.6-0.9,4.1c0.1,1.6,0.1,3.2,0.2,4.8c0,0.5,0.1,1.1,0.3,1.6c0.5,1.3,0.4,2.4-0.1,3.7
		c-0.2,0.7-0.2,1.6,0,2.2c0.3,1,0.8,2,1.5,2.7c2.7,3,3.7,6.7,4.4,10.5c1.1,5.5,2.2,11,3.4,16.4c0.4,1.6,1.1,3.2,1.8,4.6
		c1.2,2.3,2,4.7,1.9,7.3c0,2.3,0,4.6,0,7c0,1,0,1.9-0.2,2.9c-0.7,3.4-2.2,6.2-6,6.9c-2.9,0.6-5.8,1.4-8.7,1.6
		c-5.4,0.4-10.9,0.5-16.3,0.5c-3,0-5.8-1-8.5-2.2c-2.2-1-3.5-2.8-4.3-4.9c-1.8-4.7-1.8-9.6-1.3-14.4c0.1-1.4,0.9-2.9,1.7-4.2
		c1.3-2,1.8-4.2,1.9-6.6c0.2-5.3,0.4-10.5,1.1-15.8c0.4-3.2,1.5-6.3,2.4-9.7c-2.1-1.8-3-4-2.1-6.8c0.1-0.3,0.1-0.7-0.1-0.9
		c-1.5-1.8-1.4-4-1.9-6.1c-0.3-1.1-0.6-2-1.9-2.4c-1.8-0.6-2.7-2.1-2.9-4c-0.1-0.5-0.2-1.1-0.5-1.4c-1-0.9-1.3-1.9-0.7-3
		c0.5-1,0.1-1.8-0.4-2.7c-5.8-10.4-9.8-21.3-11.7-33c-0.5-2.8-0.5-5.6-0.7-8.4c-0.1-1.3-0.4-2.3-1.6-3.2c-1.3-1-2-2.8-2.9-4.3
		c-0.7-1.2-1.4-2.5-2.2-3.6c-1.3-1.9-1.3-4-1.3-6.1c-1.4-1.4-3-2.6-4.3-4.1c-1-1.1-1.8-2.4-2.5-3.8c-0.4-0.9-0.8-1.5-1.9-1.5
		c-2.9,0-5-1.5-6.2-4.2c-0.6-1.5-1.2-2.9-1.9-4.4c-0.5-1-1-2-1.7-3.3c-1.2,1.4-2.2,2.4-3.1,3.6c-0.6,0.8-1.2,1.2-2.2,1.1
		c-1.3-0.2-2.5-0.3-3.8-0.7c-1.4-0.4-2.2-1.5-2.7-2.9c-1.3-3.8-2.6-7.6-3.8-11.4c-0.3-1-0.6-1.8-1.8-2.3c-0.7-0.3-1.2-1.2-1.6-2
		c-1.9-4.4-3.3-9-3.8-14c-1.2,0.5-2.4,0.7-2.8-0.9c-0.3-1.1-0.5-2.3-0.7-3.6c-4.5,1-8.9,1.9-13.5,2.9c-1,2.2-1.4,4.8-1.6,7.3
		c-0.4,4-1.7,7.8-3.1,11.5c-0.3,0.8-1.1,1.4-1.9,2.3c-0.1,4.5-1.3,9-3.4,13.3c-0.3,0.6-0.5,1.2-0.7,1.8c-1.1,3-1.1,3-4.4,3
		c-0.7,2.8-2.8,4.6-5,6.4c-2.4,2-5.4,0.7-8,1.2c-0.7,2.4-0.9,4.9-2,6.9c-1.2,2-3.2,3.5-5,5.3c0.1,0.9,0.8,2.2,0.4,3.2
		c-0.9,2.2-1.1,4.8-2.4,6.6c-1.4,2-1.9,4-1.9,6.2c0,6.1-1.5,12-2.8,18c-2.4,11.3-6,22.2-10.7,32.8c-0.5,1-1.1,2-1.6,3
		c-0.9,1.8-2,3.4-2.2,5.5c0,0.6-0.3,1.3-0.6,1.8c-0.8,1-1,2.1-1.4,3.2c-0.4,1.1-1.5,2-2.5,3.3c0,1.4-0.3,3.2-1.5,4.7
		c-0.7,0.9-0.7,1.9-0.2,2.9c1.9,3.9,2.3,8.1,2.3,12.4c0,5.1,1.4,9.7,4.5,13.9c0.8,1.1,1.4,2.6,1.5,4c0.2,3.2,0.2,6.4,0.1,9.6
		c-0.1,3-2,4.7-4.7,5.7c-3.9,1.4-7.9,2-12,1.9c-4.6-0.1-9.1-0.1-13.7-0.3c-4.6-0.1-8.7-1.8-12.8-3.6c-1.3-0.6-2.1-1.6-2.2-2.9
		c-0.6-7.9-1-16,3.4-23.1c2.5-3.9,3.9-7.9,3.8-12.6c0-3.3,1.5-6.2,4-8.4c1.3-1.2,2.5-2.4,2.3-4.4c-0.1-0.5,0.2-1.1,0.3-1.6
		c0.4-1.6,0.3-3.1-0.9-4.4c-1.1-1.3-1.1-2.9-0.7-4.5c0.3-1.1,0.2-2.3,0.3-3.5c0.2-2.2,0.3-4.5,2.7-5.8c-0.2-3.6-0.5-7.1-0.7-10.6
		c-0.5-9.5,0.1-18.9,3.1-28c0.9-2.8,1.7-5.7,2.8-8.4c1.2-3.1,2.8-6.1,4.2-9.1c0.5-1.1,0.7-2.1,0.6-3.4c-0.1-2.5-0.6-5,0.4-7.5
		c0.6-1.5,0.6-3.3,0.8-4.9c0-0.2-0.1-0.5-0.2-0.7c-1.8-3.3-1.2-6.5,0.1-9.7c0.4-0.9,0.5-1.6,0-2.5c-1.6-3.3-2.2-6.8-2.3-10.5
		c0-2.1-0.2-4.1-0.4-6.5c-3-0.1-5.9-0.3-8.7-0.2c-2.4,0.1-3.5-0.8-2.8-3.2c0.5-1.8,1.2-3.6,2-5.4c1.6-3.6,3.4-7.1,5.2-10.8
		c-1.4-1.2-0.9-2.8-0.2-4.2c2-3.7,4.1-7.4,6.1-11.1c0.5-0.8,1.1-1.6,1.8-2.5c-1.5-0.7-1.2-1.8-0.8-3c0.6-1.6,1.1-3.2,1.7-4.9
		c-0.6-0.3-1.2-0.5-1.9-0.8c-0.7,1.6-1.2,3.1-1.9,4.5c-0.5,1.1-1.2,2.1-1.9,3c-0.7,0.9-1.6,1-2.6,0.5c-1-0.6-2-1.1-2.7-1.9
		c-3.8-3.9-7.6-7.8-10.8-12.2c-1.8-2.5-3.1-5.1-3.1-8.1c0-1.8-0.8-3-2.3-3.9c-2.1-1.4-3.4-3.3-3.9-5.8c-0.1-0.8-0.6-1.5-0.9-2.2
		C0.5,356.5,0.5,355.4,0.5,354.2z M115.2,368.7c1.1-0.3,2.2-0.6,3.4-1c1.3-0.2,2.5-0.2,3.8-0.5c1.2-0.3,2.6-0.1,3.5-1.3
		c-2.5,0.2-5,0.5-7.3,1.9C117.4,367.5,116.2,367.8,115.2,368.7c-1.3-0.3-2.4,0.2-3.4,0.9c-0.4,0-0.8-0.1-1.2,0
		c-3.2,0.9-6.4,1.8-9.7,2.6c-1.9,0.5-3.9,0.9-5.9,1.1c-5.2,0.4-10.5,0.6-15.8,1c-0.5,0-1,0.2-1.5,0.3c0,1.3,0.8,1.3,1.5,1.2
		c2-0.1,4-0.2,6-0.4c3.3-0.3,6.7-0.2,10-0.9c5.1-1.1,10-2.7,15-4.1c0.6-0.2,1-0.6,1.5-0.9C112.9,369.3,114.1,369,115.2,368.7z
		 M57.2,310.4c0.1,0.1,0.2,0.1,0.3,0.2c0.3,0.5,0.7,1,1.3,1.9c-4.8-2.7-8.7-5.6-12-9.4c-1.9,3.5-3.6,6.7-5.4,9.9
		c-0.9,1.5-0.7,2.7,0.4,3.9c1.7,2,3.5,4,5.2,6c4.5,5.3,9.9,9.5,15.9,12.9c0.4,0.2,0.9,0.2,1.4,0.3c0.5-7.3,1.2-14.5,5.1-20.9
		c-1.7-1.3-3-3-5.2-3.6c-0.8-0.2-1.5-1.3-2.1-2c-0.4-0.5-0.5-1.2-0.6-1.5c-2.3-0.9-4.3-1.8-6.4-2.6c-1.7-0.7-2.8-2.1-3-3.8
		c-0.3-2-1.7-2.9-2.9-4.3c-0.7,1.5-1.6,2.9-0.2,4.3c-0.5,0-1,0-2,0c0.8,1.1,1.2,1.8,1.8,2.3c2.1,1.9,4.3,3.7,6.5,5.5
		C55.8,309.9,56.6,310.1,57.2,310.4z M141.3,155.7c0.3-0.3,0.8-0.5,0.9-0.9c0.5-1.7,0.9-3.5,1.4-5.5c-1.3-0.2-2.3-0.4-3.3-0.6
		c-1.7,3-2.2,4.6-1.8,6.3c1-1.7,1.1-3.9,2.8-5.7C142.5,151.6,141.4,153.7,141.3,155.7c-0.4,3.4-2,6.6-2,10c0.4-0.2,0.6-0.4,0.6-0.7
		c0.5-2.3,1.1-4.6,1.6-7C141.6,157.3,141.4,156.5,141.3,155.7z M101,290.2c0.3,0.3,0.5,0.5,0.8,0.8c2.1,2.7,4.2,5.4,6.3,8
		c1.2,2.2,2.5,2.7,4.6,1.7c0.5-0.2,1-0.6,1.3-1c1.3-1.3,2.5-2.7,3.7-4.1c2.5-2.8,2.1-7-2.8-8.9c-1.1-0.4-2.4-1-3.4,0.3
		c-2.5,0-2.8,0.4-3.1,2.9c-0.3,1.9-0.9,3.7-1.4,5.6c-0.1,0-0.3-0.1-0.4-0.1c0.2-1.8,0.3-3.6,0.5-5.3
		C103.6,288.4,103.2,288.5,101,290.2c1.1-3.5,3.9-1.9,6-1.8c1.4-1.2,2.6-2.3,4-3.4c-0.3-0.4-0.6-0.9-0.9-1.3
		c-2.2-2.8-4.9-3.4-7.9-1.3c-1.5,1-2.7,2.4-4.2,3.7c0.6,1,1.1,1.7,1.6,2.4C100,289.1,100.5,289.7,101,290.2z M170.4,322.6
		c-0.7-1-1.5-0.6-2.3-0.1c-3.5,1.9-7.2,3.5-11.3,3.5c-0.1,0-0.2,0.2-0.6,0.5c1.7,1.4,4.2,2,4.2,4.6c4.4-0.6,9.7-2.9,11.9-5.1
		C171.7,324.9,171,323.7,170.4,322.6c0.5,0.4,1.2,0.9,1.7,1.5c0.9,1.3,2.1,1.8,3.9,1.6c-0.2-0.9-0.1-2.2-0.6-2.5
		c-1.2-0.8-2.7-1.4-4.1-1.8C170.5,321.2,170.2,321.9,170.4,322.6z M131.4,55.9c-0.6-0.7-1.3-1.4-1.7-2.2c-2.5-5.4-5.4-10.5-8.8-15.4
		c-0.4-0.6-0.9-1.2-1.5-2c-0.1,0.5-0.2,0.6-0.2,0.7c1,6.6,3.9,12.3,8.4,17.2c0.9,1,2.3,1.6,3.5,2.3c0.3,0.3,0.6,0.8,1.1,0.9
		c4.4,1.5,9,2.4,13.7,2c1.1-0.1,2.2-0.2,3.1-1.3c-3.6-5.1-7.3-10.1-12.3-13.8c2,4.3,4.9,8.1,6.6,12.6c-0.4-0.3-0.7-0.7-0.9-1
		c-3.5-5.1-7-10.3-10.6-15.4c-1.3-1.9-4.5-3.6-6.5-3.9c4.9,4.9,11.3,16.1,11.5,20.2c-0.3-0.7-0.5-1.1-0.8-1.5
		c-2-3.6-3.8-7.2-5.9-10.7c-1.8-3-4.2-5.6-6.9-7.9c-1.2-1-1.2-1-3-0.4c2.8,2.5,4.9,5.4,6.4,8.6C128.1,48.6,129.7,52.3,131.4,55.9z
		 M111,261.4L111,261.4c-0.8,0.2-1.5,0.5-2.3,0.6c-2.8,0.3-5.6,0.5-8.3,0.9c-2.6,0.4-4.7,1.7-6.5,4c0.8,0.6,1.4,1.2,2.1,1.5
		c1.3,0.5,2.7,1.1,4.1,1.3c5.1,0.6,10.2,1.1,15.3,0.3c3-0.4,6-1.3,9-1.4c4.5-0.2,8-2.4,11.4-5c0.6-0.4,1.1-1,1.5-1.5
		c0.8-1,0.9-1.9-0.1-2.7c-0.7-0.6-1.8-1.1-2.7-1.2c-1.1-0.1-2.2,0.2-3.3,0.3c-1.9,0.3-3.9,0.5-5.8,0.8c5.1-1.7,10.5-2.2,15.6-4.3
		c-1-1.4-1-1.4-1.9-1.1c-1.8,0.6-3.5,1.5-5.4,1.9c-7.6,1.7-15.3,2.7-23,3.2c-7.7,0.6-15.4,0.8-23.2,1.3c-0.2,1.3,0.9,1.3,1.8,1.4
		c5.2,0.1,10.4,0.3,15.6,0.3C106.9,262,109,261.6,111,261.4z M23,583.3c-2.8-2.5-6.2-3.6-10-3.6c-0.2,0-0.5,0-0.7,0.2
		c-0.3,0.2-0.6,0.6-0.6,0.9c0,0.3,0.4,0.6,0.7,0.8c0.2,0.1,0.6,0,0.9,0c3-0.4,5.9-0.1,8.5,1.4C22.3,583.1,22.7,583.1,23,583.3
		c0.4,0.3,0.8,0.8,1.2,1.1c1.9,1.3,3.3,2.9,4.5,4.9c0.2,0.4,0.5,0.8,0.8,1.1c0.2-0.1,0.4-0.1,0.5-0.2c3.1-4.2,6.9-7,12.4-7
		c0.4,0,1.2-0.7,1.2-1.1c0.1-0.9-0.7-1.2-1.5-1.2c-1.8,0.1-3.5,0.4-5,1.5c-1.9,1.3-3.8,2.7-5.7,4c-0.4,0.3-0.9,0.5-1.8,1
		c1.6-2.6,3.2-4.3,5.3-5.6c2-1.2,4.2-2.1,6.3-3.2c0.4-6-0.3-11.9-2.7-17.6c-0.8,0.6-1.4,1-2.1,1.5c0-0.5-0.1-0.9-0.1-1.3
		c-1.5,0.7-2.8,1.4-3.9,2c1.1,2.9,2.2,5.7,3.3,8.6c-0.8,1.1-1,2.7-2.7,3c-0.1,0-0.3,0.4-0.3,0.5c0.1,1.8-1.4,2.2-2.4,3
		c-1.3-0.9-1.3-2.2-1.4-3.4c-0.3-3-0.4-6-0.7-9.1c-0.1-0.7,0.1-1.6-0.3-2.1c-0.9-1-1.9-2.1-3.1-2.8c-2.1-1.2-4.1-2.5-5.5-4.6
		c-4.9,6.5-5.6,14-6.1,21.7c0.5,0,0.8,0.1,1.1,0c2.6-0.4,4.9,0.4,7,1.9c2.4,1.8,4.6,3.7,6.9,5.5c0.2,0.2,0.3,0.5,0.5,0.7
		c-1.2-0.4-2.1-1-3.1-1.6C24.9,584.1,23.9,583.7,23,583.3z M153.9,42.1c-0.2-0.3-0.4-0.5-0.5-0.8c-0.7-3.3-1.4-6.7-2.1-10
		c-0.4-2-0.5-4.1-1.8-6c-0.6,0.3-1.1,0.6-1.7,0.8c0.2,0.6,0.3,1.1,0.4,1.5c1.2,4.2,2.6,8.4,3.6,12.7c1.2,4.7,2,9.5,1.9,14.4
		c0,1.4-0.4,2.7-1.1,3.8c-1.8,2.6-4.3,4.2-7.4,4.3c-3.7,0.1-7.4,0-11-0.4c-4.3-0.6-7.5-3.2-10.2-6.5c-1-1.3-1.9-2.7-3.1-4.6
		c-0.4,2.4-0.7,4.3-1,6.4c-1-0.4-1.8-0.8-2.6-1.1c-1-0.4-2.1-0.9-3.1-1.2c-1.1-0.4-2-0.1-2.5,1.1c0,0.1,0,0.2,0,0.3
		c0.4,0.8,0.8,1.5,1.2,2.3c3.7,6.9,9.5,11.3,17.1,13.2c1.1,0.3,2.5,0.5,3.5,0.1c6.5-2.4,13.3-2.6,20.1-2.5c2.7,0.1,4.4-1.3,4.5-4
		c0.1-1.6-0.3-3.3-0.6-4.9c-0.5-2.3-1.5-4.6-1.9-6.9C154.7,50.1,154.3,46,153.9,42.1c0-4.7,0.4-9.3,0-13.9
		c-0.4-4.7-1.2-9.4-2.2-13.9c-0.8-3.3-2.2-6.5-3.3-9.7c-0.3-0.8-0.7-1.5-1.7-1.4c-1,0.1-1.7,0.6-1.8,1.6c-0.1,0.8-0.2,1.6-0.1,2.3
		c0.1,1,0.5,2,0.7,3c0.6,0.1,1.1,0.1,1.7,0.2c-3,2.5-3.8,4.8-3.2,8.3c0.3,1.7,1.2,2.9,2.9,3.4c1,0.3,2,0.6,3,1
		c1.1,0.4,1.7,1.2,1.8,2.3c0.3,2,0.7,3.9,0.9,5.9C153.1,34.8,153.5,38.4,153.9,42.1z M209.8,558.3c-1.6-1.7-3.3-3.5-5-5.3
		c-0.8-0.1-1.6,0-2.1,1.2c-0.3,0.7-0.8,1.4-1.4,1.9c-0.9,0.9-1.3,2-1.2,3.3c0,1.8-0.2,3.5-1.2,5c-2.7-0.7-2.6-0.7-2.2-3.2
		c0.4-2.3,0.8-4.7,1.3-7.3c-1.1,0.7-1.8,1.2-2.7,1.6c-2.3,1.1-3,2.9-3,5.3c0,3-0.1,5.9-0.1,8.9c0,0.9,0.1,1.9,0.2,2.9
		c5.6,0.9,10.5,3.1,14.6,6.9c4.9-4.3,10-7.6,16.5-7.3c-0.7-4.2-1.2-8.1-1.9-12c-0.1-0.5-0.5-1-0.9-1.4c-2.2-2.2-4.5-4.3-6.7-6.4
		c2.5,0.7,4.6,2.4,6.9,3.8c0.1-1.7-0.1-2.3-1.2-3c-2.4-1.5-5.2-2.2-8-2.8c1.4,2.2,1.6,4.3,0.7,6.7c3.3,1.5,4.7,3.9,3.7,7.3
		c-2.2,0.3-3,0.2-3.2-0.8C212.6,561.1,210.9,559.9,209.8,558.3c1.6,1.5,3.3,3.1,5.1,4.7c0.4-1.6,0-2.6-1.2-3.6
		c-1.7-1.5-3.3-3.2-4.9-4.8c-0.9-1-1.3-2.1-1-3.5c0.3-2.1-0.3-2.7-2.3-2.9c-0.8,0-1.6-0.1-2.1,0.8c-0.5,1-0.1,1.7,0.7,2.7
		c0.4-0.6,0.5-1.1,0.8-1.4c0.4-0.3,0.9-0.5,1.3-0.7c0.2,0.5,0.6,1,0.5,1.4c-0.6,1.6,0.3,2.8,1,4
		C208.2,556.1,209.1,557.2,209.8,558.3z M62.3,121c-1.1,0.1-1.3,1-1.6,1.9c0.6,0.3,1,0.7,1.5,0.8c4.5,0.9,8.9,1.9,13.5,1.8
		c5.2-0.2,10.4-0.8,15.5,0.5c-1.5-1.8-3.8-1.9-5.8-2.9c4.8,0.2,8.6,2.1,12,5.8c1.1-5.9,2-11.4,3-17.1c-0.3-0.3-0.8-0.7-1.5-1.2
		c-0.2,1-0.4,1.8-0.6,2.6c-0.8,3-1.6,6-2.4,9c-0.2,0.6-0.2,1.3-1.2,1.2c0-1-0.2-2,0-2.9c0.9-3.6,1.9-7.2,2.9-11.1
		c-0.5-0.2-1.2-0.6-1.9-0.7c-3.6-0.3-7.2-0.7-10.8-0.7c-4.7-0.1-9.4,0.1-14.2,0.2c-1.3,0-2.7,0.2-3.6,0.2c-1.8,4-3.4,7.8-5,11.5
		C62.2,120.2,62.3,120.7,62.3,121L62.3,121z M22.1,330.4c2.8,2.9,4.1,6.4,4.1,10.4c0,2.3,0.7,4.2,1.9,6c0.7,1.1,1.4,2.1,2.3,3
		c3.8,3.8,7.6,7.5,11.5,11.2c1,0.9,1.3,1.7,0.8,2.9c-0.4,0.9-0.7,1.9-1.1,2.8c2.8,1.2,4,0.9,4.9-1.1c1.9-4.3,3.9-8.6,5.8-12.9
		c0.2-0.5,0.4-1.1,0.8-1.9c-4.5-1.3-8-4-11.1-7.2c4,2.1,7.2,5.6,12,6c-0.2-0.4-0.4-0.6-0.7-0.8c-1.6-0.9-3.2-1.7-4.8-2.7
		c-6.9-4.1-11.6-9.9-14-17.6c-0.5-1.7-0.9-3.4-0.6-5.2c0.2-1.2,0-2.4-1.2-3.4c0,2.1-0.2,4,0,5.9c0.2,1.8,0.6,3.6,1.2,5.4
		c0.6,1.7,1.4,3.3,2.2,5c-1.8-2.3-3.5-4.7-3.9-7.6c-0.4-2.8-0.1-5.6-0.1-8.8c-1,0.6-1.9,0.9-2.5,1.5c-2.4,2.4-4.7,4.8-6.9,7.3
		C22.3,329.1,22.3,329.9,22.1,330.4c-0.3-0.6-0.6-1.3-0.9-2c-2.1,0.6-2.3,0.9-1.5,2.6c0.3,0.7,0.8,1.4,1.2,2.1
		c1.5,2.6,2.5,5.3,2.8,8.3c0.2,2.8,1,5.5,2.9,7.7c2.7,3,5.3,6.2,8.1,9.2c1.7,1.8,3.7,3.2,5.6,4.8c0.5,0.4,1.1,0.5,1.4-0.1
		c0.1-0.3-0.2-0.8-0.4-1.2c-0.2-0.3-0.5-0.4-0.8-0.6c-4.5-3.8-8.8-7.9-12.4-12.6c-1.8-2.4-3.2-5-2.9-8.1c0.1-0.7-0.1-1.5-0.3-2.1
		C23.9,335.6,23,333,22.1,330.4z M84.7,56.8c-2,2.6-3.5,5.4-4.8,8.1c3.4,1.6,6.5,2.9,9.5,4.5c2.9,1.6,5.9,3.2,8.2,5.8
		c-5.9-3.2-11.9-6.4-17.9-9.6c-0.5,0.7-0.8,1.1-1.1,1.6c-0.3,0.5-0.5,1-0.8,1.5c0.5,0.3,0.8,0.5,1.1,0.7c7.2,3.4,14.3,7.1,21.1,11.4
		c4.2,2.7,8.1,5.8,11.4,9.5c0.5,0.6,1.1,1,1.9,1.7c0.8-1,1.5-1.9,2.3-2.9c-4-3.6-8-7-11.9-10.4c2.6,0.8,4.5,2.5,6.4,4.1
		c2,1.7,3.9,3.5,6.1,5.4c0.6-1.1,1.3-2.1,1.7-3.2c0.9-2.1,1.5-4.3,2.4-6.5c1.4-3.6,0.1-7.6-3.1-9.6c-9.8-5.9-20.1-10.8-30.7-15.1
		c-0.1,0-0.3,0.1-0.6,0.2C85.5,54.8,85.1,55.9,84.7,56.8L84.7,56.8z M194.4,467.5C194.4,467.5,194.5,467.6,194.4,467.5
		c1.3-1,2.4-2,3.6-3c-2.8,0.6-5.5,1.5-8.3,2.3c-2.7,0.8-5.4,1.5-8.1,2.3c0-0.2-0.1-0.3-0.1-0.5c6.3-2.8,13.3-3.7,19.2-6
		c0.5-1.4,0.6-2.4,1.1-3.2c1-1.9,1.5-3.9,1.1-6c-0.1-0.6-0.2-1.3-1.5-1.1c0.9,1.9-0.8,2.6-1.7,3.5c-0.9,0.9-1.9,1.7-3,2.4
		c-0.5,0.3-1.1,0.4-1.6,0.6c0-0.1-0.1-0.2-0.1-0.3c1.2-0.8,2.3-1.7,4-2.8c-1,0-1.3,0-1.8,0c0.8-3,3.2-5.3,3.2-8.5
		c0-3.1,0-6.2-0.7-9.4c-1.4,0-2.7-0.1-3.9,0c-2.2,0.1-4.3,0.2-6.4,0.6c-6.9,1.4-13.6,3.4-20.1,6.3c-0.7,0.3-1.5,1-1.9,1.7
		c-1.6,2.6-3.8,4.1-6.7,4.5c-0.5,0.1-0.9,0.2-1.6,0.4c3.3,7.4,9.5,9.4,16.6,9.9c-4,1.1-7.9,0.4-11.8,0c-0.1,1.2,0.5,1.6,1.3,1.7
		c1.6,0.3,3.3,0.9,4.9,0.8c4.8-0.2,9.6-0.7,14.3-1.2c2.2-0.2,4.3-0.7,6.4-1.1c-0.9,0.8-1.9,1.3-2.9,1.5c-4.6,1-9.3,1.8-13.9,2.8
		c-2.7,0.6-5.2,0.1-7.6-1.2c-0.6-0.3-1.2-0.5-2.2-0.9c1.2,2.7,4,2.5,5.7,4.5c-1.5-0.3-2.5-0.5-3.5-0.8c0,0.2-0.1,0.3-0.1,0.5
		c3.3,1.4,6.9,1.1,10.4,1.7c-3.2,1.5-6.5,0.3-9.8,0.2c0.2,1.7,1.3,1.9,2.4,1.9c2.1,0,4.2-0.1,6.2-0.1c0.5,0,1.1,0.1,1.6,0.2
		c0,0.2,0,0.3,0,0.5c-2.1,0.3-4.2,0.7-6.3,1c0,0.2,0,0.4,0,0.5c0.6,0.1,1.2,0.3,1.8,0.3c2.6,0,5.1-0.1,7.7-0.1
		c2.5,0,4.9-0.4,7.3-1.4c3.3-1.4,6.7-2.6,10-4.1c1.6-0.7,3.1-1.7,4.5-2.7c1.7-1.2,3.1-2.7,3.3-5.4
		C201.8,463.1,198.5,466,194.4,467.5z M46.3,233.4c-1.1,0.6-0.4,1.4-0.2,2.1c0.9,2.8,2,5.6,2.8,8.4c0.6,2.1,0,3.2-1.8,4.4
		c-0.3,0.2-0.6,0.4-0.6,0.4c0.8,6,1.5,11.7,2.5,17.3c0.3,1.9-0.2,3.1-1.4,4.3c-0.5,0.4-0.9,0.9-1.4,1.3c-2.1,2-4.1,3.9-6.4,6
		c1,1.4,1.8,2.8,2.8,4c1.7,2,2.5,4.3,2.9,6.7c0.2,1.1,0.3,2.2,0.7,3.3c0.3,0.8,0.8,1.6,1.4,2.1c1.4,1.1,3,2.1,4.8,3.3
		c-0.1-3.1,0.2-6-2.1-8.3c-1.3-1.3-2.5-4.3-2.8-5.9c1.1,1.5,2,3.1,3.3,4.4c2.2,2.1,3.1,4.6,3.3,7.5c0.1,1.5-0.1,3-0.2,4.5
		c-0.2,1.9,0.3,3.4,2,4.3c1.3,0.7,2.7,1.1,4,1.4c1.6,0.4,2,0,2.6-1.6c2.2-5.5,5.2-10.3,10.2-13.5c0.3-0.2,0.6-0.3,0.8-0.4
		c-0.7-2.1-2-2.9-3.5-3.6c-1.5-0.7-3.1-1.3-4.6-2.1c-1.5-0.7-2.9-1.7-4-3c2,0.7,4,1.7,5.9,2.5c2.9,1.2,5.9,2,7.8,4.9
		c1.1-0.8,2-1.4,3.2-2.3c-1-0.7-1.7-1.3-2.6-1.7c-1-0.4-2.1-0.7-3.2-0.9c-5-1-9.4-3.2-13.4-6.2c-1.5-1.1-2.7-2.5-4.1-3.8
		c4.9,2.9,9.6,6.1,15.2,7.7c1.7,0.5,3.5,0.7,5.1,1.3c1.6,0.6,3.1,1.5,4.8,2.4c2.9-2,6.3-2.9,10-3c-0.1-1.3-0.5-2.1-1.5-2.5
		c-1.5-0.6-2.4-1.8-3.1-3.2c-1.4-2.6-3.4-4.6-5.9-6.2c-2.6-1.6-5.3-3.3-7.9-5c-6.2-4.1-10.3-9.9-13.4-16.5c-0.3-0.8-0.4-1.6-0.6-2.4
		c1.7,2.3,2.9,4.7,4.5,6.9c1.7,2.2,3.6,4.2,5.5,6.3c4.4,4.8,10.3,7.4,15.8,10.6c1.1-2,1.9-4,1.6-6.1c-0.2-2.2-0.4-4.5-0.8-6.7
		c-0.1-0.8-0.5-1.7-1.1-2.3c-1.9-2.2-3.8-4.3-6.3-5.9c-3.3-2.1-6.2-4.5-8.2-7.9c-0.4-0.7-1.4-1.3-2.2-1.7c-3.5-1.5-7.2-2.1-11-2.4
		C52.2,236.2,49.2,235,46.3,233.4c0.8,0,1.6,0.1,2.5,0.3c3.1,0.5,6.1,1,9.2,1.6c2.2,0.4,4.4,0.8,6.5,1.5c2.4,0.7,4.6,1.9,5.9,4.2
		c0.3,0.5,0.8,1,1.3,1.4c2.2,1.6,4.4,3.3,6.6,4.8c0.4,0.3,0.9,0.4,1.5,0.7c0-2.5-1.4-3.9-2.9-5.2c-1.1-0.9-2.1-2-3.3-2.7
		c-2.2-1.4-4.4-3-6.8-3.9c-6.3-2.2-12.7-4.2-19.1-6.2c-0.9-0.3-1.9-0.4-3.2-0.7C44.9,231,44.8,232.6,46.3,233.4z M148.5,180
		L148.5,180c-1-3-1.9-6-2.2-9.2c-0.1-0.8-0.6-1.7-1-2.4c-0.8-1.7-2.2-2.4-4.3-2.3c-0.2,1-0.4,2-0.5,3c-0.2,1.2-0.7,1.9-2,1.9
		c-1.5-0.1-3-0.1-4.5-0.3c-1.1-0.1-1.7-0.6-1.6-1.9c0.1-1.5,0.6-2.7,2.2-3.6c-3.1-0.3-4.5,0.7-5,3.2c-0.1,0.5-0.1,1-0.2,1.4
		c-0.3,1.6-1.1,2.8-2.9,3c-0.8,0.1-1.6,0.3-2.4,0.4c-3.2,0.4-6.5,0.8-9.7,1.3c-7.9,1.1-15.9,1.7-23.9,1.6c-1.4,0-2.4-0.3-3.1-1.7
		c-0.5-1-1.3-1.9-2-2.7c-0.6-0.7-1.2-1.5-2.3-1.3c0.2,1.4,0.3,1.3,1.1,2.1c0.6,0.6,1,1.4,1.1,2.2c0.1,0.9-0.7,1.3-1.6,1.5
		c-1.3,0.3-2.6,0.8-3.9,1.2c-2.3,0.6-3.9-0.8-3.2-3.1c0.4-1.1,0-1.8-0.6-2.5c-3.9,0.8-5.7,2.7-6.2,6.3c-0.2,1.3-0.3,2.5-0.5,3.8
		c-0.5,3.3-0.3,3.7,2.9,4.5c0.5,0.1,1.1,0.3,1.6,0.3c3.6,0.2,7.2,0.6,10.8,0.5c7.7-0.3,15.5-0.8,23.2-1.2c0.9,0,1.7,0.2,2.6,0.3
		c-1.3,0.7-2.6,1.1-3.9,1.3c-7.1,1.4-14.3,2.7-21.4,4.2c-2.8,0.6-5.4,1.9-7.7,3.8c-1.7,1.4-1.7,3.3,0,4.7c0.8,0.6,1.8,1.1,2.8,1.3
		c1.1,0.3,2.4,0.4,3.6,0.5c5,0.2,9.9,0.3,14.9,0.5c0.8,0,1.7-0.2,2.6,0.8c-1.6,0.2-2.8,0.5-4.1,0.6c-3.7,0.3-7.5,0.6-11.2,0.8
		c-5.4,0.3-10.7,0.5-15.9-1.3c-0.2-0.1-0.4,0-0.7,0c0,2.6,0.5,3.2,2.7,3c1.8-0.1,3.5-0.4,5.2-0.5c5.5-0.3,11-0.6,16.5-0.8
		c2.6-0.1,5.2,0,8.1,0c-0.8,0.1-1.3,0.2-1.8,0.2c-4.7,0.3-9.3,1.4-13.7,3c-2.2,0.8-4.3,2.1-6,3.7c-3.1,2.9-2.3,6.3,1.6,7.8
		c3.4,1.3,7,1.8,10.6,1.8c3.3,0.1,6.6-0.2,10.4-0.3c-2.5,1-4.5,2-6.6,2.7c-2.1,0.7-4.2,1-6.5,1.6c4.3,3,9.8,4.6,18.1,5.5
		c-9.1,0.4-18,1-27,0.3c-0.3,1.6,0.7,1.9,1.8,2c3.3,0.2,6.5,0.3,9.8,0.4c0.6,0,1.1,0.1,1.7,0.1c-0.5,0.5-0.9,0.6-1.3,0.8
		c-1.1,0.3-2.3,0.6-3.4,1c-1.5,0.6-2.9,2.5-2.8,3.6c0.2,1.6,1.6,1.9,2.8,2.2c3.6,0.9,7.3,1.7,11,2.4c6,1.1,12,1.5,18.1,1.5
		c5,0,9.8-1.1,14.5-2.6c1.7-0.5,2.8-1.8,3.6-3.4c1-2,0.5-3.8-1.5-4.8c-1.2-0.6-2.5-1.2-3.8-1.4c-3.9-0.7-7.9-1.1-11.8-1.7
		c6.5-1.2,13.3-0.7,19.8-3.1c-0.5-0.7-0.8-1.2-1.1-1.8c-2.8,1.6-19,4-22,3.3c0-0.1,0.1-0.4,0.2-0.4c0.3-0.2,0.7-0.4,1.1-0.5
		c5.5-1.4,10-4.5,14.2-8.2c1.1-1,2.1-2.3,2.8-3.6c3.3-6.2,0-14.5-8.1-14.4c-1.5,0-3.1,0-4.6,0c0.4-0.5,0.8-0.7,1.2-0.7
		c3.1-0.5,6.2-0.9,9.2-1.4c3.2-0.5,6.5-0.7,9.5-2.2c0.9-0.4,1.7-0.8,1.4-2c-7.1,1.7-23.1,4.1-26.8,3.8c0.6-0.2,0.9-0.3,1.3-0.4
		c2.7-0.4,5.4-0.8,8.1-1.1c4.3-0.5,8.4-1.8,12.4-3.4c1.1-0.4,2.1-1.1,3.1-1.8c1-0.8,2-1.8,1.7-3.2c-0.3-1.5-1.6-1.9-2.9-2.2
		c-3.2-0.6-6.4-1.3-9.7-1.6c-3.5-0.3-7-0.1-10.5-0.1c4.8-1,9.6-1.5,14.3-2.2c4-0.6,8.1-1.2,12.1-1.8c1.1-0.2,2.2-0.5,3-1.5
		C149.1,180.6,148.8,180.3,148.5,180z M144.8,251.8c0.3,1.1,0.5,1.8,0.6,2.6c0.6,3.3-0.1,6.2-2.1,8.8c-2.1,2.8-2.9,5.8-2.7,9.4
		c0.2,2.6,1.2,4.7,2.5,6.8c12.4-4,24.7-5.6,36.4,1.7c0.8-1,1.2-2.5,2.6-2.1c1.1,0.3,2,1.1,3.1,1.7c1.5-1,2.4-2.4,2.5-4.2
		c0.2-2.9,0.4-5.7,0.4-8.6c0-2,0.4-3.6,2-4.8c0.8-0.6,1.3-1.4,1.3-2.4c0-1.5,0.5-2.7,1.8-3.5c1.1-0.7,1.3-1.7,1.4-2.9
		c0.2-4.8-0.1-9.6,1.5-14.2c-0.3-0.2-0.5-0.4-0.7-0.5c-2.7-1-3.5-2-3.4-4.7c0.1-2.6,0.3-5.1,0.4-7.7c0.1-2.7,0-5.4,0-8.1
		c-0.7-0.1-1.5-0.1-2.2-0.2c-0.5-0.1-1.2-0.2-1.3-0.5c-0.6-1.5-1.7-1.2-2.8-1c-5.2,0.9-10.4,1.9-15.6,2.8c-0.9,0.2-1.8,0.6-2.7,0.9
		c0.9,2.5,1.1,4.8,0.1,7c-0.8,1.7-1.7,3.2-2.6,4.8c-2.4,4.3-4.7,8.7-7.1,13c-0.3,0.5-0.6,0.9-0.9,1.3c-0.2-0.1-0.4-0.2-0.6-0.3
		c0.5-1.5,0.8-3.1,1.5-4.5c2.6-5,5.3-10,8.1-14.9c1.1-1.9,1.6-3.7,1-6.1c-1,0.2-1.9,0.4-2.7,0.7c-3.8,1.5-7.4,3.3-10.8,5.7
		c-2,1.4-3.7,3-5,5.1c-1.7,2.7-3.6,5.3-5.5,7.9c-1.5,2-2.8,4.2-2.9,6.7c0,1,0.1,2.1,0.5,3c0.7,1.9,1.7,3.8,2.5,5.7
		c0.1,0.3,0.3,0.5,0.9,1.2C144.5,255.2,144.6,253.7,144.8,251.8z M401.6,201.7c-0.1-0.1-0.2-0.2-0.3-0.3c-0.4,0.2-0.8,0.4-1.1,0.7
		c-4.5,3.4-9,6.9-13.6,10.3c-2.8,2.1-5.6,4.2-8.6,6.2c-9.4,6.1-18.8,12.1-28.3,18.1c-14.9,9.6-29.9,19.1-44.8,28.8
		c-21.4,13.8-42.9,27.7-64.3,41.5c-10.9,7.1-21.8,14.2-32.7,21.3c-3.1,2-6.2,3.9-9.3,5.9c-1.5,1-1.7,1.6-1,3.2c1,2.2,2.3,4,4.7,4.9
		c0.5-0.3,1-0.5,1.5-0.8c4.1-2.5,8.2-5,12.2-7.6c12.6-8.1,25.1-16.3,37.7-24.3c18.4-11.6,37-22.9,55.4-34.4
		c4.3-2.7,8.4-5.6,12.6-8.3c5.2-3.3,10.5-6.4,15.7-9.7c14.1-8.8,28.1-17.7,41.3-27.9c2.5-1.9,5.1-4,7.1-6.4c3.9-4.6,7.4-9.4,11-14.2
		C398.6,206.6,400,204.1,401.6,201.7z M120.8,407.7c12.5-7.9,25.4-15,39.7-19c-0.8,0.8-1.7,1.4-2.7,1.8c-2.2,0.8-4.3,1.7-6.1,3.2
		c-0.8,0.6-1.8,1.1-2.7,1.6c-7.7,4.3-14.4,9.8-19.5,17c-2.1,2.9-3,6.4-2.8,10c0,0.8,0.5,1.5,0.7,2.3c0.2,0.1,0.4,0.1,0.7,0.2
		c3.7-6.3,8.9-11.2,14.5-15.6c5.6-4.4,11.4-8.5,17.9-11.4c6.5-2.9,13-5.8,20.1-6.7c-1.4,0.7-2.8,1.1-4.2,1.6
		c-4.5,1.4-9,2.9-13.1,5.3c-4.2,2.5-8.2,5.3-11.8,8.6c-5.2,4.7-9.8,9.9-13,16.2c-1,2-1.6,4.1-2.2,6.3c-0.5,1.9-0.7,3.9-0.9,5.9
		c-0.1,0.5,0.1,1.1,0.2,2c1.4-1.6,2.6-3,3.7-4.3c5.2-5.9,11.9-10.2,17.6-15.5c0.2-0.2,0.4-0.3,0.6-0.4c5.1-3,10.1-6.1,15.6-8.3
		c7-2.8,14.3-3.8,21.8-3.9c3.8,0,7.6,0.8,11.2,2.3c-1.2-2-2.3-4-3.8-5.7c-3-3.5-6.8-5.7-11.1-7.3c-2.2-0.8-4.3-1.8-6.8-2.8
		c6.2-0.8,11.7,0.3,17.2,2.5c-0.4-1.5-0.7-3.2-1.7-4.2c-4.6-5-9.8-8.8-16.9-9.5c-0.8-0.1-1.8,0.2-2.5-1.1c2.4-0.8,4.8-1.3,7.3-1.3
		c2.5,0.1,4.9,0.4,7.8,0.7c-1.3-1.5-2.3-2.8-3.5-3.8c-1.9-1.8-4.1-3-6.8-3.4c-2.7-0.4-5.1,1-7.7,1.1c-1.4,1.8-3.4,1.9-5.5,1.9
		c-0.7,4.4-3.6,6.2-7.9,6.4c-0.6,1.7-1.6,2.9-3.3,3.6c-1.7,0.8-3.3,0.3-4.9-0.1c-1.5,3.4-4.1,4.1-7.4,3.3c-0.7,2.2-2.4,2.5-3.7,2.5
		c-1.6,1.8-2.8,3.5-4.4,4.6c-5.8,4.1-11.8,7.6-18.5,10C120.4,405,120.3,405.3,120.8,407.7z M181.3,190.4c-0.3,6.1-2.6,11-6.1,15.4
		c-1.7,2.1-3.4,4.3-5,6.4c-0.8,1.1-1.6,2.3-2.4,3.5c0.1,0.2,0.2,0.3,0.3,0.5c6.5-2.3,13.2-4,20.3-4.6c0-5.2,0-10.2,0-15.4
		c-0.6-0.2-1.3-0.4-2-0.5c-1.3-0.2-1.7-1-1.6-2.2c0-0.4,0.1-0.8,0.1-1.2c0-6.5,0-13.1,0-19.9c-0.8,0.2-1.5,0.4-2.3,0.5
		c-0.6,0.1-1.5,0.2-1.8-0.1c-1.1-1.3-2.3-0.8-3.5-0.6c-1.7,0.3-3.5,0.6-5.2,1.1c-1.6,0.4-3.1,1-4.3,1.3c0.8,1.5,2,2.8,2.1,4.1
		c0.3,3,1.2,5.8,2.3,8.5c0.8,2,0.6,3.8-0.5,5.7c-1.5,2.4-2.7,4.9-4,7.4c-0.3,0.5-0.6,1-0.9,1.5c-0.2-0.5-0.1-0.9,0-1.2
		c1-2.3,1.9-4.8,3.1-7c1.3-2.5,1.4-4.7,0-7.2c-1.3-2.5-2.6-5.1-1.8-8.2c0.3-1.2-0.5-2.3-1.8-3c-3.9,1.5-8,2.9-11.5,5.6
		c-1.6,1.2-3.2,2.6-3.4,4.7c-0.4,3.7-2.1,6.7-4.6,9.3c-1.5,1.5-2.1,3.3-2.5,5.3c-0.9,4.4-1.8,8.8-2.8,13.1c-0.6,2.7-1.4,5.4-2.1,8.1
		c-0.4,1.7-0.1,2.1,1.6,2.5c0.2,0,0.3,0,0.5,0.1c2.1,0,3.3,1.5,4.5,2.9c0.3,0.3,0.2,0.9,0.3,1.7c-2.9-0.8-4.7-2.7-7.4-4
		c0.9,1.7,1.7,3,2.3,4.4c0.6,1.3,1,2.7,1.6,4.6c2.9-3.5,5.4-6.6,7.9-9.8c-0.3-0.4-0.4-0.6-0.6-0.7c-2.1-1.4-3-3.2-2.4-5.7
		c0.1-0.6,0.2-1.3,0-1.9c-0.9-3.2,0.1-5.9,1.7-8.6c1.8-3,2.9-6.2,3.4-9.7c0.4-3,0.9-5.9,1.4-8.9c0.2,0.7,0.1,1.5,0.2,2.2
		c0.3,6.4-1.1,12.4-4.5,17.9c-0.4,0.6-0.6,1.3-1,1.9c-0.5,1-0.6,2-0.3,3.2c0.5,1.7,1.1,3.5,0.8,5.4c-0.1,0.7,0.5,1.6,0.9,2.4
		c0.4,0.6,1.1,1.1,1.5,1.6c4.2-1.6,8.1-3.3,12.2-4.8c0.9-0.3,1.2-0.9,1.6-1.6c1.3-2.2,2.7-4.3,4.2-6.4c1.3-1.8,2.9-3.5,4.2-5.3
		C177.1,200.2,179.6,195.7,181.3,190.4z M53.2,154.2c0.2-0.1,0.3-0.2,0.5-0.3c0.7,1,1.4,1.9,2,2.9c2.8,4.9,5.6,9.9,8.4,14.8
		c0.4,0.7,0.8,1.4,1.2,2.1c0.2-0.1,0.3-0.2,0.5-0.3c-2.3-5.4-4.6-10.7-6.9-16.1c0.2-0.1,0.3-0.1,0.5-0.2c3,6.2,6.1,12.3,8.3,19.2
		c0.6-1.2,1.1-2.1,1.4-3c0.2-0.5,0.3-1.3,0.1-1.8c-1.9-4.8-3.8-9.7-5.9-14.4c-0.9-2.1-2.4-3.6-5.1-4.2c-2.8-0.6-5.6-2-8.3-3.1
		c-1.1-0.5-2.1-1.4-3.1-2.1c-1.5,2.1-1.4,2.6,0.4,3.7c1,0.6,2,1.2,2.9,1.8c-0.1,0.2-0.2,0.4-0.3,0.6c-0.8-0.2-1.6-0.5-2.3-0.7
		c-2.6-0.9-5.1-0.9-7.3,0.6c-3.9,2.7-5.9,4.7-4.9,9.7c1.2,6,2.4,12.1,3.9,18c0.5,1.9,0.3,3.2-1.2,4.3c-0.1,0.1-0.1,0.3-0.2,0.5
		c0.3,0.7,0.6,1.4,0.9,2.2c0.6,2.1,1.9,3,4.1,3.3c1.9,0.2,3.8,0.8,5.5,1.6c4.3,2.2,8.6,4.6,12.8,7c2.1,1.2,4.2,2.5,6.5,3.8
		c0-0.4,0.1-0.8,0-1c-1.7-5.7-1.7-11.5-0.9-17.3c0.3-1.7-0.1-3.1-1.2-4.4c-2.7-3.4-5.3-6.8-8.1-10.1c-2.6-3-5.5-5.8-8.1-8.5
		c-0.2,0-0.1,0,0,0c0.4,0.2,0.7,0.4,1,0.6c3.1,1.9,5.8,4.3,8.1,7.1c2.2,2.7,4.2,5.4,6.3,8.2c0.3,0.4,0.7,0.7,1,1
		C62.4,170.6,57.8,162.4,53.2,154.2z M19.4,426.8c0.1,0.1,0.2,0.3,0.4,0.4c0.5-0.1,0.9-0.1,1.4-0.2c2.4-0.2,4.8-0.6,7.1-0.4
		c6.3,0.5,12.5,1.4,18.8,2.1c8.4,0.9,16.5,2.7,24.2,6.2c1.2,0.6,2.6,0.9,3.8,1.4c2,0.8,4,1.6,5.9,2.6c3.2,1.8,6.3,3.7,9.5,5.6
		c1.2-4.6,0.3-8.9-1.7-13c-2.6-5.4-7.4-8.5-12.5-11.1c-5.2-2.7-10.7-4.6-16.3-6.3c-5.5-1.7-11.1-3.1-16.9-2.5
		c-1.5,0.2-3.1,0.2-4.5,0.6c-6.7,2.3-12.6,5.8-17.1,11.4C20.8,424.7,20.2,425.8,19.4,426.8z M78.2,242.2c1.7-3.1,2.2-6,1.2-9.1
		c-2.4-7.2-5.9-13.8-9.4-20.4c-0.5-0.9-1.3-1.7-2.1-2.3c-2.7-2-5.4-4-8.3-5.7c-3.6-2.1-7.2-4.1-11-5.9c-1.9-0.9-3.9-1.7-6-1.8
		c-0.3,2.5,2,5.1-1.3,6.9c1.1,5.2,2.1,10.4,3.2,15.5c0.5,2.5,1,4.9-1.4,6.7c0.5,1,0.9,1.8,1.2,2.5c9.5,0.7,17.8,4.6,26.2,7.1
		c2.9-3,2-6.6,1.8-10.1c1.2,2.9,2.2,5.8,1.5,8.8c-0.5,2.3-0.1,3.9,1.7,5.3C76.3,240.6,77.1,241.3,78.2,242.2z M198.1,414.9
		c-0.8-0.1-1.6-0.3-2.4-0.3c-2.1-0.1-4.2-0.1-6.2-0.1c-8.8-0.2-17.1,2-24.8,6.3c-2.3,1.3-4.4,2.9-6.8,4.1c-2.7,1.3-4.3,3.4-5.7,5.9
		c-0.5,0.8-1,1.7-1.4,2.5c-1.6,3.2-2,6.5-1.3,10c0.4,1.6,1.3,2.5,2.9,2.7c1.7,0.3,3.5,0.6,5.2,0.8c3.4,0.5,3.4,0.5,4.5-2.9
		c1-3.1,2.4-5.9,5.3-7.7c2.1-1.3,4.4-2,6.8-2c1.8,0,2.8-0.9,3.6-2.3c0.4-0.6,0.7-1.3,1-1.9c0.1,0,0.2,0.1,0.3,0.1c0,1.6,0,3.3,0,4.9
		c2.6-0.2,3.4-0.9,3.8-3.3c0.1-0.7,0.1-1.4,0-2.1c-0.2-1.7-0.5-3.4-0.9-5.5c3.3,2,2.9,5.5,4.3,8.1c0.6-0.4,1-0.8,1.6-1.2
		c1.6-1.1,3.2-1.2,4.9-0.1c0.5,0.4,1,0.8,1.6,1.1c0.5,0.2,1,0.5,1.6,0.4c1.5-0.1,5-3.5,5-5c0-1.6,0.1-3.5-0.6-4.9
		C199.3,420.1,198.4,417.7,198.1,414.9z M166.7,310.7c-0.7-1.1-0.9-1.7-1-3.6c-0.1-3-0.1-6.1-0.3-9.1c-0.3-5-0.2-9.9,0.6-14.8
		c0.3-1.9,0.5-2.2,2.5-1.8c2.9,0.5,5.7,1.3,8.6,1.9c0.4,0.1,1-0.2,1.4-0.3c-0.2-0.4-0.4-1.1-0.7-1.3c-5.4-2.6-11.1-4.8-17.3-4.1
		c-5.1,0.6-10.1,1.4-15.1,2.3c-1,0.2-1.9,1-2.8,1.7c-0.3,0.3-0.2,1-0.4,2c5.9-1.9,11.2-3.9,17.1-3c-2.4,0.6-4.9,1-7.3,1.7
		c-2.4,0.7-5.1,0.7-7.2,2.5c0.5,1.8,1,3.4,1.5,5c0.6,2,1.3,4,1.9,5.9c1.2,3.9,2.4,7.8,3.6,11.7c0.8,2.7,2.4,5,4.3,7.1
		c2,2.2,4.8,2.9,7.6,2c3-1,6-1.9,9.2-3c1.5-9.2,3-18.7,4.6-28.3c-0.9-0.4-1.8-0.9-2.9-1.4c-0.4,6.8-0.6,13.2-1.8,19.9
		c-0.3-0.4-0.4-0.5-0.3-0.5c0.6-6,1.1-11.9,1.8-17.8c0.2-1.6-0.1-1.9-1.9-1.9c-0.2,8.9-0.5,17.9-0.7,26.8c-0.2,0-0.4,0-0.7,0
		c0-9-0.3-18.1,0.9-27.3c-1.7-0.4-3.4-0.7-5.2-1.1c0,4.9,0,9.7,0,14.4C166.6,301.1,166.7,306,166.7,310.7z M76.4,292.7
		c0.9,0.8,1.7,1.4,2.5,2.1c1.8,1.6,3.6,3.2,5.3,4.9c3.7,3.7,7.2,7.5,10.9,11.2c5.6,5.6,11.3,11,17,16.5c3.5,3.4,7,6.7,10.7,10.3
		c2.4-2.2,5.5-3.1,7.4-5.7c-2.3-2.6-4.6-5-6.6-7.5c-4.3-5.2-8.4-10.5-12.7-15.6c-4.2-5.1-8.8-9.9-12.6-15.4c-1.8-2.6-3.7-5-3.7-8.3
		c-4.3-2.2-8.4-2.3-12.4,0.2c-2.4,1.5-4.7,3-7.1,4.4c-4.8,2.7-8,6.9-10.3,11.6c-0.8,1.5-1,3.3-1.4,5c-0.2,0.8-0.1,1.8,0.9,2.5
		c0.8-5.8,2.4-9.3,6.9-13.4c2.2-2.1,4.7-3.8,7.1-5.7c2.5-2,5.2-3.4,8.2-4.4c0.7-0.2,1.5-0.2,2.2-0.3C84.1,287,80.1,289.1,76.4,292.7
		z M130.8,380.5c-4.9,2.2-9.5,4.4-14.2,6.4c-5.8,2.5-11.5,5.2-17.4,7.4c-4.1,1.5-8.5,2.3-12.7,3.5c-6.5,1.9-10.4,6.2-12.1,13
		c4.8-0.4,9.5-0.5,14.2-1.2c4.1-0.6,8.1-1.9,12.1-2.8c6-1.5,12.1-3,18.1-4.4c8.7-2.1,16-6.6,22.5-12.7c0.2-0.2,0.2-0.5,0.4-0.8
		C137.7,386.6,133.4,385,130.8,380.5z M105.9,108.7c1.7-3.2,4-12.4,4.1-15.6c0-1.1-0.3-1.9-1.1-2.5c-2.6-2.1-5-4.4-7.8-6.4
		c-6.5-4.6-13.5-8.2-20.7-11.6c-0.8-0.4-1.6-0.5-2.5-0.7c-2.5,4.7-5,9.1-7.3,13.7c-1.2,2.3-0.8,3.2,1.5,4.4c0.3,0.2,0.7,0.3,1.1,0.4
		c6,2.1,11.6,4.8,17,8.2c0.2,0.1,0.4,0.2,0.6,0.4c0.2,0.1,0.3,0.3,0.5,0.5c-3.7-1.6-7.2-3.5-10.9-4.8c8,5.5,16.5,10.4,23.9,16.8
		c1.1-1.7,1.1-1.7,0.3-3.2C105,108.4,105.4,108.5,105.9,108.7z M32,479.1c-1.6,0.4-2.1,1.4-2.4,2.4c-1.4,4.7-3.2,9.4-4.1,14.3
		c-1,5.4-1.4,10.9-1.7,16.4c-0.4,5.5-0.5,11-0.7,16.5c0,1.1-0.1,2.2,1.1,3.4c0.3-9.2,0.7-18.1,4.2-26.5c0.3,0.8,0.4,1.5,0.3,2.3
		c-0.2,6.6-0.4,13.3-0.6,19.9c-0.1,2.4,0,4.8,0.1,7.2c0,0.9,0.2,1.9,1.5,2.1c0.4-4.4,0.7-8.7,1.2-13c0.5-4.3,1.2-8.6,1.8-13
		c0.2,0,0.4,0,0.6,0.1c-0.1,4.1-0.3,8.3-0.4,12.4c-0.1,4-0.2,8-0.3,12c0,0.8,0,1.7,1.1,2.3c1.9-2.3,3.3-4.8,3.9-7.6
		c0.5-2.4,1-4.9,1.4-7.3c1.4-8.7,2.8-17.3,4.3-26c0.8-4.7,1.5-9.3,1.4-14c0-1.2-0.2-2.4-0.4-3.6c-0.4-1.6-0.8-1.8-3-1.8
		c-2.2,10.2-5.3,20.3-6.7,30.7c0.5-5.2,1.1-10.4,1.9-15.6c0.8-5.3,1.7-10.5,2.5-16.1c-1-0.1-1.9-0.1-3-0.2
		c-2.1,7.8-4.2,15.5-6.3,23.1c0.1-2.1,0.6-4.1,0.9-6.2c0.6-3.9,1.2-7.9,1.7-11.8C32.4,480.8,32.1,480,32,479.1z M144,127.9
		c-2.4-0.7-4.5-0.4-6.7,0.3c-1.6,0.5-3.2,1.1-4.8,1.5c-1.5,0.4-2.5-0.2-2.7-1.6c-0.4-2.9,0.2-5.6,1.7-8c0.4-0.7,1.3-1.2,2.1-1.4
		c2-0.7,4.1-1.3,6.2-1.9c3.4-1,5.9,0,7.7,3c0.1,0.1,0.3,0.1,0.4,0.2c0.1,0,0.3-0.1,0.4-0.2c0.2-0.2,0.5-0.4,0.7-0.7
		c2.4-3.2,3.3-6.9,2.6-10.9c-0.5-3-1.2-3.8-3.9-4.1c0.7,2.7,1.3,5.4,2,8.1c0.4,1.5-0.2,2.7-1.2,3.7c-1.1,1.1-2.4,0.5-3.6,0.1
		c-0.6-0.3-1.2-0.8-1.7-1.3c-0.5-0.4-0.8-0.9-1.2-1.4c-1.8,1-3.6,0.9-5-0.5c-0.4-0.4-0.6-1.1-0.5-1.7c0.2-1.4,2.4-3,4.3-3.1
		c-0.8,0.7-1.7,1.2-2.2,1.9c-0.3,0.4-0.4,1.3-0.2,1.7c0.3,0.4,1.1,0.5,1.6,0.6c0.3,0,0.6-0.2,0.9-0.3c1.2-0.5,2.2-0.3,3.1,0.5
		c0.4,0.4,0.8,0.7,1.3,1.1c0.7,0.6,1.6,1.2,2.3,0.5c0.5-0.5,0.8-1.6,0.6-2.3c-0.5-2.7-1.3-5.3-2-7.9c-0.3-1-1-1.2-1.8-1
		c-0.5,0.2-1,0.4-1.5,0.7c-3.4,2.5-6.9,4.9-10.1,7.7c-2.7,2.3-5.6,2.8-8.9,2.1c-4.1-0.9-7.2-3.3-10.1-6.1c-0.4-0.4-0.9-0.7-1.3-1
		c-0.1,0.1-0.3,0.2-0.4,0.4c2.1,4.3,4.2,8.6,6.3,12.9c-3.3-4.3-5.7-9-7.3-14.5c-0.4,0.6-0.8,0.9-0.8,1.1c0.1,2.1-1.1,3.8-1.7,5.6
		c-1,3.2-3.1,4-5.5,2.5c-0.1,0-0.3,0.1-0.5,0.2c0.2,0.4,0.4,0.7,0.6,1c3.5,5.6,7.8,10.5,12.7,14.9c3.7,3.2,7.6,5.7,12.6,6.4
		c3.8,0.6,7.6,1.1,11.4,0.5c2.4-0.3,4.4-2.3,4.3-4.4C144.4,131.3,144.2,129.6,144,127.9z M64.3,441.6c0.1,0,0.2,0.1,0.3,0.1
		c-0.2,0.8-0.3,1.7-0.5,2.5c-0.9,4.8-2.7,6.6-7.5,7.4c-1.3,0.2-2.6,0.3-3.8,1c0.4,0.2,0.7,0.4,1.1,0.3c2.2-0.1,4.1,0.5,5.7,2
		c0.4,0.3,0.8,0.6,1.2,0.8c1.3,0.9,2.5,0.9,3.8-0.1c1-0.8,2.1-1.5,3.1-2.3c2.9-2.2,6.1-2.7,9.5-2.1c0.7,0.1,1.4,0.3,2.1,0.4
		c1.9,0.3,2.4,0,3.3-1.6c0.7-1.4,1.4-2.8,2.1-4.3c-1.4-0.8-2.8-1.5-4.2-2.3c-7.7-4.5-15.8-8.1-24.5-10c-7.5-1.6-15-2.9-22.6-4.4
		c-0.5-0.1-1.1-0.1-1.6-0.1c-0.9,1.1-0.8,2.2-0.6,3.3c0.6,2.7,1.2,5.5,2,8.1c0.7,2.3,2.2,4,4.2,5.3c1.5,0.9,2.9,1,4.5,0.1
		c1.4-0.8,2.9-1.4,4.3-2.1c2.1-1,4.1-0.7,5.9,0.5c0.9,0.6,1.6,1.5,2.2,2.4c1.4,2,2.9,2.5,5.1,1.3c2-1,2.9-2.9,3.9-4.7
		C63.7,442.8,64,442.2,64.3,441.6z M73.2,400.6c-1.9-0.4-3.6-0.7-5.3-1.1c-5.1-1.3-10.2-2.7-15.3-4.2c-2.3-0.6-4.6-0.5-6.9-0.1
		c-6.6,1.1-12.2,4.1-16.9,8.9c-0.9,1-1.9,1.9-2,3.4c1.2,0,2.3,0.1,3.4,0c6.5-0.6,13-0.2,19.3,1.2c6.1,1.3,12.1,3.1,18,5
		c3.8,1.2,7.5,2.7,11.2,4.2c3.9,1.5,7.8,3.2,11.8,4.7c1.7,0.7,3.4,1.3,5.3,2c0.2-1.2,0.5-2.2,0.6-3.1c0.2-3,0-5.9-1.9-8.5
		c-0.8-1.1-1.7-1.6-3.1-1.3c-1.4,0.3-2.8,0.5-4.3,0.7c-4.6,0.6-9.2,1-13.8,0.3c-2.5-0.4-2.9-1-1.9-3.3
		C72.6,406.6,72.8,403.6,73.2,400.6z M119.6,23.3c-3.3-2.5-5.5-5.9-9.6-6.4c-0.5,1.2-0.9,2.3-1.3,3.5c0.7-0.1,1.3-0.1,1.8-0.1
		c0.8,0,1.5,0.4,1.5,1.2c0,0.5-0.6,1.2-1,1.4c-1.4,0.4-3,0.7-4.4,0.7c-1.3,0-1.9-1-1.5-2.4c0.3-0.9,0.9-1.7,1.4-2.5
		c0.8-1.2,0.8-2.1-0.2-3c-3-2.5-6.1-4.7-10.1-5c-2.8-0.2-5.2,0.3-7.2,2.4c-2.3,2.5-2.1,5.8,0.5,7.9c0.3,0.2,0.5,0.4,0.8,0.6
		c3.7,2.6,6.7,5.9,9.2,9.6c3.8,5.7,6.5,11.9,9,18.2c0.8,1.9,1.5,3.8,2.3,6c3-3,5.5-0.4,8.2,0.4c0.4-1.6,0.6-3.1,1.1-4.5
		c0.3-1,0.1-1.8-0.2-2.7c-1.3-3.6-2.5-7.2-3.6-10.9C114.6,32.4,114.9,27.5,119.6,23.3z M159,142.3c-1.4-0.1-2.5-0.2-3.8-0.4
		c-1.4,2.3-2.8,4.6-4.2,6.8c-0.3,0.5-0.7,1.1-0.8,1.7c-0.9,4.6-1.6,9.3-2.5,13.9c-0.3,1.4-0.2,2.7,0.7,4.1c0.6,0.8,0.6,2,0.7,3
		c0.2,1.3,0.4,2.6,0.5,3.8c1.4-3.2,2-6.5,3.2-9.5c1.2-3.1,3-6,4.5-9c0.1,0,0.2,0.1,0.3,0.1c-1.9,6.6-3.8,13.3-5.8,20.1
		c2.6-1.4,4.9-2.7,7.2-3.8c1.7-0.8,3.6-1.4,5.3-2.2c0.5-0.2,1.2-0.6,1.4-1.1c1.5-2.9,2.9-5.9,4.3-8.8c0.6,2.8-0.1,5.5-0.9,8.3
		c3.7-0.8,7.1-1.6,10.6-2.4c0-1.5,0.1-2.7,0-3.8c-0.1-0.8-0.2-1.6-0.5-2.3c-1.2-2.4-2.5-4.8-3.9-7.1c-1-1.8-1.9-3.7-4.1-4.5
		c-3.1-1-5.7-2.8-7.6-5.6c-0.1-0.2-0.4-0.2-0.9-0.4c-0.3,0.6-0.5,1.2-0.9,2.1c-0.5-1.2-0.7-1.6-0.9-2.1c-1,0.4-0.7,2-2.1,1.9
		C159,144.3,159,143.5,159,142.3z M125.9,369.1c-0.7,0-1.2-0.1-1.7,0c-3.5,0.8-7.1,1.3-10.5,2.4c-10,3.1-20.2,5.4-30.7,5.8
		c-1.7,0.1-3.3,0.2-4.9,0.3c-0.1,0.4-0.3,0.6-0.3,0.8c-0.2,3.9-0.3,7.8-0.5,11.7c0,0.9,0.3,1.4,1.2,1.5c0.6,0.1,1.1,0.1,1.7,0.1
		c5.9,0.3,11.6-0.9,17.2-2.5c4.4-1.2,8.8-2.9,13.1-4.5c5.4-2,10.7-4.2,16-6.3c0.6-0.2,1.1-0.6,1.6-0.8
		C127.4,374.8,126.7,372,125.9,369.1z M77.8,372c3.7,0,7,0.1,10.4,0c5.1-0.1,10.2-0.7,15.2-2c6.9-1.8,13.8-3.4,20.7-5
		c2.2-0.5,2.5-0.7,2.7-2.9c0.2-1.3-0.2-2.3-0.9-3.2c-3.6,0.2-3.6,0.2-5-3c-0.9-0.5-2-0.7-2.6-1.3c-0.9-0.9-1.9-1-3.1-0.9
		c-4,0.6-8.1,1.1-12.1,1.8c-5.3,0.9-10.5,2-15.8,3c-2.9,0.5-5.7,1.1-8.7,1.7C78.6,364.1,77.5,367.9,77.8,372z M37.4,473.5
		c-1.6-0.5-2.8-0.8-4-1.2c0.7,1.8,2.2,2.3,3.6,2.5c5,0.8,10,1.3,14.9,2.1c4.2,0.7,8.1-0.2,12.1-1.2c0.5-0.1,0.9-0.6,1.8-1.2
		c-3.4-0.6-6.2,1.2-9.5-0.1c1.6-0.2,2.7-0.2,3.8-0.5c1.9-0.5,3.8-1.2,5.7-1.9c0.7-0.3,1.5-0.8,0.8-1.8c-1.5,0.6-3,1.2-4.5,1.7
		c-1.4,0.4-2.9,1-4.4,0.5c0.6-0.4,1.3-0.5,2-0.8c1.7-0.6,3.5-1.2,5.2-1.9c0.9-0.3,1.4-0.9,1-2c-2.8,0.5-5.4,0.9-8.1,1.3
		c0-0.2-0.1-0.3-0.1-0.5c0.8-0.2,1.6-0.4,2.5-0.7c1.9-0.6,3.8-1.1,5.6-2c1.3-0.6,2.7-1.6,3.6-2.7c1.1-1.5,1.9-3.3,2.7-5.1
		c0.2-0.3,0.1-0.8,0.1-1.5c-2.1,1-3.9,1.8-5.6,2.8c-2.2,1.2-4.4,1.5-6.7,0.6c-2.4-0.9-4.7-2-7.1-2.9c-2.2-0.8-4.2-1.6-4.9-3.8
		c-2.7,0.2-5.3,0.5-7.8,0.7c-2.6,0.1-4.8-1.1-7.3-2.8c0.5,3.3,1.6,5.8,2.9,8.3c1.8,3.3,4.4,5.6,8.2,6.3c0.9,0.2,1.8,0.5,2.7,0.9
		c0.3,0.1,0.6,0.4,0.9,0.6c-2.8-0.1-5.6-0.2-8.2-1.2c-2.8-1.1-4.4-3.5-6.5-5.8c-2.1,5,1.4,7.4,3.4,10.6c-1.3-0.8-2.5-1.7-4.1-2.7
		c0.1,0.8,0.1,1.3,0.3,1.4C33.8,470.7,35.4,471.9,37.4,473.5z M41.1,364.8c-1-0.7-1.8-1.2-2.5-1.8c-4.9-3.7-8.8-8.3-12.6-13.1
		c-2-2.5-2.9-5.4-3.4-8.5c-0.3-2.1-1-4.2-1.7-6.2c-0.6-1.7-1.6-3.2-2.5-5c-0.4,0.4-0.8,0.7-1.1,1c-2.9,3.2-5.4,6.7-7.6,10.4
		c-1,1.8-0.9,3,0.1,4.5c1.7,2.5,3.4,5,5.1,7.5c0.6,0.8,1.2,1.8,1.4,2.7c0.7,4.5,3.3,7.9,6.3,11c3,3,6.2,5.9,9.4,9
		c-0.5,1.2-1.1,2.5-1.6,3.8c3,1.7,4.6,1.2,5.5-1.7c0.9-2.7,1.5-5.5,2.2-8.3c0.4-1.5,0.7-2.9,2.1-3.9
		C40.6,366.1,40.8,365.4,41.1,364.8z M32.8,390.2c0.7,0.1,1,0.1,1.3,0.2c9.1,1.2,18.1,2.9,26.8,6c3.3,1.2,6.7,1.9,10.1,2.7
		c0.8,0.2,1.7,0,2.7,0c-0.3-2.9-0.7-5.4-1.5-7.9c-0.8-2.5-2-4.6-3.7-6.6c-2-2.3-4.3-4-7.1-5.1c-3.5-1.5-7-3-10.7-4.1
		c-2.5-0.8-5.2-1-7.8-1.4c-0.9-0.1-1.8-0.2-2.8-0.2c-0.3,1.1-0.6,2.1-0.9,3c-0.9,2.7-1.8,5.3-4.2,7.1c-0.4,0.3-0.6,0.8-0.7,1.2
		C33.7,386.7,33.3,388.4,32.8,390.2z M87.3,128.3c-0.1-0.2-0.1-0.3-0.2-0.5c-0.7,0-1.4-0.2-2.1-0.1c-2.7,0.2-5.4,0.4-8.1,0.6
		c-5.3,0.4-10.5,0.3-15.6-1.6c-1.5-0.6-3.1-1.2-4.7-1.9c-1.4,2-2.7,3.8-4,5.6c-1.2,1.8-2.3,3.6-3.6,5.4c-1.3,1.7-2.8,3.4-4.3,5.3
		c1,0.4,1.7,0.8,2.5,1c4.4,1.3,8.8,2.7,13.5,3.2c8.6,0.8,12.6-2,16-7.8c0.4-0.7,0.7-1.3,1.1-2c0.2,0.1,0.3,0.1,0.5,0.2
		c-0.6,1.3-1.2,2.7-1.9,4c-1.8,3.8-5,5.9-9,6.8c-2.8,0.6-5.6,0.5-8.3,0.1c-1-0.1-2.1-0.3-3.1-0.5c-1-0.2-2-0.4-3-0.6
		c5,2.8,10.3,3.9,15.9,3.1c1.8-0.3,3.6-0.6,5.3-1.4c2.3-1.1,3.5-3.2,4.6-5.6C80.9,136.8,82.3,131.4,87.3,128.3z M182.4,359
		c1.5-0.8,3.1-1.2,3.5-2.8c0.6-2.1,1-4.2,1.5-6.3c0.5-2,0.3-3.9-0.5-5.8c-0.3-0.7-0.4-1.5-0.6-2.3c-0.4-2.1-0.9-4.2-1.3-6.3
		c-0.2-1.1-0.8-2.1-1.9-2.2c-3.1-0.2-5.2-1.9-6.9-4.3c-0.2-0.3-0.4-0.5-0.7-0.7c-1.5-1.3-2.1-1.2-3.8-0.2c-3.3,2.1-6.4,4.5-10.5,5.1
		c-0.9,0.1-1.3,0.8-1.6,1.6c-0.8,1.7-1.7,3.4-2.5,5.1c-0.2,0.3-0.2,0.8-0.2,1.1c0,1.8,0.2,3.6,0.1,5.5c-0.1,3.2,1,6,2.3,8.9
		c3.8-1.4,7.1-3,10.4-5.6c-6.6-2.4-6.6-7.8-6.9-13.1c0.5,0.7,0.6,1.5,1,2.3c0.7,1.4,1.2,3.1,2.2,4.1c2.5,2.6,5.5,3.8,8.5,1.7
		c-0.3-0.7-0.6-1.3-0.9-2c1,2.2,3.6,1.7,5,2.9c0.5-0.4,0.9-0.8,1.3-1.1c0,1.6,0,3.1,0,4.6c0,1.4,0.2,2.7,0,4
		C179.8,355.5,180.6,357.2,182.4,359z M112.8,94.3c-0.4,2.3-0.8,4.5-1.3,6.7c-0.2,1.1,0.1,1.7,1,2.2c0.5,0.3,1.1,0.7,1.7,0.9
		c3.6,1.2,7.1,2.4,10.7,3.5c3.9,1.2,7.6,0.6,11.1-1.5c2.9-1.8,5.8-3.6,8.7-5.3c0-1.5,0-3,0-4.4c0.7,0.1,1.2,0.3,1.7,0.2
		c0.7-0.1,1.4-0.3,2.1-0.4c1.5-0.2,1.8-0.6,1.8-1.9c0-1.1-0.5-1.8-1.7-1.7c-0.3,0-0.7-0.1-1.1-0.1c1.2-2.2,4.3-2.5,5-5.5
		c-1.4,0.1-2.5,0.1-3.6,0.2c-4.8,0.4-9.5,1-14.3,1.2c-4.4,0.2-8.8,0.1-13.2,0c-1.5,0-2.3,0.4-3.1,1.6
		C116.9,92,115.5,93.9,112.8,94.3z M136.5,381c4.7-6.4,10.7-11.3,17.8-15c-0.1-3.2-0.3-6.4-1.2-9.8c-1.2,0.4-2.3,0.6-3.1,1.1
		c-3.4,2-6.7,4.1-10,6.1c-0.6,0.3-1.1,0.7-1.6,1.1c-0.1-0.1-0.2-0.3-0.3-0.4c2.1-1.7,4.2-3.5,6.4-4.9c2.2-1.4,4.7-2.5,7.2-3.8
		c-3.1-3-6.1-5.9-9.3-9.1c-0.4,0.3-1,0.5-1.5,0.9c-2.3,2.1-4.7,4.1-6.8,6.4c-3.2,3.4-5,7.6-5.4,12.3c-0.2,2.7,0.2,5.3,1,8.3
		c4.3-4.6,8.8-8.2,14-10.9c0,0.4-0.4,0.5-0.6,0.7c-3.7,3.4-7.4,6.9-11,10.3c-0.3,0.3-0.7,0.7-0.9,1.1c-0.7,0.9-0.7,1.6,0,2.6
		C132.4,379.7,134.1,380.6,136.5,381z M118.6,164c-0.1-0.3-0.1-0.5-0.2-0.6c-2.5-1.9-5.1-3.6-7.4-5.7c-2.4-2.1-4.8-4.2-6.8-6.7
		c-4.3-5.5-8.4-11.2-12.8-17.1c-1,2-1.8,3.8-2.7,5.5c2.3,3.2,4.5,6.3,6.9,9.3c2.4,3,4.9,6,7.3,8.9c-0.1,0.1-0.3,0.3-0.4,0.4
		c-1.3-1.3-2.7-2.6-4-4c-1.3-1.4-2.5-2.9-3.6-4.5c-1.2-1.5-2.3-3.1-3.3-4.7c-1-1.6-2-3.2-3.1-5c-1.1,2.1-2,3.9-3,5.7
		c0.5,2.1,2.7,3.5,3.1,6.1c-2.1-1.4-2.1-3.8-3.6-5.3c-0.8,1.1-1.5,2-2.1,2.8c1,1.8,2,3.4,2.6,5.1c0.7,1.7,0.9,3.5,1.5,5.3
		c0.9,3,2.6,5.5,5.8,6.1c1.9,0.3,3.9-0.1,5.8-0.2c0.1-0.2,0.1-0.3,0.2-0.5c-3.7-3.1-6.9-6.6-8.8-11c0.6,0.5,1.1,1,1.6,1.6
		c2.5,2.9,5,5.8,7.6,8.6c0.7,0.8,1.5,1.4,2.7,1.4c5,0.2,9.9-0.1,14.8-1.1C117.3,164.5,118,164.2,118.6,164z M121.7,338.3
		c-13.8-13.6-28-26.6-41.2-40.6c-1.5-1.6-3.2-2.9-4.8-4.3c-2.2,1-5.3,4.2-6.5,6.7c15.8,14.5,32.2,28.3,49.6,41
		C119.9,340.1,120.8,339.2,121.7,338.3z M136.6,383.8c2.5,1.8,5.2,3.3,8.4,3.8c1.6,0.3,1.7,0.2,2.3-1.5c-1.1-0.7-2.2-1.5-3.4-2.2
		c1.9,0.3,3.7,1,5.4,1.7c3,1.1,4.5,0.1,4.9-3.1c-1.5-1.3-2.9-2.5-4.4-3.8c0.6-0.2,0.9-0.1,1.2,0.1c1.7,0.9,3.4,1.8,5,2.8
		c1.2,0.7,2.5,1,3.9,0.7c1.4-0.3,2.2-1.2,2.4-2.3c0.2-1.3-0.5-1.8-1.5-2.4c-1.9-1.2-2.8-2.1-3.8-3.7c2.1,1.1,3.9,2.1,5.7,3
		c0.8,0.4,1.7,0.8,2.7,1c1.8,0.3,3.4-0.5,3.9-1.6c0.9-2.1,0.7-3.2-1.2-4.7c-0.5-0.4-1-0.8-1.5-1.2c-1.4-1.1-2.4-2.3-2.6-4.1
		c-0.1-1-0.7-2-0.9-3c-0.3-1.2-0.9-2.2-1.9-2.9c-1.5-1.2-3-2.3-4.6-3.5c0.2-0.4,0.6-0.9,0.5-1.3c-0.6-2.3-1.4-4.5-2.1-6.8
		c-2.2,0.2-4.3,0.4-6.6,0.6c0.5,0.6,0.8,1.1,1.2,1.4c1.4,1.3,2.9,2.5,4.2,4c0.7,0.8,1.4,1.8,1.6,2.8c0.4,2.3,0.4,4.6,0.5,6.9
		c0.1,1.7-0.6,2.7-2.1,3.7c-4.7,3.1-9.4,6.3-13,10.8C139.4,380.5,138,382.1,136.6,383.8z M122.3,82.4c3.4,0,6.8,0.2,10.1,0.1
		c3.4-0.1,6.7-0.2,10.1-0.5c3.3-0.3,6.5-0.3,9.8-0.1c-3.7,0.8-7.3,1.6-11,2c-6.4,0.6-12.9,1-19.4-1.5c-0.5,1.4-0.9,2.6-1.4,4
		c1.2,0.1,2,0.2,2.8,0.2c3.7,0,7.4,0.1,11-0.1c6.9-0.4,13.9-0.9,20.8-1.6c4.1-0.4,8-1.4,11.6-3.6c1.2-0.7,2.5-1.5,2.6-3.2
		c-0.8-0.8-1.7-1-2.7-0.8c-1.2,0.3-2.5,0.7-3.7,1c-1.8,0.4-3.6,0.9-5.4,1.3c0-0.1-0.1-0.2-0.1-0.4c1.9-1,3.8-2,6-3.1
		c-2.3-1.5-4.3-2.8-6.3-4c-0.6-0.4-1.3-0.6-2-0.6c-5.5-0.1-11,0.2-16.3,2.1c-1.2,0.4-2.5,0.7-3.6,1.2c-3.4,1.3-6.7,2.5-10.1,3.9
		C123.5,79.3,122,79.9,122.3,82.4z M7.8,341.5c-1.9,2.2-2.5,4.5-3,6.8c-0.5,2.3-0.8,4.7-1.4,7.1c-0.8,3.2-0.1,5.8,2.4,8
		c0.4,0.3,0.7,0.7,1.1,0.9c1.9,1.4,2.9,3.3,2.9,5.7c0,1.7,0.5,3.1,1.5,4.5c3.2,4.5,6.8,8.7,10.7,12.6c0.4,0.4,1,0.6,1.5,0.9
		c2.2-4.1,4.2-7.9,6.3-11.8c-1.7-1.4-3.2-2.8-4.8-4.1c-4.4-3.5-7.6-7.7-9.4-13c-0.5-1.4-1.2-2.8-2-4C10.7,351,8.4,346.9,7.8,341.5z
		 M38.4,183.4c-6.1-8.7-10.8-17.5-8.5-28.7c-4.2,2-7.9,4-11.2,6.7c-2.2,1.8-3.4,4-3.8,6.7c-0.2,1.9-0.3,3.8-0.2,5.7
		c0.1,3,0.3,5.9,0.6,8.9c0.2,2.4,0.5,4.7,0.8,7.5c5.3-4.2,10.6-7.8,16.3-10.6c1,0.8,1.9,1.7,2.9,2.3
		C36.2,182.5,36.3,184.4,38.4,183.4z M185.5,476.3c0,0.2,0,0.4,0.1,0.6c2.5,8.8,4.9,17.6,7.5,26.3c1.5,4.7,3.4,9.3,5.2,13.9
		c0.5,1.3,1.4,2.5,2.3,3.6c1,1.2,2,1.3,3.1,0.3c0.7-0.6,1.3-1.5,1.5-2.3c0.3-1,0.2-2.1,0-3.1c-1.3-5.8-2.8-11.6-4.2-17.5
		c-1.9-8-3.8-16-5.7-24c-0.1-0.3-0.3-0.5-0.4-0.8C191.7,474.4,188.6,475.3,185.5,476.3z M96.8,132.2c-0.2,1.1-0.3,2-0.6,2.9
		c-0.4,1-0.1,1.6,0.6,2.4c2.5,3,4.8,6.1,7.3,9.2c2.2,2.7,4.4,5.3,6.7,7.8c0.6,0.7,1.5,1.1,2.4,1.8c1.4-1.6,2.8-3,3.9-4.5
		c2.4-3.1,4.6-6.3,7.8-8.7c-0.5-3.3-2.5-6-5.3-7.2c-1.5-0.7-3-1.5-4.5-2.3c-1.3-0.7-2.6-1.4-4.1-2.2c0.5,4,0.9,7.7,1.3,11.3
		c0.4,3.5,0.8,7.1,1.2,10.6c-0.2,0-0.3,0-0.5,0.1c-0.2-0.8-0.5-1.5-0.6-2.3c-0.5-2.6-1-5.2-1.3-7.8c-0.4-3.4-0.9-6.8-0.8-10.2
		c0.1-1.9-0.5-3-1.9-3.9c-2.5-1.7-4.6-3.7-6.3-6.2c-0.1-0.2-0.4-0.3-0.6-0.4c-0.7,2.4-0.5,3.1,0.7,5.2c1.4,2.7,2.9,5.4,3.8,8.2
		c1.3,4.2,2.2,8.5,3.3,12.8c0.1,0.4,0,0.8,0,1.2c-0.2,0-0.4,0.1-0.6,0.1c-2.5-7.4-4.6-15.1-8.1-22.3
		C99.5,129.6,98.9,131.6,96.8,132.2z M17.8,213.1c2.6-1.6,4.4-4.1,7.5-4.9c-0.7,0.8-1.5,1.5-2.3,2.2c-3.5,3.2-3.7,3.6-3.3,8.3
		c0,0.3,0.1,0.6,0.1,1c0.3,3.5,0.5,7,0.8,10.5c0,0.5,0.1,1,0.2,1.7c0.9-0.5,1.7-0.8,2.3-1.2c2.9-1.7,5.7-3.5,8.7-5.1
		c2.9-1.6,5.6-3.7,9.2-3.3c-2-7-3.9-13.8-5.8-20.7c-0.1,0-0.3-0.1-0.4,0c-4.5,2.5-9.1,5-13.6,7.6c-1.1,0.6-2,1.6-2.9,2.5
		C17.9,212,17.9,212.6,17.8,213.1z M44.1,245.2c-2.5-6-4.4-11.9-5.5-18.4c-1.1,0.4-2.1,0.7-3,1.2c-3.4,1.9-6.8,3.9-10.1,6
		c-1.1,0.7-2.1,1.7-3.1,2.6c-1.1,1-1.4,2.2-1,3.7c0.7,2.7,1.2,5.5,1.7,8.2c0.6,2.7,1.1,5.3,1.7,8c0.1,0.5,0.4,0.9,0.9,2
		c0.7-1,1.1-1.7,1.7-2.3c3.9-4.1,7.9-7.9,13-10.5C41.6,245.1,42.7,244.6,44.1,245.2z M61.1,336.1c-1.7-1.1-3.5-1.9-5.1-3.1
		c-4.5-3.4-8.6-7.1-12.2-11.5c-1.3-1.5-2.6-3-3.9-4.5c-1.2-1.2-2-1.2-2.8,0.3c-1.9,3.4-2.9,7-1.5,11c3.1,8.8,9.3,14.9,17.5,19.1
		c0.7,0.3,1.4,0.5,2,0.7C57.1,344,59.1,340.2,61.1,336.1z M150.1,311.9c-8.7-0.4-17,0.6-25.7,2c1.1,2.7,0.8,5.6,2.8,7.7
		c2,2.1,3.9,4.3,5.7,6.5c0.8,1,1.7,1.4,3.1,1.3c3.9-0.1,7.8,0.1,11.7,0.2c1.1,0,1.7-0.5,1.7-1.7c0-1.3,0-2.5,0-3.8
		c-0.1-2.1,0.2-4,2.4-5C151.2,316.6,150.7,314.4,150.1,311.9z M134.8,149.7c-0.2,0.3-0.4,0.5-0.5,0.6c-0.8,2.2-1.6,4.5-2.5,6.7
		c-1.2,2.7-2.4,5.6-5.4,6.7c-3.4,1.3-6.8,2.2-10.3,3.1c-7.1,1.8-14.4,1.6-21.7,1.4c-1.6,0-3.1-0.5-4.7-0.9c-2.9-0.7-4.3-2.8-5.2-5.4
		c-0.2-0.7-0.3-1.4-0.5-2.1c-0.4-1.4-0.6-2.8-1.5-4.2c-1.2,2.1-2.2,3.9-3.2,5.7c0.9,2.4,1.8,4.7,2.7,7.1c2.6-0.3,4.1,1,5.2,3
		c0.3,0.6,0.8,1,1.1,1.6c0.8,1.4,1.9,1.9,3.4,1.7c1.3-0.2,2.7-0.3,4-0.4c5.6-0.5,11.3-1,16.9-1.5c4.1-0.4,8.1-0.7,12.2-1.1
		c2.4-0.3,2.7-0.6,3-3c0.3-2.8,2.1-4.2,4.4-5.1c0.8-0.3,1.7-0.4,2.4-0.6c0.9-3.1,1.7-6.1,2.5-9.1c0.1-0.6,0.2-1.3-0.1-1.8
		C136.4,151.3,135.6,150.6,134.8,149.7z M30.8,182.6c-7,5.1-14.4,9.7-20.4,16.2c0.7,0.8,1.2,1.5,1.7,2c1.6,1.6,3,3.3,3.7,5.5
		c0.4,1.3,1.3,2.3,2.3,3.1c2.8-1.8,5.3-3.6,8-5.2c2.4-1.5,4.9-2.7,7.3-4.1c1.5-0.9,2.8-0.9,4.1,0.3c0.3,0.3,0.8,0.4,1.2,0.6
		C36,194.9,33.4,188.9,30.8,182.6z M41.6,247.1c-1.1,0.6-1.7,1-2.4,1.4c-4.1,2.6-7.6,6-11.2,9.3c-2.7,2.5-3.4,5.3-2.2,8.6
		c0.2,0.6,0.4,1.2,0.6,1.8c1.3,3.2,2.7,6.3,4.1,9.4c0.2,0.5,0.5,1.1,1,2c1.6-3.9,4.2-6.4,7.7-8c0.9-0.4,1.9-0.8,2.8-1.4
		c2.7-1.5,2.6-1.5,2.1-4.5c-0.7-4.7-1.3-9.5-2-14.2C41.9,250.3,41.8,249,41.6,247.1z M75.1,380.8c0-0.9,0.2-1.6,0-2.2
		c-0.8-2.7-1.6-5.5-2.8-8.2c-1.3-2.9-3.3-5.3-6.3-6.6c-4.3-1.8-8.7-3.5-13.1-5.3c-0.6,1.4-1.1,2.6-1.6,3.7c-0.6,1.2-1.1,2.5-1.7,3.7
		c-2,3.9-3.6,4.7-7.8,4.1c-0.1,0-0.3,0.1-0.6,0.2c-0.2,0.8-0.5,1.7-0.8,2.9C52.7,372.6,63.8,376.5,75.1,380.8z M104.2,258.3
		c0,0.1,0,0.2,0,0.3c3.7-0.2,7.3-0.4,11-0.8c3.7-0.4,7.4-0.9,11.1-1.4c3.6-0.5,7-1.6,10-3.6c1.1-0.7,1.7-1.7,1.4-3.1
		c-0.3-1.3-1.3-1.5-2.3-1.8c-2.7-0.8-5.4-0.6-8.1-0.2c-8.6,1.1-17.1,2.1-25.8,1.8c-0.5,0-1.1,0-1.6,0.2c-1.8,0.7-3.5,1.5-5.3,2.2
		c-0.7,0.3-1.3,0.6-1.9,1c-1.7,1.2-1.7,2.7,0.1,3.7c1,0.6,2.2,1,3.4,1.1C98.9,258.1,101.6,258.2,104.2,258.3z M145,293.2
		c-2.1,0.4-3.9,0.8-5.8,1c-4.8,0.5-9.5,1-14.3,1.2c-2.1,0.1-3.4,0.8-4.4,2.6c1,3.9,2,7.8,3,11.9c8.4-1.8,16.7-2.1,25.2-2.6
		C147.4,302.4,146.2,297.8,145,293.2z M79.6,353.1c0.5,0.1,0.8,0.2,1.1,0.2c5.5-0.2,11-0.2,16.4-1.5c4.4-1,8.8-2.4,13.4-2.5
		c1,0,2-0.3,3-0.4c0.7-1.3,0-2-0.9-2.6c-3.2-2.2-6.3-4.4-9.4-6.7c-1-0.7-1.9-1-3.1-1c-2.8,0-5.6,0.5-8.1,1.8
		c-3.4,1.6-6.9,2.8-10.8,2.8c-0.3,0-0.6,0.2-0.9,0.3c-0.2,2.7-0.5,5.3-0.7,7.9C79.5,351.9,79.6,352.4,79.6,353.1z M112.4,339.6
		c-1.3-2.2-41.8-36.4-44.3-37.6c-1.9,2.8-1.2,7.5,1.4,9.4c6.9,5,13.8,10,20.8,15c2.6,1.9,5.2,3.7,7.8,5.5c3.4,2.3,6.8,4.7,10.7,6.3
		C109.8,338.7,110.9,339,112.4,339.6z M86.4,272.8c0.1,0.2,0.2,0.5,0.3,0.5c11.1,0.5,22.1,1.2,33.2-0.1c-2.4,0.6-4.8,1-7.2,1.2
		c-2.8,0.3-5.6,0.4-8.3,0.8c-1.6,0.2-3.1,0.9-4.3,2.6c1,0.4,1.8,0.8,2.6,1c1.2,0.3,2.6,0.3,3.8,0.7c3.5,1.1,7.1,0.9,10.7,0.7
		c2.2-0.1,4.5-0.3,6.4-1.7c2-1.5,4-3.2,5.9-4.9c0.6-0.6,1.2-1.3,1.6-2.1c0.2-0.3-0.1-0.9-0.2-1.5c2.6-0.6,5.2-1.2,7.9-1.9
		c0.3-0.8,0.5-1.7,0.9-2.7c-3.4,1-6.6,1.9-9.8,2.9c-6.2,2-12.6,2.8-19.1,3c-7.4,0.3-14.9,0.3-22.3,0.5
		C87.7,272,86.8,271.7,86.4,272.8z M38.7,539.1c1.4-0.5,1.6-1.4,1.9-2.3c1-3.5,2-7.1,3-10.6c1.8-6.1,3.6-12.3,5.4-18.4
		c2.8-9.2,4.7-18.8,8-27.8c0.1-0.4,0.1-0.8,0.2-1.3c-1.8,0-3.6,0-5.4,0c-1,8.2-3,16.2-5,24.2c1.1-8.1,2.5-16.2,4.7-24.1
		c-1.6-0.1-1.6-0.1-1.8,0.9c-0.4,1.6-0.6,3.1-0.9,4.7c-2.5,10.6-4.5,21.2-6.1,32c-0.6,3.9-1.1,7.9-1.8,11.8c-0.5,2.7-1.4,5.4-2,8.1
		C38.5,537.1,38.7,538.1,38.7,539.1z M75.2,362c-0.5-9.1-3.3-16.2-13.1-18.6c-0.5,0.8-1.1,1.9-1.8,3c-0.9,1.3-1.5,3-2.7,3.9
		c-2.5,1.9-3.2,4.7-4.4,7.3c0.4,0.3,0.8,0.6,1.1,0.6C61.2,359.5,68.1,360.7,75.2,362z M46.4,591.1c-1.6,4.4-1.6,4.4-6.4,5.7
		c-0.3,0.1-0.6,0.2-0.9,0.3c-3.6,0.9-6.9,0.2-9.7-2.5c-0.9,1.3-1.9,2.4-3.6,2.5c-4.1,0.3-8.1,0.5-12.2-0.3c-4.4-0.9-6.1-3.3-5.2-7.7
		c0.4-2,1-3.9,1.5-5.8c0.1-0.4,0-0.8,0-1.7c-0.5,0.7-0.7,0.9-0.8,1.2c-2.5,5.4-1.9,10.9-1,16.5c0.2,1.1,1.1,1.6,2,1.8
		c1.9,0.4,3.8,0.8,5.7,1c3.8,0.4,7.6,0.7,11.5,0.8c5.2,0.2,10.4,0.3,15.5-0.8c1.7-0.4,2.7-1.2,3.2-2.8
		C46.6,596.5,46.9,593.8,46.4,591.1z M208.7,593.2c1.1,0.1,1.9,0.3,2.7,0.2c2.5-0.1,5.1-0.2,7.6-0.5c1.6-0.2,3.1-0.7,4.6-1.2
		c1.2-0.4,1.9-1.4,2.1-2.7c0.9-4.5-2.2-9.4-6.7-10.3c-0.6-0.1-1.3-0.3-1.9-0.4c0-0.2,0.1-0.5,0.1-0.7c3-0.1,5.8,1,8.8,1.7
		c0.3-1.6-0.2-2.6-1.6-2.9c-1.3-0.3-2.7-0.5-4-0.4c-4.7,0.5-8.3,3.2-11.1,6.9c-0.5,0.6-0.9,1.5-0.8,2.2
		C209.3,587.7,209.3,590.3,208.7,593.2z M61.2,478.3c-0.3,0.5-0.5,0.8-0.6,1.1c-1.7,5.3-3.5,10.6-5,16c-2.5,8.6-4.8,17.2-7.1,25.8
		c-0.8,2.9-1.6,5.9-2.3,8.8c-0.2,0.9-0.7,2,0.6,2.9c0.4-0.5,0.9-1,1.2-1.5c1.5-3.1,3.2-6.1,4.4-9.3c3.9-10.6,7.3-21.3,9-32.5
		c0.3-2.2,0.8-4.4,1-6.6C62.5,481.4,62.7,479.7,61.2,478.3z M228.5,584.2c-0.2,1.8-0.4,3.6-0.7,5.4c-0.2,1.5-0.9,2.7-2.3,3.5
		c-5.3,2.9-10.9,3.2-16.7,1.6c-0.6-0.2-1.4-0.3-2-0.1c-3.8,1.6-7.6,1.6-11.5,0.9c-2.7-0.5-4.4-2-5.2-4.7c-0.9-3.2-0.6-6.3,0.2-9.5
		c0.3-1,0.5-2,0.8-3.1c-0.4,0.2-0.6,0.3-0.7,0.4c-2.8,4.1-3.3,8.8-2.7,13.5c0.4,3.6,2.5,5.9,6,7c3.3,1.1,6.6,1.7,10.1,1.5
		c2.9-0.2,5.9-0.3,8.8-0.7c4.2-0.6,8.3-1.5,12.5-2.4c1.3-0.3,2.4-0.7,3.1-2C230.3,591.9,230,588,228.5,584.2z M201.7,469.9
		c5.8,14.2,8.4,29.4,13.6,43.8c-0.3-8.1,0.2-16.3-1.8-24.3c-1.9-7.9-3.6-15.8-7.2-23.2C204.7,467.6,203.2,468.7,201.7,469.9z
		 M194.4,579c-2.9,4.1-2.3,8.1-1,12.1c0.5,1.5,1.7,2.4,3.2,2.5c2.5,0.1,5.1,0.2,7.6,0c1.9-0.1,2.7-1.3,2.8-3.3
		c0.1-1.7-0.1-3.4-1.1-4.8c-1.5-2.1-3-4.1-4.6-6.1c-1.9-2.4-4.8-2.7-7.5-3.2c-0.4-0.1-0.9,0.2-1.4,0.3c0,0.7,0,1.3,0,2
		C193,578.8,193.6,578.9,194.4,579z M166.2,135.8c0-0.3,0-0.5-0.1-0.6c-0.4-0.7-0.8-1.4-1.2-2.1c-2.6-5.2-5.5-10.3-6.6-16.1
		c-0.2-1.3-0.5-2.8-1.2-3.9c-0.7-1.1-0.7-2.1-0.7-3.2c0-3.6,1.5-6.6,3.6-9.4c1.4-1.8,2.6-3.8,3.6-5.9c0.5-1.1,0.5-2.5,0.3-3.7
		c-0.3-1.7-1-3.3-1.6-5.1c-2,0.8-3.3,2.2-4.2,4c1.9,2.2,1.4,4.5,0.5,6.8c-0.3,0.8-0.8,1.6-1.3,2.3c-1.7,2.5-2.5,5.3-2.7,8.3
		c-0.2,4.3,0.5,8.5,1.8,12.5c0.4,1.3,0.7,2.4,0,3.8C154.1,128.4,159.5,137.8,166.2,135.8z M193.9,517.8c0.1-0.1,0.2-0.1,0.2-0.2
		c-3.2-13.8-6.4-27.6-9.6-41.5c-1.7,0.2-3.3,0.4-5,0.6c0.1,0.7,0.2,1.2,0.3,1.7c2.2,9.7,5,19.3,8.4,28.8c1,2.8,2.5,5.5,3.9,8.2
		C192.6,516.2,193.3,517,193.9,517.8z M208.2,413.9c0.5-1.4-0.2-2.2-1-2.7c-1.8-1.1-3.5-2.3-5.5-2.9c-6.4-1.7-12.8-1.4-19.1,0.7
		c-1.7,0.6-3.3,1.3-5,1.8c-9.3,2.8-17.7,7.5-25.2,13.5c-5.5,4.5-10.6,9.5-14.6,15.5c-0.1,0.1,0,0.3-0.1,0.7c0.6,0.2,1.2,0.4,1.9,0.7
		c2.3-4.7,5.8-8.2,9.5-11.5c11.3-10.1,24.3-17,39.4-19.5c5.4-0.9,10.7-0.7,15.6,2C205.5,412.8,206.8,413.3,208.2,413.9z
		 M124.4,357.1c1-1.5,1.9-3,2.9-4.3c0.9-1.3,1.9-2.6,3.3-3.4c0.1,0.1,0.3,0.3,0.4,0.4c-1.5,1.8-3,3.7-4.7,5.7
		c0.9,0.1,1.3,0.1,1.8,0.2c-0.1,0.7-0.3,1.3-0.4,2c0.6-0.1,0.8-0.2,0.9-0.4c2.3-5.3,6.6-9,10.8-12.7c1.2-1.1,2.5-2,3.2-3.6
		c0.5-1.1,0.3-1.6-0.8-1.8c-0.9-0.2-1.7-0.4-2.5-0.5c-0.4-0.1-1-0.2-1.4,0c-3.5,1.7-7.3,3-10.1,5.9c-2,2.1-3.9,4.3-5.7,6.5
		c-0.4,0.5-0.9,1.5-0.7,1.9C122.2,354.4,122.9,356.1,124.4,357.1z M199.4,331.3c-2-1.6-3.7-2.9-5.5-4.1c-1.7-1.2-3.2-0.6-3.8,1.4
		c-0.3,0.9-0.2,1.9-0.2,2.8c0.6,7.9,4.7,13.9,10.8,18.7c1.1,0.9,2.4,1.5,3.8,2c2,0.7,3.4-0.5,3.4-2.7c0-2.4-0.9-4.4-2.4-6.3
		c-0.4,0.2-0.8,0.2-1,0.4c-1.8,1.5-3.6,1-5.2-0.3c-2.2-1.8-3.5-4.3-4.4-7c-0.4-1.1,0.1-1.9,0.9-2.5
		C196.9,333.1,198,332.4,199.4,331.3z M18.1,595.5c1.2-0.2,2.7-0.4,4.1-0.5c3.6-0.4,4.8-2.9,2.8-5.8c-2.4-3.4-5.7-5.6-9.7-6.6
		c-2.2-0.5-2.8-0.3-3.6,1.6c-0.8,2.1-1.3,4.3-1.6,6.5c-0.3,2.3,0.8,3.6,3.1,4C14.8,595,16.4,595.2,18.1,595.5z M114.4,156.7
		c2.2,2.1,4.1,4.1,6.1,6c0.3,0.3,1,0.4,1.5,0.3c0.8-0.1,1.5-0.5,2.3-0.7c2.4-0.5,4-2,4.8-4.2c0.9-2.5,1.7-5.1,2.5-7.7
		c0-0.1-0.1-0.3-0.3-0.6c-2.7-0.2-5.3-0.8-6-4.6c-1.5,1.8-2.7,3.1-3.9,4.5C119.3,152.3,117.7,155.3,114.4,156.7z M143.8,289.2
		c-0.3-1.4-0.2-2.9-1.7-3.7c-1.8-1-2.9-3.6-2.3-5.7c0.4-1.5,0.1-2.7-0.9-3.9c-6.3,3.3-13.1,4.8-19.6,7.3c1.3,0.1,2.6,0.1,3.8-0.2
		c3.8-0.8,7.6-1.6,11.5-2.4c0.6-0.1,1.2-0.1,1.9-0.2c0,0.2,0.1,0.4,0.1,0.6c-3,1.3-6,2.7-9.1,4c2,0.1,4.1-0.3,6.1-0.2
		c2,0.1,3.9-1.1,6.1-0.6c-1.5,1.8-3.3,2.7-5.2,3.2c-2.6,0.8-5.2,1.5-7.8,2.2c-0.9,0.2-1.8,0.4-1.9,1.8
		C131.2,291,137.5,290.9,143.8,289.2z M139.8,335.1c-0.8-0.1-1.3-0.2-1.7-0.1c-4.3,0.9-7.9,3.1-11.5,5.6c2.5-3.2,6.4-4.8,9.6-8
		c-0.9,0.2-1.3,0.3-1.7,0.4c-5.2,1.7-9.6,4.6-13.6,8.3c-2.1,2-3.7,4.4-4.7,7.2c-0.4,1.2-0.7,2.4,0.6,3.5c1.1-1.8,1.5-3.7,3.3-5.4
		c-0.7,1.8-1.3,3.1-1.6,4.5c-0.4,1.6-0.1,2.2,1.5,2.7c0.3-0.9,0.5-1.8,0.8-2.7c2.6-5.8,7.1-9.7,13-12c0.9-0.3,1.8-0.8,2.5-1.3
		C137.6,337,138.4,336.2,139.8,335.1z M22,551.8c-0.4,2.2-0.2,2.7,1.8,3c4.2,0.6,8.4,0.8,12.6,1.1c1,0.1,1.7-0.4,2.1-1.3
		c0.6-1.5,1.3-2.9,2.1-4.6c-6.2-1.4-12.3-2.8-18.5-4.2c0,0.8-0.1,1.6-0.1,2.5c-0.1,2.4,0,2.5,2.3,3.1c2.4,0.6,4.8,1,7.7,1.6
		C28.3,553.9,25.2,553.4,22,551.8z M192,168c-1.3,9.1-1.8,18.1-3.8,26.9c1.1-0.2,0.9-1.1,1.1-1.7c0.8-2.7,1.8-3.5,4.6-3.5
		c0.7,0,1.4,0,2.1,0c0.9-5.8,0.3-11.3-0.1-16.9C195.5,170.4,194.1,169.2,192,168z M183.8,366.1c-1.1-0.9-2.1-1.8-3.2-2.6
		c-3.3-2.4-5.5-5.6-6.9-9.5c-0.7-2-2.7-2.3-4-0.6c-0.9,1.2-1.3,2.5-0.9,4c1.2,5,4.3,8.6,8.5,11.3
		C179.9,370.4,182.7,369.2,183.8,366.1z M174.5,476.2c0.1,1.1,0.2,2.1,0.4,3.1c1.5,6.7,3.1,13.4,4.6,20c1.2,5.4,3.6,10.2,6.7,14.7
		c0.3,0.5,0.7,0.8,1.1,1.2c-0.7-2.4-1.7-4.6-2.3-6.8c-2.8-9.4-4.7-19-5.8-28.8c-0.4-3.5-0.4-3.5-3.8-3.6
		C175.3,476.1,175.1,476.1,174.5,476.2z M188.1,213.1c-0.9,0.1-1.8,0.1-2.7,0.2c-9.5,1.5-18.6,4.6-27.5,8.1c-2.3,0.9-4.9,2-6.6,3.8
		c-3.2,3.3-5.9,7.1-8.7,10.8c-0.8,1-1.2,2.2-0.9,3.6c2.2-1.2,2.3-1.4,3.7-3.7c1.6-2.6,2.9-5.6,5.4-7.6c6-4.8,12.9-8.1,20.4-9.7
		c5.1-1.1,10.2-1.8,15.3-2.6C188.5,215.7,188.6,215.6,188.1,213.1z M144,153.5c3.2-1,3.5-1.3,4.9-3.9c1.5-2.9,3.1-5.8,4.6-8.6
		c0.5-1,1-1.9,1.5-2.8c-2.5-2-5.6-3.5-7.8-3.9c-0.8,1.6-1.7,3.1-2.6,4.9c1.3,1.1,2.4,2.5,1.6,4.3c-0.7,1.5-1.9,2.7-2.6,3.8
		C144.4,149.4,143.4,151.5,144,153.5z M195.9,529.8c0,0.1,0,0.3,0,0.4c0.4,0.1,0.9,0.2,1.3,0.1c2.8-0.3,5.6-0.6,8.3-1.1
		c1.9-0.4,3.8-1.1,5.7-1.7c0.7-0.2,1.3-0.7,0.8-1.7c-0.3,0-0.6,0-0.9,0c-0.3,0-0.5-0.1-1.2-0.2c1.1-0.7,1.9-1.2,2.7-1.7
		c1.5-1.2,3.1-2.3,4.5-3.6c1.2-1.2,1.1-2.4,0-3.8c-0.5,2.6-2.2,4.2-4.2,5.3c-2.2,1.2-4.6,2.1-7,2.9c-3.8,1.2-7.7,0.6-11.6,0.4
		c-1.6-0.1-3.1-0.6-4.6-1.1c-1.9-0.6-3.7-1.3-5.5-2c-0.1,0.2-0.1,0.3-0.2,0.5c1.9,2.3,5.2,1.8,7.6,3.4c-2.3,0.9-4.2-0.9-6.5-0.4
		c0.5,1.7,1.7,2,2.9,2.1c3.7,0.2,7.3,0.2,11,0.3c1.2,0,2.4-0.2,3.6-0.3c0,0.2,0.1,0.5,0.1,0.7C200.4,528.8,198.1,529.3,195.9,529.8z
		 M43.1,584.2c-4.2-0.1-7.2,2-9.9,4.6c-0.7,0.7-1.1,1.8-1.4,2.8c-0.4,1.5,0.3,2.4,1.8,2.8c2.5,0.7,4.9,0.4,7.3-0.1
		c2.1-0.5,3.3-1.9,3.4-4.1C44.4,588.1,44,586.1,43.1,584.2z M151.4,340.9c-1.5-3-2.8-5.6-4.1-8.4c-1.9,0.2-4-0.4-6,0.6
		c0.7,1.3,1.2,2.8,2.1,3.7c1.5,1.6,2.2,3.3,1.5,5.4c2.6,3.6,6.5,3.3,10.1,3.9c0.5-3.7,0.6-7-0.5-8.6
		C153.5,338.7,152.6,339.6,151.4,340.9z M200.3,470.6c-1.3,0.7-2.3,1.2-3.6,1.8c2.4,3.4,3.2,7,4.1,10.7c2.5,9.7,5,19.5,7.6,29.2
		c0.2,0.8,0.6,1.6,0.9,2.4C208.1,499.7,203.8,485.5,200.3,470.6z M92.4,106c0.1-0.1,0.2-0.3,0.3-0.4c-5.2-3.3-10.1-6.9-15.9-9.7
		c-0.9,2.5-1.7,4.9-2.6,7.5c3,0,5.8,0,8.5,0c-2.4,0.3-4.8,0.3-7.1,0.2c-1.4,0-2.3,0.3-2.5,1.9C79.6,105.6,86,105.8,92.4,106z
		 M192.5,363.8c0.7,1.2,1.4,2.3,2,3.5c0.3,0.6,0.6,1.3,0.8,2c0.3,1.1,0.4,2.3,0.9,3.4c0.7,1.9,1.6,3.7,2.4,5.5
		c0.6,1.3,1.2,2.5,0.3,3.9c1.7-1.3,3.4-2.6,5.2-4c-2.3-5.5-4.6-11-6.9-16.4C195.6,362.4,194.2,363,192.5,363.8z M129.6,379.5
		c-0.1-0.2-0.1-0.4-0.2-0.6c-0.3,0-0.6,0-0.9,0.1c-2.5,0.9-5,1.8-7.4,2.8c-7.7,3.2-15.4,6.5-23.5,9c-6.5,1.9-12.9,3.6-19.7,3.7
		c-0.3,0-0.6,0.1-1,0.2c-0.3,1.7-0.7,3.3-1.1,5.3c0.9-0.5,1.6-0.8,2.1-1.2c2.9-2.2,6.2-3.1,9.7-3.7c4.1-0.7,8.2-1.6,12.1-3
		c5.8-2.1,11.5-4.8,17.2-7.3c3.2-1.4,6.4-2.8,9.7-4.2C127.6,380.3,128.6,379.9,129.6,379.5z M77.5,338c-3-0.6-5.7-1.1-8.3-1.5
		c-0.6-0.1-1.4,0.2-1.9,0.6c-1,0.7-2,1.6-2.8,2.5c-0.7,0.8-1.1,1.8-1.7,2.9c4.8,1.4,9.4,1.7,14.2,2.2
		C77.1,342.4,77.3,340.3,77.5,338z M176.5,369.8c-1.1-0.8-1.7-1.4-2.4-1.9c-2.5-1.8-4.6-3.9-5.5-7c-0.2-0.8-0.6-1.7-1-2.4
		c-0.2-0.4-0.8-0.8-1.3-0.8c-1.3-0.1-2.8,1.3-2.5,2.6c0.5,2.4,1.2,4.8,1.8,7.2c0.1,0.3,0.3,0.6,0.6,0.7c1.6,1.3,3.2,2.6,4.9,3.9
		c1,0.8,2.1,0.7,3.1,0C174.9,371.4,175.6,370.6,176.5,369.8z M77.7,333.7c0.4-3.4,0.8-6.6,1.1-9.9c0.1-0.6-0.2-1.5-0.6-1.9
		c-1.1-1.1-2.3-2.1-3.8-3.4c-2.5,5-2.5,10.1-3.4,15.2C73.3,333.7,75.4,333.7,77.7,333.7z M141.1,239.9c-0.6,0.2-1,0.2-1.3,0.4
		c-4.5,3.1-9.7,4.5-15,5.3c-4.9,0.7-9.8,1.2-14.8,1.6c-9.7,0.7-19.3,0.8-28.7-2c-0.1,0-0.3,0.1-0.5,0.1c-0.1,1,0.2,1.7,1.3,1.9
		c0.7,0.1,1.4,0.4,2.1,0.5c4.4,0.4,8.7,0.9,13.1,1c10.1,0.4,20.1,0.1,30-2c3.9-0.8,7.8-1.6,11.4-3.5
		C140.2,242.6,140.8,241.6,141.1,239.9z M81.6,324.9c-0.5,3.9-1,7.4-0.5,11c4.6,0.8,10.8-0.2,12.9-2.1
		C90,330.8,85.9,327.9,81.6,324.9z M187.1,358.1c-0.6,0.4-1.1,0.7-1.5,1c-0.5,0.3-0.9,0.6-1.4,0.9c-1.5,0.8-2.5,0.7-3.6-0.5
		c-1.6-1.7-2.6-3.6-2-6.1c0.3-1.1,0.4-2.2,0.5-3.3c0-0.6-0.1-1.6-0.5-1.9c-0.5-0.3-1.4-0.1-2,0.1c-1.5,0.7-2.2,2.5-1.6,4.6
		c0.9,2.9,1.9,5.8,4.4,7.7c1.3,1,2.5,2.2,3.9,3.2c3,2.3,6,1.1,6.8-2.1C188.8,360.4,188,359.3,187.1,358.1z M181.4,170.7
		c1.7-0.7,2.3-1.7,2.5-3c0.2-1.7,0.5-3.3,0.6-5c0.2-5.4,0-10.7-0.8-16c-0.2-1.3-0.3-2.7-0.6-4c-0.4-1.7-0.8-1.8-2.8-1.2
		C181.8,151.1,181.7,160.7,181.4,170.7z M201.8,354.7c-1.9-1.8-3.7-3.3-5.3-5c-3.4-3.6-5.4-8.1-7.1-12.6c-1.1-3-1.8-6.1-0.6-9.3
		c0.1-0.1-0.1-0.4-0.2-0.7c-1.7,0.8-2.7,2.1-3,3.8c-0.1,0.6-0.1,1.5,0.3,2c1.7,2.3,2.1,4.9,2.3,7.7c0.2,3.6,1.2,6.9,4.5,9
		c0.4,0.2,0.7,0.6,1.1,1c1.8,1.9,4.1,3,6.5,4C200.7,354.7,201.2,354.7,201.8,354.7z M176,317c0-0.2,0.1-0.4,0.1-0.7
		c-0.4-0.3-0.8-0.7-1.3-0.8c-2.4-0.3-4.7-0.5-7,0.5c-2.3,1.1-4.7,1.9-7.1,2.8c-1.3,0.5-2.6,0.9-4.2,1.4c1.8,1.7,1.1,3.3,0.3,5.4
		c1.4-0.5,2.4-0.7,3.3-1.1c2.8-1.2,5.5-2.5,8.3-3.8c1.8-0.9,3.6-1.1,5.5,0.1c0.6,0.4,1.4,0.6,2.2,0.9c0.2-2.5-0.5-3.6-2.5-3.7
		c-1.4-0.1-2.9,0.1-4.2,0.5c-2.6,0.7-5.1,1.6-7.6,2.3C165.8,317.4,170.6,316.3,176,317z M216.6,539.4c-8.4,3.4-16.4,3.5-24.5,0.3
		c0.1,2.4,1.2,3.8,3.4,4.4c5.2,1.3,10.4,1.8,15.6,0.4c1.8-0.5,3.3-1.8,4.8-2.9C216.3,541.1,216.4,540.1,216.6,539.4z M110,301.8
		c3.8,4.7,7.4,8.8,11.3,12.7c-0.3-2.8-0.8-5.5-1.5-8.2c-0.7-2.7-0.7-5.6-2.6-8.3C115.2,299.9,113.4,301.9,110,301.8z M63.6,151.2
		c0,0.1,0,0.2,0,0.3c0.4,0.1,0.7,0.2,1.1,0.3c4.6,0.6,8.9-0.3,13.1-1.9c2.2-0.8,3.6-2.2,4.6-4.3c1.4-3,3.1-6,4.3-9.1
		c1-2.7,2.7-4.7,5.2-6c0.3-0.2,0.6-0.4,0.9-0.7c-2.9-2-4.1-1.8-5.6,1.1c-0.1,0.1-0.2,0.3-0.2,0.4c-1.6,3.3-3.3,6.6-4.7,10
		c-2.4,5.5-6.4,8.8-12.5,9.4C67.7,150.9,65.7,151,63.6,151.2z M129.7,146.2c4.6,0.8,8.6-0.9,12.6-2.7c-0.8-1.6-1.4-2.8-2-3.9
		c-4.8-0.4-9.5-0.8-14.2-1.1c0.7,1.7,1.4,3.4,2,5c4.6-1.8,9.7-2,12.1-0.4C136.1,142.7,132.9,144.5,129.7,146.2z M41,192.5
		c0.1,2.1,0.9,3,2.9,3.6c4.3,1.2,8.5,2.4,12.4,4.8c3.9,2.4,8,4.4,11.4,7.5c0.5,0.4,1.1,0.7,1.9,1.3c-0.1-1.9-0.9-3-2.1-3.9
		c-6.2-4.8-13-8.3-20.1-11.5C45.5,193.3,43.3,192.7,41,192.5z M102.8,58.4c0.4-4.2,0.7-8.2,1.1-12.2c0.2-2-1-5.2-2.7-6.8
		c-0.8,4.1-1.8,8.1-2.4,12.1c-0.9,5.3-0.9,4.4,3.6,6.9C102.4,58.5,102.6,58.4,102.8,58.4z M197.4,355.3c-1.5-1-3-1.8-4.3-2.8
		c-1.3-1.1-2.5-2.3-4-3.8c-0.7,3.3-1.3,6.1-1.9,8.8C191.9,361.4,196.3,360.4,197.4,355.3z M190.6,165.8c0.1-4.9-3-16.9-4.8-19.1
		c0.1,3.5,0.4,6.9,0.4,10.3c0.1,4.9,0.5,9.9-2.6,14.2c1.7,0.4,2.4-0.3,2.7-1.7C186.9,167.4,187.8,165.6,190.6,165.8z M81.1,150.8
		c-5.8,2.4-11.4,3.7-17.8,3.2c2.3,2.7,4.3,4.7,7.2,5.9c0-0.6,0.1-0.8,0.1-1c-1-2.1-0.6-2.6,1.8-3.8c0.4-0.2,0.9-0.4,1.3-0.5
		c1.2-0.4,2.2-0.1,2.8,1.1c0.6,1.1,1.2,2.2,1.9,3.6C80.6,156.9,80.7,154.1,81.1,150.8z M92.4,53.5c0.3-1.8,0.5-3.3,0.9-4.8
		c0.4-1.5,0.9-2.9,1.5-4.3c0.6-1.3,1.3-2.6,2-4c-2.5,0.5-3.8,1.9-4.5,3.9c-0.6,1.7-1.1,3.3-1.7,5c-0.2,0.5-0.4,0.9-0.6,1.4
		c-0.8-3,1.1-5.2,1.7-7.8c-2.5,2.3-5.5,4.3-6.9,7.6C87.5,51.5,89.9,52.5,92.4,53.5z M132.6,127.9c4-2.1,7.6-3.9,12-2.4
		c0.6-0.8,1.2-1.6,1.6-2.4c0.3-0.5,0.5-1.2,0.4-1.8c-0.3-2-3.3-3.9-5.3-3.3c-1.8,0.5-3.5,1-5.3,1.6c-0.4,0.1-0.8,0.4-1.2,0.7
		c0.5,0.2,0.9,0.1,1.3,0c1.7-0.3,3.4-0.8,5.2-1c2.2-0.3,3.3,0.5,4.1,2.8c-1.7-0.2-3.2-0.6-4.8-0.6c-1.8,0-3.4,0.6-4.8,2
		C134.5,124.6,132.9,125.3,132.6,127.9z M20.9,535.8c-0.5,3.5,2.9,4.2,4.3,6.6c-1.6-0.2-3.2-0.5-4.8-0.7c1.9,2.5,4.8,2.7,7.4,3.5
		c2.8,0.9,5.1-1.5,7.4-2C30.6,540.8,25.8,538.4,20.9,535.8z M41.9,225.9c-0.8,0.2-1.6,0.4-2.5,0.6c0.8,3,1.5,5.8,2.3,8.5
		c1,3.5,2.2,7,4.2,10.1c0.3,0.5,0.7,0.9,1.1,1.3c1.5-1.4,0.9-2.8,0.4-4.1c-1.3-3.4-2.7-6.8-3.9-10.3
		C42.8,230.2,42.5,228.2,41.9,225.9z M191.7,217.6c1.3-0.6,1.2-0.6,1.6-1.2c0.6-1.3,1.1-2.7,2.1-3.7c1-1,1.6-2,1.6-3.3
		c0-5.3-0.1-10.5-0.1-15.8c0-0.4-0.3-0.7-0.5-1.3C194.7,200.8,194.6,209.3,191.7,217.6z M110.8,62.6c0.1-0.1,0.2-0.2,0.4-0.3
		c-2-5.1-4.1-10.2-6.1-15.3c-0.2,0-0.3,0.1-0.5,0.1c-0.3,3.9-0.6,7.8-0.9,11.9C106.1,60.2,108.5,61.4,110.8,62.6z M207.3,580.7
		c-1.6-1.2-2.9-2.6-4.4-3.5c-2.2-1.2-4.6-2.2-7-3.2c-0.6-0.3-1.4-0.4-2.1-0.4c-0.4,0-1.1,0.4-1.2,0.8c-0.3,0.8,0.5,1,1.2,1.1
		c4,0.4,7.5,2.1,10.6,4.6c1.1,0.9,2.2,1.8,3.5,2.7c1.8-2.9,4.1-5.1,7.1-6.6c3.1-1.6,6.5-1.1,10.3-1.3c-0.7-0.7-0.9-1.3-1.3-1.4
		c-0.8-0.2-1.7-0.3-2.6-0.2C215.7,574.1,211.2,576.8,207.3,580.7z M189.6,216.4c0.1,0,0.3,0.1,0.4,0.1c0.2-0.5,0.5-0.9,0.6-1.4
		c0.4-2.3,0.8-4.7,1.2-7.1c0.7-4.6,1.4-9.3,2.1-13.9c0.1-0.8,0-1.6,0-2.5c-1.8-0.2-2.5,0.8-2.8,2c-0.3,1.2-0.4,2.5-0.5,3.8
		c-0.2,3.7-0.4,7.5-0.6,11.2C190,211.2,189.8,213.8,189.6,216.4z M203.3,540.1c2.1,0,3.6-0.6,4.3-2.4c0.9-2.4,0.2-4.6-1.1-6.8
		c-2.1,0.5-4,0.9-6.3,1.4C201.3,535,202.3,537.5,203.3,540.1z M151.3,181.3c8.4-6.8,18.3-9.3,28.7-10.9c0-0.5,0.1-0.9,0.1-1.2
		c0-0.2-0.2-0.4-0.3-0.7c-0.6,0-1.1,0-1.6,0.2c-5.6,1.7-11.2,3.3-16.6,5.3c-2.9,1.1-5.6,2.8-8.3,4.3
		C152.2,178.8,151.1,179.6,151.3,181.3z M81.1,172.6c0.2-0.1,0.5-0.1,0.7-0.2c0-0.5,0.1-1-0.1-1.4c-1.9-5.3-3.9-10.5-7-15.3
		c-1.3,0.6-2.4,1.1-3.3,1.6c2.4,5.4,4.6,10.6,6.9,15.7c0,0.1,0.1,0.1,0.2,0.2c0.1,0,0.1,0,0.2,0c0.1,0,0.2,0,0.6-0.1
		c-0.2-0.8-0.4-1.6-0.7-2.4c-1.3-3.2-2.7-6.3-3.9-9.5c-0.4-1.1-0.7-2.3-1-3.5c0.2-0.1,0.3-0.1,0.5-0.2
		C77.7,161.9,78.7,167.6,81.1,172.6z M199.6,255.3c0-5.8,0-11.5,0-17.4c-1.7,0.8-1.8,0.8-2,2.4c-0.3,3.3-0.6,6.7-0.9,10
		c-0.1,1.6-0.2,3.3-0.2,5C197.6,255.3,198.5,255.3,199.6,255.3z M145.9,164.9c0.6-3.9,1.2-7.6,1.9-11.5c-1.6,0.5-2.9,1-4.1,1.4
		c-0.7,3-1.3,5.8-1.9,8.5C143.3,163.8,144.5,164.3,145.9,164.9z M199.2,216.1c-1.1,6.9-2.3,13.8-3.5,20.8c1,0.2,1.8,0.4,2.6,0.5
		C199.3,234.5,200.2,218.6,199.2,216.1z M189.1,168.3c-0.4,0.6-1.1,1.1-1.2,1.8c-0.5,2-1.1,4.1-1,6.1c0.3,5.4-0.2,10.8-0.7,16.2
		c-0.1,0.6,0,1.2,0,2.1C187.5,192.2,190.2,170.8,189.1,168.3z M96.5,55.3C97,49.5,97.8,44,100.9,39c-1.8-0.2-2.7,0.5-3.2,1.7
		c-1.4,3.6-2.8,7.3-4.1,10.9c-0.2,0.6-0.1,1.4-0.2,2.2C94.5,54.3,95.4,54.8,96.5,55.3z M79,357.6c4.3-0.6,8.2-1,12.2-1.7
		c3.8-0.7,7.7-1.5,11.5-2.4c3.8-0.9,7.7-1.1,11.7-2.5c-0.9-1.1-1.8-0.8-2.4-0.6c-2.6,0.5-5.2,1-7.7,1.6c-6.1,1.5-12.2,3.2-18.6,3.2
		c-2.1,0-4.1,0.3-6.3,0.4C79.1,356.3,79.1,356.8,79,357.6z M67.1,161c1.3,3.5,2.6,6.8,3.9,10.2c1.5-0.5,2.7-1,4.1-1.5
		c-0.7-1.8-1.4-3.5-2.1-5.2c-0.5-1.4-1.2-2.5-3-2.5C69.2,162,68.3,161.4,67.1,161z M80.6,340.9c1.1,0,2,0.1,2.8-0.2
		c2.7-0.7,5.4-1.5,8.1-2.2c1.7-0.4,3.4-0.8,5.1-1.2c0.6-0.1,1.3-0.3,2.1-0.5c-1.6-1.7-2.9-2.3-5-1.3c-2,0.9-4.2,1.3-6.4,1.7
		c-2.2,0.4-4.4,0.6-6.7,1C80.6,339.2,80.6,339.9,80.6,340.9z M65.3,333.9c2.2-1.6,3.7-3.1,3.4-5.6c-0.1-0.8,0.1-1.6,0.3-2.4
		c0.6-2.7,1.3-5.4,2-8.1c0.2-0.9,0.5-1.8-1-1.9C66.9,321.4,66.1,327.4,65.3,333.9z M43.8,247.3c-0.6,2.5,1.7,18.5,2.5,20.6
		c1.3-0.3,1.9-0.9,1.6-2.3c-1.1-5.5-2-11.1-3.1-16.7C44.7,248.3,44.1,247.8,43.8,247.3z M36.3,201.1c1.2,4.2,2.1,7.9,3.2,11.6
		c0.8,2.7,1.7,5.3,2.6,8c0.2,0.5,0.5,1,0.8,1.5c0.2-0.1,0.3-0.1,0.5-0.2c-0.1-0.8-0.2-1.7-0.4-2.5c-1.2-5-2.8-10-3.2-15.2
		c0-0.5-0.5-1.1-0.9-1.5C38.2,202.2,37.5,201.8,36.3,201.1z M124.2,311.9c8.3-0.7,16.7-1.4,25-2.1c0.1-1.6-1-1.3-1.9-1.3
		c-5.9,0.5-11.9,0.9-17.8,1.5C127.7,310.3,125.8,310.6,124.2,311.9z M20.2,236.9c6.2-6.1,13.8-9.2,21.8-12.7c-2-0.2-3.4-0.4-4.8,0.3
		c-5.5,2.5-10.5,5.8-15.5,9C20.7,234.1,19.8,234.9,20.2,236.9z M46,270.2c-0.1-0.2-0.2-0.3-0.3-0.5c-2,0.9-4.2,1.6-6,2.7
		c-2.1,1.4-4,3.1-5.8,4.9c-0.9,0.8-1.5,2-1.3,3.3c1.2,0.6,1.5-0.3,2.1-0.8c1.4-1.3,2.7-2.7,4.2-3.9C41.1,274,43.5,272.1,46,270.2z
		 M197.4,214.1c-1.4,0.3-2,1.1-2.1,2c-0.7,5.9-1.3,11.9-1.9,17.8c0,0.4,0.3,0.9,0.4,1.4c0.2,0,0.4,0,0.6,0
		C194.8,228.2,196.7,221.3,197.4,214.1z M218.7,550.4c-0.7-2.2-1.4-4.3-2-6.2c-2.7,1.1-5.2,2.1-7.7,3.1c0.4,1,1.3,1.3,2.2,1.5
		C213.5,549.3,216,549.8,218.7,550.4z M35.5,174.9c-0.1-0.5-0.1-1.1-0.2-1.6c-1.2-4.7-1.9-9.5-1.9-14.4c0-1.5-0.5-2.5-1.7-3.8
		C30.2,162.5,32.6,168.7,35.5,174.9z M33.2,183c1.4,5.7,6.4,16.6,8.3,18c0.1-2-0.6-3.8-1.4-5.5c-1.4-3.4-3-6.7-4.2-10.2
		C35.3,184.1,34.7,183.4,33.2,183z M15.2,209c-0.3,6,0.3,11.8,2.8,17.2c0.1-3.5,0-7-0.2-10.5c0-0.3-0.3-0.8-0.6-1
		c-1.5-1.1-1.4-2.5-0.5-4C16.2,210.1,15.7,209.5,15.2,209z M30.2,564.4c2,2.2,1.4,5.4,3.2,7.8c0.4-0.4,0.8-0.7,0.8-0.9
		c0-0.4-0.3-0.9-0.4-1.3c-0.5-1.3-1.2-2.6-1.4-4c-0.3-2.2-0.1-2.3-2.8-3c-0.1,0.7-0.4,1.4-0.3,2c0.5,1.6,0.2,3.1,0,4.7
		c-0.2,1.6-0.1,3.3,0.1,5c0.1,0.8,0.2,1.8,1.5,1.7c0.1-0.2,0.3-0.4,0.3-0.6C31,572.1,30.6,568.4,30.2,564.4z M117.2,108
		c0,0.2-0.1,0.3-0.1,0.5c1.1,0.7,2.2,1.6,3.4,2.2c2.3,1.4,4.9,2,7.6,1.8c1.7-0.1,3-0.8,4.4-2.5C126.7,111.1,122,109,117.2,108z
		 M27.1,557.8c-0.1,0.3-0.2,0.4-0.3,0.6c-0.5,1.7-0.4,2,0.8,2.5c1.6,0.6,2.1,0.4,2.8-1c0.2-0.5,0.6-1,0.9-1.5
		c0.2,0.1,0.3,0.1,0.5,0.2c0,0.9,0,1.9,0,2.8c2.8-0.7,4.3-1.8,5-3.5C33.5,557.8,30.4,557.8,27.1,557.8z M178.9,146.9
		c-2.2,0.5-2.4,0.5-3.8,2.1c1.3,2.7,2.7,5.3,4,8c0.2,0,0.3-0.1,0.5-0.1C179.8,153.6,179.4,150.3,178.9,146.9z M151.1,328.7
		c-2.7,3.3-0.8,5.7,0.8,8.2c2.4-1.7,2.3-1.8,1.7-4.2c-0.3-1.2-0.3-2.4-0.4-3.8C152.6,328.8,151.8,328.7,151.1,328.7z M194.3,551.1
		c3.2-1.1,6.1-2.1,9.1-3c0-0.2,0-0.4,0-0.6c-2.7-0.5-5.3-0.9-8.2-1.4C194.8,547.9,194.6,549.5,194.3,551.1z M211.2,538.6
		c1.6-1,1.5-2.3,1.5-3.5c0-2.1,0.1-4.3-1.5-6.2c-0.9,0.4-1.6,0.7-2.7,1.1C209.4,533,210.3,535.7,211.2,538.6z M155.2,329.6
		c-1.2,3.1,0.6,5.5,1.8,8.2c0.8-1.4,1.3-2.8,1.9-4.1c1.1-2.5,0.1-4.9-2.7-5.5c0.2,1.5,0.4,3.1,0.6,5.2c0.5-0.9,0.7-1.3,1.1-2
		c0.1,1.4,0,2.4-1.3,2.9C155,333,155.9,331.1,155.2,329.6z M147.1,46.7c-1,4.2,1.3,6.9,3.3,9.8c0.4-1,1-2.1,0.7-3
		C150.3,51.1,149.6,48.5,147.1,46.7z M68.6,191.2c1.9-0.5,3.4-0.9,4.9-1.4c1.5-0.5,3.2-0.2,4.9-1.4c-1.9-0.2-3.4-0.1-4.8-0.5
		c-1.5-0.3-2.9-1-4.6-1.7C68.8,187.9,68.7,189.4,68.6,191.2z M200.3,539.6c-0.4-2-0.6-3.6-1-5.1c-0.6-2.8-0.8-2.9-4.2-3
		C196.3,534.5,196.8,537.6,200.3,539.6z M162.1,358.9c1.9-0.9,3.4-1.7,5.2-2.6c0.1-0.7,0.4-1.8,0.6-3.1c-2.7,1.4-5.2,2.7-7.8,4
		C161,358,161.7,358.5,162.1,358.9z M194.5,262.2c1.5-0.7,3-1.2,3.9-2.6c0.3-0.5,0.4-1.4,0.2-2c-0.1-0.3-1.1-0.5-1.7-0.4
		C194.8,257.5,194,259.1,194.5,262.2z M33.2,545.7c2.2,0.8,4.3,1.5,6.5,2.3c0.6,0.2,1.2,0.3,1.9,0.3c0.7,0,1.4-0.2,1.3-1
		c0-0.8-0.6-1-1.3-1.1c-1.7-0.3-3.4-0.7-5.2-0.9C35.4,545.2,34.3,544.5,33.2,545.7z M185.1,368.3c0.1,0.2,0.1,0.4,0.2,0.6
		c2.5-0.1,5.1-0.3,7.9-0.5c-0.5-1.5-0.8-2.7-1.3-4.2C190,366.6,187.9,368.1,185.1,368.3z M200.2,550.8c-2.1,0-4.1,0.6-5.8,1.6
		c-1.3,0.8-1.8,2-1.5,3.9C195.4,554.3,197.8,552.6,200.2,550.8z M100.3,36.3C99.6,35,99.1,34,98,33.2c-1.4,4.4-1.5,4.5-5,4.2
		c0.1,0.6,0.2,1.1,0.3,1.8C95.8,38.2,97.9,37.3,100.3,36.3z M190.2,530.9c2.3,5.8,2.8,6.5,4.7,6.8
		C194.5,534.4,192.5,531.4,190.2,530.9z M158.3,70.8c1.4,0.9,2.7,1.7,4.2,2.8c-0.1-2.5-0.9-4.3-2.2-6c-0.3,0.3-0.5,0.5-0.6,0.7
		C159.3,69,158.9,69.7,158.3,70.8z M154.3,320.3c-3.1,1-3.1,1-3.2,3.6c0,0.5-0.1,1-0.1,1.4c0,1.5,0.2,1.6,2.2,1.4
		C152.3,324.5,153.1,322.5,154.3,320.3z M134,168.9c1.3,1,2.6,0.2,3.9,0.2c1.4,0,1.6-0.7,1.2-2c-1.2-0.1-2.3-0.2-3.5-0.2
		C134,166.9,134,167,134,168.9z M202.3,552.3c-0.2-0.2-0.4-0.4-0.7-0.6c-0.7,0.7-1.4,1.3-2,2.1c-0.4,0.5-0.6,1.1-0.8,1.7
		c-0.7,2.1-1.2,6.1-0.7,7.3c0.3-1,0.6-2,0.7-3.1c0.1-1.8,0.6-3.4,1.8-4.8C201.3,554.2,201.8,553.2,202.3,552.3z M150.4,99.3
		c-1.5,0.3-2.8,0.6-4.5,0.9c1.5,1.3,2.9,2,4.4,2.5C151.8,101.5,151,100.4,150.4,99.3z M168.9,443.2c0.1,0.1,0.3,0.2,0.4,0.4
		c1.7-1,3.5-2.1,5.6-3.3c-1.2-0.4-2-0.6-2.8-0.9C170.7,440.4,169.4,441.5,168.9,443.2z M154.7,326.9c2.4-4,2.4-4,0.7-5.6
		C153.6,323.1,153.4,324.9,154.7,326.9z M213.3,528.3c0.7,1.9,1.3,3.4,1.8,5c0.2,0,0.3-0.1,0.5-0.1c0.2-1.9,0.3-3.7,0.5-5.9
		C215,527.7,214.3,527.9,213.3,528.3z M20.4,555.9c1.4,1.8,3.1,2.9,5.3,3.7c0.3-0.7,0.5-1.3,0.8-2c-1.3-0.3-2.2-0.7-3.2-0.8
		C22.4,556.6,21.9,555.2,20.4,555.9z M212.9,526c0.2,0.2,0.3,0.3,0.5,0.5c1-0.5,2-0.9,2.9-1.5c0.9-0.5,1.9-1.1,1.2-3
		C216.2,523.9,213.6,523.8,212.9,526z M185.3,437.2c2-0.4,3.8-0.7,5.5-1c0.5-0.1,1-0.3,1.7-0.4c-1.8-0.9-1.8-1.1-3.5-0.5
		C187.9,435.7,186.2,435.3,185.3,437.2z M77.2,336.5c0-0.2,0-0.4,0-0.7c-2.3-0.4-4.6-0.9-6.9-1.3c-0.3-0.1-0.8,0.4-1.1,0.7
		c0,0.2,0.1,0.3,0.1,0.5C71.9,335.9,74.6,336.2,77.2,336.5z M208.8,550.2c-0.1,2.3,0.6,3.5,2.7,4.4
		C211.5,552.3,211.1,551.6,208.8,550.2z M83.3,174.4c-1.6-1-4-0.5-5.1,1C79.8,175.8,81.4,175.6,83.3,174.4z M138.9,330.7
		c0,0.2,0,0.4,0,0.6c1.5,0,3,0.1,4.5,0c1.4-0.1,3,1,4.9-0.6C144.7,330.7,141.8,330.7,138.9,330.7z M59.6,342
		c2.1-2.1,2.9-3.5,2.9-5.4C60.9,338.4,60.1,340.1,59.6,342z M146.8,43.3c-0.2,0.2-0.3,0.4-0.5,0.6c1.2,1,2.5,2,3.7,2.9
		C149.7,44.8,148.6,43.7,146.8,43.3z M205.2,455.2c-0.6,1.6-1,2.9-1.5,4.2C205.1,458.4,205.8,457.2,205.2,455.2z M123.6,75.6
		c0.9-0.5,1.5-0.8,2.5-1.3c-1.2-0.4-1.8-0.7-2.8-1C123.4,74.2,123.5,74.7,123.6,75.6z M173.6,349.7c-1,0.6-1.6,1-2.5,1.5
		c0.8,0.3,1.4,0.5,2,0.8C173.3,351.3,173.4,350.8,173.6,349.7z M119.1,33.1c0.4-0.5,0.8-0.8,0.9-1.1c0-0.2-0.4-0.5-0.6-0.8
		c-0.3,0.3-0.7,0.5-0.8,0.8C118.4,32.3,118.8,32.6,119.1,33.1z M139,148.9c-1,0.3-1.4,0.4-2.1,0.7c0.5,0.5,0.8,0.9,1.2,1.4
		C138.4,150.3,138.6,149.8,139,148.9z M138.8,160.6c-0.2,0-0.3,0-0.5,0c-0.1,0.8-0.8,1.5,0,2.4C138.4,162.2,138.6,161.4,138.8,160.6
		z M43.8,542.6c-0.1-0.2-0.1-0.3-0.2-0.5c-0.6,0.2-1.2,0.4-1.8,0.5c0.1,0.2,0.2,0.4,0.2,0.7C42.7,543,43.3,542.8,43.8,542.6z
		 M95.3,131.7c-0.9-1.2-1.4-1.2-2.1-0.3C93.8,131.5,94.3,131.6,95.3,131.7z M178.6,142.5c-0.9,1.2-0.9,1.2-0.1,2.1
		C178.5,144,178.5,143.5,178.6,142.5z"/>
	<path d="M148.5,180c-2.4,0.6-4.7,1.4-7.1,1.7c-6.5,0.9-12.9,1.6-19.4,2.3c0,0-0.1-0.1-0.3-0.4c1.7-0.4,3.2-0.8,4.7-1
		c3.7-0.6,7.4-1.2,11.1-1.7c2.1-0.3,4.3-0.3,6.4-0.5C145.3,180.4,146.9,180.2,148.5,180C148.5,180.1,148.5,180,148.5,180z"/>
	<path d="M154.8,230.4c-1.5,3.3-1.8,6.8-1.8,10.3c0.1,5-0.3,10.1-1.2,15c-0.8,3.9-2.1,7.5-4.3,10.8c-0.4,0.7-0.8,1.4-1.2,2.1
		c-0.9,1.5-1.1,3.1-0.6,4.8c0.4,1.2,0.5,2.6,0.8,4.2c-2.4-1.8-3.6-5.7-2.6-8c0.4-1,0.9-2.1,1.5-3c3.7-5.6,5.1-11.8,5.5-18.4
		c0.2-2.9,0.2-5.9,0.4-8.9C151.5,236,152.2,232.8,154.8,230.4z"/>
	<path d="M158,270.2c0.2-1.1,0.4-2.3,0.6-3.4c0.5-3.5,2.1-6.1,5.1-8.2c3.5-2.4,6.7-5.2,9.3-8.6c4.7-6,7.8-12.6,8.2-20.3
		c0.1-1,0-2,0-3.5c1.3,3.7,1.2,7,0.3,10.2c-2.2,7.9-6.6,14.5-12.6,20c-1.7,1.6-3.6,3-5.5,4.3c-1.4,1-2.3,2.2-2.7,3.8
		c-0.4,1.5-0.9,2.9-1.4,4.3c-0.2,0.5-0.4,1-0.7,1.5C158.5,270.3,158.3,270.3,158,270.2z"/>
	<path d="M177,274c2.4-1.3,5.3,0,7.1,3C182,275.4,179.7,274.1,177,274z"/>
	<path d="M194.4,467.5c-0.4,0.3-0.7,0.6-1.1,0.8c-3.8,1.2-7.7,2.4-11.6,3.4C185.9,470,190.1,468.4,194.4,467.5
		C194.5,467.6,194.4,467.5,194.4,467.5z"/>
	<path d="M94.4,101.6c-0.5-0.3-0.9-0.6-1.4-0.9c0.1-0.1,0.1-0.2,0.2-0.3c0.5,0.3,1,0.6,1.5,0.9C94.6,101.4,94.5,101.5,94.4,101.6z"
		/>
	<path d="M129.4,117.5c-1.7,3.8-2.8,7.6-2.8,11.8c0,1.6,0.4,3,1.7,4.1c2.1-1,4-2.5,6.8-2c-1.9,1-3.6,1.8-5.2,2.7
		c-1.6,0.9-2.3,0.8-3.2-0.7c-0.5-0.9-1.1-1.8-1.2-2.8C125,125.7,126,121.2,129.4,117.5z"/>
	<path d="M123.6,131.3c-1.6-1.2-1.6-2.8-1.5-4.5c0-3.3,1-5.5,3.7-8.1C123.8,122.9,122.8,126.9,123.6,131.3z"/>
	<path d="M119.3,122.7c-2.9-2.8-5.1-6-7-9.4c0.1-0.1,0.3-0.2,0.4-0.3C114.9,116.3,117.1,119.5,119.3,122.7z"/>
	<path d="M84.6,56.9c0.9,0.1,1.7,0.1,2.6,0.3c3,0.8,5.6,2.2,8.2,3.8c2.2,1.4,4.5,2.7,6.7,4.2c1,0.6,1.8,1.5,2.6,2.2
		c-0.1,0.1-0.2,0.3-0.3,0.4c-1.1-0.7-2.2-1.5-3.3-2.1C96,62.8,90.9,60,85.8,57.2C85.5,57,85.1,57,84.6,56.9
		C84.7,56.8,84.6,56.9,84.6,56.9z"/>
	<path d="M112.8,72.4c2.7,0.8,4.2,3,6.1,4.7c-0.1,0.1-0.2,0.3-0.3,0.4C116.6,75.8,114.7,74.1,112.8,72.4z"/>
	<path d="M46.1,472.4c0.6,0.2,1.2,0.4,1.9,0.6c0,0.1-0.1,0.2-0.1,0.3c-0.6-0.2-1.1-0.3-1.7-0.5c-0.1,0-0.3-0.1-0.4-0.2
		C45.9,472.5,45.9,472.5,46.1,472.4z"/>
	<path d="M62.2,121.1c3.4,0.5,6.9,1.2,10.3,1.5c2.4,0.2,4.9,0,7.7,0c-0.7,0.3-1.1,0.6-1.6,0.6c-3.8,0.7-7.6,0.7-11.4-0.1
		C65.5,122.8,64,121.8,62.2,121.1C62.3,121,62.2,121.1,62.2,121.1z"/>
	<path d="M138.3,102c-2-1.2-3.6-0.9-5.3-0.6c-0.9,0.2-1.9-0.1-2.8-0.3c-2.1-0.5-4.1-1.1-6.3-1.6c0.1-0.2,0.3-0.4,0.4-0.4
		c2.8-0.5,5.6-1,8.4-1.4C135.8,97.2,137.3,98.2,138.3,102z"/>
	<path d="M125.7,91.3c1.5-0.7,3.1-1.4,4.6-2.1c1.3-0.6,2.6-0.6,3.9,0.2c1.3,0.8,2.7,1.4,4,2.2c0.7,0.5,1.3,1.2,1.8,2.1
		C135.1,93.1,130.6,90.6,125.7,91.3z"/>
	<path d="M131.1,106.1c2.9-3.4,2.9-3.4,4.7-3.4C135.2,104,133.9,105,131.1,106.1z"/>
	<path d="M92.1,139.6c2.6,3.6,5.2,7.1,7.8,10.7C96.4,147.4,94.2,143.6,92.1,139.6z"/>
	<path d="M92.1,150.9c-0.7-1-1.5-1.9-2.2-2.9c0.1-0.1,0.2-0.2,0.4-0.3c0.7,1,1.5,1.9,2.2,2.9C92.3,150.7,92.2,150.8,92.1,150.9z"/>
	<path d="M111,261.4c2.9-0.4,5.8-0.7,8.7-1.1C116.9,261,114,261.8,111,261.4C111,261.4,111,261.4,111,261.4z"/>
	<path d="M39.3,318.3c2.4,2.8,4.7,5.7,7,8.4C43.7,325.1,40.4,321.2,39.3,318.3z"/>
	<path d="M122,159.3c1.6-2.3,3.1-4.6,4.9-7.3C126.5,154.1,124.3,157.6,122,159.3z"/>
	<path d="M122.5,155.3c0.5-0.6,1-1.3,1.4-1.9c0.1,0.1,0.2,0.2,0.3,0.2c-0.4,0.7-0.9,1.3-1.3,2C122.8,155.5,122.7,155.4,122.5,155.3z
		"/>
	<path d="M108,299.1c0.6-1.2,1.1-2.5,1.9-3.5c1.9-2.3,2.9-4.9,2.4-7.9c1.2,2.1,1.1,4.2-0.2,6.1C110.9,295.7,109.4,297.3,108,299.1z"
		/>
	<path d="M115.8,305.7c-0.2-0.7-0.4-1.4-0.6-2.1c0.1,0,0.2,0,0.2-0.1c0.2,0.7,0.4,1.4,0.6,2C116,305.6,115.9,305.7,115.8,305.7z"/>
	<path d="M24.2,539c2.4,1.1,4.4,2.1,6.5,3.1C28.5,542.5,26.2,541.4,24.2,539z"/>
</g>
</svg>
