<svg width="25" height="25" version="1.1" viewBox="0 0 25 25" xmlns="http://www.w3.org/2000/svg">
 <path d="m10 1v2.3438c-1.4775 0.40278-2.8089 1.1514-3.9062 2.1562l-2.584-1.5-2.5098 4.3242 2.4141 1.4004c-0.26805 0.87836-0.41406 1.8093-0.41406 2.7754 0 0.91616 0.13689 1.7985 0.37891 2.6367l-2.3789 1.3125 2.416 4.3789 2.5742-1.4219c1.1164 1.0526 2.486 1.8346 4.0098 2.25v2.3438h5v-2.3438c1.5467-0.42164 2.9352-1.2203 4.0605-2.2969l2.5352 1.4707 2.5078-4.3242-2.4668-1.4316c0.23069-0.81993 0.36328-1.6805 0.36328-2.5742 0-0.9626-0.14591-1.89-0.41211-2.7656l2.4551-1.3574-2.416-4.377-2.627 1.4492 0.15234 0.27539c-1.1408-1.1202-2.5644-1.948-4.1523-2.3809v-2.3438z" fill="#ffcb21"/>
 <path d="m22.933 17.612-0.8267 1.4433c-0.2284 0.3992-0.7334 0.535-1.1292 0.305l-2.2958-1.3367c-1.165 1.3259-2.7408 2.2759-4.5292 2.6425v1.8342c0 0.4608-0.3692 0.8333-0.8258 0.8333h-1.6533c-0.4567 0-0.8259-0.3725-0.8259-0.8333v-1.8342c-1.7883-0.3666-3.3642-1.3166-4.5292-2.6425l-2.2958 1.3367c-0.39584 0.23-0.90084 0.0942-1.1292-0.305l-0.82667-1.4433c-0.22833-0.3984-0.0925-0.9084 0.3025-1.1375l2.305-1.3434c-0.27416-0.8283-0.43833-1.7091-0.43833-2.6308s0.16417-1.8017 0.43833-2.6308l-2.305-1.3425c-0.395-0.23-0.53083-0.73916-0.3025-1.1383l0.82667-1.4433c0.22833-0.39833 0.73333-0.535 1.1292-0.305l2.2958 1.3367c1.165-1.3258 2.7408-2.2758 4.5292-2.6425v-1.8342c0-0.46083 0.3692-0.83333 0.8259-0.83333h1.6533c0.4566 0 0.8258 0.3725 0.8258 0.83333v1.8342c1.7884 0.36666 3.3642 1.3167 4.5292 2.6425l2.2958-1.3367c0.3958-0.23 0.9008-0.09333 1.1292 0.305l0.8267 1.4433c0.2283 0.39917 0.0924 0.90833-0.3026 1.1383l-2.305 1.3425c0.2742 0.82914 0.4384 1.7091 0.4384 2.6308s-0.1642 1.8025-0.4384 2.6308l2.305 1.3434c0.395 0.2291 0.5309 0.7391 0.3026 1.1375zm1.2399-2.165-1.9358-1.1267c0.1083-0.5917 0.18-1.1958 0.18-1.82 0-0.6233-0.0717-1.2283-0.18-1.82l1.9358-1.1267c0.7909-0.46 1.0609-1.48 0.6042-2.2767l-1.6525-2.8867c-0.4558-0.79666-1.4675-1.0708-2.2575-0.60999l-1.9558 1.1375c-0.9134-0.78333-1.9517-1.4242-3.1058-1.8367v-1.4142c0-0.92-0.74-1.6667-1.6534-1.6667h-3.305c-0.91332 0-1.6533 0.74667-1.6533 1.6667v1.4142c-1.1542 0.4125-2.1925 1.0533-3.1058 1.8367l-1.9558-1.1375c-0.79001-0.46083-1.8017-0.18667-2.2575 0.60999l-1.6525 2.8867c-0.45667 0.79667-0.18584 1.8167 0.60416 2.2767l1.9358 1.1267c-0.10834 0.5917-0.18001 1.1967-0.18001 1.82 0 0.6242 0.07167 1.2283 0.18001 1.82l-1.9358 1.1267c-0.79 0.46-1.0608 1.48-0.60416 2.2766l1.6525 2.8867c0.45583 0.7967 1.4675 1.0708 2.2575 0.61l1.9558-1.1375c0.91333 0.7833 1.9517 1.425 3.1058 1.8367v1.4141c0 0.92 0.74 1.6667 1.6533 1.6667h3.305c0.9134 0 1.6534-0.7467 1.6534-1.6667v-1.4141c1.1541-0.4117 2.1924-1.0534 3.1058-1.8367l1.9558 1.1375c0.79 0.4608 1.8017 0.1867 2.2575-0.61l1.6525-2.8867c0.4567-0.7966 0.1867-1.8166-0.6042-2.2766zm-11.673-0.4467c-1.3692 0-2.4791-1.1192-2.4791-2.5 0-1.38 1.1099-2.5 2.4791-2.5s2.4792 1.12 2.4792 2.5c0 1.3808-1.11 2.5-2.4792 2.5zm0-6.6667c-2.2825 0-4.1316 1.865-4.1316 4.1667s1.8492 4.1667 4.1316 4.1667 4.1325-1.865 4.1325-4.1667-1.85-4.1667-4.1325-4.1667z" fill="#FFFFFE"/>
</svg>
