
<svg width="22px" height="22px" viewBox="0 0 22 22" version="1.1" xmlns="http://www.w3.org/2000/svg" xmlns:xlink="http://www.w3.org/1999/xlink">
    <g id="Welcome" stroke="none" stroke-width="1" fill="none" fill-rule="evenodd">
        <g id="battles" transform="translate(-1370.000000, -328.000000)" fill="#4A4A4A" fill-rule="nonzero">
            <g id="Боковое-меню" transform="translate(1363.000000, 0.000000)">
                <path d="M9.63148812,330.016949 L14.561291,331.897274 L18.45186,336.916833 L22.2851702,331.897793 L27.2066491,330.058688 L25.8036833,335.244425 L20.8035051,339.95133 L22.5707073,342.230638 L23.277235,341.581222 L24.161845,342.551846 L23.0693882,343.556432 L24.4890019,345.115809 C24.5820789,345.099735 24.6766694,345.091699 24.7722688,345.091699 C25.2608601,345.091699 25.7648381,345.30143 26.1414343,345.714412 C26.8149184,346.454047 26.8212245,347.549369 26.1560643,348.161454 C25.863969,348.429775 25.4911564,348.560955 25.1080019,348.560955 C24.617645,348.560955 24.1098833,348.346557 23.7320259,347.931501 C23.2817753,347.437633 23.1372411,346.785884 23.2842977,346.224094 L21.864684,344.664976 L20.7724794,345.669562 L19.8878694,344.697901 L20.6095316,344.034485 L18.529298,342.091941 L16.297972,344.192367 L17.0234178,344.882486 L16.1438526,345.859332 L15.0460987,344.8156 L13.6340522,346.384309 C13.784388,346.960617 13.6428806,347.622736 13.1954047,348.120233 C12.8263757,348.530104 12.3312262,348.740873 11.8489409,348.740873 C11.4562013,348.740873 11.0717856,348.601138 10.7713663,348.315188 C10.1024225,347.678993 10.1031792,346.560597 10.773132,345.816556 C11.1406475,345.408759 11.6320134,345.202916 12.1120285,345.202916 C12.2167086,345.202916 12.320632,345.212767 12.4225375,345.232211 L13.834584,343.663761 L12.7368301,342.620288 L13.6163953,341.642664 L14.3269589,342.318523 L16.1766439,339.895851 L11.0599303,335.117912 L9.63148812,330.016949 Z M7.81081081,328 L8.47193511,330.360193 L9.90062953,335.461415 L9.99521999,335.799734 L10.2487224,336.036427 L14.5345534,340.038438 L14.185956,340.494973 L13.5500559,339.890148 L12.7302718,340.801404 L11.8507066,341.779028 L11.0316793,342.689507 L11.9172983,343.531285 L12.1289287,343.732462 L11.9150281,343.970192 C11.1507371,344.023079 10.420751,344.382396 9.88726074,344.974519 C9.35629292,345.564048 9.06344083,346.321052 9.06293635,347.105796 C9.06243187,347.927612 9.37773342,348.680468 9.95107777,349.225926 C10.4633797,349.713312 11.1371161,349.981374 11.8481842,349.981374 C12.6838594,349.981374 13.4973374,349.610131 14.080267,348.963048 C14.6243513,348.358223 14.9101406,347.587219 14.8992943,346.80455 L15.1116814,346.568634 L15.3238163,346.770329 L16.2091831,347.612107 L17.0287149,346.702147 L17.9082801,345.725301 L18.5353518,345.028961 L19.0057817,345.545642 L19.8903918,346.517303 L20.6965548,347.402894 L21.57612,346.59404 L21.7890116,346.398308 L22.0195601,346.651593 C22.0150198,347.422078 22.3050972,348.181416 22.8504428,348.77976 C23.4416963,349.428917 24.2640027,349.801197 25.106993,349.801197 C25.7996474,349.801197 26.4574926,349.547393 26.9594527,349.086191 C27.503537,348.585324 27.8211088,347.889502 27.8539001,347.125758 C27.8889617,346.309645 27.5857677,345.486274 27.021504,344.866931 C26.4865003,344.279475 25.7590366,343.920416 24.9980248,343.860271 L24.7929526,343.634984 L24.9659901,343.476065 L25.8859139,342.62988 L25.0419147,341.703846 L24.1573047,340.733222 L23.3513939,339.848927 L22.7180161,340.430939 L22.4488747,340.083806 L26.6181703,336.159051 L26.8731862,335.918988 L26.9657587,335.576521 L28.3687245,330.390785 L28.996553,328.069997 L26.7939824,328.893109 L21.8725035,330.732214 L21.5486257,330.853283 L21.3357341,331.131974 L18.4450495,334.917772 L15.5051777,331.124715 L15.2958175,330.854838 L14.9810204,330.734807 L10.0512175,328.854222 L7.81081081,328 Z M18.0790474,344.197552 L18.5320727,343.77083 L18.8067634,344.027486 L18.3456664,344.451356 L18.0790474,344.197552 Z" id="Shape"></path>
            </g>
        </g>
    </g>
</svg>