<svg width="34" height="34" viewBox="0 0 34 34" fill="none" xmlns="http://www.w3.org/2000/svg">
<path d="M10.3798 21.0457L23.5385 21.0457C23.5385 21.1274 23.5793 21.4135 23.518 21.4339C23.4976 21.4543 23.3546 21.4339 23.3546 21.4339L10.6454 21.4339C10.6046 21.4339 10.4411 21.4748 10.4002 21.4339C10.3389 21.4135 10.3798 21.1683 10.3798 21.0457ZM11.1358 15.8353H15.3449C17.4495 15.8149 19.5949 15.8353 21.7404 15.8149L22.6394 15.8149C22.6803 15.8149 22.8029 15.774 22.8437 15.8149C22.8846 15.8558 22.8642 16.1214 22.8642 16.2031L11.1358 16.2031L11.1358 15.8353ZM21.5565 9.09255C21.107 11.1767 23.1707 14.262 25.4591 13.1178C25.9086 12.9135 26.3173 12.5457 26.6238 12.1575C26.9099 13.3017 26.6647 14.4868 25.6226 15.1611C24.9483 15.5901 24.1106 15.774 23.3137 15.8353H22.5781C23.1707 17.0817 24.4579 18.369 25.9291 18.1647C26.7873 18.0421 27.6046 17.47 28.1154 16.7957C28.4423 18.1034 28.1767 19.4724 26.9916 20.2488C26.2356 20.7596 25.2752 20.9844 24.3558 21.0457C24.0901 21.0661 23.7837 21.0457 23.4976 21.0457L23.4976 25.6635L19.4519 25.6635C19.5132 24.2536 18.3486 23.0481 16.9591 23.0481C15.5697 23.0481 14.405 24.2536 14.4663 25.6635L10.625 25.6635C10.5841 25.6635 10.4411 25.6839 10.4411 25.643C10.4002 25.6022 10.4411 25.3161 10.4411 25.2344C10.4002 25.03 10.4207 24.7644 10.4207 24.5192L10.4207 21.6178C10.4207 21.4952 10.4615 21.25 10.4207 21.1274C10.3798 21.0048 10.155 21.0661 9.99158 21.0661C9.90985 21.0661 9.78726 21.0661 9.68509 21.0457C9.17428 21.0252 8.68389 20.9435 8.21394 20.8005C7.47836 20.5962 6.74278 20.2284 6.2524 19.6154C5.59855 18.7981 5.57812 17.756 5.82331 16.7752C6.33413 17.4495 7.15144 18.0216 8.00961 18.1442C9.48076 18.3486 10.768 17.0613 11.3197 15.8149C9.93028 15.8149 8.13221 15.6106 7.4375 14.2212C7.11057 13.5673 7.131 12.8113 7.29447 12.1166C7.96874 12.9952 9.15384 13.6082 10.2572 13.1586C11.524 12.6274 12.3618 11.2175 12.4231 9.88942C12.4435 9.6238 12.4231 9.3173 12.3618 9.05168C14.7933 9.07211 17.2452 9.07211 19.6562 9.07211C20.2897 9.09255 20.9231 9.07211 21.5565 9.09255ZM22.6803 8.17308C21.0661 8.19351 19.4315 8.19351 17.8173 8.17308L11.238 8.17307C11.4423 9.07211 11.6875 9.84855 11.3197 10.7476C11.0132 11.5036 10.2368 12.5252 9.33773 12.4435C8.74519 12.3822 8.23437 11.9123 7.86658 11.4627C7.51922 11.0336 7.1923 10.5841 6.84495 10.155C6.57932 11.1971 6.1911 12.3209 6.27283 13.3834C6.43629 15.2224 7.98918 16.2849 9.68509 16.5913C9.13341 17.143 8.4387 17.4699 7.66225 17.143C7.23317 16.9591 6.82451 16.6322 6.51802 16.2849C6.10937 15.7945 5.76201 15.2836 5.37379 14.7728C5.02644 16.3053 4.41346 17.9399 5.10817 19.4519C5.61899 20.5757 6.68149 21.2704 7.82572 21.5974C8.29567 21.7404 8.78605 21.8221 9.29687 21.8834C9.3786 21.8834 9.52163 21.863 9.54206 21.9243C9.58293 21.9651 9.54206 22.1286 9.54206 22.1695L9.54207 26.0517C9.54206 26.1334 9.48077 26.4808 9.54206 26.5421C9.6238 26.6238 10.1755 26.5625 10.3389 26.5625L15.4062 26.5625C15.3858 26.1743 15.3041 25.7248 15.3858 25.3161C15.5084 24.5397 16.1623 23.9675 16.9591 23.9471C17.7356 23.9471 18.4303 24.4784 18.5937 25.2548C18.6755 25.6635 18.6142 26.1334 18.5937 26.5625L24.4375 26.5625L24.4375 22.149C24.4375 22.1082 24.4171 21.9243 24.4375 21.9038C24.4988 21.8425 24.9483 21.8425 25.0505 21.8221C25.7248 21.72 26.4399 21.5361 27.0529 21.2091C28.4627 20.494 29.2596 19.125 29.1574 17.5517C29.0962 16.5913 28.7692 15.6514 28.5649 14.7524C28.1971 15.2428 27.8089 15.7536 27.4411 16.244C27.1142 16.6526 26.6442 17 26.1743 17.1839C25.4387 17.4291 24.8053 17.0817 24.274 16.5913C25.6022 16.3666 26.9303 15.6514 27.4615 14.3438C27.8702 13.3221 27.625 12.2596 27.3798 11.238C27.2981 10.8702 27.1959 10.482 27.1142 10.1142C26.8077 10.5024 26.5216 10.9111 26.2151 11.2993C25.8882 11.7488 25.5204 12.1575 24.9892 12.3618C24.0493 12.7296 23.1911 11.8305 22.8029 11.0745C22.5373 10.5637 22.3942 9.97115 22.476 9.39904C22.4351 8.99038 22.5986 8.58173 22.6803 8.17308Z" fill="black"/>
</svg>