<svg width="40" height="40" fill="none" version="1.1" viewBox="2 -2 40 40" xmlns="http://www.w3.org/2000/svg"><rect x="16" y="11" width="13" height="12" fill="#fff"/><path d="m23.449 18c0-0.6595 0.4745-1.2 1.0756-1.2s1.0756 0.5405 1.0756 1.2c0 0.6594-0.4745 1.2-1.0756 1.2-0.5905 0-1.0756-0.5406-1.0756-1.2zm-3.8488 0c0-0.6594 0.4745-1.2 1.0755-1.2 0.6011 0 1.0862 0.5406 1.0756 1.2 0 0.6595-0.4745 1.2-1.0756 1.2-0.5905 0-1.0755-0.5405-1.0755-1.2z" clip-rule="evenodd" fill="#7289da" fill-rule="evenodd"/><path d="m15.179 7.8h14.242c1.2011 0 2.1789 0.966 2.1789 2.163v18.837l-2.2851-1.995-1.2861-1.176-1.3605-1.2495 0.5634 1.9425h-12.053c-1.2011 0-2.1789-0.966-2.1789-2.163v-14.196c0-1.197 0.9778-2.163 2.1789-2.163zm9.4381 12.862c0.3189 0.399 0.7015 0.8505 0.7015 0.8505 2.3489-0.0735 3.2524-1.596 3.2524-1.596 0-3.381-1.5306-6.1215-1.5306-6.1215-1.5305-1.134-2.9866-1.1025-2.9866-1.1025l-0.1488 0.168c1.8069 0.546 2.6465 1.3335 2.6465 1.3335-1.1053-0.5985-2.1895-0.8925-3.1992-1.008-0.7652-0.084-1.4986-0.063-2.1469 0.021-0.0557 0-0.1033 8e-3 -0.1569 0.017-0.0078 0.0014-0.0157 0.0027-0.0238 4e-3 -0.372 0.0315-1.2755 0.168-2.4127 0.6615-0.3933 0.1785-0.6271 0.3045-0.6271 0.3045s0.8822-0.8295 2.7953-1.3755l-0.1063-0.126s-1.4561-0.0315-2.9866 1.1025c0 0-1.5305 2.7405-1.5305 6.1215 0 0 0.8928 1.5225 3.2417 1.596 0 0 0.3933-0.4725 0.7121-0.8715-1.3498-0.399-1.86-1.239-1.86-1.239s0.1063 0.0735 0.2976 0.1785c0.0106 0.0105 0.0213 0.021 0.0425 0.0315 0.016 0.0105 0.0319 0.0184 0.0479 0.0263 0.0159 0.0078 0.0318 0.0157 0.0478 0.0262 0.2657 0.147 0.5314 0.2625 0.7759 0.357 0.4357 0.168 0.9565 0.336 1.5624 0.4515 0.7971 0.147 1.7324 0.1995 2.7528 0.0105 0.4995-0.084 1.0097-0.231 1.5411-0.4515 0.372-0.1365 0.7865-0.336 1.2223-0.6195 0 0-0.5314 0.861-1.9238 1.2495z" clip-rule="evenodd" fill="#7289da" fill-rule="evenodd"/></svg>