
<svg width="27px" height="26px" viewBox="0 0 27 26" version="1.1" xmlns="http://www.w3.org/2000/svg" xmlns:xlink="http://www.w3.org/1999/xlink">
    <g id="Welcome" stroke="none" stroke-width="1" fill="none" fill-rule="evenodd">
        <g id="battles" transform="translate(-1368.000000, -397.000000)">
            <g id="Боковое-меню" transform="translate(1363.000000, 0.000000)">
                <g id="dove2" transform="translate(5.864865, 397.000000)">
                    <path d="M3.19431974,1.28898305 L13.5061842,12.0305085 C13.5061842,12.0305085 13.4204306,8.31779661 15.7572148,8.31779661 C15.8644068,8.31779661 15.9823179,8.32881356 16.0895098,8.33983051 C18.7693083,8.71440678 19.5410902,11.7 19.5410902,11.7 L16.3574897,12.1186441 C16.8076958,21.5491525 9.49720568,21.6372881 9.49720568,21.6372881 L7.910765,24.8542373 C0.782501145,24.2923729 0.73962437,18.1779661 0.73962437,18.1779661 L9.50792487,18.409322 C-3.02281264,11.3254237 3.19431974,1.28898305 3.19431974,1.28898305 Z M3.07640861,0.0991525424 L2.5833257,0.892372881 C2.47613376,1.05762712 0.0535959689,5.05677966 1.25414567,9.91525424 C1.98305085,12.8457627 3.85890976,15.4237288 6.86028401,17.6050847 L0.761062758,17.4398305 L0.0107191938,17.4177966 L0.0214383875,18.1889831 C0.0214383875,18.2550847 0.0428767751,19.940678 1.0290426,21.6813559 C1.94017407,23.2898305 3.86962895,25.2838983 7.86788823,25.6033898 L8.35025195,25.6364407 L8.56463582,25.1957627 L9.96885021,22.3533898 C10.9014201,22.2432203 13.0881356,21.7915254 14.8139258,19.9076271 C16.3682089,18.2110169 17.1399908,15.809322 17.1078333,12.779661 L19.637563,12.4491525 L20.4629409,12.3389831 L20.248557,11.5127119 C20.2163995,11.3694915 19.3159872,8.04237288 16.1967018,7.60169492 C16.0466331,7.57966102 15.9072836,7.56864407 15.7572148,7.56864407 C15.0390289,7.56864407 14.4065964,7.8440678 13.9242327,8.35084746 C13.4633074,8.83559322 13.1417316,9.51864407 12.9487861,10.3889831 L3.70884104,0.771186441 L3.07640861,0.0991525424 Z" id="Shape" fill="#4A4A4A" fill-rule="nonzero"></path>
                    <path d="M1.67219423,4.04322034 L8.03939533,9.75" id="Path" stroke="#4A4A4A" stroke-linecap="round" stroke-linejoin="round"></path>
                    <path d="M1.57572148,9.18813559 L6.39935868,11.259322" id="Path" stroke="#4A4A4A" stroke-linecap="round" stroke-linejoin="round"></path>
                    <path d="M3.4408612,13.6169492 L5.53110399,13.3855932" id="Path" stroke="#4A4A4A" stroke-linecap="round" stroke-linejoin="round"></path>
                    <g id="Group" transform="translate(20.152084, 12.118644)" stroke="#4A4A4A" stroke-linecap="round" stroke-linejoin="round">
                        <path d="M0.0428767751,0.0220338983 L2.2403115,1.39915254" id="Path"></path>
                        <path d="M2.0580852,1.3220339 C2.0580852,1.3220339 4.66284929,-0.0991525424 4.84507558,3.07372881 C4.84507558,3.07372881 2.50829134,4.5059322 2.0580852,1.3220339 Z" id="Path"></path>
                    </g>
                    <g id="Group" transform="translate(19.937700, 9.584746)" stroke="#4A4A4A" stroke-linecap="round" stroke-linejoin="round">
                        <path d="M0.0428767751,2.28050847 L2.39038021,1.57542373" id="Path"></path>
                        <path d="M2.20815392,1.66355932 C2.20815392,1.66355932 2.93705909,-1.2779661 5.34887769,0.727118644 C5.34887769,0.727118644 4.80219881,3.47033898 2.20815392,1.66355932 Z" id="Path"></path>
                    </g>
                </g>
            </g>
        </g>
    </g>
</svg>