<svg width="36" height="36" fill="none" version="1.1" viewBox="-4 -4 40 40" xmlns="http://www.w3.org/2000/svg">
 <path id="ellipse" transform="scale(.88889)" d="m7.9375 2.0645c-0.21989 0.010339-0.32617 0.046875-0.32617 0.046875-1.0996 2.8599-0.40556 4.969-0.19531 5.4922-1.2954 1.4541-2.0879 3.3094-2.0879 5.5762 0 7.9558 4.7287 9.7347 9.2266 10.26-0.57915 0.51818-1.1034 1.4338-1.2852 2.7754-1.1555 0.53055-4.0884 1.4496-5.8945-1.7246 0 0-1.07-1.9945-3.1035-2.1406 0 0-1.976-0.02686-0.13867 1.2617 0 0 1.3288 0.63921 2.25 3.0391 0 0 1.1887 3.7053 6.8223 2.4492 0.0088 1.735 0.02734 3.3702 0.02734 3.8652-0.0045 2.1335 10.023 1.9761 10.041 0 0-0.68411 0.02148-2.9195 0.02148-5.6973 0-1.9371-0.64675-3.2013-1.373-3.8457 4.5092-0.51401 9.248-2.2675 9.248-10.242 0-2.2668-0.78746-4.1221-2.0859-5.5762 0.21026-0.52324 0.90501-2.6323-0.19726-5.4922 0 0-1.6974-0.55934-5.5625 2.127-1.6183-0.46004-3.3532-0.69131-5.0742-0.69922-1.7209 0.0079087-3.453 0.23918-5.0684 0.69922-2.9022-2.0147-4.5845-2.2049-5.2441-2.1738zm-2.6602 20.898c0.063421-0.01178 0.13962-0.0021 0.21289 0.0332 0.14722 0.06806 0.23066 0.21095 0.17969 0.31445-0.044606 0.1035-0.20151 0.13522-0.3457 0.06445-0.14688-0.06784-0.2312-0.20911-0.18359-0.3125 0.021797-0.05316 0.073298-0.08783 0.13672-0.09961zm0.82812 0.71289c0.033312-0.0069 0.070011-0.0048 0.10742 0.0039 0.074822 0.01737 0.15431 0.06628 0.2207 0.13867 0.13246 0.14648 0.15758 0.33676 0.056641 0.42969-0.096581 0.0918-0.28597 0.04942-0.41406-0.0957-0.13246-0.14479-0.15651-0.33838-0.058594-0.43164 0.024899-0.02295 0.054579-0.03805 0.087891-0.04492zm0.83984 1.0586c0.11522-0.0064 0.25234 0.0735 0.34766 0.21094 0.12374 0.18742 0.12091 0.4076-0.00586 0.49805-0.12406 0.08831-0.32576 7e-3 -0.45117-0.17773-0.12408-0.18461-0.12287-0.40549 0.00391-0.49414 0.031435-0.0222 0.067062-0.03497 0.10547-0.03711zm1.041 1.1836c0.095276 0.01436 0.19797 0.06741 0.28516 0.15234 0.17571 0.16706 0.2297 0.4051 0.11133 0.5293-0.111 0.12544-0.34845 0.0931-0.52148-0.07813-0.17705-0.16751-0.22656-0.40765-0.11523-0.5332 0.056171-0.06294 0.14496-0.08467 0.24023-0.07031zm1.4023 0.89844c0.054808 8.36e-4 0.11411 0.01077 0.17188 0.0293 0.22871 0.07076 0.37767 0.25845 0.33008 0.42383-0.048937 0.16268-0.27452 0.239-0.50391 0.16992-0.22901-0.07121-0.38027-0.26142-0.33398-0.42578 0.023805-0.08184 0.091597-0.14337 0.18359-0.17383 0.045998-0.01523 0.097536-0.02427 0.15234-0.02344zm3.3906 0.07617c0.16248 0.01784 0.28768 0.10501 0.31055 0.23242 0.0288 0.16706-0.13789 0.33932-0.37695 0.38477-0.23512 0.04433-0.4525-0.0589-0.48242-0.22461-0.02914-0.17122 0.14216-0.34239 0.37695-0.38672 0.05985-0.01066 0.11772-0.01181 0.17188-0.0059zm-1.668 0.19922c0.24075-0.0048 0.4375 0.13263 0.4375 0.30273 0.0056 0.17122-0.18894 0.31371-0.42969 0.31641-0.2421 0.0058-0.43882-0.13237-0.44141-0.30078 0-0.17291 0.19149-0.3142 0.43359-0.31836z" fill="#4A4A4A" stroke-width="1.0405"/>
</svg>
