<svg width="36" height="36" viewBox="0 0 36 36" fill="none" xmlns="http://www.w3.org/2000/svg"><path d="M18.0001 0C8.06024 0 0 8.26248 0 18.4556C0 26.6098 5.15759 33.5279 12.3096 35.9683C13.2092 36.1391 13.5395 35.5679 13.5395 35.0804C13.5395 34.6404 13.5228 33.1865 13.515 31.6443C8.50736 32.7608 7.45068 29.4668 7.45068 29.4668C6.63187 27.3336 5.45209 26.7663 5.45209 26.7663C3.81894 25.6209 5.57519 25.6444 5.57519 25.6444C7.38272 25.7743 8.33447 27.5463 8.33447 27.5463C9.93991 30.3678 12.5454 29.5521 13.5725 29.0805C13.7341 27.888 14.2006 27.0732 14.7154 26.6126C10.7173 26.1459 6.51443 24.5634 6.51443 17.4916C6.51443 15.4767 7.21759 13.8303 8.36905 12.5378C8.18216 12.0727 7.56604 10.1958 8.54342 7.65368C8.54342 7.65368 10.055 7.15765 13.4947 9.54547C14.9306 9.13655 16.4704 8.93148 18.0001 8.92445C19.5299 8.93148 21.0709 9.13655 22.5094 9.54547C25.945 7.15765 27.4545 7.65368 27.4545 7.65368C28.4343 10.1958 27.8178 12.0727 27.6309 12.5378C28.7851 13.8303 29.4835 15.4767 29.4835 17.4916C29.4835 24.5802 25.2726 26.141 21.2644 26.5979C21.91 27.1707 22.4853 28.2938 22.4853 30.0157C22.4853 32.4848 22.4644 34.4723 22.4644 35.0804C22.4644 35.5716 22.7884 36.1471 23.7008 35.9658C30.849 33.5227 36 26.6071 36 18.4556C36 8.26248 27.9409 0 18.0001 0Z" fill="#E9DAC5"/><path d="M6.81758 26.4983C6.77793 26.5903 6.63724 26.6175 6.50907 26.5546C6.37851 26.4943 6.30519 26.3693 6.34751 26.2774C6.38626 26.1829 6.52725 26.1569 6.65751 26.2196C6.78837 26.2801 6.86289 26.4063 6.81758 26.4983Z" fill="#E9DAC5"/><path d="M7.54668 27.3321C7.46083 27.4137 7.29301 27.3758 7.17915 27.2468C7.06141 27.1181 7.03935 26.9461 7.12639 26.8632C7.21492 26.7816 7.37767 26.8198 7.4957 26.9485C7.61344 27.0787 7.6364 27.2495 7.54668 27.3321Z" fill="#E9DAC5"/><path d="M8.25637 28.395C8.14609 28.4735 7.96575 28.3999 7.85427 28.2357C7.74398 28.0716 7.74398 27.8748 7.85666 27.796C7.96843 27.7171 8.14609 27.788 8.25906 27.9509C8.36905 28.1175 8.36905 28.3146 8.25637 28.395Z" fill="#E9DAC5"/><path d="M9.22873 29.4219C9.13006 29.5334 8.91992 29.5035 8.76611 29.3513C8.60873 29.2024 8.56491 28.9913 8.66387 28.8797C8.76373 28.7678 8.97506 28.7993 9.13006 28.9503C9.28625 29.0988 9.33395 29.3115 9.22873 29.4219Z" fill="#E9DAC5"/><path d="M10.57 30.0182C10.5265 30.1628 10.3241 30.2285 10.1202 30.1671C9.91664 30.1038 9.7834 29.9345 9.82454 29.7884C9.86686 29.6429 10.0701 29.5745 10.2755 29.6402C10.4788 29.7031 10.6123 29.8712 10.57 30.0182Z" fill="#E9DAC5"/><path d="M12.0432 30.1287C12.0482 30.2809 11.8753 30.4072 11.6613 30.4096C11.4461 30.4148 11.272 30.2916 11.2697 30.1419C11.2697 29.9882 11.4387 29.8632 11.6539 29.8595C11.8679 29.8552 12.0432 29.9775 12.0432 30.1287Z" fill="#E9DAC5"/><path d="M13.414 29.8895C13.4396 30.038 13.2909 30.1905 13.0784 30.2309C12.8694 30.2703 12.676 30.1786 12.6494 30.0313C12.6235 29.8791 12.7749 29.7266 12.9836 29.6872C13.1964 29.6493 13.3869 29.7385 13.414 29.8895Z" fill="#E9DAC5"/></svg>