
<svg width="27px" height="21px" viewBox="0 0 27 21" version="1.1" xmlns="http://www.w3.org/2000/svg" xmlns:xlink="http://www.w3.org/1999/xlink">
    <g id="Welcome" stroke="none" stroke-width="1" fill="none" fill-rule="evenodd">
        <g id="battles" transform="translate(-1368.000000, -26.000000)" stroke="#4A4A4A">
            <g id="Боковое-меню" transform="translate(1363.000000, 0.000000)">
                <g id="map2" transform="translate(5.864865, 27.000000)">
                    <path d="M0,2.80135719 L1.49741849,13.4207279 L2.28015998,18.9882788 L12.9549388,17.2652684 L24.3330505,19 L25.2972973,0 C21.1793964,1.0197409 17.0728397,2.05120296 12.9549388,3.07094386 C8.64418858,2.98889574 4.32209429,2.89512647 0,2.80135719 Z" id="Path" stroke-width="1.1734" stroke-linecap="round" stroke-linejoin="round"></path>
                    <g id="Group" transform="translate(8.756757, 3.000000)">
                        <path d="M0.100268207,0.0345132743 C0.133690943,0.161061947 0.17825459,0.287610619 0.222818238,0.414159292" id="Path" stroke-linecap="round" stroke-linejoin="round"></path>
                        <path d="M0.902413864,2.22035398 C1.50402311,3.61238938 2.19475965,4.76283186 2.82979162,5.67168142 C3.8324737,6.91415929 5.35877863,7.33982301 6.45058799,6.79911504 C7.38642459,6.33893805 7.6760883,5.32654867 7.74293377,5.08495575 C8.60078399,2.85309735 11.0629255,2.17433628 12.7117805,3.16371681 C14.2158036,4.06106195 14.8842583,6.24690265 14.3272127,7.52389381 C13.6698989,9.04247788 11.4862802,8.76637168 11.2857438,9.81327434 C11.1966165,10.2849558 11.508562,11.0327434 13.2911079,12.2637168" id="Path" stroke-linecap="round" stroke-linejoin="round" stroke-dasharray="6.8667,16.8296"></path>
                        <path d="M4.11506506,7.10711827 C5.87327357,6.07681716 5.48503174,3.61259129 6.81081081,3 C8.12233631,2.39399473 11.1541638,3.63074359 11.7408556,4.23703704 C12.1586342,4.66877391 12.5922218,5.46715944 12.6486486,6 C12.7515649,6.97184083 12.1432483,7.8186535 11.7408556,9.31178477" id="Path-2" fill-rule="nonzero"></path>
                        <path d="M14.0709717,12.7814159 C14.1823809,12.8504425 14.29379,12.919469 14.4051991,12.9884956" id="Path" stroke-linecap="round" stroke-linejoin="round"></path>
                    </g>
                    <path d="M6.66689469,11.3852712 C6.66689469,11.3852712 3.67003376,10.0640395 3.00040549,12.3150268 C2.33077723,14.5660141 6.00824394,15.5875219 6.00824394,15.5875219 C6.00824394,15.5875219 9.63082309,16.3827077 13.5497951,15.7649095 C17.4687671,15.1471114 14.4719061,14.0583186 14.4719061,14.0583186 C14.4719061,14.0583186 12.2215161,13.6974266 9.19172259,13.9849168 C9.19172259,13.9849168 7.09501768,13.8870478 7.23772535,13.0918621 C7.38043301,12.2966763 6.66689469,11.3852712 6.66689469,11.3852712 Z" id="Path" stroke-linecap="round" stroke-linejoin="round" stroke-dasharray="6.7727,16.5994"></path>
                </g>
            </g>
        </g>
    </g>
</svg>