
<svg width="18px" height="26px" viewBox="0 0 18 26" version="1.1" xmlns="http://www.w3.org/2000/svg" xmlns:xlink="http://www.w3.org/1999/xlink">
    <g id="Welcome" stroke="none" stroke-width="1" fill="none" fill-rule="evenodd">
        <g id="battles" transform="translate(-1373.000000, -164.000000)">
            <g id="Боковое-меню" transform="translate(1363.000000, 0.000000)">
                <g id="Group" transform="translate(18.993001, 180.002887) rotate(-135.000000) translate(-18.993001, -180.002887) translate(6.493001, 167.002887)">
                    <path d="M12.0212708,0.952327403 C12.9966275,1.9547773 13.9476002,2.93216595 14.9229569,3.93461585 C16.0690009,5.11249448 17.2394289,6.31543435 18.385473,7.49331298 C18.8975352,8.01959918 19.0682226,8.99698783 19.0682226,9.74882525 C19.0438387,11.2023776 18.4586247,12.6308687 17.7027233,13.8338086 C16.7761345,15.3625447 15.5081708,16.715852 14.0939037,17.7684244 C12.8990918,18.6455681 11.5092086,19.3974055 10.0461736,19.5728343 C9.46095957,19.648018 8.87574558,19.648018 8.3149155,19.4725893 C7.80285326,19.3222218 7.41271059,19.0465481 7.04695185,18.6706293 C6.75434485,18.3698944 6.43735394,18.0440982 6.14474694,17.7433632 C4.73047979,16.3148721 3.36498047,14.9114422 1.97509723,13.5080124 C1.73125807,13.2573999 1.4874189,13.0067874 1.24357974,12.7561749 C1.1948119,12.7060525 0.926588824,12.5055625 0.902204908,12.4053175 C0.902204908,12.3050725 1.29234757,11.9792763 1.36549932,11.9040925 C2.48715948,10.7512752 3.60881963,9.59845777 4.73047979,8.44564039 C6.19351477,6.94196554 7.65654976,5.43829069 9.11958474,3.93461585 C10.0461736,2.98228845 10.9727624,2.02996104 11.8993512,1.10269489 C11.948119,1.05257239 11.9968869,1.0024499 12.0212708,0.952327403 Z" id="Path"></path>
                    <path d="M15.4106352,15.8637696 C14.3133589,16.9915258 13.0210114,17.9689144 11.5823603,18.5453231 C10.5582358,18.9713643 9.31465608,19.2720993 8.24176375,18.8460581 C7.72970151,18.6455681 7.36394276,18.2445881 6.99818401,17.8436082 C6.46173785,17.2922607 5.92529169,16.7409133 5.38884553,16.1895658 C4.21841754,14.986626 3.04798955,13.7836861 1.90194548,12.6058075 C1.87756156,12.5807462 1.68249023,12.4303787 1.68249023,12.3802562 C1.68249023,12.355195 1.80440982,12.25495 1.82879373,12.2298888 C2.12140073,11.9291538 2.43839164,11.6033576 2.75538256,11.2775613 C3.95019446,10.0495602 5.14500637,8.8215591 6.33981827,7.59355797 C7.65654976,6.26531186 8.92451341,4.93706575 10.216861,3.60881963 C10.6557715,3.15771718 11.094682,2.70661472 11.5335925,2.25551227 C11.6555121,2.13020603 11.7774316,2.0048998 11.8993512,1.87959356 C11.9237351,1.85453231 11.9968869,1.75428732 12.0212708,1.75428732 C12.0700386,1.75428732 12.2163421,1.9547773 12.26511,2.0048998 C12.4845652,2.23045102 12.6796365,2.430941 12.8990918,2.65649223 C13.5330736,3.30808466 14.1426715,3.93461585 14.7766534,4.58620828 C15.75201,5.58865818 16.7273667,6.56604683 17.6783394,7.56849673 C17.9465625,7.84417045 18.1904017,8.16996667 18.3367052,8.57094662 C18.5073926,9.07217157 18.5317765,9.62351902 18.4830087,10.124744 C18.3367052,11.5031126 17.7027233,12.8313587 16.9468219,13.9591148 C16.5079114,14.6357685 15.9958492,15.2873609 15.4106352,15.8637696 Z M16.1909205,16.6657295 C17.5320359,15.2873609 18.67808,13.6082574 19.263294,11.753725 C19.5315171,10.9016426 19.6778206,10.024499 19.5802849,9.12229407 C19.5315171,8.72131411 19.4583653,8.3453954 19.2876779,7.99453793 C19.263294,7.91935419 19.2145261,7.84417045 19.1901422,7.76898671 C19.1901422,7.74392546 19.1413744,7.71886421 19.1413744,7.66874172 C19.1413744,7.64368047 19.2145261,7.61861922 19.2145261,7.59355797 C19.2145261,7.54343548 19.1657583,7.49331298 19.1169905,7.44319049 C18.092866,6.36555685 17.0443576,5.28792321 15.9958492,4.23535082 C14.9229569,3.13265593 13.8500645,2.02996104 12.7771722,0.927266155 C12.6064848,0.751837423 12.4357974,0.576408691 12.2894939,0.426041206 C12.2163421,0.350857464 12.0944225,0.175428732 11.9968869,0.20048998 C11.948119,0.225551227 11.8505834,0.350857464 11.8018156,0.400979959 C11.7042799,0.501224949 11.6067442,0.601469939 11.5092086,0.701714928 C11.4360568,0.776898671 11.3385211,0.87714366 11.2653694,0.952327403 C11.0215302,1.20293988 10.7776911,1.45355235 10.5338519,1.70416483 C9.21712041,3.05747219 7.90038892,4.41077955 6.60804135,5.73902566 C5.16939028,7.21763926 3.73073921,8.69625286 2.29208814,10.1748665 C1.90194548,10.5758464 1.4874189,11.0018876 1.09727624,11.4028676 C1.02412449,11.4780513 0.975356657,11.5281738 0.902204908,11.6033576 C0.780285326,11.7286638 0.633981827,11.8790313 0.512062245,12.0043375 C0.463294412,12.05446 0.121919582,12.3301337 0.121919582,12.4053175 C0.121919582,12.4805012 0.463294412,12.7561749 0.536446161,12.8313587 C0.658365744,12.9566649 0.780285326,13.0819712 0.902204908,13.2072774 C0.999740574,13.3075224 1.09727624,13.4077674 1.21919582,13.5330736 C1.82879373,14.1596048 2.43839164,14.786136 3.07237347,15.4377284 C4.24280146,16.6406683 5.41322945,17.8436082 6.58365744,19.0465481 C6.8274966,19.2971605 7.04695185,19.5227118 7.29079101,19.7733242 C7.38832668,19.8735692 7.33955884,19.8234467 7.41271059,19.8234467 C7.43709451,19.8234467 7.43709451,19.7733242 7.46147843,19.7733242 C7.48586234,19.7733242 7.55901409,19.8234467 7.58339801,19.8234467 C7.65654976,19.8735692 7.75408542,19.8986305 7.85162109,19.948753 C8.21737984,20.0991204 8.58313858,20.1743042 8.97328125,20.2244267 C10.7533071,20.3998554 12.533333,19.5978955 13.9719841,18.6205068 C14.7522694,18.0190369 15.5081708,17.3674445 16.1909205,16.6657295 Z" id="Shape" fill="#4A4A4A" fill-rule="nonzero"></path>
                    <path d="M15.5325548,15.9890759 C17.0687415,14.4102173 19.4583653,13.9841761 21.4090786,14.9365035 C23.3597919,15.8888309 24.5789878,18.0440982 24.3595325,20.2494879 C24.1644612,22.479939 22.5551227,24.409655 20.433722,24.9359412 C18.3367052,25.4622274 16.0933848,24.5600225 14.874189,22.7305514 C13.5330736,20.6504679 13.8012967,17.7684244 15.5325548,15.9890759 Z" id="Path"></path>
                    <path d="M22.5063549,23.1565926 C21.1408555,24.5600225 18.9950709,24.9610024 17.2394289,24.10892 C15.4837869,23.2317764 14.4108946,21.3020603 14.581582,19.3222218 C14.7766534,17.3423832 16.1909205,15.6382184 18.0684821,15.1369935 C19.9704276,14.6357685 22.0186765,15.4627897 23.0915689,17.1418932 C24.2863808,19.0214868 24.0425416,21.577734 22.5063549,23.1565926 Z M23.2866402,23.9334913 C24.9691304,22.2042652 25.4324248,19.4976505 24.4326843,17.2671995 C23.4085598,15.0367485 21.0677038,13.6583799 18.67808,13.9089923 C16.2884562,14.1345436 14.2402072,15.9389534 13.6549932,18.3448331 C13.0697792,20.7507129 14.0451359,23.3320214 16.044617,24.71039 C18.0197142,26.0636973 20.6775611,25.9885136 22.5795066,24.5850837 C22.8233458,24.3595325 23.0671849,24.1590425 23.2866402,23.9334913 Z" id="Shape" fill="#4A4A4A" fill-rule="nonzero"></path>
                </g>
            </g>
        </g>
    </g>
</svg>