<?xml version="1.0" encoding="UTF-8" standalone="no"?> <svg xmlns:dc="http://purl.org/dc/elements/1.1/" xmlns:cc="http://creativecommons.org/ns#" xmlns:rdf="http://www.w3.org/1999/02/22-rdf-syntax-ns#" xmlns:svg="http://www.w3.org/2000/svg" xmlns="http://www.w3.org/2000/svg" xmlns:sodipodi="http://sodipodi.sourceforge.net/DTD/sodipodi-0.dtd" version="1.1" width="4096" height="4096" >
	 <svg x="0" y="0" width="1024" height="1024" viewBox="0 0 163 118" preserveAspectRatio="xMinYMid meet" >
		<path d="M103.2,0c-9.4,0.1-18.7,1-27.8,3.3 c-4.9,1.2-9.8,2.6-14.2,5.2c-0.3,0.2-0.5,0.1-0.8,0C51.6,6,44.1,8.9,37.3,14.3c-2.4,1.8-4.5,3.9-6.8,5.8c-1.7,1.5-1.7,1.4-3.6,0.2 c-0.3-0.2-0.6-0.4-1-0.6c-3.7-1.8-8.7,0.2-9.9,4.1c-0.4,1.2-0.6,2.6-0.8,3.9c-0.1,0.7-0.3,1.1-0.8,1.6c-2.9,2.7-5.6,5.6-7.1,9.4 c-0.9,2.1-1.4,4.2-0.7,6.4c0.3,0.9,0.2,1.6-0.3,2.4c-1.7,2.6-2.9,5.5-3.9,8.4C1.2,59.6,0.2,63.3,0,67.4c-0.1,1.6,0.6,2.7,1.9,3.5 c2.8,1.8,5.7,3.4,8.8,4.6c2.7,1.1,5.4,1,8.1,0.6c1.9-0.3,3.1-1.7,4.3-3c2.2-2.2,4.5-3.8,7.9-3.5c2.4,0.2,4.8,0.6,7.3,1.3 c-1.6,2.1-2.8,4.2-4,6.4c-3.3,6.3-5.5,13-5.4,20.1c0.1,8.9,3.1,11.4,10.4,13h0.1c4.4,0.8,7.9-1,10-4.9c1.4-2.6,1.8-5.1,1-7.9 s0.1-5,2.1-7c2.2-2.2,4.6-4,7.2-5.6c0.4-0.3,0.6-0.2,0.8,0.2c1.2,2.3,2,4.7,1.6,7.4c-0.5,3.4-2.7,5.8-5.6,7.5 c-3.5,2-5.2,4.9-5.7,8.7c-0.5,3.6,1.7,6.6,5.2,7.3c1.5,0.3,2.9,0.3,4.4,0.5c3.6,0.4,7.2,0.6,10.8,0.7c1.1,0,2.1-0.1,3.1-0.6 c3.2-1.5,5.9-3.4,7.9-6.4c2.7-4.1,5-8.4,7-13c2-4.7,3.3-9.5,4.8-14.3c0.2-0.6,0.5-1,1.2-1.1C99.8,81,104,79,108,76.5 c1.5-0.9,2.9-2.1,3.9-3.6c0.3-0.4,0.5-0.4,0.8,0c1.8,2.4,3.1,5.1,5.4,7.1c1.9,1.6,3.7,3.3,5.4,5.1c0.7,0.7,1.4,1.4,2.2,1.9 c2.5,1.5,2.8,3.9,2.3,6.5c-0.4,1.6-0.9,2-2.6,1.8c-3.2-0.4-5.8,0.7-7.7,3.3c-1.6,2.2-2.7,4.6-3.3,7.3c-1.2,5.5,1.4,9.5,6.9,10.6 c2.2,0.4,4.3,0.6,6.5,0.6c5.3,0.1,10.7,0.8,15.9-0.9c2.3-0.7,4.3-2,5.6-4.1c2.4-3.9,4.5-7.9,6.3-12.2c4.3-10.4,5.7-21.3,6.5-32.3 c0.4-6.3,0.1-12.6-0.9-18.9c-1.4-8.5-3.2-16.8-7.6-24.4c-5-8.7-11.8-15.4-21.3-19c-0.8-0.4-1.6-0.7-2.4-1c-3.8-1.3-7.5-3.2-11.6-3.6 c-3.7-0.4-7.4-0.6-11.1-0.7C105.9,0,104.5,0,103.2,0z M102.2,6.2c1.6,0,3.3,0,4.9,0.1c6.8,0.3,13.3,1.9,19.7,4.1 c3,1,5.8,2.1,8.6,3.7c3.5,2,6,5,8.4,8.2c4,5.5,5.9,11.9,7.5,18.3c1.3,5.5,2.7,10.9,3.2,16.5c0.4,4.4,0,8.9-0.3,13.3 c-0.6,7-1.7,14-3.8,20.8c-1.4,4.5-2.9,8.9-4.8,13.2c-1.9,4.4-5.2,6.5-9.9,6.5c-4.2,0-8.4-0.2-12.6-0.6c-2.3-0.2-2.8-0.9-2.5-3.2 c0.1-1,0.3-2,0.6-3c0.6-2.1,2-3.5,4.1-4c2.2-0.5,4.3-0.2,6.3,0.6c0.8,0.3,1.1,0.2,1.5-0.5c2.9-5.4,1.6-13.4-2.9-17.6 c-2.6-2.5-5.2-5-7.6-7.6c-5.9-6.2-9.6-13.6-10.2-22.3c-0.1-1.1-0.2-2.2-0.5-3.4c-2.9,3.2-4.1,6.7-3.6,10.9c0.3,2.3,0.9,4.6,1.6,6.8 c0.2,0.6,0.2,1.1-0.4,1.5c-3.7,3.1-8,4.9-12.7,5.7c-1,0.2-1.4,0-1.5-1.2c-0.3-3.5-0.7-6.9-2.5-10.1c-0.8-1.4-1.8-2.7-3.1-3.7 c-1.7-1.1-3.7-1.1-4.9,0.2c-0.5,0.5-0.7,1-0.4,1.7c4.2,8.6,2.9,17.6,1.4,26.5l-0.9,4.5c-0.9,5.8-4,10.6-7.1,15.2 c-2.6,3.9-6.6,5.3-11.2,5.1c-2.7-0.2-5.4-0.7-8.1-0.9c-2.9-0.2-4-3.5-2.2-5.5c0.7-0.8,1.4-1.5,2.4-1.9c1.9-0.7,3.3-1.9,4.3-3.5 c2-3.2,3.4-6.6,3.8-10.4c0.4-4-0.5-7.5-3.7-10.3c-2.2-1.9-4.3-3.7-6.5-5.6c-2.3-1.9-4.2-4-5.4-6.8c-0.3-0.7-0.3-1.2,0.1-1.8 c2.2-3.6,3-7.3,0.8-11.2c-1.3-2.2-3.2-3.6-5.6-4.2c-0.9,0.1-1.6,0.3-2.2,0.6c2.1,3.4,1,6.8,0,10c-0.5,1.8-2.2,2.9-4,3.7 c-0.7,0.3-1.4,0-2.1-0.2c-1.6-0.5-3.1-1.3-4.9-1.5c-3.1-0.3-5.8,0.6-8.3,2.2c-2,1.2-3.7,2.7-5.4,4.3c-2.4,2.4-5.1,2.6-8.1,1.4 c-2.2-0.9-4.3-2-6.3-3.2c-0.9-0.5-1.4-1.3-1.3-2.3c0.6-6.2,2.5-11.8,8-15.6c0.8-0.5,1.5-1.1,2.3-1.7c0.7-0.5,0.7-1.1-0.1-1.5 c-0.6-0.4-1.3-0.6-1.9-1c-1.4-0.9-1.6-1.4-1.1-3c0.9-3.1,2.8-5.5,5.2-7.5c1.7-1.4,3.4-2.7,5.3-3.8c3.3-2,6.3-4.4,9.6-6.3 c1.4-0.8,2.6-1.8,3.7-2.9c2.2-2.1,4.6-4,6.9-6c1-0.9,2.2-1.5,3.5-1.9c5.9-1.8,11.8-2.4,17.6,0.3c3.2,1.5,6.7,2.4,9.6,4.4 c0.1,0.1,0.2,0,0.6,0.1c-1-3.2-3.2-5.3-5.8-7.2c0.3-0.3,0.7-0.4,1.1-0.5C79.4,7.9,90.7,6.3,102.2,6.2z M23,23.6 c0.4,0,0.9,0.1,1.3,0.3c-1.3,0.7-2.5,1.4-3.8,1.9C20.7,24.5,21.7,23.6,23,23.6z M47.1,70.3c0.1,0,0.1,0,0.2,0.1 c0.5,0.2,0.6,1.3,0.9,2c1,2.1,2.5,3.8,4.2,5.4l3,2.7c0.6,0.5,0.5,0.8-0.1,1.1c-1.5,0.8-2.9,1.8-4.2,2.8c-3.4,2.7-5.4,6.1-6.1,10.4 c-0.3,2,0.2,4,0.7,5.8c0.9,3-1,4-3,4.4c-2.8,0.5-5.1-0.5-7.2-2.2c-0.8-0.6-1.1-1.5-1.2-2.5c-0.2-1.6-0.4-3.2-0.2-4.8 c0.2-4,0.7-7.9,2-11.7c1.2-3.5,3.3-6.6,5.2-9.7c1-1.5,1.8-3.1,4-3.1C45.9,70.9,46.7,70.2,47.1,70.3z" style="fill:#0C3F56" />
		<path d="M46.6,34.9c-0.1,3.9-2.6,7.1-6.3,8.4 c-1.3,0.5-2.6,0.7-3.9,0.2c-1-0.4-1.7-1-1.7-2.1s0.7-1.7,1.7-2c0.5-0.2,1-0.3,1.5-0.4c1.4-0.2,2.2-1.1,2.5-2.5s0.1-2.7-1-3.7 c-0.8-0.9-2.2-0.9-3.5-0.2c-1,0.6-1.8,1.3-2.7,1.9c-0.5,0.3-1,0.6-1.6,0.2c-0.6-0.5-0.4-1-0.2-1.6c0.1-0.3,0.2-0.5,0.3-0.8 c0.6-3.7,3.7-5.9,7.5-5.8c3.5,0.1,6.3,2.6,7.1,6.4C46.5,33.5,46.6,34.2,46.6,34.9z" style="fill:#0C3F56" />
	</svg>
	 <svg x="1024" y="0" width="1024" height="1024" viewBox="0 0 218 212" preserveAspectRatio="xMinYMid meet" >
		<path d="M134.3,0c-0.4,0-0.6,0.3-0.8,0.4 c-7.9,5.1-13.2,12.4-16.7,21c-0.3,0.7-0.6,1.1-1.3,1.4c-2.5,1-3.5,3.2-3.8,5.6c-0.4,2.1,0.8,3.6,2.5,4.7c0.4,0.3,0.5,0.6,0.5,1.1 c0,1.7,0,3.5,0.2,5.2c0.1,0.8,0.6,1.7,0.1,2.4c-1.5,1.9-1.6,4.1-1.5,6.3c0.1,2,0.5,3.9,2.5,5c1.8,1,3.6,1.9,5.6,0.8 c0.6-0.3,0.9,0.1,1.2,0.4c1.9,2.1,4.2,3.7,6.4,5.5c0.5,0.5,0.8,0.8,0.4,1.6c-0.4,0.6-0.6,1.4-0.8,2.2c-1.1,4.4,1.8,8.3,6.2,8.7 c0.7,0.1,0.8,0.4,0.8,1c0.1,2.3-0.4,4.6-0.9,6.9c-0.2,0.8-0.5,1.2-1.4,1.3c-2.6,0.3-4.9,1.2-6.3,3.4c-1.5,2.4-2,5.2-1.6,8.1 c0.1,0.6,0,0.9-0.4,1.3c-1.6,1.9-3.4,3.6-4.9,5.6c-0.2,0.3-0.5,0.7-1,0.7c-3.3,0.2-5.2,2.4-6.7,4.9c-1.9,3-1.4,6.1,0.8,8.9 c0.5,0.7,0.6,1.3,0.5,2.1c-0.4,2.2-0.4,4.5,0,6.7c0.2,0.9-0.2,1-0.9,1c-1.4-0.1-2.7,0.1-4.1,0.4c-4.2,0.9-7.8,2.9-11.2,5.3 c-2.8,2-5.7,3.9-8.2,6.3c-0.7,0.7-1.6,1.3-2.6,2.2c0.1-0.5,0.1-0.7,0.1-0.8c2-6,2.3-12.2,1.4-18.5c-0.2-1.1,0.1-2,0.7-2.9 c1.8-2.7,2.3-5.7,1.2-8.8c-0.9-2.5-2.7-3.8-5.2-3.7c-0.4,0-0.5-0.2-0.6-0.5c-1.2-3.3-3.2-6.1-5.5-8.7c-0.3-0.3-0.5-0.6-0.3-1.1 c0.8-2.4,0.3-4.7-0.9-6.8c-2.2-3.9-6.1-3.7-8.9-1.2c-0.7,0.7-1.1,0.7-1.9,0.3c-3.7-1.9-7.6-2.7-11.7-2.8c-6.6-0.2-13,1.3-19.4,2.3 c-4.4,0.7-8.6,0.2-12.6-1.7c-4.4-2.1-6.4-5.9-7.6-10.3c-1-3.7-1.1-7.4-0.8-11.1c0-0.5,0-1-0.1-1.5c-0.1-0.4-0.5-0.8-0.9-0.3 c-2.1,2.2-4.3,4.4-5.4,7.4C6.8,72.3,5.9,77,6.3,81.9c0.3,4,1.3,7.8,3.3,11.3c1.5,2.7,3.6,5,6,7c4.9,4,10.4,5.7,16.7,4.7 c3.3-0.6,6.3-1.8,9.5-2.9c2.9-0.9,5.9-1.6,8.8-0.8c5.1,1.3,9.1,4.2,11.9,8.7c2.6,4.1,3.8,8.5,3,13.3c-0.2,1.5-0.7,2.9-0.9,4.4 c-0.1,0.8-0.4,0.8-1,0.6c-1.7-0.5-3.5-0.8-5.3-0.7c-3.3,0.3-6.3,1.5-8.9,3.5c-2,1.6-4.1,3.1-5.2,5.6c-0.9,2-1.4,4.1-1.9,6.2 c0.4-0.3,0.7-0.7,0.9-1.1c2-3.5,4.9-6.3,8.3-8.6c5.8-4,12.7-2.6,17.3,2.6c2,2.3,4,4.7,6.7,6.3c2.9,1.7,6,2.7,9.5,2.2 c2.8-0.5,5-2.1,7.1-4c4.3-3.8,9-7.1,14.3-9.3c5-2,12.7-1.6,16.2,5.1c1.9,3.6,4.2,6.7,8.1,8.2c4.9,1.9,9.8,2.3,14.6-0.3 c2.7-1.5,4.7-3.8,6.6-6.1c1.3-1.5,2.5-3.1,4.1-4.3c3.5-2.7,7.4-3.4,11.6-2.6c3.5,0.7,6.8,1.6,9.1,4.6c1.8,2.4,3.7,4.8,5.5,7.3 c2.9,4.1,6.4,7.3,11.3,8.6c5.2,1.5,10.1,1.3,14.7-2c2.7-2,4.9-4.5,6.7-7.4c4.2-6.6,3.8-15.6-1.5-21.6c-2.5-2.8-5.6-4.4-9.4-3.6 c-6.2,1.3-10.6,5-12.2,11.3c-0.9,3.5-0.1,7,3,9.3c2.7,1.9,5.9,1.9,8.6,0c2.3-1.6,3.6-5.1,2.8-7.8c-0.3-1.1-1.2-1.8-2.2-1.7 c-1.1,0.2-1.6,0.9-1.6,2.2c0,1.2-2,3.7-3.2,3.9c-0.3,0.1-0.7,0-1.1-0.2c-1-0.6-1.5-1.4-1.6-2.6c-0.2-3.9,2.4-7.7,6.4-9.4 c2.3-1,4.4-0.8,6.2,1c0.3,0.3,0.7,0.7,1,1.1c1.9,2.3,2.8,4.9,2.7,7.9c-0.2,3.1-1.3,5.8-3,8.4c-1.9,3-4.4,5.5-8,6.2 c-4.4,1-8.2-0.6-11.4-3.5c-2.6-2.3-4.4-5.4-6.6-8.1c-1.7-2-3.2-4.2-5.2-6c-0.8-0.7-1-1.3-0.6-2.2c0.2-0.5,0.4-1,0.7-1.4l3.3-4.5 c1.9-2.6,4.2-5,5.7-7.9c3.9-7.6,2.5-14.9-2.1-21.7c-2.3-3.4-5.5-5.7-9.2-7.5c-1.5-0.7-3-1.5-4.1-2.8c-3-3.6-1.7-8.8,0.8-11.4 c1.8-2,4.2-3.4,6.5-4.9c5.3-3.6,10.8-6.8,15.1-11.9c5.7-6.8,8.6-14.4,8.4-23.3c-0.1-6.9-3-12.6-7.5-17.7c-2.6-2.9-5.9-4.2-9.5-5 c-1.9-0.5-3.8-0.7-5.7-0.3c1.1,0.6,2.1,1.3,3.3,1.9c3,2.4,5.7,5,6.8,8.9c0.6,2.4,1,4.8,0.7,7.3c-0.5,4.1-1.6,8-4.2,11.3 c-3.5,4.5-8.2,7.5-13.4,9.7c-3.2,1.4-6.5,2.6-9.5,4.4c-3.6,2.2-7,4.4-9.6,7.7c-1,1.2-2,2.5-3,3.8c-0.9-2.5-2.4-4.6-3.9-6.6 c-1.8-2.2-4-4-6.3-5.6c-3.9-2.8-7.6-5.8-10.5-9.8c-3-4.1-4-8.5-3.9-13.4c0.1-3.6,0.7-7.2,1.4-10.8c0.8-4.2,2-8.3,4.6-11.8 c0.8-1,1.2-2.1,1.8-3.2C134.6,0,134.4,0,134.3,0z M128,7.3c0.2,0.4-0.1,0.7-0.3,0.9c-2,4.5-3.3,9.2-3.9,14 c-0.7,5.2-0.9,10.5,1.6,15.4c1.9,3.8,4.3,7.3,7.7,10.1c2.6,2.2,5.5,4,8.1,6.2c3.4,2.9,6.5,6.3,8,10.7c0.2,0.5,0,0.8-0.1,1.2 c-2.5,6.5-2.6,12.9,0.2,19.3c0.3,0.6,0.2,1.2,0,1.9c-1.1,4-2.8,7.8-4.8,11.4c-0.6,1.1-1.5,1.9-2.4,2.8c-3.2,2.8-6.2,5.8-7.9,9.8 c-1,2.2-1.4,4.6-1.8,7c-0.6,4.3-0.5,8.5,0.8,12.7c1,3.2,2.7,6,5,8.6c0.2,0.2,0.6,0.4,0.4,0.7s-0.6,0.2-0.9,0.2 c-3.9-0.4-7.3-1.5-9.3-5.4c-1.7-3.3-3.8-6.4-7.2-8.3c-0.1,0-0.1-0.1-0.2-0.1c-3.4-0.9-3.4-3.8-3.5-6.3c-0.2-4.3,0.9-8.4,2.6-12.3 c1.5-3.4,3.6-6.2,6.1-8.9c1.7-1.9,3.5-3.7,5.1-5.6c4.7-5.6,7.8-11.8,7.8-19.2c0-4.3-1.5-8.1-3.7-11.7c-1.5-2.5-3.6-4.4-5.7-6.3 c-2.6-2.5-5.8-4.3-8.1-7.1c-4-4.9-4.7-10.6-4.3-16.7c0.4-4.9,1.6-9.7,3.7-14.2c1.6-3.6,3.8-6.9,6.4-10c0.1,0,0.1-0.1,0.1-0.1 l-0.1-0.1C127.5,7.7,127.7,7.4,128,7.3L128,7.3z M192.2,13.6c2.9,3.2,4.9,7,5.8,11.2c1.6,7.4,0.1,14.3-3.8,20.6 c-2.1,3.5-5,6.4-8.2,9c-3.1,2.5-6.5,4.5-9.8,6.7c-3,2-6.2,3.9-8.1,7.2c-3.2,5.3-3.4,11.7,1.2,16.7c1.4,1.5,3.2,2.5,5.1,3.5 c5.7,2.9,9.1,7.7,10.3,13.9c0.7,3.9-0.4,7.5-2.9,10.7c-2.1,2.6-4.2,5.3-6.2,7.9c-0.9,1.2-1.7,2.5-2.1,4c-0.2,0.7-0.4,0.9-1.2,0.7 c-2.7-0.7-5.4-1.1-8.2-1c-1.2,0.1-2.5,0.3-3.8,0.5c0.9-2.1,2.4-3.7,3.7-5.3c1.8-2.4,3.8-4.7,5.5-7.2c3.2-5.1,3.5-10.3,0.4-15.6 c-1-1.6-2.5-2.8-4.1-3.9c-2.3-1.6-4.8-2.9-7.3-4.2c-5-2.7-6.9-7-7.4-12.3c-0.7-7.4,2.4-13.3,7.4-18.2c3.9-3.9,8.7-6.7,14-8.7 c5.6-2.1,10.7-5.1,15-9.4c3.9-4,5.7-8.9,6.6-14.2c0.7-4.2-0.2-8.2-1.9-12C191.8,13.7,192,13.6,192.2,13.6z M115.2,26 c0,0,0.1,0,0.1,0c0.1,0.2,0,0.5-0.2,0.8c-0.1,1.1-0.3,2.2-0.4,3.5c-1.1-1.3-1-2.3,0.2-3.9c0.1,0,0.1,0,0.1,0c0,0-0.1-0.1-0.1-0.1 C115,26.2,115.1,26,115.2,26L115.2,26z M115.9,45.1c1.1,2.4,2.4,4.6,4,6.8c-1.5,0.2-2.5-0.4-3.1-1.3C115.7,49,114.7,47.3,115.9,45.1 z M130.6,61.6c1.8,2.4,3.2,4.6,4.3,7.2C132.5,68.2,130.4,64.7,130.6,61.6z M11.3,68.2c0.1,3.4,0.5,6.7,1.8,9.9 c2.6,6.5,7.6,10.1,14.3,11.5c4.7,1,9.4,0.6,14.1-0.1c4.9-0.8,9.9-1.4,14.9-1c3.7,0.3,7.1,1.6,10.1,3.9c1.6,1.3,3.3,2.4,4.9,3.6 c3.7,2.9,6.3,6.6,7.5,11.2c0.9,3.3,2,6.6,2.6,10c1.2,6.8,1.2,13.5-0.6,20.1c-0.1,0.4-0.2,0.8-0.2,1.2c-0.1,1.4-0.1,1.4-1.4,1 c-2.5-0.8-4.5-2.4-6.3-4.2c-1.4-1.5-2.7-3.1-4.4-4.3c-0.3-0.2-0.6-0.4-0.3-0.9c2.2-4.5,2.9-9.2,1.8-14c-2.3-10.3-8.3-17.2-18.7-19.9 c-4.1-1.1-8,0-11.9,1.1c-2.9,0.9-5.7,2.1-8.6,2.6c-4.9,0.8-9.4-0.3-13.2-3.5C12,91.6,9.2,85.4,9.4,78C9.6,74.7,9.9,71.3,11.3,68.2z M132.9,84.1c0.1,0,0.1,0,0.2,0.1c0.2,0.2,0,0.4-0.1,0.6c-1.4,2.2-2.8,4.3-4.7,6c-0.3-2.8,1.5-5.7,4.1-6.5 C132.6,84.2,132.7,84.1,132.9,84.1L132.9,84.1z M71.1,86.5c2.5-0.1,4.6,2.1,4.4,4.9c-2-1.4-3.9-2.7-5.7-4c-0.5-0.3-0.3-0.6,0.2-0.7 C70.4,86.6,70.7,86.6,71.1,86.5z M152.5,90.1c0.1,0,0.3,0.1,0.6,0.3c3,2.5,6.4,4.4,9.9,6.3c5.3,2.8,6.4,9.4,2.6,14.3 c-2.4,3.2-5,6.2-7.5,9.4c-1.5,2-2.6,4.1-3.1,6.6c-0.1,0.5-0.2,0.9-0.7,1.2c-3.1,2.2-5.5,5-7.9,7.8c-0.8,0.9-1.6,1.8-2.6,2.5 c-0.4,0.3-0.6,0.3-1.1-0.1c-4.4-4.7-6.3-10.2-6.2-18.1c0-1.7,0.3-5,1.6-8c1.1-2.6,3-4.6,4.9-6.5c3.4-3.4,6-7.3,8.1-11.5 c0.6-1.1,0.8-2.3,1.1-3.5C152.3,90.3,152.3,90.1,152.5,90.1L152.5,90.1z M117.6,103.7c-1.1,2.5-2.1,5-2.9,7.6 C113.8,109.6,115.5,104.9,117.6,103.7z M85.2,105.2c0.2,0,0.4,0,0.5,0.1c0.3,0.2,0.5,0.5,0.7,0.8c0.9,2.1,1.6,4.2,0.9,6.9 c-0.8-2.6-1.5-5-2.2-7.3C85,105.5,85,105.3,85.2,105.2z" style="fill:#7FCDDD" />
		<path d="M16.3,135.2c-1.3-0.4-1.9-0.2-2.5,1.1 c-1.5,3.6-0.6,5.7,2.8,6.3c2.5,0.4,5-1.6,5.7-4.4c0.9-3.3-0.6-6.7-3.6-8.6c-2.1-1.3-4.4-1.8-6.5-0.9c-2.4,1.1-4.3,3-5.6,5.5 c-4.1,7.9-3,15.4,1.9,22.6c3.4,4.9,8.4,6.7,14,7.5c6.2,0.9,11-2.2,15.6-5.6c2.9-2.2,5.3-5.1,8.4-7.2c3.3-2.2,6.7-4,10.7-4.1 c4.2-0.1,7.9,1.3,10.7,4.7c1.8,2.2,3.5,4.5,5.3,6.7c3.3,4,8.9,6.5,14.9,2.7c2.3-1.5,4.2-3.3,6-5.4c2.7-3.3,6-5.9,10.3-6.7 c4.1-0.8,7.8-0.3,10.8,3.1c1.4,1.6,3.1,2.9,4.6,4.4c0.5,0.5,1.3,1.2,0.8,1.8s-1.3-0.1-1.8-0.5c-1.3-0.9-2.6-1.9-3.9-2.7 c-5.9-4-12.1-2.6-16.3,2.4c-2.2,2.6-4.2,5.3-7.2,7c-3,1.8-5.9,3.5-9.6,3.4c-4.1-0.1-7.5-1.9-10.5-4.6c-2.6-2.3-4.8-5.1-6.9-7.8 c-2.9-3.8-7.3-4.9-11.7-2.9c-3.2,1.5-6,3.5-8.4,6c-2.8,2.8-6,5-9.4,7c-3.8,2.4-7.8,3.2-12.2,3c-3.1-0.2-6.2-0.8-8.9-2.2 c-8-4.1-12.5-10.7-13.6-19.6c-0.9-7,1.1-13.1,5.6-18.3c3.5-4,7.8-5.3,13.3-3.4c6.8,2.4,9.6,11.2,4.5,17.5c-2.6,3.2-8.6,4.9-12.7,0.4 c-1.3-1.5-1.6-3.5-0.6-5.3c0.8-1.4,1.7-2.7,3.1-3.5C14.7,134,15.8,134.2,16.3,135.2z" style="fill:#80CDDD" />
		<path d="M104.1,176.9c-2.3,0-4.7,1-6.6,2.9 c-3.5,3.7-4.6,8.4-5,12c-0.2,5.6,1.3,9.1,5.2,11.5c2.2,1.4,4.5,1.3,6.7,0.4c3.7-1.5,6.2-4.4,7.7-8.2c1.8-4.6,2.3-9.2-0.2-13.7 C110.1,178.5,107.1,176.9,104.1,176.9z M103.9,181.4c1.9-0.1,3.8,1.1,4.8,3.2c0.6,1.2,1,2.5,1,4c-0.3,3.4-1.1,6.7-4.1,8.8 c-1.6,1.2-3.5,1.5-5.4,0.7c-1.8-0.8-2.9-2.3-3-4.3c-0.2-3.6,0.2-7.1,2.5-10.1C100.9,182.2,102.4,181.4,103.9,181.4z" style="fill:#80CDDD" />
		<path d="M158.9,164.3c-3.3-0.1-6.2,0.7-8.8,3.1 c-3.2,3-3.6,9.1-2.4,12c2.1,5.2,5.9,7.8,11.2,8.3c0.8-0.1,1.5-0.1,2-0.2c4.1-1,7.3-4.4,7.3-9.8c0-4.8-2.1-8.7-5.7-11.8 C161.5,165,160.3,164.3,158.9,164.3z M156.2,169.3c1.1-0.1,2.2,0.4,3.3,1c2.4,1.3,3.3,3.5,3.8,6c0.2,0.5,0.4,1.1,0.4,1.8 c-0.1,0.7-0.2,1.4-0.4,2.1c-0.7,2.9-3.1,4.1-5.9,2.8c-2.8-1.4-5.1-3.3-5.6-6.7c-0.3-2.1,1.4-5.9,3.3-6.7 C155.5,169.4,155.9,169.3,156.2,169.3z" style="fill:#80CDDD" />
		<path d="M88.5,192.9c0.6,1.6,0.4,2.9,0.6,4.2 c0.6,3.6,2.4,6.3,5.2,8.5c3.3,2.6,9.6,2.7,13.1,0.3c1.2-0.8,2.3-1.7,3.1-2.9c0.2-0.4,0.5-0.7,0.9-1c0.7-0.5,1.4-0.2,1.6,0.6 c0.1,0.7,0,1.4-0.4,2.1c-2.5,4.7-9,7.7-13.8,6.3c-2.4-0.7-4.9-1.2-6.9-2.9c-3.7-3.2-5.3-7.1-4.1-11.9 C88,195.2,88.2,194.2,88.5,192.9L88.5,192.9z" style="fill:#80CDDD" />
		<path d="M170.4,172c1.1,0.3,1.7,1,2.3,1.9 c2.8,4.3,1.9,8.4-0.3,12.8c-2.8,5.6-11.6,8-16.4,6.4c-1.2-0.4-2.3-1-3.3-1.6c-0.4-0.3-0.8-0.6-0.6-1.2c0.2-0.6,0.7-0.7,1.3-0.6 c1.3,0.3,2.7,0.6,4.1,0.8c3.3,0.3,6.2-0.7,8.7-2.7c3.3-2.6,4.6-6.2,4.8-10.2C171,175.8,170.6,174,170.4,172L170.4,172z" style="fill:#80CDDD" />
		<path d="M98.4,173.3c5.6-4.5,9.4-4.3,14.5-0.8 c1.8,1.2,2.6,3.2,2.6,5.4c0,0.8,0,1.5,0,2.3c0,0.3,0.1,0.8-0.3,0.9c-0.5,0.2-0.6-0.3-0.8-0.6c-0.4-0.5-0.8-1.1-1.1-1.7 c-2-4.1-9.5-7.3-14.2-5.6C99.1,173.3,98.9,173.3,98.4,173.3L98.4,173.3z" style="fill:#80CDDD" />
		<path d="M158,160.7c-1.5,0.4-2.9,0.3-4.4,0.7 c-3.8,0.9-6.2,3.3-7.8,6.7c-0.7,1.5-1.2,3-1.7,4.5c-0.2,0.4-0.3,0.9-0.8,0.9c-0.7,0-0.3-0.7-0.4-1c-0.9-4,0-7.6,3.1-10.4 c2.6-2.4,5.7-3.7,9.3-3C156.4,159.2,157.4,159.6,158,160.7L158,160.7z" style="fill:#80CDDD" />
		<path d="M103.1,193.3c-1.7,0.1-3.1-0.7-4.3-1.8 c-1.3-1.2,0-2.4,0.2-3.6c0.1-0.8,0.6-1.7,1.6-1.6c0.9,0,1.7,0.3,2.5,0.5c0.3,0.1,0.6,0.2,0.9,0.3c2.2,0.6,2.5,1,2.1,3.3 c0,0.3-0.1,0.5-0.2,0.8C105.5,192.8,104.9,193.3,103.1,193.3z" style="fill:#80CDDD" />
		<path d="M160.9,176.1c-0.3,1.6-1.2,3-2.6,4.3 c-0.2,0.1-0.4,0.2-0.7,0.2c-1.3,0-3.3-2.7-3-4s1-2.4,1.8-3.4c0.8-0.9,1.7-1,2.6-0.2C160,173.7,160.9,174.5,160.9,176.1L160.9,176.1z " style="fill:#80CDDD" />
	</svg>
	 <svg x="2048" y="0" width="1024" height="1024" viewBox="0 0 210 101" preserveAspectRatio="xMinYMid meet" >
		<path d="M188.7,72.2c-0.6-1.5-1.4-3-2.3-4.4 c-1.3-2-2.8-3.7-4.9-4.9c-1.1-0.6-2-1.4-3-2.1c-2.2-1.7-4.5-3-7.2-3.8c-1.3-0.4-2.6-0.9-3.8-1.7c-4-2.5-6.7-5.9-6.9-10.9 c-0.1-2.2,0-4.4-0.4-6.6c-0.3-2.1-1-4.1-3.1-5.2c-0.5-0.3-0.9-0.7-1.4-1.1c-2.6-2-5.6-3.7-6.3-7.5c-2.3,2.4-3.9,4.9-5.5,7.4 c-1.4,2.2-2.8,4.5-4.3,6.7c-2.5,3.7-5.5,6.7-9.7,8.4c-2,0.8-3.8,2-5.7,3.2c-0.7,0.4-0.8,0.8-0.1,1.3c2.1,1.4,3.2,3.6,4.1,5.9 c0.7,2,1.6,3.9,2.2,5.9c0.6,2,1.9,3.1,4.1,3.1c0.9,0,1.8,0.1,2.7,0.2c4.4,0.4,7.3,2.5,7.9,8.3c0.4,3.6,0.4,7.3,0.5,11 c0,2.7,0.5,5.1,1.9,7.5s1,3.9-1.1,5.8c-0.5,0.5-0.8,1.1-1.1,1.6s-0.7,1-1.3,0.8c-0.7-0.2-0.6-0.8-0.6-1.4c0-0.5,0-1,0.2-1.4 c0.9-1.9,0.5-3.5-0.5-5.2c-2.6-4.8-3-9.9-2.1-15.2c0.4-2.4,0.2-4.6-1.6-6.4c-0.9-0.9-1.9-1.5-3.2-1.5c-0.9,0-1.9-0.1-2.8-0.2 c-3.8-0.3-6.3-2.4-7.4-6.1c-0.3-0.2-0.1-0.7-0.5-0.9c-0.5-1.5-0.5-3.1-1.3-4.5c-2.1-3.9-5.2-6-9.6-6.4c-2.3-0.2-4.6,0.3-7,0 c-3.8-0.5-7.5-3.5-8.3-6.8c-0.2-0.7-0.2-1.3-0.1-2c0.4-5.1,0.1-10.2,0.1-15.4c0-4.4-2.3-7.7-5.9-10.3c-1.8-1.2-3.5-2.4-5.5-3.3 c-3.1-1.5-4.9-4.2-6.4-7c-0.5-0.8-0.7-0.8-1.3-0.2c-2.1,2.3-4.5,4.3-6.5,6.8c-2.2,2.6-5,3.7-8.4,2.7c-2.9-0.8-8.1,1.6-9,4.8 c-0.8,2.7-2.7,4.5-5.1,5.9c-0.6,0.3-1.1,0.6-1.7,0.9c-1.5,0.8-2.4,2-2.7,3.7c-0.3,1.7-0.8,3.4-1.4,5c-1.6,4.2-4.8,6.5-9.3,6.1 c-5.4-0.4-9.2,2-12.1,6.2c-1.4,2-2.6,4.2-3.8,6.3c-0.6,1.1-1.3,2.1-2.1,3c-2.3,2.8-5,4.9-8.9,4.9c-4.9,0.1-7.3,3.4-8.9,7.5 c-0.3-0.4-0.4-1.1-0.2-2.4c0.1-1,0.3-2,0.6-3C1.6,61.9,4,60.1,7.5,60c0.5,0,1,0,1.4,0c2.8,0.2,4.7-1.2,5.9-3.6c1-2,1.9-4.1,2.8-6.1 c0.8-1.8,1.7-3.6,2.9-5.2c3.7-5.3,8.8-7.5,15.1-7.1c2.9,0.2,4.7-0.8,5.8-3.5c0.1-0.3,0.2-0.5,0.3-0.8c1.2-4.7,3.9-8.4,7.2-11.8 c1.6-1.6,3-3.5,4.2-5.5c0.6-1,1.3-2,2.1-2.9c2.1-2.4,4.8-3.6,8-3c0.5,0.1,1.1,0.1,1.6,0.2c1.8,0.3,3.2-0.2,4.6-1.3 c3.3-2.7,6.7-5.3,10-8c0.4-0.3,0.9-0.7,1.4-1c1.5-0.8,3.3-0.3,3.6,1.4c0.7,3.8,3.3,5.9,6.2,7.8c2,1.3,4.1,2.5,6.1,3.8 c4.2,2.6,6.5,6.4,7.6,11.1c1.2,5.1,0.9,10.3,0.5,15.5c-0.1,0.8,0,1.6,0,2.4c-0.1,1.9,1,3.1,2.6,3.8c1.4,0.7,2.9,0.9,4.3,1.1 c2.1,0.2,4.3,0.3,6.4,0.8c0.7,0.1,0.8-0.2,1.1-0.6c1.5-2.4,3.2-4.6,5.5-6.3c1.8-1.3,3.8-2.5,5.8-3.3c4.2-1.7,7.5-4.2,9.6-8.3 c1.7-3.3,4.7-5.7,7.4-8.3c0.8-0.8,1.7-1.6,2.6-2.4c0.9-0.8,1.8-0.7,2.6,0.3c0.6,0.8,1.2,1.7,1.7,2.6c2.1,3.4,4.9,6.3,7.5,9.3 c1.5,1.8,2.7,3.9,3.8,6c1.1,2.2,1.2,4.5,1.4,6.8c0,0.6,0.1,1.2,0.2,1.8c0.5,3.5,2.3,5.7,5.8,6.5c4.2,1,8,3,11.2,5.9 c1.1,1,2.2,2,3.2,3.2c1,1.3,2.1,2.4,3.2,3.6c2.5,2.9,3.7,6.3,4.3,10c0.2,1,0.6,1.2,1.5,1.5c6,1.7,10.3,5.3,12.9,11 c0.4,0.8,0.6,1.5,0.6,2.4c0,1.1-0.2,2.1-1.3,2.6s-2,0-2.8-0.8c-1-1.1-2-2.2-2.9-3.5c-1.7-2.6-4.3-4.1-7.1-5 c-2.8-0.8-4.7-2.4-5.6-5.1c-0.1-0.3-0.1-0.5-0.1-0.8c-0.2-0.3-0.2-0.6-0.2-0.9C189.6,74.7,189.2,73.5,188.7,72.2L188.7,72.2z" style="fill:#0C3F56" />
		<path d="M29.8,67.2c1.3-3.5,3.8-5.9,7.2-7.3 c1.5-0.7,3.1-1.1,4.8-1.4c3-0.5,5-2,5.7-5.2c0.8-3.4,2.4-6.5,4.6-9.3c2.1-2.6,4.1-5.2,6.5-7.5c0.7-0.7,1.4-1.4,2.2-2 c1.7-1.3,3.5-1.1,5,0.5c1.1,1.3,2,2.7,2.8,4.2c1.2,2.3,2.8,4.2,5,5.6c1.4,0.9,2.7,1.9,3.8,3.2c0.3,0.4,0.6,0.5,1.1,0.2 c1-0.6,1.9-1.3,2.6-2.3c1.7-2.4,4.2-3.6,7.2-3.8c1.1-0.1,1.7,0.4,2.1,1.4c0.8,2,1.7,3.9,2.5,5.9c0.5,1.1,1.3,2,1.9,3 c2,3,2.6,6.4,3,9.9c0.3,2.4,0.5,4.9,1,7.3c0.5,2.2,1.6,3.7,3.6,4.7c2,0.9,4,1.9,6,2.8c0.7,0.3,1.4,0.6,2.1,0.9 c4.5,1.7,6.7,5.3,8,9.7c0.1,0.2,0.2,0.4,0.2,0.6c-0.1,0.6-0.4,0.1-0.5,0c-2.3-3.8-5.8-5.8-9.9-7.2c-2.9-1-5.9-2-8.3-4.1 c-3.3-2.7-5.3-6-5.1-10.4c0.1-2.2-0.4-4.4-0.8-6.6c-0.2-0.2-0.2-0.5-0.2-0.8c0-0.4,0.1-0.8-0.2-1.1c-0.4-1.6-1.2-3-2.1-4.4 c-1.5-2.5-2.9-5-3.6-7.8c-0.2-0.6-0.4-0.7-1-0.5c-1.1,0.5-2.1,1.1-2.9,2c-1.1,1.4-2.2,2.8-4,3.3c-0.5,0.1-0.3,0.5-0.1,0.7 c1.2,2,1,4.1,0.2,6.2c-0.5,1.3-1,2.7-1.4,4c-0.9,2.7-0.9,5.5-0.2,8.3c1.2,4.5,2,9.1,3.7,13.5c0.4,1,0.3,1.1,0.2,2.4 c-0.9-0.6-1.6-1.2-2-2.1c-0.7-1.4-1.3-2.8-1.9-4.2c-1-2.5-2-4.9-2.9-7.4c-1.6-4.3-1.5-8.7,0-13c0.3-0.8,0.5-1.6,0.9-2.3 c0.9-1.9,0.5-3.5-0.7-5.1c-1.1-1.4-2.3-2.8-3.8-3.7c-2.9-1.8-5-4.3-6.5-7.4c-0.5-1-1.1-2-1.7-3c-0.3-0.6-0.7-0.6-1.2-0.1 c-5.3,4.8-9.9,10.2-11.9,17.3c-1.1,4-3.9,5.9-7.7,6c-1.7,0.3-3.3,0.6-4.9,1.2c-3.1,1.2-5.1,3.4-6.2,6.6c-0.3,0.9-0.5,1.7-0.8,2.6 c-1,3.2-3.2,5.4-6.2,6.9c-1.2,0.6-2.4,0.6-3.7,0.5c0.1-0.1,0.1-0.2,0.1-0.2c3.9-0.5,5.5-3.4,7-6.5c0.7-1.4,0.7-3,1.2-4.4 C29.6,67.8,29.6,67.4,29.8,67.2L29.8,67.2z" style="fill:#0C3F56" />
	</svg>
	 <svg x="3072" y="0" width="1024" height="1024" viewBox="0 0 212 132" preserveAspectRatio="xMinYMid meet" >
		<path d="M40.3,0c-1.5,0-2.9,0.2-4.4,0.5 c-3.4,0.6-6.5,1.9-8.8,4.4c-5.3,6-8,13.1-8.5,21.1c-0.3,4.5,0.4,8.8,1.4,13.1c0.5,2.3,2.2,2.8,4,1.2c2.3-2.1,5-3.4,8-4.2 c3.3-0.8,6.5-1.9,9.2-4.2c0.1-0.1,0.2-0.2,0.4,0c-0.4,1-0.8,2.1-1.2,3.1c-1.7,4.9-4.6,9.2-6.6,13.9c-3.1,7-4.9,14.3-6.1,21.8 c-0.5,3.2-0.8,6.4-0.9,9.6c-0.1,2.9-0.4,5.8,0.1,8.6c1.2,7,2.8,13.9,6.3,20.2c-0.1,0.8-0.6,0.3-0.7,0.3c-1.9-0.7-3.7-1.3-5.6-2 c-4.9-1.8-9.9-3.2-15.2-2.3c-3.3,0.5-6.5,1.4-8.9,4.1c-1.3,1.4-2.3,3-2.8,4.9c1.8-2.3,4.4-3.4,7-4.3c3.7-1.3,7.3-1.7,11.1-0.7 c4.9,1.4,9.7,3.1,14.3,5.2c6.7,3,13.3,3.2,20,0.4c2.3-0.9,4.4-2.1,6.5-3.3c3.5-2,7.3-3.5,11-5.1c5.3-2.3,10.3-2,15,1.3 c2.8,2,3.7,6.2,1.9,8.7c-1.7,2.3-4.1,3.7-7.1,3.7c-2.2-0.1-3.7-1-4.2-2.8c-0.5-1.9,0.3-3.6,2.2-4.7c1.2-0.7,2.7-1,3.4,0.7 c0.1,0.2,0.2,0.5,0.5,0.3c0.3-0.1,0.3-0.4,0.3-0.6c0.1-1.5-1.1-2.8-2.6-2.9c-1.3-0.1-2.4,0.2-3.5,0.9c-1.9,1.2-2.6,2.9-3,5.1 c-0.7,4.5,2.2,7.8,6.9,7.8c4.8,0,8.6-2.2,11.2-6.3c0.4-0.7,0.9-1.1,1.7-1.3c2.3-0.6,4.3-1.7,6-3.4c2.1-2.2,4-4.5,5.7-7 c2.1-3,4.9-4.9,8.4-5.9c1.7-0.5,3.5-0.9,5.3-0.5c3.8,0.9,6.7,3,8.8,6.3c1.5,2.4,3.6,4.5,5.8,6.5c1.4,1.3,2.6,2.8,3.9,4.2 c-2,0.1-4,0-6-0.4c-4.3-0.9-8.2-2.8-11.9-5c-0.2-0.1-0.5-0.5-0.8-0.2c-0.3,0.2-0.1,0.6,0,0.9c0.9,1.8,2,3.5,3.4,5 c3.7,3.8,8.6,4.8,13.6,5.1c6.9,0.4,13.3-1.3,19.5-4.2c3.7-1.7,6.9-4.1,10.3-6.2c7.4-4.6,15.2-6.2,23.7-4c3.9,1,7.6,2.4,10,5.9 c2.1,3,3,8.2-1.5,10.9c-0.7,0.5-1.4,1-2.2,1.4c-2.8,1.5-5.6,2.4-8.7,0.6c-2.8-1.7-3.8-5-2-7.8c0.6-0.9,1.4-1.4,2.5-1.3 c0.9,0,1.6,0.4,2.2,1c0.2,0.2,0.4,0.5,0.8,0.3c0.3-0.3,0.2-0.7,0.1-1c-0.1-0.2-0.2-0.5-0.4-0.7c-2.4-3.1-7.6-2.7-9.4,0.8 c-1.8,3.8-1.3,7.4,1.3,10.5c2.6,3,6,4.5,10.1,3.8c3.7-0.6,6.7-2.6,9.6-4.8c3.7-3,5.1-6.7,4.2-11.4c-0.1-0.6,0-0.9,0.5-1.3 c1.9-1.6,3.4-3.6,4.5-5.9c1.5-3.2,2.3-6.3,1.7-9.8c-1.3-6.9-3.9-13.2-8.7-18.5c-1.7-1.9-3.6-3.7-5.1-5.7c-2.6-3.5-3.2-7.6-2.4-11.9 c1.1-6.1,4.4-10.6,10.2-13.1c0.8-0.3,1.6-0.7,2.4-1.4c-1.8-0.1-3.4-0.1-4.9,0.3c-7,1.5-12.5,5-16,11.5c-1.8,3.3-2.8,6.8-2.6,10.5 c0.1,3.3,1.2,6.4,2.5,9.4c1.1,2.8,3,5.2,4.3,7.9c2.2,4.6,1.5,10-1.9,13.8c-0.4,0.4-0.8,0.8-1.5,0.6c-4.8-1.1-9.6-0.6-14.4,0.4 c-4.3,0.9-8.1,2.7-11.7,5c-0.5,0.3-0.9,0.4-1.4,0c-2.1-1.8-4.4-3.3-6.1-5.4c-3.6-4.3-7.4-8.4-10.7-12.9c-3.4-4.6-7-8.7-12.1-11.5 c-5-2.8-10.3-4.3-16-4.4c-4.7,0-9.2,1.6-13.4,3.7c-6.9,3.5-12.2,8.8-17.1,14.6c-1.9,2.2-3.5,4.6-5.2,6.9c-0.6,0.9-1.4,1.3-2.6,1.3 c-2.9-0.1-5.9,0.2-8.7,1.4c-1.1,0.5-1.8,0.3-2.7-0.4c-3.7-2.8-5.9-6.7-7.8-10.9c-0.9-1.9-1.5-4.1-2.5-6c-2.7-5.4-3.8-11.2-4.3-17.2 s0.2-11.9,2.2-17.6c1.3-3.7,3.1-7,4.4-10.6c2.4-6.7,4.3-13.5,3.3-20.7c-0.8-5.9-3.4-10.8-8.4-14.1C48.8,1.1,44.7-0.1,40.3,0z M39.6,4.2c2.2-0.1,4.5,0.2,6.7,0.9c6,1.9,9.1,6.3,10.3,12.3c1.1,5.9,0.1,11.5-1.9,17.1c-0.9,2.7-2.1,5.3-3.4,7.9 c-1.7,3.4-2.6,7-3.1,10.8c-0.6,3.8-1.1,7.7-1.4,11.6c-0.5,7.5,1,14.6,3.4,21.6c1.3,3.8,2.7,7.5,4.8,10.9c1.5,2.4,3.2,4.7,5.3,6.5 c0.4,0.3,0.9,0.6,0.1,1c-3.7,1.8-7.1,4.3-10.9,5.8c-3.5,1.4-7.2,1.9-11,1.3c-0.7-0.1-1-0.6-1.3-1.1c-2.2-4.3-3.5-9-4.8-13.7 c-1.1-4.3-1.3-8.8-1.5-13.3c-0.1-7.4,1-14.7,2.6-21.9c1.5-6.9,4.1-13.4,7.2-19.7c2.1-4.4,3.5-9.1,4.5-13.9c0.3-1.3,0.9-2.5,1.2-3.9 c0.9-3.7-0.6-7.7-3.6-10c-2.5-1.8-6-1.4-8.1,1c-1.2,1.4-2.2,2.9-2.1,4.8c0,2,1,3.4,2.9,4c1.1,0.3,2.3,0.7,3.5,0.3 c0.5-0.2,1-0.5,1.3-1c0.2-0.3,0.3-0.7,0-1c-0.2-0.3-0.6-0.2-0.9-0.1c-1.3,0.3-2.4-0.2-2.9-1.2s0.2-2.7,1.3-3.5 c1-0.7,1.8-0.7,2.9,0.2c3.3,2.8,2.9,8.2-0.8,11.1c-2.5,2-5.4,3.4-8.5,4.1c-2.9,0.7-5.7,1.8-8.1,3.7c-0.5,0.4-0.7,0.5-0.9-0.3 c-0.9-4.5-0.6-9,0.1-13.5c0.8-4.6,2.6-8.8,5-12.8c1.9-3.1,4.7-4.7,8.1-5.5C36.9,4.4,38.3,4.2,39.6,4.2z M194.4,54.7 c0.4,0.2,0.4,0.3,0.2,0.6c-2.7,4.6-4,9.5-3.1,14.8c0.4,2.5,1.4,4.7,2.8,6.8c1.8,2.7,4.1,5,6.2,7.3c3,3.3,4.6,7.2,5.3,11.5 c0.3,1.8,0.8,3.5,0.8,5.3c-0.1,3.5-1.9,6.2-3.8,8.8c-0.6,0.8-0.9-0.1-1.1-0.4c-1.5-1.9-3.4-3.3-5.4-4.4c-0.6-0.3-1.1-0.6-1.7-0.8 c-0.8-0.3-0.9-0.6-0.5-1.4c1.4-3.1,2.2-6.3,2.3-9.8c0.1-4-1.2-7.5-3.1-10.9c-2.3-4-3.8-8.3-4-13C189.1,63.7,190.6,58.7,194.4,54.7z M115.1,78.9c0.8,0,1.6,0.1,2.4,0.1c5.6,0.7,10.1,3.6,14.3,7c5.3,4.2,9.9,9.2,14,14.7c1.1,1.5,2.3,3,3.2,4.6 c1.4,2.4,3.7,3.8,5.8,5.4c0.2,0.2,0.7,0.3,0.6,0.6c0,0.5-0.5,0.4-0.9,0.5c-2.1,0.5-3.9,1.7-5.8,2.4s-3.7,1.1-5.5-0.1 c-2.9-1.9-5.7-3.8-8.2-6.1c-2.4-2.3-4.5-5-6.8-7.4c-2.6-2.8-5.6-5.3-9.6-6.1c-0.2,0-0.4-0.1-0.6-0.1c-0.5-0.1-1-0.1-1.5-0.1 c-3.9,0.1-7.3,1.5-10.3,4c-3.5,3-6.2,6.6-9.1,10.2c-0.9,1.1-1.9,2-3.1,2.7c-0.7,0.4-1,0.6-1.1-0.5c-0.2-3.6-1.9-6.3-5.2-7.9 c-0.6-0.3-1.2-0.7-1.9-1c-0.5-0.2-0.4-0.4-0.1-0.8c2.8-3.1,4.9-6.8,7.6-10.1c4-4.9,8.5-9.2,14.9-11.1 C110.4,79.1,112.8,78.9,115.1,78.9L115.1,78.9z" style="fill:#7FCDDD" />
	</svg>
	 <svg x="0" y="1024" width="1024" height="1024" viewBox="0 0 152 163" preserveAspectRatio="xMinYMid meet" >
		<path d="M32.2,0c-6.4,0.1-12.7,1.2-19,3.5 C13,3.8,13.3,3.9,13.4,4c10.7,1.4,20,6,27.8,13.6c3.8,3.4,7.2,7.1,9.6,11.6c0.8,1.6,1.6,3.2,1.7,5c0.1,1.6-0.1,1.9-1.8,2 c-5.6,0.4-10.8,2-15.8,4.5c-6,3-11.1,7.4-15.6,12.4C11.3,61.9,5.2,71.7,2,83.2c-0.9,3.2-1.5,6.5-2,10.1c0.4-0.4,0.6-0.6,0.7-0.8 C3,89.1,5.8,86,8.6,83c5.4-5.9,11.2-11.1,18.5-14.5c3.4-1.6,6.8-3.1,10.6-3.1c0,0.5-0.4,0.8-0.6,1.1c-5.3,7.6-9.2,15.9-11.7,24.8 c-2.3,7.9-3.3,16-3.7,24.2c-0.2,4.2,0.2,8.4,1.1,12.5c0.3,0.1,0.4-0.2,0.5-0.3c1.5-5.1,3-10.2,5.8-14.7c1.3-2.1,2.6-4.1,4-6.1 c5.4-7.4,11.7-13.8,19.9-18.2c4.9-2.7,9.7-5.4,14.2-8.7c0.1,0,0.2-0.1,0.4-0.1c0,4.8-0.6,8-2.2,12c-1.1,2.6-2.1,5.3-3.2,7.9 c-4,9.5-8.7,18.7-15.6,26.6c-2.6,2.9-4.7,6.1-6.8,9.3c-3.3,5.2-6.8,10.3-9.3,15.9c-1.3,2.9-2.1,6-2.1,9.2c0,0.8,0.3,1,1,0.6 c0.9-0.5,2-0.7,3-0.5c0.6,0.1,1,0,1.1-0.6c0.9-3.7,3.6-6,6.1-8.6c0.7-0.7,1.7-1.3,2.6-1.8c1.7-1,3.2-0.8,4.8,0.2 c2.5,1.6,4.2,3.7,5.6,6.2c0.2,0.1,0.2,0.4,0.8,0.1c0.5-2.5,0.4-5-0.2-7.4c-0.6-2.5-2.5-4-4.9-4.5c-2.7-0.6-5.4-0.2-7.9,1.1 c-0.2,0.1-0.4,0.5-0.8,0.2c0-0.1,0-0.2,0.1-0.3c1.9-2.9,3.9-5.8,5.7-8.7c0.9-1.4,3.1-1.9,4.4-1.5c1.8,0.6,2.5,1.5,2.6,3.6 c0,0.6-0.2,1.3,0.2,1.9c0.9-1.3,1.4-2.6,1.7-4c0.4-2.3-0.9-4.7-3.2-5.4c-1-0.3-0.8-0.5-0.3-1.1c2.1-2.3,3.9-4.8,5.6-7.3 c1.4-2.1,3.5-3.6,5.8-4.7c1.4-0.6,2.3-0.3,3.2,1c0.3,0.4,0.6,0.9,1,1.6c0.1-2-0.5-3.5-0.9-5.1c-0.3-0.9-0.9-1.3-1.7-1.5 c-0.8-0.2-1.6,0-2.5-0.1c0.9-2,1.7-3.8,2.6-5.7c2.5-5.5,5-11.1,6.4-17c1.1-4.8,2.1-9.7,0.8-14.6c-0.1-0.3-0.2-0.7,0.1-1 c1.5-1.9,2.8-3.8,3.8-6.2c1.7,3.1,3.6,5.8,6.1,8c0.3,0.3,0.3,0.6,0.3,1c-0.1,1.5-0.1,3.1-0.1,4.7c0.1,6.9-1.3,13.5-3.2,20.1 c-0.2,0.9-0.4,1.5-1.5,0.9c-0.6-0.3-1.4-0.3-2,0c-1.4,0.7-2.4,1.9-3.5,3c0.8,0,1.4-0.1,2.1-0.2s1.2,0.1,1.5,0.7 c0.7,1.2,1.1,2.7,0.6,3.9c-1.8,4.3-3,8.9-5,13.1c-2.4,4.9-4.2,10-6.4,14.9c-0.2,0.4-0.2,0.9-0.6,1.1c-1.7-2.1-3.7-3-6.3-2.2 c-2.8,0.9-4.1,3.2-4.9,5.8c0.4-0.1,0.8-0.4,1.1-0.6c1-0.7,2.1-1.2,3.3-1.4c1.9-0.4,3,0.4,3.4,2.2c0.3,1.7,0.6,3.5,0.1,5.1 c-1.1,3.3-1.4,6.6-1.8,10c-0.1,0.9-0.2,1.8,0,2.8c1.6-1.1,3.2-1.3,4.9-1.1c0.7,0,1.5,1.2,2.1,0.4c0.4-0.6,0.3-1.6,0.5-2.4 c0.1-0.2,0.1-0.4,0.1-0.6c0.8-6,1.9-11.9,4-17.6c2.2-5.8,4.6-11.5,7-17.3c3.3-8.1,6.7-16.1,8.1-24.9c0.9-5.9,1.9-11.7,1.4-17.7 l0.2-0.2c3.4,2.3,7.1,4.2,10.7,6.1c4.1,2.1,7.8,4.6,11.3,7.5c6.3,5.3,10.3,12.1,12.4,20c0.9,3.4,1.2,6.9,2.4,10.2 c0.2,0.2,0.1,0.4,0.3,0.5c0.3,0.1,0.2-0.2,0.3-0.3c0.2-0.4,0.1-0.8,0.4-1.1c0.7-1.8,1.4-3.6,1.8-5.5c1.6-7.7,1.8-15.5,0.7-23.3 c-1.1-8.4-3.7-16.3-7.4-24c-4.2-8.6-9.5-16.2-17.2-22.1c-0.4-0.3-0.6-0.5-0.3-1c2-3.5,3.6-7.3,5.5-10.9c2-3.8,4.3-7.4,7.3-10.5 c7.4-7.5,16.6-11.4,26.8-13.3c3.3-0.7,6.5-1,9.9-1.3c-0.1-0.5-0.3-0.6-0.6-0.8c-2.2-1.4-4.6-2.8-7.2-3.5 c-10.6-2.8-21.3-3.5-32.1-1.1c-9.3,2.1-17.9,5.5-25.3,11.7c-1.8,1.4-3.5,3-4.7,5c-0.3,0.6-0.8,1.1-1.3,1.6c-0.8-1-1.5-1.8-2.2-2.7 c-0.7-0.9-1.2-1.9-1.9-2.7C68.4,10.8,59.2,4.2,47.4,1.6C42.3,0.5,37.2-0.1,32.2,0z M33.8,2.9c4.2,0,8.3,0.5,12.4,2 c0.6,0.2,1.3,0.4,1.9,0.7c1.4,0.5,2.6,1.1,3.3,2.7c1.1,2.4,2.8,4.4,4.1,7.1c0.4-2.2-0.1-4-0.3-5.9c1.5,0.6,2.8,1.5,4.1,2.3 c0.3,0.2,0.4,0.5,0.4,0.8c0.1,1.7,0.8,3.1,1.5,4.6c0.8,1.7,1.6,3.4,2.5,5.4c0.6-2.4,0.4-4.6,0.5-6.8c1.4,0.7,2.3,1.8,3.4,2.7 c1,0.9,1.6,1.8,1.4,3.2c-0.1,0.9,0.2,1.8,0.5,2.7c0.7,2,1.5,4.1,1.7,6.3c0,0.3,0.2,0.4,0.5,0.6c0.7-2.2,0.9-4.5,1.1-7.1 c1.4,1.8,2.7,3.5,3.5,5.4c1.1,2.3,2.1,4.7,2.8,7.2c0.7,2.3,0.7,4.5-0.6,6.6c-0.9,1.4-1,3.2-1.9,4.6c-0.2,0.3-0.3,0.9-0.9,0.8 s-0.9-0.5-0.9-1.2c-0.1-3.4-2-5.7-4.7-7.5c-2.9-1.9-6.1-3.1-9.6-3.7c-0.8-0.1-1.2-0.4-1.3-1.2c-0.2-0.8-0.6-1.6-0.8-2.5 c-0.3-0.7-0.1-0.9,0.4-0.7c1.5,0.5,2.9,1,4.3,1.9c0.1-0.2,0.2-0.3,0.2-0.3c-1.4-2.4-3.1-4.9-5.6-5.9c-1.9-0.7-2.9-2-4-3.3 c-0.7-0.9-1.5-1.7-2.2-2.6c-0.1-0.2-0.2-0.3,0-0.5c1.6,0.5,3.3,0.8,4.8,1.7l0.1-0.2c-2.7-2.9-5.1-6.2-9.6-6.4 c-0.5,0-0.8-0.1-1.2-0.4c-1.2-1.1-2.4-2.1-3.8-3.3c1.4-0.2,2.6,0.5,4.3,0.6c-2.4-2.2-4.4-4.2-7.3-5.1c-0.6-0.2-1.3-0.2-1.9,0.1 c-0.8,0.5-1.4,0.2-2.1-0.3c-2.7-1.8-5.8-2.6-8.6-4c-0.1-0.2-0.1-0.3,0-0.5C28.8,3.2,31.3,3,33.8,2.9L33.8,2.9z M127.8,8.8 c0.4,0,0.9,0,1.3,0.1c2.6,0.3,5.2,0.5,7.8,0.9c0.3,0,0.6,0.2,0.9,0.2c0.4,0.2,0.1,0.4-0.1,0.6c-4.3,1.2-8.6,2.4-12.6,4.5 c-2.8,1.5-5.7,2.5-8.9,2.9c-1.3,0.1-2.6,0.5-3.6,1.5c1.6-0.2,3.3,0,5.1-0.2c-0.8,1-1.7,1.5-2.5,2.2c-1.2,0.9-2.2,1.7-3.9,1.9 c-2.3,0.3-4.4,1.3-6.4,2.5c0,0.6,0.4,0.3,0.6,0.3h3.3c0.4-0.1,0.9-0.2,0.7,0.4c-1.3,1.3-2.2,2.9-3.3,4.4c-0.4,0.6-0.9,1-1.7,1.2 c-3,0.8-5.4,2.7-7.6,4.9c1.8-0.6,3.5-1,5.4-1.2c0.3,0,0.7-0.3,0.8,0.1c0.1,0.2-0.1,0.5-0.2,0.7c-0.9,1.9-1.9,3.8-2.8,5.7 c-0.7,1.4-1.9,2.2-3.2,2.8c-0.4,0.2-0.7,0-1-0.2c-3.6-2.2-7.5-2.7-11.5-1.3c-0.6,0.2-0.9,0.2-0.7-0.6c0.7-3.6,0.5-7.3-0.5-10.8 c-0.1-0.3-0.1-0.6,0-0.9c1.9-3.9,4.2-7.4,7.5-10.6c0,2.1-0.1,3.9,0.4,5.8c0.6-0.3,0.4-1,0.5-1.5c0.5-2.6,2.1-4.7,2.9-7.1 c0.1-0.2,0.2-0.3,0.4-0.4c1.5-1,3-2,4.9-2.8c-0.4,2-1,3.8-1.2,5.7c0.5,0.1,0.5-0.3,0.5-0.5c1.1-2.6,3.1-4.5,4.8-6.7 c0.2-0.3,0.6-0.4,0.9-0.5c1.5-0.5,3.1-0.9,4.8-1.5c-0.7,1.5-1.2,2.7-1.8,3.9c0.1,0.1,0.1,0.2,0.2,0.3c1.3-1,2.3-2.4,3.7-3.2 c1.5-0.8,2.7-2.2,4.5-2.4c1.7-0.2,3.4-0.5,5.2-0.8c-0.6,1.3-1.8,1.9-2.2,3.4c1.4-1,2.7-1.9,4.3-2.4c1-0.4,2.2-0.5,3.1-1.1 C127,8.8,127.4,8.8,127.8,8.8L127.8,8.8z M55.9,40.2c0.5,0,0.9,0.1,1.4,0.1c3.5,0.4,6.7,1.5,9.4,3.9c0.3,0.3,0.6,0.5,0.9,0.8 c0.5,0.5,1.3,1.2,1,1.9c-0.2,0.5-1.1,0.2-1.7,0.2c-3.6,0.2-7.1,0.9-10.4,2.6c-4.7,2.4-9.2,5.4-13,9c-0.5,0.5-0.9,0.5-1.4,0.2 c-0.7-0.4-1.5-0.6-2.2-0.9c-0.2-0.1-0.4-0.2-0.5,0s0,0.4,0.2,0.6c0.4,0.4,0.8,0.9,1.2,1.3s0.3,0.7-0.3,0.7c-1.1,0-2.2,0.1-3.3,0.2 c-0.4,0-0.7-0.3-1.1-0.4c-1.8-0.9-3.6-1.8-5.9-1.5c0.8,0.8,1.5,1.3,1.9,2c0.2,0.5,0.2,0.7-0.3,0.8c-1,0.3-2,0.7-3,1.1 c-2.3,1.1-4.6,2.3-7.3,2.5c-1.5,0.1-3,0.8-4.5,1.8c1.2,0.2,2.3-0.1,3.2,0.4c-0.2,0.4-0.6,0.6-1,0.8c-3.2,1.9-6.1,4.2-8.7,6.8 c-0.4,0.4-0.8,0.7-1.3,1.1c-0.5,0.3-0.7,0.3-0.6-0.1c0.6-1.1,1.2-2.1,1.8-3.2c3.3-5.2,6.8-10.3,11-14.9c0.3-0.3,0.5-0.6,0.8-1 c0.6,1.1,0.3,2.4,1.6,3.3c-0.2-2.3,1-4,1.4-5.9c0.1-0.3,0.1-0.5,0.4-0.7c2.5-2.3,5.1-4.5,8-6.6c0.2,1.7-0.4,3.5,0.9,5.1 c0.2-1.8,1.1-2.9,2-4.1c0.8-1.1,1.8-2.1,2-3.5c0-0.3,0.3-0.5,0.5-0.6c2.4-1.1,4.7-2.2,7.3-2.8h0.5c-1,2.2-1.7,4.3-1.9,6.7 c1.8-2.8,5.2-3.6,7.2-6C53.2,40.4,54.5,40.1,55.9,40.2L55.9,40.2z M87.6,47.5c3.3-0.1,6.2,1.1,8.9,3.7c0.1,0.1,0.2,0.2,0.3,0.2 c1.8,1,2.9,2.3,2.7,4.6c-0.1,1.2,0.5,2.4,1,3.5c0.8,1.8,1.2,3.7,1.8,5.5c0.6-2.3,1.3-4.6,1.6-7.2c2,2.1,3.8,4,5.3,6.3 c0.1,0.2,0.1,0.4,0.1,0.6c-0.7,2.7,0.1,5.3,0.7,8c0.2,1,0.4,2,0.6,3.3c1-2,1.4-3.9,2-5.7c0.4,0,0.4,0.4,0.6,0.7 c1.3,2.6,2.5,5.1,3.7,7.7c0.3,0.6,0.4,1.1,0.2,1.7c-0.7,2.9,0.2,5.8,0.2,9c1.1-1.1,1.4-2.5,2.3-3.6c1.8,6.7,3.1,13.3,3.4,20 c0.2,0.6,0.1,1.3,0.1,2c0,0.2,0,0.4-0.3,0.4c-0.1-0.1-0.1-0.4-0.2-0.5c-2.4-6.7-6.2-12.5-11.7-17.3c1.5-0.4,2.8,0.2,4.3,0.3 l-1.5-1.2c-2.2-1.3-4.4-2.6-7.1-2.9c-0.2,0-0.4-0.1-0.6-0.2c-2.5-1.8-5.2-3.1-7.9-4.6c2.7-0.5,5.3-0.5,7.9,0.1 c0-0.6-0.5-0.7-0.7-0.8c-1.3-0.7-2.7-1.4-4-2.1c-2.8-1.4-5.7-1.4-8.7-0.7c-0.3,0.1-0.7,0.2-1,0c-1.8-1.1-3.6-2.1-5.6-3.3 c3.1-0.7,6-1.6,9-1.6c-0.1-0.2-0.1-0.3-0.1-0.3C91,72,87.2,70.6,83,71.8c-0.4,0.1-0.8,0.2-1.1-0.2c-2-2.6-4.3-5.2-5-8.7 c-0.7-3.7-0.5-7.3,1.5-10.6c1-1.7,2.5-2.9,4.5-3.7C84.5,47.9,86.1,47.6,87.6,47.5z M69.1,51.1c2.2-0.1,3.6,1,3.5,3.1 c-0.3,4.8-0.2,9.6-2.5,14c-1.7,3.4-4,6.3-6.8,8.8c-1,1-2.2,1.4-3.9,1c-3-0.7-6.1,0-8.8,1.8c1.9,0.3,3.8,0.7,5.7,1.5 c-1.9,1.4-3.9,2.3-5.8,3.4c-0.2,0.1-0.4,0.1-0.7,0c-2.7-0.9-5,0.3-7.5,1c-0.2,0.1-0.5,0.2-0.4,0.5s0.4,0.2,0.6,0.2 c1,0.2,2.1,0.3,3.1,0.9c-3,2-5.5,4.4-8.1,6.7c-1.1,0.9-2.5,1.4-3.8,2.2c-0.7,0.4-1.5,0.9-1.9,1.8c0.6,0.5,1.2-0.3,1.8,0.1 c-3.1,4.1-5.2,8.6-7.4,13.2c-0.6-0.5-0.3-1.1-0.2-1.7C26.6,101,29.5,93,33.1,85c0.8,1.2,1.3,2.3,2.2,3.3c0.7,0,0.4-0.6,0.4-0.9 c0.1-1.5-0.2-3.1,0.1-4.6c0-0.5,0.2-1,0-1.4c-0.6-1.5,0.1-2.6,0.8-3.8c1.2-1.9,2.3-3.8,3.6-6c0.6,2.1,0.9,3.9,2.3,5.7 c0.1-1.2,0.2-2,0.3-2.8c0.2-1.4,0.7-2.7,1.1-4c0.3-0.9,0.5-1.8,0.2-2.7s-0.1-1.6,0.5-2.3c0.9-1.1,1.7-2.2,3-3.3 c0.1,1,0.2,1.8,0.3,2.6c0.1,0.2-0.2,0.8,0.2,1.1c0.4,1.2,0.5,2.6,1.3,4.1c0.3-2.6,1.3-4.5,2.3-6.5c0.9-1.8,1.7-3.8,1.7-5.9 c0-0.6,0.4-0.8,0.8-1.1c2.7-1.8,5.5-3.2,8.6-4.1C64.9,51.8,66.9,51.1,69.1,51.1z" style="fill:#0C3F56" />
	</svg>
	 <svg x="1024" y="1024" width="1024" height="1024" viewBox="0 0 72 91" preserveAspectRatio="xMinYMid meet" >
		<path d="M0.1,39c0.4,0,0.3-0.4,0.4-0.6c0.1-0.7,0.2-1.3,0.3-2 c0.1-0.6,0.1-1.6,0.7-1.8c0.6-0.1,0.6,0.9,0.9,1.4c0.7,1,1.6,1.8,2.5,2.5s1.6,1.6,1.8,2.8s0,2.5-1.1,3.2c-1.1,0.8-2.3,0.4-3.4-0.1 c-0.6-0.3-0.9-0.8-1.4-1.3c-0.4-0.6-0.5-1.4-0.7-2.1C0,40.5,0.2,40,0,39.5C0.1,39.4,0.1,39.2,0.1,39z" style="fill:#0D3F56" />
		<path d="M28.4,74.5c0.1-3.7,0.7-7.8,2.7-11.6 c1.3-2.4,1.6-5,1.5-7.7c-0.2-3.9-0.2-7.8,0.6-11.7c0.2-1,0.5-1.9,1-2.8c1.7-2.7,4.5-3.6,7.3-2.1c2.5,1.3,4.4,3.2,5.6,5.7 c1.6,3.3,4.3,3.5,6.9,2.9c2.5-0.6,4.7-1.7,7-2.8c1.6-0.8,3.3-1.3,5.1-1c3,0.5,5,2.9,5.4,6.3c0.5,4.7-0.9,8.9-3.8,12.6 c-2.7,3.4-6.1,5.7-10.2,7.1c-2.8,1-5.4,2.2-7.8,3.9c-2.1,1.4-3.2,3.2-3.7,5.6c-0.3,1.6-0.6,3.2-1,4.8c-0.7,2.4-1.9,4.5-4.2,5.7 c-2.6,1.4-4.9,1.3-7.2-0.6c-2.8-2.3-4.1-5.5-4.9-8.9C28.5,78.4,28.4,76.7,28.4,74.5z" style="fill:#0C3F56" />
		<path d="M13,24.4c0-4,2.9-6.4,6.8-5.6 c6.9,1.4,12.4,8.1,12.4,15.2c0,1.6-0.4,3.2-1.4,4.5c-1.5,2.1-3.5,2.9-6.1,2.3c-0.9-0.2-1.8-0.5-2.6-0.9C17.5,37.3,13,29.7,13,24.4z" style="fill:#0C3F56" />
		<path d="M20.1,61.4c-2.5-0.2-5.2-1.2-7.5-3.3 c-2.2-2-4-4.4-4.9-7.3c-1.5-4.8,1.1-8.2,6.1-7.9c4.8,0.3,11.6,3.9,12.8,10.6c0.1,0.4,0.1,0.7,0.2,1.1C27.3,59,25.1,61.4,20.1,61.4z" style="fill:#0C3F56" />
		<path d="M36.8,14.4c1.6-1,3.2-0.5,4.7,0.2 c5.2,2.5,7.9,6.8,8.6,12.4c0.3,2.2,0,4.3-0.7,6.4c-0.7,1.9-1.8,3.2-3.9,3.5c-2.1,0.3-3.8-0.4-4.9-2.2c-2.7-4.4-4.8-9.1-5.9-14.2 c-0.3-1.6-0.4-3.3,0.7-4.7C35.7,15.2,36.3,14.8,36.8,14.4z" style="fill:#0C3F56" />
		<path d="M62.2,21.1c3,0.8,4.7,2.9,5.1,6.3 c0.4,3.2-0.4,6.2-2.1,8.9c-0.4,0.7-1,1.3-1.6,1.8c-3.4,2.8-7.6,1.4-8.6-2.8c-0.4-1.7-0.5-3.5,0-5.2c0.4-1.5,0.9-2.9,1.4-4.3 c0.8-2.2,2-4.2,4.6-4.8C61.5,20.9,61.9,20.8,62.2,21.1z" style="fill:#0C3F56" />
		<path d="M19.8,82.7c-1.2,0-2.4-0.4-3.4-1 c-2.6-1.5-4.7-3.4-6.4-5.8c-0.6-0.9-1.1-2-1.3-3.1c-0.6-3.2,1.5-5.5,4.7-5.4c4.6,0.2,9.8,4.2,11.1,8.7 C25.5,79.6,23.3,82.7,19.8,82.7z" style="fill:#0C3F56" />
		<path d="M0.5,63.8c-0.1-1.8,0.4-3.2,0.8-4.5 c0.1-0.3,0.2-0.7,0.6-0.7s0.4,0.4,0.6,0.7c0.6,1.2,1.4,2.3,2.4,3.1c1.6,1.2,2.1,3,2.4,4.8c0.1,0.8-0.1,1.5-0.8,2 c-0.8,0.5-1.6,0.5-2.4,0.1C1.8,68,0.4,66.2,0.5,63.8z" style="fill:#0C3F56" />
		<path d="M8.7,9.6c0.4,1,0.7,2.1,1.2,3c0.5,0.8,1.1,1.6,2,2 c1.2,0.6,1.9,1.6,1.8,3c-0.1,1.2-0.7,2-1.9,2.4c-1.3,0.4-2.5,0.1-3.6-0.8c-0.5-0.4-0.8-1-1-1.6C6.4,14.7,7.5,12.1,8.7,9.6z" style="fill:#0C3F56" />
		<path d="M57.7,17.9c-0.2-1.3,0-2.5,0.8-3.7s1.5-2.5,1.8-4 c0.1-0.4,0.3-1,0.7-0.3c1.5,2.4,2.8,4.8,2.9,7.7c-0.4,1.6-1.6,2.7-3,2.8C59.6,20.5,58.4,19.5,57.7,17.9z" style="fill:#0D3F56" />
		<path d="M30.8,9.8C30.9,8.4,31,7,31.1,5.6 c0-0.2-0.1-0.5,0.2-0.6c0.3-0.1,0.5,0.1,0.6,0.3c0.6,0.6,1.1,1.3,1.7,1.9c0.7,0.7,1.4,1.4,2.2,2c1.6,1.1,1.8,3.1,0.6,4.4 c-1.2,1.2-3.2,1.2-4.5-0.2C31.1,12.5,30.7,11.3,30.8,9.8z" style="fill:#0D4057" />
	</svg>
	 <svg x="2048" y="1024" width="1024" height="1024" viewBox="0 0 138 182" preserveAspectRatio="xMinYMid meet" >
		<path d="M62.8,142c4,2.9,8.5,4.7,13.5,6.4 c-2.5-4.6-2.7-9.3-2.3-14.3c0.5,0.7,0.4,1.4,0.7,2c1.7,4.3,3.3,8.6,5,12.9c0.3,0.8,0.9,0.8,1.5,0.9c2.6,0.6,5.2,1.1,7.8,1.5 c0.7,0.1,1.3,0.4,2.2,0.3c-4.4-4.4-6.5-9.5-6.6-15.4c3.6,5.1,7.5,10.2,11.5,15.2c0.2,0.3,0.5,0.5,0.9,0.5c3.1,0,6.3,0,9.4,0 c0.1,0,0.3-0.1,0.8-0.2c-5-3-8-7.4-9.5-12.7c2.5,2.8,5.9,4.5,8.5,7.2c1.7,1.8,3.9,3,5.8,4.6c0.5,0.4,1,0.2,1.5,0.2 c2.7-0.3,5.3-1.2,7.8-2.1c1.1-0.4,2.1-0.9,3.2-1.3c0-0.2-0.1-0.3-0.2-0.3c-3-0.8-5.7-2.4-8.2-4c-5.8-3.8-11.2-8.2-15.5-13.8 c-4.6-6-9.5-11.9-11.9-19.3c-0.2-0.6-0.6-0.9-1.3-1c-3.7-0.7-7.2-1.8-10.5-3.5c-3.1-1.6-4.9-4.3-6.8-7c-0.1-0.1,0-0.3,0-0.5 c2.8,1.2,5.6,1.9,8.8,2.6c-2.2-4.3-1.9-8.8-2.1-13.5c0.7,0.7,0.8,1.5,1,2.1c1.2,3,3,5.8,4.1,8.8c0.2,0.5,0.5,1,0.6,1.5 c0.4,2.2,1.8,2.8,3.8,3.1c3.1,0.4,6.1,0.8,9.6,0.9c-2.1-1.9-4.1-3.6-5.4-6c-1.2-2.3-2.2-4.7-2.9-7.3c0.5,0,0.7,0.4,0.9,0.6 c0.8,1.1,1.8,2,2.9,2.8c3.3,2.3,6,5.1,8.6,8.1c1.2,1.3,2.4,1.9,4.1,1.7c3.5-0.2,7-0.6,10.6-1.7c-5-2-9.4-4.7-13.4-8.1 c-5.7-4.8-10.5-10.4-14.4-16.7c-1.1-1.7-1.7-3.7-2.3-5.7c-0.2-0.6-0.4-0.8-1-0.9c-0.9,0-1.8-0.1-2.7-0.2c-3-0.2-5.7-1.3-8.1-3.1 c-1.7-1.3-3.4-2.7-5-4.2c2.6,1.2,5,2.6,8,2.9c-0.6-2.9-0.8-5.8-1.3-8.8c0.3,0.1,0.4,0.2,0.5,0.2c1,3.3,3.6,5.8,5.3,8.7 c0.2,0.3,0.4,0.4,0.7,0.4c4.8,0.2,9.4-0.8,14.1-2.4c-4.2-1.9-7.6-4.6-10.7-7.6c-3.3-3.2-6.8-6.3-9.5-10.1c-4-5.8-6.7-12.1-6.7-19.3 c0-3.1,0.8-6,1.5-9c0.1-0.4-0.1-0.8,0.3-1.1c0,0,0.1,0,0.2,0c-0.2,3.3,0.9,6.3,1.6,9.4c1,3.8,2.5,7.4,4.4,10.7 c6.9,11.9,16.5,21.1,29,27c0.8,0.4,1.5,0.6,2.5,1c-1.9,0.9-3.7,1.3-5.7,1.1c-0.8-0.1-1.4,0-2.1,0.4c-3.4,1.7-6.9,3.1-10.5,3.9 c-0.8,0.2-1.7,0.2-2.8,0.3c1.3,1.9,2.5,3.8,3.9,5.6c4.1,5.6,9.3,10.1,14.6,14.6c4.1,3.4,8.6,6,13.2,8.8c2,1.2,3.6,0.7,5.4-0.2 c0.1-0.1,0.3-0.1,0.4-0.2c0.2-0.2,0.5-0.3,0.7,0s0,0.5-0.1,0.6c-0.9,1-1.6,2-2.7,2.8c-4.8,3.5-10.3,5.1-16,6.1 c-4.3,0.7-8.6,1.5-13.2,0.9c0.7,1.8,1.5,3.5,2.5,5c2.9,4.8,6.4,9.1,9.9,13.4c4.1,5,9.1,8.9,14.4,12.4c2.7,1.8,5.5,3.5,8.6,4.7 c0.8,0.3,1.6,0.4,2.4,0c1.7-0.8,3.6-1.3,5.3-2.2c0.3-0.2,0.7-0.5,1.2-0.2c-0.4,1.1-1.4,1.8-2.2,2.6c-4.7,4.5-10.2,7.7-16.5,9.6 c-4.2,1.3-8.3,2.7-12.7,3.2c-7.8,0.9-15.4,0.6-23-1.7c-1.8-0.6-3.6-1.3-5.5-2.4c0.2,9,2.5,17.4,4.4,26.1c-1.9-1.1-3.6-1.3-5,0.2 c-0.3,0.3-0.5,0.1-0.7-0.1c-0.3-0.4-0.5-0.9-0.6-1.4c-2.4-6.7-3.3-13.7-4-20.8c-0.2-2.5-0.7-5-0.5-7.5c0-0.6-0.4-0.8-0.7-1.1 C67.5,147.4,64.8,145,62.8,142L62.8,142z" style="fill:#0C3F56" />
		<path d="M10.6,137.7c3,0.4,6,0.9,9,1.3c0.5,0.1,0.9,0,1.4-0.3 c3.8-2.7,7.3-5.7,10.7-9c0.5-0.4,0.4-1.2,1.2-1.4c-1.9,4.1-3.8,8.1-7.8,11c2.7,0.3,5,0.1,7.3-0.2c0.4-0.1,0.6-0.3,0.9-0.6 c3.1-2.8,6.1-5.7,8.7-9c1.9-2.4,4.4-4.4,5.7-7.6c0.8,3.5-4.6,12.7-9.1,16.2c1.4-0.2,2.9-0.3,4.3-0.6c1.9-0.4,3.8-1,5.8-1.4 c0.6-0.1,1-0.5,1.3-1c1.5-2.3,3.3-4.5,4.5-7c0.7-1.6,1.6-3,2.6-4.4c1.2-1.7,1.7-3.6,2.3-5.5c0.9,6.6-2.1,11.8-6.3,16.6 c2.3-0.7,4.8-1.1,6.9-2.3c1.5-0.8,2.9-1.7,4.3-2.5c0.3-0.1,0.6-0.4,0.8-0.2c0.4,0.2,0.1,0.6,0,0.9c-0.1,0.7-0.6,1.2-1.2,1.6 c-1.9,1.5-3.8,3-5.7,4.6c-0.2,0.2-0.7,0.2-0.4,0.7c1.1,2,0.9,4.3,1,6.4c0.4,10.6-0.8,21.1-3.8,31.3c-0.4,1.3-0.9,2.5-1.6,3.7 c-0.3,0.5-0.5,0.8-1.2,0.4c-1.2-0.8-2.5-0.3-3.9-0.2c1.9-5.2,3.5-10.4,4.5-15.7c1.4-7.6,1.2-15.2,0.5-22.9c-0.1-1-0.6-0.6-1-0.4 c-4.4,2.1-8.9,3.8-13.6,5.1c-5,1.3-10.1,1.4-15.3,1c-3.9-0.3-7.7-1.1-11.5-2.2c-3.3-1-6.1-2.7-8.6-4.9c-0.8-0.7-1.7-1.4-2.6-2 C0.4,137,0,136.8,0,136.3c1.3,0.2,2.6,0.2,3.8,0.5s2.3,0.2,3.5-0.3c4.3-1.8,7.8-4.6,11.2-7.7c2-1.9,4.1-3.8,6-5.8 c4.9-5.2,8.7-11.1,12.3-17.1c0.9-1.5,1.8-3.1,2.8-4.8c-0.9,0.1-1.6,0.1-2.2,0.2c-4.6,0.3-9.2-0.3-13.6-1.7c-2.8-0.9-5.2-2.6-7.6-4.3 c-0.8-0.6-1.6-1.2-2.4-1.8c-0.2-0.2-0.4-0.4-0.3-0.6c0.2-0.3,0.4,0,0.6,0c0.5,0.1,1.1,0.3,1.6,0.4c2.8,0.9,5.2,0.3,7.6-1.4 c3.6-2.5,7.5-4.6,10.8-7.4c3.5-2.9,6.7-6,9.2-9.8c2.5-3.8,5-7.6,6.5-11.9c-6.2,0.4-12.4-0.3-18.4-1.8c-4.1-1-6.9-3.5-9.6-6.7 c1.8,0.4,3.5,0.8,5.3,1c2,0.2,3.5-0.2,5.2-1.4c3.5-2.5,6.7-5.2,10.1-7.8c2.6-2,5-4.2,7.5-6.3c2.1-1.8,3.5-4.3,4.8-6.6 c3.2-5.6,6.1-11.4,8.3-17.6c1.7-5,3.3-10,5-15.1c0.1-0.2,0.1-0.4,0.2-0.5c0.4,0,0.3,0.3,0.3,0.4c0.4,5.2,0,10.4-0.5,15.6 c-0.6,5.4-2.6,10.2-5.2,14.8c-3,5.3-6.2,10.4-10.4,14.8c-3.7,3.9-7.8,7.3-12.4,10.1c-0.3,0.2-0.7,0.3-0.9,0.6 c0.4,0.3,0.8,0.2,1.2,0.3c6.8,0.9,13.4-0.1,19.9-2.1c0.6-0.2,1.1-0.3,1.7-0.5c0.3-0.1,0.6-0.2,0.5,0.3c-1.8,2-3.7,3.9-6,5.3 c-1.3,0.8-1.9,1.9-2.4,3.2c-3.6,11.5-10,20.8-20.5,27c-2.7,1.6-5.2,3.4-8.2,4.4c0-0.2,0,0.2-0.1,0.1s-0.2,0.1-0.1,0.1 c0.4,0.3,0.9,0,1.4,0.2c1.9,0.3,3.9,0.3,5.8,0.9c2.6,0.7,4.7-0.1,6.3-1.7c3.2-3.1,6.7-5.9,8.8-10.1c0-0.1,0.1-0.1,0.4-0.3 c-1.3,4.9-3.6,8.9-7.6,12.1c3.2,0.1,6-0.7,8.7-1.2c1.1-0.2,1.8-0.8,2.5-1.7c2.3-3.1,4.4-6.4,6-9.9c0.4-0.8,0.5-1.7,0.8-2.7 c0.3,4.1-0.8,7.6-4.3,13.1c3.6-1,6.8-2.7,10.3-4.2c-0.1,0.7-0.4,0.9-0.7,1.1c-3.8,2.8-7.5,5.6-11.9,7.3c-2.4,0.9-4.9,1.6-7.4,2.4 c-0.8,0.2-1.2,0.7-1.5,1.4c-3,7.4-7.3,14-12.1,20.3c-1.6,2.1-3.5,3.9-5.3,5.8c-2.9,3-6,5.8-9.5,8.1c-1.6,1-3.4,1.7-5.3,2 c-0.2,0.1-0.3,0.2-0.5,0.3C10.3,137.6,10.4,137.6,10.6,137.7L10.6,137.7z" style="fill:#0C3F56" />
		<path d="M65.6,150.2c0.2,2.9,1.6,5.6,1.6,8.5 c0,5,0.7,9.8,1.8,14.7c0.1,0.3,0.1,0.6,0.2,0.9c0.1,0.8,0.3,1.8-1.1,1.2c-0.5-0.2-1.1-0.1-1.5,0.2c-0.7,0.5-0.9,0.2-1.2-0.4 c-0.8-1.7-1.1-3.5-1.4-5.3c-0.6-3.3-0.8-6.6-1-10c-0.1-2.3,0.6-4.4,1.2-6.5c0.4-1.1,0.7-2.2,1.1-3.3 C65.4,150.2,65.5,150.2,65.6,150.2L65.6,150.2z" style="fill:#0C3F56" />
	</svg>
	 <svg x="3072" y="1024" width="1024" height="1024" viewBox="0 0 96 168" preserveAspectRatio="xMinYMid meet" >
		<path d="M8.6,0C8.5,0,8.3,0.1,8.2,0.4C7.1,2.5,5.8,4.6,5.1,6.8 c-1.8,5.3-3.7,10.7-4.4,16.4c-0.4,3.7-0.8,7.3-0.6,11c0.1,1.6,0.3,3.2,1.1,4.7C2.6,41.5,4.8,43,7.5,44c5.5,1.9,11,3.9,16.2,6.7 c3.1,1.7,6,3.8,8.9,5.7c1.3,0.8,2.3,2.1,3.2,3.3c3.6,5.1,3.6,10.4,0.6,15.7c-1.5,2.6-3,5.1-4.7,7.6c-1.6,2.3-2.9,4.9-3.5,7.7 c-0.4,2.1-0.8,4.3-1.2,6.4c-0.4,1.9,0.7,5.3,1.8,6.4c0.4-0.8,0.3-1.7,0.7-2.5c2-3.8,4.5-7.3,8.1-9.7c5.5-3.6,11-2.1,15.1,2.8 c5.9,7.1,8.1,15.7,8,24.8c-0.1,5.5-1.6,10.8-2.8,16.1c-0.8,3.5-0.2,6.5,1.6,9.4c1.4,2.4,3.2,4.4,5.1,6.4c2.4,2.6,5.3,4.6,7.9,7 c4.1,3.8,8.9,6.7,13.8,9.3c0.1-0.2,0.1-0.3,0.1-0.7c-2.3-3.3-3.7-7.1-5.6-10.6c-2.7-5-4.7-10.2-5-15.9c-0.1-1.6-0.4-3.2,0.2-4.7 c1.1-3.1,2.3-6.2,3.5-9.3c2.6-7,4.5-14.2,4-21.8c-0.2-3.1-0.7-6.1-1.9-8.9c-1.9-4.4-4.3-8.6-7-12.6c-0.6-1-1.1-2-1.1-3.2 c0-3,2.8-7.1,6-8.4c4.1-1.8,8.3-1.9,12.6-0.9c2.6,0.6,3.8-0.4,3.8-3c0-1.1-0.1-2.1-0.2-3.2c-0.3-6-2.4-11.4-5.8-16.2 c-2.4-3.3-5.9-5.2-9.2-7.4c-2.3-1.6-5.5-0.3-6.5,2.3c-1.2,2.9-2.5,5.7-4.1,8.4s-3.7,5-6.7,6.1c-2.1,0.8-3.2,0.3-4.4-1.6 c-0.8-1.3-1.3-2.8-1.7-4.2c-0.9-2.9-2-5.6-4.3-7.7c-4.2-3.8-9.2-6.1-14.4-8.2c-4.6-1.8-9.4-2.9-14.2-4c-3.5-0.8-6.8-2.1-9.3-4.8 c-2.8-2.9-4-6.6-4.8-10.4c-0.9-4.6-1-9.2-1-13.9c0-0.7,0-1.3-0.3-1.9C8.9,0.2,8.7,0,8.6,0z M7.7,28.2c0.6,0,1.2,0.2,1.9,0.5 c1.3,0.7,2.7,1.3,3.8,2.2c3,2.5,6.6,3.7,10.2,4.7c0.3,0.1,0.7,0.2,1,0.2c0.2,0.2,0.5,0.2,0.7,0.4c5.8,1.3,11.3,3.2,16.7,5.5 c4.6,2,8.6,5,10.7,9.8c1.2,2.6,2.5,5.2,3.1,8.1c0.2,1.1,0.7,2,1.3,2.9c0.8,1.2,2.3,1.3,3.5,1.1c2.6-0.5,4.9-1.6,6.9-3.6 c3.6-3.5,6.2-7.7,8.4-12.1c0.4-0.9,1.2-1.7,1.5-2.7c0.2-0.7,0.7-0.3,1,0c2.3,1.4,4.1,3.3,5.7,5.3c2,2.7,4,5.4,4.9,8.7 c0.3,1.2,0.6,2.4,1,3.7c0.2,0.7-0.1,0.9-0.7,0.8c-6.2-0.9-11.7,0.9-16.6,4.4c-4.6,3.3-6.3,10.1-4.2,15.3c1.1,2.8,2.8,5.1,4.8,7.3 c3.1,3.4,4.6,7.4,5.2,11.9c0.8,6.1,0.1,12-1.6,17.8c-0.7,2.4-1.9,4.5-2.8,6.8c-1.4,3.8-2.5,7.7-3.6,11.5c-0.5,1.6-0.9,3.2-1.9,4.6 s-2.7,1.9-4.3,1.1c-2.9-1.4-4.2-4.9-3.1-8.2c2.1-6.4,3.2-13,3-19.8c-0.2-6.3-1.4-12.5-3.9-18.3c-1.3-3.1-3.8-5.3-5.7-7.8 c-1.1-1.4-2.6-2.4-4.1-3.3c-2.8-1.5-5.8-1.7-8.6-0.7c-3.8,1.4-7.6,3-10.4,6.2c-0.3,0.4-0.6,0.7-0.9,1.1c-0.2-0.1-0.2-0.4,0-0.7 c0.8-2.7,2.1-5.2,3.7-7.6c1.9-2.8,4-5.4,6.1-8c2.2-2.8,3.8-5.8,4.7-9.2c0.6-2.4-0.2-4.5-1-6.7c-1.8-4.8-5.6-7.9-9.5-10.9 c-3.1-2.3-6.7-3.6-10.2-5.2c-4.9-2.3-10.1-3.9-15.3-5.4c-1.9-0.5-3.6-1.4-4.8-3c-0.3-0.4-0.5-0.7-0.5-1.2c0.3-2.1,0.5-4.2,1.6-6 C6,28.7,6.8,28.2,7.7,28.2z" style="fill:#80CDDD" />
	</svg>
	 <svg x="0" y="2048" width="1024" height="1024" viewBox="0 -3 96 105" preserveAspectRatio="xMinYMid meet" >
		<path d="M71.6-2.3c-3-0.1-5.8,1.8-7,5.1c-0.4,1.2-0.8,2-2.3,1.5 c-0.4-0.1-0.9,0-1.3,0.1c-2.5,0.4-4.3,2.6-4.1,5.1c0.2,2.5,1.6,3.5,4.6,3.5h5.8c0.4,0,0.9,0,0.6,0.6c-0.6,1.4-1.2,2.7-2.9,3.2 c-1.7,0.4-3.3,1.3-4.8,2.4c-1.5,1.1-2.6,2.6-3.4,4.3c-2.5-3.8-5.9-5.5-10.3-5.3c-2.1,0-4.2,0.6-6.4,0.3c-1-0.1-1.9-0.3-2.5-1.4h3.2 H44c0.9,0,1.7-0.4,2.2-1.1s1-1.5,1.3-2.1c1.2-2,0.2-4.6-2.1-5c-1.8-0.3-2.6-1-3.2-2.8c-1-3-4.2-4.7-7.2-4.5s-4.8,1.9-5.7,5.3 c-0.2,0.6-0.5,0.7-1,0.7c-1.8,0.1-3.2,1-4.1,2.5c-1.5,2.6-1.6,4.9,2,6.3c2.3,0.9,4.7,0.8,7,0.8c0.8,0,1.1,0.2,1.2,1 c0.3,1.5,1.1,2.6,2.5,3.4c1.5,0.8,3,0.5,4.5,0.6c2.1,0,4.2-0.4,6.3-0.1c3.5,0.5,5.4,3.4,4.3,6.7c-0.5,1.5-1.4,2.8-2,4.2 c-1.5,3.4-3.8,6.3-6.2,9.1c-4.2,4.7-9.3,8.3-14.7,11.4c-0.8,0.4-1.3,0.8-1.8-0.3c-0.1-0.4-0.6-0.6-0.9-0.9c-1.9-1.7-4.4-1.8-6.8-2.2 c-0.5-0.4-1.2-0.1-1.9-0.6c0.5,0.1,1.1,0.2,1.6-0.1c2.9,0,5.8-0.1,8.7-0.5c1.3-0.2,2.6-0.3,3.6-1.6c2.4-3.1,0.5-8.2-4-8.3 c-0.3,0-0.7,0-0.8-0.5c-0.8-3.8-3.4-5.8-6.8-7.1c-3.7-1.4-7,0-8.5,3.7c-0.2,0.6-0.2,1.4-0.6,1.6c-0.5,0.3-1.1-0.4-1.7-0.6 C3.7,34-0.5,37.8,0,42.8c0.3,2.7,1.8,4.9,4.2,6.3c0.9,0.6,1.9,0.8,3,0.7c1.5-0.1,3-0.1,4.5-0.1c0.3,0,0.7-0.1,0.8,0.4 c0.5,1.5,1.7,1.9,3.1,2.2c1.2,0.3,2.4,0.3,3.7,0.3c1.9,0,3.1,0.9,3.5,2.8c0.3,1.4-0.1,2.7-0.8,3.9c-2.3,3.8-3,8-2.1,12.4 c0.9,4.3-0.3,8-3,11.3c-1.9,2.4-4.1,4.7-6,7.1C8.8,92.8,8,96,7.6,99.3c-0.1,0.7,0.2,1.3,0.8,1.6c1.6,0.9,4.4-0.2,5-1.9 c0.3-1.1,1-1.9,2.1-2.3c1.7-0.7,3.3-1.3,5.1-1.4c3.9-0.3,6.8-1.9,8.5-5.6c0.5-1,0.9-2,1.8-2.9c-0.3,1.7-0.7,3.3-1.5,4.7 c-1.5,2.6-2.9,5.2-3.5,8.1c-0.2,1.3,0.2,1.9,1.5,1.9c1.2,0,2.4-0.2,3.6-0.4c0.7-0.1,1-0.7,1.2-1.3c0.3-1,0.5-2.1,0.6-3.2 c0.4-0.4,0-1,0.5-1.4c0.8-3.2,1-6.5,1.9-9.7c0.4-1.5,0.7-1.7,2.3-1.5c2,0.2,3.7,1.1,5.4,1.9c5.8,2.8,13-0.1,15.5-5.3 c0.5-0.9,1-1.8,1.4-2.7c0.2-0.5,0.5-0.7,1-0.7c2.1-0.1,4.2-0.2,6.3-0.4c2.4-0.2,4.8-0.2,6.9-1.4c2.9-1.6,5.3-4.3,4.6-7.7 c-0.2-1-0.7-1.9-1.2-2.8c-1.6-2.9-4.9-4.3-8.1-3.6c-0.4,0.1-0.7,0.1-0.9-0.4c-0.5-1.4-1.4-2.6-2.3-3.8c-2.1-2.8-4.9-4-8.4-3.8 c-4.3,0.3-7.5,2.9-8.2,6.9c-0.2,1-0.5,1.1-1.4,0.8c-2.7-0.9-5.3-0.7-7.4,1.5c-1.5,1.6-2.7,3.5-3.2,5.7c-1.1,4.8,1.7,8.8,6.3,9.2 c2.9,0.3,5.9,0.1,8.9,0c0.3,0,0.7-0.2,1,0.2c-1.7,1.4-3.2,3-5.5,3.2c-1.7,0.2-3.4-0.3-5-0.9c-2.5-0.9-4.9-1.7-7.5-2 c-0.5,0-0.7-0.2-0.7-0.7c-0.1-1.6-0.3-3.1-0.5-4.6c-0.6-6.4,2.7-11.9,8.4-15.2c6.8-3.9,11.6-9.4,14.3-16.8c0.2-0.6,0.5-0.8,1.1-0.8 c3.3,0,6.5-0.1,9.7-0.1c2.2,0,4.1-0.8,5.5-2.5c1.3-1.6,1.5-3.5,0.6-5.4c-0.9-1.8-2.6-2.7-4.6-2.5c-1.3,0.2-1.9-0.1-2.4-1.3 c-0.9-1.9-2.9-2.3-4.9-2.6c0.8-1.9,2.5-2.6,4.1-3.4c0.3-0.2,0.5,0,0.6,0.3c0.6,2.4,2.5,3.5,4.7,3.6c5.5,0.3,11.1,0.3,16.6-0.3 c2-0.2,4.1-0.7,5.7-2.2c1.8-1.8,2.6-4.2,1.8-6.1c-0.7-1.9-2.5-2.8-5.3-2.8h-0.1c-0.6,0.2-0.8-0.1-0.9-0.7c-0.2-1.3-0.7-2.4-1.5-3.3 c-0.2-0.2-0.4-0.3-0.3-0.7c1-2.7,1.9-5.4,4.3-7.4c1-0.8,2-1.5,3.1-2.4c-2.7-0.1-6.6,1.8-8.7,4.2c-0.5,0.5-0.7,0.6-1.1,0 c-1.5-2-3.6-2.5-5.9-1.7c-1.2,0.4-1.5-0.1-1.9-1c-0.8-1.7-1.9-2.9-3.7-3.4C73-2.1,72.3-2.2,71.6-2.3z M71.7-0.4c0.6,0,1.2,0,1.8,0.2 c2.1,0.7,3.3,2.9,2.9,5.4c-0.1,0.4-0.1,0.8-0.2,1.2c-0.1,0.1,0,0.2,0.1,0.3c0.9-1,2.2-1.3,3.3-1.9c1.8-1,4.3,0.5,4.3,2.5 c0,0.5,0,1.1-0.7,1.1c-1.8,0-3.5,0.7-4.9,1.7c-1.1,0.9-2.3,0.5-3.7,0.4c0.9-1,1.9-1.6,3-2.5c-1.6-0.1-2.8,0.7-4.2,1 c0.4-1.3,0.8-2.6,1.3-4c-1.2,0.9-1.8,1.9-2.5,2.8c-0.4,0.5-0.7,0.7-1.1,0s-0.7-1.4-1.1-2c-0.2-0.3-0.2-0.8-0.7-0.9 c-0.3,1.1,0,2.3,0.2,3.3C69.6,9,69.3,9,68.7,9c-1.8-0.1-3.6-0.2-5.4-0.6c0,0.1-0.1,0.2-0.1,0.3c0.8,0.6,1.7,1.1,2.6,1.8 c-1.5,0.3-2.9,0.4-4.3,0.5c-0.9,0-1.8,0-2.2-1C59,9,59.2,8,60,7.3c1.1-1,2.5-1.5,4-0.9c0.7,0.3,1.3,0.6,1.9,0.9 c0.3,0.1,0.4,0.6,0.8,0.3s0.4-0.7,0.2-1.1c-0.7-1.4-0.3-2.8,0.4-4.1C68.1,0.8,69.9-0.3,71.7-0.4z M36,3.9c2,0.1,3.8,1.8,4.2,4 c0.1,0.8,0.1,1.6,0.1,2.3c0,0.8,0.3,1.2,1.2,0.8c1.1-0.5,2.5-0.1,3.3,0.8c0.3,0.3,0.4,0.6,0.2,1.1c-0.4,1.2-1.1,1.9-2.3,2.1 c-1.5,0.1-3.1,0.1-5,0.3c0.8-1.1,1.4-2,2.1-3c-1.2,0.2-1.9,0.8-2.7,1.3c-0.5,0.3-0.7,0.3-0.9-0.4c-0.3-1.3-0.3-2.6-0.9-4.1 c-0.4,1.3-0.7,2.3-0.9,3.4c-0.2,1.2-0.7,1.3-1.8,0.9c-0.9-0.4-1.9-0.6-3-1c0.4,1.2,1.8,1.4,2,2.5c-1.3-0.1-2.5-0.2-3.7-0.5 c-1.4-0.4-1.8-1-1.6-2.3c0.3-1.4,1.4-2.2,2.6-2c0.6,0.1,1.1,0.4,1.6,0.6c0.7,0.3,1.1,0.2,0.9-0.6s-0.1-1.5,0-2.3 C31.6,5.7,34.1,3.8,36,3.9z M84.4,10.9c2.1,0.2,3.3,1.9,2.8,4.1c-0.1,0.6-0.4,1.1-0.5,1.7c-0.1,0.4,0,0.8,0.4,1c0.4,0.3,0.6,0,1-0.2 c0.6-0.3,1.1-0.5,1.7-0.7c2-0.6,3.2,0.1,3.9,2c0.4,1,0.1,1.7-0.6,2.4c-0.9,0.8-2,1.2-3.2,1.4c-0.6,0.1-1.2,0.2-1.9,0.3 c-1.1,0.1-2.2,0.2-3.4,0.3c0.5-0.9,1.4-1.2,2-1.8s1.2-1,1.8-1.6c-1.7,0.5-3.1,1.6-5,1.9c0.3-1.4,0.6-2.7,0.9-4 c-0.2-0.1,0-0.4-0.3-0.6c-1.2,1.5-2,3.3-3.4,4.8c-0.6-1.7-0.8-3.3-1.1-5.1c-0.8,1.5-0.5,2.8-0.5,4.1c0,0.9-0.3,1.1-1.1,0.8 c-1.4-0.5-2.8-1-4.3-1.2c1.1,0.9,2.2,1.8,3.5,2.8c-1.9,0-3.5,0.2-5.1-0.1c-1.8-0.3-2.6-1.2-2.5-2.7c0-1.6,1.2-2.9,2.8-3.1 c1.2-0.2,2.4,0.2,3.3,1c0.5,0.5,0.7,0.5,1-0.2c0.7-1.5,1-3.2,2.3-4.6c1.3-1.3,2.6-2.4,4.6-2.7C83.8,10.9,84.1,10.9,84.4,10.9 L84.4,10.9z M72.7,13c0.1,0,0.3,0,0.5,0c0.5,0,1.1,0.1,2,0.3c-0.2,0.4-0.4,0.8-0.5,1.2c-0.2,0.7-0.6,0.9-1.3,0.7 c-0.7-0.4-1.5,0-2.4,0.1C71.4,13.7,71.6,13.1,72.7,13L72.7,13z M67.4,17.5c0.2,0,0.2,0.1,0.1,0.3c-0.9,1.3-2.3,2.1-3.7,2.8 c-2,1-3.5,2.5-4.2,4.7c-0.1,0.3-0.2,0.5-0.4,0.7c-1.3,0.8-2,2-2.3,3.4c-0.1,0.6-0.3,0.5-0.8,0.4c-0.7-0.2-1.6-0.1-2-0.5 c-0.3-0.3,0.1-1.3,0-1.9c-0.2-3.8-1.9-5.9-5.5-7.1c0.2-0.3,0.4-0.2,0.7-0.1c2.4,0.5,4.3,1.6,5.3,3.9c0.4,0.9,0.8,1.7,1.3,2.5 c0.5,0.9,0.8,0.7,1.3,0c0.7-0.9,1-2,1.5-3c1.3-2.4,3.2-4,5.8-4.8c1-0.3,1.9-0.8,2.7-1.3C67.3,17.5,67.4,17.5,67.4,17.5L67.4,17.5z M62.9,27.6c0.4,0,0.9,0,1.3,0.2c1.4,0.5,2.2,2.4,1.9,4.3c-0.1,0.4-0.5,0.9,0.1,1.1c0.4,0.2,0.8-0.1,1.2-0.4 c0.8-0.6,1.6-1.4,2.8-0.9c1,0.4,1.9,0.9,2,2.2c0,1.2-0.7,2.3-1.9,2.7c-0.8,0.2-1.4,0.2-2,0.3h-0.6h-3.3c0-0.1,0-0.2-0.1-0.2 c0.9-0.7,1.8-1.3,2.6-2c-1.2-0.2-2.3,0.1-3.3,0.4c-0.8,0.2-1.2,0.3-1.2-0.8c0-0.9-0.2-1.8-0.5-2.7c-0.4,1.1-0.8,2.1-1.1,3.2 c-0.2,0.7-0.4,1-1.2,0.6c-1.5-0.7-3.1-0.8-5-1.2c0.6,1.3,2.2,1.4,2.7,2.7c-1.6,0-3.2,0.3-4.8-0.1c-0.7-0.2-0.9-0.7-0.9-1.3 c-0.1-1.4,1-3.1,2.2-3.6c0.9-0.4,1.7,0.1,2.4,0.6l0.9,0.6c0.9,0.5,1.3,0.2,1.5-0.8c0.1-0.9,0.4-1.8,0.9-2.7 C60.1,28.6,61.5,27.7,62.9,27.6z M18.7,34.1c1.2,0.1,2.4,0.7,3.8,1.8c1.8,1.5,2.7,3.3,2.5,5.6c0,0.6-0.1,1.1,0.9,0.5 c1.2-0.8,2.5-0.4,3.6,0.4c0.9,0.7,0.9,1.8,0.8,2.8c-0.1,1.1-1.3,2-3,2c-2.1,0.2-4.3,0-6.5-0.1c1-1.1,1.8-2,2.9-3.2 C22,44,21,45.5,19.4,45.3c0.7-1.7,1.3-3.4,2-5c-1.6,1.2-3,2.6-4.4,4.2c-0.7-1.9-0.7-3.8-1.4-5.6c-0.3,1.6-0.7,3.2-0.9,4.8 c-0.1,1.1-0.4,1.4-1.5,0.9c-1.5-0.7-3.2-1.3-5.1-2c1,1.7,2.2,2.7,3.3,4.2c-2.5-0.2-4.9-0.1-6.9-1.6s-1.9-5.3,0.2-6.5 c1.5-0.8,3.1-0.4,4.5,0.4c0.7,0.4,1.3,1,2,1.4c1,0.6,1.7,0.4,2.1-0.7c0.3-0.7,0.4-1.4,0.6-2C15.1,35.2,16.7,33.9,18.7,34.1z M49.9,38.2c0.2,0,0.4,0.1,0.7,0.5c0.5,0.6,1.3,0.7,2.1,0.8c0.6,0.1,1.3,0.2,2.1,0.2c-2,3-4.7,5.1-7.5,7s-5.7,3.4-8.6,5 c-3.7,2-7.5,4-10.6,7.1c0.2-1.4,0.5-2.5,1.6-3.4c2.5-2.1,5.5-3.5,8.1-5.4C42,46.8,46,43.4,49,39C49.4,38.6,49.6,38.2,49.9,38.2z M51,46.2c0.2,0.6-0.2,0.9-0.4,1.2c-2.1,3.4-4.9,5.9-8.5,7.6c-2.9,1.4-5.7,3-7.7,5.6c-0.4,0.5-0.9,1-1.1,1.6c0.1,0.3,0.3,0,0.4,0.1 c0.6-0.1,1.1-0.6,1.8-0.5c-1.5,1.3-3.1,2.4-4.2,4c-0.1,0.2-0.4,0.4-0.4,0.7c-0.3,1.8-1.6,2.8-2.8,3.9c-1.3,1.2-1.7,2.8-1.8,4.5 c-0.1,1-0.2,2-0.4,3c-0.5,2.6-1.8,4.6-3.8,6.3c-2.6,2.1-5.1,4.3-7.1,7c-0.1,0.3-0.2,0.6-0.5,0.4c0.4-1.7,1.3-3,2.5-4.2 c1.4-1.4,2.9-2.7,4-4.5c2.4-3.8,3.4-7.7,1.9-12.1c-0.1-0.4-0.1-0.7,0-1c2.1-5.2,5.2-9.6,9.9-12.8c4-2.7,8.2-5,12.6-7.1 C47.4,48.9,49.3,47.8,51,46.2z M25.2,54.5c0.7,0.1,0.6,0.6,0.7,1c0.4,0.9,0.4,1.9,0.6,2.8c0.4,2.2-1,3.5-2.2,4.9 c-0.2,0.3-0.4,0.6-0.6,0.8c-0.2,0.1-0.3,0-0.2-0.3C24.6,60.8,25.1,57.7,25.2,54.5z M57.6,55.5c2-0.1,4.1,0.6,5.4,2.1 c1.6,1.8,2.8,3.8,3.2,6.2c0.2,1,0.5,1.2,1.5,0.8c1.7-0.7,3.4-1.3,5.2-0.2c1.7,1.1,2.5,2.6,2.5,4.5c0,1.8-1.1,3-2.5,3.8 c-0.7,0.4-1.4,0.7-2.2,0.8c-2,0.6-4.4,0.4-6.8,0.3c1.4-1.2,2.7-2.5,4.1-3.7c0-0.1-0.1-0.1-0.1-0.2c-2.1,0.9-4.1,1.8-6.4,2.7 c0.6-2.1,1.6-3.9,2.1-5.9c-1.4,1.6-2.7,3.1-4.3,4.9c-0.3-2.5-0.7-4.7-1-7H58c-0.2,1.3-0.4,2.7-0.7,4c-0.1,0.8-0.3,1.5-0.4,2.3 c-0.1,0.7-0.2,0.8-0.9,0.4c-1.6-0.9-2.9-2.4-4.6-3.3c-0.1-0.1-0.2-0.2-0.6,0c1,1.3,1.8,2.7,2.4,4.2c-2.6-0.4-5-1.6-7.7-1.5 c1.9,1,3.6,2.2,5.4,3.8c-3,0.5-5.9,0.6-8.6-0.2c-1.9-0.6-3.1-3.6-2.4-6c0.5-1.7,1.4-3.2,2.7-4.3c1.7-1.5,3.5-0.9,5.2-0.2 c1,0.4,2,1.1,2.9,1.7c0.3,0.2,0.5,0.6,0.9,0.3c0.3-0.2,0.4-0.7,0.4-1.1c-0.1-0.8-0.3-1.5-0.3-2.3c-0.1-2.3,0.5-4.4,2.5-5.8 C55.2,55.9,56.4,55.6,57.6,55.5z M29.9,71.9c0.3,0,0.4,0.3,0.4,0.5c0.2,2,0.4,4,0.3,6c0,0.4-0.3,0.6-0.6,0.8c-1,0.4-2,1-3,1.6 c1.2-2.8,1.9-5.7,2.6-8.5C29.6,72.1,29.6,71.9,29.9,71.9z M56.8,77c0.1,0,0.2,0,0.3,0c0.1,0,0.3,0,0.4,0.1c-1.6,3.5-4,6.1-7.9,6.9 c-2.2,0.5-4.4,0-6.4-0.8c-1.4-0.6-2.8-1.3-4.3-1.5c-4.8-0.7-9.2,1.5-11.3,5.9c-0.3,0.6-0.6,1.1-0.8,1.7c-0.9,2.5-2.8,3.5-5.3,3.5 c-1.9,0.2-3.7,0.5-5.8,1.5c1.1-1.9,2.2-3.4,3.5-4.7c0.3-0.3,0.6-0.5,1-0.6c2.6-0.4,4.3-2,5.9-4c0.4-0.5,0.8-1,1.1-1.5 c1.7-3,4.6-3.6,7.7-3.4c3.1,0.2,6,1.2,8.9,2.1c3.2,1,6.2,0.8,8.9-1.3c1-0.7,1.8-1.6,2.5-2.7C55.6,77.6,56.1,77.1,56.8,77L56.8,77z" style="fill:#0C3F56" />
	</svg>
	 <svg x="1024" y="2048" width="1024" height="1024" viewBox="0 0 75 98" preserveAspectRatio="xMinYMid meet" >
		<path d="M23.2,0c-1.5,0.1-2.9,0.8-4.2,1.7 c-2.7,1.9-3.8,4.7-3.7,8c-1.6-0.3-3.2-0.7-5-0.3c-3.3,0.8-4.9,4.8-3.4,8.1c0.3,0.6,1,1.2,0.8,1.8C7.6,20,6.7,19.7,6.1,20 c-2.8,1.5-4.7,3.9-5.7,6.9c-1.1,3.5,0.3,8.2,5.1,9.3c0.8,0.2,1.6,0.3,2.5,0.5c-1.1,1.2-1.8,2.4-2.3,3.7c-1,2.7-0.4,4.7,2,6.2 c0.8,0.4,0.7,0.6,0.2,1.2c-2.2,2.2-3.2,5-3.1,8.1c0.1,3,1.7,4.5,4.6,4.8c0.3,0,0.6-0.1,0.8,0.2c-1,1.9-1,3.8,0.4,5.5 c1.6,2,3.8,2.4,6.2,1.6c0.4,2.2,0.3,4.4,1.2,6.4c1.2,3,4.1,4.9,7.3,4.8c2.9-0.1,6.7-1.5,7.9-5.1c0.2-0.9,0.4-1.8,0.4-2.9 c0.7,0.8,1.3,1.5,2.1,1.6c1.6,0.2,1.8,1.4,2,2.6c0.2,0.9,0.1,1.7,0,2.6c-0.4,3.5-2,6.4-4.5,8.8c-1.1,1.1-2.2,2.3-3.3,3.5 c-1.6,1.8-1.8,4-2.2,6.2c-0.1,0.4,0.2,0.9,0.6,1c0.5,0.1,0.7-0.3,0.8-0.7c0.3-1,0.6-2,1.2-2.8c1.4-2,2.9-3.9,4.7-5.6 c4.4-4.1,6.7-9,5.3-15.2c-0.1-0.4,1.1-1.8,1.3-1.6c0.9,0.8,2.2,1,2.8,1.9c2.4,4,2.8,8.3-0.7,12.4c-0.8,0.9-1.5,1.9-2.2,2.9 c-1.7,2.5-1.6,5.1-0.4,7.7c0.3,0.5,0.6,1,1.3,1c-0.9-2.2-0.9-4.2,0.4-6.1c0.9-1.4,1.9-2.7,3-3.9c1.2-1.3,2-2.8,2.5-4.4 c1-3.1,0.7-6.1-0.3-9.2c-0.1-0.4-0.3-0.7,0.2-0.9c1.4-0.6,2.2-1.7,2.7-3c0.3-0.7,0.6-0.7,1.2-0.3c1,0.6,1.8,1.2,2.9,1.5 c3.5,1,7.5,0.4,9.5-3.6c1.5-3.1,1.3-6.2,0.3-9.3c-0.3-0.8-0.2-1,0.6-1.1c1.4-0.1,2.6-0.6,3.8-1.3c4.3-2.6,6.6-8.2,5.6-13.2 c-0.6-3.1-1.8-5.6-4.4-7.5c-2-1.5-4.2-1.8-6.6-1.7c-0.9,0-1-0.2-0.8-1c0.3-1.2,0.4-2.4,0.3-3.6c-0.4-4.5-3.7-6.8-6.2-7.2 c-2.6-0.4-5,0.1-7.2,1.7c-0.5,0.4-1,0.7-1.7,1.2c0-2.2-0.8-4-2.2-5.5c-1.8-1.8-3.8-0.9-5.8-0.6c0.8-3.1-0.1-5.6-2.3-7.6 c-2.3-2-5-1.8-7.7-0.6c1.8-5.6-0.9-8.7-5.4-10.1C24.2,0,23.7,0,23.2,0z M22.7,2.3c0.3,0,0.7,0.1,1,0.2c3.8,1.3,5.3,5.9,2.8,8.6 c-0.2,0.2-0.3,0.4-0.4,0.6c-0.3,0.6-0.6,1.2,0,1.7c0.5,0.5,1,0.1,1.5-0.2c1-0.6,1.9-1.2,3.1-1.4c3.9-0.8,7.5,3.1,6.4,6.9 c-0.1,0.5-0.3,0.9-0.3,1.4c0,0.6-0.5,1.4,0.2,1.7c0.7,0.4,1.5,0.1,2.1-0.5c0.9-0.9,2.6-1,3.5-0.3s1.8,1.6,2.1,2.8 c0.2,0.7,0.4,1.5,0.5,2.3c0.1,0.5,0.2,1.1,0.5,1.5c0.5,0.5,1.2,0.8,1.6,0.1c0.9-1.8,2.7-2.3,4.3-3c1.6-0.6,3.1-1.3,4.9-0.9 c1.2,0.3,2.2,0.9,2.7,2c0.9,2,1.5,4.2,1,6.4c-0.2,1.1-0.3,2.1-0.8,3.2c-0.4,1,0.1,1.5,1.1,1.3c0.9-0.2,1.8-0.4,2.8-0.6 c4-0.8,7.7,2.2,8.7,6.2c0.6,2.3,0.5,4.5-0.1,6.7c-0.9,3.4-5,6.3-8.8,6.3c-1.8,0-2.1,0.5-1.5,2.1c0.4,1.2,1.1,2.2,1.2,3.5 c0.4,3.5-2.6,6.5-6.1,6.1c-1.4-0.1-2.7-0.6-3.9-1.5c-0.4-0.3-0.9-0.7-1.3-1c-1.1-0.7-1.7-0.6-2.4,0.6c-0.4,0.7-0.9,1.4-1.5,2 c-1.6,1.6-4,1.4-5.4-0.3c-1-1.2-1.7-1.1-2.4,0.4c-0.9,2-2.5,2.7-4.6,1.9c-0.8-0.3-1.7-0.7-2.3-1.4c-0.3-0.4-0.6-0.6-1.1-0.4 c-0.1,0.1-0.2,0.5-0.2,1c-0.1,1.5-0.2,3-0.9,4.5c-0.9,2.1-3.1,3.4-5.4,3c-3.3-0.5-5.9-3.2-6-6.6c0-1.2,0.1-2.3,0.2-3.5 c0-0.5,0.1-0.9-0.4-1.2c-0.4-0.3-0.7-0.1-1.1,0.1c-1.1,0.5-2.2,0.5-3.4,0.2c-0.8-0.2-1.1-0.7-1.2-1.4c-0.1-1.9,0.4-3.7,1.7-5.2 l0.4-0.4c0.4-0.4,0.5-1.1,0.3-1.4c-0.2-0.4-0.8-0.2-1.3,0c-0.6,0.3-1.2,0.5-1.8,0.8c-1.1,0.4-2.3,0.4-3.5,0.1 c-1.2-0.3-1.6-1.1-1.6-2.2c-0.1-2.6,0.9-4.8,2.9-6.6c0.3-0.3,0.7-0.5,1-0.8c0.8-0.8,0.7-1.6-0.2-2.3c-0.7-0.5-1.4-1.1-2.1-1.7 c-1.1-0.8-1.2-1.8-0.7-3c0.6-1.6,1.7-2.8,3.1-3.8c0.5-0.4,1.2-0.8,0.9-1.6c-0.2-0.8-1-0.8-1.6-0.9c-2-0.4-3.9-1.1-5.7-1.8 c-1.2-0.5-2.3-2.8-2.2-4.3c0.3-2.9,2.8-6.7,6.3-6.7c0.2,0,0.3-0.1,0.5-0.1c2.4-0.1,2.4-0.1,1.3-2.3c-0.4-0.8-0.7-1.7-1.2-2.6 c-0.7-1.4-0.5-2.7,0.5-3.9c1.1-1.3,2.4-1.8,4.1-1.5c0.5,0.1,1,0.3,1.4,0.5c0.6,0.2,1.1,0.2,1.6-0.2s0.3-0.9,0.2-1.4 c-1.2-4.2,0.7-6.2,4-7.6C22.1,2.3,22.4,2.3,22.7,2.3L22.7,2.3z" style="fill:#0C3F56" />
		<path d="M22.2,12.3c-0.6,0-1.1,0.2-1.5,0.8 c-1.7,2.1-1.9,5.8-0.3,8c0.6,0.8,1.3,1.6,1.9,2.5c0.9,1.3,0.9,2.4,0,3.4c-1.7,1.9-2.5,4-2.4,6.6c-1.3-0.3-1.7-0.8-2.1-2.1 c-0.5-1.8-0.8-3.6-2.2-4.9c-1.7-1.6-4.8-1.2-5.9,0.9c-0.1,0.1-0.4,0.3,0,0.5c0.2,0,0.2-0.2,0.3-0.3c0.8-0.8,1.8-1.1,2.9-0.8 c0.9,0.2,1.2,1,1.3,1.9c0.1,0.8,0.3,1.6,0.4,2.4c0.6,4,3.3,6,7.2,5.2c1-0.2,1.9-0.5,2.9-0.6c1.5-0.1,2.4,0.5,3,1.8 c0.3,0.7,0.5,1.4,0.8,2.1c0.3,0.7,0.3,1-0.3,1.5c-1,0.8-1.6,1.9-1.5,3.2c0.1,0.9-0.2,1.1-1.1,1.2c-3.7,0.3-6.2,3.4-5.8,7.1 c0.2,1.7,1.1,3,2.7,3.7c1.6,0.8,3.3,0.6,4.8-0.2c0.1,0.2,0.2,0.2,0.2,0.3c1.3,3.7,4.3,4.6,7.5,2.4c0.6-0.4,0.7,0,1,0.3 c2.4,2.7,8.1,2.8,9.2-2.2c0.7,0,1,0.7,1.7,0.7c2.1,0.1,3.8-0.8,5.2-2.2c0.7-0.8,1.1-1.8,0.7-2.9c-0.3-1,0.1-1.1,0.9-1.2 c3.7-0.6,5.4-2.8,5.1-6.5c-0.3-3.3-1.7-5.4-4.3-6.1c-2.2-0.5-4.2-0.1-6.1,1.5c-0.1-0.5-0.2-0.7-0.4-1.2c-0.6-2.4-2.8-3.3-4.9-2.2 c-0.7,0.4-1.3,0.8-1.8,1.4c-0.3,0.3-0.5,0.4-0.9,0c-2.1-1.8-4.8-1.6-6.3,0.9c-0.7,1.2-1.3,1.1-2.3,0.8c-0.5-0.1-0.8-0.2-0.9-0.8 c-0.1-1-0.5-1.9-0.9-2.8c-0.6-1.4-0.4-1.8,1.1-1.9c1-0.1,2,0.2,3,0.1c3-0.2,4.4-1.7,4.4-4.6c0-2.5,0.6-3.2,3-4.1 c0.3-0.1,0.8-0.1,0.7-0.6c0-0.4-0.5-0.6-0.8-0.5c-1.6,0.3-3.3,0.5-4.4,1.9c-0.7,0.9-0.8,1.9-0.9,3c-0.2,1.8-0.7,2.1-2.4,2.1 c-1.9,0-3.6,0.4-4.9,2c-0.3,0.3-0.5,0.3-0.8,0.1c-1.4-0.9-3-1.1-4.6-0.7c-0.7,0.1-0.7-0.1-0.7-0.7c0.1-1.3,0.7-2.3,1.4-3.4 c1.8-2.5,1.7-4.7,0-7.3l-0.9-1.2c-0.9-1-1.5-2.2-2-3.5c-0.3-0.9-0.6-1.7-0.2-2.7c0.3-0.9,0.8-1.7,1.9-2 C22.6,12.3,22.4,12.3,22.2,12.3z M45.1,38.4c0.6,0.1,1.1,0.6,1.4,1.4c0.3,1,0.1,2-0.3,3c-0.2,0.5-0.4,1.1,0.2,1.4s0.9-0.2,1.2-0.6 c0.5-0.7,1.1-1.4,1.7-2c1.4-1.4,3.7-1.8,5.3-0.9c1.5,0.9,2.3,2.9,1.8,5.2c-0.4,1.8-1.9,3.2-3.7,3.4c-0.6,0.1-1.1-0.2-1.6-0.3 s-0.9-0.1-1.3,0.3c-0.3,0.4-0.2,0.9,0,1.3c0.1,0.1,0.1,0.2,0.2,0.3c1,1.7,1,2.5,0,3.4c-1.2,1.1-3.1,1.2-4.4,0.3 c-0.2-0.2-0.4-0.4-0.6-0.5c-0.4-0.3-0.7-0.4-1.2-0.2s-0.5,0.6-0.6,1.1v1.4c-0.2,1.6-1,2.3-2.4,2.6c-1.2,0.2-2.9-0.5-3.5-1.5 c-1.1-1.8-1.9-1.9-3.1-0.3c-0.7,0.9-1.5,1.3-2.5,1c-1.2-0.3-1.8-1.1-2.1-2.2c-0.1-0.2-0.1-0.4-0.1-0.6c-0.4-1.5-1-1.8-2.3-1 c-0.8,0.4-1.6,0.7-2.5,0.6c-1.6-0.2-2.6-1.3-2.7-2.9c0-2.8,1.9-4.5,4.9-4.5c1.9,0,2.2-0.3,1.9-2.1c-0.2-1.2,0.2-2.1,1.1-2.9 c0.9-0.7,1.8-0.4,2.8-0.1c0.1,0.1,0.3,0.1,0.4,0.2c1.9,1,2.3,0.9,2.5-1.2c0.1-1,0.7-1.6,1.6-2c0.9-0.3,1.4,0.4,1.8,0.9 c0.3,0.3,0.6,0.8,0.9,1.1c0.9,1,1.6,0.8,2-0.5c0.3-1,0.9-1.8,1.9-2.3C44.2,38.4,44.7,38.3,45.1,38.4z" style="fill:#0C3F56" />
		<path d="M49,32.5c-0.6-0.7-0.4-1.5-0.3-2.3 c0.4-2.1,3.6-3.9,5.8-3.3c2.2,0.6,3.5,3.3,2.6,5.5c-0.7,1.7-2.4,2.1-3.9,2.8c-0.2,0.1-0.4,0-0.5-0.2s0-0.4,0.2-0.5 c0.2-0.2,0.5-0.4,0.7-0.6c1-0.8,1.5-2.1,1.1-3.1c-0.4-1.1-1.3-1.5-2.4-1.6c-1.2-0.1-2.5,0.7-3,1.7C49.2,31.5,49.1,32,49,32.5z" style="fill:#0D3F56" />
		<path d="M61.7,43.4c-0.2-0.8,0-1.2,0.4-1.6 c1.2-1.1,2.6-1.6,4.2-1.1c1.5,0.5,2.4,1.6,2.6,3.2c0.6,3.6-2.2,5.9-5.6,4.8c-0.2-0.1-0.4-0.2-0.6-0.3c-0.2-0.1-0.4-0.3-0.3-0.6 c0.1-0.3,0.4-0.3,0.6-0.2c1.4,0.5,2.5,0,3.2-1.1c0.8-1.1,0.4-2.4-0.1-3.6c-0.6-1.3-2.8-1.4-3.9-0.2C62,42.9,61.9,43.1,61.7,43.4z" style="fill:#0D4056" />
		<path d="M29.7,17.2c-0.5-0.3-0.4-0.7-0.3-1 c0.3-2.1,3.5-3.5,5.3-2.4c1.2,0.8,1.6,2.4,0.7,3.5c-0.5,0.7-1.2,1.2-1.7,2c-0.2,0.3-0.6,0.6-1,0.3c-0.3-0.3-0.1-0.6,0.1-0.9 c0.6-0.7,1-1.4,1-2.4c-0.1-0.8-0.4-1.1-1.1-1.2C31.1,14.7,30.1,15.5,29.7,17.2z" style="fill:#0E4157" />
		<path d="M15.9,18.1c-1.4,0.8-2.4,0.6-3.3-0.5 c-0.9-1-0.9-2.5,0-3.5c0.8-0.9,1.8-1.3,2.9-1.1c1.1,0.3,1.8,1.2,2.3,2.2c0.1,0.2,0.2,0.6-0.1,0.8c-0.3,0.2-0.6-0.1-0.7-0.4 c-0.4-0.5-0.9-0.8-1.6-0.9c-1.2-0.1-1.9,0.3-2.1,1.2c-0.1,1.1,0.6,2,1.6,2.2C15.1,18.2,15.4,18.1,15.9,18.1z" style="fill:#0F4158" />
	</svg>
	 <svg x="2048" y="2048" width="1024" height="1024" viewBox="0 0 210 93" preserveAspectRatio="xMinYMid meet" >
		<path d="M0,30.6c2.2-5.9,6.6-9.5,12.4-11.6 c2.8-1,5.6-1.9,8.7-1.9c2.8,0,5.4,0.6,7.9,1.6c3.7,1.5,7,3.6,10,6.2c2.1,1.8,4.2,3.6,7,4.3c3.6,0.9,6.7-0.1,9.6-2 c3.5-2.3,6.9-5,10.4-7.3c3.7-2.4,7.5-4.5,12-5.3c5.2-0.9,9.8,0.4,14.3,2.8c3.6,1.9,6.2,4.9,8.6,8c3,3.9,6.9,4.9,11.3,2.7 c1.2-0.6,2.4-1.4,3.5-2.2c4.1-2.8,8.2-5.6,12.6-8c3.7-2,7.7-3,11.9-3.6c7.2-1,13.8,0.7,19.9,4.4c2.6,1.6,4.7,3.8,6.5,6.2 c2.5,3.2,5.4,5.9,9.1,7.6c6.6,3.1,14.6,1.6,19.4-3.1c1.6-1.5,3.1-3.1,4.6-4.7c1.8-1.9,2.8-4.2,3.7-6.6c0.1-1,1-2,0.2-3.1 c-0.4-2.3-1.2-4.5-2.6-6.3c-3.1-4-8.9-5.4-13.4-3c-1.6,0.9-3.1,2-4.5,3.2c-1.8,1.7-2.6,3.9-3,6.2c-0.3,1.6,0.5,2.7,1.8,3.5 s2.8,1.3,4.3,1.5c2.1,0.3,3.3-1.2,4.7-2.3c0.5-0.4,0.9-1,1.7-1.1c-0.1,1.3-0.9,2.1-1.7,2.9c-1.1,1-2.2,2.1-3.3,3 c-1.3,1.1-2.9,1-4.4,0.6c-3.2-0.9-5.7-2.7-6.8-5.9c-0.4-1.1-0.4-2.3,0-3.4c0.6-1.7,0.9-3.4,1.8-4.9c2.4-4.1,9.3-10,16.4-8.9 c3.2,0.5,6.1,1.7,8.7,3.7c5.5,4.3,7.4,10.7,5.2,17.8c-1.1,3.6-3,6.7-5.7,9.5c-2.9,3.1-6.2,5.6-10.2,6.9c-5,1.6-9.9,1.6-15,0.4 c-6.8-1.6-11.8-5.6-16.2-10.7c-4-4.8-9.1-7.4-15.4-8.1c-7.5-0.9-14,1.3-20.1,5.4c-3.8,2.5-7.4,5.2-11.3,7.4 c-5.6,3.2-12.4,2.2-17-2.3c-1.1-1.1-2.2-2.3-3.2-3.4c-2.6-3-6-5-9.6-6.3s-7.3-0.9-10.8,0.7c-4.4,2.1-8.4,4.8-12.4,7.7 c-3.3,2.3-6.7,4.4-10.7,5.1c-3.4,0.6-6.5,0-9.6-1.4c-2.5-1.1-4.5-3-6.6-4.7c-3.4-2.9-7.2-5.2-11.7-6.1c-3.3-0.6-6.4,0.1-9.4,1.3 c-4,1.6-7.5,4.2-11.4,6.1C1.5,29.4,1,30,0.3,30.5C0.1,30.9-0.1,30.9,0,30.6z" style="fill:#80CDDD" />
		<path d="M198.8,55.6c-1.3,2.2-2.7,4.4-4.5,6.3 c-1.6,1.6-3.6,2.3-5.8,2.4c-9.5,0.5-17.8-2.8-25.5-7.8c-1.7-1.1-3.2-2.6-4.5-4.3c-1.7-2.1-3.8-3.2-6.4-3.8 c-4.1-0.9-8.1-1.5-12.2,0.1c-3,1.2-5.6,3.1-8.1,5.2c-2.6,2.2-5.1,4.5-8.1,6.2c-9.3,5.2-20.4,4.4-28.3-1.2c-2.6-1.9-5-3.8-7-6.2 c-4.6-5.7-11.7-4.4-15.8-1.8c-2.9,1.8-5.6,3.9-8.4,5.9c-5.5,3.9-11.6,6.3-18.4,6c-4.2-0.2-8.1-1.6-11.8-3.7c-2.4-1.4-4.7-2.8-7-4.4 c-4.1-3-8.4-3.1-12.9-1c-3.6,1.7-7.4,3.1-10.6,5.6c-0.1-0.2-0.2-0.3-0.1-0.3c3-6.5,8.1-10.3,15.2-11.3c4.1-0.6,7.7,0.6,11.1,2.7 c3.4,2.2,6.9,4.2,10.5,6c5,2.4,9.9,2,14.9,0.1c4.2-1.6,7.5-4.4,10.9-7.1c4.5-3.6,9.4-6.1,15.3-6.1c3.7,0,6.9,1.3,9.5,3.9 c2.8,2.7,5.4,5.7,8.7,7.7c6.8,4.3,13.8,5,21.1,0.9c2.8-1.6,5.1-3.8,7.5-5.9c4.3-3.7,9-6.7,14.7-7.5c5.6-0.8,11-0.5,15.9,2.7 c1.9,1.2,3.4,2.9,4.9,4.5c3.1,3.3,6.5,6.1,10.6,8c3.5,1.6,7.2,2.5,11,2.8c3.2,0.3,6-1.1,8.8-2.4c1.5-0.7,2.8-1.7,4.2-2.5 c0.2-0.1,0.4-0.4,0.7-0.2C199,55.3,198.9,55.5,198.8,55.6L198.8,55.6z" style="fill:#80CDDD" />
		<path d="M192.7,81.1c-1.2,2.2-2.1,4.6-3.8,6.5 c-2.4,2.9-5.5,4.6-9.2,4.8c-4.8,0.2-9.6,0-14.2-1.3c-3.5-1-6.4-2.9-9-5.2c-4.3-4-9.4-5.9-15.1-6.3c-3.9-0.3-7.5,0.9-10.7,3 c-2.1,1.3-4.1,2.8-6.1,4.2c-2.8,1.9-5.7,3.6-9.1,4.3c-5.1,1-10,0.2-14.7-1.8c-3.7-1.6-6.7-4.2-10.1-6.2c-3.8-2.2-7.9-3.9-12.5-3.5 c-3.2,0.3-6.2,1-9.1,2.2c-3.6,1.5-6.6,3.9-9.7,6.2c-5.6,4.2-11.8,5.4-18.7,3.9c-4.3-0.9-8.2-2.6-11.5-5.4c-4.1-3.5-8.7-3.9-13.7-2.4 c-0.9,0.3-1.9,0.6-2.8,0.8c-1.7,0.4-2.9,1.4-3.9,2.7c-0.1,0.2-0.2,0.5-0.5,0.4c-0.3-2.1,2.1-5.8,3.9-6.8c2.4-1.3,4.9-1.8,7.5-2.2 c5.2-0.7,9.3,1.4,13.2,4.5c3.2,2.5,6.9,3.6,10.8,4.2c6,1,10.8-1.4,15.3-5.1c5.2-4.3,11.2-6.8,17.8-7.8c6-1,11.4,0.8,16.7,3.7 c2.9,1.6,5.4,3.9,8.3,5.5c5.3,2.8,10.7,3.9,16.3,0.9c2.4-1.3,4.7-2.8,6.9-4.5c4.2-3.3,8.7-5.7,14.1-6.2c3-0.3,6-0.1,9,0.5 c4.9,1,9,3.4,12.5,6.8c3.8,3.7,8.4,5.6,13.5,6.3c2.2,0.3,4.4,0.7,6.7,0.4c3-0.5,5.5-2,7.8-3.9c0.9-0.7,1.7-1.5,2.5-2.3 c0.4-0.3,0.8-0.7,1.2-1.1C192.7,80.4,192.9,80.5,192.7,81.1L192.7,81.1z" style="fill:#80CDDD" />
	</svg>
</svg>