<?xml version="1.0" encoding="UTF-8" standalone="no"?> <svg xmlns:dc="http://purl.org/dc/elements/1.1/" xmlns:cc="http://creativecommons.org/ns#" xmlns:rdf="http://www.w3.org/1999/02/22-rdf-syntax-ns#" xmlns:svg="http://www.w3.org/2000/svg" xmlns="http://www.w3.org/2000/svg" xmlns:sodipodi="http://sodipodi.sourceforge.net/DTD/sodipodi-0.dtd" version="1.1" width="1024" height="1024" >
	 <svg x="0" y="0" width="1024" height="1024" viewBox="20 14 179 196" preserveAspectRatio="xMinYMid meet" >
		<path d="M77.7,113.7c-10.2-9.6-20.4-18.9-30.4-28.4c-6.8-6.4-13.4-13.1-20-19.6c-0.5-0.4-0.7-1.2-0.8-1.9c-0.8-9.3-1.5-18.6-2.2-27.9c-0.4-5.1-0.7-10.1-1-15.2c-0.4-7.1,0.4-7.7,6.8-4.8c12.3,5.5,24.5,11.3,37,16.5c4.3,1.8,6.6,4.5,8.9,8.2C83.5,52.8,91.3,65,99.1,77.3c0.1,0.2,0.4,0.4,0.9,0.8c2.3-3.5,4.6-7,6.8-10.4c6.1-9.5,12.2-18.9,18.4-28.4c0.6-0.9,1.7-1.7,2.7-2.1c15.6-5.9,31.3-11.8,46.9-17.6c0.9-0.3,1.9-0.5,3.4-0.9c-0.4,2.9-0.8,5.3-1.2,7.6c-1.8,10.7-3.6,21.4-5.3,32.2c-0.3,2.1-0.6,4.3-0.5,6.5c0.2,4.5-2.6,7.4-5.4,10.2c-13,13-26.1,26-39.2,39c-1.5,1.5-1.4,2.6-0.4,4.2c3,4.6,5.9,9.3,8.9,14c2.2,3.4,4.5,6.8,6.8,10.2c1.2,1.8,2.7,2.4,4.8,1.9c4-0.9,8-1.5,12-2.2c2-0.4,3.4,0.2,4.6,2.1c1.5,2.5,3.3,4.8,5.1,7c1.2,1.5,0.9,2.5-0.3,3.7c-2.5,2.3-5,4.7-7.6,7.2c4.4,5.1,8.6,10.1,13,15.2c1.5-1.2,2.7-2.2,4.1-3.3c3.8,4.5,7.5,8.9,11.4,13.6c-3.3,3.4-6.7,7-10.2,10.6c-3.3,3.4-6.7,6.7-10.1,10c-2.4,2.4-3.5,2.4-5.9,0c-2.9-2.9-5.6-6-8.4-8.9c-1.1-1.1-0.9-2,0-3c0.9-1,1.8-2,3-3.3c-2.5-2.5-4.9-4.9-7.3-7.4c-1.8-1.8-3.5-3.7-5.2-5.5c-1.3-1.4-2.4-1.8-4.1-0.2c-2.5,2.4-5.2,4.5-8,6.8c-3.7-3.3-7.5-6.5-11.1-10c-0.6-0.6-0.4-2.4,0-3.5c1.3-3.5,3-6.8,4.3-10.3c0.3-0.9,0.1-2.4-0.5-3c-7-6.9-14.1-13.6-21.1-20.5c-1.4-1.3-2.4-1.4-3.9,0c-6.3,6.3-12.6,12.5-19,18.7c-1.7,1.7-2.1,3.2-0.8,5.4c2,3.4,3.6,6.9,5.2,10.5c0.4,0.8,0.4,2.3-0.1,2.9c-2.4,3.1-5,6-7.5,9c-1.2,1.4-2.3,1.6-3.8,0.3c-3.4-2.9-6.9-5.6-10.5-8.2c-0.6-0.5-2.3-0.7-2.6-0.3c-3.9,4.9-7.7,10-11.5,15.1c4.3,3.7,4.2,3.6,0.8,8.3c-1.7,2.3-3.3,4.8-4.9,7.2c-0.9,1.4-1.7,2.1-3.4,0.8c-7-5.1-14.1-10.1-21.2-15.2c-1.3-0.9-1.8-1.8-0.6-3.4c2.5-3.4,4.9-6.9,7.3-10.4c1-1.4,2.1-1.7,3.5-0.7c0.6,0.4,1.2,0.8,2.1,1.4c4-5.9,8-11.7,12-17.6c-4.1-3.5-8.1-6.9-12.4-10.5c2.6-3.6,5-7.1,7.6-10.4c0.4-0.5,1.4-0.9,2.1-0.8c2.2,0.2,4.3,0.5,6.4,0.9c1.1,0.2,2.1,0.6,3.1,0.9c6.5,1.9,6.6,1.9,10.2-3.8c4.8-7.7,9.6-15.4,14.4-23.1C76.9,115.2,77.3,114.4,77.7,113.7z M75.6,152.8c9.1-8.6,18.2-17.1,27.2-25.6c7-6.6,13.7-13.6,21-19.8c9.2-7.9,18.7-15.2,26.9-24.3c5.8-6.5,12-12.8,14.9-21.2c1.6-4.6,2.8-9.3,3.7-14.1c1.3-7.1,2.1-14.2,3.2-21.9c-2.6,0.7-4.9,1-6.9,1.8c-8.8,3.3-17.6,6.7-26.3,10.2c-1.7,0.7-3.4,1.6-4.6,2.9c-4,4.3-8.3,8.5-11.6,13.3c-9.5,13.8-18.7,27.7-27.6,41.8c-10.1,15.8-19.7,31.8-29.6,47.7c-0.4,0.7-0.7,1.4-1.3,2.6c2.4,0.6,4.4,1.3,6.5,1.6C74,148.1,73.4,151.3,75.6,152.8z M89.4,94.9c2.1-3.3,4.1-6.3,5.9-9.4c0.3-0.5,0.1-1.6-0.2-2.2c-6.6-11.6-13.3-23.1-19.9-34.7c-3.1-5.4-6.6-10.4-12.5-13.2c-9-4.4-17.8-8.9-26.8-13.3c-2.4-1.2-4.8-2.2-7.7-3.5c0.3,2.9,0.7,5.1,0.8,7.3c0.8,10,1.1,20,2.4,29.8c0.5,3.6,2.2,7.9,4.8,10.4c14.2,13.6,28.8,26.7,43.2,40c0.6,0.5,1.3,0.9,2.1,1.5c1.6-2.6,3-5,4.6-7.3c1.3-1.8,1.3-2.9-0.4-4.6c-4.1-4.2-8.1-8.6-11.9-13.1C67.9,75.1,62,67.5,56.1,59.9c-1.9-2.4-3.6-4.8-5.4-7.2c0.3-0.2,0.5-0.4,0.8-0.7C64.1,66.2,76.6,80.5,89.4,94.9z M172.8,180.9c-4.3-3.8-8.3-7.3-12.1-10.9c-4.2-4-4.1-4.1-8.1,0.3c-1.4,1.5-3.8,3.3-3.7,4.8c0.2,1.9,2.5,3.6,3.9,5.3c3,3.5,6.1,6.9,9.2,10.4c-1,1.2-2,2.2-2.6,3.3c-0.3,0.6-0.4,1.9,0,2.3c2.4,2.5,4.9,4.8,7.5,7.3c4.3-4.5,8.4-8.7,12.4-13c3.7-4,3.6-4.1-0.3-8.2C175.8,179.3,175.8,179.3,172.8,180.9z M132.1,178.7c0.8-0.6,1.5-1.1,2.2-1.7c8.9-7.9,17.8-15.7,26.8-23.6c1.2-1,2.5-2,0.9-3.8c-1.4-1.6-1.5-4.5-5.1-3.3c-6,1.9-12.2,3.3-18.3,5c-0.9,0.3-2.1,1-2.4,1.8c-2.9,6.7-5.6,13.4-8.2,20.1c-0.3,0.7-0.1,1.8,0.4,2.3C129.4,176.7,130.7,177.6,132.1,178.7z M77.2,180.3c0.7-0.8,1.3-1.5,1.9-2.1c2-1.8,2-3.5,0.4-5.6c-1.2-1.6-2.3-3.3-3.2-5c-2.1-4.1-3.9-8.4-6-12.5c-0.5-0.9-1.7-1.8-2.8-2.1c-7.7-2-15.5-3.6-23.2-5.7c-2.2-0.6-3,0.6-3.5,1.9c-0.3,0.7,0.4,2.2,1.1,2.7c4.6,3.8,9.5,7.3,14.1,11.1C63.2,168.6,70.1,174.3,77.2,180.3z M106.8,133.2c7.2,7.8,14.1,15.4,21.1,23.1c0.5-0.8,1.1-1.3,1.2-1.8c1.1-4.9,3.2-8.7,9-8.8c0,0,0.1-0.1,0.4-0.6c-5.7-8.3-11.6-16.7-17.1-24.7c-2.4,2.1-4.7,4.2-7.2,6.5c2,2.2,4,4.4,5.9,6.5c4.7,5,4.7,5,4.3,7.3c-0.5-0.3-0.7-1-1.1-1.4c-2.8-3.4-5.7-6.9-8.6-10.2c-0.5-0.5-2.1-0.9-2.6-0.5C110.2,129.9,108.6,131.5,106.8,133.2z M50.2,166.8c-4.7,6.5-9.2,12.6-13.7,18.8c-0.8,1.1-1.4,2-3.1,1.1c-4.2-2.2-4.2-2.1-7.3,1.4c-1.5,1.7-1.7,3,0.4,4.4c5.2,3.5,10.3,7.1,15.5,10.6c0.5,0.3,1.9,0.3,2.2-0.1c1.4-1.7,2.6-3.6,3.8-5.4c-6-5.6-5.4-4.2-1.2-10.3c0.3-0.4,0.6-0.7,0.8-1.1c3.3-4.3,6.5-8.6,10-13.2C55.2,171,52.8,169,50.2,166.8z" style="fill:#bf3635" />
		<path d="M89.5,124.5c19.8-26.7,40-53.2,62-78.5C148.7,55.4,105.5,110.3,89.5,124.5z" style="fill:#bf3635" />
	</svg>
</svg>