<?xml version="1.0" encoding="UTF-8" standalone="no"?> <svg xmlns:dc="http://purl.org/dc/elements/1.1/" xmlns:cc="http://creativecommons.org/ns#" xmlns:rdf="http://www.w3.org/1999/02/22-rdf-syntax-ns#" xmlns:svg="http://www.w3.org/2000/svg" xmlns="http://www.w3.org/2000/svg" xmlns:sodipodi="http://sodipodi.sourceforge.net/DTD/sodipodi-0.dtd" version="1.1" width="4096" height="4096" >
	 <svg x="0" y="0" width="1024" height="1024" viewBox="0 0 113.7 72.8" preserveAspectRatio="xMinYMid meet" >
		<path d="M19.8,10h-3.4l-1.7,3.2h-1.3l5.5-10h1.2l1.3,10h-1.2L19.8,10z M19.7,8.9l-0.2-2c-0.1-0.8-0.2-1.6-0.2-2.4c-0.2,0.4-0.4,0.8-0.6,1.2S17.9,7.2,17,8.9H19.7z" style="opacity:0.7;fill:#4F7EBF" />
		<path d="M25.3,13.2h-1.2l1.9-9h-2.8l0.2-1h6.7l-0.2,1h-2.8L25.3,13.2z" style="opacity:0.7;fill:#4F7EBF" />
		<path d="M29.6,13.2l2.1-10h1.2L31,12.1h3.9l-0.2,1.1H29.6z" style="opacity:0.7;fill:#4F7EBF" />
		<path d="M41.2,10h-3.4l-1.7,3.2h-1.3l5.5-10h1.2l1.3,10h-1.2L41.2,10z M41.1,8.9l-0.2-2c-0.1-0.8-0.2-1.6-0.2-2.4c-0.2,0.4-0.4,0.8-0.6,1.2s-0.8,1.5-1.7,3.2H41.1z" style="opacity:0.7;fill:#4F7EBF" />
		<path d="M51.2,13.2h-1.2l-3.1-8.4h0c-0.1,1-0.3,2-0.5,2.9l-1.2,5.5H44l2.1-10h1.2l3.1,8.3h0c0.1-1,0.3-1.9,0.5-2.8l1.2-5.6h1.1L51.2,13.2z" style="opacity:0.7;fill:#4F7EBF" />
		<path d="M56.6,13.2h-1.2l1.9-9h-2.8l0.2-1h6.7l-0.2,1h-2.8L56.6,13.2z" style="opacity:0.7;fill:#4F7EBF" />
		<path d="M60.8,13.2l2.1-10h1.1l-2.1,10H60.8z" style="opacity:0.7;fill:#4F7EBF" />
		<path d="M70.5,4.1c-0.8,0-1.5,0.2-2.1,0.7c-0.6,0.4-1.1,1.1-1.5,1.9c-0.4,0.9-0.6,1.8-0.6,2.8c0,0.9,0.2,1.5,0.7,2c0.4,0.5,1.1,0.8,1.8,0.8c0.6,0,1.4-0.1,2.2-0.4v1c-0.4,0.1-0.8,0.2-1.1,0.3s-0.8,0.1-1.3,0.1c-1.1,0-2-0.3-2.6-1S65,10.7,65,9.5c0-1.2,0.2-2.3,0.7-3.3c0.5-1,1.1-1.8,1.9-2.3S69.4,3,70.5,3c0.9,0,1.7,0.2,2.4,0.5l-0.5,1C71.7,4.2,71.1,4.1,70.5,4.1z" style="opacity:0.7;fill:#4F7EBF" />
		<path d="M45.7,23.8c0,1.2-0.2,2.3-0.6,3.3c-0.4,1-1,1.7-1.7,2.2c-0.7,0.5-1.6,0.8-2.6,0.8c-1.2,0-2.1-0.3-2.7-1c-0.7-0.7-1-1.6-1-2.9c0-1.2,0.2-2.3,0.7-3.3s1-1.8,1.8-2.3s1.6-0.8,2.6-0.8c1.1,0,2,0.4,2.6,1.1S45.7,22.5,45.7,23.8z M42,20.9c-0.7,0-1.4,0.2-1.9,0.7s-1,1.1-1.3,1.9s-0.5,1.7-0.5,2.7c0,0.9,0.2,1.6,0.7,2.1c0.4,0.5,1.1,0.8,1.8,0.8c0.7,0,1.3-0.2,1.9-0.7c0.5-0.4,1-1.1,1.3-1.9c0.3-0.8,0.5-1.7,0.5-2.8c0-0.9-0.2-1.6-0.6-2.1S42.8,20.9,42,20.9z" style="opacity:0.7;fill:#4F7EBF" />
		<path d="M52.6,20.9c-0.8,0-1.5,0.2-2.1,0.7s-1.1,1.1-1.5,1.9s-0.6,1.8-0.6,2.8c0,0.9,0.2,1.5,0.7,2c0.4,0.5,1.1,0.8,1.8,0.8c0.6,0,1.4-0.1,2.2-0.4v1c-0.4,0.1-0.8,0.2-1.1,0.3s-0.8,0.1-1.3,0.1c-1.1,0-2-0.3-2.6-1c-0.6-0.7-0.9-1.6-0.9-2.8c0-1.2,0.2-2.3,0.7-3.3s1.1-1.8,1.9-2.3s1.7-0.8,2.8-0.8c0.9,0,1.7,0.2,2.4,0.5l-0.5,1C53.9,21,53.2,20.9,52.6,20.9z" style="opacity:0.7;fill:#4F7EBF" />
		<path d="M59.9,30h-5L57,20h5l-0.2,1H58l-0.7,3.2h3.6l-0.2,1h-3.6l-0.8,3.7h3.9L59.9,30z" style="opacity:0.7;fill:#4F7EBF" />
		<path d="M67.1,26.8h-3.4L62,30h-1.3l5.5-10h1.2l1.3,10h-1.2L67.1,26.8z M66.9,25.7l-0.2-2c-0.1-0.8-0.2-1.6-0.2-2.4c-0.2,0.4-0.4,0.8-0.5,1.2c-0.2,0.4-0.8,1.5-1.7,3.2H66.9z" style="opacity:0.7;fill:#4F7EBF" />
		<path d="M77.1,30h-1.2l-3.1-8.4h0c-0.1,1-0.3,2-0.5,2.9L70.9,30h-1.1L72,20h1.2l3.1,8.3h0c0.1-1,0.3-1.9,0.5-2.8L78,20h1.1L77.1,30z" style="opacity:0.7;fill:#4F7EBF" />
		<path d="M16.2,9.7c-0.6,0-1.1,0.1-1.7,0.2c-1.3,0.2-2.5,0.8-3.4,1.7C9,14,8,16.8,7.8,20c-0.1,1.8,0.2,3.5,0.5,5.2c0.2,0.9,0.8,1.1,1.5,0.5c0.9-0.8,1.9-1.3,3.1-1.7c1.3-0.3,2.5-0.8,3.5-1.7c0,0,0.1-0.1,0.2,0c-0.2,0.4-0.3,0.8-0.5,1.2c-0.7,1.9-1.8,3.6-2.5,5.5c-1.2,2.8-1.9,5.6-2.4,8.6c-0.2,1.3-0.3,2.5-0.3,3.8c0,1.1-0.2,2.3,0,3.4c0.5,2.8,1.1,5.5,2.4,8c0,0.3-0.2,0.1-0.3,0.1c-0.7-0.3-1.4-0.5-2.2-0.8c-1.9-0.7-3.8-1.3-5.9-0.9c-1.3,0.2-2.5,0.6-3.4,1.6c-0.5,0.6-0.9,1.2-1.1,1.9c0.7-0.9,1.7-1.3,2.7-1.7c1.4-0.5,2.8-0.7,4.3-0.3c1.9,0.6,3.7,1.2,5.5,2.1c2.6,1.2,5.1,1.3,7.7,0.2c0.9-0.4,1.7-0.8,2.5-1.3c1.3-0.8,2.8-1.4,4.2-2c2-0.9,4-0.8,5.8,0.5c1.1,0.8,1.4,2.4,0.7,3.4c-0.7,0.9-1.6,1.5-2.7,1.5c-0.8,0-1.4-0.4-1.6-1.1c-0.2-0.8,0.1-1.4,0.8-1.9c0.5-0.3,1-0.4,1.3,0.3c0,0.1,0.1,0.2,0.2,0.1c0.1,0,0.1-0.2,0.1-0.2c0-0.6-0.4-1.1-1-1.1c-0.5,0-0.9,0.1-1.3,0.4c-0.7,0.5-1,1.1-1.2,2c-0.3,1.8,0.8,3.1,2.7,3.1c1.8,0,3.3-0.9,4.3-2.5c0.2-0.3,0.3-0.4,0.7-0.5c0.9-0.2,1.7-0.7,2.3-1.3c0.8-0.9,1.5-1.8,2.2-2.8c0.8-1.2,1.9-1.9,3.2-2.3c0.7-0.2,1.3-0.4,2-0.2c1.5,0.4,2.6,1.2,3.4,2.5c0.6,0.9,1.4,1.8,2.2,2.6c0.5,0.5,1,1.1,1.5,1.7c-0.8,0-1.5,0-2.3-0.2c-1.7-0.4-3.2-1.1-4.6-2c-0.1,0-0.2-0.2-0.3-0.1c-0.1,0.1,0,0.2,0,0.4c0.3,0.7,0.8,1.4,1.3,2c1.4,1.5,3.3,1.9,5.2,2c2.7,0.2,5.1-0.5,7.5-1.7c1.4-0.7,2.7-1.6,4-2.4c2.9-1.8,5.9-2.4,9.1-1.6c1.5,0.4,2.9,0.9,3.9,2.3c0.8,1.2,1.2,3.2-0.6,4.3c-0.3,0.2-0.5,0.4-0.8,0.6c-1.1,0.6-2.2,0.9-3.4,0.2c-1.1-0.7-1.5-2-0.8-3.1c0.2-0.4,0.5-0.6,1-0.5c0.3,0,0.6,0.2,0.8,0.4c0.1,0.1,0.2,0.2,0.3,0.1c0.1-0.1,0.1-0.3,0-0.4c0-0.1-0.1-0.2-0.2-0.3c-0.9-1.2-2.9-1.1-3.6,0.3c-0.7,1.5-0.5,2.9,0.5,4.1c1,1.2,2.3,1.8,3.9,1.5c1.4-0.2,2.6-1,3.7-1.9c1.4-1.2,2-2.6,1.6-4.5c0-0.2,0-0.4,0.2-0.5c0.7-0.6,1.3-1.4,1.7-2.3c0.6-1.3,0.9-2.5,0.7-3.9c-0.5-2.7-1.5-5.2-3.4-7.3c-0.7-0.8-1.4-1.5-2-2.3c-1-1.4-1.2-3-0.9-4.7c0.4-2.4,1.7-4.2,3.9-5.2c0.3-0.1,0.6-0.3,0.9-0.6c-0.7,0-1.3,0-1.9,0.1c-2.7,0.6-4.8,2-6.2,4.5c-0.7,1.3-1.1,2.7-1,4.1c0,1.3,0.5,2.5,1,3.7c0.4,1.1,1.2,2.1,1.7,3.1c0.8,1.8,0.6,4-0.7,5.5c-0.2,0.2-0.3,0.3-0.6,0.2c-1.8-0.4-3.7-0.2-5.5,0.2c-1.7,0.4-3.1,1.1-4.5,2c-0.2,0.1-0.3,0.2-0.5,0c-0.8-0.7-1.7-1.3-2.4-2.1c-1.4-1.7-2.9-3.3-4.1-5.1c-1.3-1.8-2.7-3.4-4.7-4.5c-1.9-1.1-4-1.7-6.2-1.7c-1.8,0-3.5,0.6-5.2,1.5c-2.7,1.4-4.7,3.5-6.6,5.8c-0.7,0.9-1.3,1.8-2,2.7c-0.2,0.4-0.5,0.5-1,0.5c-1.1,0-2.3,0.1-3.4,0.6c-0.4,0.2-0.7,0.1-1-0.2c-1.4-1.1-2.3-2.6-3-4.3c-0.3-0.8-0.6-1.6-1-2.4c-1-2.1-1.5-4.4-1.7-6.8c-0.2-2.4,0.1-4.7,0.8-7c0.5-1.5,1.2-2.8,1.7-4.2c0.9-2.6,1.7-5.3,1.3-8.2c-0.3-2.3-1.3-4.3-3.2-5.6C19.4,10.1,17.9,9.7,16.2,9.7z M15.9,11.4c0.8,0,1.7,0.1,2.6,0.4c2.3,0.8,3.5,2.5,4,4.9c0.4,2.3,0,4.5-0.7,6.8c-0.3,1.1-0.8,2.1-1.3,3.1c-0.7,1.3-1,2.8-1.2,4.3c-0.2,1.5-0.4,3-0.5,4.6c-0.2,3,0.4,5.8,1.3,8.5c0.5,1.5,1,3,1.8,4.3c0.6,0.9,1.2,1.9,2,2.6c0.2,0.1,0.3,0.2,0,0.4c-1.4,0.7-2.7,1.7-4.2,2.3c-1.3,0.6-2.8,0.8-4.2,0.5c-0.3,0-0.4-0.2-0.5-0.4c-0.8-1.7-1.3-3.6-1.8-5.4c-0.4-1.7-0.5-3.5-0.6-5.3c0-2.9,0.4-5.8,1-8.7c0.6-2.7,1.6-5.3,2.8-7.8c0.8-1.7,1.3-3.6,1.7-5.5c0.1-0.5,0.3-1,0.5-1.5c0.3-1.5-0.2-3-1.4-4c-1-0.7-2.3-0.6-3.1,0.4c-0.5,0.6-0.8,1.1-0.8,1.9c0,0.8,0.4,1.3,1.1,1.6c0.4,0.1,0.9,0.3,1.3,0.1c0.2-0.1,0.4-0.2,0.5-0.4c0.1-0.1,0.1-0.3,0-0.4c-0.1-0.1-0.2-0.1-0.3,0c-0.5,0.1-0.9-0.1-1.1-0.5c-0.2-0.4,0.1-1.1,0.5-1.4c0.4-0.3,0.7-0.3,1.1,0.1c1.3,1.1,1.1,3.2-0.3,4.4c-1,0.8-2.1,1.3-3.3,1.6c-1.1,0.3-2.2,0.7-3.1,1.5c-0.2,0.2-0.3,0.2-0.3-0.1c-0.3-1.8-0.2-3.6,0-5.3c0.3-1.8,1-3.5,1.9-5.1c0.7-1.2,1.8-1.9,3.1-2.2C14.9,11.4,15.4,11.4,15.9,11.4z M75.6,31.3c0.2,0.1,0.2,0.1,0.1,0.2c-1,1.8-1.5,3.8-1.2,5.8c0.2,1,0.5,1.9,1.1,2.7c0.7,1.1,1.6,2,2.4,2.9c1.2,1.3,1.8,2.8,2,4.5c0.1,0.7,0.3,1.4,0.3,2.1c0,1.4-0.7,2.4-1.5,3.5c-0.2,0.3-0.3,0-0.4-0.2c-0.6-0.8-1.3-1.3-2.1-1.7c-0.2-0.1-0.4-0.2-0.7-0.3c-0.3-0.1-0.3-0.2-0.2-0.6c0.5-1.2,0.8-2.5,0.9-3.9c0-1.6-0.5-3-1.2-4.3c-0.9-1.6-1.5-3.3-1.5-5.1C73.5,34.9,74.1,32.9,75.6,31.3z M45,40.9c0.3,0,0.6,0,0.9,0c2.2,0.3,3.9,1.4,5.5,2.8c2,1.7,3.8,3.6,5.4,5.8c0.4,0.6,0.9,1.2,1.2,1.8c0.5,0.9,1.4,1.5,2.2,2.1c0.1,0.1,0.3,0.1,0.2,0.2c0,0.2-0.2,0.2-0.3,0.2c-0.8,0.2-1.5,0.7-2.2,0.9c-0.7,0.3-1.4,0.4-2.1,0c-1.1-0.8-2.2-1.5-3.2-2.4c-0.9-0.9-1.7-2-2.6-2.9c-1-1.1-2.2-2.1-3.7-2.4c-0.1,0-0.2,0-0.2,0c-0.2,0-0.4,0-0.6,0c-1.5,0-2.8,0.6-4,1.6c-1.3,1.2-2.4,2.6-3.5,4c-0.3,0.4-0.7,0.8-1.2,1.1c-0.3,0.2-0.4,0.2-0.4-0.2c-0.1-1.4-0.7-2.5-2-3.1c-0.2-0.1-0.5-0.3-0.7-0.4c-0.2-0.1-0.2-0.2,0-0.3c1.1-1.2,1.9-2.7,2.9-4c1.5-1.9,3.3-3.6,5.7-4.4C43.2,40.9,44.1,40.9,45,40.9L45,40.9z" style="opacity:0.7;fill:#7FCDDD" />
	</svg>
	 <svg x="1024" y="0" width="1024" height="1024" viewBox="0 0 113.7 72.8" preserveAspectRatio="xMinYMid meet" >
		<path d="M9,9.8H5.6L4,13H2.7L8.1,3h1.2l1.3,10H9.4L9,9.8z M8.9,8.8l-0.2-2C8.6,5.9,8.5,5.1,8.5,4.3 C8.3,4.7,8.1,5.1,7.9,5.5C7.7,5.9,7.2,7,6.2,8.8H8.9z" style="opacity:0.7;fill:#4F7EBF" />
		<path d="M14.6,13h-1.2l1.9-9h-2.8l0.2-1h6.7l-0.2,1h-2.8L14.6,13z" style="opacity:0.7;fill:#4F7EBF" />
		<path d="M23.3,4.1c-0.3,1.3-0.7,2.7-1.1,4.1c-0.4,1.4-0.7,2.4-1,3.1s-0.6,1.2-1,1.5 c-0.4,0.3-0.9,0.4-1.5,0.4c-0.3,0-0.6-0.1-0.9-0.2v-1c0.2,0.1,0.5,0.1,0.7,0.1c0.4,0,0.7-0.1,0.9-0.3s0.5-0.5,0.7-1 s0.5-1.2,0.8-2.3s0.8-2.9,1.5-5.5h4.9l-2.1,10H24l1.9-8.9H23.3z" style="opacity:0.7;fill:#4F7EBF" />
		<path d="M32.8,9.8h-3.4L27.7,13h-1.3l5.5-10h1.2l1.3,10h-1.2L32.8,9.8z M32.7,8.8l-0.2-2 c-0.1-0.8-0.2-1.6-0.2-2.4c-0.2,0.4-0.4,0.8-0.6,1.2S30.9,7,30,8.8H32.7z" style="opacity:0.7;fill:#4F7EBF" />
		<path d="M42.4,13h-1.1l1-4.7h-4.5l-1,4.7h-1.2l2.1-10h1.2L38,7.3h4.5L43.4,3h1.1L42.4,13z" style="opacity:0.7;fill:#4F7EBF" />
		<path d="M47.8,13h-1.2l1.9-9h-2.8L46,3h6.7l-0.2,1h-2.8L47.8,13z" style="opacity:0.7;fill:#4F7EBF" />
		<path d="M54.2,3h1.1l-1.2,5.6l-0.6,2.7h0L59.9,3h1.4l-2.1,10h-1.1l1.2-5.6c0.3-1.3,0.5-2.3,0.6-2.8h0 L53.4,13h-1.4L54.2,3z" style="opacity:0.7;fill:#4F7EBF" />
		<path d="M67,13l0.9-4.1c-0.9,0.4-1.8,0.6-2.7,0.6c-0.7,0-1.2-0.2-1.6-0.5c-0.4-0.3-0.5-0.8-0.5-1.4 c0-0.3,0.1-0.7,0.2-1.1L63.8,3H65l-0.7,3.4c-0.1,0.5-0.1,0.8-0.1,0.9c0,0.4,0.1,0.6,0.3,0.8c0.2,0.2,0.5,0.3,1,0.3 c0.3,0,0.7,0,1.1-0.1c0.4-0.1,0.9-0.2,1.5-0.4l1-4.9h1.2l-2.1,10H67z" style="opacity:0.7;fill:#4F7EBF" />
		<path d="M75.8,13h-5l2.1-10h5l-0.2,1h-3.9l-0.7,3.2h3.6l-0.2,1h-3.6L72.2,12H76L75.8,13z" style="opacity:0.7;fill:#4F7EBF" />
		<path d="M83.8,3.9c-0.8,0-1.5,0.2-2.1,0.7C81,5,80.5,5.7,80.2,6.5c-0.4,0.9-0.6,1.8-0.6,2.8 c0,0.9,0.2,1.5,0.7,2c0.4,0.5,1.1,0.8,1.8,0.8c0.6,0,1.4-0.1,2.2-0.4v1c-0.4,0.1-0.8,0.2-1.1,0.3s-0.8,0.1-1.3,0.1 c-1.1,0-2-0.3-2.6-1c-0.6-0.7-0.9-1.6-0.9-2.8c0-1.2,0.2-2.3,0.7-3.3c0.5-1,1.1-1.8,1.9-2.3s1.7-0.8,2.8-0.8c0.9,0,1.7,0.2,2.4,0.5 l-0.5,1C85.1,4.1,84.4,3.9,83.8,3.9z" style="opacity:0.7;fill:#4F7EBF" />
		<path d="M92.8,13h-1.3l-3.1-5l-1,5h-1.2l2.1-10h1.2l-1,4.9L93.2,3h1.4l-5,5L92.8,13z" style="opacity:0.7;fill:#4F7EBF" />
		<path d="M96.1,3h1.1L96,8.6l-0.6,2.7h0l6.4-8.3h1.4l-2.1,10H100l1.2-5.6c0.3-1.3,0.5-2.3,0.6-2.8h0L95.3,13 h-1.4L96.1,3z" style="opacity:0.7;fill:#4F7EBF" />
		<path d="M105.8,3h1.1l-1.2,5.6l-0.6,2.7h0l6.4-8.3h1.4l-2.1,10h-1.1l1.2-5.6c0.3-1.3,0.5-2.3,0.6-2.8h0 l-6.5,8.4h-1.4L105.8,3z M112.1,0.1c-0.3,1.4-1.2,2.1-2.8,2.1c-0.7,0-1.2-0.1-1.6-0.4s-0.5-0.7-0.5-1.2c0-0.1,0-0.3,0.1-0.5h1 c0,0.2,0,0.3,0,0.4c0,0.6,0.4,0.9,1.2,0.9c0.5,0,0.9-0.1,1.2-0.3c0.3-0.2,0.4-0.5,0.5-1H112.1z" style="opacity:0.7;fill:#4F7EBF" />
		<path d="M46.6,25.8c0,1.2-0.2,2.3-0.6,3.3c-0.4,1-1,1.7-1.7,2.2c-0.7,0.5-1.6,0.8-2.6,0.8c-1.2,0-2.1-0.3-2.7-1c-0.7-0.7-1-1.6-1-2.9c0-1.2,0.2-2.3,0.7-3.3s1-1.8,1.8-2.3s1.6-0.8,2.6-0.8c1.1,0,2,0.4,2.6,1.1S46.6,24.6,46.6,25.8z M43,22.9c-0.7,0-1.4,0.2-1.9,0.7s-1,1.1-1.3,1.9s-0.5,1.7-0.5,2.7c0,0.9,0.2,1.6,0.7,2.1c0.4,0.5,1.1,0.8,1.8,0.8c0.7,0,1.3-0.2,1.9-0.7c0.5-0.4,1-1.1,1.3-1.9s0.5-1.7,0.5-2.8c0-0.9-0.2-1.6-0.6-2.1C44.3,23.1,43.7,22.9,43,22.9z" style="opacity:0.7;fill:#4F7EBF" />
		<path d="M54.4,32H53l-3.1-5l-1,5h-1.2l2.1-10h1.2l-1,4.9l4.8-4.9h1.4l-5,5L54.4,32z" style="opacity:0.7;fill:#4F7EBF" />
		<path d="M60.5,32h-5l2.1-10h5l-0.2,1h-3.9l-0.7,3.2h3.6l-0.2,1h-3.6L56.9,31h3.9L60.5,32z" style="opacity:0.7;fill:#4F7EBF" />
		<path d="M67.6,28.8h-3.4L62.6,32h-1.3l5.5-10h1.2l1.3,10H68L67.6,28.8z M67.5,27.8l-0.2-2c-0.1-0.8-0.2-1.6-0.2-2.4c-0.2,0.4-0.4,0.8-0.5,1.2s-0.8,1.5-1.7,3.2H67.5z" style="opacity:0.7;fill:#4F7EBF" />
		<path d="M77.3,32h-1.1l1-4.7h-4.5l-1,4.7h-1.2l2.1-10h1.2l-0.9,4.3h4.5l0.9-4.3h1.1L77.3,32z" style="opacity:0.7;fill:#4F7EBF" />
		<path d="M16.2,9.7c-0.6,0-1.1,0.1-1.7,0.2c-1.3,0.2-2.5,0.8-3.4,1.7C9,14,8,16.8,7.8,20c-0.1,1.8,0.2,3.5,0.5,5.2c0.2,0.9,0.8,1.1,1.5,0.5c0.9-0.8,1.9-1.3,3.1-1.7c1.3-0.3,2.5-0.8,3.5-1.7c0,0,0.1-0.1,0.2,0c-0.2,0.4-0.3,0.8-0.5,1.2c-0.7,1.9-1.8,3.6-2.5,5.5c-1.2,2.8-1.9,5.6-2.4,8.6c-0.2,1.3-0.3,2.5-0.3,3.8c0,1.1-0.2,2.3,0,3.4c0.5,2.8,1.1,5.5,2.4,8c0,0.3-0.2,0.1-0.3,0.1c-0.7-0.3-1.4-0.5-2.2-0.8c-1.9-0.7-3.8-1.3-5.9-0.9c-1.3,0.2-2.5,0.6-3.4,1.6c-0.5,0.6-0.9,1.2-1.1,1.9c0.7-0.9,1.7-1.3,2.7-1.7c1.4-0.5,2.8-0.7,4.3-0.3c1.9,0.6,3.7,1.2,5.5,2.1c2.6,1.2,5.1,1.3,7.7,0.2c0.9-0.4,1.7-0.8,2.5-1.3c1.3-0.8,2.8-1.4,4.2-2c2-0.9,4-0.8,5.8,0.5c1.1,0.8,1.4,2.4,0.7,3.4c-0.7,0.9-1.6,1.5-2.7,1.5c-0.8,0-1.4-0.4-1.6-1.1c-0.2-0.8,0.1-1.4,0.8-1.9c0.5-0.3,1-0.4,1.3,0.3c0,0.1,0.1,0.2,0.2,0.1c0.1,0,0.1-0.2,0.1-0.2c0-0.6-0.4-1.1-1-1.1c-0.5,0-0.9,0.1-1.3,0.4c-0.7,0.5-1,1.1-1.2,2c-0.3,1.8,0.8,3.1,2.7,3.1c1.8,0,3.3-0.9,4.3-2.5c0.2-0.3,0.3-0.4,0.7-0.5c0.9-0.2,1.7-0.7,2.3-1.3c0.8-0.9,1.5-1.8,2.2-2.8c0.8-1.2,1.9-1.9,3.2-2.3c0.7-0.2,1.3-0.4,2-0.2c1.5,0.4,2.6,1.2,3.4,2.5c0.6,0.9,1.4,1.8,2.2,2.6c0.5,0.5,1,1.1,1.5,1.7c-0.8,0-1.5,0-2.3-0.2c-1.7-0.4-3.2-1.1-4.6-2c-0.1,0-0.2-0.2-0.3-0.1c-0.1,0.1,0,0.2,0,0.4c0.3,0.7,0.8,1.4,1.3,2c1.4,1.5,3.3,1.9,5.2,2c2.7,0.2,5.1-0.5,7.5-1.7c1.4-0.7,2.7-1.6,4-2.4c2.9-1.8,5.9-2.4,9.1-1.6c1.5,0.4,2.9,0.9,3.9,2.3c0.8,1.2,1.2,3.2-0.6,4.3c-0.3,0.2-0.5,0.4-0.8,0.6c-1.1,0.6-2.2,0.9-3.4,0.2c-1.1-0.7-1.5-2-0.8-3.1c0.2-0.4,0.5-0.6,1-0.5c0.3,0,0.6,0.2,0.8,0.4c0.1,0.1,0.2,0.2,0.3,0.1c0.1-0.1,0.1-0.3,0-0.4c0-0.1-0.1-0.2-0.2-0.3c-0.9-1.2-2.9-1.1-3.6,0.3c-0.7,1.5-0.5,2.9,0.5,4.1c1,1.2,2.3,1.8,3.9,1.5c1.4-0.2,2.6-1,3.7-1.9c1.4-1.2,2-2.6,1.6-4.5c0-0.2,0-0.4,0.2-0.5c0.7-0.6,1.3-1.4,1.7-2.3c0.6-1.3,0.9-2.5,0.7-3.9c-0.5-2.7-1.5-5.2-3.4-7.3c-0.7-0.8-1.4-1.5-2-2.3c-1-1.4-1.2-3-0.9-4.7c0.4-2.4,1.7-4.2,3.9-5.2c0.3-0.1,0.6-0.3,0.9-0.6c-0.7,0-1.3,0-1.9,0.1c-2.7,0.6-4.8,2-6.2,4.5c-0.7,1.3-1.1,2.7-1,4.1c0,1.3,0.5,2.5,1,3.7c0.4,1.1,1.2,2.1,1.7,3.1c0.8,1.8,0.6,4-0.7,5.5c-0.2,0.2-0.3,0.3-0.6,0.2c-1.8-0.4-3.7-0.2-5.5,0.2c-1.7,0.4-3.1,1.1-4.5,2c-0.2,0.1-0.3,0.2-0.5,0c-0.8-0.7-1.7-1.3-2.4-2.1c-1.4-1.7-2.9-3.3-4.1-5.1c-1.3-1.8-2.7-3.4-4.7-4.5c-1.9-1.1-4-1.7-6.2-1.7c-1.8,0-3.5,0.6-5.2,1.5c-2.7,1.4-4.7,3.5-6.6,5.8c-0.7,0.9-1.3,1.8-2,2.7c-0.2,0.4-0.5,0.5-1,0.5c-1.1,0-2.3,0.1-3.4,0.6c-0.4,0.2-0.7,0.1-1-0.2c-1.4-1.1-2.3-2.6-3-4.3c-0.3-0.8-0.6-1.6-1-2.4c-1-2.1-1.5-4.4-1.7-6.8c-0.2-2.4,0.1-4.7,0.8-7c0.5-1.5,1.2-2.8,1.7-4.2c0.9-2.6,1.7-5.3,1.3-8.2c-0.3-2.3-1.3-4.3-3.2-5.6C19.4,10.1,17.9,9.7,16.2,9.7z M15.9,11.4c0.8,0,1.7,0.1,2.6,0.4c2.3,0.8,3.5,2.5,4,4.9c0.4,2.3,0,4.5-0.7,6.8c-0.3,1.1-0.8,2.1-1.3,3.1c-0.7,1.3-1,2.8-1.2,4.3c-0.2,1.5-0.4,3-0.5,4.6c-0.2,3,0.4,5.8,1.3,8.5c0.5,1.5,1,3,1.8,4.3c0.6,0.9,1.2,1.9,2,2.6c0.2,0.1,0.3,0.2,0,0.4c-1.4,0.7-2.7,1.7-4.2,2.3c-1.3,0.6-2.8,0.8-4.2,0.5c-0.3,0-0.4-0.2-0.5-0.4c-0.8-1.7-1.3-3.6-1.8-5.4c-0.4-1.7-0.5-3.5-0.6-5.3c0-2.9,0.4-5.8,1-8.7c0.6-2.7,1.6-5.3,2.8-7.8c0.8-1.7,1.3-3.6,1.7-5.5c0.1-0.5,0.3-1,0.5-1.5c0.3-1.5-0.2-3-1.4-4c-1-0.7-2.3-0.6-3.1,0.4c-0.5,0.6-0.8,1.1-0.8,1.9c0,0.8,0.4,1.3,1.1,1.6c0.4,0.1,0.9,0.3,1.3,0.1c0.2-0.1,0.4-0.2,0.5-0.4c0.1-0.1,0.1-0.3,0-0.4c-0.1-0.1-0.2-0.1-0.3,0c-0.5,0.1-0.9-0.1-1.1-0.5c-0.2-0.4,0.1-1.1,0.5-1.4c0.4-0.3,0.7-0.3,1.1,0.1c1.3,1.1,1.1,3.2-0.3,4.4c-1,0.8-2.1,1.3-3.3,1.6c-1.1,0.3-2.2,0.7-3.1,1.5c-0.2,0.2-0.3,0.2-0.3-0.1c-0.3-1.8-0.2-3.6,0-5.3c0.3-1.8,1-3.5,1.9-5.1c0.7-1.2,1.8-1.9,3.1-2.2C14.9,11.4,15.4,11.4,15.9,11.4z M75.6,31.3c0.2,0.1,0.2,0.1,0.1,0.2c-1,1.8-1.5,3.8-1.2,5.8c0.2,1,0.5,1.9,1.1,2.7c0.7,1.1,1.6,2,2.4,2.9c1.2,1.3,1.8,2.8,2,4.5c0.1,0.7,0.3,1.4,0.3,2.1c0,1.4-0.7,2.4-1.5,3.5c-0.2,0.3-0.3,0-0.4-0.2c-0.6-0.8-1.3-1.3-2.1-1.7c-0.2-0.1-0.4-0.2-0.7-0.3c-0.3-0.1-0.3-0.2-0.2-0.6c0.5-1.2,0.8-2.5,0.9-3.9c0-1.6-0.5-3-1.2-4.3c-0.9-1.6-1.5-3.3-1.5-5.1C73.5,34.9,74.1,32.9,75.6,31.3z M45,40.9c0.3,0,0.6,0,0.9,0c2.2,0.3,3.9,1.4,5.5,2.8c2,1.7,3.8,3.6,5.4,5.8c0.4,0.6,0.9,1.2,1.2,1.8c0.5,0.9,1.4,1.5,2.2,2.1c0.1,0.1,0.3,0.1,0.2,0.2c0,0.2-0.2,0.2-0.3,0.2c-0.8,0.2-1.5,0.7-2.2,0.9c-0.7,0.3-1.4,0.4-2.1,0c-1.1-0.8-2.2-1.5-3.2-2.4c-0.9-0.9-1.7-2-2.6-2.9c-1-1.1-2.2-2.1-3.7-2.4c-0.1,0-0.2,0-0.2,0c-0.2,0-0.4,0-0.6,0c-1.5,0-2.8,0.6-4,1.6c-1.3,1.2-2.4,2.6-3.5,4c-0.3,0.4-0.7,0.8-1.2,1.1c-0.3,0.2-0.4,0.2-0.4-0.2c-0.1-1.4-0.7-2.5-2-3.1c-0.2-0.1-0.5-0.3-0.7-0.4c-0.2-0.1-0.2-0.2,0-0.3c1.1-1.2,1.9-2.7,2.9-4c1.5-1.9,3.3-3.6,5.7-4.4C43.2,40.9,44.1,40.9,45,40.9L45,40.9z" style="opacity:0.7;fill:#7FCDDD" />
	</svg>
	 <svg x="2048" y="0" width="1024" height="1024" viewBox="0 0 87.3 63.1" preserveAspectRatio="xMinYMid meet" >
		<path d="M6.7,15.8L9,5.1h1.2L7.9,15.8H6.7z" style="opacity:0.7;fill:#4F7EBF" />
		<path d="M18.5,15.8h-1.3l-3.4-9h0C13.6,8,13.4,9,13.2,9.9L12,15.8h-1.2L13,5.1h1.3l3.4,8.9h0c0.1-1.1,0.3-2.1,0.5-3l1.3-6h1.2L18.5,15.8z" style="opacity:0.7;fill:#4F7EBF" />
		<path d="M30.2,9.4c0,1.3-0.3,2.4-0.8,3.4s-1.2,1.7-2.2,2.3s-2.1,0.8-3.3,0.8h-2.6l2.3-10.7h2.5c1.3,0,2.4,0.4,3.1,1.1C29.9,7,30.2,8,30.2,9.4z M24,14.8c1,0,1.9-0.2,2.6-0.7c0.7-0.4,1.3-1.1,1.7-1.9c0.4-0.8,0.6-1.7,0.6-2.8S28.6,7.6,28.1,7c-0.5-0.5-1.2-0.8-2.2-0.8h-1.3l-1.8,8.6H24z" style="opacity:0.7;fill:#4F7EBF" />
		<path d="M31.3,15.8l2.3-10.7h1.2l-2.3,10.7H31.3z" style="opacity:0.7;fill:#4F7EBF" />
		<path d="M40.7,12.4h-3.6l-1.8,3.4h-1.4l5.9-10.7H41l1.3,10.7h-1.2L40.7,12.4z M40.6,11.3l-0.3-2.2c-0.1-0.9-0.2-1.7-0.2-2.6c-0.2,0.4-0.4,0.9-0.6,1.3c-0.2,0.4-0.8,1.6-1.8,3.5H40.6z" style="opacity:0.7;fill:#4F7EBF" />
		<path d="M51.4,15.8h-1.3l-3.4-9h0C46.5,8,46.4,9,46.2,9.9l-1.3,5.9h-1.2L46,5.1h1.3l3.4,8.9h0c0.1-1.1,0.3-2.1,0.5-3l1.3-6h1.2L51.4,15.8z" style="opacity:0.7;fill:#4F7EBF" />
		<path d="M24.2,28.2c0,1.3-0.2,2.5-0.6,3.5s-1,1.8-1.8,2.4C20.9,34.7,20,35,18.9,35c-1.3,0-2.2-0.4-2.9-1.1s-1-1.8-1-3.1c0-1.3,0.2-2.5,0.7-3.5s1.1-1.9,1.9-2.5s1.7-0.9,2.8-0.9c1.2,0,2.1,0.4,2.8,1.1S24.2,26.9,24.2,28.2z M20.3,25.1c-0.8,0-1.5,0.2-2.1,0.7s-1.1,1.2-1.4,2.1c-0.3,0.9-0.5,1.9-0.5,2.9c0,1,0.2,1.7,0.7,2.3c0.5,0.5,1.1,0.8,1.9,0.8c0.7,0,1.4-0.2,2-0.7c0.6-0.5,1.1-1.2,1.4-2s0.5-1.9,0.5-3c0-1-0.2-1.7-0.7-2.3S21.1,25.1,20.3,25.1z" style="opacity:0.7;fill:#4F7EBF" />
		<path d="M31.6,25.1c-0.8,0-1.6,0.2-2.3,0.7c-0.7,0.5-1.2,1.2-1.6,2.1c-0.4,0.9-0.6,1.9-0.6,3c0,0.9,0.2,1.6,0.7,2.2c0.5,0.5,1.1,0.8,2,0.8c0.7,0,1.5-0.1,2.4-0.4v1.1c-0.4,0.2-0.8,0.3-1.2,0.3S30.1,35,29.6,35c-1.2,0-2.1-0.4-2.8-1.1s-1-1.7-1-3c0-1.3,0.3-2.5,0.8-3.6c0.5-1.1,1.2-1.9,2.1-2.5s1.9-0.9,3-0.9c1,0,1.8,0.2,2.5,0.6l-0.5,1C32.9,25.3,32.2,25.1,31.6,25.1z" style="opacity:0.7;fill:#4F7EBF" />
		<path d="M39.4,34.8h-5.4l2.3-10.7h5.4l-0.2,1.1h-4.1l-0.7,3.4h3.9l-0.2,1.1h-3.9l-0.8,3.9h4.1L39.4,34.8z" style="opacity:0.7;fill:#4F7EBF" />
		<path d="M47.1,31.4h-3.6l-1.8,3.4h-1.4l5.9-10.7h1.3l1.3,10.7h-1.2L47.1,31.4z M46.9,30.3l-0.3-2.2c-0.1-0.9-0.2-1.7-0.2-2.6c-0.2,0.4-0.4,0.9-0.6,1.3c-0.2,0.4-0.8,1.6-1.8,3.5H46.9z" style="opacity:0.7;fill:#4F7EBF" />
		<path d="M57.8,34.8h-1.3l-3.4-9h0c-0.2,1.1-0.3,2.1-0.5,3.1l-1.3,5.9H50l2.3-10.7h1.3l3.4,8.9h0c0.1-1.1,0.3-2.1,0.5-3l1.3-6H60L57.8,34.8z" style="opacity:0.7;fill:#4F7EBF" />
		<path d="M61.6,9.6c-0.1,0-0.2,0.1-0.2,0.1c-2.4,1.6-4.1,3.9-5.2,6.6c-0.1,0.2-0.2,0.3-0.4,0.4c-0.8,0.3-1.1,1-1.2,1.8c-0.1,0.7,0.2,1.1,0.8,1.5c0.1,0.1,0.2,0.2,0.2,0.3c0,0.5,0,1.1,0.1,1.6c0,0.3,0.2,0.5,0,0.8c-0.5,0.6-0.5,1.3-0.5,2c0,0.6,0.2,1.2,0.8,1.6c0.6,0.3,1.1,0.6,1.7,0.3c0.2-0.1,0.3,0,0.4,0.1c0.6,0.7,1.3,1.2,2,1.7c0.2,0.2,0.2,0.3,0.1,0.5c-0.1,0.2-0.2,0.4-0.2,0.7c-0.3,1.4,0.6,2.6,1.9,2.8c0.2,0,0.2,0.1,0.2,0.3c0,0.7-0.1,1.5-0.3,2.2c-0.1,0.3-0.2,0.4-0.4,0.4c-0.8,0.1-1.5,0.4-1.9,1.1c-0.5,0.8-0.6,1.6-0.5,2.6c0,0.2,0,0.3-0.1,0.4c-0.5,0.6-1,1.1-1.5,1.8c-0.1,0.1-0.2,0.2-0.3,0.2c-1,0.1-1.6,0.8-2.1,1.6c-0.6,0.9-0.4,1.9,0.2,2.8c0.2,0.2,0.2,0.4,0.2,0.7c-0.1,0.7-0.1,1.4,0,2.1c0.1,0.3-0.1,0.3-0.3,0.3c-0.4,0-0.8,0-1.3,0.1c-1.3,0.3-2.4,0.9-3.5,1.7c-0.9,0.6-1.8,1.2-2.5,2c-0.2,0.2-0.5,0.4-0.8,0.7c0-0.2,0-0.2,0-0.3c0.6-1.9,0.7-3.9,0.4-5.9c-0.1-0.3,0-0.6,0.2-0.9c0.6-0.9,0.7-1.8,0.4-2.8c-0.3-0.8-0.8-1.2-1.6-1.2c-0.1,0-0.2-0.1-0.2-0.2c-0.4-1-1-1.9-1.7-2.8c-0.1-0.1-0.2-0.2-0.1-0.3c0.2-0.8,0.1-1.5-0.3-2.2c-0.7-1.2-1.9-1.2-2.7-0.4c-0.2,0.2-0.3,0.2-0.6,0.1c-1.1-0.6-2.3-0.9-3.6-0.9c-2-0.1-4,0.4-6,0.7c-1.4,0.2-2.7,0.1-3.9-0.5c-1.4-0.7-2-1.9-2.3-3.3c-0.3-1.2-0.3-2.3-0.2-3.5c0-0.2,0-0.3,0-0.5c0-0.1-0.2-0.3-0.3-0.1c-0.6,0.7-1.3,1.4-1.7,2.3c-0.5,1.5-0.8,2.9-0.7,4.5c0.1,1.3,0.4,2.5,1,3.6c0.5,0.9,1.1,1.6,1.9,2.2c1.5,1.3,3.2,1.8,5.2,1.5c1-0.2,1.9-0.6,2.9-0.9c0.9-0.3,1.8-0.5,2.7-0.3c1.6,0.4,2.8,1.3,3.7,2.8c0.8,1.3,1.2,2.7,0.9,4.2c-0.1,0.5-0.2,0.9-0.3,1.4c0,0.3-0.1,0.3-0.3,0.2c-0.5-0.2-1.1-0.3-1.6-0.2c-1,0.1-1.9,0.5-2.7,1.1c-0.6,0.5-1.3,1-1.6,1.8c-0.3,0.6-0.4,1.3-0.6,2c0.1-0.1,0.2-0.2,0.3-0.3c0.6-1.1,1.5-2,2.6-2.7c1.8-1.3,3.9-0.8,5.3,0.8c0.6,0.7,1.2,1.5,2.1,2c0.9,0.5,1.9,0.9,2.9,0.7c0.9-0.2,1.5-0.7,2.2-1.3c1.3-1.2,2.8-2.2,4.4-2.9c1.5-0.6,3.9-0.5,5,1.6c0.6,1.1,1.3,2.1,2.5,2.6c1.5,0.6,3,0.7,4.5-0.1c0.8-0.5,1.5-1.2,2-1.9c0.4-0.5,0.8-1,1.3-1.4c1.1-0.9,2.3-1.1,3.6-0.8c1.1,0.2,2.1,0.5,2.8,1.5c0.6,0.8,1.1,1.5,1.7,2.3c0.9,1.3,2,2.3,3.5,2.7c1.6,0.5,3.1,0.4,4.5-0.6c0.8-0.6,1.5-1.4,2.1-2.3c1.3-2.1,1.2-4.9-0.5-6.8c-0.8-0.9-1.7-1.4-2.9-1.1c-1.9,0.4-3.3,1.6-3.8,3.6c-0.3,1.1,0,2.2,0.9,2.9c0.8,0.6,1.8,0.6,2.7,0c0.7-0.5,1.1-1.6,0.9-2.5c-0.1-0.3-0.4-0.6-0.7-0.5c-0.3,0.1-0.5,0.3-0.5,0.7c0,0.4-0.6,1.2-1,1.2c-0.1,0-0.2,0-0.3-0.1c-0.3-0.2-0.5-0.4-0.5-0.8c-0.1-1.2,0.7-2.4,2-3c0.7-0.3,1.4-0.3,1.9,0.3c0.1,0.1,0.2,0.2,0.3,0.3c0.6,0.7,0.9,1.6,0.8,2.5c-0.1,1-0.4,1.8-0.9,2.7c-0.6,0.9-1.4,1.7-2.5,2c-1.4,0.3-2.5-0.2-3.5-1.1c-0.8-0.7-1.4-1.7-2-2.6c-0.5-0.6-1-1.3-1.6-1.9C75,50.1,74.9,50,75,49.7c0.1-0.2,0.1-0.3,0.2-0.4l1-1.4c0.6-0.8,1.3-1.6,1.8-2.5c1.2-2.4,0.8-4.7-0.6-6.9c-0.7-1.1-1.7-1.8-2.8-2.4c-0.5-0.2-0.9-0.5-1.3-0.9c-0.9-1.1-0.5-2.8,0.2-3.6c0.6-0.6,1.3-1.1,2-1.6c1.6-1.1,3.3-2.2,4.7-3.8c1.8-2.2,2.7-4.6,2.6-7.4c0-2.2-0.9-4-2.3-5.6c-0.8-0.9-1.8-1.3-2.9-1.6c-0.6-0.2-1.2-0.2-1.8-0.1c0.3,0.2,0.6,0.4,1,0.6c0.9,0.8,1.8,1.6,2.1,2.8c0.2,0.8,0.3,1.5,0.2,2.3c-0.2,1.3-0.5,2.5-1.3,3.6c-1.1,1.4-2.5,2.4-4.1,3.1c-1,0.4-2,0.8-2.9,1.4c-1.1,0.7-2.2,1.4-3,2.4c-0.3,0.4-0.6,0.8-0.9,1.2c-0.3-0.8-0.7-1.5-1.2-2.1c-0.6-0.7-1.2-1.3-1.9-1.8c-1.2-0.9-2.3-1.8-3.2-3.1c-0.9-1.3-1.2-2.7-1.2-4.2c0-1.1,0.2-2.3,0.4-3.4c0.2-1.3,0.6-2.6,1.4-3.7c0.2-0.3,0.4-0.7,0.6-1C61.6,9.6,61.6,9.6,61.6,9.6zM59.6,11.9c0.1,0.1,0,0.2-0.1,0.3c-0.6,1.4-1,2.9-1.2,4.4c-0.2,1.6-0.3,3.3,0.5,4.9c0.6,1.2,1.3,2.3,2.4,3.2c0.8,0.7,1.7,1.3,2.5,2c1,0.9,2,2,2.5,3.4c0.1,0.2,0,0.3,0,0.4c-0.8,2.1-0.8,4.1,0.1,6.1c0.1,0.2,0.1,0.4,0,0.6c-0.3,1.3-0.9,2.5-1.5,3.6c-0.2,0.3-0.5,0.6-0.7,0.9c-1,0.9-1.9,1.8-2.4,3.1c-0.3,0.7-0.4,1.5-0.6,2.2c-0.2,1.4-0.2,2.7,0.2,4c0.3,1,0.8,1.9,1.5,2.7c0.1,0.1,0.2,0.1,0.1,0.2C62.8,54,62.7,54,62.6,54c-1.2-0.1-2.3-0.5-2.9-1.7c-0.5-1-1.2-2-2.2-2.6c0,0,0,0-0.1,0c-1-0.3-1-1.2-1.1-2c-0.1-1.4,0.3-2.7,0.8-3.9c0.5-1.1,1.1-2,1.9-2.8c0.5-0.6,1.1-1.2,1.6-1.8c1.5-1.8,2.4-3.7,2.4-6.1c0-1.4-0.5-2.6-1.1-3.7c-0.5-0.8-1.1-1.4-1.8-2c-0.8-0.8-1.8-1.4-2.5-2.2c-1.2-1.6-1.5-3.4-1.3-5.3c0.1-1.6,0.5-3.1,1.1-4.5c0.5-1.1,1.2-2.2,2-3.2c0,0,0,0,0,0l0,0C59.5,12,59.5,11.9,59.6,11.9L59.6,11.9z M79.4,13.9c0.9,1,1.5,2.2,1.8,3.5c0.5,2.3,0,4.5-1.2,6.5c-0.6,1.1-1.5,2-2.5,2.8c-1,0.8-2,1.4-3,2.1c-0.9,0.6-1.9,1.2-2.5,2.3c-1,1.7-1,3.7,0.4,5.3c0.4,0.5,1,0.8,1.6,1.1c1.8,0.9,2.8,2.4,3.2,4.4c0.2,1.2-0.1,2.4-0.9,3.4c-0.6,0.8-1.3,1.7-1.9,2.5c-0.3,0.4-0.5,0.8-0.6,1.3c-0.1,0.2-0.1,0.3-0.4,0.2c-0.8-0.2-1.7-0.3-2.5-0.3c-0.4,0-0.8,0.1-1.2,0.2c0.3-0.7,0.7-1.2,1.1-1.7c0.6-0.8,1.2-1.5,1.7-2.3c1-1.6,1.1-3.3,0.1-4.9c-0.3-0.5-0.8-0.9-1.3-1.2c-0.7-0.5-1.5-0.9-2.3-1.3c-1.5-0.9-2.1-2.2-2.3-3.9c-0.2-2.3,0.7-4.2,2.3-5.8c1.2-1.2,2.7-2.1,4.3-2.8c1.7-0.7,3.3-1.6,4.6-3c1.2-1.3,1.8-2.8,2-4.5c0.2-1.3-0.1-2.6-0.6-3.8C79.3,13.9,79.4,13.9,79.4,13.9z M55.7,17.8L55.7,17.8c0.1,0.1,0,0.2,0,0.3c0,0.3-0.1,0.7-0.1,1.1c-0.3-0.4-0.3-0.7,0.1-1.2c0,0,0,0,0,0L55.7,17.8C55.6,17.9,55.6,17.8,55.7,17.8L55.7,17.8z M55.9,23.9c0.3,0.8,0.7,1.5,1.2,2.2c-0.5,0.1-0.8-0.1-1-0.4C55.8,25.1,55.5,24.6,55.9,23.9z M60.4,29.1c0.6,0.8,1,1.5,1.3,2.3C61,31.2,60.3,30.1,60.4,29.1z M23.6,31.2c0,1.1,0.2,2.1,0.6,3.1c0.8,2.1,2.3,3.2,4.4,3.6c1.5,0.3,2.9,0.2,4.4,0c1.5-0.3,3.1-0.4,4.6-0.3c1.1,0.1,2.2,0.5,3.1,1.2c0.5,0.4,1,0.8,1.5,1.1c1.1,0.9,1.9,2.1,2.3,3.5c0.3,1,0.6,2.1,0.8,3.2c0.4,2.2,0.4,4.3-0.2,6.4c0,0.1-0.1,0.3-0.1,0.4c0,0.4,0,0.4-0.4,0.3c-0.8-0.3-1.4-0.8-1.9-1.3c-0.4-0.5-0.8-1-1.4-1.4c-0.1-0.1-0.2-0.1-0.1-0.3c0.7-1.4,0.9-2.9,0.6-4.4C41,43.1,39.2,40.9,36,40c-1.3-0.3-2.5,0-3.7,0.3c-0.9,0.3-1.8,0.7-2.7,0.8c-1.5,0.3-2.9-0.1-4.1-1.1c-1.8-1.5-2.6-3.5-2.6-5.8C23.1,33.2,23.1,32.2,23.6,31.2z M61.1,36.2C61.2,36.2,61.2,36.2,61.1,36.2c0.1,0.1,0.1,0.2,0,0.2c-0.4,0.7-0.9,1.4-1.5,1.9c-0.1-0.9,0.5-1.8,1.3-2.1C61,36.3,61.1,36.2,61.1,36.2L61.1,36.2z M42,37c0.8,0,1.4,0.7,1.4,1.6c-0.6-0.4-1.2-0.9-1.8-1.3c-0.2-0.1-0.1-0.2,0.1-0.2C41.8,37,41.9,37,42,37z M67.2,38.1c0,0,0.1,0,0.2,0.1c0.9,0.8,2,1.4,3.1,2c1.6,0.9,2,3,0.8,4.5c-0.7,1-1.5,2-2.3,3c-0.5,0.6-0.8,1.3-1,2.1c0,0.2-0.1,0.3-0.2,0.4c-1,0.7-1.7,1.6-2.4,2.5c-0.2,0.3-0.5,0.6-0.8,0.8c-0.1,0.1-0.2,0.1-0.3,0c-1.4-1.5-1.9-3.2-1.9-5.7c0-0.5,0.1-1.6,0.5-2.5c0.3-0.8,0.9-1.5,1.5-2.1c1-1.1,1.9-2.3,2.5-3.6c0.2-0.3,0.2-0.7,0.3-1.1C67.1,38.2,67.1,38.1,67.2,38.1L67.2,38.1z M56.4,42.4c-0.3,0.8-0.6,1.6-0.9,2.4C55.2,44.3,55.7,42.8,56.4,42.4z M46.4,42.9c0.1,0,0.1,0,0.2,0c0.1,0.1,0.2,0.2,0.2,0.3c0.3,0.7,0.5,1.3,0.3,2.2c-0.2-0.8-0.5-1.6-0.7-2.3C46.3,43,46.3,42.9,46.4,42.9z" style="opacity:0.7;fill:#7FCDDD" />
		<path d="M25.1,52.4c-0.4-0.1-0.6-0.1-0.8,0.3c-0.5,1.1-0.2,1.8,0.9,2c0.8,0.1,1.5-0.5,1.8-1.4c0.3-1-0.2-2.1-1.1-2.7c-0.6-0.4-1.4-0.6-2-0.3c-0.7,0.3-1.3,0.9-1.7,1.7c-1.3,2.5-0.9,4.9,0.6,7.2c1,1.6,2.6,2.1,4.3,2.4c1.9,0.3,3.4-0.7,4.8-1.8c0.9-0.7,1.6-1.6,2.6-2.3c1-0.7,2.1-1.3,3.3-1.3c1.3,0,2.4,0.4,3.3,1.5c0.6,0.7,1.1,1.4,1.6,2.1c1,1.3,2.7,2.1,4.6,0.9c0.7-0.5,1.3-1,1.9-1.7c0.8-1,1.9-1.9,3.2-2.1c1.3-0.3,2.4-0.1,3.3,1c0.4,0.5,1,0.9,1.4,1.4c0.2,0.2,0.4,0.4,0.2,0.6c-0.2,0.2-0.4,0-0.6-0.2c-0.4-0.3-0.8-0.6-1.2-0.9c-1.8-1.3-3.7-0.8-5,0.8c-0.7,0.8-1.3,1.7-2.2,2.2c-0.9,0.6-1.8,1.1-3,1.1c-1.3,0-2.3-0.6-3.2-1.5c-0.8-0.7-1.5-1.6-2.1-2.5c-0.9-1.2-2.3-1.6-3.6-0.9c-1,0.5-1.9,1.1-2.6,1.9c-0.9,0.9-1.9,1.6-2.9,2.2c-1.2,0.8-2.4,1-3.8,0.9c-1-0.1-1.9-0.3-2.7-0.7c-2.5-1.3-3.9-3.4-4.2-6.2c-0.3-2.2,0.3-4.1,1.7-5.8c1.1-1.3,2.4-1.7,4.1-1.1c2.1,0.8,3,3.5,1.4,5.5c-0.8,1-2.7,1.6-3.9,0.1c-0.4-0.5-0.5-1.1-0.2-1.7c0.2-0.4,0.5-0.9,1-1.1C24.6,52,25,52.1,25.1,52.4z" style="opacity:0.7;fill:#7FCDDD" />
	</svg>
	 <svg x="3072" y="0" width="1024" height="1024" viewBox="0 0 87.3 63.1" preserveAspectRatio="xMinYMid meet" >
		<path d="M61.6,9.6c-0.1,0-0.2,0.1-0.2,0.1c-2.4,1.6-4.1,3.9-5.2,6.6c-0.1,0.2-0.2,0.3-0.4,0.4c-0.8,0.3-1.1,1-1.2,1.8c-0.1,0.7,0.2,1.1,0.8,1.5c0.1,0.1,0.2,0.2,0.2,0.3c0,0.5,0,1.1,0.1,1.6c0,0.3,0.2,0.5,0,0.8c-0.5,0.6-0.5,1.3-0.5,2c0,0.6,0.2,1.2,0.8,1.6c0.6,0.3,1.1,0.6,1.7,0.3c0.2-0.1,0.3,0,0.4,0.1c0.6,0.7,1.3,1.2,2,1.7c0.2,0.2,0.2,0.3,0.1,0.5c-0.1,0.2-0.2,0.4-0.2,0.7c-0.3,1.4,0.6,2.6,1.9,2.8c0.2,0,0.2,0.1,0.2,0.3c0,0.7-0.1,1.5-0.3,2.2c-0.1,0.3-0.2,0.4-0.4,0.4c-0.8,0.1-1.5,0.4-1.9,1.1C59,37.2,58.9,38,59,39c0,0.2,0,0.3-0.1,0.4c-0.5,0.6-1,1.1-1.5,1.8c-0.1,0.1-0.2,0.2-0.3,0.2c-1,0.1-1.6,0.8-2.1,1.6c-0.6,0.9-0.4,1.9,0.2,2.8c0.2,0.2,0.2,0.4,0.2,0.7c-0.1,0.7-0.1,1.4,0,2.1c0.1,0.3-0.1,0.3-0.3,0.3c-0.4,0-0.8,0-1.3,0.1c-1.3,0.3-2.4,0.9-3.5,1.7c-0.9,0.6-1.8,1.2-2.5,2c-0.2,0.2-0.5,0.4-0.8,0.7c0-0.2,0-0.2,0-0.3c0.6-1.9,0.7-3.9,0.4-5.9c-0.1-0.3,0-0.6,0.2-0.9c0.6-0.9,0.7-1.8,0.4-2.8c-0.3-0.8-0.8-1.2-1.6-1.2c-0.1,0-0.2-0.1-0.2-0.2c-0.4-1-1-1.9-1.7-2.8c-0.1-0.1-0.2-0.2-0.1-0.3c0.2-0.8,0.1-1.5-0.3-2.2c-0.7-1.2-1.9-1.2-2.7-0.4c-0.2,0.2-0.3,0.2-0.6,0.1c-1.1-0.6-2.3-0.9-3.6-0.9c-2-0.1-4,0.4-6,0.7c-1.4,0.2-2.7,0.1-3.9-0.5c-1.4-0.7-2-1.9-2.3-3.3c-0.3-1.2-0.3-2.3-0.2-3.5c0-0.2,0-0.3,0-0.5c0-0.1-0.2-0.3-0.3-0.1c-0.6,0.7-1.3,1.4-1.7,2.3c-0.5,1.5-0.8,2.9-0.7,4.5c0.1,1.3,0.4,2.5,1,3.6c0.5,0.9,1.1,1.6,1.9,2.2c1.5,1.3,3.2,1.8,5.2,1.5c1-0.2,1.9-0.6,2.9-0.9c0.9-0.3,1.8-0.5,2.7-0.3c1.6,0.4,2.8,1.3,3.7,2.8c0.8,1.3,1.2,2.7,0.9,4.2c-0.1,0.5-0.2,0.9-0.3,1.4c0,0.3-0.1,0.3-0.3,0.2c-0.5-0.2-1.1-0.3-1.6-0.2c-1,0.1-1.9,0.5-2.7,1.1c-0.6,0.5-1.3,1-1.6,1.8c-0.3,0.6-0.4,1.3-0.6,2c0.1-0.1,0.2-0.2,0.3-0.3c0.6-1.1,1.5-2,2.6-2.7c1.8-1.3,3.9-0.8,5.3,0.8c0.6,0.7,1.2,1.5,2.1,2c0.9,0.5,1.9,0.9,2.9,0.7c0.9-0.2,1.5-0.7,2.2-1.3c1.3-1.2,2.8-2.2,4.4-2.9c1.5-0.6,3.9-0.5,5,1.6c0.6,1.1,1.3,2.1,2.5,2.6c1.5,0.6,3,0.7,4.5-0.1c0.8-0.5,1.5-1.2,2-1.9c0.4-0.5,0.8-1,1.3-1.4c1.1-0.9,2.3-1.1,3.6-0.8c1.1,0.2,2.1,0.5,2.8,1.5c0.6,0.8,1.1,1.5,1.7,2.3c0.9,1.3,2,2.3,3.5,2.7c1.6,0.5,3.1,0.4,4.5-0.6c0.8-0.6,1.5-1.4,2.1-2.3c1.3-2.1,1.2-4.9-0.5-6.8c-0.8-0.9-1.7-1.4-2.9-1.1c-1.9,0.4-3.3,1.6-3.8,3.6c-0.3,1.1,0,2.2,0.9,2.9c0.8,0.6,1.8,0.6,2.7,0c0.7-0.5,1.1-1.6,0.9-2.5c-0.1-0.3-0.4-0.6-0.7-0.5c-0.3,0.1-0.5,0.3-0.5,0.7s-0.6,1.2-1,1.2c-0.1,0-0.2,0-0.3-0.1c-0.3-0.2-0.5-0.4-0.5-0.8c-0.1-1.2,0.7-2.4,2-3c0.7-0.3,1.4-0.3,1.9,0.3c0.1,0.1,0.2,0.2,0.3,0.3c0.6,0.7,0.9,1.6,0.8,2.5c-0.1,1-0.4,1.8-0.9,2.7c-0.6,0.9-1.4,1.7-2.5,2c-1.4,0.3-2.5-0.2-3.5-1.1c-0.8-0.7-1.4-1.7-2-2.6c-0.5-0.6-1-1.3-1.6-1.9C75,50.1,74.9,50,75,49.7c0.1-0.2,0.1-0.3,0.2-0.4l1-1.4c0.6-0.8,1.3-1.6,1.8-2.5c1.2-2.4,0.8-4.7-0.6-6.9c-0.7-1.1-1.7-1.8-2.8-2.4c-0.5-0.2-0.9-0.5-1.3-0.9c-0.9-1.1-0.5-2.8,0.2-3.6c0.6-0.6,1.3-1.1,2-1.6c1.6-1.1,3.3-2.2,4.7-3.8c1.8-2.2,2.7-4.6,2.6-7.4c0-2.2-0.9-4-2.3-5.6c-0.8-0.9-1.8-1.3-2.9-1.6c-0.6-0.2-1.2-0.2-1.8-0.1c0.3,0.2,0.6,0.4,1,0.6c0.9,0.8,1.8,1.6,2.1,2.8c0.2,0.8,0.3,1.5,0.2,2.3c-0.2,1.3-0.5,2.5-1.3,3.6c-1.1,1.4-2.5,2.4-4.1,3.1c-1,0.4-2,0.8-2.9,1.4c-1.1,0.7-2.2,1.4-3,2.4c-0.3,0.4-0.6,0.8-0.9,1.2c-0.3-0.8-0.7-1.5-1.2-2.1c-0.6-0.7-1.2-1.3-1.9-1.8c-1.2-0.9-2.3-1.8-3.2-3.1c-0.9-1.3-1.2-2.7-1.2-4.2c0-1.1,0.2-2.3,0.4-3.4c0.2-1.3,0.6-2.6,1.4-3.7c0.2-0.3,0.4-0.7,0.6-1C61.6,9.6,61.6,9.6,61.6,9.6z M59.6,11.9c0.1,0.1,0,0.2-0.1,0.3c-0.6,1.4-1,2.9-1.2,4.4c-0.2,1.6-0.3,3.3,0.5,4.9c0.6,1.2,1.3,2.3,2.4,3.2c0.8,0.7,1.7,1.3,2.5,2c1,0.9,2,2,2.5,3.4c0.1,0.2,0,0.3,0,0.4c-0.8,2.1-0.8,4.1,0.1,6.1c0.1,0.2,0.1,0.4,0,0.6c-0.3,1.3-0.9,2.5-1.5,3.6c-0.2,0.3-0.5,0.6-0.7,0.9c-1,0.9-1.9,1.8-2.4,3.1c-0.3,0.7-0.4,1.5-0.6,2.2c-0.2,1.4-0.2,2.7,0.2,4c0.3,1,0.8,1.9,1.5,2.7c0.1,0.1,0.2,0.1,0.1,0.2C62.8,54,62.7,54,62.6,54c-1.2-0.1-2.3-0.5-2.9-1.7c-0.5-1-1.2-2-2.2-2.6c0,0,0,0-0.1,0c-1-0.3-1-1.2-1.1-2c-0.1-1.4,0.3-2.7,0.8-3.9c0.5-1.1,1.1-2,1.9-2.8c0.5-0.6,1.1-1.2,1.6-1.8c1.5-1.8,2.4-3.7,2.4-6.1c0-1.4-0.5-2.6-1.1-3.7c-0.5-0.8-1.1-1.4-1.8-2c-0.8-0.8-1.8-1.4-2.5-2.2c-1.2-1.6-1.5-3.4-1.3-5.3c0.1-1.6,0.5-3.1,1.1-4.5c0.5-1.1,1.2-2.2,2-3.2l0,0l0,0C59.5,12,59.5,11.9,59.6,11.9L59.6,11.9z M79.4,13.9c0.9,1,1.5,2.2,1.8,3.5c0.5,2.3,0,4.5-1.2,6.5c-0.6,1.1-1.5,2-2.5,2.8s-2,1.4-3,2.1c-0.9,0.6-1.9,1.2-2.5,2.3c-1,1.7-1,3.7,0.4,5.3c0.4,0.5,1,0.8,1.6,1.1c1.8,0.9,2.8,2.4,3.2,4.4c0.2,1.2-0.1,2.4-0.9,3.4c-0.6,0.8-1.3,1.7-1.9,2.5c-0.3,0.4-0.5,0.8-0.6,1.3c-0.1,0.2-0.1,0.3-0.4,0.2c-0.8-0.2-1.7-0.3-2.5-0.3c-0.4,0-0.8,0.1-1.2,0.2c0.3-0.7,0.7-1.2,1.1-1.7c0.6-0.8,1.2-1.5,1.7-2.3c1-1.6,1.1-3.3,0.1-4.9c-0.3-0.5-0.8-0.9-1.3-1.2c-0.7-0.5-1.5-0.9-2.3-1.3c-1.5-0.9-2.1-2.2-2.3-3.9c-0.2-2.3,0.7-4.2,2.3-5.8c1.2-1.2,2.7-2.1,4.3-2.8c1.7-0.7,3.3-1.6,4.6-3c1.2-1.3,1.8-2.8,2-4.5c0.2-1.3-0.1-2.6-0.6-3.8C79.3,13.9,79.4,13.9,79.4,13.9z M55.7,17.8L55.7,17.8c0.1,0.1,0,0.2,0,0.3c0,0.3-0.1,0.7-0.1,1.1c-0.3-0.4-0.3-0.7,0.1-1.2l0,0V17.8C55.6,17.9,55.6,17.8,55.7,17.8L55.7,17.8zM55.9,23.9c0.3,0.8,0.7,1.5,1.2,2.2c-0.5,0.1-0.8-0.1-1-0.4C55.8,25.1,55.5,24.6,55.9,23.9z M60.4,29.1c0.6,0.8,1,1.5,1.3,2.3C61,31.2,60.3,30.1,60.4,29.1z M23.6,31.2c0,1.1,0.2,2.1,0.6,3.1c0.8,2.1,2.3,3.2,4.4,3.6c1.5,0.3,2.9,0.2,4.4,0c1.5-0.3,3.1-0.4,4.6-0.3c1.1,0.1,2.2,0.5,3.1,1.2c0.5,0.4,1,0.8,1.5,1.1c1.1,0.9,1.9,2.1,2.3,3.5c0.3,1,0.6,2.1,0.8,3.2c0.4,2.2,0.4,4.3-0.2,6.4c0,0.1-0.1,0.3-0.1,0.4c0,0.4,0,0.4-0.4,0.3c-0.8-0.3-1.4-0.8-1.9-1.3c-0.4-0.5-0.8-1-1.4-1.4c-0.1-0.1-0.2-0.1-0.1-0.3c0.7-1.4,0.9-2.9,0.6-4.4C41,43.1,39.2,40.9,36,40c-1.3-0.3-2.5,0-3.7,0.3c-0.9,0.3-1.8,0.7-2.7,0.8c-1.5,0.3-2.9-0.1-4.1-1.1c-1.8-1.5-2.6-3.5-2.6-5.8C23.1,33.2,23.1,32.2,23.6,31.2z M61.1,36.2C61.2,36.2,61.2,36.2,61.1,36.2c0.1,0.1,0.1,0.2,0,0.2c-0.4,0.7-0.9,1.4-1.5,1.9c-0.1-0.9,0.5-1.8,1.3-2.1C61,36.3,61.1,36.2,61.1,36.2L61.1,36.2z M42,37c0.8,0,1.4,0.7,1.4,1.6c-0.6-0.4-1.2-0.9-1.8-1.3c-0.2-0.1-0.1-0.2,0.1-0.2C41.8,37,41.9,37,42,37z M67.2,38.1c0,0,0.1,0,0.2,0.1c0.9,0.8,2,1.4,3.1,2c1.6,0.9,2,3,0.8,4.5c-0.7,1-1.5,2-2.3,3c-0.5,0.6-0.8,1.3-1,2.1c0,0.2-0.1,0.3-0.2,0.4c-1,0.7-1.7,1.6-2.4,2.5c-0.2,0.3-0.5,0.6-0.8,0.8c-0.1,0.1-0.2,0.1-0.3,0c-1.4-1.5-1.9-3.2-1.9-5.7c0-0.5,0.1-1.6,0.5-2.5c0.3-0.8,0.9-1.5,1.5-2.1c1-1.1,1.9-2.3,2.5-3.6c0.2-0.3,0.2-0.7,0.3-1.1C67.1,38.2,67.1,38.1,67.2,38.1L67.2,38.1z M56.4,42.4c-0.3,0.8-0.6,1.6-0.9,2.4C55.2,44.3,55.7,42.8,56.4,42.4z M46.4,42.9c0.1,0,0.1,0,0.2,0c0.1,0.1,0.2,0.2,0.2,0.3c0.3,0.7,0.5,1.3,0.3,2.2c-0.2-0.8-0.5-1.6-0.7-2.3C46.3,43,46.3,42.9,46.4,42.9z" style="opacity:0.7;fill:#7FCDDD" />
		<path d="M25.1,52.4c-0.4-0.1-0.6-0.1-0.8,0.3c-0.5,1.1-0.2,1.8,0.9,2c0.8,0.1,1.5-0.5,1.8-1.4c0.3-1-0.2-2.1-1.1-2.7c-0.6-0.4-1.4-0.6-2-0.3c-0.7,0.3-1.3,0.9-1.7,1.7c-1.3,2.5-0.9,4.9,0.6,7.2c1,1.6,2.6,2.1,4.3,2.4c1.9,0.3,3.4-0.7,4.8-1.8c0.9-0.7,1.6-1.6,2.6-2.3s2.1-1.3,3.3-1.3c1.3,0,2.4,0.4,3.3,1.5c0.6,0.7,1.1,1.4,1.6,2.1c1,1.3,2.7,2.1,4.6,0.9c0.7-0.5,1.3-1,1.9-1.7c0.8-1,1.9-1.9,3.2-2.1c1.3-0.3,2.4-0.1,3.3,1c0.4,0.5,1,0.9,1.4,1.4c0.2,0.2,0.4,0.4,0.2,0.6c-0.2,0.2-0.4,0-0.6-0.2c-0.4-0.3-0.8-0.6-1.2-0.9c-1.8-1.3-3.7-0.8-5,0.8c-0.7,0.8-1.3,1.7-2.2,2.2c-0.9,0.6-1.8,1.1-3,1.1c-1.3,0-2.3-0.6-3.2-1.5c-0.8-0.7-1.5-1.6-2.1-2.5c-0.9-1.2-2.3-1.6-3.6-0.9c-1,0.5-1.9,1.1-2.6,1.9c-0.9,0.9-1.9,1.6-2.9,2.2c-1.2,0.8-2.4,1-3.8,0.9c-1-0.1-1.9-0.3-2.7-0.7c-2.5-1.3-3.9-3.4-4.2-6.2c-0.3-2.2,0.3-4.1,1.7-5.8c1.1-1.3,2.4-1.7,4.1-1.1c2.1,0.8,3,3.5,1.4,5.5c-0.8,1-2.7,1.6-3.9,0.1c-0.4-0.5-0.5-1.1-0.2-1.7c0.2-0.4,0.5-0.9,1-1.1C24.6,52,25,52.1,25.1,52.4z" style="opacity:0.7;fill:#7FCDDD" />
		<path d="M2.7,5.5h1.1l-1.2,5.6L2,13.8l0,0l6.5-8.3h1.4l-2.2,10H6.6l1.2-5.6c0.3-1.3,0.5-2.3,0.6-2.8l0,0L2,15.5H0.6L2.7,5.5z" style="opacity:0.7;fill:#4F7EBF" />
		<path d="M17.2,15.5H16l1-4.7h-4.5l-1,4.7h-1.2l2.1-10h1.2l-0.9,4.3h4.5l0.9-4.3h1.1L17.2,15.5z" style="opacity:0.7;fill:#4F7EBF" />
		<path d="M25.4,18.1l0.5-2.6h-6.2l-0.5,2.6h-1.1l0.8-3.6h0.7c0.6-0.9,1.3-1.9,1.9-3s1.1-2.2,1.6-3.3c0.4-1,0.7-1.9,0.9-2.7h4l-2,8.9h1.3L26.5,18L25.4,18.1L25.4,18.1z M26.5,6.6h-1.7c-0.4,1.1-0.9,2.5-1.7,4.1c-0.8,1.6-1.5,2.9-2.2,3.8h3.9L26.5,6.6z" style="opacity:0.7;fill:#4F7EBF" />
		<path d="M30.7,5.5h1.1l-1.2,5.6L30,13.8l0,0l6.4-8.3h1.4l-2.1,10h-1.1l1.2-5.6c0.3-1.3,0.5-2.3,0.6-2.8l0,0l-6.5,8.4h-1.4L30.7,5.5z" style="opacity:0.7;fill:#4F7EBF" />
		<path d="M40.4,5.5h1.1l-1.2,5.6l-0.6,2.7l0,0l6.4-8.3h1.4l-2.1,10h-1.1l1.2-5.6c0.3-1.3,0.5-2.3,0.6-2.8l0,0l-6.4,8.4h-1.4L40.4,5.5z M46.7,2.6c-0.3,1.4-1.2,2.1-2.8,2.1c-0.7,0-1.2-0.1-1.6-0.4c-0.4-0.3-0.5-0.7-0.5-1.2c0-0.1,0-0.3,0.1-0.5h1c0,0.2,0,0.3,0,0.4c0,0.6,0.4,0.9,1.2,0.9c0.5,0,0.9-0.1,1.2-0.3s0.4-0.5,0.5-1C45.8,2.6,46.7,2.6,46.7,2.6z" style="opacity:0.7;fill:#4F7EBF" />
		<path d="M53.9,6.4c-0.8,0-1.5,0.2-2.1,0.7S50.7,8.2,50.3,9c-0.4,0.9-0.5,1.8-0.5,2.8c0,0.9,0.2,1.5,0.7,2c0.4,0.5,1.1,0.8,1.8,0.8c0.6,0,1.4-0.1,2.2-0.4v1c-0.5,0.2-0.8,0.3-1.2,0.3s-0.8,0.1-1.3,0.1c-1.1,0-2-0.3-2.6-1s-0.9-1.6-0.9-2.8s0.2-2.3,0.7-3.3s1.1-1.8,1.9-2.3c0.8-0.5,1.7-0.8,2.8-0.8c0.9,0,1.7,0.2,2.4,0.5l-0.5,1C55.2,6.6,54.5,6.4,53.9,6.4z" style="opacity:0.7;fill:#4F7EBF" />
		<path d="M62.9,15.5h-1.3l-3.1-5l-1,5h-1.2l2.1-10h1.2l-1,4.9l4.8-4.9h1.4l-5,5L62.9,15.5z" style="opacity:0.7;fill:#4F7EBF" />
		<path d="M66.2,5.5h1.1l-1.2,5.6l-0.6,2.7l0,0L72,5.5h1.4l-2.1,10h-1.1l1.2-5.6c0.3-1.3,0.5-2.3,0.6-2.8l0,0l-6.6,8.4H64L66.2,5.5z" style="opacity:0.7;fill:#4F7EBF" />
		<path d="M75.9,5.5H77l-1.2,5.6l-0.6,2.7l0,0l6.4-8.3H83l-2.1,10h-1.1L81,9.9c0.3-1.3,0.5-2.3,0.6-2.8l0,0l-6.4,8.4h-1.4L75.9,5.5z M82.3,2.6C82,4,81.1,4.7,79.5,4.7c-0.7,0-1.2-0.1-1.6-0.4s-0.5-0.7-0.5-1.2c0-0.1,0-0.3,0.1-0.5h1c0,0.2,0,0.3,0,0.4c0,0.6,0.4,0.9,1.2,0.9c0.5,0,0.9-0.1,1.2-0.3s0.4-0.5,0.5-1C81.4,2.6,82.3,2.6,82.3,2.6z" style="opacity:0.7;fill:#4F7EBF" />
		<path d="M25,28.3c0,1.2-0.2,2.3-0.6,3.3s-1,1.7-1.7,2.2s-1.6,0.8-2.6,0.8c-1.2,0-2.1-0.3-2.7-1c-0.7-0.7-1-1.6-1-2.9c0-1.2,0.2-2.3,0.7-3.3s1-1.8,1.8-2.3s1.6-0.8,2.6-0.8c1.1,0,2,0.4,2.6,1.1S25,27.1,25,28.3z M21.3,25.4c-0.7,0-1.4,0.2-1.9,0.7s-1,1.1-1.3,1.9s-0.5,1.7-0.5,2.7c0,0.9,0.2,1.6,0.7,2.1c0.4,0.5,1.1,0.8,1.8,0.8c0.7,0,1.3-0.2,1.9-0.7c0.5-0.4,1-1.1,1.3-1.9s0.5-1.7,0.5-2.8c0-0.9-0.2-1.6-0.6-2.1C22.7,25.6,22.1,25.4,21.3,25.4z" style="opacity:0.7;fill:#4F7EBF" />
		<path d="M32.7,34.5h-1.3l-3.1-5l-1,5H26l2.1-10h1.2l-1,4.9l4.8-4.9h1.4l-5,5L32.7,34.5z" style="opacity:0.7;fill:#4F7EBF" />
		<path d="M38.9,34.5h-5l2.1-10h5l-0.2,1h-3.9l-0.7,3.2h3.6l-0.2,1H36l-0.8,3.8h3.9L38.9,34.5z" style="opacity:0.7;fill:#4F7EBF" />
		<path d="M46,31.3h-3.4l-1.7,3.2h-1.3l5.5-10h1.2l1.3,10h-1.2L46,31.3z M45.8,30.3l-0.2-2c-0.1-0.8-0.2-1.6-0.2-2.4c-0.2,0.4-0.4,0.8-0.5,1.2s-0.8,1.5-1.7,3.2C43.2,30.3,45.8,30.3,45.8,30.3z" style="opacity:0.7;fill:#4F7EBF" />
		<path d="M55.6,34.5h-1.1l1-4.7H51l-1,4.7h-1.2l2.1-10H52l-0.9,4.3h4.5l0.9-4.3h1.1L55.6,34.5z" style="opacity:0.7;fill:#4F7EBF" />
	</svg>
	 <svg x="0" y="1024" width="1024" height="1024" viewBox="0 0 128 72" preserveAspectRatio="xMinYMid meet" >
		<path d="M121.6,71.1c-0.7-0.1-1.1-0.6-1.7-0.9c-1.4-0.8-2.7-1.7-3.9-2.7c-1.8-1.6-3.7-3-5.1-5c-0.8-1.1-1.3-2.2-1.5-3.6c0-0.1,0-0.3,0-0.4c0.3-1.4,0.7-2.9,1-4.3c0.5-2.3,0.5-4.6,0.1-7c-0.4-2.4-1.4-4.6-2.9-6.5c-1.9-2.3-4.7-3-7.2-0.6c-0.9,0.8-1.5,1.8-2.2,2.7c-0.4,0.5-0.6,1.1-0.7,1.8c-0.5-0.8-0.9-1.6-0.7-2.6c0.2-1.8,0.5-3.6,1.4-5.2c0.8-1.4,1.7-2.7,2.5-4.1c1.4-2.5,1.2-4.8-0.7-7c-1.2-1.4-2.8-2.2-4.3-3.1c-2.3-1.3-4.8-2.2-7.3-3.1c-1.1-0.4-1.9-1.2-2.5-2.2c-0.2-0.5-0.3-1-0.3-1.5c-0.1-3.1,0.2-6.1,1.2-9c0.5-1.4,0.8-2.9,1.6-4.2c0.2-0.4,0.4-0.8,0.6-1.2c0-0.1,0.1-0.2,0.2-0.2c0.1,0,0.2,0.1,0.2,0.3c0,0.1,0.1,0.3,0.1,0.4c0,1.5,0,3,0.2,4.6c0.2,2.1,0.7,4.1,2.1,5.7c1,1.2,2.3,1.8,3.7,2.1c1.9,0.5,3.9,0.9,5.8,1.6c2.3,0.9,4.6,1.9,6.5,3.6c0.7,0.7,1.2,1.5,1.6,2.4c0.3,0.8,0.5,1.6,0.8,2.3c0.6,1.3,1.3,1.3,2.4,0.7c0.9-0.5,1.6-1.2,2.1-2c0.7-1.1,1.4-2.3,1.8-3.5c0.4-1.4,2-2.1,3.3-1c0.8,0.6,1.7,1.2,2.4,1.9c1.8,1.7,2.7,3.9,3.2,6.4c0.2,0.9,0.2,1.9,0.2,2.9c0,1-0.5,1.4-1.5,1.1c-1.7-0.4-3.4-0.4-5,0.2c-1.3,0.5-2.2,1.5-2.7,2.7c-0.3,0.8-0.2,1.5,0.3,2.2c1.1,1.6,2.1,3.3,2.9,5.1c0.5,1.2,0.7,2.4,0.8,3.7c0.4,3.6-0.7,7-2,10.3c-0.4,0.9-0.7,1.9-1.1,2.8c-0.2,0.4-0.2,0.8-0.2,1.2c0.1,2.6,0.8,5.1,2,7.4c0.6,1.2,1.1,2.4,1.8,3.5C121.1,70.3,121.3,70.7,121.6,71.1L121.6,71.1z M98.1,40.6c0.1-0.2,0.3-0.4,0.4-0.6c1-1.2,2.5-1.9,3.9-2.5c1.6-0.7,3.1-0.5,4.5,0.4c1.4,1,2.5,2.4,3.4,3.9c1,1.8,1.5,3.8,1.7,5.8c0.2,1.4,0.3,2.8,0.2,4.2c-0.2,2.2-0.5,4.5-1.3,6.6c-0.5,1.5,0.4,3,1.5,3.4c0.7,0.2,1.2,0,1.6-0.5c0.3-0.5,0.5-1,0.7-1.5c0.3-1.4,0.8-2.7,1.2-4c0.3-1.2,1-2.3,1.4-3.5c0.9-2.5,1.2-5,0.9-7.6c-0.2-1.6-0.6-3-1.4-4.4c-0.5-0.7-1.1-1.3-1.6-2c-1.5-1.9-2.5-4.8-0.4-7.5c0.4-0.5,0.7-0.9,1.2-1.2c2.1-1.3,4.3-2,6.7-1.7c0.2,0,0.4,0,0.3-0.3c-0.1-0.5-0.2-1-0.4-1.5c-0.4-1.4-1.3-2.6-2.1-3.8c-0.6-0.8-1.3-1.6-2.2-2.1c-0.2-0.1-0.3-0.3-0.5,0c-0.2,0.3-0.4,0.7-0.6,1c-0.9,1.9-2,3.6-3.4,5.1c-0.8,0.9-1.8,1.3-3,1.6c-0.5,0.1-1.2,0.1-1.5-0.5c-0.3-0.4-0.5-0.9-0.6-1.4c-0.4-1.4-0.9-2.7-1.6-3.9c-0.9-1.5-2.2-2.5-3.7-3.2c-2.6-1.3-5.5-2-8.2-2.8c-1.2-0.4-2.5-0.6-3.5-1.5c-0.6-0.5-1.3-0.9-2-1.3c-1.1-0.7-1.8-0.4-2.3,0.8c-0.2,0.6-0.3,1.2-0.4,1.7c-0.1,0.3,0,0.6,0.2,0.9c0.5,0.6,1.3,1,2,1.2c2.1,0.6,4.1,1.3,6.1,2.1c2.1,0.9,4.2,1.8,5.9,3.4c1.4,1.3,2.5,2.7,2.9,4.6c0.1,0.5,0.3,1,0.1,1.4c-0.4,1.1-0.6,2.3-1.4,3.3c-0.6,0.7-1.1,1.5-1.7,2.2c-0.9,1.1-1.8,2.2-2.3,3.5C98.6,39.1,98.2,39.8,98.1,40.6z" style="opacity:0.7;fill:#7FCDDD" />
		<path d="M121.6,71.1C121.6,71.1,121.6,71.1,121.6,71.1C121.6,71.1,121.6,71.1,121.6,71.1C121.6,71.1,121.6,71.1,121.6,71.1z" style="opacity:0.7;fill:#7FCDDD" />
		<path d="M61.1,28.6h-3.4l-1.7,3.2h-1.3l5.5-10h1.2l1.3,10h-1.2L61.1,28.6z M61,27.5l-0.2-2c-0.1-0.8-0.2-1.6-0.2-2.4c-0.2,0.4-0.4,0.8-0.6,1.2s-0.8,1.5-1.7,3.2H61z" style="opacity:0.7;fill:#4F7EBF" />
		<path d="M66,27.6l-0.9,4.2h-1.2l2.1-10h2.2c2,0,3,0.8,3,2.5c0,1.6-0.8,2.6-2.5,3.1l1.6,4.4h-1.3l-1.4-4.2H66z M67,22.8c-0.5,2.3-0.7,3.5-0.8,3.8h1.1c0.9,0,1.6-0.2,2-0.6s0.7-0.9,0.7-1.7c0-0.6-0.2-1-0.5-1.2c-0.3-0.2-0.8-0.4-1.5-0.4H67z" style="opacity:0.7;fill:#4F7EBF" />
		<path d="M77.7,22.7c-0.8,0-1.5,0.2-2.1,0.7c-0.6,0.4-1.1,1.1-1.5,1.9c-0.4,0.9-0.6,1.8-0.6,2.8c0,0.9,0.2,1.5,0.7,2c0.4,0.5,1.1,0.8,1.8,0.8c0.6,0,1.4-0.1,2.2-0.4v1c-0.4,0.1-0.8,0.2-1.1,0.3s-0.8,0.1-1.3,0.1c-1.1,0-2-0.3-2.6-1s-0.9-1.6-0.9-2.8c0-1.2,0.2-2.3,0.7-3.3c0.5-1,1.1-1.8,1.9-2.3s1.7-0.8,2.8-0.8c0.9,0,1.7,0.2,2.4,0.5l-0.5,1C79,22.8,78.4,22.7,77.7,22.7z" style="opacity:0.7;fill:#4F7EBF" />
		<path d="M82.8,31.8h-1.2l1.9-9h-2.8l0.2-1h6.7l-0.2,1h-2.8L82.8,31.8z" style="opacity:0.7;fill:#4F7EBF" />
		<path d="M87.1,31.8l2.1-10h1.1l-2.1,10H87.1z" style="opacity:0.7;fill:#4F7EBF" />
		<path d="M96.7,22.7c-0.8,0-1.5,0.2-2.1,0.7c-0.6,0.4-1.1,1.1-1.5,1.9c-0.4,0.9-0.6,1.8-0.6,2.8c0,0.9,0.2,1.5,0.7,2c0.4,0.5,1.1,0.8,1.8,0.8c0.6,0,1.4-0.1,2.2-0.4v1c-0.4,0.1-0.8,0.2-1.1,0.3s-0.8,0.1-1.3,0.1c-1.1,0-2-0.3-2.6-1s-0.9-1.6-0.9-2.8c0-1.2,0.2-2.3,0.7-3.3c0.5-1,1.1-1.8,1.9-2.3s1.7-0.8,2.8-0.8c0.9,0,1.7,0.2,2.4,0.5l-0.5,1C98,22.8,97.4,22.7,96.7,22.7z" style="opacity:0.7;fill:#4F7EBF" />
		<path d="M79.8,44.5c0,1.2-0.2,2.3-0.6,3.3c-0.4,1-1,1.7-1.7,2.2c-0.7,0.5-1.6,0.8-2.6,0.8c-1.2,0-2.1-0.3-2.7-1c-0.7-0.7-1-1.6-1-2.9c0-1.2,0.2-2.3,0.7-3.3s1-1.8,1.8-2.3c0.8-0.5,1.6-0.8,2.6-0.8c1.1,0,2,0.4,2.6,1.1S79.8,43.3,79.8,44.5z M76.1,41.6c-0.7,0-1.4,0.2-1.9,0.7s-1,1.1-1.3,1.9c-0.3,0.8-0.5,1.7-0.5,2.7c0,0.9,0.2,1.6,0.7,2.1c0.4,0.5,1.1,0.8,1.8,0.8c0.7,0,1.3-0.2,1.9-0.7c0.5-0.4,1-1.1,1.3-1.9s0.5-1.7,0.5-2.8c0-0.9-0.2-1.6-0.6-2.1C77.4,41.9,76.9,41.6,76.1,41.6z" style="opacity:0.7;fill:#4F7EBF" />
		<path d="M86.6,41.7c-0.8,0-1.5,0.2-2.1,0.7c-0.6,0.4-1.1,1.1-1.5,1.9c-0.4,0.9-0.6,1.8-0.6,2.8c0,0.9,0.2,1.5,0.7,2c0.4,0.5,1.1,0.8,1.8,0.8c0.6,0,1.4-0.1,2.2-0.4v1c-0.4,0.1-0.8,0.2-1.1,0.3s-0.8,0.1-1.3,0.1c-1.1,0-2-0.3-2.6-1c-0.6-0.7-0.9-1.6-0.9-2.8c0-1.2,0.2-2.3,0.7-3.3c0.5-1,1.1-1.8,1.9-2.3s1.7-0.8,2.8-0.8c0.9,0,1.7,0.2,2.4,0.5l-0.5,1C87.9,41.8,87.3,41.7,86.6,41.7z" style="opacity:0.7;fill:#4F7EBF" />
		<path d="M94,50.8h-5l2.1-10h5l-0.2,1H92L91.4,45H95l-0.2,1h-3.6l-0.8,3.7h3.9L94,50.8z" style="opacity:0.7;fill:#4F7EBF" />
		<path d="M101.1,47.6h-3.4L96,50.8h-1.3l5.5-10h1.2l1.3,10h-1.2L101.1,47.6z M101,46.5l-0.2-2c-0.1-0.8-0.2-1.6-0.2-2.4c-0.2,0.4-0.4,0.8-0.5,1.2c-0.2,0.4-0.8,1.5-1.7,3.2H101z" style="opacity:0.7;fill:#4F7EBF" />
		<path d="M111.1,50.8h-1.2l-3.1-8.4h0c-0.1,1-0.3,2-0.5,2.9l-1.2,5.5h-1.1l2.1-10h1.2l3.1,8.3h0c0.1-1,0.3-1.9,0.5-2.8l1.2-5.6h1.1L111.1,50.8z" style="opacity:0.7;fill:#4F7EBF" />
	</svg>
	 <svg x="1024" y="1024" width="1024" height="1024" viewBox="0 0 128 72" preserveAspectRatio="xMinYMid meet" >
		<path d="M121.6,71.1c-0.7-0.1-1.1-0.6-1.7-0.9c-1.4-0.8-2.7-1.7-3.9-2.7c-1.8-1.6-3.7-3-5.1-5c-0.8-1.1-1.3-2.2-1.5-3.6c0-0.1,0-0.3,0-0.4c0.3-1.4,0.7-2.9,1-4.3c0.5-2.3,0.5-4.6,0.1-7s-1.4-4.6-2.9-6.5c-1.9-2.3-4.7-3-7.2-0.6c-0.9,0.8-1.5,1.8-2.2,2.7c-0.4,0.5-0.6,1.1-0.7,1.8C97,43.8,96.6,43,96.8,42c0.2-1.8,0.5-3.6,1.4-5.2c0.8-1.4,1.7-2.7,2.5-4.1c1.4-2.5,1.2-4.8-0.7-7c-1.2-1.4-2.8-2.2-4.3-3.1c-2.3-1.3-4.8-2.2-7.3-3.1c-1.1-0.4-1.9-1.2-2.5-2.2c-0.2-0.5-0.3-1-0.3-1.5c-0.1-3.1,0.2-6.1,1.2-9c0.5-1.4,0.8-2.9,1.6-4.2c0.2-0.4,0.4-0.8,0.6-1.2c0-0.1,0.1-0.2,0.2-0.2s0.2,0.1,0.2,0.3c0,0.1,0.1,0.3,0.1,0.4c0,1.5,0,3,0.2,4.6c0.2,2.1,0.7,4.1,2.1,5.7c1,1.2,2.3,1.8,3.7,2.1c1.9,0.5,3.9,0.9,5.8,1.6c2.3,0.9,4.6,1.9,6.5,3.6c0.7,0.7,1.2,1.5,1.6,2.4c0.3,0.8,0.5,1.6,0.8,2.3c0.6,1.3,1.3,1.3,2.4,0.7c0.9-0.5,1.6-1.2,2.1-2c0.7-1.1,1.4-2.3,1.8-3.5c0.4-1.4,2-2.1,3.3-1c0.8,0.6,1.7,1.2,2.4,1.9c1.8,1.7,2.7,3.9,3.2,6.4c0.2,0.9,0.2,1.9,0.2,2.9s-0.5,1.4-1.5,1.1c-1.7-0.4-3.4-0.4-5,0.2c-1.3,0.5-2.2,1.5-2.7,2.7c-0.3,0.8-0.2,1.5,0.3,2.2c1.1,1.6,2.1,3.3,2.9,5.1c0.5,1.2,0.7,2.4,0.8,3.7c0.4,3.6-0.7,7-2,10.3c-0.4,0.9-0.7,1.9-1.1,2.8c-0.2,0.4-0.2,0.8-0.2,1.2c0.1,2.6,0.8,5.1,2,7.4c0.6,1.2,1.1,2.4,1.8,3.5C121.1,70.3,121.3,70.7,121.6,71.1L121.6,71.1z M98.1,40.6c0.1-0.2,0.3-0.4,0.4-0.6c1-1.2,2.5-1.9,3.9-2.5c1.6-0.7,3.1-0.5,4.5,0.4c1.4,1,2.5,2.4,3.4,3.9c1,1.8,1.5,3.8,1.7,5.8c0.2,1.4,0.3,2.8,0.2,4.2c-0.2,2.2-0.5,4.5-1.3,6.6c-0.5,1.5,0.4,3,1.5,3.4c0.7,0.2,1.2,0,1.6-0.5c0.3-0.5,0.5-1,0.7-1.5c0.3-1.4,0.8-2.7,1.2-4c0.3-1.2,1-2.3,1.4-3.5c0.9-2.5,1.2-5,0.9-7.6c-0.2-1.6-0.6-3-1.4-4.4c-0.5-0.7-1.1-1.3-1.6-2c-1.5-1.9-2.5-4.8-0.4-7.5c0.4-0.5,0.7-0.9,1.2-1.2c2.1-1.3,4.3-2,6.7-1.7c0.2,0,0.4,0,0.3-0.3c-0.1-0.5-0.2-1-0.4-1.5c-0.4-1.4-1.3-2.6-2.1-3.8c-0.6-0.8-1.3-1.6-2.2-2.1c-0.2-0.1-0.3-0.3-0.5,0s-0.4,0.7-0.6,1c-0.9,1.9-2,3.6-3.4,5.1c-0.8,0.9-1.8,1.3-3,1.6c-0.5,0.1-1.2,0.1-1.5-0.5c-0.3-0.4-0.5-0.9-0.6-1.4c-0.4-1.4-0.9-2.7-1.6-3.9c-0.9-1.5-2.2-2.5-3.7-3.2c-2.6-1.3-5.5-2-8.2-2.8c-1.2-0.4-2.5-0.6-3.5-1.5c-0.6-0.5-1.3-0.9-2-1.3c-1.1-0.7-1.8-0.4-2.3,0.8c-0.2,0.6-0.3,1.2-0.4,1.7c-0.1,0.3,0,0.6,0.2,0.9c0.5,0.6,1.3,1,2,1.2c2.1,0.6,4.1,1.3,6.1,2.1c2.1,0.9,4.2,1.8,5.9,3.4c1.4,1.3,2.5,2.7,2.9,4.6c0.1,0.5,0.3,1,0.1,1.4c-0.4,1.1-0.6,2.3-1.4,3.3c-0.6,0.7-1.1,1.5-1.7,2.2c-0.9,1.1-1.8,2.2-2.3,3.5C98.6,39.1,98.2,39.8,98.1,40.6z" style="opacity:0.7;fill:#7FCDDD" />
		<path d="M121.6,71.1L121.6,71.1L121.6,71.1L121.6,71.1z" style="opacity:0.7;fill:#7FCDDD" />
		<path d="M36.4,22.9c-0.8,0-1.5,0.2-2.1,0.7s-1.1,1.1-1.5,1.9c-0.4,0.9-0.6,1.8-0.6,2.8c0,0.9,0.2,1.5,0.7,2c0.4,0.5,1.1,0.8,1.8,0.8c0.6,0,1.4-0.1,2.2-0.4v1c-0.4,0.1-0.8,0.2-1.1,0.3c-0.3,0.1-0.8,0.1-1.3,0.1c-1.1,0-2-0.3-2.6-1S31,29.5,31,28.3c0-1.2,0.2-2.3,0.7-3.3s1.1-1.8,1.9-2.3s1.7-0.8,2.8-0.8c0.9,0,1.7,0.2,2.4,0.5l-0.5,1C37.7,23.1,37.1,22.9,36.4,22.9z" style="opacity:0.7;fill:#4F7EBF" />
		<path d="M43.8,32h-5l2.1-10h5l-0.2,1h-3.9l-0.7,3.2h3.6l-0.2,1h-3.6L40.1,31H44L43.8,32z" style="opacity:0.7;fill:#4F7EBF" />
		<path d="M50.6,22c2,0,3,0.8,3,2.3c0,0.6-0.2,1.2-0.6,1.6s-1,0.7-1.7,0.9v0.1c0.5,0.1,0.9,0.4,1.2,0.8s0.4,0.8,0.4,1.3c0,1-0.3,1.7-1,2.3c-0.7,0.5-1.6,0.8-2.8,0.8h-3.2L48,22H50.6z M47.3,31h1.8c0.8,0,1.5-0.2,1.9-0.5c0.4-0.4,0.7-0.9,0.7-1.6c0-0.5-0.2-0.9-0.5-1.2c-0.3-0.3-0.8-0.4-1.5-0.4h-1.6L47.3,31z M48.3,26.3H50c0.7,0,1.3-0.2,1.7-0.5s0.6-0.8,0.6-1.4c0-0.5-0.2-0.8-0.5-1.1c-0.3-0.2-0.8-0.4-1.4-0.4H49L48.3,26.3z" style="opacity:0.7;fill:#4F7EBF" />
		<path d="M59.3,32h-5l2.1-10h5l-0.2,1h-3.9l-0.7,3.2h3.6l-0.2,1h-3.6L55.7,31h3.9L59.3,32z" style="opacity:0.7;fill:#4F7EBF" />
		<path d="M68.8,24.6c0,1.1-0.4,2-1.1,2.6s-1.8,0.9-3.3,0.9h-0.9L62.6,32h-1.2l2.1-10h2.3c1,0,1.7,0.2,2.2,0.6C68.5,23.1,68.8,23.7,68.8,24.6z M63.7,27.1h0.9c1,0,1.7-0.2,2.2-0.6s0.8-1,0.8-1.8c0-0.6-0.2-1-0.5-1.2c-0.3-0.3-0.8-0.4-1.5-0.4h-1.1L63.7,27.1z" style="opacity:0.7;fill:#4F7EBF" />
		<path d="M76.2,32H75l1-4.7h-4.5l-1,4.7h-1.2l2.1-10h1.2l-0.9,4.3h4.5l0.9-4.3h1.1L76.2,32z" style="opacity:0.7;fill:#4F7EBF" />
		<path d="M82.1,22l-0.9,4.3h1c2,0,3,0.8,3,2.4c0,1.1-0.3,1.9-1,2.4S82.5,32,81.3,32h-2.4L81,22H82.1zM81.5,31c1.7,0,2.5-0.7,2.5-2.2c0-0.5-0.1-0.9-0.4-1.2c-0.3-0.3-0.7-0.4-1.4-0.4H81L80.2,31H81.5z M87.2,32H86l2.1-10h1.2L87.2,32z" style="opacity:0.7;fill:#4F7EBF" />
		<path d="M92,22h1.1l-1.2,5.6l-0.6,2.7l0,0l6.4-8.3h1.4L97,32h-1.1l1.2-5.6c0.3-1.3,0.5-2.3,0.6-2.8l0,0L91.2,32h-1.4L92,22zM98.3,19.1c-0.3,1.4-1.2,2.1-2.8,2.1c-0.7,0-1.2-0.1-1.6-0.4s-0.5-0.7-0.5-1.2c0-0.1,0-0.3,0.1-0.5h1c0,0.2,0,0.3,0,0.4c0,0.6,0.4,0.9,1.2,0.9c0.5,0,0.9-0.1,1.2-0.3c0.3-0.2,0.4-0.5,0.5-1H98.3z" style="opacity:0.7;fill:#4F7EBF" />
		<path d="M6.2,42.1c-0.3,1.3-0.7,2.7-1.1,4.1c-0.4,1.4-0.7,2.4-1,3.1s-0.6,1.2-1,1.5s-0.9,0.4-1.5,0.4c-0.3,0-0.6-0.1-0.9-0.2v-1c0.2,0.1,0.5,0.1,0.7,0.1c0.4,0,0.7-0.1,0.9-0.3s0.5-0.5,0.7-1s0.5-1.2,0.8-2.3s0.8-2.9,1.5-5.5h4.9L8.1,51H6.9l1.9-8.9H6.2z" style="opacity:0.7;fill:#4F7EBF" />
		<path d="M15.7,51h-5l2.1-10h5l-0.2,1h-3.9L13,45.2h3.6l-0.2,1h-3.6L12.1,50H16L15.7,51z" style="opacity:0.7;fill:#4F7EBF" />
		<path d="M23.4,53.6l0.5-2.6h-6.2l-0.5,2.6h-1.1l0.8-3.6h0.7c0.6-0.9,1.3-1.9,1.9-3s1.1-2.2,1.6-3.3c0.4-1,0.7-1.9,0.9-2.7h4l-2,8.9h1.3l-0.8,3.6L23.4,53.6L23.4,53.6z M24.5,42.1h-1.7c-0.4,1.1-0.9,2.5-1.7,4.1c-0.8,1.6-1.5,2.9-2.2,3.8h3.9L24.5,42.1z" style="opacity:0.7;fill:#4F7EBF" />
		<path d="M35.6,44.8c0,1.2-0.2,2.3-0.6,3.3c-0.4,1-1,1.7-1.7,2.2s-1.6,0.8-2.6,0.8c-1.2,0-2.1-0.3-2.7-1c-0.7-0.7-1-1.6-1-2.9c0-1.2,0.2-2.3,0.7-3.3s1-1.8,1.8-2.3s1.6-0.8,2.6-0.8c1.1,0,2,0.4,2.6,1.1S35.6,43.6,35.6,44.8z M32,41.9c-0.7,0-1.4,0.2-1.9,0.7s-1,1.1-1.3,1.9s-0.5,1.7-0.5,2.7c0,0.9,0.2,1.6,0.7,2.1c0.4,0.5,1.1,0.8,1.8,0.8c0.7,0,1.3-0.2,1.9-0.7c0.5-0.4,1-1.1,1.3-1.9s0.5-1.7,0.5-2.8c0-0.9-0.2-1.6-0.6-2.1C33.3,42.1,32.7,41.9,32,41.9z" style="opacity:0.7;fill:#4F7EBF" />
		<path d="M41.3,41c2,0,3,0.8,3,2.3c0,0.6-0.2,1.2-0.6,1.6s-1,0.7-1.7,0.9v0.1c0.5,0.1,0.9,0.4,1.2,0.8c0.3,0.4,0.4,0.8,0.4,1.3c0,1-0.3,1.7-1,2.3C41.9,50.7,41,51,39.8,51h-3.2l2.1-10H41.3z M38,50h1.8c0.8,0,1.5-0.2,1.9-0.5c0.4-0.4,0.7-0.9,0.7-1.6c0-0.5-0.2-0.9-0.5-1.2s-0.8-0.4-1.5-0.4h-1.6L38,50z M39,45.3h1.7c0.7,0,1.3-0.2,1.7-0.5S43,44,43,43.4c0-0.5-0.2-0.8-0.5-1.1c-0.3-0.2-0.8-0.4-1.4-0.4h-1.4L39,45.3z" style="opacity:0.7;fill:#4F7EBF" />
		<path d="M47.1,41h1.1L47,46.6l-0.6,2.7l0,0l6.4-8.3h1.4l-2.1,10H51l1.2-5.6c0.3-1.3,0.5-2.3,0.6-2.8l0,0L46.4,51H45L47.1,41z" style="opacity:0.7;fill:#4F7EBF" />
		<path d="M57.5,51h-1.2l1.9-9h-2.8l0.2-1h6.7l-0.2,1h-2.8L57.5,51z" style="opacity:0.7;fill:#4F7EBF" />
		<path d="M65,41l-0.9,4.3h1c2,0,3,0.8,3,2.4c0,1.1-0.3,1.9-1,2.4c-0.7,0.6-1.6,0.9-2.9,0.9h-2.4l2.1-10C63.9,41,65,41,65,41z M64.4,50c1.7,0,2.5-0.7,2.5-2.2c0-0.5-0.1-0.9-0.4-1.2s-0.7-0.4-1.4-0.4h-1.2L63.1,50H64.4z M70.1,51H69l2.1-10h1.2L70.1,51z" style="opacity:0.7;fill:#4F7EBF" />
		<path d="M74.9,41H76l-1.2,5.6l-0.6,2.7l0,0l6.4-8.3H82l-2.1,10h-1.1l1.2-5.6c0.3-1.3,0.5-2.3,0.6-2.8l0,0L74.1,51h-1.4L74.9,41z M81.2,38.1c-0.3,1.4-1.2,2.1-2.8,2.1c-0.7,0-1.2-0.1-1.6-0.4c-0.4-0.3-0.5-0.7-0.5-1.2c0-0.1,0-0.3,0.1-0.5h1c0,0.2,0,0.3,0,0.4c0,0.6,0.4,0.9,1.2,0.9c0.5,0,0.9-0.1,1.2-0.3s0.4-0.5,0.5-1H81.2z" style="opacity:0.7;fill:#4F7EBF" />
		<path d="M95.2,44.8c0,1.2-0.2,2.3-0.6,3.3s-1,1.7-1.7,2.2s-1.6,0.8-2.6,0.8c-1.2,0-2.1-0.3-2.7-1c-0.7-0.7-1-1.6-1-2.9c0-1.2,0.2-2.3,0.7-3.3s1-1.8,1.8-2.3s1.6-0.8,2.6-0.8c1.1,0,2,0.4,2.6,1.1C94.9,42.6,95.2,43.6,95.2,44.8zM91.5,41.9c-0.7,0-1.4,0.2-1.9,0.7c-0.6,0.5-1,1.1-1.3,1.9s-0.5,1.7-0.5,2.7c0,0.9,0.2,1.6,0.7,2.1c0.4,0.5,1.1,0.8,1.8,0.8c0.7,0,1.3-0.2,1.9-0.7c0.5-0.4,1-1.1,1.3-1.9c0.3-0.8,0.5-1.7,0.5-2.8c0-0.9-0.2-1.6-0.6-2.1C92.9,42.1,92.3,41.9,91.5,41.9z" style="opacity:0.7;fill:#4F7EBF" />
		<path d="M102.9,51h-1.3l-3.1-5l-1,5h-1.2l2.1-10h1.2l-1,4.9l4.8-4.9h1.4l-5,5L102.9,51z" style="opacity:0.7;fill:#4F7EBF" />
		<path d="M109.1,51h-5l2.1-10h5l-0.2,1h-3.9l-0.7,3.2h3.6l-0.2,1h-3.6l-0.8,3.7h3.9L109.1,51z" style="opacity:0.7;fill:#4F7EBF" />
		<path d="M116.2,47.8h-3.4l-1.7,3.2h-1.3l5.5-10h1.2l1.3,10h-1.2L116.2,47.8z M116.1,46.8l-0.2-2c-0.1-0.8-0.2-1.6-0.2-2.4c-0.2,0.4-0.4,0.8-0.6,1.2s-0.8,1.5-1.7,3.2H116.1z" style="opacity:0.7;fill:#4F7EBF" />
		<path d="M125.8,51h-1.1l1-4.7h-4.5l-1,4.7H119l2.1-10h1.2l-0.9,4.3h4.5l0.9-4.3h1.1L125.8,51z" style="opacity:0.7;fill:#4F7EBF" />
	</svg>
	 <svg x="2048" y="1024" width="1024" height="1024" viewBox="0 0 81.8 62.5" preserveAspectRatio="xMinYMid meet" >
		<path d="M16.2,10.4c-0.6,0-1.1,0.1-1.7,0.2c-1.3,0.2-2.5,0.8-3.4,1.7C9,14.7,8,17.5,7.8,20.7c-0.1,1.8,0.2,3.5,0.5,5.2c0.2,0.9,0.8,1.1,1.5,0.5c0.9-0.8,1.9-1.3,3.1-1.7c1.3-0.3,2.5-0.8,3.5-1.7c0,0,0.1-0.1,0.2,0c-0.2,0.4-0.3,0.8-0.5,1.2c-0.7,1.9-1.8,3.6-2.5,5.5c-1.2,2.8-1.9,5.6-2.4,8.6c-0.2,1.3-0.3,2.5-0.3,3.8c0,1.1-0.2,2.3,0,3.4c0.5,2.8,1.1,5.5,2.4,8c0,0.3-0.2,0.1-0.3,0.1c-0.7-0.3-1.4-0.5-2.2-0.8c-1.9-0.7-3.8-1.3-5.9-0.9c-1.3,0.2-2.5,0.6-3.4,1.6c-0.5,0.6-0.9,1.2-1.1,1.9c0.7-0.9,1.7-1.3,2.7-1.7c1.4-0.5,2.8-0.7,4.3-0.3c1.9,0.6,3.7,1.2,5.5,2.1c2.6,1.2,5.1,1.3,7.7,0.2c0.9-0.4,1.7-0.8,2.5-1.3c1.3-0.8,2.8-1.4,4.2-2c2-0.9,4-0.8,5.8,0.5c1.1,0.8,1.4,2.4,0.7,3.4c-0.7,0.9-1.6,1.5-2.7,1.5c-0.8,0-1.4-0.4-1.6-1.1c-0.2-0.8,0.1-1.4,0.8-1.9c0.5-0.3,1-0.4,1.3,0.3c0,0.1,0.1,0.2,0.2,0.1c0.1,0,0.1-0.2,0.1-0.2c0-0.6-0.4-1.1-1-1.1c-0.5,0-0.9,0.1-1.3,0.4c-0.7,0.5-1,1.1-1.2,2c-0.3,1.8,0.8,3.1,2.7,3.1c1.8,0,3.3-0.9,4.3-2.5c0.2-0.3,0.3-0.4,0.7-0.5c0.9-0.2,1.7-0.7,2.3-1.3c0.8-0.9,1.5-1.8,2.2-2.8c0.8-1.2,1.9-1.9,3.2-2.3c0.7-0.2,1.3-0.4,2-0.2c1.5,0.4,2.6,1.2,3.4,2.5c0.6,0.9,1.4,1.8,2.2,2.6c0.5,0.5,1,1.1,1.5,1.7c-0.8,0-1.5,0-2.3-0.2c-1.7-0.4-3.2-1.1-4.6-2c-0.1,0-0.2-0.2-0.3-0.1c-0.1,0.1,0,0.2,0,0.4c0.3,0.7,0.8,1.4,1.3,2c1.4,1.5,3.3,1.9,5.2,2c2.7,0.2,5.1-0.5,7.5-1.7c1.4-0.7,2.7-1.6,4-2.4c2.9-1.8,5.9-2.4,9.1-1.6c1.5,0.4,2.9,0.9,3.9,2.3c0.8,1.2,1.2,3.2-0.6,4.3c-0.3,0.2-0.5,0.4-0.8,0.6c-1.1,0.6-2.2,0.9-3.4,0.2c-1.1-0.7-1.5-2-0.8-3.1c0.2-0.4,0.5-0.6,1-0.5c0.3,0,0.6,0.2,0.8,0.4c0.1,0.1,0.2,0.2,0.3,0.1c0.1-0.1,0.1-0.3,0-0.4c0-0.1-0.1-0.2-0.2-0.3c-0.9-1.2-2.9-1.1-3.6,0.3c-0.7,1.5-0.5,2.9,0.5,4.1c1,1.2,2.3,1.8,3.9,1.5c1.4-0.2,2.6-1,3.7-1.9c1.4-1.2,2-2.6,1.6-4.5c0-0.2,0-0.4,0.2-0.5c0.7-0.6,1.3-1.4,1.7-2.3c0.6-1.3,0.9-2.5,0.7-3.9c-0.5-2.7-1.5-5.2-3.4-7.3c-0.7-0.8-1.4-1.5-2-2.3c-1-1.4-1.2-3-0.9-4.7c0.4-2.4,1.7-4.2,3.9-5.2c0.3-0.1,0.6-0.3,0.9-0.6c-0.7,0-1.3,0-1.9,0.1c-2.7,0.6-4.8,2-6.2,4.5c-0.7,1.3-1.1,2.7-1,4.1c0,1.3,0.5,2.5,1,3.7c0.4,1.1,1.2,2.1,1.7,3.1c0.8,1.8,0.6,4-0.7,5.5c-0.2,0.2-0.3,0.3-0.6,0.2c-1.8-0.4-3.7-0.2-5.5,0.2c-1.7,0.4-3.1,1.1-4.5,2c-0.2,0.1-0.3,0.2-0.5,0c-0.8-0.7-1.7-1.3-2.4-2.1c-1.4-1.7-2.9-3.3-4.1-5.1c-1.3-1.8-2.7-3.4-4.7-4.5c-1.9-1.1-4-1.7-6.2-1.7c-1.8,0-3.5,0.6-5.2,1.5c-2.7,1.4-4.7,3.5-6.6,5.8c-0.7,0.9-1.3,1.8-2,2.7c-0.2,0.4-0.5,0.5-1,0.5c-1.1,0-2.3,0.1-3.4,0.6c-0.4,0.2-0.7,0.1-1-0.2c-1.4-1.1-2.3-2.6-3-4.3c-0.3-0.8-0.6-1.6-1-2.4c-1-2.1-1.5-4.4-1.7-6.8c-0.2-2.4,0.1-4.7,0.8-7c0.5-1.5,1.2-2.8,1.7-4.2c0.9-2.6,1.7-5.3,1.3-8.2c-0.3-2.3-1.3-4.3-3.2-5.6C19.4,10.8,17.9,10.4,16.2,10.4z M15.9,12.1c0.8,0,1.7,0.1,2.6,0.4c2.3,0.8,3.5,2.5,4,4.9c0.4,2.3,0,4.5-0.7,6.8c-0.3,1.1-0.8,2.1-1.3,3.1c-0.7,1.3-1,2.8-1.2,4.3c-0.2,1.5-0.4,3-0.5,4.6c-0.2,3,0.4,5.8,1.3,8.5c0.5,1.5,1,3,1.8,4.3c0.6,0.9,1.2,1.9,2,2.6c0.2,0.1,0.3,0.2,0,0.4c-1.4,0.7-2.7,1.7-4.2,2.3c-1.3,0.6-2.8,0.8-4.2,0.5c-0.3,0-0.4-0.2-0.5-0.4c-0.8-1.7-1.3-3.6-1.8-5.4c-0.4-1.7-0.5-3.5-0.6-5.3c0-2.9,0.4-5.8,1-8.7c0.6-2.7,1.6-5.3,2.8-7.8c0.8-1.7,1.3-3.6,1.7-5.5c0.1-0.5,0.3-1,0.5-1.5c0.3-1.5-0.2-3-1.4-4c-1-0.7-2.3-0.6-3.1,0.4c-0.5,0.6-0.8,1.1-0.8,1.9s0.4,1.3,1.1,1.6c0.4,0.1,0.9,0.3,1.3,0.1c0.2-0.1,0.4-0.2,0.5-0.4c0.1-0.1,0.1-0.3,0-0.4s-0.2-0.1-0.3,0c-0.5,0.1-0.9-0.1-1.1-0.5c-0.2-0.4,0.1-1.1,0.5-1.4s0.7-0.3,1.1,0.1c1.3,1.1,1.1,3.2-0.3,4.4c-1,0.8-2.1,1.3-3.3,1.6c-1.1,0.3-2.2,0.7-3.1,1.5c-0.2,0.2-0.3,0.2-0.3-0.1c-0.3-1.8-0.2-3.6,0-5.3c0.3-1.8,1-3.5,1.9-5.1c0.7-1.2,1.8-1.9,3.1-2.2C14.9,12.1,15.4,12.1,15.9,12.1z M75.6,32c0.2,0.1,0.2,0.1,0.1,0.2c-1,1.8-1.5,3.8-1.2,5.8c0.2,1,0.5,1.9,1.1,2.7c0.7,1.1,1.6,2,2.4,2.9c1.2,1.3,1.8,2.8,2,4.5c0.1,0.7,0.3,1.4,0.3,2.1c0,1.4-0.7,2.4-1.5,3.5c-0.2,0.3-0.3,0-0.4-0.2c-0.6-0.8-1.3-1.3-2.1-1.7c-0.2-0.1-0.4-0.2-0.7-0.3c-0.3-0.1-0.3-0.2-0.2-0.6c0.5-1.2,0.8-2.5,0.9-3.9c0-1.6-0.5-3-1.2-4.3c-0.9-1.6-1.5-3.3-1.5-5.1C73.5,35.6,74.1,33.6,75.6,32z M45,41.6c0.3,0,0.6,0,0.9,0c2.2,0.3,3.9,1.4,5.5,2.8c2,1.7,3.8,3.6,5.4,5.8c0.4,0.6,0.9,1.2,1.2,1.8c0.5,0.9,1.4,1.5,2.2,2.1c0.1,0.1,0.3,0.1,0.2,0.2c0,0.2-0.2,0.2-0.3,0.2c-0.8,0.2-1.5,0.7-2.2,0.9c-0.7,0.3-1.4,0.4-2.1,0c-1.1-0.8-2.2-1.5-3.2-2.4c-0.9-0.9-1.7-2-2.6-2.9c-1-1.1-2.2-2.1-3.7-2.4c-0.1,0-0.2,0-0.2,0c-0.2,0-0.4,0-0.6,0c-1.5,0-2.8,0.6-4,1.6c-1.3,1.2-2.4,2.6-3.5,4c-0.3,0.4-0.7,0.8-1.2,1.1c-0.3,0.2-0.4,0.2-0.4-0.2c-0.1-1.4-0.7-2.5-2-3.1c-0.2-0.1-0.5-0.3-0.7-0.4c-0.2-0.1-0.2-0.2,0-0.3c1.1-1.2,1.9-2.7,2.9-4c1.5-1.9,3.3-3.6,5.7-4.4C43.2,41.6,44.1,41.6,45,41.6L45,41.6z" style="opacity:0.7;fill:#7FCDDD" />
		<path d="M23.5,5.7c0,1.2-0.4,2.1-1.2,2.8s-2,1-3.5,1h-1l-0.9,4.2h-1.2L17.9,3h2.4c1,0,1.8,0.2,2.4,0.7C23.2,4.1,23.5,4.8,23.5,5.7z M18,8.4h1c1.1,0,1.9-0.2,2.4-0.7c0.5-0.4,0.8-1.1,0.8-2c0-0.6-0.2-1.1-0.5-1.3C21.4,4.2,20.8,4,20.1,4h-1.2L18,8.4z" style="opacity:0.7;fill:#4F7EBF" />
		<path d="M29.4,10.3h-3.6L24,13.7h-1.4L28.5,3h1.3l1.3,10.7h-1.2L29.4,10.3z M29.3,9.1L29,6.9c-0.1-0.9-0.2-1.7-0.2-2.6c-0.2,0.4-0.4,0.9-0.6,1.3C28,6,27.4,7.2,26.4,9.1H29.3z" style="opacity:0.7;fill:#4F7EBF" />
		<path d="M38.7,3.9c-0.8,0-1.6,0.2-2.3,0.7s-1.2,1.2-1.6,2.1c-0.4,0.9-0.6,1.9-0.6,3c0,0.9,0.2,1.6,0.7,2.2c0.5,0.5,1.1,0.8,2,0.8c0.7,0,1.5-0.1,2.4-0.4v1.1c-0.4,0.2-0.8,0.3-1.2,0.3s-0.8,0.1-1.4,0.1c-1.2,0-2.1-0.4-2.8-1.1s-1-1.7-1-3s0.3-2.5,0.8-3.6s1.2-1.9,2.1-2.5s1.9-0.9,3-0.9c1,0,1.8,0.2,2.5,0.6l-0.5,1C40.1,4.1,39.4,3.9,38.7,3.9z" style="opacity:0.7;fill:#4F7EBF" />
		<path d="M41.2,13.7L43.5,3h1.2l-2.3,10.7H41.2z" style="opacity:0.7;fill:#4F7EBF" />
		<path d="M46.6,13.7h-1.3L47.6,3H53l-0.2,1.1h-4.2L47.8,8h3.9l-0.2,1.1h-3.9L46.6,13.7z" style="opacity:0.7;fill:#4F7EBF" />
		<path d="M52.4,13.7L54.7,3h1.2l-2.3,10.7H52.4z" style="opacity:0.7;fill:#4F7EBF" />
		<path d="M62.8,3.9c-0.8,0-1.6,0.2-2.3,0.7s-1.2,1.2-1.6,2.1c-0.4,0.9-0.6,1.9-0.6,3c0,0.9,0.2,1.6,0.7,2.2c0.5,0.5,1.1,0.8,2,0.8c0.7,0,1.5-0.1,2.4-0.4v1.1c-0.4,0.2-0.8,0.3-1.2,0.3s-0.8,0.1-1.4,0.1c-1.2,0-2.1-0.4-2.8-1.1s-1-1.7-1-3s0.3-2.5,0.8-3.6s1.2-1.9,2.1-2.5s1.9-0.9,3-0.9c1,0,1.8,0.2,2.5,0.6l-0.5,1C64.1,4.1,63.5,3.9,62.8,3.9z" style="opacity:0.7;fill:#4F7EBF" />
		<path d="M45.7,26c0,1.3-0.2,2.5-0.6,3.5s-1,1.8-1.8,2.4s-1.7,0.9-2.8,0.9c-1.3,0-2.2-0.4-2.9-1.1c-0.7-0.7-1-1.8-1-3.1c0-1.3,0.2-2.5,0.7-3.5s1.1-1.9,1.9-2.5s1.7-0.9,2.8-0.9c1.2,0,2.1,0.4,2.8,1.1S45.7,24.7,45.7,26zM41.7,22.9c-0.8,0-1.5,0.2-2.1,0.7s-1.1,1.2-1.4,2.1c-0.3,0.9-0.5,1.9-0.5,2.9s0.2,1.7,0.7,2.3c0.5,0.5,1.1,0.8,1.9,0.8c0.7,0,1.4-0.2,2-0.7s1.1-1.2,1.4-2s0.5-1.9,0.5-3c0-1-0.2-1.7-0.7-2.3S42.6,22.9,41.7,22.9z" style="opacity:0.7;fill:#4F7EBF" />
		<path d="M53,22.9c-0.8,0-1.6,0.2-2.3,0.7s-1.2,1.2-1.6,2.1c-0.4,0.9-0.6,1.9-0.6,3c0,0.9,0.2,1.6,0.7,2.2c0.5,0.5,1.1,0.8,2,0.8c0.7,0,1.5-0.1,2.4-0.4v1.1c-0.4,0.2-0.8,0.3-1.2,0.3s-0.8,0.1-1.4,0.1c-1.2,0-2.1-0.4-2.8-1.1c-0.7-0.7-1-1.7-1-3s0.3-2.5,0.8-3.6s1.2-1.9,2.1-2.5s1.9-0.9,3-0.9c1,0,1.8,0.2,2.5,0.6l-0.5,1C54.4,23.1,53.7,22.9,53,22.9z" style="opacity:0.7;fill:#4F7EBF" />
		<path d="M60.9,32.7h-5.4L57.8,22h5.4L63,23.1h-4.1l-0.7,3.4H62l-0.2,1.1h-3.9l-0.9,4h4.1L60.9,32.7z" style="opacity:0.7;fill:#4F7EBF" />
		<path d="M68.5,29.3h-3.6l-1.8,3.4h-1.4L67.6,22h1.3l1.3,10.7H69L68.5,29.3z M68.4,28.1l-0.3-2.2c-0.1-0.9-0.2-1.7-0.2-2.6c-0.2,0.4-0.4,0.9-0.6,1.3s-0.8,1.6-1.8,3.5C65.5,28.1,68.4,28.1,68.4,28.1z" style="opacity:0.7;fill:#4F7EBF" />
		<path d="M79.2,32.7h-1.3l-3.4-9l0,0c-0.2,1.1-0.3,2.1-0.5,3.1l-1.3,5.9h-1.2L73.8,22h1.3l3.4,8.9l0,0c0.1-1.1,0.3-2.1,0.5-3l1.3-6h1.2L79.2,32.7z" style="opacity:0.7;fill:#4F7EBF" />
	</svg>
	 <svg x="3072" y="1024" width="1024" height="1024" viewBox="0 0 226.1 103.3" preserveAspectRatio="xMinYMid meet" >
		<path d="M16.8,41.3c2.2-5.9,6.6-9.5,12.4-11.6c2.8-1,5.6-1.9,8.7-1.9c2.8,0,5.4,0.6,7.9,1.6c3.7,1.5,7,3.6,10,6.2c2.1,1.8,4.2,3.6,7,4.3c3.6,0.9,6.7-0.1,9.6-2c3.5-2.3,6.9-5,10.4-7.3c3.7-2.4,7.5-4.5,12-5.3c5.2-0.9,9.8,0.4,14.3,2.8c3.6,1.9,6.2,4.9,8.6,8c3,3.9,6.9,4.9,11.3,2.7c1.2-0.6,2.4-1.4,3.5-2.2c4.1-2.8,8.2-5.6,12.6-8c3.7-2,7.7-3,11.9-3.6c7.2-1,13.8,0.7,19.9,4.4c2.6,1.6,4.7,3.8,6.5,6.2c2.5,3.2,5.4,5.9,9.1,7.6c6.6,3.1,14.6,1.6,19.4-3.1c1.6-1.5,3.1-3.1,4.6-4.7c1.8-1.9,2.8-4.2,3.7-6.6c0.1-1,1-2,0.2-3.1c-0.4-2.3-1.2-4.5-2.6-6.3c-3.1-4-8.9-5.4-13.4-3c-1.6,0.9-3.1,2-4.5,3.2c-1.8,1.7-2.6,3.9-3,6.2c-0.3,1.6,0.5,2.7,1.8,3.5s2.8,1.3,4.3,1.5c2.1,0.3,3.3-1.2,4.7-2.3c0.5-0.4,0.9-1,1.7-1.1c-0.1,1.3-0.9,2.1-1.7,2.9c-1.1,1-2.2,2.1-3.3,3c-1.3,1.1-2.9,1-4.4,0.6c-3.2-0.9-5.7-2.7-6.8-5.9c-0.4-1.1-0.4-2.3,0-3.4c0.6-1.7,0.9-3.4,1.8-4.9c2.4-4.1,9.3-10,16.4-8.9c3.2,0.5,6.1,1.7,8.7,3.7c5.5,4.3,7.4,10.7,5.2,17.8c-1.1,3.6-3,6.7-5.7,9.5c-2.9,3.1-6.2,5.6-10.2,6.9c-5,1.6-9.9,1.6-15,0.4c-6.8-1.6-11.8-5.6-16.2-10.7c-4-4.8-9.1-7.4-15.4-8.1c-7.5-0.9-14,1.3-20.1,5.4c-3.8,2.5-7.4,5.2-11.3,7.4c-5.6,3.2-12.4,2.2-17-2.3c-1.1-1.1-2.2-2.3-3.2-3.4c-2.6-3-6-5-9.6-6.3c-3.6-1.3-7.3-0.9-10.8,0.7c-4.4,2.1-8.4,4.8-12.4,7.7c-3.3,2.3-6.7,4.4-10.7,5.1c-3.4,0.6-6.5,0-9.6-1.4c-2.5-1.1-4.5-3-6.6-4.7c-3.4-2.9-7.2-5.2-11.7-6.1c-3.3-0.6-6.4,0.1-9.4,1.3c-4,1.6-7.5,4.2-11.4,6.1c-0.7,0.3-1.2,0.9-1.9,1.4C16.9,41.7,16.6,41.7,16.8,41.3z" style="opacity:0.7;fill:#7FCDDD" />
		<path d="M215.6,66.3c-1.3,2.2-2.7,4.4-4.5,6.3c-1.6,1.6-3.6,2.3-5.8,2.4c-9.5,0.5-17.8-2.8-25.5-7.8c-1.7-1.1-3.2-2.6-4.5-4.3c-1.7-2.1-3.8-3.2-6.4-3.8c-4.1-0.9-8.1-1.5-12.2,0.1c-3,1.2-5.6,3.1-8.1,5.2c-2.6,2.2-5.1,4.5-8.1,6.2c-9.3,5.2-20.4,4.4-28.3-1.2c-2.6-1.9-5-3.8-7-6.2c-4.6-5.7-11.7-4.4-15.8-1.8c-2.9,1.8-5.6,3.9-8.4,5.9c-5.5,3.9-11.6,6.3-18.4,6c-4.2-0.2-8.1-1.6-11.8-3.7c-2.4-1.4-4.7-2.8-7-4.4c-4.1-3-8.4-3.1-12.9-1c-3.6,1.7-7.4,3.1-10.6,5.6c-0.1-0.2-0.2-0.3-0.1-0.3c3-6.5,8.1-10.3,15.2-11.3c4.1-0.6,7.7,0.6,11.1,2.7c3.4,2.2,6.9,4.2,10.5,6c5,2.4,9.9,2,14.9,0.1c4.2-1.6,7.5-4.4,10.9-7.1c4.5-3.6,9.4-6.1,15.3-6.1c3.7,0,6.9,1.3,9.5,3.9c2.8,2.7,5.4,5.7,8.7,7.7c6.8,4.3,13.8,5,21.1,0.9c2.8-1.6,5.1-3.8,7.5-5.9c4.3-3.7,9-6.7,14.7-7.5c5.6-0.8,11-0.5,15.9,2.7c1.9,1.2,3.4,2.9,4.9,4.5c3.1,3.3,6.5,6.1,10.6,8c3.5,1.6,7.2,2.5,11,2.8c3.2,0.3,6-1.1,8.8-2.4c1.5-0.7,2.8-1.7,4.2-2.5c0.2-0.1,0.4-0.4,0.7-0.2C215.8,66.1,215.6,66.3,215.6,66.3L215.6,66.3z" style="opacity:0.7;fill:#7FCDDD" />
		<path d="M209.4,91.8c-1.2,2.2-2.1,4.6-3.8,6.5c-2.4,2.9-5.5,4.6-9.2,4.8c-4.8,0.2-9.6,0-14.2-1.3c-3.5-1-6.4-2.9-9-5.2c-4.3-4-9.4-5.9-15.1-6.3c-3.9-0.3-7.5,0.9-10.7,3c-2.1,1.3-4.1,2.8-6.1,4.2c-2.8,1.9-5.7,3.6-9.1,4.3c-5.1,1-10,0.2-14.7-1.8c-3.7-1.6-6.7-4.2-10.1-6.2c-3.8-2.2-7.9-3.9-12.5-3.5c-3.2,0.3-6.2,1-9.1,2.2c-3.6,1.5-6.6,3.9-9.7,6.2c-5.6,4.2-11.8,5.4-18.7,3.9c-4.3-0.9-8.2-2.6-11.5-5.4c-4.1-3.5-8.7-3.9-13.7-2.4c-0.9,0.3-1.9,0.6-2.8,0.8c-1.7,0.4-2.9,1.4-3.9,2.7c-0.1,0.2-0.2,0.5-0.5,0.4c-0.3-2.1,2.1-5.8,3.9-6.8c2.4-1.3,4.9-1.8,7.5-2.2c5.2-0.7,9.3,1.4,13.2,4.5c3.2,2.5,6.9,3.6,10.8,4.2c6,1,10.8-1.4,15.3-5.1C81,89,87,86.5,93.6,85.5c6-1,11.4,0.8,16.7,3.7c2.9,1.6,5.4,3.9,8.3,5.5c5.3,2.8,10.7,3.9,16.3,0.9c2.4-1.3,4.7-2.8,6.9-4.5c4.2-3.3,8.7-5.7,14.1-6.2c3-0.3,6-0.1,9,0.5c4.9,1,9,3.4,12.5,6.8c3.8,3.7,8.4,5.6,13.5,6.3c2.2,0.3,4.4,0.7,6.7,0.4c3-0.5,5.5-2,7.8-3.9c0.9-0.7,1.7-1.5,2.5-2.3c0.4-0.3,0.8-0.7,1.2-1.1C209.4,91.2,209.6,91.3,209.4,91.8L209.4,91.8z" style="opacity:0.7;fill:#7FCDDD" />
		<path d="M25.8,14c0,2.4-0.4,4.6-1.2,6.6c-0.8,1.9-1.9,3.4-3.3,4.5c-1.4,1.1-3.1,1.6-5,1.6c-2.3,0-4.1-0.7-5.3-2c-1.2-1.4-1.9-3.3-1.9-5.7c0-0.6,0-1.3,0.1-1.9H4.7l-2,9.4H0.4l4.2-20H7l-1.8,8.5h4.3c0.6-2.7,1.7-4.8,3.4-6.4s3.7-2.4,6-2.4c2.1,0,3.8,0.7,5,2.1C25.2,9.6,25.8,11.5,25.8,14z M18.7,8.2c-1.4,0-2.6,0.5-3.7,1.4c-1.1,0.9-1.9,2.2-2.5,3.8s-0.9,3.4-0.9,5.4c0,1.8,0.4,3.2,1.2,4.3c0.8,1,2,1.5,3.5,1.5c1.3,0,2.5-0.4,3.6-1.3s1.9-2.1,2.5-3.8c0.6-1.7,0.9-3.5,0.9-5.5c0-1.8-0.4-3.2-1.2-4.3C21.3,8.7,20.1,8.2,18.7,8.2z" style="opacity:0.7;fill:#4F7EBF" />
		<path d="M34.6,15.9l-5-9.5h2.6l4.9,9.5l2-9.5h2.3l-2,9.5L48,6.4h2.8l-9.2,10l5.1,9.9h-2.6l-4.9-10l-2.1,10h-2.3l2.1-10l-8.9,10h-2.9L34.6,15.9z" style="opacity:0.7;fill:#4F7EBF" />
		<path d="M63.1,26.4h-2.3l2-9.4h-9l-2,9.4h-2.3l4.2-20H56l-1.8,8.5h9l1.8-8.5h2.3L63.1,26.4z" style="opacity:0.7;fill:#4F7EBF" />
		<path d="M75,6.4l-1.8,8.5h1.9c4,0,6,1.6,6,4.9c0,2.1-0.7,3.7-2,4.9s-3.3,1.7-5.8,1.7h-4.8l4.2-20H75zM73.7,24.4c3.4,0,5.1-1.5,5.1-4.4c0-1-0.3-1.8-0.9-2.3c-0.6-0.5-1.5-0.8-2.7-0.8h-2.3l-1.6,7.4H73.7z M85.2,26.4h-2.3l4.2-20h2.3L85.2,26.4z" style="opacity:0.7;fill:#4F7EBF" />
		<path d="M94.7,6.4h2.2l-2.4,11.2L93.3,23h0.1l12.8-16.5h2.7l-4.2,20h-2.2l2.4-11.3c0.5-2.6,1-4.5,1.3-5.6h-0.1L93.2,26.4h-2.7L94.7,6.4z M107.3,0.6c-0.5,2.8-2.4,4.2-5.6,4.2c-1.4,0-2.5-0.3-3.2-0.8c-0.7-0.6-1.1-1.4-1.1-2.5c0-0.3,0-0.6,0.1-0.9h2c-0.1,0.3-0.1,0.6-0.1,0.8c0,1.2,0.8,1.7,2.4,1.7c1,0,1.8-0.2,2.3-0.6c0.5-0.4,0.9-1,1-1.9H107.3z" style="opacity:0.7;fill:#4F7EBF" />
		<path d="M135.3,14c0,2.4-0.4,4.6-1.2,6.6c-0.8,1.9-1.9,3.4-3.4,4.5c-1.5,1.1-3.2,1.6-5.2,1.6c-2.3,0-4.1-0.7-5.4-2s-2-3.3-2-5.7c0-2.4,0.4-4.6,1.3-6.6c0.9-2,2.1-3.5,3.6-4.6s3.2-1.6,5.2-1.6c2.2,0,4,0.7,5.2,2.1C134.6,9.6,135.3,11.5,135.3,14z M127.9,8.2c-1.4,0-2.7,0.5-3.8,1.4c-1.1,0.9-2,2.2-2.6,3.8c-0.6,1.6-0.9,3.4-0.9,5.4c0,1.8,0.4,3.2,1.3,4.2c0.9,1,2.1,1.5,3.6,1.5c1.4,0,2.6-0.4,3.7-1.3c1.1-0.9,2-2.2,2.6-3.8c0.6-1.7,1-3.5,1-5.5c0-1.8-0.4-3.2-1.3-4.2C130.7,8.7,129.5,8.2,127.9,8.2z" style="opacity:0.7;fill:#4F7EBF" />
		<path d="M150.7,26.4H148l-6.3-9.9l-2.1,9.9h-2.3l4.2-20h2.3l-2.1,9.7l9.6-9.7h2.9l-10.1,10L150.7,26.4z" style="opacity:0.7;fill:#4F7EBF" />
		<path d="M163,26.4h-10l4.2-20h10l-0.4,2.1H159l-1.3,6.4h7.2l-0.4,2.1h-7.2l-1.6,7.3h7.7L163,26.4z" style="opacity:0.7;fill:#4F7EBF" />
		<path d="M177.2,20h-6.8l-3.3,6.3h-2.6l10.9-20h2.4l2.5,20H178L177.2,20z M176.9,17.9l-0.5-4.1c-0.2-1.6-0.4-3.2-0.4-4.8c-0.3,0.8-0.7,1.6-1.1,2.4c-0.4,0.8-1.5,2.9-3.4,6.5H176.9z" style="opacity:0.7;fill:#4F7EBF" />
		<path d="M196.4,26.4h-2.3l2-9.4h-9l-2,9.4h-2.3l4.2-20h2.3l-1.8,8.5h9l1.8-8.5h2.3L196.4,26.4z" style="opacity:0.7;fill:#4F7EBF" />
	</svg>
	 <svg x="0" y="2048" width="1024" height="1024" viewBox="0 0 226.1 103.3" preserveAspectRatio="xMinYMid meet" >
		<path d="M16.8,41.3c2.2-5.9,6.6-9.5,12.4-11.6c2.8-1,5.6-1.9,8.7-1.9 c2.8,0,5.4,0.6,7.9,1.6c3.7,1.5,7,3.6,10,6.2c2.1,1.8,4.2,3.6,7,4.3c3.6,0.9,6.7-0.1,9.6-2c3.5-2.3,6.9-5,10.4-7.3 c3.7-2.4,7.5-4.5,12-5.3c5.2-0.9,9.8,0.4,14.3,2.8c3.6,1.9,6.2,4.9,8.6,8c3,3.9,6.9,4.9,11.3,2.7c1.2-0.6,2.4-1.4,3.5-2.2 c4.1-2.8,8.2-5.6,12.6-8c3.7-2,7.7-3,11.9-3.6c7.2-1,13.8,0.7,19.9,4.4c2.6,1.6,4.7,3.8,6.5,6.2c2.5,3.2,5.4,5.9,9.1,7.6 c6.6,3.1,14.6,1.6,19.4-3.1c1.6-1.5,3.1-3.1,4.6-4.7c1.8-1.9,2.8-4.2,3.7-6.6c0.1-1,1-2,0.2-3.1c-0.4-2.3-1.2-4.5-2.6-6.3 c-3.1-4-8.9-5.4-13.4-3c-1.6,0.9-3.1,2-4.5,3.2c-1.8,1.7-2.6,3.9-3,6.2c-0.3,1.6,0.5,2.7,1.8,3.5s2.8,1.3,4.3,1.5 c2.1,0.3,3.3-1.2,4.7-2.3c0.5-0.4,0.9-1,1.7-1.1c-0.1,1.3-0.9,2.1-1.7,2.9c-1.1,1-2.2,2.1-3.3,3c-1.3,1.1-2.9,1-4.4,0.6 c-3.2-0.9-5.7-2.7-6.8-5.9c-0.4-1.1-0.4-2.3,0-3.4c0.6-1.7,0.9-3.4,1.8-4.9c2.4-4.1,9.3-10,16.4-8.9c3.2,0.5,6.1,1.7,8.7,3.7 c5.5,4.3,7.4,10.7,5.2,17.8c-1.1,3.6-3,6.7-5.7,9.5c-2.9,3.1-6.2,5.6-10.2,6.9c-5,1.6-9.9,1.6-15,0.4c-6.8-1.6-11.8-5.6-16.2-10.7 c-4-4.8-9.1-7.4-15.4-8.1c-7.5-0.9-14,1.3-20.1,5.4c-3.8,2.5-7.4,5.2-11.3,7.4c-5.6,3.2-12.4,2.2-17-2.3c-1.1-1.1-2.2-2.3-3.2-3.4 c-2.6-3-6-5-9.6-6.3s-7.3-0.9-10.8,0.7c-4.4,2.1-8.4,4.8-12.4,7.7c-3.3,2.3-6.7,4.4-10.7,5.1c-3.4,0.6-6.5,0-9.6-1.4 c-2.5-1.1-4.5-3-6.6-4.7c-3.4-2.9-7.2-5.2-11.7-6.1c-3.3-0.6-6.4,0.1-9.4,1.3c-4,1.6-7.5,4.2-11.4,6.1c-0.7,0.3-1.2,0.9-1.9,1.4 C16.9,41.7,16.6,41.7,16.8,41.3z" style="opacity:0.7;fill:#7FCDDD" />
		<path d="M215.6,66.3c-1.3,2.2-2.7,4.4-4.5,6.3 c-1.6,1.6-3.6,2.3-5.8,2.4c-9.5,0.5-17.8-2.8-25.5-7.8c-1.7-1.1-3.2-2.6-4.5-4.3c-1.7-2.1-3.8-3.2-6.4-3.8 c-4.1-0.9-8.1-1.5-12.2,0.1c-3,1.2-5.6,3.1-8.1,5.2c-2.6,2.2-5.1,4.5-8.1,6.2c-9.3,5.2-20.4,4.4-28.3-1.2c-2.6-1.9-5-3.8-7-6.2 c-4.6-5.7-11.7-4.4-15.8-1.8c-2.9,1.8-5.6,3.9-8.4,5.9c-5.5,3.9-11.6,6.3-18.4,6c-4.2-0.2-8.1-1.6-11.8-3.7c-2.4-1.4-4.7-2.8-7-4.4 c-4.1-3-8.4-3.1-12.9-1c-3.6,1.7-7.4,3.1-10.6,5.6c-0.1-0.2-0.2-0.3-0.1-0.3c3-6.5,8.1-10.3,15.2-11.3c4.1-0.6,7.7,0.6,11.1,2.7 c3.4,2.2,6.9,4.2,10.5,6c5,2.4,9.9,2,14.9,0.1c4.2-1.6,7.5-4.4,10.9-7.1c4.5-3.6,9.4-6.1,15.3-6.1c3.7,0,6.9,1.3,9.5,3.9 c2.8,2.7,5.4,5.7,8.7,7.7c6.8,4.3,13.8,5,21.1,0.9c2.8-1.6,5.1-3.8,7.5-5.9c4.3-3.7,9-6.7,14.7-7.5c5.6-0.8,11-0.5,15.9,2.7 c1.9,1.2,3.4,2.9,4.9,4.5c3.1,3.3,6.5,6.1,10.6,8c3.5,1.6,7.2,2.5,11,2.8c3.2,0.3,6-1.1,8.8-2.4c1.5-0.7,2.8-1.7,4.2-2.5 c0.2-0.1,0.4-0.4,0.7-0.2C215.8,66.1,215.6,66.3,215.6,66.3L215.6,66.3z" style="opacity:0.7;fill:#7FCDDD" />
		<path d="M209.4,91.8c-1.2,2.2-2.1,4.6-3.8,6.5 c-2.4,2.9-5.5,4.6-9.2,4.8c-4.8,0.2-9.6,0-14.2-1.3c-3.5-1-6.4-2.9-9-5.2c-4.3-4-9.4-5.9-15.1-6.3c-3.9-0.3-7.5,0.9-10.7,3 c-2.1,1.3-4.1,2.8-6.1,4.2c-2.8,1.9-5.7,3.6-9.1,4.3c-5.1,1-10,0.2-14.7-1.8c-3.7-1.6-6.7-4.2-10.1-6.2c-3.8-2.2-7.9-3.9-12.5-3.5 c-3.2,0.3-6.2,1-9.1,2.2c-3.6,1.5-6.6,3.9-9.7,6.2c-5.6,4.2-11.8,5.4-18.7,3.9c-4.3-0.9-8.2-2.6-11.5-5.4c-4.1-3.5-8.7-3.9-13.7-2.4 c-0.9,0.3-1.9,0.6-2.8,0.8c-1.7,0.4-2.9,1.4-3.9,2.7c-0.1,0.2-0.2,0.5-0.5,0.4c-0.3-2.1,2.1-5.8,3.9-6.8c2.4-1.3,4.9-1.8,7.5-2.2 c5.2-0.7,9.3,1.4,13.2,4.5c3.2,2.5,6.9,3.6,10.8,4.2c6,1,10.8-1.4,15.3-5.1C81,89,87,86.5,93.6,85.5c6-1,11.4,0.8,16.7,3.7 c2.9,1.6,5.4,3.9,8.3,5.5c5.3,2.8,10.7,3.9,16.3,0.9c2.4-1.3,4.7-2.8,6.9-4.5c4.2-3.3,8.7-5.7,14.1-6.2c3-0.3,6-0.1,9,0.5 c4.9,1,9,3.4,12.5,6.8c3.8,3.7,8.4,5.6,13.5,6.3c2.2,0.3,4.4,0.7,6.7,0.4c3-0.5,5.5-2,7.8-3.9c0.9-0.7,1.7-1.5,2.5-2.3 c0.4-0.3,0.8-0.7,1.2-1.1C209.4,91.2,209.6,91.3,209.4,91.8L209.4,91.8z" style="opacity:0.7;fill:#7FCDDD" />
		<path d="M153.1,14c0,2.4-0.4,4.5-1.2,6.3s-1.9,3.3-3.3,4.3 c-1.4,1-3.1,1.5-5,1.5c-2.3,0-4-0.7-5.3-2s-1.9-3.2-1.9-5.5s0.4-4.4,1.3-6.4c0.9-2,2-3.4,3.5-4.4s3.1-1.6,5-1.6c2.1,0,3.8,0.7,5.1,2 S153.1,11.7,153.1,14z M146,8.4c-1.4,0-2.6,0.4-3.7,1.3s-1.9,2.1-2.5,3.7s-0.9,3.3-0.9,5.2c0,1.7,0.4,3.1,1.3,4.1 c0.9,1,2,1.5,3.5,1.5c1.3,0,2.5-0.4,3.6-1.3c1.1-0.9,1.9-2.1,2.5-3.7s0.9-3.4,0.9-5.3c0-1.7-0.4-3.1-1.2-4.1S147.5,8.4,146,8.4z" style="opacity:0.7;fill:#4F7EBF" />
		<path d="M166.4,8.5c-1.5,0-2.9,0.4-4.1,1.3s-2.2,2.1-2.9,3.8 c-0.7,1.6-1.1,3.4-1.1,5.4c0,1.6,0.4,3,1.3,3.9c0.9,1,2,1.5,3.5,1.5c1.2,0,2.6-0.3,4.2-0.8v2c-0.8,0.3-1.5,0.5-2.2,0.6 s-1.5,0.2-2.5,0.2c-2.1,0-3.8-0.7-5-2s-1.8-3.1-1.8-5.4s0.5-4.4,1.4-6.4s2.2-3.5,3.7-4.5s3.3-1.6,5.3-1.6c1.7,0,3.3,0.4,4.6,1.1 l-0.9,1.9C168.8,8.8,167.6,8.5,166.4,8.5z" style="opacity:0.7;fill:#4F7EBF" />
		<path d="M180.6,26h-9.7L175,6.7h9.7l-0.4,2h-7.5l-1.3,6.2h6.9l-0.4,2 h-7l-1.5,7.1h7.4L180.6,26z" style="opacity:0.7;fill:#4F7EBF" />
		<path d="M194.3,19.9h-6.5l-3.2,6.1H182l10.5-19.3h2.3l2.4,19.3H195 L194.3,19.9z M194,17.8l-0.5-3.9c-0.2-1.6-0.3-3.1-0.4-4.6c-0.3,0.8-0.7,1.5-1.1,2.3c-0.4,0.8-1.5,2.8-3.3,6.2H194z" style="opacity:0.7;fill:#4F7EBF" />
		<path d="M213.6,26h-2.4l-6.1-16.1H205c-0.3,1.9-0.6,3.8-1,5.5 L201.8,26h-2.1l4.1-19.3h2.4l6.1,16.1h0.1c0.3-2,0.6-3.7,0.9-5.3l2.3-10.7h2.2L213.6,26z" style="opacity:0.7;fill:#4F7EBF" />
		<path d="M12,20.4c0,1.9-0.6,3.3-1.9,4.3c-1.2,1-3,1.5-5.2,1.5c-0.9,0-1.8-0.1-2.5-0.2 c-0.7-0.1-1.4-0.3-2-0.6v-2.2c1.4,0.7,2.9,1.1,4.5,1.1c1.4,0,2.6-0.3,3.4-1c0.8-0.7,1.3-1.6,1.3-2.7c0-0.7-0.2-1.3-0.7-1.8 c-0.5-0.5-1.3-1.1-2.6-1.9c-1.3-0.7-2.2-1.5-2.8-2.2C3.1,13.9,2.8,13,2.8,12c0-1.6,0.6-3,1.7-4s2.7-1.5,4.6-1.5 c0.9,0,1.7,0.1,2.4,0.3c0.8,0.2,1.5,0.5,2.4,0.9l-0.9,2c-0.6-0.3-1.2-0.6-2-0.8s-1.4-0.3-2-0.3C8,8.5,7,8.8,6.3,9.4 c-0.7,0.6-1.1,1.4-1.1,2.5c0,0.5,0.1,0.9,0.2,1.2c0.1,0.3,0.4,0.7,0.7,1s0.9,0.7,1.9,1.3c1.3,0.8,2.2,1.4,2.6,1.8 c0.5,0.4,0.8,0.9,1,1.5C11.9,19.1,12,19.7,12,20.4z" style="opacity:0.7;fill:#4F7EBF" />
		<path d="M32.2,14c0,2.4-0.4,4.5-1.2,6.3s-1.9,3.3-3.3,4.3c-1.4,1-3.1,1.5-5,1.5 c-2.3,0-4-0.7-5.3-2s-1.9-3.2-1.9-5.5c0-2.3,0.4-4.4,1.3-6.4s2-3.4,3.5-4.4s3.1-1.6,5-1.6c2.1,0,3.8,0.7,5.1,2S32.2,11.7,32.2,14z M25.1,8.4c-1.4,0-2.6,0.4-3.7,1.3s-1.9,2.1-2.5,3.7c-0.6,1.6-0.9,3.3-0.9,5.2c0,1.7,0.4,3.1,1.3,4.1c0.9,1,2,1.5,3.5,1.5 c1.3,0,2.5-0.4,3.6-1.3c1.1-0.9,1.9-2.1,2.5-3.7s0.9-3.4,0.9-5.3c0-1.7-0.4-3.1-1.2-4.1S26.5,8.4,25.1,8.4z" style="opacity:0.7;fill:#4F7EBF" />
		<path d="M51.5,6.7l-2.7,12.7c-0.5,2.3-1.4,4-2.6,5.1c-1.3,1.1-3,1.7-5.1,1.7 c-2,0-3.5-0.5-4.5-1.4s-1.5-2.2-1.5-3.9c0-0.7,0.1-1.6,0.3-2.6L38,6.7h2.2l-2.5,11.7c-0.2,0.9-0.3,1.8-0.3,2.5c0,1,0.3,1.8,1,2.4 c0.6,0.6,1.6,0.9,2.9,0.9c1.5,0,2.7-0.4,3.5-1.2c0.8-0.8,1.5-2,1.8-3.8l2.7-12.6H51.5z" style="opacity:0.7;fill:#4F7EBF" />
		<path d="M57.7,26h-2.3L59,8.7h-5.4l0.4-2h13l-0.4,2h-5.4L57.7,26z" style="opacity:0.7;fill:#4F7EBF" />
		<path d="M79,26h-2.2l1.9-9.1H70L68.1,26h-2.2l4.1-19.3h2.2l-1.7,8.2h8.7l1.8-8.2h2.2L79,26z" style="opacity:0.7;fill:#4F7EBF" />
		<path d="M93.8,26h-9.7l4.1-19.3h9.7l-0.4,2H90l-1.3,6.2h6.9l-0.4,2h-7L86.8,24h7.4L93.8,26z" style="opacity:0.7;fill:#4F7EBF" />
		<path d="M101.9,18l-1.7,8h-2.2L102,6.7h4.2c3.9,0,5.9,1.6,5.9,4.8c0,3.1-1.6,5-4.9,5.9l3.2,8.5 H108l-2.8-8H101.9z M103.8,8.7c-0.9,4.3-1.4,6.8-1.5,7.4h2.2c1.7,0,3-0.4,3.9-1.1s1.4-1.8,1.4-3.2c0-1.1-0.3-1.8-0.9-2.3 c-0.6-0.5-1.6-0.7-2.9-0.7H103.8z" style="opacity:0.7;fill:#4F7EBF" />
		<path d="M127.2,26h-2.4l-6.1-16.1h-0.1c-0.3,1.9-0.6,3.8-1,5.5L115.4,26h-2.1l4.1-19.3h2.4 l6.1,16.1h0.1c0.3-2,0.6-3.7,0.9-5.3l2.3-10.7h2.2L127.2,26z" style="opacity:0.7;fill:#4F7EBF" />
	</svg>
	 <svg x="1024" y="2048" width="1024" height="1024" viewBox="0 0 81.8 62.5" preserveAspectRatio="xMinYMid meet" >
		<path d="M46.6,26.5c0,1.2-0.2,2.3-0.6,3.3c-0.4,1-1,1.7-1.7,2.2s-1.6,0.8-2.6,0.8c-1.2,0-2.1-0.3-2.7-1c-0.7-0.7-1-1.6-1-2.9c0-1.2,0.2-2.3,0.7-3.3s1-1.8,1.8-2.3s1.6-0.8,2.6-0.8c1.1,0,2,0.4,2.6,1.1S46.6,25.3,46.6,26.5z M43,23.6c-0.7,0-1.4,0.2-1.9,0.7s-1,1.1-1.3,1.9s-0.5,1.7-0.5,2.7c0,0.9,0.2,1.6,0.7,2.1c0.4,0.5,1.1,0.8,1.8,0.8s1.3-0.2,1.9-0.7c0.5-0.4,1-1.1,1.3-1.9s0.5-1.7,0.5-2.8c0-0.9-0.2-1.6-0.6-2.1C44.3,23.8,43.7,23.6,43,23.6z" style="opacity:0.7;fill:#4F7EBF" />
		<path d="M54.4,32.7H53l-3.1-5l-1,5h-1.2l2.1-10H51l-1,4.9l4.8-4.9h1.4l-5,5L54.4,32.7z" style="opacity:0.7;fill:#4F7EBF" />
		<path d="M60.5,32.7h-5l2.1-10h5l-0.2,1h-3.9l-0.7,3.2h3.6l-0.2,1h-3.6l-0.7,3.8h3.9L60.5,32.7z" style="opacity:0.7;fill:#4F7EBF" />
		<path d="M67.6,29.5h-3.4l-1.6,3.2h-1.3l5.5-10H68l1.3,10H68L67.6,29.5z M67.5,28.5l-0.2-2c-0.1-0.8-0.2-1.6-0.2-2.4c-0.2,0.4-0.4,0.8-0.5,1.2s-0.8,1.5-1.7,3.2C64.9,28.5,67.5,28.5,67.5,28.5z" style="opacity:0.7;fill:#4F7EBF" />
		<path d="M77.3,32.7h-1.1l1-4.7h-4.5l-1,4.7h-1.2l2.1-10h1.2L72.9,27h4.5l0.9-4.3h1.1L77.3,32.7z" style="opacity:0.7;fill:#4F7EBF" />
		<path d="M16.2,10.4c-0.6,0-1.1,0.1-1.7,0.2c-1.3,0.2-2.5,0.8-3.4,1.7C9,14.7,8,17.5,7.8,20.7c-0.1,1.8,0.2,3.5,0.5,5.2c0.2,0.9,0.8,1.1,1.5,0.5c0.9-0.8,1.9-1.3,3.1-1.7c1.3-0.3,2.5-0.8,3.5-1.7c0,0,0.1-0.1,0.2,0c-0.2,0.4-0.3,0.8-0.5,1.2c-0.7,1.9-1.8,3.6-2.5,5.5c-1.2,2.8-1.9,5.6-2.4,8.6c-0.2,1.3-0.3,2.5-0.3,3.8c0,1.1-0.2,2.3,0,3.4c0.5,2.8,1.1,5.5,2.4,8c0,0.3-0.2,0.1-0.3,0.1c-0.7-0.3-1.4-0.5-2.2-0.8c-1.9-0.7-3.8-1.3-5.9-0.9c-1.3,0.2-2.5,0.6-3.4,1.6c-0.5,0.6-0.9,1.2-1.1,1.9c0.7-0.9,1.7-1.3,2.7-1.7c1.4-0.5,2.8-0.7,4.3-0.3c1.9,0.6,3.7,1.2,5.5,2.1c2.6,1.2,5.1,1.3,7.7,0.2c0.9-0.4,1.7-0.8,2.5-1.3c1.3-0.8,2.8-1.4,4.2-2c2-0.9,4-0.8,5.8,0.5c1.1,0.8,1.4,2.4,0.7,3.4c-0.7,0.9-1.6,1.5-2.7,1.5c-0.8,0-1.4-0.4-1.6-1.1c-0.2-0.8,0.1-1.4,0.8-1.9c0.5-0.3,1-0.4,1.3,0.3c0,0.1,0.1,0.2,0.2,0.1c0.1,0,0.1-0.2,0.1-0.2c0-0.6-0.4-1.1-1-1.1c-0.5,0-0.9,0.1-1.3,0.4c-0.7,0.5-1,1.1-1.2,2c-0.3,1.8,0.8,3.1,2.7,3.1c1.8,0,3.3-0.9,4.3-2.5c0.2-0.3,0.3-0.4,0.7-0.5c0.9-0.2,1.7-0.7,2.3-1.3c0.8-0.9,1.5-1.8,2.2-2.8c0.8-1.2,1.9-1.9,3.2-2.3c0.7-0.2,1.3-0.4,2-0.2c1.5,0.4,2.6,1.2,3.4,2.5c0.6,0.9,1.4,1.8,2.2,2.6c0.5,0.5,1,1.1,1.5,1.7c-0.8,0-1.5,0-2.3-0.2c-1.7-0.4-3.2-1.1-4.6-2c-0.1,0-0.2-0.2-0.3-0.1c-0.1,0.1,0,0.2,0,0.4c0.3,0.7,0.8,1.4,1.3,2c1.4,1.5,3.3,1.9,5.2,2c2.7,0.2,5.1-0.5,7.5-1.7c1.4-0.7,2.7-1.6,4-2.4c2.9-1.8,5.9-2.4,9.1-1.6c1.5,0.4,2.9,0.9,3.9,2.3c0.8,1.2,1.2,3.2-0.6,4.3c-0.3,0.2-0.5,0.4-0.8,0.6c-1.1,0.6-2.2,0.9-3.4,0.2c-1.1-0.7-1.5-2-0.8-3.1c0.2-0.4,0.5-0.6,1-0.5c0.3,0,0.6,0.2,0.8,0.4c0.1,0.1,0.2,0.2,0.3,0.1c0.1-0.1,0.1-0.3,0-0.4c0-0.1-0.1-0.2-0.2-0.3c-0.9-1.2-2.9-1.1-3.6,0.3c-0.7,1.5-0.5,2.9,0.5,4.1c1,1.2,2.3,1.8,3.9,1.5c1.4-0.2,2.6-1,3.7-1.9c1.4-1.2,2-2.6,1.6-4.5c0-0.2,0-0.4,0.2-0.5c0.7-0.6,1.3-1.4,1.7-2.3c0.6-1.3,0.9-2.5,0.7-3.9c-0.5-2.7-1.5-5.2-3.4-7.3c-0.7-0.8-1.4-1.5-2-2.3c-1-1.4-1.2-3-0.9-4.7c0.4-2.4,1.7-4.2,3.9-5.2c0.3-0.1,0.6-0.3,0.9-0.6c-0.7,0-1.3,0-1.9,0.1c-2.7,0.6-4.8,2-6.2,4.5c-0.7,1.3-1.1,2.7-1,4.1c0,1.3,0.5,2.5,1,3.7c0.4,1.1,1.2,2.1,1.7,3.1c0.8,1.8,0.6,4-0.7,5.5c-0.2,0.2-0.3,0.3-0.6,0.2c-1.8-0.4-3.7-0.2-5.5,0.2c-1.7,0.4-3.1,1.1-4.5,2c-0.2,0.1-0.3,0.2-0.5,0c-0.8-0.7-1.7-1.3-2.4-2.1c-1.4-1.7-2.9-3.3-4.1-5.1c-1.3-1.8-2.7-3.4-4.7-4.5c-1.9-1.1-4-1.7-6.2-1.7c-1.8,0-3.5,0.6-5.2,1.5c-2.7,1.4-4.7,3.5-6.6,5.8c-0.7,0.9-1.3,1.8-2,2.7c-0.2,0.4-0.5,0.5-1,0.5c-1.1,0-2.3,0.1-3.4,0.6c-0.4,0.2-0.7,0.1-1-0.2c-1.4-1.1-2.3-2.6-3-4.3c-0.3-0.8-0.6-1.6-1-2.4c-1-2.1-1.5-4.4-1.7-6.8c-0.2-2.4,0.1-4.7,0.8-7c0.5-1.5,1.2-2.8,1.7-4.2c0.9-2.6,1.7-5.3,1.3-8.2c-0.3-2.3-1.3-4.3-3.2-5.6C19.4,10.8,17.9,10.4,16.2,10.4z M15.9,12.1c0.8,0,1.7,0.1,2.6,0.4c2.3,0.8,3.5,2.5,4,4.9c0.4,2.3,0,4.5-0.7,6.8c-0.3,1.1-0.8,2.1-1.3,3.1c-0.7,1.3-1,2.8-1.2,4.3c-0.2,1.5-0.4,3-0.5,4.6c-0.2,3,0.4,5.8,1.3,8.5c0.5,1.5,1,3,1.8,4.3c0.6,0.9,1.2,1.9,2,2.6c0.2,0.1,0.3,0.2,0,0.4c-1.4,0.7-2.7,1.7-4.2,2.3c-1.3,0.6-2.8,0.8-4.2,0.5c-0.3,0-0.4-0.2-0.5-0.4c-0.8-1.7-1.3-3.6-1.8-5.4c-0.4-1.7-0.5-3.5-0.6-5.3c0-2.9,0.4-5.8,1-8.7c0.6-2.7,1.6-5.3,2.8-7.8c0.8-1.7,1.3-3.6,1.7-5.5c0.1-0.5,0.3-1,0.5-1.5c0.3-1.5-0.2-3-1.4-4c-1-0.7-2.3-0.6-3.1,0.4c-0.5,0.6-0.8,1.1-0.8,1.9s0.4,1.3,1.1,1.6c0.4,0.1,0.9,0.3,1.3,0.1c0.2-0.1,0.4-0.2,0.5-0.4c0.1-0.1,0.1-0.3,0-0.4s-0.2-0.1-0.3,0c-0.5,0.1-0.9-0.1-1.1-0.5c-0.2-0.4,0.1-1.1,0.5-1.4s0.7-0.3,1.1,0.1c1.3,1.1,1.1,3.2-0.3,4.4c-1,0.8-2.1,1.3-3.3,1.6c-1.1,0.3-2.2,0.7-3.1,1.5c-0.2,0.2-0.3,0.2-0.3-0.1c-0.3-1.8-0.2-3.6,0-5.3c0.3-1.8,1-3.5,1.9-5.1c0.7-1.2,1.8-1.9,3.1-2.2C14.9,12.1,15.4,12.1,15.9,12.1z M75.6,32c0.2,0.1,0.2,0.1,0.1,0.2c-1,1.8-1.5,3.8-1.2,5.8c0.2,1,0.5,1.9,1.1,2.7c0.7,1.1,1.6,2,2.4,2.9c1.2,1.3,1.8,2.8,2,4.5c0.1,0.7,0.3,1.4,0.3,2.1c0,1.4-0.7,2.4-1.5,3.5c-0.2,0.3-0.3,0-0.4-0.2c-0.6-0.8-1.3-1.3-2.1-1.7c-0.2-0.1-0.4-0.2-0.7-0.3c-0.3-0.1-0.3-0.2-0.2-0.6c0.5-1.2,0.8-2.5,0.9-3.9c0-1.6-0.5-3-1.2-4.3c-0.9-1.6-1.5-3.3-1.5-5.1C73.5,35.6,74.1,33.6,75.6,32z M45,41.6c0.3,0,0.6,0,0.9,0c2.2,0.3,3.9,1.4,5.5,2.8c2,1.7,3.8,3.6,5.4,5.8c0.4,0.6,0.9,1.2,1.2,1.8c0.5,0.9,1.4,1.5,2.2,2.1c0.1,0.1,0.3,0.1,0.2,0.2c0,0.2-0.2,0.2-0.3,0.2c-0.8,0.2-1.5,0.7-2.2,0.9c-0.7,0.3-1.4,0.4-2.1,0c-1.1-0.8-2.2-1.5-3.2-2.4c-0.9-0.9-1.7-2-2.6-2.9c-1-1.1-2.2-2.1-3.7-2.4c-0.1,0-0.2,0-0.2,0c-0.2,0-0.4,0-0.6,0c-1.5,0-2.8,0.6-4,1.6c-1.3,1.2-2.4,2.6-3.5,4c-0.3,0.4-0.7,0.8-1.2,1.1c-0.3,0.2-0.4,0.2-0.4-0.2c-0.1-1.4-0.7-2.5-2-3.1c-0.2-0.1-0.5-0.3-0.7-0.4c-0.2-0.1-0.2-0.2,0-0.3c1.1-1.2,1.9-2.7,2.9-4c1.5-1.9,3.3-3.6,5.7-4.4C43.2,41.6,44.1,41.6,45,41.6L45,41.6z" style="opacity:0.7;fill:#7FCDDD" />
		<path d="M19.5,13.7h-1.3l2-9.6h-3L17.5,3h7.2l-0.2,1.1h-3L19.5,13.7z" style="opacity:0.7;fill:#4F7EBF" />
		<path d="M26.3,3h1.2l-1.3,6l-0.7,2.9l0,0L32.4,3h1.5l-2.3,10.7h-1.2l1.3-6c0.3-1.4,0.5-2.4,0.7-3l0,0l-6.9,9H24L26.3,3z" style="opacity:0.7;fill:#4F7EBF" />
		<path d="M40.8,13.7h-1.3L37.9,9l-3.5,4.7H33L37.4,8l-1.9-5h1.3l1.5,4.1L41.5,3h1.4l-4.1,5L40.8,13.7z" style="opacity:0.7;fill:#4F7EBF" />
		<path d="M44.5,3h1.2l-1.3,6l-0.7,2.9l0,0l7-8.9h1.5l-2.3,10.7h-1.2l1.3-6c0.3-1.4,0.5-2.4,0.7-3l0,0l-6.9,9h-1.5L44.5,3z" style="opacity:0.7;fill:#4F7EBF" />
		<path d="M55,3h1.2l-1.3,6l-0.7,2.9l0,0L61.1,3h1.5l-2.3,10.7h-1.2l1.3-6c0.3-1.4,0.5-2.4,0.7-3l0,0l-6.9,9h-1.5L55,3z M61.7-0.2c-0.3,1.5-1.3,2.3-3,2.3c-0.8,0-1.3-0.1-1.7-0.4S56.4,1,56.4,0.4c0-0.2,0-0.3,0.1-0.5h1.1c0,0.2,0,0.3,0,0.4c0,0.6,0.4,0.9,1.3,0.9c0.5,0,1-0.1,1.2-0.3c0.3-0.2,0.5-0.6,0.5-1L61.7-0.2L61.7-0.2z" style="opacity:0.7;fill:#4F7EBF" />
	</svg>
</svg>