<?xml version="1.0" encoding="UTF-8" standalone="no"?> <svg xmlns:dc="http://purl.org/dc/elements/1.1/" xmlns:cc="http://creativecommons.org/ns#" xmlns:rdf="http://www.w3.org/1999/02/22-rdf-syntax-ns#" xmlns:svg="http://www.w3.org/2000/svg" xmlns="http://www.w3.org/2000/svg" xmlns:sodipodi="http://sodipodi.sourceforge.net/DTD/sodipodi-0.dtd" version="1.1" width="4096" height="4096" >
	 <svg x="0" y="0" width="1024" height="1024" viewBox="0 0 131 131" preserveAspectRatio="xMinYMid meet" >
		<path d="M0.2,21.5c0.1,0,0.1,0,0.2,0c0,1.9,0,3.8,0,5.8l-0.1,0l-0.1,0C0.2,25.3,0.2,23.4,0.2,21.5z" style="fill:#E7F0FD" />
		<path d="M0.4,27.2c0-1.9,0-3.8,0-5.8c0.2-3.6,0.4-7.1,0.5-10.7c0.1-5.3,3.8-9.2,9.4-9.6 C30.1,0,49.8,1.2,69.1,5.8c11.2,2.7,21.9,6.7,31.7,12.9c11.7,7.4,20.5,17.2,25.6,30.2c8.6,21.6,3.3,47.4-13.1,63.9 c-7,7-15.1,12.3-24.6,15.1c-23,6.7-43.5,1.8-60.8-14.9c-8.7-8.4-14.2-18.8-18.3-30.1c-3.8-10.4-6.1-21.1-7.5-32 C1.1,43,0.6,35.2,0.4,27.2z M16.1,72.7c0.2,13.5,5.1,26.3,15.2,37C43,122,57.6,127.5,74.3,126.8c13.5-0.6,25.4-5.9,35.2-15.4 c11.2-10.8,16.9-24.1,16.9-39.7c0-15.2-5.4-28.3-16-39C99,21.2,84.9,15.8,68.9,16.4C54.2,17,41.2,22.9,31.1,33.8 C21.2,44.4,16.3,57.1,16.1,72.7z" style="fill:#294068" />
		<path d="M16.1,72.7c0.1-15.6,5.1-28.3,14.9-38.9c10.2-11,23.1-16.8,37.9-17.4c15.9-0.6,30.1,4.7,41.5,16.2 c10.7,10.8,16.1,23.9,16,39c0,15.6-5.8,28.9-16.9,39.7c-9.8,9.5-21.7,14.8-35.2,15.4c-16.7,0.7-31.3-4.8-42.9-17.1 C21.2,99,16.3,86.2,16.1,72.7z M107.4,40.7c0.6-0.6,0.8-1.4,0.7-2.2c-0.4-2.4-1-4.6-2.3-6.7c-1.7-2.8-4.2-3.9-7.3-3.6 c-1.5,0.1-3,0.6-4.4,1.3c-4,2-7.5,4.5-10.8,7.5c-0.7,0.7-1.1,0.6-1.7-0.1c-2.8-3.2-5.7-6.1-8.6-9.2c-2.2-2.3-3.1-1.3-4.8-0.1 c-0.2,0.2-0.4,0.4-0.6,0.6c-3.3,3.1-6.2,6.6-9.4,9.8c-1.7,1.7-3.3,3.4-4.7,5.3c-1,1.4-1,2.1-0.1,3.6c1,1.7,2.6,2.8,4.1,4 c0.4,0.3,0.8,0.6,0.2,1.1c-1.7,1.4-3,3.2-4.5,4.8c-0.5,0.5-0.7,0.5-1.1,0c-0.8-1-1.6-2.1-2.6-3c-2.3-2.1-4.5-3-6.9-0.3 c-4.7,5.1-9.4,10.2-14,15.3c-1,1.1-0.8,2.7,0.4,3.9c2.9,3,5.7,6,8.6,9c0.6,0.6,0.5,1,0,1.5c-1.6,1.6-3.2,3.2-4.6,4.9 C30,92,27.4,96,27.8,101.4c0.3,4.2,4.3,8.8,10.1,7.8c1.3-0.2,2.5-0.9,3.5-2c-3.5-0.6-5.7-3-5.4-5.9c0.2-2.3,2-3.8,3.8-5 c3.1-2,6.6-3.1,10.4-2.6c2.9,0.4,5.9,0.7,8.6,2c0.8,0.4,1.1,0.6,0.3,1.4c-1,0.9-2,2-3,3c-1.2,1.3-2.5,2.6-3.2,4.2 c-2.5,6.4-1.4,10.6,3.7,15.6c0.2,0.2,0.4,0.4,0.6,0.3c0.3-0.1,0.1-0.4,0.1-0.6c0-0.3-0.1-0.6-0.1-0.8c0-2.3,0.2-4.6,1.5-6.7 c2.6-4.1,6.4-5.6,11-5.5c1.3,0,2.7,0.1,3.9,0.9c2.1,1.4,4.2,2.7,6.2,4.1c1.2,0.9,2.2,0.9,3.4,0c0.3-0.3,0.7-0.5,1-0.8 c3.5-3,6.5-6.5,9.7-9.8c4.8-4.8,9.6-9.6,14.2-14.6c1.5-1.6,3.2-3,4.3-5c0.4-0.7,0.5-1.3-0.1-1.9c-0.9-0.9-1.7-1.9-2.6-2.8 c-2.5-2.5-3.7-5.5-3.3-9.1c0.5-4.8,3.2-8.1,7.4-10.2c1.8-0.9,3.7-0.9,5.4,0.2c0.3,0.2,0.6,0.4,1,0.3c-1-3.4-5.4-6.8-8.8-6.7 c-2.1,0-4.1,0.5-6,1.4c-2.8,1.4-5.1,3.5-7.6,5.4c-1.2,0.9-1.2,0.9-1.7-0.5c-1.6-4.1-1.7-8.3-0.9-12.5c0.6-3.3,2-6.2,4.9-8.3 c2.3-1.6,5-1.2,6.6,1.1C107.1,38.7,107.3,39.6,107.4,40.7z" style="fill:#E7F0FD" />
		<path d="M107.4,40.7c-0.1-1.1-0.3-2-0.9-2.9c-1.5-2.3-4.3-2.7-6.6-1.1c-2.9,2-4.2,5-4.9,8.3 c-0.8,4.2-0.6,8.4,0.9,12.5c0.5,1.4,0.5,1.4,1.7,0.5c2.5-1.9,4.8-4,7.6-5.4c1.9-0.9,3.9-1.4,6-1.4c3.4-0.1,7.8,3.3,8.8,6.7 c-0.4,0.1-0.7-0.1-1-0.3c-1.8-1.1-3.6-1.2-5.4-0.2c-4.2,2.2-6.8,5.5-7.4,10.2c-0.4,3.5,0.8,6.6,3.3,9.1c0.9,0.9,1.8,1.8,2.6,2.8 c0.6,0.6,0.4,1.2,0.1,1.9c-1.1,2-2.8,3.4-4.3,5c-4.6,5-9.4,9.8-14.2,14.6c-3.3,3.2-6.2,6.8-9.7,9.8c-0.3,0.3-0.7,0.6-1,0.8 c-1.1,0.9-2.2,0.8-3.4,0c-2-1.5-4.1-2.8-6.2-4.1c-1.2-0.8-2.6-0.9-3.9-0.9c-4.6-0.1-8.4,1.4-11,5.5c-1.3,2.1-1.5,4.3-1.5,6.7 c0,0.3,0.1,0.6,0.1,0.8c0,0.2,0.2,0.5-0.1,0.6c-0.3,0.1-0.5-0.1-0.6-0.3c-5.1-5-6.2-9.2-3.7-15.6c0.6-1.6,2-2.9,3.2-4.2 c1-1,1.9-2.1,3-3c0.8-0.7,0.5-1-0.3-1.4c-2.7-1.4-5.6-1.6-8.6-2c-3.8-0.5-7.2,0.6-10.4,2.6c-1.8,1.1-3.6,2.6-3.8,5 c-0.2,2.9,2,5.3,5.4,5.9c-1,1.1-2.1,1.8-3.5,2c-5.8,1-9.8-3.6-10.1-7.8C27.4,96,30,92,33.1,88.1c1.4-1.7,3-3.3,4.6-4.9 c0.6-0.6,0.6-0.9,0-1.5c-2.9-3-5.8-6-8.6-9c-1.2-1.2-1.3-2.8-0.4-3.9c4.6-5.1,9.3-10.2,14-15.3c2.5-2.6,4.6-1.8,6.9,0.3 c1,0.9,1.8,1.9,2.6,3c0.4,0.5,0.6,0.5,1.1,0c1.5-1.6,2.8-3.4,4.5-4.8c0.6-0.5,0.2-0.8-0.2-1.1c-1.5-1.2-3.1-2.3-4.1-4 c-0.9-1.5-1-2.2,0.1-3.6c1.4-1.9,3-3.6,4.7-5.3c3.2-3.2,6.1-6.7,9.4-9.8c0.2-0.2,0.4-0.4,0.6-0.6c1.7-1.2,2.6-2.1,4.8,0.1 c2.9,3,5.9,6,8.6,9.2c0.6,0.7,1,0.8,1.7,0.1c3.3-3,6.8-5.5,10.8-7.5c1.4-0.7,2.8-1.1,4.4-1.3c3.1-0.3,5.6,0.8,7.3,3.6 c1.3,2.1,2,4.4,2.3,6.7C108.2,39.3,108,40,107.4,40.7z M104,33.4c-1-1.6-3.3-2.3-5.2-1.4c-3,1.3-5.9,2.8-8.6,4.8 c-2.7,2-4.9,4.5-7.2,7c-5,5.4-10.5,10.3-15.6,15.6c-4.7,5-9.6,9.9-14.4,14.8c-4.7,4.7-9.8,9-14.3,13.9c-2.5,2.8-4.7,5.9-6.5,9.2 c-1.3,2.6-1.1,5.1,0.5,7.5c0.2,0.3,0.4,0.7,0.9,0.5c-1.3-3.2-1.5-6.1,1-8.8c3.5-3.8,8.1-5.1,13-5.7c0,0,0.1,0,0.1,0 c4.6,0.1,9,1.3,13.3,3c0.8,0.3,1.3,0.3,1.9-0.3c2.2-2.5,4.5-5,6.8-7.4c7.6-8,15.2-16.1,23.2-23.7c0.5-0.5,0.5-0.8,0.2-1.3 c-0.4-0.8-0.8-1.7-1-2.6c-1.2-4.3-1.5-8.6-0.7-12.9c0.8-4.6,2.8-8.6,6.9-11.4C100.1,32.8,101.8,32.2,104,33.4z M113.7,54.8 c-1.3-0.8-2.6-0.4-3.8,0c-1.7,0.5-3.2,1.3-4.6,2.3c-2.3,1.7-4.5,3.5-6.5,5.5C92.2,68.8,86,75.3,79.6,81.7 c-7.1,7.1-14,14.4-21.1,21.5c-2.1,2.1-3,4.8-3.4,7.8c0.6-0.2,0.7-0.5,0.9-0.8c0.4-0.8,1-1.5,1.5-2.1c4.6-5.2,14.1-5.9,19.4-3.4 c0.5,0.2,0.7,0.4,1.2-0.1c4.1-4.4,8.3-8.8,12.3-13.3c4.3-4.9,8.7-9.7,13.6-14c0.4-0.3,0.6-0.6,0.4-1.2c-1.9-4.5-1.8-9-0.1-13.4 C106,58.5,109.1,55.7,113.7,54.8z M62.7,51.2c-0.2,1.3-0.8,2.5-1.7,3.6c-1.2,1.6-2.8,2.9-4,4.5c-1.9,2.4-5.4,2.7-7.7,0.6 c-1.1-1-2.1-2-2.9-3.2c-0.7-1-1-0.6-1.5,0.1c-1.1,1.5-2.4,2.9-3.7,4.2c-3.1,3.1-6.1,6.3-9.2,9.4c-0.4,0.5-0.5,0.7,0,1.1 c2.9,2.4,5.3,5.2,7.7,8c0.5,0.5,0.7,0.7,1.3,0.1c2.1-2.1,4.3-4,6.3-6.1c6.9-7.3,14.1-14.4,20.7-22c3.4-3.9,7.3-7.4,11.1-10.9 c0.4-0.4,0.8-0.6,0.2-1.2c-2.8-2.7-5.4-5.6-8.3-8.2C70.6,31,70.4,31,70,31.5c-1,1.3-2,2.6-3.2,3.8c-2.7,2.9-5.9,5.3-8.5,8.3 c-0.8,0.9-0.7,1.3,0.1,2.1c1.3,1.2,2.4,2.6,3.7,4C62.5,50,62.7,50.5,62.7,51.2z M82.5,109.3c0.2-0.2,0.4-0.4,0.6-0.6 c2-2,3.8-4.1,5.7-6.2c3.2-3.5,6.8-6.7,10.1-10.2c2.8-3,5.8-6,8.6-9c0.5-0.6,1.3-1.1,1.5-1.8c0.1-0.7-1-1.2-1.4-1.8 c-0.1-0.1-0.2-0.2-0.3-0.4c-0.3-0.6-0.6-0.5-1.1-0.1c-1.7,1.9-3.4,3.7-5.2,5.5c-6.5,7-12.9,14.2-20,20.7c-1.5,1.4-1.5,1.4,0,2.7 C81.6,108.5,82,108.9,82.5,109.3z" style="fill:#294068" />
		<path d="M104,33.4c-2.2-1.2-3.9-0.6-5.6,0.5c-4,2.7-6,6.8-6.9,11.4c-0.8,4.3-0.4,8.7,0.7,12.9 c0.2,0.9,0.6,1.7,1,2.6c0.3,0.5,0.3,0.9-0.2,1.3c-8,7.6-15.6,15.7-23.2,23.7c-2.3,2.4-4.6,4.9-6.8,7.4c-0.6,0.7-1.1,0.6-1.9,0.3 c-4.3-1.7-8.6-2.8-13.3-3c0,0-0.1,0-0.1,0c-4.9,0.6-9.5,1.9-13,5.7c-2.5,2.7-2.3,5.6-1,8.8c-0.5,0.2-0.7-0.2-0.9-0.5 c-1.6-2.4-1.9-4.9-0.5-7.5c1.8-3.3,3.9-6.4,6.5-9.2c4.5-4.9,9.6-9.1,14.3-13.9c4.8-4.9,9.6-9.8,14.4-14.8 c5.1-5.3,10.6-10.2,15.6-15.6c2.3-2.5,4.5-5,7.2-7c2.6-2,5.6-3.5,8.6-4.8C100.8,31.1,103.1,31.8,104,33.4z" style="fill:#E7F0FD" />
		<path d="M113.7,54.8c-4.6,0.9-7.7,3.7-9.4,7.9c-1.7,4.4-1.9,9,0.1,13.4c0.3,0.6,0,0.9-0.4,1.2 c-4.9,4.3-9.3,9.2-13.6,14c-4,4.5-8.2,8.8-12.3,13.3c-0.5,0.5-0.7,0.3-1.2,0.1c-5.3-2.5-14.8-1.8-19.4,3.4 c-0.6,0.7-1.1,1.3-1.5,2.1c-0.2,0.3-0.3,0.6-0.9,0.8c0.4-3,1.3-5.6,3.4-7.8c7.1-7.1,14-14.4,21.1-21.5c6.4-6.4,12.6-13,19.2-19.2 c2.1-2,4.2-3.8,6.5-5.5c1.4-1,2.9-1.8,4.6-2.3C111.1,54.4,112.4,54,113.7,54.8z" style="fill:#E7F0FD" />
		<path d="M62.7,51.2c0-0.7-0.2-1.2-0.6-1.6c-1.2-1.3-2.4-2.7-3.7-4c-0.8-0.8-0.8-1.2-0.1-2.1 c2.6-3,5.8-5.4,8.5-8.3c1.1-1.2,2.1-2.5,3.2-3.8c0.4-0.5,0.6-0.5,1.1-0.1c2.9,2.6,5.5,5.5,8.3,8.2c0.6,0.6,0.2,0.8-0.2,1.2 c-3.8,3.5-7.7,7-11.1,10.9c-6.7,7.6-13.8,14.7-20.7,22c-2,2.1-4.2,4-6.3,6.1c-0.6,0.6-0.8,0.4-1.3-0.1c-2.4-2.8-4.9-5.6-7.7-8 c-0.5-0.4-0.5-0.7,0-1.1c3.1-3.1,6.1-6.3,9.2-9.4c1.3-1.3,2.6-2.7,3.7-4.2c0.5-0.7,0.8-1,1.5-0.1c0.8,1.2,1.9,2.2,2.9,3.2 c2.3,2.1,5.8,1.9,7.7-0.6c1.2-1.6,2.8-2.9,4-4.5C61.9,53.7,62.5,52.5,62.7,51.2z" style="fill:#E7F0FD" />
		<path d="M82.5,109.3c-0.5-0.4-0.9-0.8-1.3-1.2c-1.5-1.3-1.5-1.3,0-2.7c7.1-6.5,13.5-13.6,20-20.7 c1.7-1.8,3.5-3.7,5.2-5.5c0.4-0.5,0.7-0.6,1.1,0.1c0.1,0.1,0.2,0.2,0.3,0.4c0.4,0.7,1.5,1.1,1.4,1.8c-0.1,0.7-0.9,1.2-1.5,1.8 c-2.9,3-5.8,6-8.6,9c-3.3,3.5-6.9,6.6-10.1,10.2c-1.9,2.1-3.7,4.2-5.7,6.2C83,108.9,82.7,109.1,82.5,109.3z" style="fill:#E7F0FD" />
	</svg>
	 <svg x="1024" y="0" width="1024" height="1024" viewBox="0 0 155 155" preserveAspectRatio="xMinYMid meet" >
		<path d="M29.3,0.9c19.5,0,38.7,1.9,57.5,7.2c12.7,3.6,24.7,8.5,35.6,16.1c15.7,11,26.4,25.5,30.1,44.4 c5.3,27.3-2.7,50.4-23.4,68.9c-7.7,6.8-16.6,11.5-26.5,14.2c-22.2,5.9-42.8,2.3-61.5-11.2c-9.8-7.1-17-16.5-22.7-27 C11.9,101.5,7.8,88.8,5.1,75.7C1.6,59.1,0.4,42.4,0.5,25.5c0.1-4.8,0.2-9.7,0.7-14.5c0.4-4.8,5.1-9.3,10.2-9.6c3-0.2,6-0.4,8.9-0.5 C23.3,0.9,26.3,0.9,29.3,0.9z M81.9,19.3c-15.3,0.3-30.6,6.2-43.1,18.5C24.4,52,17.8,69.4,19.2,89.7c2.3,31.7,28.5,60.1,65.4,60 c36.8-0.1,66.8-31.2,64.6-69.1C147.5,47.9,120.6,19.4,81.9,19.3z" style="fill:#ED3941" />
		<path d="M81.9,19.3c38.6,0.1,65.5,28.6,67.4,61.2c2.2,38-27.8,69-64.6,69.1c-36.9,0.1-63.2-28.3-65.4-60 C17.8,69.4,24.4,52,38.8,37.8C51.4,25.5,66.7,19.6,81.9,19.3z M20.6,82.6C20.6,82.6,20.6,82.6,20.6,82.6c0,2.6,0,5.2,0,7.8 c0,0.7,0.2,1,0.9,0.9c2.7-0.4,5.4,0,8.1,0.2c0.6,0.1,0.8-0.1,0.8-0.7c0-0.3,0.1-0.6,0-0.8c-0.1-1.2,0.4-1.6,1.5-1.4 c2.7,0.3,5.3,0.3,8,0.2c0.8,0,0.9,0.3,0.9,1c-0.1,1.5-0.1,3-0.1,4.6c-0.1,1,0.3,1.5,1.4,1.6c1.6,0.1,3.2,0.2,4.7,0.4 c1.2,0.2,1.9-0.3,2.4-1.1c1.3-2,2.7-3.9,4-5.9c0.5-0.8,1.1-1,1.9-0.9c1.9,0.2,3.8,0.4,5.7,0.7c3.2,0.4,6.3,1.5,9.6,1.6 c0.8,0,1.2,0.4,1.2,1.3c0,3.9-0.1,7.8-0.3,11.7c-0.2,3.8,0.2,7.6,0.2,11.4c0,3.2-0.4,6.5,0.1,9.7c0.1,0.4,0.1,0.8,0.5,1.2 c1.4,1.6,2.7,3.2,4.1,4.8c2.4,2.9,4.6,6,6.8,9.1c1.2,1.8,2.6,3.6,3.9,5.3c1,1.4,1.5,1.3,2.2-0.2c3.5-8.6,7.5-16.9,11.3-25.4 c0.2-0.5,0.3-1,0.2-1.6c-1.6-7.5-3.2-15.1-4.9-22.6c-0.2-1,0-1.2,1-1c2.7,0.5,5.5,1,8.3,1.4c5,0.6,9.8,1.6,14.7,2.6 c1.2,0.2,2.3,1,3.5,0c0.7-0.6,1.6-0.9,2.4-1.2c5.2-2.2,10.2-4.8,15.4-6.8c2.1-0.8,4.1-1.7,6.2-2.6c0.8-0.4,1.1-0.9,0.5-1.7 c-0.5-0.7-0.9-1.4-1.6-1.9c-2.5-2.1-5-4.2-7.6-6.2c-3-2.4-6-4.8-9-7.2c-0.8-0.7-1.6-1.4-2.9-1.1c-1.8,0.4-3.7,0.4-5.6,0.7 c-3.2,0.4-6.4,0.2-9.6,0.5c-6.8,0.7-13.5,1.3-20.3,1.9c-0.7,0.1-0.9-0.2-1-0.8c-1.2-5.1-2.4-10.1-3.5-15.2 c-0.5-2.2-0.4-2.4,1.5-3.6c0.1-0.1,0.2-0.1,0.3-0.2c1.8-1.1,3.6-2.3,5.1-3.8c0.4-0.4,0.6-0.8,0.5-1.4c-0.2-2-0.5-4-1-5.9 c-0.2-0.6-0.4-0.9-1.1-0.8c-2.2,0.3-4.4,0.6-6.6,1c-0.8,0.1-1,0-1.2-0.8c-0.5-2.9-1-5.9-1.6-8.8c-0.2-0.9,0-1.2,0.9-1.3 c1.2-0.2,1.6-0.8,1.3-1.8c-0.7-2.2-0.9-4.4-1.1-6.6c-0.1-1.1-0.6-1.3-1.5-1.1c-4.6,1.1-9.3,1.9-13.9,3.1C67,25,66.8,25.6,67,26.5 c0.4,1.9,0.8,3.8,1,5.8c0.2,1.6,0.8,2,2.3,1.6c0.9-0.2,1.1,0.1,1.1,0.8c0.1,2.8,0.6,5.5,1,8.3c0.1,0.9,0,1.2-0.9,1.3 c-2.4,0.4-4.9,0.9-7.3,1.3c-0.8,0.1-1.2,0.4-1.2,1.3c0.2,2.2,0.3,4.5,0.4,6.7c0,0.6,0.3,1,1,1.1c2,0.5,3.9,1.1,5.9,1.6 c1.8,0.5,1.9,0.4,1.9,2.3c0,4.7,0.2,9.4-0.2,14c-0.1,0.9-0.5,1.2-1.3,1.4c-1.5,0.4-3.1,0.2-4.6,0.4c-3.6,0.4-7.2,0.8-10.8,0.9 c-0.7,0-1.1-0.2-1.3-0.9c-0.7-1.8-1.5-3.6-2.2-5.4c-0.3-0.6-0.6-1.5-1.4-1.3c-2.5,0.6-5.1,0.5-7.6,0.8c-0.6,0.1-0.7,0.3-0.7,0.9 c-0.1,1.7-0.4,3.5-0.4,5.2c0,0.9-0.5,1.2-1.2,1.2c-2.6,0-5.3,0.3-7.9,0.4c-1.7,0.1-1.7,0-1.8-1.6c0-0.4-0.1-0.7-0.1-1.1 c0-0.5-0.3-0.7-0.8-0.6c-2.4,0.1-4.9,0.3-7.3,0.3c-1.5,0-1.9,0.6-1.9,2.1C20.6,77.8,20.6,80.2,20.6,82.6z" style="fill:#FEE0D5" />
		<path d="M20.6,82.6c0-2.4,0-4.9,0-7.3c0-1.5,0.4-2.1,1.9-2.1c2.4,0,4.9-0.2,7.3-0.3c0.5,0,0.8,0.1,0.8,0.6 c0,0.4,0.1,0.7,0.1,1.1c0.1,1.7,0.1,1.7,1.8,1.6c2.6-0.2,5.3-0.5,7.9-0.4c0.7,0,1.1-0.3,1.2-1.2c0.1-1.7,0.3-3.5,0.4-5.2 c0-0.5,0.1-0.8,0.7-0.9c2.5-0.3,5.1-0.2,7.6-0.8c0.8-0.2,1.1,0.7,1.4,1.3c0.8,1.8,1.5,3.6,2.2,5.4c0.3,0.7,0.6,0.9,1.3,0.9 c3.6-0.1,7.2-0.5,10.8-0.9c1.5-0.2,3.1,0,4.6-0.4c0.8-0.2,1.2-0.5,1.3-1.4c0.4-4.7,0.2-9.4,0.2-14c0-1.8-0.1-1.8-1.9-2.3 c-2-0.5-3.9-1.1-5.9-1.6c-0.7-0.2-0.9-0.5-1-1.1c-0.1-2.2-0.3-4.5-0.4-6.7c-0.1-0.9,0.4-1.2,1.2-1.3c2.4-0.4,4.9-0.9,7.3-1.3 c0.9-0.1,1.1-0.5,0.9-1.3c-0.5-2.8-0.9-5.5-1-8.3c0-0.7-0.3-1-1.1-0.8c-1.5,0.4-2.2,0-2.3-1.6c-0.2-2-0.6-3.9-1-5.8 c-0.2-1,0-1.5,1.2-1.9c4.6-1.2,9.3-2,13.9-3.1c0.9-0.2,1.4,0,1.5,1.1c0.2,2.2,0.4,4.4,1.1,6.6c0.3,1-0.1,1.7-1.3,1.8 c-0.9,0.1-1.1,0.4-0.9,1.3c0.6,2.9,1.1,5.9,1.6,8.8c0.1,0.8,0.4,0.9,1.2,0.8c2.2-0.4,4.4-0.6,6.6-1c0.7-0.1,0.9,0.2,1.1,0.8 c0.5,1.9,0.8,3.9,1,5.9c0.1,0.6-0.1,1-0.5,1.4c-1.5,1.5-3.3,2.6-5.1,3.8c-0.1,0.1-0.2,0.1-0.3,0.2c-1.9,1.2-2,1.4-1.5,3.6 c1.2,5.1,2.4,10.1,3.5,15.2c0.1,0.6,0.3,0.9,1,0.8c6.8-0.7,13.5-1.3,20.3-1.9c3.2-0.3,6.4,0,9.6-0.5c1.9-0.3,3.7-0.3,5.6-0.7 c1.3-0.2,2,0.5,2.9,1.1c3,2.4,6,4.7,9,7.2c2.5,2.1,5,4.2,7.6,6.2c0.7,0.5,1.1,1.3,1.6,1.9c0.6,0.8,0.3,1.3-0.5,1.7 c-2,0.9-4.1,1.8-6.2,2.6c-5.2,2-10.2,4.6-15.4,6.8c-0.8,0.4-1.7,0.6-2.4,1.2c-1.2,1-2.4,0.3-3.5,0c-4.9-1-9.8-1.9-14.7-2.6 c-2.8-0.3-5.5-0.9-8.3-1.4c-1-0.2-1.2,0-1,1c1.6,7.5,3.2,15.1,4.9,22.6c0.1,0.6,0,1.1-0.2,1.6c-3.8,8.5-7.8,16.8-11.3,25.4 c-0.6,1.5-1.2,1.6-2.2,0.2c-1.3-1.7-2.6-3.5-3.9-5.3c-2.2-3.1-4.3-6.2-6.8-9.1c-1.4-1.6-2.7-3.3-4.1-4.8c-0.3-0.4-0.4-0.7-0.5-1.2 c-0.5-3.2-0.1-6.5-0.1-9.7c0-3.8-0.3-7.6-0.2-11.4c0.2-3.9,0.3-7.8,0.3-11.7c0-1-0.4-1.3-1.2-1.3c-3.3-0.1-6.4-1.1-9.6-1.6 c-1.9-0.3-3.8-0.5-5.7-0.7c-0.8-0.1-1.4,0.1-1.9,0.9c-1.2,2-2.6,4-4,5.9c-0.6,0.8-1.3,1.3-2.4,1.1c-1.6-0.3-3.2-0.4-4.7-0.4 c-1.1,0-1.5-0.6-1.4-1.6c0.1-1.5,0.1-3,0.1-4.6c0-0.7-0.1-1-0.9-1c-2.7,0.1-5.4,0.1-8-0.2c-1.1-0.1-1.6,0.3-1.5,1.4 c0,0.3,0,0.6,0,0.8c0,0.5-0.2,0.7-0.8,0.7c-2.7-0.2-5.4-0.6-8.1-0.2c-0.7,0.1-0.9-0.3-0.9-0.9C20.6,87.8,20.6,85.2,20.6,82.6 C20.6,82.6,20.6,82.6,20.6,82.6z M87.3,141.2c2.9-4.6,4.9-9.5,6.7-14.4c0.6-1.7,1.5-3.3,1.8-5.2c0.5-3.7-0.2-7.4-0.8-11.1 C94,104,92.6,97.5,91.2,91c-2.3-10.8-4.7-21.6-7.5-32.3c-0.6-2.5-0.9-2.6-2.9-0.9c-0.9,0.7-1.8,1.3-3,0.6c-0.8-0.5-1.3-0.2-1.2,0.8 c0.1,3.1-0.3,6.1-0.4,9.2c-0.1,4.3-0.2,8.5-0.3,12.8c-0.1,3-0.3,6.1-0.2,9.1c0,1.2-0.1,2.5-0.2,3.7c-0.5,5.4-1.3,10.7-1.1,16.1 c0.1,2.1,0.2,4.2,0.2,6.2c0.1,6.4,2.4,11.9,6.3,16.8C83,135.8,85.1,138.5,87.3,141.2z M124.9,83.4c-0.1,0.4-0.2,0.4-0.4,0.4 c-4.2,0.2-8.4,0.6-12.6,0.6c-6,0-12-0.1-18-0.2c-0.5,0-1-0.1-0.8,0.7c0.4,1.6,0.7,3.1,1.1,4.7c0.1,0.5,0.4,0.6,0.8,0.7 c6.2,0.8,12.1,2.6,18.2,3.7c1.9,0.4,3.7,0.8,5.6,1.1c3.4,0.5,6.4-0.9,9.4-2.1c3.8-1.5,7.6-3.2,11.4-4.5c1.2-0.4,2.3-0.9,3.4-1.4 c0.6-0.3,1.1-0.4,0.2-1.1c-4.4-3.2-8.7-6.6-12.8-10.2c-2.3-2-5-2.8-8-2.5c-6.7,0.6-13.5,1.1-20.2,1.9c-3.3,0.4-6.6,1-9.9,1.2 c-1,0-1.2,0.4-0.9,1.4c0.4,1.1,0.7,2.2,0.8,3.4c0.1,0.9,0.5,1.2,1.4,1.1c5-0.2,10-0.1,15-0.1c3.4,0,6.7,0.7,10.1,0.9 C120.8,83.1,122.9,83.3,124.9,83.4z M33.1,86.2c2.1,0.2,4.4-0.5,6.8-0.4c0.6,0,1.1-0.3,1-1c0-1.6,0-3.1,0-4.7 c0-0.5-0.2-0.7-0.7-0.7c-2.9,0-5.7-0.1-8.6-0.1c-2.1,0-2.1,0.1-2.2-2c0,0,0-0.1,0-0.1c0.1-0.8-0.3-1.1-1.1-1 c-1.3,0.1-2.6,0.3-3.9,0.3c-0.9,0-1.1,0.3-1.1,1.2c0.1,3.4,0.1,6.7,0.1,10.1c0,0.6,0.3,0.9,0.9,0.9c1.2,0,2.5,0.1,3.7,0 c0.5,0,0.9-0.2,0.9-0.7c0.2-1.8,1.4-1.9,2.8-1.7C32,86.2,32.4,86.2,33.1,86.2z M44.2,91.7c0,2-0.3,1.7,1.9,2c0.2,0,0.4,0.1,0.6,0.1 c0.6,0.2,0.9,0,1.2-0.6c1.7-3.3,3.5-6.5,5.4-9.7c0.3-0.4,0.3-0.8,0.2-1.3c-1-3-2.3-5.8-3.7-8.7c-1-2.2-1-2.1-3.3-2 c-0.7,0-0.9,0.3-1,1C44.7,78.8,44.5,85.1,44.2,91.7z M65.8,49.8c0,0.4,0.1,0.7,0.1,1.1c-0.1,1.3,0.7,1.5,1.7,1.7 c1.1,0.2,2.3,0.2,3.4,0.6c2.2,0.7,4.4,1.3,6.5,2c0.6,0.2,1.2,0.1,1.8-0.3c1.4-0.9,2.9-1.9,4.2-2.9c2.2-1.7,4.6-3.1,7-4.6 c0.8-0.5,0.5-1.2,0.3-1.8c-0.2-0.7-0.7-0.4-1.2-0.4c-1.5,0.3-3,0.6-4.5,0.9c-6.2,1.1-12.4,2.2-18.7,3 C65.9,49.1,65.6,49.3,65.8,49.8z M67.3,82.8c-1.4,0.1-2.7,0.3-4.1,0c-0.4-0.1-0.7-0.3-0.7-0.7c0-0.4,0.4-0.5,0.7-0.4 c1.8,0.3,3.5-0.1,5.3,0c3.7,0.3,3.1,0.5,3.3-3.1c0.1-1-0.3-1.3-1.2-1.2c-4,0.5-8.1-0.1-12.1,0.4c-0.7,0.1-1.4,0.1-2,0 c-1-0.2-1,0.3-0.7,1c0.4,0.8,0.7,1.7,1.2,2.5c0.6,1,0.4,1.7-0.2,2.5c-0.2,0.3-0.4,0.6-0.6,0.9c-0.7,1.1-0.7,1.1,0.5,1.3 c4.7,0.6,9.5,0.8,14.1,1.7c0.6,0.1,0.8-0.1,0.8-0.7c0-1.2-0.1-2.4,0-3.6c0-0.5-0.2-0.7-0.7-0.7C69.7,82.9,68.5,82.8,67.3,82.8z M81.8,26.3c0-1.6-0.2-1.9-1.8-1.5c-2.6,0.6-5.2,1.3-7.8,1.9c-2.9,0.7-2.8,0.7-2.2,3.6c0.2,0.8,0.3,1,1.2,0.9 c3.1-0.3,2.7-0.5,3.2,2.3c0.5,3.2,0.9,6.3,1.2,9.5c0.1,0.6,0.3,0.8,0.9,0.7c1.1-0.2,2.3-0.4,3.4-0.5c0.5-0.1,0.7-0.2,0.6-0.8 c-0.2-1.2-0.3-2.5-0.5-3.7c-0.4-2.6-0.8-5.2-1.3-7.8c-0.1-0.7-0.1-1.3,0.8-1.6C81.7,28.6,81.7,28.5,81.8,26.3z" style="fill:#ED3941" />
		<path d="M87.3,141.2c-2.2-2.8-4.3-5.4-6.5-8.1c-3.9-4.9-6.2-10.4-6.3-16.8c0-2.1-0.1-4.2-0.2-6.2 c-0.2-5.4,0.6-10.8,1.1-16.1c0.1-1.2,0.2-2.5,0.2-3.7c-0.1-3,0.1-6.1,0.2-9.1c0.2-4.3,0.3-8.5,0.3-12.8c0.1-3.1,0.5-6.1,0.4-9.2 c0-0.9,0.4-1.3,1.2-0.8c1.2,0.7,2.1,0.2,3-0.6c2.1-1.7,2.3-1.6,2.9,0.9C86.5,69.4,89,80.2,91.2,91c1.4,6.5,2.8,13,3.8,19.6 c0.6,3.7,1.2,7.3,0.8,11.1c-0.2,1.9-1.1,3.5-1.8,5.2C92.2,131.8,90.2,136.6,87.3,141.2z M81.4,69c-0.5,0.3-0.3,0.6-0.3,0.8 c0.2,3.5,0.6,7.1,0.7,10.6c0.2,4.9,0.5,9.8,0.9,14.7c0.5,6.2,1.3,12.3,2,18.4c0.6,4.6,1.6,9.2,3.1,13.6 C86.7,107.7,84.3,88.3,81.4,69z" style="fill:#FEE0D5" />
		<path d="M124.9,83.4c-2-0.1-4.1-0.3-6.1-0.4c-3.4-0.2-6.7-0.9-10.1-0.9c-5,0-10-0.1-15,0.1 c-0.9,0-1.3-0.2-1.4-1.1c-0.2-1.1-0.5-2.3-0.8-3.4c-0.3-1-0.1-1.3,0.9-1.4c3.3-0.2,6.6-0.8,9.9-1.2c6.7-0.8,13.4-1.3,20.2-1.9 c3.1-0.3,5.7,0.5,8,2.5c4.1,3.6,8.4,7,12.8,10.2c1,0.7,0.5,0.8-0.2,1.1c-1.1,0.5-2.3,1-3.4,1.4c-3.9,1.4-7.6,3-11.4,4.5 c-3,1.2-6,2.6-9.4,2.1c-1.9-0.3-3.8-0.7-5.6-1.1c-6.1-1.2-12-2.9-18.2-3.7c-0.5-0.1-0.7-0.2-0.8-0.7c-0.3-1.6-0.7-3.1-1.1-4.7 c-0.2-0.8,0.3-0.7,0.8-0.7c6,0.1,12,0.3,18,0.2c4.2,0,8.4-0.4,12.6-0.6C124.7,83.8,124.8,83.8,124.9,83.4z" style="fill:#FEE0D5" />
		<path d="M33.1,86.2c-0.7,0-1.1,0-1.5,0c-1.4-0.2-2.6-0.1-2.8,1.7c-0.1,0.5-0.4,0.7-0.9,0.7 c-1.2,0.1-2.5,0-3.7,0c-0.6,0-0.9-0.2-0.9-0.9c0-3.4,0-6.7-0.1-10.1c0-0.9,0.2-1.2,1.1-1.2c1.3,0,2.6-0.1,3.9-0.3 c0.8-0.1,1.2,0.2,1.1,1c0,0,0,0.1,0,0.1c0.1,2,0.1,2,2.2,2c2.9,0,5.7,0.1,8.6,0.1c0.5,0,0.7,0.2,0.7,0.7c0,1.6,0,3.1,0,4.7 c0,0.7-0.4,1-1,1C37.5,85.7,35.2,86.4,33.1,86.2z" style="fill:#FEE0D5" />
		<path d="M44.2,91.7c0.3-6.5,0.6-12.9,1.3-19.2c0.1-0.7,0.3-0.9,1-1c2.3-0.1,2.3-0.2,3.3,2 c1.3,2.9,2.6,5.7,3.7,8.7c0.2,0.5,0.1,0.9-0.2,1.3c-1.9,3.2-3.7,6.4-5.4,9.7c-0.3,0.6-0.6,0.8-1.2,0.6c-0.2-0.1-0.4-0.1-0.6-0.1 C43.8,93.4,44.2,93.7,44.2,91.7z" style="fill:#FEE0D5" />
		<path d="M65.8,49.8c-0.2-0.5,0.1-0.8,0.7-0.8c6.3-0.7,12.5-1.8,18.7-3c1.5-0.3,3-0.6,4.5-0.9 c0.4-0.1,1-0.3,1.2,0.4c0.1,0.6,0.5,1.3-0.3,1.8c-2.3,1.5-4.7,2.9-7,4.6c-1.4,1-2.8,2-4.2,2.9c-0.6,0.4-1.2,0.5-1.8,0.3 c-2.2-0.6-4.4-1.2-6.5-2c-1.1-0.4-2.3-0.4-3.4-0.6c-1-0.2-1.8-0.4-1.7-1.7C65.9,50.6,65.8,50.2,65.8,49.8z" style="fill:#FEE0D5" />
		<path d="M67.3,82.8c1.2,0,2.4,0,3.6,0c0.5,0,0.7,0.2,0.7,0.7c0,1.2,0,2.4,0,3.6c0,0.6-0.1,0.8-0.8,0.7 c-4.7-0.9-9.4-1.1-14.1-1.7c-1.3-0.2-1.3-0.2-0.5-1.3c0.2-0.3,0.4-0.6,0.6-0.9c0.6-0.8,0.9-1.5,0.2-2.5c-0.5-0.7-0.9-1.6-1.2-2.5 c-0.3-0.7-0.3-1.2,0.7-1c0.7,0.1,1.4,0.1,2,0c4-0.5,8.1,0.1,12.1-0.4c0.9-0.1,1.3,0.2,1.2,1.2c-0.2,3.6,0.4,3.4-3.3,3.1 c-1.7-0.1-3.5,0.3-5.3,0c-0.3-0.1-0.7,0.1-0.7,0.4c0,0.4,0.3,0.6,0.7,0.7C64.6,83.1,65.9,82.9,67.3,82.8z" style="fill:#FEE0D5" />
		<path d="M81.8,26.3c-0.1,2.3,0,2.3-2.2,3c-0.9,0.3-0.9,0.9-0.8,1.6c0.4,2.6,0.9,5.2,1.3,7.8 c0.2,1.2,0.3,2.5,0.5,3.7c0.1,0.5-0.1,0.7-0.6,0.8c-1.1,0.1-2.3,0.3-3.4,0.5c-0.6,0.1-0.8-0.1-0.9-0.7c-0.4-3.2-0.8-6.3-1.2-9.5 c-0.4-2.8-0.1-2.6-3.2-2.3c-0.9,0.1-1-0.1-1.2-0.9c-0.6-2.9-0.6-2.9,2.2-3.6c2.6-0.6,5.2-1.3,7.8-1.9 C81.5,24.3,81.8,24.6,81.8,26.3z" style="fill:#FEE0D5" />
		<path d="M81.4,69c2.9,19.4,5.3,38.7,6.4,58.2c-1.5-4.4-2.5-9-3.1-13.6c-0.8-6.1-1.6-12.3-2-18.4 c-0.4-4.9-0.8-9.8-0.9-14.7c-0.1-3.5-0.4-7.1-0.7-10.6C81.1,69.5,80.9,69.2,81.4,69z" style="fill:#ED3941" />
	</svg>
	 <svg x="2048" y="0" width="1024" height="1024" viewBox="0 0 484 484" preserveAspectRatio="xMinYMid meet" >
		<path d="M102.7,417.9C-23.5,291.7,2.1,32.4,2.1,32.4C3.6,17.2,17.2,3.6,32.4,2.1c0,0,259.3-25.6,385.5,100.6c87,87,87,228.1,0,315.2C330.9,504.9,189.8,504.9,102.7,417.9z" style="fill:#283F68" />
		<path d="M323.5,354.9l-8.1,2.6c-8.1-10.2-17.5-20.9-28.2-32.2c-34.6-36.7-60.4-63.5-77.4-80.5c-15.9-15.9-30.1-28.8-42.7-38.7c-5-3.8-9.4-5.5-13.4-5c-3.9,0.5-10.5,4.5-19.8,12.1l-16.7,13.4l-10.6-10.6c22.4-20.7,42.4-39.8,60.1-57.5c17.4-17.4,34.5-35.4,51.3-53.9l10.6,10.6l-17.4,20.7c-6.9,7.9-10.3,13.5-10.2,17c0.1,3.5,4.9,10.4,14.5,20.9c14.8,16.3,35.9,38.1,63.2,65.4c19,19,34,33.2,45,42.8c4.1,3.5,8.1,4.9,11.9,4.2c3.9-0.7,9.8-5,17.7-13l16.6-16.6l10.6,10.6c-15.8,20.1-27,35.4-33.7,45.7C340.5,323.1,332.6,337.1,323.5,354.9z" style="fill:#FFFFFF;stroke:#FFFFFF;strokeWidth:2;strokeMiterlimit:10" />
		<path d="M394.6,384.5c-12.2,12.2-31.9,12.2-44.1,0c-12.2-12.2-12.2-31.9,0-44.1s31.9-12.2,44.1,0C406.8,352.6,406.8,372.3,394.6,384.5z" style="fill:#FFFFFF;stroke:#FFFFFF;strokeWidth:2;strokeMiterlimit:10" />
	</svg>
	 <svg x="3072" y="0" width="1024" height="1024" viewBox="0 0 484 484" preserveAspectRatio="xMinYMid meet" >
		<path d="M102.8,418.1C-23.5,291.9,2.1,32.4,2.1,32.4C3.6,17.3,17.3,3.6,32.4,2.1c0,0,259.5-25.6,385.7,100.7c87.1,87.1,87.1,228.3,0,315.4C331.1,505.2,189.9,505.2,102.8,418.1z" style="fill:#F9AB55" />
		<path d="M118.4,118.4c80-80,210.3-80,290.3,0c80,80,80,210.3,0,290.3c-80,80-210.3,80-290.3,0C38.4,328.6,38.4,198.4,118.4,118.4z" style="fill:#FFF0E1" />
		<path d="M401.9,395.7c53.7-53.7,53.7-140.7,0-194.4c-36-36-87.1-47.9-133-35.5l0.8-0.8c-18.3,10.1-36.1-27.9-53-23.8c-24.2,5.9-54,35.7-68.1,55.3c-4.1,5-9.6,12.3-9.1,19.2c0.9,8.2,5.5,8.2,11.4,13.3c8.3,6.6,18.2,17.3,23.1,27c-0.2,0.6-0.4,1.2-0.6,1.8c-14.6,47.1-3.2,100.6,34.1,137.9C261.2,449.3,348.2,449.4,401.9,395.7z" style="fill:none;stroke:#F9AB55;strokeWidth:9.1288;strokeLinejoin:bevel;strokeMiterlimit:10" />
		<path d="M232.6,136.5c-4-17.8-21.2-26.5-38.5-24.6c-24.2,2.7-47.4,35.8-62.9,51.6c-13.1,13.3-16.1,26.6-11.4,44.4c3.3,12.6,10,30.4,25,21.1c3-1.8-1.1-8.1-2-7.8c-9.3,2.5-13.5-14.1-15.5-20.6c-6.7-21.6,11.1-35.9,24.6-49.8c11.3-11.7,25.3-27.1,42.3-28.9c13.7-1.5,28,8.7,31,21.9C226.3,148.7,233.4,139.9,232.6,136.5L232.6,136.5z" style="fill:#F9AB55" />
		<path d="M190.1,155.6c28.8,28.8,58.3,56.2,87.8,84.4c11.3,10.6,49.4,44.6,55.2,10.6c2.4-13.4-9.3-27.8-23-24.4c-9.9,2.4-18.9,13.4-25.7,20.2c-14.4,14.4-40.5,33.6-46.6,53.5c-4.5,13.4,6.2,30.9,21.3,27.4c17.8-3.4,19.5-18.9,10.3-32.2c-24.7-34.3-60.4-63.8-90.9-92.9c-3.4-2.7-18.9-17.5-18.9-18.2" style="fill:none" />
		<path d="M186.6,160c29.5,29.4,59.6,58.1,90,86.5c11.3,10.5,30.6,29,47.6,22.7c16.9-6.3,15.2-32.2,5.5-43.1c-19.2-21.5-49.8,20.1-61.8,31c-16.2,14.7-38.4,34.6-34.2,58.9c4.2,23.9,33.2,19,42.7,2.5c14.3-25.1-29.7-59.4-44.3-73.8c-13.3-13.1-27.2-25.6-40.9-38.3c-9.1-8.4-20.6-16.9-28.1-26.8c-2.8-3.8-9.5,5.7-7,8.9c5.2,7,12.9,13.2,19.5,18.8c18.8,16.1,36.8,33.9,54.5,51.3c8.2,8.1,15.9,16.5,23.4,25.2c2.9,3.4,5.7,7,8.5,10.5c4.9,6.2,20.1,25.9-5.1,28.3c-22,2.1-13.5-28.9-6.8-37.8c6.7-8.9,15.6-16.3,23.8-23.7c13.8-12.5,43.3-48.8,55.1-15.7c7.8,21.7-13.9,13.8-19.9,10.9c-5.3-2.5-10.2-6.2-14.9-9.8c-36.2-27.5-68.4-63.3-100.5-95.3C190.2,147.6,183.9,157.3,186.6,160L186.6,160z" style="fill:#F9AB55" />
		<path d="M205.7,110.9c-5.7-15.3-28.1-23-42.7-17c-8.1,3.3-14.5,11-20.9,16.6c-9,7.9-18.2,15.4-26.6,24c-8.6,8.8-20.1,22.9-17.9,36.3c1.8,10.8,8,32.1,22.5,28.7c3.9-0.9,7.8-11.6,2.2-10.3c-10,2.3-14.7-15.6-16.3-22.2c-3.4-13.8,14-27.5,23.1-35.7c7.2-6.5,14.8-12.5,21.9-19.1c6.9-6.4,13-11,22.8-9.6c8.4,1.2,21,6.9,24.2,15.4C199.9,123.4,207.1,114.7,205.7,110.9L205.7,110.9z" style="fill:#F9AB55" />
	</svg>
	 <svg x="0" y="1024" width="1024" height="1024" viewBox="0 0 485 485" preserveAspectRatio="xMinYMid meet" >
		<path d="M103.1,419.3C-23.5,292.7,2.1,32.5,2.1,32.5C3.6,17.3,17.3,3.6,32.5,2.1c0,0,260.2-25.7,386.8,100.9c87.3,87.3,87.3,228.9,0,316.2C332,506.6,190.4,506.6,103.1,419.3z" style="fill:#807F7F" />
		<path d="M118.7,118.7c80.3-80.3,210.8-80.2,291.1,0c80.3,80.3,80.3,210.8,0,291.1s-210.8,80.3-291.1,0C38.5,329.6,38.5,199,118.7,118.7z" style="fill:#E5E5E4" />
		<path d="M172,404.1c-0.1,9.4,5,17.9,13.4,22.2c8.4,4.3,18.3,3.4,25.9-2.2l67.3-50.2c2.9-2.1,6.6-2.7,10-1.6l79.5,27c8.9,3,18.6,0.8,25.3-5.9c6.7-6.7,8.9-16.4,5.9-25.3l-27-79.5c-1.2-3.4-0.6-7.1,1.6-10l50.2-67.3c5.6-7.6,6.5-17.5,2.2-25.9c-4.3-8.4-12.8-13.6-22.2-13.4l-84,1.1c-3.6,0-7-1.7-9-4.6l-48.5-68.5c-4.3-6-10.6-9.7-17.9-10.3c-11.3-1-22.3,6.2-25.7,17.2L194.2,187c-1,3.3-3.8,6.1-7.2,7.2l-80.2,24.9c-3.9,1.2-7.3,3.3-10.1,6.1c-5.1,5.1-7.7,12.3-7.1,19.6c0.6,7.3,4.3,13.7,10.3,17.9l68.5,48.5c2.9,2.1,4.6,5.4,4.6,9L172,404.1z" style="fill:#807F7F" />
	</svg>
	 <svg x="1024" y="1024" width="1024" height="1024" viewBox="0 0 97 97" preserveAspectRatio="xMinYMid meet" >
		<path d="M6.1,1.7c-2-0.5-4-1.1-6-1.6c0.5,2,1.1,4,1.6,6C3.1,4.6,4.6,3.2,6.1,1.7z" style="fill:#E84445" />
		<path d="M60.8,30.7c-3.4,3.4-6.8,6.8-10.3,10.3c-5.2,5.2-10.4,10.4-15.6,15.6c-0.7,0.7-1.4,1.4-2.1,2.1c-0.1,0.1-0.3,0.4-0.5,0.5c-0.3,0.1,0.1,0.2-0.4-0.1c-0.9-0.6-0.8-0.7-0.3-1.2c0.6-0.6,1.3-1.3,1.9-1.9c5.1-5.1,10.3-10.3,15.4-15.4c2.5-2.5,4.9-4.9,7.4-7.4c0.8-0.8,1.6-1.6,2.4-2.4c0.2-0.2,0.8-1,1-1C60,29.7,60.6,30.5,60.8,30.7z" style="fill:#FFFFFF" />
		<path d="M49.8,16c-3.8,3.8-7.6,7.6-11.5,11.5C32.5,33.3,26.7,39.1,20.8,45c-0.8,0.8-1.6,1.6-2.4,2.4c-0.3,0.3-0.6,0.8-0.9,0.7c-0.2-0.1-0.8-0.7-0.8-0.9c0-0.1,0.4-0.4,0.5-0.5c0.7-0.7,1.4-1.4,2.1-2.1c5.7-5.7,11.5-11.5,17.2-17.2c2.8-2.8,5.5-5.5,8.3-8.3c0.9-0.9,1.8-1.8,2.8-2.8c0.2-0.2,0.9-1.1,1.2-1.2C49,15,49.6,15.8,49.8,16z" style="fill:#FFFFFF" />
		<path d="M44.3-2.2c4,4,7.9,7.9,11.9,11.9c4.7,4.7,9.5,9.5,14.2,14.2c2.1,2.1,2.8,6,2.8,9c-0.1,5.8-2.5,11.5-5.6,16.3c-3.8,6.1-9,11.5-14.8,15.7c-4.9,3.5-10.6,6.5-16.6,7.2c-2.4,0.3-4.8,0.3-7.1-0.4c-2.1-0.6-3.7-1.7-5.2-3.2c-1.2-1.2-2.5-2.5-3.7-3.7C14.4,59.1,8.8,53.5,3.1,47.9c-1-1-2-2-3-3c-0.2-0.2-1.3-1-1.4-1.4c0-0.4,1.6-1.7,1.9-2c4.6-4.6,9.2-9.2,13.8-13.8c6-6,12-12,18-18C36.2,5.9,40,2.1,43.8-1.6C44-1.8,44.2-2,44.3-2.2z" style="fill:#80D0DE" />
		<path d="M58.2,57.3c-4.5,4.5-9.8,8.4-15.7,10.7c-4.2,1.7-9.3,2.9-13.7,1.2c-2.1-0.8-3.6-2.4-5.1-4c-2.2-2.2-4.4-4.4-6.6-6.6c-4.8-4.8-9.6-9.6-14.3-14.3c-0.1-0.1-0.9-0.7-0.9-0.9c0-0.1,0.5-0.5,0.6-0.6C3.7,41.6,5,40.3,6.3,39c4.9-4.9,9.8-9.8,14.7-14.7C26.4,19,31.6,13.7,36.9,8.4c1.8-1.8,3.6-3.6,5.4-5.4c0.5-0.5,1-1,1.5-1.5C43.9,1.4,44.2,1,44.3,1c0.2,0,0.8,0.8,1,1c0.9,0.9,1.7,1.7,2.6,2.6c2.6,2.6,5.1,5.1,7.7,7.7c4,4,8,7.9,11.9,11.9c1.1,1.1,2.1,2.4,2.7,4c0.7,2,0.8,4.2,0.6,6.2c-0.6,5.5-3.2,10.8-6.3,15.3C62.7,52.4,60.6,55,58.2,57.3 M61.4,60.5C66.9,55,71.6,48.3,74,40.9c1.1-3.4,1.7-6.9,1.3-10.5c-0.2-1.6-0.5-3.1-1.2-4.5c-0.1-0.3-0.3-0.6-0.4-0.9c0-0.1-0.2-0.2-0.2-0.4c0-0.1,0.3-0.2,0.3-0.3c0-0.2-0.2-0.4-0.4-0.6c-4.2-4.3-8.5-8.6-12.8-12.8c-4.4-4.4-8.8-8.8-13.2-13.2c-0.7-0.7-1.4-1.4-2-2c-0.3-0.3-0.8-1-1.2-0.9c-0.2,0.1-0.6,0.6-0.8,0.8C43-4,42.6-3.6,42.2-3.2c-0.3,0.3-0.7,0.7-1,1c-1,1-2,2-3,3c-5.4,5.4-10.8,10.8-16.1,16.1c-5.9,5.9-11.8,11.8-17.7,17.7c-1.6,1.6-3.3,3.3-4.9,4.9C-0.8,39.8-1,40-1.3,40.3c-0.5,0.5-1.1,1.1-1.6,1.6c-0.2,0.2-1.6,1.3-1.6,1.6c0,0.3,1.4,1.4,1.7,1.7c0.5,0.5,1,1,1.5,1.5c0.4,0.4,0.8,0.8,1.3,1.3c2.5,2.5,5,5,7.6,7.6c4.8,4.8,9.6,9.6,14.4,14.4c1,1,1.9,1.9,2.9,2.9c0.4,0.4,0.2,0.2,0.5,0.2c0.1,0,0.1-0.2,0.2-0.2c0.1,0,0.4,0.2,0.5,0.2c0.3,0.2,0.7,0.3,1.1,0.5c1.5,0.6,3,0.9,4.6,1.1c7.3,0.7,14.6-2.5,20.5-6.4C55.5,65.9,58.6,63.3,61.4,60.5L61.4,60.5z" style="fill:#FFFFFF" />
		<path d="M58.7,57.8c6.3-6.3,16.1-8,24.1-4.2c8,3.8,13,12.4,12.1,21.2c-0.8,8.9-7.4,16.6-16.1,18.7c-8.6,2.1-17.8-1.5-22.8-8.8C50.5,76.4,51.6,64.9,58.7,57.8z" style="fill:#80D0DE" />
		<path d="M87.3,86.4c-5.6,5.6-14.4,7.2-21.6,3.8C58.5,86.7,54.1,79,54.8,71.1c0.8-7.9,6.6-14.7,14.3-16.7c7.8-2,16.2,1.3,20.6,8C94.6,69.9,93.6,80.1,87.3,86.4 M90.5,89.5c6.9-6.9,8.8-17.7,4.7-26.6C91,54,81.4,48.5,71.6,49.5c-9.8,0.9-18.2,8.1-20.6,17.7c-2.4,9.6,1.6,19.9,9.8,25.4c8.1,5.4,19,5.1,26.8-0.5C88.6,91.2,89.6,90.4,90.5,89.5L90.5,89.5z" style="fill:#FFFFFF" />
	</svg>
	 <svg x="2048" y="1024" width="1024" height="1024" viewBox="0 0 113 113" preserveAspectRatio="xMinYMid meet" >
		<path d="M30.7,57.7c-4.1,14.2-0.6,29.7,9.3,40.7c5,5.5,11.5,9.8,18.6,12c7.2,2.2,14.9,2.2,22.1,0.4c14.5-3.6,26.6-14.4,30.6-29c3.8-13.7,0.7-29.6-9-40.2c-9.3-10.2-23.7-15-37.3-13.3c-1.7,0.2-3.4,0.5-5,0.9c1.5,2.6,3,5.2,4.5,7.8c1.4-1.4,1.8-3.3,1.2-5.2c-0.6-1.7-2.1-3.2-4-3.1c-0.8,0-1.5,0.5-2.3,0.3c-0.9-0.2-1.6-0.8-2.3-1.4c-1.5-1.2-2.8-2.7-4.4-3.8c0.6,2.1,1.2,4.2,1.7,6.4c5-6.6-2.9-13.9-9.1-15.5c1.2,1.5,2.3,3,3.5,4.5c-0.5-4.9-4.8-8.4-9.3-9.6c-4.9-1.3-9.4,0.3-13.3,3.3c-1.9,1.5-3.7,3.3-5.5,5c-1.9,1.8-3.9,3.4-5.6,5.4c-3.6,4-5.8,8.8-4.8,14.2c1,5.1,4.5,9.8,10,10.3c-1.5-1.2-3-2.3-4.5-3.5c0.7,4.1,2.3,10.2,6.8,11.6c2.3,0.7,5.1,0.5,7.1-0.8c2.1-1.4,2.9-3.8,2.6-6.3c-2.3,1.8-4.6,3.5-6.8,5.3c2.5,1.7,4.5,4,6,6.6c-0.1-1.2-0.3-2.3-0.4-3.5c-0.9,2.5-0.1,4.9,2.5,5.8c2.3,0.8,4.9,0,6-2.2c1.6-3-0.3-6.3-2.2-8.6c-2-2.4-4.6-4.6-7.3-6.3c-1.7-1.1-3.6-1-5.1,0.4c-1.5,1.4-1.9,3.4-1.7,5.4c0.1-0.5,0.1-1,0.2-1.6c0.1-0.5,0-1.3,0.2-1.7c0.3-0.6,2-1,2.7-1.3c-0.6-1-0.9-2.1-1.2-3.1c-0.3-1-0.3-2.2-0.8-3.2c-0.8-1.5-2.5-2.3-4.2-2.5c0.7,0.1-0.5-1.9-0.6-2.1c-0.6-1.5-0.4-2.8,0.3-4.2c1.5-2.8,4.1-4.7,6.3-6.8c1.3-1.2,2.6-2.4,3.9-3.6c1.2-1.1,2.6-2.6,4.1-3.2c1.1-0.4,2.8-0.2,3.8,0.5c0.5,0.3,1.6,1.6,1.4,0.2c0.3,2.3,1.5,3.9,3.8,4.6c0.8,0.2,1.5,0.5,2.3,0.8c0.2,0.1,0.7,0.3,0.8,0.5c0.2,0.4-0.1,0.6-0.3,1c-1.2,2.5,0.9,4.8,2.8,6.2c2,1.5,3.8,3.2,5.9,4.6c2.5,1.6,5.3,2.2,8.1,1.1c-1.5-2.6-3-5.2-4.5-7.8c-2.1,2-2.1,5.2,0.2,7.1c1.1,0.9,2.4,1.2,3.8,1c1.8-0.3,3.5-0.7,5.3-0.9c6.9-0.7,13.9,0.8,19.8,4.2c6.1,3.5,11.1,9,13.9,15.4c2.9,6.5,3.3,13.9,1.5,20.8c-1.8,6.9-5.7,13.3-11.2,17.8c-5.4,4.4-12.2,6.8-19.2,7.1c-6.9,0.3-14-1.6-19.8-5.4c-5.5-3.6-9.7-9.1-12-15.2c-2.3-6.2-2.8-13-1.5-19.5c0.5-2.4,1.6-5-0.6-6.9c-1.6-1.3-4-1.7-5.8-0.6C31.7,55.6,31.1,56.6,30.7,57.7z" style="fill:#FFFFFF" />
		<path d="M21.6,34.1c-0.2-1.9,1.4-3.5,2.8-4.6c1.4-1.2,2.8-2.3,4-3.7c2.3-2.3,5.8-6.1,9.2-3.4c0.7-2.6,1.4-5.2,2.1-7.8c-6,1.1-10.5,5.7-14.5,10c-3.9,4.2-8.5,8.4-9.6,14.3c2.3-1,4.5-1.9,6.8-2.9c-0.7-0.5-0.8-1.9-1-2.7c-0.2-0.8-0.5-1.6-1-2.3c-1-1.2-2.6-1.7-4.1-1.4c-1.5,0.2-2.9,1.1-3.7,2.4c-1,1.8-0.2,4,0.5,5.8c1.4,3.8,5.7,9.4,10.1,5.7c0.8-0.7,1.2-1.6,1.5-2.6c0.3-1.3,0.8-2.5,1.6-3.6c1.5-2.2,3.4-4,5.2-5.9c1.8-2,3.6-4.1,5.7-5.7c1.1-0.8,2.2-1.4,3.4-1.9c1.1-0.4,2.1-0.4,3-1.2c1.4-1.2,2.2-3.3,1.7-5.2c-0.6-2.2-3.6-3.6-5.5-4.5c-2.4-1.1-5.4-1.8-8-1.1c-2.6,0.7-4.7,2.6-6.6,4.3c-3.4,3.1-7.4,5.8-10.3,9.5c-2.3,2.9-4.5,8.2-1.3,11.2c2,1.9,6.2,2.2,7.6-0.7C21.6,35.7,21.7,34.9,21.6,34.1z" style="fill:#FFFFFF" />
		<path d="M27.7,44.4c0.2,0.2,0.4,0.4,0.6,0.6c-0.8-1.4-1.5-3.4-1.2-5.1c0.3-1.6,1.4-2.8,2.5-3.9c1.7-1.7,3.4-3.4,5.2-5.1c1.6-1.6,3.4-3.4,5.6-4.1c2.3-0.7,3.9,0.7,4.8,2.7c1.8-2.3,3.5-4.6,5.3-6.8c-5.1-1.3-9.9,1.7-13.8,4.6c1.9,0.3,3.7,0.5,5.6,0.8c-3.8-3.8-7.9,0.6-10.9,3.1c-1.5,1.2-3.4,2.3-3.6,4.5c-0.2,1.8,0.7,3.3,1.9,4.6c0-2.2,0-4.4,0-6.6c-2.9,3.2-6.3,6.5-7.7,10.7c-1,3.1-0.5,8.8,3.5,9.4c2.9,0.4,5.8-2.2,5.6-5.1c0-0.4-0.1-0.7-0.2-1c-0.1-0.2-0.4-0.7-0.3-0.9c0-0.3,0.4-0.7,0.6-0.9c0.9-1.1,1.9-2.1,2.8-3.2c0.9-0.9,1.9-1.8,2.6-2.9c1.7-2.3,0.8-4.8-0.9-6.7c0,2.2,0,4.4,0,6.6c2.1-1.7,4.2-3.4,6.4-5.1c-2.2,0-4.4,0-6.6,0c1.3,1.3,3.3,2.1,5.1,1.3c1.3-0.5,2.5-1.8,3.7-2.7c0.7-0.5,1.4-0.9,2.1-1.2c0.8-0.3,1.4-0.2,2.2-0.1c1.6,0.2,3.1-0.3,4.1-1.6c2.4-3.1,0.2-7.1-2.2-9.5c-2.8-2.8-6.9-4.3-10.9-3.5c-4.2,0.8-7.7,3.4-10.7,6.3c-3,2.8-6.1,5.8-8.4,9.2c-2.1,3.1-3.3,7-2.7,10.8c0.6,3.3,2.3,6.9,5.1,8.8c2.6,1.8,6.2,1.5,7.7-1.6C31.9,48.2,30.7,45,27.7,44.4z" style="fill:#FFFFFF" />
		<path d="M97.6,96.4c8.8-8.8,12.7-21.7,10.3-33.9c-2.6-12.9-12-23.8-24.4-28c-7.1-2.4-14.8-2.7-22.1-0.8c0.1-0.1,0.1-0.2,0.2-0.2c-3.6,2-7.3-2.7-9.7-4.6c-1.3-1-2.9-2.2-4.7-1.9c-2.4,0.5-4.7,1.9-6.7,3.3c-4.6,3.2-8.5,7.2-11.8,11.6c-1.4,1.9-4,5-1.9,7.3c0.8,0.8,1.9,1.4,2.8,2.1c1.2,1,2.3,2.2,3.4,3.4c0.5,0.6,0.9,1.1,1.3,1.7c0.4,0.5,1.1,1.4,1.1,2c0,0.6-0.4,1.4-0.6,2c-0.2,0.7-0.4,1.5-0.5,2.2c-0.6,2.8-0.8,5.7-0.7,8.6c0.2,5.8,1.7,11.5,4.5,16.6c5.4,9.9,15.2,17,26.3,19c10.6,1.9,21.7-0.9,30.1-7.6C95.5,98.3,96.6,97.4,97.6,96.4z" style="fill:#FAAC55" />
		<path d="M51.4,25.8c-0.9-4.1-4.6-6.6-8.7-6.7c-4.1-0.2-7.5,2.3-10.4,4.9c-3,2.8-5.4,6-8.2,8.9c-1.5,1.5-2.8,3.1-3.5,5.1c-0.7,2-0.6,4-0.2,6c0.5,2.5,1.7,8,5.2,7.7c0.6-0.1,1.9-0.4,2.1-1.1c0.1-0.4-0.3-1.5-0.7-1.7c-0.5-0.2-1.1,0.1-1.7-0.3c-0.6-0.4-1-1.1-1.4-1.7c-1.7-3.3-2.4-7.1-0.5-10.4c1-1.8,2.4-3.3,3.8-4.7c1.5-1.5,3-3.1,4.6-4.6c3.3-3.3,8-6.9,12.9-4.7c2.2,1,3.8,2.8,4.5,5.1c0.2,0.7,0.6,0.8,1.1,0.3C50.9,27.3,51.6,26.4,51.4,25.8z" style="fill:#FAAC55" />
		<path d="M44.1,18.8c-1.2-3.1-4.7-4.9-7.9-5.2c-1.7-0.1-3.4,0.2-4.9,1.1c-1.9,1.2-3.4,2.9-5,4.3c-3.4,3-7.2,5.9-9.8,9.7c-1.1,1.7-2.1,3.6-2,5.6c0.1,1.4,0.5,2.9,1,4.2c0.5,1.3,1.2,2.7,2.3,3.6c0.9,0.7,2.5,1.2,3.5,0.3c0.6-0.6,1.4-2.5,0-2.5c-1.4,0-2.2-0.6-2.9-1.8c-0.7-1.2-1.1-2.5-1.4-3.8c-0.4-1.6-0.1-3.1,0.8-4.5c2-3.3,5.6-5.9,8.5-8.4c1.8-1.5,3.5-3.6,5.6-4.6c1.9-1,4.1-0.6,6,0.2c0.9,0.4,1.8,0.9,2.5,1.5c0.4,0.3,0.7,0.6,0.9,1c0.2,0.3,0.3,0.8,0.6,1.1C42.9,21.9,44.5,19.7,44.1,18.8z" style="fill:#FAAC55" />
		<path d="M37.8,32.9c5.2,5.2,10.4,10.4,15.7,15.5c2.6,2.6,5.3,5.1,7.9,7.7c1.9,1.9,3.8,3.8,5.9,5.4c3,2.4,7.9,5.7,11.9,3.7c4.3-2.1,4.8-8.7,0.4-11c-2.4-1.3-5.2-0.5-7.6,0.6c-2.9,1.3-5.5,3.1-7.9,5.1c-2.3,1.9-4.4,4.1-6.2,6.4c-1.8,2.3-3.4,5-3.8,8c-0.2,2.3,0.4,4.5,2.2,6c1.5,1.2,3.6,1.8,5.5,1.3c2.4-0.5,3.9-2.6,4.7-4.9c0.9-2.7,0.3-5.5-1-8C64.1,66.3,62,64,60,61.8c-2.4-2.6-4.9-5.1-7.4-7.6c-5-5-10-10-14.9-15.1c-1.2-1.3-2.4-2.6-3.6-3.9c-0.3-0.3-0.5-0.8-0.9-0.7c-0.3,0-0.6,0.5-0.8,0.7c-0.5,0.6-1.1,1.4-1.1,2.2c0,0.5,0.3,0.8,0.6,1.1c0.6,0.6,1.1,1.2,1.7,1.8c4.6,4.9,9.4,9.4,14.2,14.1c4.7,4.7,9.4,9.4,13.6,14.6c1.4,1.8,6,8.1,1.8,9.3c-2.6,0.8-5.1-1.4-6.2-3.6c-1-2.1-0.3-4.2,0.9-6c1.4-2,3.2-3.6,5-5.1c2.2-1.8,4.4-3.5,6.9-4.8c2-1,4.5-2.3,6.7-1.3c1.3,0.6,3.2,1.7,3.8,3.1c1,2.2-3.4,1.6-4.3,1.3c-2.7-0.8-5.3-2.6-7.5-4.4c-5.1-4-9.4-9-14-13.6c-2.6-2.6-5.2-5.2-7.8-7.7c-1.3-1.3-2.6-2.6-3.9-3.9c-0.6-0.6-1.2-1.2-1.8-1.8c-0.3-0.3-1-1.3-1.4-1.3C38.7,29.3,37,32.2,37.8,32.9z" style="fill:#FFFFFF" />
		<path d="M6,1.6C4,1.1,2,0.5,0,0c0.5,2,1.1,4,1.6,6C3.1,4.5,4.5,3.1,6,1.6z" style="fill:#E84445" />
	</svg>
	 <svg x="3072" y="1024" width="1024" height="1024" viewBox="0 0 100 100" preserveAspectRatio="xMinYMid meet" >
		<path d="M6.1,1.8c-2-0.5-4-1.1-6-1.6c0.5,2,1.1,4,1.6,6C3.2,4.7,4.6,3.2,6.1,1.8z" style="fill:#E84445" />
		<path d="M60.8,30.7C57.4,34.2,54,37.6,50.6,41c-5.2,5.2-10.4,10.4-15.6,15.6c-0.7,0.7-1.4,1.4-2.1,2.1c-0.1,0.1-0.3,0.4-0.5,0.5c-0.3,0.1,0.1,0.2-0.4-0.1c-0.9-0.6-0.8-0.7-0.3-1.2c0.6-0.6,1.3-1.3,1.9-1.9c5.1-5.1,10.3-10.3,15.4-15.4c2.5-2.5,4.9-4.9,7.4-7.4c0.8-0.8,1.6-1.6,2.4-2.4c0.2-0.2,0.8-1,1-1C60,29.8,60.6,30.6,60.8,30.7z" style="fill:#FFFFFF" />
		<path d="M49.9,16.1c-3.8,3.8-7.6,7.6-11.5,11.5c-5.8,5.8-11.7,11.7-17.5,17.5c-0.8,0.8-1.6,1.6-2.4,2.4c-0.3,0.3-0.6,0.8-0.9,0.7c-0.2-0.1-0.8-0.7-0.8-0.9c0-0.1,0.4-0.4,0.5-0.5c0.7-0.7,1.4-1.4,2.1-2.1c5.7-5.7,11.5-11.5,17.2-17.2c2.8-2.8,5.5-5.5,8.3-8.3c0.9-0.9,1.8-1.8,2.8-2.8c0.2-0.2,0.9-1.1,1.2-1.2C49.1,15.1,49.7,15.9,49.9,16.1z" style="fill:#FFFFFF" />
		<path d="M49.3-7.3c3.5,3.5,7,7,10.5,10.5c0.3,0.3,1.5,1.2,1.6,1.6c0.1,0.3-1.2,1.3-1.5,1.6c-0.5,0.5-1.1,1.1-1.6,1.6c-0.3,0.3-1.1,0.8-1.3,1.3C57,9.5,57,9.4,57.3,9.7c0.9,1.1,2.1,2.1,3.1,3.1c1.8,1.8,3.6,3.6,5.4,5.4c4.6,4.6,9.1,9.1,13.7,13.7c3.3,3.3,6.5,6.5,9.8,9.8c4.4,4.4,7.6,9.4,8.9,15.5c4.1,18.3-8.9,36.8-27,40.4c-8.5,1.7-17.6-0.1-24.6-5.3c-2.9-2.2-5.4-5-8-7.6c-8.3-8.3-16.6-16.6-25-25c-1-1-2.1-2.1-3.1-3.1c-0.2-0.2-0.2-0.3-0.4-0.3c-0.3,0.1-0.8,0.8-1,1c-0.6,0.6-1.2,1.2-1.7,1.7c-0.3,0.3-1.3,1.6-1.7,1.6c-0.4,0-1.3-1.3-1.5-1.5c-2.2-2.2-4.3-4.3-6.5-6.5c-1-1-1.9-1.9-2.9-2.9c-0.2-0.2-1.3-1-1.3-1.3c0-0.2,0.9-0.9,1-1c2.6-2.6,5.1-5.1,7.7-7.7c8.7-8.7,17.5-17.5,26.2-26.2C35,7,41.6,0.4,48.3-6.3C48.6-6.6,49-7,49.3-7.3z" style="fill:#7F7F7F" />
		<path d="M87.2,86.4c-6.1,6.1-14.6,9.7-23.3,9.4c-7.2-0.2-13.9-3.2-19-8.2C38.2,81,31.6,74.4,25,67.8c-3.8-3.8-7.6-7.6-11.4-11.4c-1-1-2-2-3-3c-0.1-0.1-0.4-0.5-0.5-0.5c-0.1,0-0.4,0.4-0.5,0.5c-0.5,0.5-1,1-1.4,1.4c-0.5,0.5-1.1,1.1-1.6,1.6c-0.2,0.2-0.7,0.9-1,1c-0.3,0-0.9-0.8-1.2-1.1c-2-2-4-4-6-6c-0.4-0.4-0.7-0.7-1.1-1.1c-0.1-0.1-0.6-0.5-0.6-0.6c0-0.1,0.1-0.1,0.2-0.2c0.4-0.7,1.4-1.4,1.9-1.9c7-7,14-14,21-21c8-8,16-16,23.9-23.9c1.2-1.2,2.4-2.4,3.6-3.6c0.5-0.5,1.2-1.6,1.8-1.8c0.2-0.1,0-0.1,0.2-0.1c0.2,0,0.6,0.6,0.7,0.7c0.4,0.4,0.8,0.8,1.2,1.2c2,2,4,4,6,6c0.3,0.3,0.9,0.7,0.8,1.1c-0.1,0.3-0.8,0.8-1,1c-0.6,0.6-1.1,1.1-1.7,1.7c-0.2,0.2-1.7,1.4-1.7,1.7c0,0.1,0.4,0.4,0.5,0.5c2.7,2.7,5.5,5.5,8.2,8.2c7.9,7.9,15.8,15.8,23.7,23.7c3,3,5.9,6.1,7.8,10c3.6,7.5,3.5,16.3,0.4,24C92.7,79.8,90.2,83.4,87.2,86.4 M90.5,89.8c6.7-6.7,10.7-15.9,10.8-25.5c0-8.7-3.3-17.2-9.5-23.4c-2.6-2.7-5.3-5.3-7.9-7.9c-4.8-4.8-9.5-9.5-14.3-14.3c-2-2-3.9-3.9-5.9-5.9c-0.7-0.7-1.3-1.3-2-2c-0.4-0.4-0.9-0.7-1.2-1.2c0,0-0.2-0.2-0.2-0.2c0-0.2,0.8-0.8,1-1c0.8-0.8,1.7-1.7,2.5-2.5c0.1-0.1,1-0.8,1-1c0-0.2-0.9-0.9-1-1c-0.8-0.8-1.6-1.6-2.4-2.4C58.2-1.7,55-5,51.7-8.2c-0.6-0.6-1.1-1.1-1.7-1.7c-0.2-0.2-0.5-0.7-0.7-0.6c-0.3,0-1,1-1.3,1.3c-0.5,0.5-1.1,1.1-1.6,1.6c-0.4,0.4-0.9,0.9-1.3,1.3c-2.8,2.8-5.5,5.5-8.3,8.3c-4.5,4.5-8.9,8.9-13.4,13.4c-4.8,4.8-9.6,9.6-14.5,14.5c-3.8,3.8-7.6,7.6-11.4,11.4c-1.5,1.5-3,3-4.6,4.6c-0.5,0.5-1.1,1.1-1.6,1.6c-0.2,0.2-1.2,1-1.2,1.2c0,0.2,0.7,0.7,0.8,0.8c0.6,0.6,1.1,1.1,1.7,1.7c1.4,1.4,2.8,2.8,4.3,4.3c1.8,1.8,3.6,3.6,5.4,5.4c0.8,0.8,1.6,1.6,2.5,2.5c0.1,0.1,0.7,0.9,0.9,0.9c0.2,0,1-1,1.1-1.1c0.8-0.8,1.6-1.6,2.5-2.5c0.2-0.2,0.8-0.9,1-0.9c0.1,0,0.2,0.2,0.2,0.2c0.4,0.3,0.8,0.8,1.2,1.2c0.7,0.7,1.4,1.4,2,2c4.4,4.4,8.8,8.8,13.2,13.2c4.2,4.2,8.3,8.3,12.5,12.5c0.8,0.8,1.6,1.6,2.4,2.4c3,3,6.5,5.3,10.4,6.9c8.5,3.5,18.4,3.3,26.8-0.4C83.2,95.8,87.2,93.1,90.5,89.8L90.5,89.8z" style="fill:#FFFFFF" />
		<path d="M77.5,49.3c-3.5,3.5-7,7-10.5,10.5c-5,5-10.1,10.1-15.1,15.1c-0.5,0.5-1,1.3-1.6,1.6c-0.1,0-0.1,0.2-0.2,0.2c-0.1,0-0.5-0.5-0.6-0.6c-0.4-0.4-0.7-0.7-1.1-1.1c-0.6-0.6-0.6-0.5,0-1c0.7-0.7,1.3-1.3,2-2c5.2-5.2,10.4-10.4,15.6-15.6c2.3-2.3,4.6-4.6,6.9-6.9c0.6-0.6,1.3-1.3,1.9-1.9c0.6-0.6,0.5-0.4,1.2,0.3C76.4,48.3,77,48.8,77.5,49.3z" style="fill:#FFFFFF" />
		<path d="M72,43.9c-3.5,3.5-7,7-10.5,10.5c-5,5-10.1,10.1-15.1,15.1c-0.5,0.5-1,1.3-1.6,1.6c-0.1,0-0.1,0.2-0.2,0.2c-0.1,0-0.5-0.5-0.6-0.6c-0.4-0.4-0.7-0.7-1.1-1.1c-0.6-0.6-0.6-0.5,0-1c0.7-0.7,1.3-1.3,2-2C50,61.4,55.2,56.2,60.4,51c2.3-2.3,4.6-4.6,6.9-6.9c0.6-0.6,1.3-1.3,1.9-1.9c0.6-0.6,0.5-0.4,1.2,0.3C71,42.9,71.5,43.4,72,43.9z" style="fill:#FFFFFF" />
		<path d="M66.6,38.4c-3.5,3.5-7,7-10.5,10.5C51,54,46,59,40.9,64.1c-0.5,0.5-1,1.3-1.6,1.6c-0.1,0-0.1,0.2-0.2,0.2c-0.1,0-0.5-0.5-0.6-0.6c-0.4-0.4-0.7-0.7-1.1-1.1c-0.6-0.6-0.6-0.5,0-1c0.7-0.7,1.3-1.3,2-2c5.2-5.2,10.4-10.4,15.6-15.6c2.3-2.3,4.6-4.6,6.9-6.9c0.6-0.6,1.3-1.3,1.9-1.9c0.6-0.6,0.5-0.4,1.2,0.3C65.5,37.4,66,37.9,66.6,38.4z" style="fill:#FFFFFF" />
	</svg>
	 <svg x="0" y="2048" width="1024" height="1024" viewBox="0 0 85 85" preserveAspectRatio="xMinYMid meet" >
		<path d="M6,1.7C4,1.1,2,0.6,0,0.1c0.5,2,1.1,4,1.6,6C3.1,4.6,4.6,3.1,6,1.7z" style="fill:#E84445" />
		<path d="M16.2,24.7c1.3,1.4,2.5,2.7,4.4,3.2c2.5,0.7,5.3-0.1,7.1-1.9c1.8-1.9,2.4-4.6,1.7-7.1c-0.6-1.8-1.8-2.9-3.1-4.2c3.5-3.5,7.1-7.1,10.6-10.6c0.5-0.5,1-1,1.5-1.5c3.5,3.5,7,7,10.5,10.5c0.2,0.2,0.5,0.6,0.7,0.7c0.3,0.1,0,0.1,0.4-0.1c0.4-0.3,0.8-0.7,1.2-1.1c0.6-0.5,1.3-1.1,2-1.5c3.7-2.5,8.4-4.3,12.8-2.7c4.1,1.5,6.3,5.3,8.4,8.8c-2.3-0.3-4.5-0.7-6.8-0.3c-2.1,0.4-4.2,1.3-5.4,3.1c-1.5,2.3-1.6,5.5-1.1,8.1c3.5-3.1,8.5-5.7,13.3-4.2c3.9,1.3,5.9,4.9,7.9,8.2c-3.4-0.5-7.6-1.2-10.3,1.6c-2.1,2.2-2,6.1-1.2,8.8c0.6,2,1.7,3.8,3.2,5.2c0.9,0.8,1.9,1.4,2.9,2c-2.8,2.8-5.7,5.7-8.5,8.5c-4.5,4.5-9,9-13.6,13.6c-1,1-2.1,2.1-3.1,3.1c-1.6-2.6-3.4-4.6-6.3-5.7c-2.6-1-6.2-1.3-8.8,0.2c-2.3,1.4-3.1,4.2-3.1,6.7c0,1.4,0.3,2.9,0.5,4.3c-3.3-2-6.9-4-8.2-8c-1.5-4.7,1.1-9.7,4.2-13.1c-2.6-0.5-5.7-0.4-8,1c-1.9,1.2-2.9,3.3-3.2,5.4c-0.4,2.3,0,4.6,0.3,6.9c-3.1-1.9-6.3-3.7-8.1-7c-2.3-4.2-1.1-9.1,1.3-13c0.8-1.4,1.8-2.7,2.9-3.9c0.6-0.6,0.8-0.6,0.2-1.1c-1.9-1.9-3.9-3.9-5.8-5.8c-1.7-1.7-3.4-3.4-5.1-5.1c3.5-3.5,7.1-7.1,10.6-10.6C15.2,25.7,15.7,25.2,16.2,24.7z" style="fill:#263F66" />
		<path d="M51.7,72.6c-4-6.2-16.6-8.7-19.4-0.3c-0.6,1.6-0.7,3.5-0.5,5.2c-3.5-2.1-5.8-5.6-4.9-9.8c0.6-2.7,2.2-5.2,4-7.3c0.6-0.6,1.2-1.2,1.8-1.8C28.2,57,21.9,57,18.8,61.1c-1.8,2.4-2.4,5.8-2,8.7c-4-2.4-6.7-6.4-5.7-11.2c0.6-3.1,2.4-6,4.5-8.4c0.6-0.7,1.4-1.4,2.1-2.1c-3.8-3.8-7.6-7.6-11.3-11.3c3.3-3.3,6.6-6.6,9.9-9.9c3.3,3.6,9.1,3.7,12.5,0.3c3.4-3.4,3.3-9.2-0.3-12.5c2.6-2.6,5.1-5.1,7.7-7.7c0.6-0.6,1.1-1.1,1.7-1.7c0.1-0.1,0.4-0.5,0.5-0.4c0.2,0,0.8,0.8,1,1C40,6.3,40.6,7,41.2,7.6c1.7,1.7,3.3,3.3,5,5c0.7,0.7,1.4,1.4,2.1,2.1c0.3,0.3,0.8,1,1.2,1.2c0.4,0.2,0.8-0.5,1.2-0.9c0.2-0.2,0.5-0.5,0.8-0.7c1.3-1.2,2.7-2.2,4.2-3c2.3-1.3,5-2.2,7.7-1.9c3.6,0.4,6.2,2.9,8,5.9c-2.9-0.4-6.3,0.2-8.7,2c-4.1,3.1-4.1,9.4-2.4,13.8c3.4-3.4,8.3-7.3,13.4-5.6c2.4,0.8,4.2,2.7,5.5,4.8c-3.8-0.5-8.2,0.9-9.8,4.7c-1.8,4.4-0.4,9.9,2.7,13.3c0.6,0.7,1.4,1.4,2.2,1.9C68.3,56.1,62.3,62.1,56.4,68C54.8,69.5,53.3,71.1,51.7,72.6 M51.2,77.6c3.9-4,7.9-8,11.9-11.9c3.6-3.6,7.3-7.3,10.9-10.9c1.7-1.7,3.4-3.4,5.2-5.2c-2.7-1.7-5.2-3-6.5-6.1c-1.1-2.6-1.7-7,0.7-9c1.6-1.3,4-1.4,6-1.2c1.9,0.2,3.8,0.5,5.7,0.7c-1.9-3.2-3.7-6.9-6.5-9.3c-4.9-4.1-11.3-2.9-16.2,0.5c0-2.7,0.9-5.2,3.6-6.3c1.5-0.6,3.3-0.8,4.9-0.7c2.2,0.2,4.3,0.6,6.5,0.9C74.5,14.5,72,9,66.6,7c-4-1.5-8.3-0.6-11.9,1.4c-1.5,0.8-2.9,1.8-4.3,2.9c-0.2,0.2-0.5,0.6-0.7,0.5c-0.2,0-0.5-0.5-0.6-0.6c-2.9-2.9-5.7-5.7-8.6-8.6c-0.3-0.3-0.6-0.6-0.9-0.9c-0.2-0.2-0.9-1.2-1.2-1.2c-0.4,0-1.6,1.5-2,1.9c-1,1-2,2-2.9,2.9c-3.2,3.2-6.3,6.3-9.5,9.5c1,0.9,2.3,1.8,3.1,3c1.6,2.2,1.4,5.2-0.5,7.2c-1.9,1.9-4.9,2.3-7.2,0.8c-1.2-0.8-2.2-2.1-3.2-3.2c-4,4-7.9,7.9-11.9,11.9c-0.8,0.8-1.6,1.6-2.4,2.4c3.6,3.6,7.2,7.2,10.8,10.8c0.1,0.1,0.6,0.5,0.6,0.6c0,0.3-1.1,1.4-1.3,1.7c-1.4,1.9-2.7,4.1-3.4,6.4c-1.7,5.2-0.3,10.5,3.8,14.1c2.5,2.2,5.6,3.7,8.3,5.4c-0.3-2.1-0.6-4.3-0.9-6.4c-0.2-1.8,0.1-3.8,0.8-5.4c1.2-2.4,3.6-3.1,6.1-3.2c-2.7,3.8-4.2,8.8-2.3,13.3c1.5,3.5,4.7,5.5,7.8,7.4c1.1,0.7,2.3,1.4,3.4,2.1c-0.2-1.7-0.5-3.4-0.7-5.1c-0.3-1.9-0.4-3.8,0.4-5.6c1.4-3.2,5.7-3.1,8.5-2.2c1.9,0.6,3.7,1.7,4.9,3.3C49.8,75,50.4,76.4,51.2,77.6z" style="fill:#FFFFFF" />
		<path d="M60.7,30.6c-3.4,3.4-6.8,6.8-10.3,10.3C45.3,46.1,40,51.3,34.8,56.6c-0.7,0.7-1.5,1.5-2.2,2.2c-0.1,0.1-0.3,0.5-0.5,0.5c-0.2,0-0.8-0.7-1-0.9c3.2-3.2,6.4-6.4,9.7-9.7c5.1-5.1,10.3-10.3,15.4-15.4c1.2-1.2,2.4-2.4,3.6-3.6C60.1,30,60.4,30.3,60.7,30.6z" style="fill:#FFFFFF" />
		<path d="M49.8,16c-3.6,3.6-7.2,7.2-10.9,10.9c-5.8,5.8-11.5,11.5-17.3,17.3c-1.3,1.3-2.7,2.7-4,4c-0.2-0.2-1-0.8-0.9-1c0-0.1,0.4-0.4,0.4-0.4c0.7-0.7,1.4-1.4,2.2-2.2c2.7-2.7,5.3-5.3,8-8c6-6,12.1-12.1,18.1-18.1c0.9-0.9,1.8-1.8,2.8-2.8c0.1-0.1,0.4-0.6,0.6-0.6C49,15,49.5,15.7,49.8,16z" style="fill:#FFFFFF" />
	</svg>
	 <svg x="1024" y="2048" width="1024" height="1024" viewBox="0 0 92 92" preserveAspectRatio="xMinYMid meet" >
		<path d="M6,1.6C4,1.1,2,0.5,0,0c0.5,2,1.1,4,1.6,6C3.1,4.5,4.5,3.1,6,1.6z" style="fill:#E84445" />
		<path d="M21.2,19.7c11.7-11.7,30.1-15,45.2-8c15.3,7.1,24.6,23.4,23,40.2c-1.6,16.7-13.9,31.1-30.3,35c-16.3,4-33.7-2.8-43-16.8C7,56.3,7.5,37.8,17.2,24.4C18.4,22.8,19.8,21.2,21.2,19.7z" style="fill:#263F66" />
		<path d="M76.4,74.9c-11.2,11.2-28.6,14.2-42.9,7.6C19,75.8,10.2,60.2,11.7,44.3c1.5-15.9,13.2-29.4,28.7-33.2c15.4-3.8,32,2.6,40.8,15.8c8.7,13.1,8.3,30.8-0.9,43.5C79.1,72,77.8,73.5,76.4,74.9 M79.3,77.7C91.6,65.4,95,46.1,87.6,30.2c-7.4-15.9-24.6-25.7-42.1-24C27.9,7.8,12.9,20.8,8.7,38.1c-4.1,17,3,35.3,17.6,45c14.5,9.6,34,9.2,48-1.1C76,80.7,77.7,79.3,79.3,77.7z" style="fill:#FFFFFF" />
		<path d="M72.8,71.3c-2.5,2.5-6.3,3.1-9.5,1.6c-3.2-1.5-5.1-4.9-4.7-8.4c0.3-3.5,2.9-6.4,6.3-7.3c3.4-0.8,7,0.5,9,3.4C76.1,64,75.6,68.5,72.8,71.3z" style="fill:#FFFFFF" />
		<path d="M61.7,52.1c-2.7,2.7-5.4,5.4-8.1,8.1c-5-5-10.1-10.1-15.1-15.1c-3.5-3.5-7-7-10.6-10.6c-1.2-1.2-2.4-2.4-3.6-3.6c-0.2-0.2-1.5-1.2-1.5-1.5c0-0.2,0.8-0.8,0.9-1c0.9-0.9,1.8-1.8,2.8-2.8c1.5-1.5,2.9-2.9,4.4-4.4c3.5,3.5,6.9,6.9,10.4,10.4c5.5,5.5,11.1,11.1,16.6,16.6C59.2,49.5,60.5,50.8,61.7,52.1z" style="fill:#FFFFFF" />
	</svg>
	 <svg x="2048" y="2048" width="1024" height="1024" viewBox="0 0 88 88" preserveAspectRatio="xMinYMid meet" >
		<path d="M6,1.6C4,1.1,2,0.5,0,0c0.5,2,1.1,4,1.6,6C3.1,4.5,4.5,3.1,6,1.6z" style="fill:#E84445" />
		<path d="M7.8,34.5c1.5-1.5,3.3-2,5.2-2.5c2.3-0.7,4.6-1.4,7-2.2c2.3-0.7,4.5-1.4,6.8-2.1c0.8-0.2,1.7-0.2,1.9-1c1.4-4.3,2.7-8.6,4-12.9c0.4-1.4,0.8-2.7,1.3-4.1c1.3-3.9,5.3-6.3,9.3-5.3c2.4,0.6,3.9,2.2,5.2,4.1c1.3,1.8,2.5,3.6,3.8,5.3c1.5,2.1,2.9,4.1,4.4,6.2c0.4,0.6,0.9,1.3,1.3,1.9c0.1,0.2,0.2,0.4,0.4,0.5c0.4,0.2,1.2,0,1.6,0c1,0,2.1,0,3.1,0c2.6,0,5.2-0.1,7.8-0.1c1.8,0,3.6-0.1,5.4-0.1c3,0,5.8,1.4,7.3,4.1c1.5,2.9,1,6.1-0.9,8.7c-1.1,1.5-2.3,3-3.4,4.5c-1.6,2.1-3.1,4.2-4.7,6.3c-0.6,0.8-1.2,1.6-1.8,2.4c-0.2,0.3-0.8,0.8-0.9,1.1c0,0.2,0.1,0.6,0.2,0.8c0.3,0.8,0.5,1.6,0.8,2.3c0.8,2.4,1.7,4.9,2.5,7.3c0.7,2,1.4,4,2.1,6c0.8,2.4,1.1,4.9-0.2,7.2c-1.9,3.4-5.8,4.8-9.4,3.6c-1.5-0.5-3-1-4.5-1.5c-2.5-0.8-4.9-1.7-7.4-2.5c-1.1-0.4-2.2-0.7-3.3-1.1c-0.6-0.2-1.2-0.5-1.8-0.6c-0.7-0.1-1.6,0.9-2.1,1.3c-1.9,1.4-3.8,2.9-5.8,4.3c-1.9,1.4-3.8,2.8-5.6,4.2c-1.7,1.3-3.4,2.5-5.7,2.6c-4,0.2-7.7-2.9-8.1-6.9c-0.2-1.4,0-2.9,0-4.2c0.1-4.7,0.1-9.4,0.2-14.1c0-1.1,0-1-0.9-1.6c-1.8-1.3-3.6-2.5-5.4-3.8c-2.1-1.5-4.1-2.9-6.2-4.4c-1.2-0.9-2.6-1.7-3.6-2.8C4.8,42.3,4.9,37.4,7.8,34.5z" style="fill:#807F7F" />
		<path d="M74.4,73c-1.9,1.9-4.2,1.7-6.5,1c-1.9-0.7-3.9-1.3-5.8-2c-3.5-1.2-7-2.6-10.6-3.6c-1.7-0.5-3,0.9-4.2,1.8c-1.9,1.4-3.8,2.8-5.7,4.2c-1.9,1.4-3.7,2.8-5.6,4.2c-1.5,1.1-3,2.3-5,2.2c-3.1-0.2-5.1-2.9-5.1-5.8c0-1.8,0-3.5,0.1-5.3c0.1-4.2,0.2-8.3,0.2-12.5c0-1.6-1-2.2-2.2-3c-1.8-1.3-3.6-2.5-5.4-3.8c-2-1.4-4-2.8-6-4.2c-1.1-0.8-2.4-1.5-3.4-2.5c-2.7-2.9-1.2-7.5,2.5-8.8c1.4-0.5,2.8-0.9,4.2-1.3c4.2-1.3,8.5-2.6,12.7-4c0.7-0.2,1.3-0.4,1.7-1c0.3-0.4,0.5-0.9,0.6-1.4c0.6-1.9,1.2-3.7,1.7-5.6c1.2-3.7,2.2-7.5,3.5-11.2c1.3-3.7,6.1-5.1,9-2.2c0.9,1,1.7,2.2,2.4,3.3c2.7,3.8,5.3,7.5,8,11.3c0.8,1.1,1.4,2,2.9,2c1.7,0,3.4,0,5.1-0.1c4.3-0.1,8.5-0.1,12.8-0.2c3,0,5.7,2.2,5.7,5.4c0,2-1.2,3.4-2.3,4.9c-2.8,3.7-5.6,7.5-8.4,11.2c-0.9,1.2-2.1,2.4-1.7,4c0.3,1.2,0.8,2.5,1.3,3.7c1.5,4.3,2.9,8.6,4.4,12.8C76.1,68.8,76.2,71.1,74.4,73 M77.8,76.4c2.8-2.8,3.6-6.9,2.4-10.6c-0.5-1.5-1-2.9-1.5-4.4c-0.8-2.4-1.7-4.9-2.5-7.3c-0.3-1-0.7-1.9-1-2.9c-0.1-0.3-0.5-1.1-0.5-1.5c0-0.2,0.3-0.5,0.5-0.7c0.5-0.7,1-1.4,1.6-2.1c1.5-2,3-4.1,4.6-6.1c1.1-1.5,2.3-3,3.4-4.5c2-2.7,2.8-6,1.8-9.2c-1.1-3.8-4.3-6.7-8.2-7.3c-1.6-0.2-3.2-0.1-4.8-0.1c-4.5,0.1-9,0.1-13.5,0.2c-0.9,0-1.1-0.9-1.6-1.6c-1.4-2-2.8-4-4.3-6C53,10.6,51.7,8.8,50.4,7C49,5,47.5,3.3,45.2,2.4c-4.1-1.6-8.9-0.4-11.7,3C32.2,7.1,31.6,9,31,10.9c-1.4,4.4-2.7,8.8-4.1,13.3c-0.1,0.2-0.1,0.8-0.3,1c-0.2,0.2-0.9,0.3-1.2,0.4c-2.1,0.7-4.3,1.3-6.4,2c-2.3,0.7-4.6,1.4-6.9,2.1C10,30.3,8,31,6.4,32.5C3.3,35.5,2.3,40.1,4,44c1,2.2,2.6,3.7,4.5,5.1c3.8,2.7,7.6,5.4,11.4,8c0.4,0.3,1.2,0.6,1.4,1c0.1,0.2,0.1,0.4,0.1,0.6c0,2.1-0.1,4.1-0.1,6.2c0,2.5-0.1,5-0.1,7.5c0,1.6-0.2,3.3,0.1,4.8c0.7,4,3.9,7.2,7.8,8.1c3.1,0.7,6.2-0.2,8.7-2c3.6-2.7,7.2-5.3,10.8-8c0.7-0.5,1.4-1,2.1-1.5c0.2-0.1,0.4-0.3,0.6-0.4c0.4,0,1.1,0.4,1.5,0.5c1,0.3,2,0.7,3,1c3.8,1.3,7.7,2.7,11.5,3.9C71,80,75,79.2,77.8,76.4z" style="fill:#FFFFFF" />
	</svg>
	 <svg x="3072" y="2048" width="1024" height="1024" viewBox="0 0 110 110" preserveAspectRatio="xMinYMid meet" >
		<path d="M6,1.6C4,1.1,2,0.6,0,0c0.5,2,1.1,4,1.6,6C3.1,4.6,4.6,3.1,6,1.6z" style="fill:#E84445" />
		<path d="M40.1,1.7c2.4-2.4,6-3.2,9.1-2c3.2,1.2,5.4,4.3,5.9,7.6c0.2,1.7,0,3.4-0.6,5c-0.3,0.8-0.7,1.5-1.2,2.2c-0.3,0.4-0.9,0.8-1,1.2c-0.2,0.7,0.1,1.8,0.1,2.5c0,0.7,0.1,1.4,0.1,2c1.5-0.1,2.9-0.1,4.4-0.2c0.2,0,1.4-0.2,1.5-0.1c0.1,0.1,0,0.9,0,1c0.1,3,0.2,5.9,0.3,8.9c-1.2,0-2.4,0.1-3.6,0.1c0.3,2.1,0.5,4.3,0.8,6.4c0.1,0.6-0.1,0.5,0.4,0.6c0.5,0.1,1.2-0.1,1.8-0.1c5.1-0.2,10.3-0.5,15.4-0.7c2.2-0.1,4.4-0.2,6.6-0.3c0.7,0,1.4-0.2,2,0.1c1.4,0.6,2.8,1.5,4.1,2.3c2.3,1.3,4.7,2.6,7,3.9c3.7,2.1,7.5,4.1,11.2,6.2c-6.5,3-12.9,5.9-19.4,8.9c-1.3,0.6-2.6,1.2-3.8,1.8c-0.5,0.2-0.7,0.3-1.3,0.2c-3.8-0.4-7.5-0.9-11.3-1.3c-3.4-0.4-6.9-0.8-10.3-1.2c0.8,6.9,1.7,13.8,2.5,20.7c0.1,0.5,0.2,1.1,0.1,1.6c-0.3,1-1,2.1-1.4,3c-1.8,4-3.7,7.9-5.5,11.9c-1.3,2.9-2.7,5.7-4,8.6c-4.1-7.2-8.1-14.4-12.2-21.6c-0.4-0.6-0.6-0.9-0.6-1.7c0.1-1.7,0.2-3.5,0.2-5.2c0.2-5.2,0.5-10.5,0.7-15.7c0-0.9,0.1-1.9,0.1-2.8c0-0.2,0.1-0.9,0-1c-0.1-0.1-1-0.1-1.1-0.1c-0.7-0.1-1.5-0.2-2.2-0.2c-1-0.1-2.1-0.2-3.1-0.4c0,0.6-0.1,1.1-0.1,1.7c0,0.3,0.1,1.6-0.1,1.8c-0.3,0.3-2,0-2.4,0c-2.5-0.1-5-0.2-7.5-0.2c0.1-1.9,0.2-3.9,0.3-5.8c-0.7,0-1.4,0-2.1-0.1c-0.7,0-1.8-0.3-2.5-0.1c-0.4,0.1-0.9,0.8-1.3,1.1c-0.7,0.5-1.4,0.9-2.2,1.2c-1.6,0.6-3.4,0.8-5.1,0.6c-3.4-0.5-6.5-2.8-7.6-6.1c-1.1-3.3,0.2-7,2.9-9.2c2.7-2.2,6.4-2.8,9.7-1.7c0.8,0.3,1.5,0.6,2.1,1.1c0.7,0.5,1.1,1.1,1.8,1.6c0.5,0.4,1.4,0.3,2.1,0.3c0.5,0,1,0,1.5,0.1c0.3,0,0.9,0.2,1.1,0c0.3-0.1,0.2-0.7,0.2-1.1c0.1-1,0.1-2.1,0.2-3.1c0-0.2-0.1-1.4,0.1-1.6c0.2-0.2,1.4,0,1.7,0.1c1.1,0,2.3,0.1,3.4,0.1c1.6,0.1,3.2,0.1,4.9,0.2c-0.1,1.2-0.1,2.4-0.2,3.6c1.2-0.1,2.4-0.1,3.5-0.2c0.5,0,2.5,0.2,2.8-0.2c0.2-0.2,0-1.1,0.1-1.4c0-0.8,0.1-1.6,0.1-2.4c0-1.1,0.1-2.2,0.1-3.3c-1.2,0-2.5,0.1-3.7,0.1c-0.1-3-0.2-5.9-0.3-8.9c0-0.1-0.1-0.9,0-1c0.2-0.2,1.3-0.1,1.5-0.1c1.5-0.1,2.9-0.1,4.4-0.2c0-1.1-0.1-2.1-0.1-3.2c0-0.4,0.1-1-0.1-1.4c-0.1-0.2-0.5-0.5-0.7-0.7c-0.4-0.4-0.8-0.8-1.1-1.3C36.4,10.5,36.8,5,40.1,1.7z" style="fill:#E74244" />
		<path d="M99,48.2c-5.9,2.7-11.9,5.5-17.8,8.2c-0.4,0.2-0.8,0.5-1.3,0.5c-1.1,0.1-2.2-0.3-3.3-0.4c-4.1-0.5-8.2-0.9-12.3-1.4c-3-0.3-5.9-0.7-8.9-1c0.8,6.6,1.6,13.2,2.4,19.7c0.2,1.3,0.3,2.7,0.5,4c0.1,0.5,0.1,0.7-0.1,1.1c-1.5,3.2-3,6.3-4.4,9.5c-1.4,3-2.8,5.9-4.1,8.9c-2-3.5-4-7.1-6-10.6c-1.2-2-2.3-4.1-3.5-6.1c-0.4-0.7-0.8-1.1-0.7-1.9c0.2-4.4,0.4-8.9,0.6-13.3c0.1-2.7,0.2-5.4,0.4-8.1c0-1,0.1-1.9,0.1-2.9c0-0.5,0.2-1.3,0.1-1.8c-0.1-0.4,0-0.3-0.6-0.3c-1.2-0.1-2.5-0.3-3.7-0.4c-2.3-0.3-4.6-0.5-6.9-0.8c0,0.8-0.1,1.6-0.1,2.4c0,0.3,0.1,1-0.1,1.2c-0.2,0.2,0.1,0-0.2,0.1c-0.3,0.1-0.8,0-1.1,0c-0.5,0-1.1,0-1.6-0.1c-0.7,0-1.4,0-2.2-0.1c0.1-1.9,0.2-3.9,0.3-5.8c-1.5,0-2.9-0.1-4.4-0.1c-0.9,0-1.9-0.1-2.8-0.1c-0.8,0-0.9-0.1-1.4,0.5C13.6,51.7,9.9,52.4,7,51c-2.6-1.2-4.2-4-3.6-6.8c0.7-3.4,4.2-5.4,7.5-5.2c1.6,0.1,3.1,0.6,4.3,1.6c0.3,0.2,0.5,0.5,0.8,0.8c0.2,0.2,0.4,0.7,0.6,0.9c0.2,0.1,0.2,0.1,0.4,0.1c1.8,0.3,3.7,0.1,5.5,0.2c0.5,0,1.7,0.3,2.2,0.1c0.1,0,0.2,0,0.2,0c0.1-0.1,0-0.6,0-0.7c0.1-1.1,0.1-2.2,0.2-3.3c0-0.3-0.1-1.6,0.2-1.7c0.2-0.1,0.8,0,1,0c0.6,0,1.1,0,1.7,0.1c0.8,0,1.6,0.1,2.4,0.1c-0.1,1.3-0.1,2.6-0.2,3.8c3.4-0.2,6.7-0.3,10.1-0.5c0.2,0,0.9,0.1,1.1-0.1c0.1-0.2,0-1,0.1-1.2c0.1-2,0.2-4,0.3-6c0.1-1.6,0.1-3.1,0.2-4.7c-0.8,0-1.7,0.1-2.5,0.1c-0.3,0-0.9,0.2-1.2,0c-0.3-0.1-0.1,0.1-0.2-0.3c-0.3-0.8-0.1-2.1-0.1-3c0-0.3-0.3-1.7-0.1-1.9c0.2-0.3,1.9-0.1,2.3-0.1c1.1,0,2.1-0.1,3.2-0.1c0.6,0,0.5,0,0.5-0.5c0-0.9-0.1-1.9-0.1-2.8c0-1.1-0.1-2.2-0.1-3.3c0-0.4,0.1-1.3-0.1-1.6c-0.1-0.2-0.8-0.5-1-0.7c-0.3-0.2-0.5-0.5-0.8-0.8c-0.6-0.7-1-1.5-1.3-2.4c-0.6-1.7-0.5-3.5,0.1-5.1c1.3-3.3,5.1-5.3,8.4-3.8c3.1,1.4,4.7,5,3.9,8.3c-0.2,1-0.6,1.9-1.2,2.7c-0.3,0.4-0.6,0.8-1,1.1c-0.2,0.1-0.5,0.3-0.6,0.5c-0.2,0.6,0.1,1.7,0.1,2.3c0.1,2,0.2,3.9,0.2,5.9c0.9,0,1.8-0.1,2.7-0.1c0.7,0,1.3-0.1,2-0.1c0.2,0,1-0.2,1.2,0c0.3,0.2,0.1,1.8,0.2,2.2c0,1,0.1,2,0.1,3c-1.3,0-2.6,0.1-3.8,0.1c0.2,1.9,0.5,3.8,0.7,5.7c0.2,1.3,0.3,2.7,0.5,4c0,0.3,0,1.8,0.2,2.1c0.1,0.1,0.6,0,0.7,0c0.7,0,1.5-0.1,2.2-0.1c2.5-0.1,4.9-0.2,7.4-0.4c5.1-0.2,10.1-0.5,15.2-0.7c0.7,0,1.4-0.2,2.1,0.1c1.7,0.7,3.3,1.9,5,2.7C90.6,43.6,94.8,45.9,99,48.2M109.6,48.6c-7-3.9-14-7.7-21-11.6c-1.6-0.9-3.3-1.8-4.9-2.7c-0.4-0.2-0.9-0.6-1.4-0.8c-0.5-0.1-1.1,0-1.6,0c-4.3,0.2-8.5,0.4-12.8,0.6c-2.7,0.1-5.4,0.3-8,0.4c-0.4,0-1.5,0.3-1.8,0.1c-0.4-0.2-0.3-1.7-0.4-2.2c1.1,0,2.3-0.1,3.4-0.1c-0.2-4.4-0.3-8.7-0.5-13.1c0-0.2,0.1-1.4-0.1-1.6c-0.1-0.1-0.7,0-0.9,0c-1.3,0.1-2.6,0.1-3.9,0.2c-0.3,0-1,0.2-1.2,0c-0.1-0.1-0.1-0.8,0-0.9c0.1-0.5,0.5-0.8,0.8-1.3c1.5-2.2,2.2-4.8,2.1-7.4c-0.2-5.1-3.6-9.8-8.7-11.1C43.6-4.3,38.2-1.4,36,3.4c-1.1,2.4-1.4,5-0.9,7.6c0.2,1.1,0.6,2.2,1.1,3.3c0.3,0.6,0.6,1.1,1,1.6c0.3,0.4,1,1,1.2,1.4c0.1,0.3,0.1,1.1-0.1,1.2c-0.3,0.2-1,0-1.4,0.1c-1.3,0-2.8-0.1-4.1,0.2c-0.5,0.1-0.4,0-0.3,0.6c0,0.8,0.1,1.6,0.1,2.4c0,1,0.1,2,0.1,3c0.1,2.5,0.2,5.1,0.3,7.6c-2.7-0.1-5.4-0.2-8.1-0.3c-0.9,0-1.8-0.1-2.7-0.1c-0.3,0-1.6-0.2-1.8,0c-0.3,0.3-0.1,1.9-0.1,2.3c0,0.8-0.1,1.5-0.1,2.3c0,0.3,0,0.6,0,0.9c-0.1,0.4-0.1,0.3-0.6,0.3c-0.6,0-0.7,0-1.2-0.5c-0.6-0.6-1.4-1.1-2.1-1.5c-3-1.7-6.7-2-9.9-0.9C-0.4,37-3.9,45.2,0.3,51.4c2.1,3.1,5.8,5,9.5,5.1c2,0.1,4-0.4,5.9-1.2c0.9-0.4,1.6-1.2,2.4-1.6c0.4-0.2,0.9-0.1,1.3-0.1c-0.1,1.9-0.2,3.9-0.3,5.8c2.3,0.1,4.6,0.2,7,0.2c1.1,0,2.2,0.1,3.3,0.1c0.7,0,1.4,0,2.1,0.1c0.5,0,1.6,0.3,2.1,0.1c0.4-0.2,0.2-0.7,0.3-1.2c0-0.7,0.1-1.4,0.1-2.2c0.5,0.1,1.5,0,1.7,0.3c0.2,0.3-0.1,1.2-0.1,1.6c-0.1,2.3-0.2,4.5-0.3,6.8c-0.2,4.5-0.4,8.9-0.6,13.4c0,0.5-0.1,0.9-0.1,1.4c0,0.7,0.4,1.1,0.7,1.7c0.8,1.3,1.5,2.7,2.3,4c2.4,4.3,4.8,8.6,7.3,12.8c1.7,3.1,3.5,6.2,5.2,9.2c2.9-6.2,5.7-12.3,8.6-18.5c1.4-2.9,2.7-5.9,4.1-8.8c0.2-0.4,0.5-0.8,0.6-1.2c0.1-0.4-0.1-0.9-0.1-1.3c0-0.3-0.1-0.6-0.1-0.9c-0.2-1.8-0.4-3.7-0.7-5.5c-0.5-4-1-8.1-1.5-12.1c3.5,0.4,6.9,0.8,10.4,1.2c2.1,0.2,4.3,0.5,6.4,0.7c0.9,0.1,2.3,0.5,3.1,0.3c0.8-0.1,2.1-1,2.9-1.3c1.9-0.9,3.8-1.7,5.7-2.6c3.7-1.7,7.4-3.4,11.1-5.1C103.6,51.4,106.6,50,109.6,48.6z M36.7,33.2c0,0.6,0.1,1.7-0.1,2.2c-0.1,0.3,0,0.1-0.4,0.2c-0.3,0.1-0.7,0-1.1,0.1c0-0.6-0.1-1.6,0.1-2.2c0.2-0.4-0.1-0.1,0.3-0.3C35.8,33.2,36.3,33.3,36.7,33.2z" style="fill:#FFFFFF" />
	</svg>
</svg>