<?xml version="1.0" encoding="UTF-8"?>
<svg width="4096" height="4096" version="1.1" xmlns="http://www.w3.org/2000/svg" xmlns:cc="http://creativecommons.org/ns#" xmlns:dc="http://purl.org/dc/elements/1.1/" xmlns:rdf="http://www.w3.org/1999/02/22-rdf-syntax-ns#">
 <metadata>
  <rdf:RDF>
   <cc:Work rdf:about="">
    <dc:format>image/svg+xml</dc:format>
    <dc:type rdf:resource="http://purl.org/dc/dcmitype/StillImage"/>
    <dc:title/>
   </cc:Work>
  </rdf:RDF>
 </metadata>
 <svg width="1024" height="1024" preserveAspectRatio="xMinYMid meet" version="1.1" viewBox="0 0 131 131">
  <path d="m0.2 21.5h0.2v5.8h-0.1-0.1v-5.8z" fill="#E7F0FD"/>
  <path d="m0.4 27.2v-5.8c0.2-3.6 0.4-7.1 0.5-10.7 0.1-5.3 3.8-9.2 9.4-9.6 19.8-1.1 39.5 0.1 58.8 4.7 11.2 2.7 21.9 6.7 31.7 12.9 11.7 7.4 20.5 17.2 25.6 30.2 8.6 21.6 3.3 47.4-13.1 63.9-7 7-15.1 12.3-24.6 15.1-23 6.7-43.5 1.8-60.8-14.9-8.7-8.4-14.2-18.8-18.3-30.1-3.8-10.4-6.1-21.1-7.5-32-1-7.9-1.5-15.7-1.7-23.7zm15.7 45.5c0.2 13.5 5.1 26.3 15.2 37 11.7 12.3 26.3 17.8 43 17.1 13.5-0.6 25.4-5.9 35.2-15.4 11.2-10.8 16.9-24.1 16.9-39.7 0-15.2-5.4-28.3-16-39-11.4-11.5-25.5-16.9-41.5-16.3-14.7 0.6-27.7 6.5-37.8 17.4-9.9 10.6-14.8 23.3-15 38.9z" fill="#294068"/>
  <path d="m16.1 72.7c0.1-15.6 5.1-28.3 14.9-38.9 10.2-11 23.1-16.8 37.9-17.4 15.9-0.6 30.1 4.7 41.5 16.2 10.7 10.8 16.1 23.9 16 39 0 15.6-5.8 28.9-16.9 39.7-9.8 9.5-21.7 14.8-35.2 15.4-16.7 0.7-31.3-4.8-42.9-17.1-10.2-10.6-15.1-23.4-15.3-36.9zm91.3-32c0.6-0.6 0.8-1.4 0.7-2.2-0.4-2.4-1-4.6-2.3-6.7-1.7-2.8-4.2-3.9-7.3-3.6-1.5 0.1-3 0.6-4.4 1.3-4 2-7.5 4.5-10.8 7.5-0.7 0.7-1.1 0.6-1.7-0.1-2.8-3.2-5.7-6.1-8.6-9.2-2.2-2.3-3.1-1.3-4.8-0.1l-0.6 0.6c-3.3 3.1-6.2 6.6-9.4 9.8-1.7 1.7-3.3 3.4-4.7 5.3-1 1.4-1 2.1-0.1 3.6 1 1.7 2.6 2.8 4.1 4 0.4 0.3 0.8 0.6 0.2 1.1-1.7 1.4-3 3.2-4.5 4.8-0.5 0.5-0.7 0.5-1.1 0-0.8-1-1.6-2.1-2.6-3-2.3-2.1-4.5-3-6.9-0.3-4.7 5.1-9.4 10.2-14 15.3-1 1.1-0.8 2.7 0.4 3.9 2.9 3 5.7 6 8.6 9 0.6 0.6 0.5 1 0 1.5-1.6 1.6-3.2 3.2-4.6 4.9-3 3.9-5.6 7.9-5.2 13.3 0.3 4.2 4.3 8.8 10.1 7.8 1.3-0.2 2.5-0.9 3.5-2-3.5-0.6-5.7-3-5.4-5.9 0.2-2.3 2-3.8 3.8-5 3.1-2 6.6-3.1 10.4-2.6 2.9 0.4 5.9 0.7 8.6 2 0.8 0.4 1.1 0.6 0.3 1.4-1 0.9-2 2-3 3-1.2 1.3-2.5 2.6-3.2 4.2-2.5 6.4-1.4 10.6 3.7 15.6 0.2 0.2 0.4 0.4 0.6 0.3 0.3-0.1 0.1-0.4 0.1-0.6 0-0.3-0.1-0.6-0.1-0.8 0-2.3 0.2-4.6 1.5-6.7 2.6-4.1 6.4-5.6 11-5.5 1.3 0 2.7 0.1 3.9 0.9 2.1 1.4 4.2 2.7 6.2 4.1 1.2 0.9 2.2 0.9 3.4 0 0.3-0.3 0.7-0.5 1-0.8 3.5-3 6.5-6.5 9.7-9.8 4.8-4.8 9.6-9.6 14.2-14.6 1.5-1.6 3.2-3 4.3-5 0.4-0.7 0.5-1.3-0.1-1.9-0.9-0.9-1.7-1.9-2.6-2.8-2.5-2.5-3.7-5.5-3.3-9.1 0.5-4.8 3.2-8.1 7.4-10.2 1.8-0.9 3.7-0.9 5.4 0.2 0.3 0.2 0.6 0.4 1 0.3-1-3.4-5.4-6.8-8.8-6.7-2.1 0-4.1 0.5-6 1.4-2.8 1.4-5.1 3.5-7.6 5.4-1.2 0.9-1.2 0.9-1.7-0.5-1.6-4.1-1.7-8.3-0.9-12.5 0.6-3.3 2-6.2 4.9-8.3 2.3-1.6 5-1.2 6.6 1.1 0.4 0.9 0.6 1.8 0.7 2.9z" fill="#E7F0FD"/>
  <path d="m107.4 40.7c-0.1-1.1-0.3-2-0.9-2.9-1.5-2.3-4.3-2.7-6.6-1.1-2.9 2-4.2 5-4.9 8.3-0.8 4.2-0.6 8.4 0.9 12.5 0.5 1.4 0.5 1.4 1.7 0.5 2.5-1.9 4.8-4 7.6-5.4 1.9-0.9 3.9-1.4 6-1.4 3.4-0.1 7.8 3.3 8.8 6.7-0.4 0.1-0.7-0.1-1-0.3-1.8-1.1-3.6-1.2-5.4-0.2-4.2 2.2-6.8 5.5-7.4 10.2-0.4 3.5 0.8 6.6 3.3 9.1 0.9 0.9 1.8 1.8 2.6 2.8 0.6 0.6 0.4 1.2 0.1 1.9-1.1 2-2.8 3.4-4.3 5-4.6 5-9.4 9.8-14.2 14.6-3.3 3.2-6.2 6.8-9.7 9.8-0.3 0.3-0.7 0.6-1 0.8-1.1 0.9-2.2 0.8-3.4 0-2-1.5-4.1-2.8-6.2-4.1-1.2-0.8-2.6-0.9-3.9-0.9-4.6-0.1-8.4 1.4-11 5.5-1.3 2.1-1.5 4.3-1.5 6.7 0 0.3 0.1 0.6 0.1 0.8s0.2 0.5-0.1 0.6-0.5-0.1-0.6-0.3c-5.1-5-6.2-9.2-3.7-15.6 0.6-1.6 2-2.9 3.2-4.2 1-1 1.9-2.1 3-3 0.8-0.7 0.5-1-0.3-1.4-2.7-1.4-5.6-1.6-8.6-2-3.8-0.5-7.2 0.6-10.4 2.6-1.8 1.1-3.6 2.6-3.8 5-0.2 2.9 2 5.3 5.4 5.9-1 1.1-2.1 1.8-3.5 2-5.8 1-9.8-3.6-10.1-7.8-0.2-5.4 2.4-9.4 5.5-13.3 1.4-1.7 3-3.3 4.6-4.9 0.6-0.6 0.6-0.9 0-1.5-2.9-3-5.8-6-8.6-9-1.2-1.2-1.3-2.8-0.4-3.9 4.6-5.1 9.3-10.2 14-15.3 2.5-2.6 4.6-1.8 6.9 0.3 1 0.9 1.8 1.9 2.6 3 0.4 0.5 0.6 0.5 1.1 0 1.5-1.6 2.8-3.4 4.5-4.8 0.6-0.5 0.2-0.8-0.2-1.1-1.5-1.2-3.1-2.3-4.1-4-0.9-1.5-1-2.2 0.1-3.6 1.4-1.9 3-3.6 4.7-5.3 3.2-3.2 6.1-6.7 9.4-9.8l0.6-0.6c1.7-1.2 2.6-2.1 4.8 0.1 2.9 3 5.9 6 8.6 9.2 0.6 0.7 1 0.8 1.7 0.1 3.3-3 6.8-5.5 10.8-7.5 1.4-0.7 2.8-1.1 4.4-1.3 3.1-0.3 5.6 0.8 7.3 3.6 1.3 2.1 2 4.4 2.3 6.7 0 0.8-0.2 1.5-0.8 2.2zm-3.4-7.3c-1-1.6-3.3-2.3-5.2-1.4-3 1.3-5.9 2.8-8.6 4.8s-4.9 4.5-7.2 7c-5 5.4-10.5 10.3-15.6 15.6-4.7 5-9.6 9.9-14.4 14.8-4.7 4.7-9.8 9-14.3 13.9-2.5 2.8-4.7 5.9-6.5 9.2-1.3 2.6-1.1 5.1 0.5 7.5 0.2 0.3 0.4 0.7 0.9 0.5-1.3-3.2-1.5-6.1 1-8.8 3.5-3.8 8.1-5.1 13-5.7h0.1c4.6 0.1 9 1.3 13.3 3 0.8 0.3 1.3 0.3 1.9-0.3 2.2-2.5 4.5-5 6.8-7.4 7.6-8 15.2-16.1 23.2-23.7 0.5-0.5 0.5-0.8 0.2-1.3-0.4-0.8-0.8-1.7-1-2.6-1.2-4.3-1.5-8.6-0.7-12.9 0.8-4.6 2.8-8.6 6.9-11.4 1.8-1.4 3.5-2 5.7-0.8zm9.7 21.4c-1.3-0.8-2.6-0.4-3.8 0-1.7 0.5-3.2 1.3-4.6 2.3-2.3 1.7-4.5 3.5-6.5 5.5-6.6 6.2-12.8 12.7-19.2 19.1-7.1 7.1-14 14.4-21.1 21.5-2.1 2.1-3 4.8-3.4 7.8 0.6-0.2 0.7-0.5 0.9-0.8 0.4-0.8 1-1.5 1.5-2.1 4.6-5.2 14.1-5.9 19.4-3.4 0.5 0.2 0.7 0.4 1.2-0.1 4.1-4.4 8.3-8.8 12.3-13.3 4.3-4.9 8.7-9.7 13.6-14 0.4-0.3 0.6-0.6 0.4-1.2-1.9-4.5-1.8-9-0.1-13.4 1.7-4.2 4.8-7 9.4-7.9zm-51-3.6c-0.2 1.3-0.8 2.5-1.7 3.6-1.2 1.6-2.8 2.9-4 4.5-1.9 2.4-5.4 2.7-7.7 0.6-1.1-1-2.1-2-2.9-3.2-0.7-1-1-0.6-1.5 0.1-1.1 1.5-2.4 2.9-3.7 4.2-3.1 3.1-6.1 6.3-9.2 9.4-0.4 0.5-0.5 0.7 0 1.1 2.9 2.4 5.3 5.2 7.7 8 0.5 0.5 0.7 0.7 1.3 0.1 2.1-2.1 4.3-4 6.3-6.1 6.9-7.3 14.1-14.4 20.7-22 3.4-3.9 7.3-7.4 11.1-10.9 0.4-0.4 0.8-0.6 0.2-1.2-2.8-2.7-5.4-5.6-8.3-8.2-0.4-0.2-0.6-0.2-1 0.3-1 1.3-2 2.6-3.2 3.8-2.7 2.9-5.9 5.3-8.5 8.3-0.8 0.9-0.7 1.3 0.1 2.1 1.3 1.2 2.4 2.6 3.7 4 0.4 0.3 0.6 0.8 0.6 1.5zm19.8 58.1 0.6-0.6c2-2 3.8-4.1 5.7-6.2 3.2-3.5 6.8-6.7 10.1-10.2 2.8-3 5.8-6 8.6-9 0.5-0.6 1.3-1.1 1.5-1.8 0.1-0.7-1-1.2-1.4-1.8-0.1-0.1-0.2-0.2-0.3-0.4-0.3-0.6-0.6-0.5-1.1-0.1-1.7 1.9-3.4 3.7-5.2 5.5-6.5 7-12.9 14.2-20 20.7-1.5 1.4-1.5 1.4 0 2.7 0.6 0.4 1 0.8 1.5 1.2z" fill="#294068"/>
  <g fill="#E7F0FD">
   <path d="m104 33.4c-2.2-1.2-3.9-0.6-5.6 0.5-4 2.7-6 6.8-6.9 11.4-0.8 4.3-0.4 8.7 0.7 12.9 0.2 0.9 0.6 1.7 1 2.6 0.3 0.5 0.3 0.9-0.2 1.3-8 7.6-15.6 15.7-23.2 23.7-2.3 2.4-4.6 4.9-6.8 7.4-0.6 0.7-1.1 0.6-1.9 0.3-4.3-1.7-8.6-2.8-13.3-3h-0.1c-4.9 0.6-9.5 1.9-13 5.7-2.5 2.7-2.3 5.6-1 8.8-0.5 0.2-0.7-0.2-0.9-0.5-1.6-2.4-1.9-4.9-0.5-7.5 1.8-3.3 3.9-6.4 6.5-9.2 4.5-4.9 9.6-9.1 14.3-13.9 4.8-4.9 9.6-9.8 14.4-14.8 5.1-5.3 10.6-10.2 15.6-15.6 2.3-2.5 4.5-5 7.2-7 2.6-2 5.6-3.5 8.6-4.8 1.9-0.6 4.2 0.1 5.1 1.7z"/>
   <path d="m113.7 54.8c-4.6 0.9-7.7 3.7-9.4 7.9-1.7 4.4-1.9 9 0.1 13.4 0.3 0.6 0 0.9-0.4 1.2-4.9 4.3-9.3 9.2-13.6 14-4 4.5-8.2 8.8-12.3 13.3-0.5 0.5-0.7 0.3-1.2 0.1-5.3-2.5-14.8-1.8-19.4 3.4-0.6 0.7-1.1 1.3-1.5 2.1-0.2 0.3-0.3 0.6-0.9 0.8 0.4-3 1.3-5.6 3.4-7.8 7.1-7.1 14-14.4 21.1-21.5 6.4-6.4 12.6-13 19.2-19.2 2.1-2 4.2-3.8 6.5-5.5 1.4-1 2.9-1.8 4.6-2.3 1.2-0.3 2.5-0.7 3.8 0.1z"/>
   <path d="m62.7 51.2c0-0.7-0.2-1.2-0.6-1.6-1.2-1.3-2.4-2.7-3.7-4-0.8-0.8-0.8-1.2-0.1-2.1 2.6-3 5.8-5.4 8.5-8.3 1.1-1.2 2.1-2.5 3.2-3.8 0.4-0.5 0.6-0.5 1.1-0.1 2.9 2.6 5.5 5.5 8.3 8.2 0.6 0.6 0.2 0.8-0.2 1.2-3.8 3.5-7.7 7-11.1 10.9-6.7 7.6-13.8 14.7-20.7 22-2 2.1-4.2 4-6.3 6.1-0.6 0.6-0.8 0.4-1.3-0.1-2.4-2.8-4.9-5.6-7.7-8-0.5-0.4-0.5-0.7 0-1.1 3.1-3.1 6.1-6.3 9.2-9.4 1.3-1.3 2.6-2.7 3.7-4.2 0.5-0.7 0.8-1 1.5-0.1 0.8 1.2 1.9 2.2 2.9 3.2 2.3 2.1 5.8 1.9 7.7-0.6 1.2-1.6 2.8-2.9 4-4.5 0.8-1.2 1.4-2.4 1.6-3.7z"/>
   <path d="m82.5 109.3c-0.5-0.4-0.9-0.8-1.3-1.2-1.5-1.3-1.5-1.3 0-2.7 7.1-6.5 13.5-13.6 20-20.7 1.7-1.8 3.5-3.7 5.2-5.5 0.4-0.5 0.7-0.6 1.1 0.1 0.1 0.1 0.2 0.2 0.3 0.4 0.4 0.7 1.5 1.1 1.4 1.8s-0.9 1.2-1.5 1.8c-2.9 3-5.8 6-8.6 9-3.3 3.5-6.9 6.6-10.1 10.2-1.9 2.1-3.7 4.2-5.7 6.2-0.3 0.2-0.6 0.4-0.8 0.6z"/>
  </g>
 </svg>
 <svg x="1024" width="1024" height="1024" preserveAspectRatio="xMinYMid meet" version="1.1" viewBox="0 0 155 155">
  <path d="m29.3 0.9c19.5 0 38.7 1.9 57.5 7.2 12.7 3.6 24.7 8.5 35.6 16.1 15.7 11 26.4 25.5 30.1 44.4 5.3 27.3-2.7 50.4-23.4 68.9-7.7 6.8-16.6 11.5-26.5 14.2-22.2 5.9-42.8 2.3-61.5-11.2-9.8-7.1-17-16.5-22.7-27-6.5-12-10.6-24.7-13.3-37.8-3.5-16.6-4.7-33.3-4.6-50.2 0.1-4.8 0.2-9.7 0.7-14.5 0.4-4.8 5.1-9.3 10.2-9.6 3-0.2 6-0.4 8.9-0.5h9zm52.6 18.4c-15.3 0.3-30.6 6.2-43.1 18.5-14.4 14.2-21 31.6-19.6 51.9 2.3 31.7 28.5 60.1 65.4 60 36.8-0.1 66.8-31.2 64.6-69.1-1.7-32.7-28.6-61.2-67.3-61.3z" fill="#ED3941"/>
  <path d="m81.9 19.3c38.6 0.1 65.5 28.6 67.4 61.2 2.2 38-27.8 69-64.6 69.1-36.9 0.1-63.2-28.3-65.4-60-1.5-20.2 5.1-37.6 19.5-51.8 12.6-12.3 27.9-18.2 43.1-18.5zm-61.3 63.3v7.8c0 0.7 0.2 1 0.9 0.9 2.7-0.4 5.4 0 8.1 0.2 0.6 0.1 0.8-0.1 0.8-0.7 0-0.3 0.1-0.6 0-0.8-0.1-1.2 0.4-1.6 1.5-1.4 2.7 0.3 5.3 0.3 8 0.2 0.8 0 0.9 0.3 0.9 1-0.1 1.5-0.1 3-0.1 4.6-0.1 1 0.3 1.5 1.4 1.6 1.6 0.1 3.2 0.2 4.7 0.4 1.2 0.2 1.9-0.3 2.4-1.1 1.3-2 2.7-3.9 4-5.9 0.5-0.8 1.1-1 1.9-0.9 1.9 0.2 3.8 0.4 5.7 0.7 3.2 0.4 6.3 1.5 9.6 1.6 0.8 0 1.2 0.4 1.2 1.3 0 3.9-0.1 7.8-0.3 11.7-0.2 3.8 0.2 7.6 0.2 11.4 0 3.2-0.4 6.5 0.1 9.7 0.1 0.4 0.1 0.8 0.5 1.2 1.4 1.6 2.7 3.2 4.1 4.8 2.4 2.9 4.6 6 6.8 9.1 1.2 1.8 2.6 3.6 3.9 5.3 1 1.4 1.5 1.3 2.2-0.2 3.5-8.6 7.5-16.9 11.3-25.4 0.2-0.5 0.3-1 0.2-1.6-1.6-7.5-3.2-15.1-4.9-22.6-0.2-1 0-1.2 1-1 2.7 0.5 5.5 1 8.3 1.4 5 0.6 9.8 1.6 14.7 2.6 1.2 0.2 2.3 1 3.5 0 0.7-0.6 1.6-0.9 2.4-1.2 5.2-2.2 10.2-4.8 15.4-6.8 2.1-0.8 4.1-1.7 6.2-2.6 0.8-0.4 1.1-0.9 0.5-1.7-0.5-0.7-0.9-1.4-1.6-1.9-2.5-2.1-5-4.2-7.6-6.2l-9-7.2c-0.8-0.7-1.6-1.4-2.9-1.1-1.8 0.4-3.7 0.4-5.6 0.7-3.2 0.4-6.4 0.2-9.6 0.5-6.8 0.7-13.5 1.3-20.3 1.9-0.7 0.1-0.9-0.2-1-0.8-1.2-5.1-2.4-10.1-3.5-15.2-0.5-2.2-0.4-2.4 1.5-3.6 0.1-0.1 0.2-0.1 0.3-0.2 1.8-1.1 3.6-2.3 5.1-3.8 0.4-0.4 0.6-0.8 0.5-1.4-0.2-2-0.5-4-1-5.9-0.2-0.6-0.4-0.9-1.1-0.8-2.2 0.3-4.4 0.6-6.6 1-0.8 0.1-1 0-1.2-0.8-0.5-2.9-1-5.9-1.6-8.8-0.2-0.9 0-1.2 0.9-1.3 1.2-0.2 1.6-0.8 1.3-1.8-0.7-2.2-0.9-4.4-1.1-6.6-0.1-1.1-0.6-1.3-1.5-1.1-4.6 1.1-9.3 1.9-13.9 3.1-1.2 0.1-1.4 0.7-1.2 1.6 0.4 1.9 0.8 3.8 1 5.8 0.2 1.6 0.8 2 2.3 1.6 0.9-0.2 1.1 0.1 1.1 0.8 0.1 2.8 0.6 5.5 1 8.3 0.1 0.9 0 1.2-0.9 1.3-2.4 0.4-4.9 0.9-7.3 1.3-0.8 0.1-1.2 0.4-1.2 1.3 0.2 2.2 0.3 4.5 0.4 6.7 0 0.6 0.3 1 1 1.1 2 0.5 3.9 1.1 5.9 1.6 1.8 0.5 1.9 0.4 1.9 2.3 0 4.7 0.2 9.4-0.2 14-0.1 0.9-0.5 1.2-1.3 1.4-1.5 0.4-3.1 0.2-4.6 0.4-3.6 0.4-7.2 0.8-10.8 0.9-0.7 0-1.1-0.2-1.3-0.9-0.7-1.8-1.5-3.6-2.2-5.4-0.3-0.6-0.6-1.5-1.4-1.3-2.5 0.6-5.1 0.5-7.6 0.8-0.6 0.1-0.7 0.3-0.7 0.9-0.1 1.7-0.4 3.5-0.4 5.2 0 0.9-0.5 1.2-1.2 1.2-2.6 0-5.3 0.3-7.9 0.4-1.7 0.1-1.7 0-1.8-1.6 0-0.4-0.1-0.7-0.1-1.1 0-0.5-0.3-0.7-0.8-0.6-2.4 0.1-4.9 0.3-7.3 0.3-1.5 0-1.9 0.6-1.9 2.1-0.1 2.5-0.1 4.9-0.1 7.3z" fill="#FEE0D5"/>
  <path d="m20.6 82.6v-7.3c0-1.5 0.4-2.1 1.9-2.1 2.4 0 4.9-0.2 7.3-0.3 0.5 0 0.8 0.1 0.8 0.6 0 0.4 0.1 0.7 0.1 1.1 0.1 1.7 0.1 1.7 1.8 1.6 2.6-0.2 5.3-0.5 7.9-0.4 0.7 0 1.1-0.3 1.2-1.2 0.1-1.7 0.3-3.5 0.4-5.2 0-0.5 0.1-0.8 0.7-0.9 2.5-0.3 5.1-0.2 7.6-0.8 0.8-0.2 1.1 0.7 1.4 1.3 0.8 1.8 1.5 3.6 2.2 5.4 0.3 0.7 0.6 0.9 1.3 0.9 3.6-0.1 7.2-0.5 10.8-0.9 1.5-0.2 3.1 0 4.6-0.4 0.8-0.2 1.2-0.5 1.3-1.4 0.4-4.7 0.2-9.4 0.2-14 0-1.8-0.1-1.8-1.9-2.3-2-0.5-3.9-1.1-5.9-1.6-0.7-0.2-0.9-0.5-1-1.1-0.1-2.2-0.3-4.5-0.4-6.7-0.1-0.9 0.4-1.2 1.2-1.3 2.4-0.4 4.9-0.9 7.3-1.3 0.9-0.1 1.1-0.5 0.9-1.3-0.5-2.8-0.9-5.5-1-8.3 0-0.7-0.3-1-1.1-0.8-1.5 0.4-2.2 0-2.3-1.6-0.2-2-0.6-3.9-1-5.8-0.2-1 0-1.5 1.2-1.9 4.6-1.2 9.3-2 13.9-3.1 0.9-0.2 1.4 0 1.5 1.1 0.2 2.2 0.4 4.4 1.1 6.6 0.3 1-0.1 1.7-1.3 1.8-0.9 0.1-1.1 0.4-0.9 1.3 0.6 2.9 1.1 5.9 1.6 8.8 0.1 0.8 0.4 0.9 1.2 0.8 2.2-0.4 4.4-0.6 6.6-1 0.7-0.1 0.9 0.2 1.1 0.8 0.5 1.9 0.8 3.9 1 5.9 0.1 0.6-0.1 1-0.5 1.4-1.5 1.5-3.3 2.6-5.1 3.8-0.1 0.1-0.2 0.1-0.3 0.2-1.9 1.2-2 1.4-1.5 3.6 1.2 5.1 2.4 10.1 3.5 15.2 0.1 0.6 0.3 0.9 1 0.8 6.8-0.7 13.5-1.3 20.3-1.9 3.2-0.3 6.4 0 9.6-0.5 1.9-0.3 3.7-0.3 5.6-0.7 1.3-0.2 2 0.5 2.9 1.1 3 2.4 6 4.7 9 7.2 2.5 2.1 5 4.2 7.6 6.2 0.7 0.5 1.1 1.3 1.6 1.9 0.6 0.8 0.3 1.3-0.5 1.7-2 0.9-4.1 1.8-6.2 2.6-5.2 2-10.2 4.6-15.4 6.8-0.8 0.4-1.7 0.6-2.4 1.2-1.2 1-2.4 0.3-3.5 0-4.9-1-9.8-1.9-14.7-2.6-2.8-0.3-5.5-0.9-8.3-1.4-1-0.2-1.2 0-1 1 1.6 7.5 3.2 15.1 4.9 22.6 0.1 0.6 0 1.1-0.2 1.6-3.8 8.5-7.8 16.8-11.3 25.4-0.6 1.5-1.2 1.6-2.2 0.2-1.3-1.7-2.6-3.5-3.9-5.3-2.2-3.1-4.3-6.2-6.8-9.1-1.4-1.6-2.7-3.3-4.1-4.8-0.3-0.4-0.4-0.7-0.5-1.2-0.5-3.2-0.1-6.5-0.1-9.7 0-3.8-0.3-7.6-0.2-11.4 0.2-3.9 0.3-7.8 0.3-11.7 0-1-0.4-1.3-1.2-1.3-3.3-0.1-6.4-1.1-9.6-1.6-1.9-0.3-3.8-0.5-5.7-0.7-0.8-0.1-1.4 0.1-1.9 0.9-1.2 2-2.6 4-4 5.9-0.6 0.8-1.3 1.3-2.4 1.1-1.6-0.3-3.2-0.4-4.7-0.4-1.1 0-1.5-0.6-1.4-1.6 0.1-1.5 0.1-3 0.1-4.6 0-0.7-0.1-1-0.9-1-2.7 0.1-5.4 0.1-8-0.2-1.1-0.1-1.6 0.3-1.5 1.4v0.8c0 0.5-0.2 0.7-0.8 0.7-2.7-0.2-5.4-0.6-8.1-0.2-0.7 0.1-0.9-0.3-0.9-0.9 0.1-2.3 0.1-4.9 0.1-7.5zm66.7 58.6c2.9-4.6 4.9-9.5 6.7-14.4 0.6-1.7 1.5-3.3 1.8-5.2 0.5-3.7-0.2-7.4-0.8-11.1-1-6.5-2.4-13-3.8-19.5-2.3-10.8-4.7-21.6-7.5-32.3-0.6-2.5-0.9-2.6-2.9-0.9-0.9 0.7-1.8 1.3-3 0.6-0.8-0.5-1.3-0.2-1.2 0.8 0.1 3.1-0.3 6.1-0.4 9.2-0.1 4.3-0.2 8.5-0.3 12.8-0.1 3-0.3 6.1-0.2 9.1 0 1.2-0.1 2.5-0.2 3.7-0.5 5.4-1.3 10.7-1.1 16.1 0.1 2.1 0.2 4.2 0.2 6.2 0.1 6.4 2.4 11.9 6.3 16.8 2.1 2.7 4.2 5.4 6.4 8.1zm37.6-57.8c-0.1 0.4-0.2 0.4-0.4 0.4-4.2 0.2-8.4 0.6-12.6 0.6-6 0-12-0.1-18-0.2-0.5 0-1-0.1-0.8 0.7 0.4 1.6 0.7 3.1 1.1 4.7 0.1 0.5 0.4 0.6 0.8 0.7 6.2 0.8 12.1 2.6 18.2 3.7 1.9 0.4 3.7 0.8 5.6 1.1 3.4 0.5 6.4-0.9 9.4-2.1 3.8-1.5 7.6-3.2 11.4-4.5 1.2-0.4 2.3-0.9 3.4-1.4 0.6-0.3 1.1-0.4 0.2-1.1-4.4-3.2-8.7-6.6-12.8-10.2-2.3-2-5-2.8-8-2.5-6.7 0.6-13.5 1.1-20.2 1.9-3.3 0.4-6.6 1-9.9 1.2-1 0-1.2 0.4-0.9 1.4 0.4 1.1 0.7 2.2 0.8 3.4 0.1 0.9 0.5 1.2 1.4 1.1 5-0.2 10-0.1 15-0.1 3.4 0 6.7 0.7 10.1 0.9 2.1 0 4.2 0.2 6.2 0.3zm-91.8 2.8c2.1 0.2 4.4-0.5 6.8-0.4 0.6 0 1.1-0.3 1-1v-4.7c0-0.5-0.2-0.7-0.7-0.7-2.9 0-5.7-0.1-8.6-0.1-2.1 0-2.1 0.1-2.2-2v-0.1c0.1-0.8-0.3-1.1-1.1-1-1.3 0.1-2.6 0.3-3.9 0.3-0.9 0-1.1 0.3-1.1 1.2 0.1 3.4 0.1 6.7 0.1 10.1 0 0.6 0.3 0.9 0.9 0.9 1.2 0 2.5 0.1 3.7 0 0.5 0 0.9-0.2 0.9-0.7 0.2-1.8 1.4-1.9 2.8-1.7 0.3-0.1 0.7-0.1 1.4-0.1zm11.1 5.5c0 2-0.3 1.7 1.9 2 0.2 0 0.4 0.1 0.6 0.1 0.6 0.2 0.9 0 1.2-0.6 1.7-3.3 3.5-6.5 5.4-9.7 0.3-0.4 0.3-0.8 0.2-1.3-1-3-2.3-5.8-3.7-8.7-1-2.2-1-2.1-3.3-2-0.7 0-0.9 0.3-1 1-0.8 6.3-1 12.6-1.3 19.2zm21.6-41.9c0 0.4 0.1 0.7 0.1 1.1-0.1 1.3 0.7 1.5 1.7 1.7 1.1 0.2 2.3 0.2 3.4 0.6 2.2 0.7 4.4 1.3 6.5 2 0.6 0.2 1.2 0.1 1.8-0.3 1.4-0.9 2.9-1.9 4.2-2.9 2.2-1.7 4.6-3.1 7-4.6 0.8-0.5 0.5-1.2 0.3-1.8-0.2-0.7-0.7-0.4-1.2-0.4l-4.5 0.9c-6.2 1.1-12.4 2.2-18.7 3-0.5 0-0.8 0.2-0.6 0.7zm1.5 33c-1.4 0.1-2.7 0.3-4.1 0-0.4-0.1-0.7-0.3-0.7-0.7s0.4-0.5 0.7-0.4c1.8 0.3 3.5-0.1 5.3 0 3.7 0.3 3.1 0.5 3.3-3.1 0.1-1-0.3-1.3-1.2-1.2-4 0.5-8.1-0.1-12.1 0.4-0.7 0.1-1.4 0.1-2 0-1-0.2-1 0.3-0.7 1 0.4 0.8 0.7 1.7 1.2 2.5 0.6 1 0.4 1.7-0.2 2.5l-0.6 0.9c-0.7 1.1-0.7 1.1 0.5 1.3 4.7 0.6 9.5 0.8 14.1 1.7 0.6 0.1 0.8-0.1 0.8-0.7 0-1.2-0.1-2.4 0-3.6 0-0.5-0.2-0.7-0.7-0.7-1.2 0.2-2.4 0.1-3.6 0.1zm14.5-56.5c0-1.6-0.2-1.9-1.8-1.5-2.6 0.6-5.2 1.3-7.8 1.9-2.9 0.7-2.8 0.7-2.2 3.6 0.2 0.8 0.3 1 1.2 0.9 3.1-0.3 2.7-0.5 3.2 2.3 0.5 3.2 0.9 6.3 1.2 9.5 0.1 0.6 0.3 0.8 0.9 0.7 1.1-0.2 2.3-0.4 3.4-0.5 0.5-0.1 0.7-0.2 0.6-0.8-0.2-1.2-0.3-2.5-0.5-3.7-0.4-2.6-0.8-5.2-1.3-7.8-0.1-0.7-0.1-1.3 0.8-1.6 2.2-0.7 2.2-0.8 2.3-3z" fill="#ED3941"/>
  <g fill="#FEE0D5">
   <path d="m87.3 141.2c-2.2-2.8-4.3-5.4-6.5-8.1-3.9-4.9-6.2-10.4-6.3-16.8 0-2.1-0.1-4.2-0.2-6.2-0.2-5.4 0.6-10.8 1.1-16.1 0.1-1.2 0.2-2.5 0.2-3.7-0.1-3 0.1-6.1 0.2-9.1 0.2-4.3 0.3-8.5 0.3-12.8 0.1-3.1 0.5-6.1 0.4-9.2 0-0.9 0.4-1.3 1.2-0.8 1.2 0.7 2.1 0.2 3-0.6 2.1-1.7 2.3-1.6 2.9 0.9 2.9 10.7 5.4 21.5 7.6 32.3 1.4 6.5 2.8 13 3.8 19.6 0.6 3.7 1.2 7.3 0.8 11.1-0.2 1.9-1.1 3.5-1.8 5.2-1.8 4.9-3.8 9.7-6.7 14.3zm-5.9-72.2c-0.5 0.3-0.3 0.6-0.3 0.8 0.2 3.5 0.6 7.1 0.7 10.6 0.2 4.9 0.5 9.8 0.9 14.7 0.5 6.2 1.3 12.3 2 18.4 0.6 4.6 1.6 9.2 3.1 13.6-1.1-19.4-3.5-38.8-6.4-58.1z"/>
   <path d="m124.9 83.4c-2-0.1-4.1-0.3-6.1-0.4-3.4-0.2-6.7-0.9-10.1-0.9-5 0-10-0.1-15 0.1-0.9 0-1.3-0.2-1.4-1.1-0.2-1.1-0.5-2.3-0.8-3.4-0.3-1-0.1-1.3 0.9-1.4 3.3-0.2 6.6-0.8 9.9-1.2 6.7-0.8 13.4-1.3 20.2-1.9 3.1-0.3 5.7 0.5 8 2.5 4.1 3.6 8.4 7 12.8 10.2 1 0.7 0.5 0.8-0.2 1.1-1.1 0.5-2.3 1-3.4 1.4-3.9 1.4-7.6 3-11.4 4.5-3 1.2-6 2.6-9.4 2.1-1.9-0.3-3.8-0.7-5.6-1.1-6.1-1.2-12-2.9-18.2-3.7-0.5-0.1-0.7-0.2-0.8-0.7-0.3-1.6-0.7-3.1-1.1-4.7-0.2-0.8 0.3-0.7 0.8-0.7 6 0.1 12 0.3 18 0.2 4.2 0 8.4-0.4 12.6-0.6 0.1 0.1 0.2 0.1 0.3-0.3z"/>
   <path d="m33.1 86.2h-1.5c-1.4-0.2-2.6-0.1-2.8 1.7-0.1 0.5-0.4 0.7-0.9 0.7-1.2 0.1-2.5 0-3.7 0-0.6 0-0.9-0.2-0.9-0.9 0-3.4 0-6.7-0.1-10.1 0-0.9 0.2-1.2 1.1-1.2 1.3 0 2.6-0.1 3.9-0.3 0.8-0.1 1.2 0.2 1.1 1v0.1c0.1 2 0.1 2 2.2 2 2.9 0 5.7 0.1 8.6 0.1 0.5 0 0.7 0.2 0.7 0.7v4.7c0 0.7-0.4 1-1 1-2.3 0-4.6 0.7-6.7 0.5z"/>
   <path d="m44.2 91.7c0.3-6.5 0.6-12.9 1.3-19.2 0.1-0.7 0.3-0.9 1-1 2.3-0.1 2.3-0.2 3.3 2 1.3 2.9 2.6 5.7 3.7 8.7 0.2 0.5 0.1 0.9-0.2 1.3-1.9 3.2-3.7 6.4-5.4 9.7-0.3 0.6-0.6 0.8-1.2 0.6-0.2-0.1-0.4-0.1-0.6-0.1-2.3-0.3-1.9 0-1.9-2z"/>
   <path d="m65.8 49.8c-0.2-0.5 0.1-0.8 0.7-0.8 6.3-0.7 12.5-1.8 18.7-3l4.5-0.9c0.4-0.1 1-0.3 1.2 0.4 0.1 0.6 0.5 1.3-0.3 1.8-2.3 1.5-4.7 2.9-7 4.6-1.4 1-2.8 2-4.2 2.9-0.6 0.4-1.2 0.5-1.8 0.3-2.2-0.6-4.4-1.2-6.5-2-1.1-0.4-2.3-0.4-3.4-0.6-1-0.2-1.8-0.4-1.7-1.7-0.1-0.2-0.2-0.6-0.2-1z"/>
   <path d="m67.3 82.8h3.6c0.5 0 0.7 0.2 0.7 0.7v3.6c0 0.6-0.1 0.8-0.8 0.7-4.7-0.9-9.4-1.1-14.1-1.7-1.3-0.2-1.3-0.2-0.5-1.3l0.6-0.9c0.6-0.8 0.9-1.5 0.2-2.5-0.5-0.7-0.9-1.6-1.2-2.5-0.3-0.7-0.3-1.2 0.7-1 0.7 0.1 1.4 0.1 2 0 4-0.5 8.1 0.1 12.1-0.4 0.9-0.1 1.3 0.2 1.2 1.2-0.2 3.6 0.4 3.4-3.3 3.1-1.7-0.1-3.5 0.3-5.3 0-0.3-0.1-0.7 0.1-0.7 0.4 0 0.4 0.3 0.6 0.7 0.7 1.4 0.2 2.7 0 4.1-0.1z"/>
   <path d="m81.8 26.3c-0.1 2.3 0 2.3-2.2 3-0.9 0.3-0.9 0.9-0.8 1.6 0.4 2.6 0.9 5.2 1.3 7.8 0.2 1.2 0.3 2.5 0.5 3.7 0.1 0.5-0.1 0.7-0.6 0.8-1.1 0.1-2.3 0.3-3.4 0.5-0.6 0.1-0.8-0.1-0.9-0.7-0.4-3.2-0.8-6.3-1.2-9.5-0.4-2.8-0.1-2.6-3.2-2.3-0.9 0.1-1-0.1-1.2-0.9-0.6-2.9-0.6-2.9 2.2-3.6 2.6-0.6 5.2-1.3 7.8-1.9 1.4-0.5 1.7-0.2 1.7 1.5z"/>
  </g>
  <path d="m81.4 69c2.9 19.4 5.3 38.7 6.4 58.2-1.5-4.4-2.5-9-3.1-13.6-0.8-6.1-1.6-12.3-2-18.4-0.4-4.9-0.8-9.8-0.9-14.7-0.1-3.5-0.4-7.1-0.7-10.6 0-0.4-0.2-0.7 0.3-0.9z" fill="#ED3941"/>
 </svg>
 <svg x="2048" width="1024" height="1024" preserveAspectRatio="xMinYMid meet" version="1.1" viewBox="0 0 484 484">
  <path d="m102.7 417.9c-126.2-126.2-100.6-385.5-100.6-385.5 1.5-15.2 15.1-28.8 30.3-30.3 0 0 259.3-25.6 385.5 100.6 87 87 87 228.1 0 315.2-87 87-228.1 87-315.2 0z" fill="#283F68"/>
  <path d="m323.5 354.9-8.1 2.6c-8.1-10.2-17.5-20.9-28.2-32.2-34.6-36.7-60.4-63.5-77.4-80.5-15.9-15.9-30.1-28.8-42.7-38.7-5-3.8-9.4-5.5-13.4-5-3.9 0.5-10.5 4.5-19.8 12.1l-16.7 13.4-10.6-10.6c22.4-20.7 42.4-39.8 60.1-57.5 17.4-17.4 34.5-35.4 51.3-53.9l10.6 10.6-17.4 20.7c-6.9 7.9-10.3 13.5-10.2 17s4.9 10.4 14.5 20.9c14.8 16.3 35.9 38.1 63.2 65.4 19 19 34 33.2 45 42.8 4.1 3.5 8.1 4.9 11.9 4.2 3.9-0.7 9.8-5 17.7-13l16.6-16.6 10.6 10.6c-15.8 20.1-27 35.4-33.7 45.7-6.3 10.2-14.2 24.2-23.3 42z" fill="#fff" stroke="#fff" style="strokeMiterlimit:10;strokeWidth:2"/>
  <path d="m394.6 384.5c-12.2 12.2-31.9 12.2-44.1 0s-12.2-31.9 0-44.1 31.9-12.2 44.1 0 12.2 31.9 0 44.1z" fill="#fff" stroke="#fff" style="strokeMiterlimit:10;strokeWidth:2"/>
 </svg>
 <svg y="1024" width="1024" height="1024" preserveAspectRatio="xMinYMid meet" version="1.1" viewBox="0 0 485 485">
  <path d="M103.1,419.3C-23.5,292.7,2.1,32.5,2.1,32.5C3.6,17.3,17.3,3.6,32.5,2.1c0,0,260.2-25.7,386.8,100.9c87.3,87.3,87.3,228.9,0,316.2C332,506.6,190.4,506.6,103.1,419.3z" fill="#807F7F"/>
  <path d="m118.7 118.7c80.3-80.3 210.8-80.2 291.1 0 80.3 80.3 80.3 210.8 0 291.1s-210.8 80.3-291.1 0c-80.2-80.2-80.2-210.8 0-291.1z" fill="#E5E5E4"/>
  <path d="m172 404.1c-0.1 9.4 5 17.9 13.4 22.2s18.3 3.4 25.9-2.2l67.3-50.2c2.9-2.1 6.6-2.7 10-1.6l79.5 27c8.9 3 18.6 0.8 25.3-5.9s8.9-16.4 5.9-25.3l-27-79.5c-1.2-3.4-0.6-7.1 1.6-10l50.2-67.3c5.6-7.6 6.5-17.5 2.2-25.9s-12.8-13.6-22.2-13.4l-84 1.1c-3.6 0-7-1.7-9-4.6l-48.5-68.5c-4.3-6-10.6-9.7-17.9-10.3-11.3-1-22.3 6.2-25.7 17.2l-24.8 80.1c-1 3.3-3.8 6.1-7.2 7.2l-80.2 24.9c-3.9 1.2-7.3 3.3-10.1 6.1-5.1 5.1-7.7 12.3-7.1 19.6s4.3 13.7 10.3 17.9l68.5 48.5c2.9 2.1 4.6 5.4 4.6 9l-1 83.9z" fill="#807F7F"/>
 </svg>
 <svg x="1124" y="1124" width="1024" height="1024" preserveAspectRatio="xMinYMid meet" version="1.1" viewBox="0 0 115 115">
  <path d="m60.8 30.7-28 28c-0.1 0.1-0.3 0.4-0.5 0.5-0.3 0.1 0.1 0.2-0.4-0.1-0.9-0.6-0.8-0.7-0.3-1.2l27.1-27.1c0.2-0.2 0.8-1 1-1 0.3-0.1 0.9 0.7 1.1 0.9z" fill="#fff"/>
  <path d="m49.8 16-31.4 31.4c-0.3 0.3-0.6 0.8-0.9 0.7-0.2-0.1-0.8-0.7-0.8-0.9 0-0.1 0.4-0.4 0.5-0.5l30.4-30.4c0.2-0.2 0.9-1.1 1.2-1.2 0.2-0.1 0.8 0.7 1 0.9z" fill="#fff"/>
  <path d="m44.3-2.2 26.1 26.1c2.1 2.1 2.8 6 2.8 9-0.1 5.8-2.5 11.5-5.6 16.3-3.8 6.1-9 11.5-14.8 15.7-4.9 3.5-10.6 6.5-16.6 7.2-2.4 0.3-4.8 0.3-7.1-0.4-2.1-0.6-3.7-1.7-5.2-3.2l-3.7-3.7c-5.8-5.7-11.4-11.3-17.1-16.9l-3-3c-0.2-0.2-1.3-1-1.4-1.4 0-0.4 1.6-1.7 1.9-2l31.8-31.8c3.8-3.8 7.6-7.6 11.4-11.3 0.2-0.2 0.4-0.4 0.5-0.6z" fill="#80d0de"/>
  <path d="m58.2 57.3c-4.5 4.5-9.8 8.4-15.7 10.7-4.2 1.7-9.3 2.9-13.7 1.2-2.1-0.8-3.6-2.4-5.1-4l-20.9-20.9c-0.1-0.1-0.9-0.7-0.9-0.9 0-0.1 0.5-0.5 0.6-0.6l18.5-18.5c5.4-5.3 10.6-10.6 15.9-15.9l6.9-6.9c0.1-0.1 0.4-0.5 0.5-0.5 0.2 0 0.8 0.8 1 1l10.3 10.3c4 4 8 7.9 11.9 11.9 1.1 1.1 2.1 2.4 2.7 4 0.7 2 0.8 4.2 0.6 6.2-0.6 5.5-3.2 10.8-6.3 15.3-1.8 2.7-3.9 5.3-6.3 7.6m3.2 3.2c5.5-5.5 10.2-12.2 12.6-19.6 1.1-3.4 1.7-6.9 1.3-10.5-0.2-1.6-0.5-3.1-1.2-4.5-0.1-0.3-0.3-0.6-0.4-0.9 0-0.1-0.2-0.2-0.2-0.4 0-0.1 0.3-0.2 0.3-0.3 0-0.2-0.2-0.4-0.4-0.6-4.2-4.3-8.5-8.6-12.8-12.8l-15.2-15.2c-0.3-0.3-0.8-1-1.2-0.9-0.2 0.1-0.6 0.6-0.8 0.8l-46.3 46.3c-0.2 0.2-1.6 1.3-1.6 1.6s1.4 1.4 1.7 1.7l27.7 27.7c0.4 0.4 0.2 0.2 0.5 0.2 0.1 0 0.1-0.2 0.2-0.2s0.4 0.2 0.5 0.2c0.3 0.2 0.7 0.3 1.1 0.5 1.5 0.6 3 0.9 4.6 1.1 7.3 0.7 14.6-2.5 20.5-6.4 3.2-2.4 6.3-5 9.1-7.8z" fill="#fff"/>
  <path d="m58.7 57.8c6.3-6.3 16.1-8 24.1-4.2s13 12.4 12.1 21.2c-0.8 8.9-7.4 16.6-16.1 18.7-8.6 2.1-17.8-1.5-22.8-8.8-5.5-8.3-4.4-19.8 2.7-26.9z" fill="#80d0de"/>
  <path d="m87.3 86.4c-5.6 5.6-14.4 7.2-21.6 3.8-7.2-3.5-11.6-11.2-10.9-19.1 0.8-7.9 6.6-14.7 14.3-16.7 7.8-2 16.2 1.3 20.6 8 4.9 7.5 3.9 17.7-2.4 24m3.2 3.1c6.9-6.9 8.8-17.7 4.7-26.6-4.2-8.9-13.8-14.4-23.6-13.4-9.8 0.9-18.2 8.1-20.6 17.7s1.6 19.9 9.8 25.4c8.1 5.4 19 5.1 26.8-0.5 1-0.9 2-1.7 2.9-2.6z" fill="#fff"/>
 </svg>
 <svg x="2048" y="1024" width="1024" height="1024" preserveAspectRatio="xMinYMid meet" version="1.1" viewBox="0 0 113 113">
  <g fill="#fff">
   <path d="m30.7 57.7c-4.1 14.2-0.6 29.7 9.3 40.7 5 5.5 11.5 9.8 18.6 12 7.2 2.2 14.9 2.2 22.1 0.4 14.5-3.6 26.6-14.4 30.6-29 3.8-13.7 0.7-29.6-9-40.2-9.3-10.2-23.7-15-37.3-13.3-1.7 0.2-3.4 0.5-5 0.9 1.5 2.6 3 5.2 4.5 7.8 1.4-1.4 1.8-3.3 1.2-5.2-0.6-1.7-2.1-3.2-4-3.1-0.8 0-1.5 0.5-2.3 0.3-0.9-0.2-1.6-0.8-2.3-1.4-1.5-1.2-2.8-2.7-4.4-3.8 0.6 2.1 1.2 4.2 1.7 6.4 5-6.6-2.9-13.9-9.1-15.5 1.2 1.5 2.3 3 3.5 4.5-0.5-4.9-4.8-8.4-9.3-9.6-4.9-1.3-9.4 0.3-13.3 3.3-1.9 1.5-3.7 3.3-5.5 5-1.9 1.8-3.9 3.4-5.6 5.4-3.6 4-5.8 8.8-4.8 14.2 1 5.1 4.5 9.8 10 10.3-1.5-1.2-3-2.3-4.5-3.5 0.7 4.1 2.3 10.2 6.8 11.6 2.3 0.7 5.1 0.5 7.1-0.8 2.1-1.4 2.9-3.8 2.6-6.3-2.3 1.8-4.6 3.5-6.8 5.3 2.5 1.7 4.5 4 6 6.6-0.1-1.2-0.3-2.3-0.4-3.5-0.9 2.5-0.1 4.9 2.5 5.8 2.3 0.8 4.9 0 6-2.2 1.6-3-0.3-6.3-2.2-8.6-2-2.4-4.6-4.6-7.3-6.3-1.7-1.1-3.6-1-5.1 0.4s-1.9 3.4-1.7 5.4c0.1-0.5 0.1-1 0.2-1.6 0.1-0.5 0-1.3 0.2-1.7 0.3-0.6 2-1 2.7-1.3-0.6-1-0.9-2.1-1.2-3.1s-0.3-2.2-0.8-3.2c-0.8-1.5-2.5-2.3-4.2-2.5 0.7 0.1-0.5-1.9-0.6-2.1-0.6-1.5-0.4-2.8 0.3-4.2 1.5-2.8 4.1-4.7 6.3-6.8l3.9-3.6c1.2-1.1 2.6-2.6 4.1-3.2 1.1-0.4 2.8-0.2 3.8 0.5 0.5 0.3 1.6 1.6 1.4 0.2 0.3 2.3 1.5 3.9 3.8 4.6 0.8 0.2 1.5 0.5 2.3 0.8 0.2 0.1 0.7 0.3 0.8 0.5 0.2 0.4-0.1 0.6-0.3 1-1.2 2.5 0.9 4.8 2.8 6.2 2 1.5 3.8 3.2 5.9 4.6 2.5 1.6 5.3 2.2 8.1 1.1-1.5-2.6-3-5.2-4.5-7.8-2.1 2-2.1 5.2 0.2 7.1 1.1 0.9 2.4 1.2 3.8 1 1.8-0.3 3.5-0.7 5.3-0.9 6.9-0.7 13.9 0.8 19.8 4.2 6.1 3.5 11.1 9 13.9 15.4 2.9 6.5 3.3 13.9 1.5 20.8s-5.7 13.3-11.2 17.8c-5.4 4.4-12.2 6.8-19.2 7.1-6.9 0.3-14-1.6-19.8-5.4-5.5-3.6-9.7-9.1-12-15.2-2.3-6.2-2.8-13-1.5-19.5 0.5-2.4 1.6-5-0.6-6.9-1.6-1.3-4-1.7-5.8-0.6-1 0.6-1.6 1.6-2 2.7z"/>
   <path d="m21.6 34.1c-0.2-1.9 1.4-3.5 2.8-4.6 1.4-1.2 2.8-2.3 4-3.7 2.3-2.3 5.8-6.1 9.2-3.4l2.1-7.8c-6 1.1-10.5 5.7-14.5 10-3.9 4.2-8.5 8.4-9.6 14.3 2.3-1 4.5-1.9 6.8-2.9-0.7-0.5-0.8-1.9-1-2.7s-0.5-1.6-1-2.3c-1-1.2-2.6-1.7-4.1-1.4-1.5 0.2-2.9 1.1-3.7 2.4-1 1.8-0.2 4 0.5 5.8 1.4 3.8 5.7 9.4 10.1 5.7 0.8-0.7 1.2-1.6 1.5-2.6 0.3-1.3 0.8-2.5 1.6-3.6 1.5-2.2 3.4-4 5.2-5.9 1.8-2 3.6-4.1 5.7-5.7 1.1-0.8 2.2-1.4 3.4-1.9 1.1-0.4 2.1-0.4 3-1.2 1.4-1.2 2.2-3.3 1.7-5.2-0.6-2.2-3.6-3.6-5.5-4.5-2.4-1.1-5.4-1.8-8-1.1s-4.7 2.6-6.6 4.3c-3.4 3.1-7.4 5.8-10.3 9.5-2.3 2.9-4.5 8.2-1.3 11.2 2 1.9 6.2 2.2 7.6-0.7 0.4-0.4 0.5-1.2 0.4-2z"/>
   <path d="m27.7 44.4 0.6 0.6c-0.8-1.4-1.5-3.4-1.2-5.1 0.3-1.6 1.4-2.8 2.5-3.9 1.7-1.7 3.4-3.4 5.2-5.1 1.6-1.6 3.4-3.4 5.6-4.1 2.3-0.7 3.9 0.7 4.8 2.7 1.8-2.3 3.5-4.6 5.3-6.8-5.1-1.3-9.9 1.7-13.8 4.6 1.9 0.3 3.7 0.5 5.6 0.8-3.8-3.8-7.9 0.6-10.9 3.1-1.5 1.2-3.4 2.3-3.6 4.5-0.2 1.8 0.7 3.3 1.9 4.6v-6.6c-2.9 3.2-6.3 6.5-7.7 10.7-1 3.1-0.5 8.8 3.5 9.4 2.9 0.4 5.8-2.2 5.6-5.1 0-0.4-0.1-0.7-0.2-1-0.1-0.2-0.4-0.7-0.3-0.9 0-0.3 0.4-0.7 0.6-0.9 0.9-1.1 1.9-2.1 2.8-3.2 0.9-0.9 1.9-1.8 2.6-2.9 1.7-2.3 0.8-4.8-0.9-6.7v6.6c2.1-1.7 4.2-3.4 6.4-5.1h-6.6c1.3 1.3 3.3 2.1 5.1 1.3 1.3-0.5 2.5-1.8 3.7-2.7 0.7-0.5 1.4-0.9 2.1-1.2 0.8-0.3 1.4-0.2 2.2-0.1 1.6 0.2 3.1-0.3 4.1-1.6 2.4-3.1 0.2-7.1-2.2-9.5-2.8-2.8-6.9-4.3-10.9-3.5-4.2 0.8-7.7 3.4-10.7 6.3-3 2.8-6.1 5.8-8.4 9.2-2.1 3.1-3.3 7-2.7 10.8 0.6 3.3 2.3 6.9 5.1 8.8 2.6 1.8 6.2 1.5 7.7-1.6 1.3-2.6 0.1-5.8-2.9-6.4z"/>
  </g>
  <g fill="#FAAC55">
   <path d="m97.6 96.4c8.8-8.8 12.7-21.7 10.3-33.9-2.6-12.9-12-23.8-24.4-28-7.1-2.4-14.8-2.7-22.1-0.8 0.1-0.1 0.1-0.2 0.2-0.2-3.6 2-7.3-2.7-9.7-4.6-1.3-1-2.9-2.2-4.7-1.9-2.4 0.5-4.7 1.9-6.7 3.3-4.6 3.2-8.5 7.2-11.8 11.6-1.4 1.9-4 5-1.9 7.3 0.8 0.8 1.9 1.4 2.8 2.1 1.2 1 2.3 2.2 3.4 3.4 0.5 0.6 0.9 1.1 1.3 1.7 0.4 0.5 1.1 1.4 1.1 2s-0.4 1.4-0.6 2c-0.2 0.7-0.4 1.5-0.5 2.2-0.6 2.8-0.8 5.7-0.7 8.6 0.2 5.8 1.7 11.5 4.5 16.6 5.4 9.9 15.2 17 26.3 19 10.6 1.9 21.7-0.9 30.1-7.6 1-0.9 2.1-1.8 3.1-2.8z"/>
   <path d="m51.4 25.8c-0.9-4.1-4.6-6.6-8.7-6.7-4.1-0.2-7.5 2.3-10.4 4.9-3 2.8-5.4 6-8.2 8.9-1.5 1.5-2.8 3.1-3.5 5.1s-0.6 4-0.2 6c0.5 2.5 1.7 8 5.2 7.7 0.6-0.1 1.9-0.4 2.1-1.1 0.1-0.4-0.3-1.5-0.7-1.7-0.5-0.2-1.1 0.1-1.7-0.3s-1-1.1-1.4-1.7c-1.7-3.3-2.4-7.1-0.5-10.4 1-1.8 2.4-3.3 3.8-4.7 1.5-1.5 3-3.1 4.6-4.6 3.3-3.3 8-6.9 12.9-4.7 2.2 1 3.8 2.8 4.5 5.1 0.2 0.7 0.6 0.8 1.1 0.3 0.6-0.6 1.3-1.5 1.1-2.1z"/>
   <path d="m44.1 18.8c-1.2-3.1-4.7-4.9-7.9-5.2-1.7-0.1-3.4 0.2-4.9 1.1-1.9 1.2-3.4 2.9-5 4.3-3.4 3-7.2 5.9-9.8 9.7-1.1 1.7-2.1 3.6-2 5.6 0.1 1.4 0.5 2.9 1 4.2s1.2 2.7 2.3 3.6c0.9 0.7 2.5 1.2 3.5 0.3 0.6-0.6 1.4-2.5 0-2.5s-2.2-0.6-2.9-1.8-1.1-2.5-1.4-3.8c-0.4-1.6-0.1-3.1 0.8-4.5 2-3.3 5.6-5.9 8.5-8.4 1.8-1.5 3.5-3.6 5.6-4.6 1.9-1 4.1-0.6 6 0.2 0.9 0.4 1.8 0.9 2.5 1.5 0.4 0.3 0.7 0.6 0.9 1 0.2 0.3 0.3 0.8 0.6 1.1 1 1.3 2.6-0.9 2.2-1.8z"/>
  </g>
  <path d="m37.8 32.9c5.2 5.2 10.4 10.4 15.7 15.5 2.6 2.6 5.3 5.1 7.9 7.7 1.9 1.9 3.8 3.8 5.9 5.4 3 2.4 7.9 5.7 11.9 3.7 4.3-2.1 4.8-8.7 0.4-11-2.4-1.3-5.2-0.5-7.6 0.6-2.9 1.3-5.5 3.1-7.9 5.1-2.3 1.9-4.4 4.1-6.2 6.4s-3.4 5-3.8 8c-0.2 2.3 0.4 4.5 2.2 6 1.5 1.2 3.6 1.8 5.5 1.3 2.4-0.5 3.9-2.6 4.7-4.9 0.9-2.7 0.3-5.5-1-8-1.4-2.4-3.5-4.7-5.5-6.9-2.4-2.6-4.9-5.1-7.4-7.6-5-5-10-10-14.9-15.1-1.2-1.3-2.4-2.6-3.6-3.9-0.3-0.3-0.5-0.8-0.9-0.7-0.3 0-0.6 0.5-0.8 0.7-0.5 0.6-1.1 1.4-1.1 2.2 0 0.5 0.3 0.8 0.6 1.1 0.6 0.6 1.1 1.2 1.7 1.8 4.6 4.9 9.4 9.4 14.2 14.1 4.7 4.7 9.4 9.4 13.6 14.6 1.4 1.8 6 8.1 1.8 9.3-2.6 0.8-5.1-1.4-6.2-3.6-1-2.1-0.3-4.2 0.9-6 1.4-2 3.2-3.6 5-5.1 2.2-1.8 4.4-3.5 6.9-4.8 2-1 4.5-2.3 6.7-1.3 1.3 0.6 3.2 1.7 3.8 3.1 1 2.2-3.4 1.6-4.3 1.3-2.7-0.8-5.3-2.6-7.5-4.4-5.1-4-9.4-9-14-13.6-2.6-2.6-5.2-5.2-7.8-7.7l-5.7-5.7c-0.3-0.3-1-1.3-1.4-1.3-0.9 0.1-2.6 3-1.8 3.7z" fill="#fff"/>
  <path d="m6 1.6c-2-0.5-4-1.1-6-1.6 0.5 2 1.1 4 1.6 6l4.4-4.4z" fill="#E84445"/>
 </svg>
 <svg x="3172" y="1124" width="1024" height="1024" preserveAspectRatio="xMinYMid meet" version="1.1" viewBox="0 0 115 115">
  <path d="m60.8 30.7c-3.4 3.5-6.8 6.9-10.2 10.3l-17.7 17.7c-0.1 0.1-0.3 0.4-0.5 0.5-0.3 0.1 0.1 0.2-0.4-0.1-0.9-0.6-0.8-0.7-0.3-1.2l27.1-27.1c0.2-0.2 0.8-1 1-1s0.8 0.8 1 0.9z" fill="#fff"/>
  <path d="m49.9 16.1-31.4 31.4c-0.3 0.3-0.6 0.8-0.9 0.7-0.2-0.1-0.8-0.7-0.8-0.9 0-0.1 0.4-0.4 0.5-0.5l30.4-30.4c0.2-0.2 0.9-1.1 1.2-1.2 0.2-0.1 0.8 0.7 1 0.9z" fill="#fff"/>
  <path d="m49.3-7.3 10.5 10.5c0.3 0.3 1.5 1.2 1.6 1.6 0.1 0.3-1.2 1.3-1.5 1.6l-1.6 1.6c-0.3 0.3-1.1 0.8-1.3 1.3 0 0.2 0 0.1 0.3 0.4 0.9 1.1 2.1 2.1 3.1 3.1l28.9 28.9c4.4 4.4 7.6 9.4 8.9 15.5 4.1 18.3-8.9 36.8-27 40.4-8.5 1.7-17.6-0.1-24.6-5.3-2.9-2.2-5.4-5-8-7.6l-28.1-28.1c-0.2-0.2-0.2-0.3-0.4-0.3-0.3 0.1-0.8 0.8-1 1l-1.7 1.7c-0.3 0.3-1.3 1.6-1.7 1.6s-1.3-1.3-1.5-1.5l-9.4-9.4c-0.2-0.2-1.3-1-1.3-1.3 0-0.2 0.9-0.9 1-1l33.9-33.9c6.6-6.5 13.2-13.1 19.9-19.8l1-1z" fill="#7f7f7f"/>
  <g fill="#fff">
   <path d="m87.2 86.4c-6.1 6.1-14.6 9.7-23.3 9.4-7.2-0.2-13.9-3.2-19-8.2-6.7-6.6-13.3-13.2-19.9-19.8l-14.4-14.4c-0.1-0.1-0.4-0.5-0.5-0.5s-0.4 0.4-0.5 0.5l-3 3c-0.2 0.2-0.7 0.9-1 1-0.3 0-0.9-0.8-1.2-1.1l-7.1-7.1c-0.1-0.1-0.6-0.5-0.6-0.6s0.1-0.1 0.2-0.2c0.4-0.7 1.4-1.4 1.9-1.9l48.5-48.5c0.5-0.5 1.2-1.6 1.8-1.8 0.2-0.1 0-0.1 0.2-0.1s0.6 0.6 0.7 0.7l7.2 7.2c0.3 0.3 0.9 0.7 0.8 1.1-0.1 0.3-0.8 0.8-1 1l-1.7 1.7c-0.2 0.2-1.7 1.4-1.7 1.7 0 0.1 0.4 0.4 0.5 0.5l31.9 31.9c3 3 5.9 6.1 7.8 10 3.6 7.5 3.5 16.3 0.4 24-1.5 3.9-4 7.5-7 10.5m3.3 3.4c6.7-6.7 10.7-15.9 10.8-25.5 0-8.7-3.3-17.2-9.5-23.4-2.6-2.7-5.3-5.3-7.9-7.9l-22.2-22.2c-0.4-0.4-0.9-0.7-1.2-1.2l-0.2-0.2c0-0.2 0.8-0.8 1-1l2.5-2.5c0.1-0.1 1-0.8 1-1s-0.9-0.9-1-1l-2.4-2.4c-3.2-3.2-6.4-6.5-9.7-9.7l-1.7-1.7c-0.2-0.2-0.5-0.7-0.7-0.6-0.3 0-1 1-1.3 1.3l-56.7 56.7c-0.2 0.2-1.2 1-1.2 1.2s0.7 0.7 0.8 0.8l13.9 13.9c0.1 0.1 0.7 0.9 0.9 0.9s1-1 1.1-1.1l2.5-2.5c0.2-0.2 0.8-0.9 1-0.9 0.1 0 0.2 0.2 0.2 0.2 0.4 0.3 0.8 0.8 1.2 1.2l30.1 30.1c3 3 6.5 5.3 10.4 6.9 8.5 3.5 18.4 3.3 26.8-0.4 4.2-2 8.2-4.7 11.5-8z"/>
   <path d="m77.5 49.3-25.6 25.6c-0.5 0.5-1 1.3-1.6 1.6-0.1 0-0.1 0.2-0.2 0.2s-0.5-0.5-0.6-0.6l-1.1-1.1c-0.6-0.6-0.6-0.5 0-1l26.4-26.4c0.6-0.6 0.5-0.4 1.2 0.3 0.4 0.4 1 0.9 1.5 1.4z"/>
   <path d="m72 43.9-25.6 25.6c-0.5 0.5-1 1.3-1.6 1.6-0.1 0-0.1 0.2-0.2 0.2s-0.5-0.5-0.6-0.6l-1.1-1.1c-0.6-0.6-0.6-0.5 0-1l2-2c5.1-5.2 10.3-10.4 15.5-15.6l8.8-8.8c0.6-0.6 0.5-0.4 1.2 0.3 0.6 0.4 1.1 0.9 1.6 1.4z"/>
   <path d="m66.6 38.4-25.7 25.7c-0.5 0.5-1 1.3-1.6 1.6-0.1 0-0.1 0.2-0.2 0.2s-0.5-0.5-0.6-0.6l-1.1-1.1c-0.6-0.6-0.6-0.5 0-1l26.4-26.4c0.6-0.6 0.5-0.4 1.2 0.3 0.5 0.3 1 0.8 1.6 1.3z"/>
  </g>
 </svg>
 <svg y="2048" width="1024" height="1024" preserveAspectRatio="xMinYMid meet" version="1.1" viewBox="0 0 85 85">
  <path d="m6 1.7c-2-0.6-4-1.1-6-1.6 0.5 2 1.1 4 1.6 6l4.4-4.4z" fill="#E84445"/>
  <path d="m16.2 24.7c1.3 1.4 2.5 2.7 4.4 3.2 2.5 0.7 5.3-0.1 7.1-1.9 1.8-1.9 2.4-4.6 1.7-7.1-0.6-1.8-1.8-2.9-3.1-4.2l12.1-12.1 10.5 10.5c0.2 0.2 0.5 0.6 0.7 0.7 0.3 0.1 0 0.1 0.4-0.1 0.4-0.3 0.8-0.7 1.2-1.1 0.6-0.5 1.3-1.1 2-1.5 3.7-2.5 8.4-4.3 12.8-2.7 4.1 1.5 6.3 5.3 8.4 8.8-2.3-0.3-4.5-0.7-6.8-0.3-2.1 0.4-4.2 1.3-5.4 3.1-1.5 2.3-1.6 5.5-1.1 8.1 3.5-3.1 8.5-5.7 13.3-4.2 3.9 1.3 5.9 4.9 7.9 8.2-3.4-0.5-7.6-1.2-10.3 1.6-2.1 2.2-2 6.1-1.2 8.8 0.6 2 1.7 3.8 3.2 5.2 0.9 0.8 1.9 1.4 2.9 2l-25.2 25.2c-1.6-2.6-3.4-4.6-6.3-5.7-2.6-1-6.2-1.3-8.8 0.2-2.3 1.4-3.1 4.2-3.1 6.7 0 1.4 0.3 2.9 0.5 4.3-3.3-2-6.9-4-8.2-8-1.5-4.7 1.1-9.7 4.2-13.1-2.6-0.5-5.7-0.4-8 1-1.9 1.2-2.9 3.3-3.2 5.4-0.4 2.3 0 4.6 0.3 6.9-3.1-1.9-6.3-3.7-8.1-7-2.3-4.2-1.1-9.1 1.3-13 0.8-1.4 1.8-2.7 2.9-3.9 0.6-0.6 0.8-0.6 0.2-1.1l-10.9-10.9 10.6-10.6c0.1-0.4 0.6-0.9 1.1-1.4z" fill="#263F66"/>
  <g fill="#fff">
   <path d="m51.7 72.6c-4-6.2-16.6-8.7-19.4-0.3-0.6 1.6-0.7 3.5-0.5 5.2-3.5-2.1-5.8-5.6-4.9-9.8 0.6-2.7 2.2-5.2 4-7.3l1.8-1.8c-4.5-1.6-10.8-1.6-13.9 2.5-1.8 2.4-2.4 5.8-2 8.7-4-2.4-6.7-6.4-5.7-11.2 0.6-3.1 2.4-6 4.5-8.4 0.6-0.7 1.4-1.4 2.1-2.1l-11.3-11.3 9.9-9.9c3.3 3.6 9.1 3.7 12.5 0.3s3.3-9.2-0.3-12.5l9.4-9.4c0.1-0.1 0.4-0.5 0.5-0.4 0.2 0 0.8 0.8 1 1 0.6 0.4 1.2 1.1 1.8 1.7l7.1 7.1c0.3 0.3 0.8 1 1.2 1.2s0.8-0.5 1.2-0.9c0.2-0.2 0.5-0.5 0.8-0.7 1.3-1.2 2.7-2.2 4.2-3 2.3-1.3 5-2.2 7.7-1.9 3.6 0.4 6.2 2.9 8 5.9-2.9-0.4-6.3 0.2-8.7 2-4.1 3.1-4.1 9.4-2.4 13.8 3.4-3.4 8.3-7.3 13.4-5.6 2.4 0.8 4.2 2.7 5.5 4.8-3.8-0.5-8.2 0.9-9.8 4.7-1.8 4.4-0.4 9.9 2.7 13.3 0.6 0.7 1.4 1.4 2.2 1.9-6 5.9-12 11.9-17.9 17.8-1.6 1.5-3.1 3.1-4.7 4.6m-0.5 5c3.9-4 7.9-8 11.9-11.9l16.1-16.1c-2.7-1.7-5.2-3-6.5-6.1-1.1-2.6-1.7-7 0.7-9 1.6-1.3 4-1.4 6-1.2 1.9 0.2 3.8 0.5 5.7 0.7-1.9-3.2-3.7-6.9-6.5-9.3-4.9-4.1-11.3-2.9-16.2 0.5 0-2.7 0.9-5.2 3.6-6.3 1.5-0.6 3.3-0.8 4.9-0.7 2.2 0.2 4.3 0.6 6.5 0.9-2.9-4.6-5.4-10.1-10.8-12.1-4-1.5-8.3-0.6-11.9 1.4-1.5 0.8-2.9 1.8-4.3 2.9-0.2 0.2-0.5 0.6-0.7 0.5-0.2 0-0.5-0.5-0.6-0.6l-9.5-9.5c-0.2-0.2-0.9-1.2-1.2-1.2-0.4 0-1.6 1.5-2 1.9l-12.4 12.4c1 0.9 2.3 1.8 3.1 3 1.6 2.2 1.4 5.2-0.5 7.2-1.9 1.9-4.9 2.3-7.2 0.8-1.2-0.8-2.2-2.1-3.2-3.2l-14.3 14.3 10.8 10.8c0.1 0.1 0.6 0.5 0.6 0.6 0 0.3-1.1 1.4-1.3 1.7-1.4 1.9-2.7 4.1-3.4 6.4-1.7 5.2-0.3 10.5 3.8 14.1 2.5 2.2 5.6 3.7 8.3 5.4-0.3-2.1-0.6-4.3-0.9-6.4-0.2-1.8 0.1-3.8 0.8-5.4 1.2-2.4 3.6-3.1 6.1-3.2-2.7 3.8-4.2 8.8-2.3 13.3 1.5 3.5 4.7 5.5 7.8 7.4 1.1 0.7 2.3 1.4 3.4 2.1-0.2-1.7-0.5-3.4-0.7-5.1-0.3-1.9-0.4-3.8 0.4-5.6 1.4-3.2 5.7-3.1 8.5-2.2 1.9 0.6 3.7 1.7 4.9 3.3 1.1 0.9 1.7 2.3 2.5 3.5z"/>
   <path d="m60.7 30.6-10.3 10.3c-5.1 5.2-10.4 10.4-15.6 15.7l-2.2 2.2c-0.1 0.1-0.3 0.5-0.5 0.5s-0.8-0.7-1-0.9l28.7-28.7 0.9 0.9z"/>
   <path d="m49.8 16-32.2 32.2c-0.2-0.2-1-0.8-0.9-1 0-0.1 0.4-0.4 0.4-0.4l31.1-31.1c0.1-0.1 0.4-0.6 0.6-0.6 0.2-0.1 0.7 0.6 1 0.9z"/>
  </g>
 </svg>
 <svg x="1024" y="2048" width="1024" height="1024" preserveAspectRatio="xMinYMid meet" version="1.1" viewBox="0 0 92 92">
  <path d="m6 1.6c-2-0.5-4-1.1-6-1.6 0.5 2 1.1 4 1.6 6l4.4-4.4z" fill="#E84445"/>
  <path d="m21.2 19.7c11.7-11.7 30.1-15 45.2-8 15.3 7.1 24.6 23.4 23 40.2-1.6 16.7-13.9 31.1-30.3 35-16.3 4-33.7-2.8-43-16.8-9.1-13.8-8.6-32.3 1.1-45.7 1.2-1.6 2.6-3.2 4-4.7z" fill="#263F66"/>
  <g fill="#fff">
   <path d="m76.4 74.9c-11.2 11.2-28.6 14.2-42.9 7.6-14.5-6.7-23.3-22.3-21.8-38.2s13.2-29.4 28.7-33.2c15.4-3.8 32 2.6 40.8 15.8 8.7 13.1 8.3 30.8-0.9 43.5-1.2 1.6-2.5 3.1-3.9 4.5m2.9 2.8c12.3-12.3 15.7-31.6 8.3-47.5s-24.6-25.7-42.1-24c-17.6 1.6-32.6 14.6-36.8 31.9-4.1 17 3 35.3 17.6 45 14.5 9.6 34 9.2 48-1.1 1.7-1.3 3.4-2.7 5-4.3z"/>
   <path d="m72.8 71.3c-2.5 2.5-6.3 3.1-9.5 1.6s-5.1-4.9-4.7-8.4c0.3-3.5 2.9-6.4 6.3-7.3 3.4-0.8 7 0.5 9 3.4 2.2 3.4 1.7 7.9-1.1 10.7z"/>
   <path d="m61.7 52.1-8.1 8.1-29.3-29.3c-0.2-0.2-1.5-1.2-1.5-1.5 0-0.2 0.8-0.8 0.9-1l7.2-7.2 27 27c1.3 1.3 2.6 2.6 3.8 3.9z"/>
  </g>
 </svg>
 <svg x="2048" y="2048" width="1024" height="1024" preserveAspectRatio="xMinYMid meet" version="1.1" viewBox="0 0 88 88">
  <path d="m6 1.6c-2-0.5-4-1.1-6-1.6 0.5 2 1.1 4 1.6 6l4.4-4.4z" fill="#E84445"/>
  <path d="m7.8 34.5c1.5-1.5 3.3-2 5.2-2.5 2.3-0.7 4.6-1.4 7-2.2 2.3-0.7 4.5-1.4 6.8-2.1 0.8-0.2 1.7-0.2 1.9-1 1.4-4.3 2.7-8.6 4-12.9 0.4-1.4 0.8-2.7 1.3-4.1 1.3-3.9 5.3-6.3 9.3-5.3 2.4 0.6 3.9 2.2 5.2 4.1 1.3 1.8 2.5 3.6 3.8 5.3 1.5 2.1 2.9 4.1 4.4 6.2 0.4 0.6 0.9 1.3 1.3 1.9 0.1 0.2 0.2 0.4 0.4 0.5 0.4 0.2 1.2 0 1.6 0h3.1c2.6 0 5.2-0.1 7.8-0.1 1.8 0 3.6-0.1 5.4-0.1 3 0 5.8 1.4 7.3 4.1 1.5 2.9 1 6.1-0.9 8.7-1.1 1.5-2.3 3-3.4 4.5-1.6 2.1-3.1 4.2-4.7 6.3-0.6 0.8-1.2 1.6-1.8 2.4-0.2 0.3-0.8 0.8-0.9 1.1 0 0.2 0.1 0.6 0.2 0.8 0.3 0.8 0.5 1.6 0.8 2.3 0.8 2.4 1.7 4.9 2.5 7.3l2.1 6c0.8 2.4 1.1 4.9-0.2 7.2-1.9 3.4-5.8 4.8-9.4 3.6-1.5-0.5-3-1-4.5-1.5-2.5-0.8-4.9-1.7-7.4-2.5-1.1-0.4-2.2-0.7-3.3-1.1-0.6-0.2-1.2-0.5-1.8-0.6-0.7-0.1-1.6 0.9-2.1 1.3-1.9 1.4-3.8 2.9-5.8 4.3-1.9 1.4-3.8 2.8-5.6 4.2-1.7 1.3-3.4 2.5-5.7 2.6-4 0.2-7.7-2.9-8.1-6.9-0.2-1.4 0-2.9 0-4.2 0.1-4.7 0.1-9.4 0.2-14.1 0-1.1 0-1-0.9-1.6-1.8-1.3-3.6-2.5-5.4-3.8-2.1-1.5-4.1-2.9-6.2-4.4-1.2-0.9-2.6-1.7-3.6-2.8-2.9-3.1-2.8-8 0.1-10.9z" fill="#807F7F"/>
  <path d="m74.4 73c-1.9 1.9-4.2 1.7-6.5 1-1.9-0.7-3.9-1.3-5.8-2-3.5-1.2-7-2.6-10.6-3.6-1.7-0.5-3 0.9-4.2 1.8l-5.7 4.2c-1.9 1.4-3.7 2.8-5.6 4.2-1.5 1.1-3 2.3-5 2.2-3.1-0.2-5.1-2.9-5.1-5.8 0-1.8 0-3.5 0.1-5.3 0.1-4.2 0.2-8.3 0.2-12.5 0-1.6-1-2.2-2.2-3-1.8-1.3-3.6-2.5-5.4-3.8l-6-4.2c-1.1-0.8-2.4-1.5-3.4-2.5-2.7-2.9-1.2-7.5 2.5-8.8 1.4-0.5 2.8-0.9 4.2-1.3 4.2-1.3 8.5-2.6 12.7-4 0.7-0.2 1.3-0.4 1.7-1 0.3-0.4 0.5-0.9 0.6-1.4 0.6-1.9 1.2-3.7 1.7-5.6 1.2-3.7 2.2-7.5 3.5-11.2s6.1-5.1 9-2.2c0.9 1 1.7 2.2 2.4 3.3 2.7 3.8 5.3 7.5 8 11.3 0.8 1.1 1.4 2 2.9 2 1.7 0 3.4 0 5.1-0.1 4.3-0.1 8.5-0.1 12.8-0.2 3 0 5.7 2.2 5.7 5.4 0 2-1.2 3.4-2.3 4.9-2.8 3.7-5.6 7.5-8.4 11.2-0.9 1.2-2.1 2.4-1.7 4 0.3 1.2 0.8 2.5 1.3 3.7 1.5 4.3 2.9 8.6 4.4 12.8 0.8 2.3 0.9 4.6-0.9 6.5m3.4 3.4c2.8-2.8 3.6-6.9 2.4-10.6-0.5-1.5-1-2.9-1.5-4.4-0.8-2.4-1.7-4.9-2.5-7.3-0.3-1-0.7-1.9-1-2.9-0.1-0.3-0.5-1.1-0.5-1.5 0-0.2 0.3-0.5 0.5-0.7 0.5-0.7 1-1.4 1.6-2.1 1.5-2 3-4.1 4.6-6.1 1.1-1.5 2.3-3 3.4-4.5 2-2.7 2.8-6 1.8-9.2-1.1-3.8-4.3-6.7-8.2-7.3-1.6-0.2-3.2-0.1-4.8-0.1-4.5 0.1-9 0.1-13.5 0.2-0.9 0-1.1-0.9-1.6-1.6-1.4-2-2.8-4-4.3-6-1.2-1.7-2.5-3.5-3.8-5.3-1.4-2-2.9-3.7-5.2-4.6-4.1-1.6-8.9-0.4-11.7 3-1.3 1.7-1.9 3.6-2.5 5.5-1.4 4.4-2.7 8.8-4.1 13.3-0.1 0.2-0.1 0.8-0.3 1s-0.9 0.3-1.2 0.4c-2.1 0.7-4.3 1.3-6.4 2l-6.9 2.1c-2.1 0.6-4.1 1.3-5.7 2.8-3.1 3-4.1 7.6-2.4 11.5 1 2.2 2.6 3.7 4.5 5.1 3.8 2.7 7.6 5.4 11.4 8 0.4 0.3 1.2 0.6 1.4 1 0.1 0.2 0.1 0.4 0.1 0.6 0 2.1-0.1 4.1-0.1 6.2 0 2.5-0.1 5-0.1 7.5 0 1.6-0.2 3.3 0.1 4.8 0.7 4 3.9 7.2 7.8 8.1 3.1 0.7 6.2-0.2 8.7-2 3.6-2.7 7.2-5.3 10.8-8l2.1-1.5c0.2-0.1 0.4-0.3 0.6-0.4 0.4 0 1.1 0.4 1.5 0.5 1 0.3 2 0.7 3 1 3.8 1.3 7.7 2.7 11.5 3.9 3.7 1.2 7.7 0.4 10.5-2.4z" fill="#fff"/>
 </svg>
 <svg x="3072" y="2048" width="1024" height="1024" preserveAspectRatio="xMinYMid meet" version="1.1" viewBox="0 0 110 110">
  <path d="M6,1.6C4,1.1,2,0.6,0,0c0.5,2,1.1,4,1.6,6C3.1,4.6,4.6,3.1,6,1.6z" fill="#E84445"/>
  <path d="m40.1 1.7c2.4-2.4 6-3.2 9.1-2 3.2 1.2 5.4 4.3 5.9 7.6 0.2 1.7 0 3.4-0.6 5-0.3 0.8-0.7 1.5-1.2 2.2-0.3 0.4-0.9 0.8-1 1.2-0.2 0.7 0.1 1.8 0.1 2.5s0.1 1.4 0.1 2c1.5-0.1 2.9-0.1 4.4-0.2 0.2 0 1.4-0.2 1.5-0.1s0 0.9 0 1c0.1 3 0.2 5.9 0.3 8.9-1.2 0-2.4 0.1-3.6 0.1 0.3 2.1 0.5 4.3 0.8 6.4 0.1 0.6-0.1 0.5 0.4 0.6s1.2-0.1 1.8-0.1c5.1-0.2 10.3-0.5 15.4-0.7 2.2-0.1 4.4-0.2 6.6-0.3 0.7 0 1.4-0.2 2 0.1 1.4 0.6 2.8 1.5 4.1 2.3 2.3 1.3 4.7 2.6 7 3.9 3.7 2.1 7.5 4.1 11.2 6.2-6.5 3-12.9 5.9-19.4 8.9-1.3 0.6-2.6 1.2-3.8 1.8-0.5 0.2-0.7 0.3-1.3 0.2-3.8-0.4-7.5-0.9-11.3-1.3-3.4-0.4-6.9-0.8-10.3-1.2 0.8 6.9 1.7 13.8 2.5 20.7 0.1 0.5 0.2 1.1 0.1 1.6-0.3 1-1 2.1-1.4 3-1.8 4-3.7 7.9-5.5 11.9-1.3 2.9-2.7 5.7-4 8.6-4.1-7.2-8.1-14.4-12.2-21.6-0.4-0.6-0.6-0.9-0.6-1.7 0.1-1.7 0.2-3.5 0.2-5.2 0.2-5.2 0.5-10.5 0.7-15.7 0-0.9 0.1-1.9 0.1-2.8 0-0.2 0.1-0.9 0-1s-1-0.1-1.1-0.1c-0.7-0.1-1.5-0.2-2.2-0.2-1-0.1-2.1-0.2-3.1-0.4 0 0.6-0.1 1.1-0.1 1.7 0 0.3 0.1 1.6-0.1 1.8-0.3 0.3-2 0-2.4 0-2.5-0.1-5-0.2-7.5-0.2 0.1-1.9 0.2-3.9 0.3-5.8-0.7 0-1.4 0-2.1-0.1-0.7 0-1.8-0.3-2.5-0.1-0.4 0.1-0.9 0.8-1.3 1.1-0.7 0.5-1.4 0.9-2.2 1.2-1.6 0.6-3.4 0.8-5.1 0.6-3.4-0.5-6.5-2.8-7.6-6.1s0.2-7 2.9-9.2 6.4-2.8 9.7-1.7c0.8 0.3 1.5 0.6 2.1 1.1 0.7 0.5 1.1 1.1 1.8 1.6 0.5 0.4 1.4 0.3 2.1 0.3 0.5 0 1 0 1.5 0.1 0.3 0 0.9 0.2 1.1 0 0.3-0.1 0.2-0.7 0.2-1.1 0.1-1 0.1-2.1 0.2-3.1 0-0.2-0.1-1.4 0.1-1.6s1.4 0 1.7 0.1c1.1 0 2.3 0.1 3.4 0.1 1.6 0.1 3.2 0.1 4.9 0.2-0.1 1.2-0.1 2.4-0.2 3.6 1.2-0.1 2.4-0.1 3.5-0.2 0.5 0 2.5 0.2 2.8-0.2 0.2-0.2 0-1.1 0.1-1.4 0-0.8 0.1-1.6 0.1-2.4 0-1.1 0.1-2.2 0.1-3.3-1.2 0-2.5 0.1-3.7 0.1-0.1-3-0.2-5.9-0.3-8.9 0-0.1-0.1-0.9 0-1 0.2-0.2 1.3-0.1 1.5-0.1 1.5-0.1 2.9-0.1 4.4-0.2 0-1.1-0.1-2.1-0.1-3.2 0-0.4 0.1-1-0.1-1.4-0.1-0.2-0.5-0.5-0.7-0.7-0.4-0.4-0.8-0.8-1.1-1.3-2.8-3.6-2.4-9.1 0.9-12.4z" fill="#E74244"/>
  <path d="m99 48.2c-5.9 2.7-11.9 5.5-17.8 8.2-0.4 0.2-0.8 0.5-1.3 0.5-1.1 0.1-2.2-0.3-3.3-0.4-4.1-0.5-8.2-0.9-12.3-1.4-3-0.3-5.9-0.7-8.9-1 0.8 6.6 1.6 13.2 2.4 19.7 0.2 1.3 0.3 2.7 0.5 4 0.1 0.5 0.1 0.7-0.1 1.1-1.5 3.2-3 6.3-4.4 9.5-1.4 3-2.8 5.9-4.1 8.9-2-3.5-4-7.1-6-10.6-1.2-2-2.3-4.1-3.5-6.1-0.4-0.7-0.8-1.1-0.7-1.9 0.2-4.4 0.4-8.9 0.6-13.3 0.1-2.7 0.2-5.4 0.4-8.1 0-1 0.1-1.9 0.1-2.9 0-0.5 0.2-1.3 0.1-1.8-0.1-0.4 0-0.3-0.6-0.3-1.2-0.1-2.5-0.3-3.7-0.4-2.3-0.3-4.6-0.5-6.9-0.8 0 0.8-0.1 1.6-0.1 2.4 0 0.3 0.1 1-0.1 1.2s0.1 0-0.2 0.1-0.8 0-1.1 0c-0.5 0-1.1 0-1.6-0.1-0.7 0-1.4 0-2.2-0.1 0.1-1.9 0.2-3.9 0.3-5.8-1.5 0-2.9-0.1-4.4-0.1-0.9 0-1.9-0.1-2.8-0.1-0.8 0-0.9-0.1-1.4 0.5-2.3 2.6-6 3.3-8.9 1.9-2.6-1.2-4.2-4-3.6-6.8 0.7-3.4 4.2-5.4 7.5-5.2 1.6 0.1 3.1 0.6 4.3 1.6 0.3 0.2 0.5 0.5 0.8 0.8 0.2 0.2 0.4 0.7 0.6 0.9 0.2 0.1 0.2 0.1 0.4 0.1 1.8 0.3 3.7 0.1 5.5 0.2 0.5 0 1.7 0.3 2.2 0.1h0.2c0.1-0.1 0-0.6 0-0.7 0.1-1.1 0.1-2.2 0.2-3.3 0-0.3-0.1-1.6 0.2-1.7 0.2-0.1 0.8 0 1 0 0.6 0 1.1 0 1.7 0.1 0.8 0 1.6 0.1 2.4 0.1-0.1 1.3-0.1 2.6-0.2 3.8 3.4-0.2 6.7-0.3 10.1-0.5 0.2 0 0.9 0.1 1.1-0.1 0.1-0.2 0-1 0.1-1.2l0.3-6c0.1-1.6 0.1-3.1 0.2-4.7-0.8 0-1.7 0.1-2.5 0.1-0.3 0-0.9 0.2-1.2 0-0.3-0.1-0.1 0.1-0.2-0.3-0.3-0.8-0.1-2.1-0.1-3 0-0.3-0.3-1.7-0.1-1.9 0.2-0.3 1.9-0.1 2.3-0.1 1.1 0 2.1-0.1 3.2-0.1 0.6 0 0.5 0 0.5-0.5 0-0.9-0.1-1.9-0.1-2.8 0-1.1-0.1-2.2-0.1-3.3 0-0.4 0.1-1.3-0.1-1.6-0.1-0.2-0.8-0.5-1-0.7-0.3-0.2-0.5-0.5-0.8-0.8-0.6-0.7-1-1.5-1.3-2.4-0.6-1.7-0.5-3.5 0.1-5.1 1.3-3.3 5.1-5.3 8.4-3.8 3.1 1.4 4.7 5 3.9 8.3-0.2 1-0.6 1.9-1.2 2.7-0.3 0.4-0.6 0.8-1 1.1-0.2 0.1-0.5 0.3-0.6 0.5-0.2 0.6 0.1 1.7 0.1 2.3 0.1 2 0.2 3.9 0.2 5.9 0.9 0 1.8-0.1 2.7-0.1 0.7 0 1.3-0.1 2-0.1 0.2 0 1-0.2 1.2 0 0.3 0.2 0.1 1.8 0.2 2.2 0 1 0.1 2 0.1 3-1.3 0-2.6 0.1-3.8 0.1 0.2 1.9 0.5 3.8 0.7 5.7 0.2 1.3 0.3 2.7 0.5 4 0 0.3 0 1.8 0.2 2.1 0.1 0.1 0.6 0 0.7 0 0.7 0 1.5-0.1 2.2-0.1 2.5-0.1 4.9-0.2 7.4-0.4 5.1-0.2 10.1-0.5 15.2-0.7 0.7 0 1.4-0.2 2.1 0.1 1.7 0.7 3.3 1.9 5 2.7 3.8 2.1 8 4.4 12.2 6.7m10.6 0.4c-7-3.9-14-7.7-21-11.6-1.6-0.9-3.3-1.8-4.9-2.7-0.4-0.2-0.9-0.6-1.4-0.8-0.5-0.1-1.1 0-1.6 0-4.3 0.2-8.5 0.4-12.8 0.6-2.7 0.1-5.4 0.3-8 0.4-0.4 0-1.5 0.3-1.8 0.1-0.4-0.2-0.3-1.7-0.4-2.2 1.1 0 2.3-0.1 3.4-0.1-0.2-4.4-0.3-8.7-0.5-13.1 0-0.2 0.1-1.4-0.1-1.6-0.1-0.1-0.7 0-0.9 0-1.3 0.1-2.6 0.1-3.9 0.2-0.3 0-1 0.2-1.2 0-0.1-0.1-0.1-0.8 0-0.9 0.1-0.5 0.5-0.8 0.8-1.3 1.5-2.2 2.2-4.8 2.1-7.4-0.2-5.1-3.6-9.8-8.7-11.1-5.1-1.4-10.5 1.5-12.7 6.3-1.1 2.4-1.4 5-0.9 7.6 0.2 1.1 0.6 2.2 1.1 3.3 0.3 0.6 0.6 1.1 1 1.6 0.3 0.4 1 1 1.2 1.4 0.1 0.3 0.1 1.1-0.1 1.2-0.3 0.2-1 0-1.4 0.1-1.3 0-2.8-0.1-4.1 0.2-0.5 0.1-0.4 0-0.3 0.6 0 0.8 0.1 1.6 0.1 2.4 0 1 0.1 2 0.1 3 0.1 2.5 0.2 5.1 0.3 7.6l-8.1-0.3c-0.9 0-1.8-0.1-2.7-0.1-0.3 0-1.6-0.2-1.8 0-0.3 0.3-0.1 1.9-0.1 2.3 0 0.8-0.1 1.5-0.1 2.3v0.9c-0.1 0.4-0.1 0.3-0.6 0.3-0.6 0-0.7 0-1.2-0.5-0.6-0.6-1.4-1.1-2.1-1.5-3-1.7-6.7-2-9.9-0.9-6.8 2.1-10.3 10.3-6.1 16.5 2.1 3.1 5.8 5 9.5 5.1 2 0.1 4-0.4 5.9-1.2 0.9-0.4 1.6-1.2 2.4-1.6 0.4-0.2 0.9-0.1 1.3-0.1-0.1 1.9-0.2 3.9-0.3 5.8 2.3 0.1 4.6 0.2 7 0.2 1.1 0 2.2 0.1 3.3 0.1 0.7 0 1.4 0 2.1 0.1 0.5 0 1.6 0.3 2.1 0.1 0.4-0.2 0.2-0.7 0.3-1.2 0-0.7 0.1-1.4 0.1-2.2 0.5 0.1 1.5 0 1.7 0.3s-0.1 1.2-0.1 1.6c-0.1 2.3-0.2 4.5-0.3 6.8-0.2 4.5-0.4 8.9-0.6 13.4 0 0.5-0.1 0.9-0.1 1.4 0 0.7 0.4 1.1 0.7 1.7 0.8 1.3 1.5 2.7 2.3 4 2.4 4.3 4.8 8.6 7.3 12.8 1.7 3.1 3.5 6.2 5.2 9.2 2.9-6.2 5.7-12.3 8.6-18.5 1.4-2.9 2.7-5.9 4.1-8.8 0.2-0.4 0.5-0.8 0.6-1.2s-0.1-0.9-0.1-1.3c0-0.3-0.1-0.6-0.1-0.9-0.2-1.8-0.4-3.7-0.7-5.5-0.5-4-1-8.1-1.5-12.1 3.5 0.4 6.9 0.8 10.4 1.2 2.1 0.2 4.3 0.5 6.4 0.7 0.9 0.1 2.3 0.5 3.1 0.3 0.8-0.1 2.1-1 2.9-1.3 1.9-0.9 3.8-1.7 5.7-2.6l11.1-5.1c3-1.2 6-2.6 9-4zm-72.9-15.4c0 0.6 0.1 1.7-0.1 2.2-0.1 0.3 0 0.1-0.4 0.2-0.3 0.1-0.7 0-1.1 0.1 0-0.6-0.1-1.6 0.1-2.2 0.2-0.4-0.1-0.1 0.3-0.3 0.3 0 0.8 0.1 1.2 0z" fill="#fff"/>
 </svg>
 <path d="m3134.5 1042.4c-20.48-5.12-40.96-11.264-61.44-16.384 5.12 20.48 11.264 40.96 16.384 61.44 15.36-15.36 29.696-30.72 45.056-45.056z" fill="#e84445" stroke-width="10.24"/>
 <path d="m1088.4 1041.9c-21.113-5.2783-42.227-11.612-63.34-16.891 5.2783 21.113 11.612 42.227 16.891 63.34 14.779-15.835 30.614-30.614 46.45-46.45z" fill="#e84445" stroke-width="10.557"/>
 <style type="text/css">.st0{fill:#34C0CC;}
	.st1{fill:#FFFFFF;}
	.st2{fill:none;stroke:#FFFFFF;stroke-width:6.7792;stroke-linecap:round;stroke-linejoin:round;stroke-miterlimit:10;}</style>
 <g transform="matrix(-2.2053 2.2053 -2.2053 -2.2053 4097.4 508.89)" x="3078" y="200" viewbox="0 0 256 256">
  <path class="st0" d="m80.6 240.1c-19.8-1.5-46.4-8.6-61.1-33.9-8.8-15.1-9-29.5-9-30.1v-3.5l72.1 1.9c-32.9-20.6-53.3-45.6-60.6-74.3-10.9-42.7 11-77.8 12-79.3l2.3-3.6 93.8 95.1c0.8-6.9 3.1-16.9 9.3-23.2 3.9-4 8.9-6.1 14.7-6.1 1.2 0 2.4 0.1 3.6 0.3 26.9 3.7 34.7 31.8 35 33l1 3.7-30.4 3.9c0.8 28.1-6 50.1-20.4 65.4-16.7 17.8-38.2 20.8-44.9 21.4l-15 29.5z" fill="#34c0cc"/>
  <path class="st1" d="m36.8 22.7 96.2 97.5s-0.8-33.7 21-33.7c1 0 2.1 0.1 3.1 0.2 25 3.4 32.2 30.5 32.2 30.5l-29.7 3.8c4.2 85.6-64 86.4-64 86.4l-14.8 29.2c-66.5-5.1-66.9-60.6-66.9-60.6l81.8 2.1c-116.9-64.3-58.9-155.4-58.9-155.4m-1.1-10.8-4.6 7.2c-1 1.5-23.6 37.8-12.4 81.9 6.8 26.6 24.3 50 52.3 69.8l-56.9-1.5-7-0.2 0.1 7c0 0.6 0.2 15.9 9.4 31.7 8.5 14.6 26.5 32.7 63.8 35.6l4.5 0.3 2-4 13.1-25.8c8.7-1 29.1-5.1 45.2-22.2 14.5-15.4 21.7-37.2 21.4-64.7l23.6-3 7.7-1-2-7.5c-0.3-1.3-8.7-31.5-37.8-35.5-1.4-0.2-2.7-0.3-4.1-0.3-6.7 0-12.6 2.5-17.1 7.1-4.3 4.4-7.3 10.6-9.1 18.5l-86.2-87.3z" fill="#fff"/>
  <line class="st2" x1="22.6" x2="82" y1="47.7" y2="99.5" fill="none" stroke="#fff" stroke-linecap="round" stroke-linejoin="round" stroke-miterlimit="10" stroke-width="6.7792"/>
  <line class="st2" x1="21.7" x2="66.7" y1="94.4" y2="113.2" fill="none" stroke="#fff" stroke-linecap="round" stroke-linejoin="round" stroke-miterlimit="10" stroke-width="6.7792"/>
  <line class="st2" x1="39.1" x2="58.6" y1="134.6" y2="132.5" fill="none" stroke="#fff" stroke-linecap="round" stroke-linejoin="round" stroke-miterlimit="10" stroke-width="6.7792"/>
  <g fill="none" stroke="#fff" stroke-linecap="round" stroke-linejoin="round" stroke-miterlimit="10" stroke-width="6.7792">
   <line class="st2" x1="195.4" x2="215.9" y1="121.2" y2="133.7"/>
   <path class="st2" d="m214.2 133s24.3-12.9 26 15.9c0 0-21.8 13-26-15.9z"/>
  </g>
  <g fill="none" stroke="#fff" stroke-linecap="round" stroke-linejoin="round" stroke-miterlimit="10" stroke-width="6.7792">
   <line class="st2" x1="193.4" x2="215.3" y1="118.7" y2="112.3"/>
   <path class="st2" d="m213.6 113.1s6.8-26.7 29.3-8.5c0 0-5.1 24.9-29.3 8.5z"/>
  </g>
 </g>
 <path d="m3137.9 18.902c-21.113-5.2783-42.227-11.612-63.34-16.891 5.2783 21.113 11.612 42.227 16.891 63.34 14.779-15.835 30.614-30.614 46.45-46.45z" fill="#e84445" stroke-width="10.557"/>
</svg>
