
<svg width="30px" height="24px" viewBox="0 0 30 24" version="1.1" xmlns="http://www.w3.org/2000/svg" xmlns:xlink="http://www.w3.org/1999/xlink">
    <defs>
        <filter x="-28.6%" y="-7.7%" width="157.1%" height="115.5%" filterUnits="objectBoundingBox" id="filter-1">
            <feOffset dx="0" dy="2" in="SourceAlpha" result="shadowOffsetOuter1"></feOffset>
            <feGaussianBlur stdDeviation="2" in="shadowOffsetOuter1" result="shadowBlurOuter1"></feGaussianBlur>
            <feColorMatrix values="0 0 0 0 0   0 0 0 0 0   0 0 0 0 0  0 0 0 0.5 0" type="matrix" in="shadowBlurOuter1" result="shadowMatrixOuter1"></feColorMatrix>
            <feMerge>
                <feMergeNode in="shadowMatrixOuter1"></feMergeNode>
                <feMergeNode in="SourceGraphic"></feMergeNode>
            </feMerge>
        </filter>
    </defs>
    <g id="Page-1" stroke="none" stroke-width="1" fill="none" fill-rule="evenodd">
        <g id="admin3-TE-PR-Copy" transform="translate(-872.000000, -629.000000)" fill="#4A4A4A" fill-rule="nonzero">
            <g id="nav" filter="url(#filter-1)" transform="translate(867.000000, 503.000000)">
                <g id="lnr-magic-wand" transform="translate(9.000000, 128.000000)">
                    <path d="M1.73684211,6.07551487 C1.41726316,6.07551487 1.15789474,5.82742334 1.15789474,5.52173913 C1.15789474,5.21605492 0.898526316,4.96796339 0.578947368,4.96796339 C0.259368421,4.96796339 0,4.71987185 0,4.41418764 C0,4.10850343 0.259368421,3.8604119 0.578947368,3.8604119 C0.898526316,3.8604119 1.15789474,3.61232037 1.15789474,3.30663616 C1.15789474,3.00095195 1.41726316,2.75286041 1.73684211,2.75286041 C2.05642105,2.75286041 2.31578947,3.00095195 2.31578947,3.30663616 C2.31578947,3.61232037 2.57515789,3.8604119 2.89473684,3.8604119 C3.21431579,3.8604119 3.47368421,4.10850343 3.47368421,4.41418764 C3.47368421,4.71987185 3.21431579,4.96796339 2.89473684,4.96796339 C2.57515789,4.96796339 2.31578947,5.21605492 2.31578947,5.52173913 C2.31578947,5.82742334 2.05642105,6.07551487 1.73684211,6.07551487 Z" id="Path"></path>
                    <path d="M21.0123158,12.6532632 L8.75484211,0.928723112 C8.42715789,0.615286041 7.99178947,0.443615561 7.52631579,0.443615561 C7.06084211,0.443615561 6.62547368,0.616393593 6.29778947,0.928723112 L5.61926316,1.57774828 C5.29157895,1.89118535 5.11210526,2.30762471 5.11210526,2.75286041 C5.11210526,3.19809611 5.29273684,3.61453547 5.61926316,3.92797254 L17.8767368,15.6525126 C18.2044211,15.9659497 18.6397895,16.1376201 19.1052632,16.1376201 C19.5707368,16.1376201 20.0061053,15.9648421 20.3337895,15.6525126 L21.0123158,15.0034874 C21.34,14.6900503 21.5194737,14.273611 21.5194737,13.8283753 C21.5194737,13.3831396 21.3388421,12.9667002 21.0123158,12.6532632 Z M6.43905263,2.36078719 L7.11757895,1.71176201 C7.22642105,1.60765217 7.37115789,1.55116705 7.52747368,1.55116705 C7.68378947,1.55116705 7.82852632,1.60875973 7.93736842,1.71176201 L9.60357895,3.3055286 L8.10642105,4.73759268 L6.44021053,3.14382609 C6.21442105,2.92785355 6.21442105,2.57675973 6.44021053,2.36078719 L6.43905263,2.36078719 Z M20.1925263,14.2204485 L19.514,14.8694737 C19.4051579,14.9735835 19.2604211,15.0300686 19.1052632,15.0300686 C18.9501053,15.0300686 18.8042105,14.972476 18.6965263,14.8694737 L8.92505263,5.52284668 L10.4222105,4.09078261 L20.1936842,13.4374096 C20.4194737,13.6533822 20.4194737,14.004476 20.1936842,14.2204485 L20.1925263,14.2204485 Z" id="Shape"></path>
                </g>
            </g>
        </g>
    </g>
</svg>