
<svg width="28px" height="21px" viewBox="0 0 28 21" version="1.1" xmlns="http://www.w3.org/2000/svg" xmlns:xlink="http://www.w3.org/1999/xlink">
    <defs>
        <path d="M6.48137437,9.88829644 C6.48137437,9.88829644 4.49728099,6.84201235 4.05394877,12.0319778 C3.61061655,17.2219433 6.0453099,19.5771722 6.0453099,19.5771722 C6.0453099,19.5771722 8.44366453,21.4105839 11.0382482,19.9861641 C13.6328318,18.5617442 11.6487385,16.0513804 11.6487385,16.0513804 C11.6487385,16.0513804 10.1588515,15.2192936 8.15295488,15.8821424 C8.15295488,15.8821424 6.76481629,15.6564918 6.85929692,13.82308 C6.95377756,11.9896683 6.48137437,9.88829644 6.48137437,9.88829644 Z" id="path-1"></path>
        <mask id="mask-2" maskContentUnits="userSpaceOnUse" maskUnits="objectBoundingBox" x="-1" y="-1" width="10.374129" height="13.528198">
            <rect x="3" y="8" width="10.374129" height="13.528198" fill="white"></rect>
            <use xlink:href="#path-1" fill="black"></use>
        </mask>
    </defs>
    <g id="Page-1" stroke="none" stroke-width="1" fill="none" fill-rule="evenodd">
        <g id="no-coordinates" transform="translate(-1353.000000, -25.000000)">
            <g id="map2" transform="translate(1354.000000, 26.000000)">
                <path d="M0.0580357143,2.79754601 L1.59017857,13.3582822 L2.39107143,18.895092 L13.3133929,17.1815951 L24.9553571,18.9067485 L25.9419643,0.0116564417 C21.7285714,1.02576687 17.5267857,2.05153374 13.3133929,3.06564417 C8.90267857,2.98404908 4.48035714,2.89079755 0.0580357143,2.79754601 Z" id="Path" stroke="#FFFFFF" fill="#566887" stroke-linecap="round" stroke-linejoin="round"></path>
                <g id="Group" transform="translate(8.821429, 3.147239)" stroke="#FFFFFF">
                    <path d="M0.104464286,0.0349693252 C0.139285714,0.163190184 0.185714286,0.291411043 0.232142857,0.419631902" id="Path" stroke-linecap="round" stroke-linejoin="round"></path>
                    <path d="M0.940178571,2.24969325 C1.56696429,3.6601227 2.28660714,4.82576687 2.94821429,5.74662577 C3.99285714,7.00552147 5.58303571,7.43680982 6.72053571,6.88895706 C7.69553571,6.42269939 7.99732143,5.39693252 8.06696429,5.15214724 C8.96071429,2.89079755 11.5258929,2.20306748 13.24375,3.20552147 C14.8107143,4.11472393 15.5071429,6.32944785 14.9267857,7.62331288 C14.2419643,9.16196319 11.9669643,8.88220859 11.7580357,9.94294479 C11.6651786,10.4208589 11.9901786,11.1785276 13.8473214,12.4257669" id="Path" stroke-linecap="round" stroke-linejoin="round" stroke-dasharray="6.8667,16.8296"></path>
                    <path d="M14.6598214,12.9503067 C14.7758929,13.0202454 14.8919643,13.090184 15.0080357,13.1601227" id="Path" stroke-linecap="round" stroke-linejoin="round"></path>
                    <path d="M4.40794343,5.959879 C6.21499106,4.9295779 5.81596474,2.46535202 7.17857101,1.85276074 C8.52652777,1.24675547 11.6425727,2.48350433 12.2455614,3.08979777 C12.6749451,3.52153465 13.1205767,4.31992018 13.178571,4.85276074 C13.284346,5.82460157 12.6591318,6.67141424 12.2455614,8.16454551" id="Path-2" fill-rule="nonzero"></path>
                </g>
                <use id="Path" stroke="#E26F6F" mask="url(#mask-2)" stroke-width="2" stroke-linecap="round" stroke-linejoin="round" stroke-dasharray="6.7727,16.5994" xlink:href="#path-1"></use>
            </g>
        </g>
    </g>
</svg>