
<svg width="28px" height="21px" viewBox="0 0 28 21" version="1.1" xmlns="http://www.w3.org/2000/svg" xmlns:xlink="http://www.w3.org/1999/xlink">
    <g id="Page-1" stroke="none" stroke-width="1" fill="none" fill-rule="evenodd">
        <g id="no-coordinates" transform="translate(-1315.000000, -26.000000)" stroke="#FFFFFF">
            <g id="map1" transform="translate(1316.000000, 27.000000)">
                <path d="M0.0580357143,2.85582822 L1.59017857,13.4165644 L2.39107143,18.9533742 L13.3133929,17.2398773 L24.9553571,18.9650307 L25.9419643,0.0699386503 C21.7285714,1.08404908 17.5267857,2.10981595 13.3133929,3.12392638 C8.90267857,3.04233129 4.48035714,2.94907975 0.0580357143,2.85582822 Z" id="Path" fill="#566887" stroke-linecap="round" stroke-linejoin="round"></path>
                <g id="Group" transform="translate(8.821429, 3.147239)" stroke-linecap="round" stroke-linejoin="round">
                    <path d="M0.104464286,0.0932515337 C0.139285714,0.221472393 0.185714286,0.349693252 0.232142857,0.47791411" id="Path"></path>
                    <path d="M0.940178571,2.3196319 C1.56696429,3.73006135 2.28660714,4.89570552 2.94821429,5.81656442 C3.99285714,7.07546012 5.58303571,7.50674847 6.72053571,6.95889571 C7.69553571,6.49263804 7.99732143,5.46687117 8.06696429,5.22208589 C8.96071429,2.9607362 11.5258929,2.27300613 13.24375,3.27546012 C14.8107143,4.18466258 15.5071429,6.3993865 14.9267857,7.69325153 C14.2419643,9.23190184 11.9669643,8.95214724 11.7580357,10.0128834 C11.6651786,10.4907975 11.9901786,11.2484663 13.8473214,12.4957055" id="Path" stroke-dasharray="6.8667,16.8296"></path>
                    <path d="M14.6598214,13.008589 C14.7758929,13.0785276 14.8919643,13.1484663 15.0080357,13.2184049" id="Path"></path>
                </g>
                <path d="M9.40178571,12.402454 L5.39732143,12.402454 L4.01607143,15.8993865 L3.25,15.8993865 L7.21964286,5.94478528 L7.66071429,5.94478528 L11.5491071,15.8993865 L10.7714286,15.8993865 L9.40178571,12.402454 Z M5.64107143,11.7730061 L9.16964286,11.7730061 L7.83482143,8.20613497 C7.71875,7.92638037 7.59107143,7.54171779 7.42857143,7.0404908 C7.3125,7.47177914 7.17321429,7.86809816 7.03392857,8.21779141 L5.64107143,11.7730061 Z" id="Shape" fill="#FFFFFF" fill-rule="nonzero" stroke-linecap="round" stroke-linejoin="round"></path>
                <path d="M14,10.2699482 C15.8070476,9.23964705 15.4080213,6.77542118 16.7706276,6.16282989 C18.1185843,5.55682463 21.2346292,6.79357348 21.837618,7.39986693 C22.2670017,7.8316038 22.7126333,8.62998933 22.7706276,9.16282989 C22.8764026,10.1346707 22.2511884,10.9814834 21.837618,12.4746147" id="Path-2" fill-rule="nonzero"></path>
            </g>
        </g>
    </g>
</svg>