
<svg width="28px" height="21px" viewBox="0 0 28 21" version="1.1" xmlns="http://www.w3.org/2000/svg" xmlns:xlink="http://www.w3.org/1999/xlink">
    <g id="Page-1" stroke="none" stroke-width="1" fill="none" fill-rule="evenodd">
        <g id="no-coordinates" transform="translate(-1277.000000, -26.000000)" stroke="#FFFFFF">
            <g id="map3" transform="translate(1278.000000, 27.000000)">
                <path d="M0.0580357143,2.85582822 L1.59017857,13.4165644 L2.39107143,18.9533742 L13.3133929,17.2398773 L24.9553571,18.9650307 L25.9419643,0.0699386503 C21.7285714,1.08404908 17.5267857,2.10981595 13.3133929,3.12392638 C8.90267857,3.04233129 4.48035714,2.94907975 0.0580357143,2.85582822 Z" id="Path" fill="#566887" stroke-linecap="round" stroke-linejoin="round"></path>
                <g id="Group" transform="translate(8.821429, 3.147239)" stroke-linecap="round" stroke-linejoin="round">
                    <path d="M0.104464286,0.0932515337 C0.139285714,0.221472393 0.185714286,0.349693252 0.232142857,0.47791411" id="Path"></path>
                    <path d="M1.94017857,2.3196319 C2.5227918,3.73006135 3.19171809,4.89570552 3.80669872,5.81656442 C4.77772076,7.07546012 6.2558321,7.50674847 7.31316721,6.95889571 C8.21945445,6.49263804 8.49997193,5.46687117 8.56470673,5.22208589 C9.39547004,2.9607362 11.7798686,2.27300613 13.3766604,3.27546012 C14.8331935,4.18466258 15.4805415,6.3993865 14.9410848,7.69325153 C14.3045259,9.23190184 12.1898557,8.95214724 11.9956513,10.0128834 C11.9093382,10.4907975 12.211434,11.2484663 13.9376954,12.4957055" id="Path" stroke-dasharray="6.8667,16.8296"></path>
                    <path d="M14.6598214,13.008589 C14.7758929,13.0785276 14.8919643,13.1484663 15.0080357,13.2184049" id="Path"></path>
                </g>
                <path d="M14,10.2699482 C15.8070476,9.23964705 15.4080213,6.77542118 16.7706276,6.16282989 C18.1185843,5.55682463 21.2346292,6.79357348 21.837618,7.39986693 C22.2670017,7.8316038 22.7126333,8.62998933 22.7706276,9.16282989 C22.8764026,10.1346707 22.2511884,10.9814834 21.837618,12.4746147" id="Path-2" fill-rule="nonzero"></path>
            </g>
        </g>
    </g>
</svg>