
<svg width="28px" height="21px" viewBox="0 0 28 21" version="1.1" xmlns="http://www.w3.org/2000/svg" xmlns:xlink="http://www.w3.org/1999/xlink">
    <g id="Page-1" stroke="none" stroke-width="1" fill="none" fill-rule="evenodd">
        <g id="no-coordinates" transform="translate(-1239.000000, -27.000000)" stroke="#4A4A4A">
            <g id="map4" transform="translate(1240.000000, 28.000000)">
                <path d="M0.0580357143,2.80920245 L1.59017857,13.3699387 L2.39107143,18.9067485 L13.3133929,17.1932515 L24.9553571,18.9067485 L25.9419643,0.0116564417 C21.7285714,1.02576687 17.5267857,2.05153374 13.3133929,3.06564417 C8.90267857,2.98404908 4.48035714,2.89079755 0.0580357143,2.80920245 Z" id="Path" stroke-linecap="round" stroke-linejoin="round"></path>
                <g id="Group" transform="translate(8.821429, 3.147239)" stroke-linecap="round" stroke-linejoin="round">
                    <path d="M0.104464286,0.0466257669 C0.139285714,0.174846626 0.185714286,0.303067485 0.232142857,0.431288344" id="Path"></path>
                    <path d="M0.940178571,2.26134969 C1.56696429,3.67177914 2.28660714,4.83742331 2.94821429,5.75828221 C3.99285714,7.01717791 5.58303571,7.44846626 6.72053571,6.9006135 C7.69553571,6.43435583 7.99732143,5.40858896 8.06696429,5.16380368 C8.96071429,2.90245399 11.5258929,2.21472393 13.24375,3.21717791 C14.8107143,4.12638037 15.5071429,6.34110429 14.9267857,7.63496933 C14.2419643,9.17361963 11.9669643,8.89386503 11.7580357,9.95460123 C11.6651786,10.4325153 11.9901786,11.190184 13.8473214,12.4374233" id="Path" stroke-dasharray="6.8667,16.8296"></path>
                    <path d="M14.6598214,12.9619632 C14.7758929,13.0319018 14.8919643,13.1018405 15.0080357,13.1717791" id="Path"></path>
                </g>
                <g id="Group" transform="translate(4.410714, 10.607362)" stroke-linecap="round" stroke-linejoin="round">
                    <path d="M5.10714286,0 L0.0116071429,5.1404908" id="Path"></path>
                    <path d="M0.348214286,0.104907975 L5.08392857,4.98895706" id="Path"></path>
                </g>
                <path d="M13,9.26994816 C14.8070476,8.23964705 14.4080213,5.77542118 15.7706276,5.16282989 C17.1185843,4.55682463 20.2346292,5.79357348 20.837618,6.39986693 C21.2670017,6.8316038 21.7126333,7.62998933 21.7706276,8.16282989 C21.8764026,9.13467072 21.2511884,9.98148339 20.837618,11.4746147" id="Path-2" fill-rule="nonzero"></path>
            </g>
        </g>
    </g>
</svg>