<svg width="36" height="36" viewBox="3 1 23 23" xmlns="http://www.w3.org/2000/svg">
<path fill-rule="evenodd" clip-rule="evenodd" d="M13.6326 13.1209C13.1481 13.1209 11.3954 13.1357 11.3954 13.1357V17.1136L5.72334 10.8985L11.3954 4.67604V8.68363C11.3954 8.68363 13.2474 8.66141 13.6326 8.67622C18.8639 8.83919 22.4967 14.795 22.5204 17.5803C20.9218 15.5284 16.7216 13.1209 13.6326 13.1209ZM12.8792 7.20208V2.83152C12.9044 2.60929 12.8444 2.38705 12.6755 2.21668C12.3822 1.92777 11.9066 1.92777 11.6132 2.21668L4.21365 10.3356C4.05734 10.4911 3.99067 10.6911 4.00104 10.8985C3.99067 11.0985 4.05734 11.306 4.21365 11.4615L11.5725 19.5286C11.7088 19.6989 11.9066 19.81 12.137 19.81C12.3473 19.81 12.5348 19.7212 12.6696 19.5804C12.6711 19.5804 12.674 19.5804 12.6755 19.573C12.8444 19.41 12.9044 19.1804 12.8792 18.9656C12.8792 18.9656 12.8918 14.8543 12.8918 14.6024C17.7809 14.6024 22.2026 18.1211 23.0804 22.7583C23.6715 21.3953 24.0034 19.8989 24.0034 18.3211C24.0034 12.1801 19.0224 7.20208 12.8792 7.20208Z" fill="#f00"/>
</svg>
