<svg width="38" height="40" version="1.1" viewBox="0 -2 38 40" xmlns="http://www.w3.org/2000/svg">
 <g fill="none" fill-rule="evenodd">
  <g transform="translate(-305,-357)" fill="#f00">
   <path d="m323 383h2v2h-2zm0 4h2c1.104 0 2-0.896 2-2v-2c0-1.104-0.896-2-2-2h-2c-1.104 0-2 0.896-2 2v2c0 1.104 0.896 2 2 2zm-8-4h2v2h-2zm0 4h2c1.104 0 2-0.896 2-2v-2c0-1.104-0.896-2-2-2h-2c-1.104 0-2 0.896-2 2v2c0 1.104 0.896 2 2 2zm8-12h2v2h-2zm0 4h2c1.104 0 2-0.896 2-2v-2c0-1.104-0.896-2-2-2h-2c-1.104 0-2 0.896-2 2v2c0 1.104 0.896 2 2 2zm-8-4h2v2h-2zm0 4h2c1.104 0 2-0.896 2-2v-2c0-1.104-0.896-2-2-2h-2c-1.104 0-2 0.896-2 2v2c0 1.104 0.896 2 2 2zm22-12h-26v-2c0-1.104 0.896-2 2-2h4v1c0 0.553 0.447 1 1 1s1-0.447 1-1v-1h10v1c0 0.553 0.447 1 1 1s1-0.447 1-1v-1h4c1.104 0 2 0.896 2 2v2zm0 20c0 1.104-0.896 2-2 2h-22c-1.104 0-2-0.896-2-2v-18h26v18zm-2-26h-4v-1c0-0.552-0.447-1-1-1s-1 0.448-1 1v1h-10v-1c0-0.552-0.447-1-1-1s-1 0.448-1 1v1h-4c-2.209 0-4 1.791-4 4v22c0 2.209 1.791 4 4 4h22c2.209 0 4-1.791 4-4v-22c0-2.209-1.791-4-4-4zm-4 14h2v2h-2zm0 4h2c1.104 0 2-0.896 2-2v-2c0-1.104-0.896-2-2-2h-2c-1.104 0-2 0.896-2 2v2c0 1.104 0.896 2 2 2zm0 4h2v2h-2zm0 4h2c1.104 0 2-0.896 2-2v-2c0-1.104-0.896-2-2-2h-2c-1.104 0-2 0.896-2 2v2c0 1.104 0.896 2 2 2z"/>
  </g>
 </g>
</svg>
