<svg width="40" height="40" version="1.1" viewBox="0 -2 34 40" xmlns="http://www.w3.org/2000/svg">
 <g fill="none" fill-rule="evenodd">
  <g transform="translate(-255,-201)" fill="#f00">
   <path d="m282 211h-20c-0.552 0-1-0.447-1-1 0-0.552 0.448-1 1-1h20c0.552 0 1 0.448 1 1 0 0.553-0.448 1-1 1zm-1 20c0 1.104-0.896 2-2 2h-14c-1.104 0-2-0.896-2-2v-18h18zm-12-25c0-0.553 0.448-1 1-1h4c0.552 0 1 0.447 1 1v1h-6zm14 1h-6v-2c0-1.104-0.896-2-2-2h-6c-1.104 0-2 0.896-2 2v2h-6c-1.104 0-2 0.896-2 2v2c0 1.104 0.896 2 2 2v18c0 2.209 1.791 4 4 4h14c2.209 0 4-1.791 4-4v-18c1.104 0 2-0.896 2-2v-2c0-1.104-0.896-2-2-2zm-11 24c0.552 0 1-0.447 1-1v-12c0-0.552-0.448-1-1-1s-1 0.448-1 1v12c0 0.553 0.448 1 1 1zm-5 0c0.552 0 1-0.447 1-1v-12c0-0.552-0.448-1-1-1s-1 0.448-1 1v12c0 0.553 0.448 1 1 1zm10 0c0.552 0 1-0.447 1-1v-12c0-0.552-0.448-1-1-1s-1 0.448-1 1v12c0 0.553 0.448 1 1 1z"/>
  </g>
 </g>
</svg>
