<svg width="40" height="40" version="1.1" viewBox="0 -2 40 40" xmlns="http://www.w3.org/2000/svg">
 <g fill="none" fill-rule="evenodd">
  <g transform="translate(-564,-1085)" fill="#f00">
   <path d="m584 1117c-7.732 0-14-6.27-14-14s6.268-14 14-14 14 6.27 14 14-6.268 14-14 14zm0-30c-8.837 0-16 7.16-16 16s7.163 16 16 16 16-7.16 16-16-7.163-16-16-16zm5.717 10.28c-0.394-0.39-1.031-0.39-1.425 0l-4.298 4.3-4.236-4.24c-0.391-0.39-1.025-0.39-1.414 0-0.391 0.39-0.391 1.03 0 1.42l4.236 4.23-4.266 4.27c-0.393 0.39-0.393 1.03 0 1.43 0.394 0.39 1.032 0.39 1.426 0l4.266-4.27 4.236 4.24c0.391 0.39 1.025 0.39 1.415 0 0.391-0.39 0.391-1.03 0-1.42l-4.237-4.23 4.297-4.3c0.393-0.4 0.393-1.03 0-1.43z"/>
  </g>
 </g>
</svg>
