<svg width="31" height="32" version="1.1" viewBox="0 -2 31 32" xmlns="http://www.w3.org/2000/svg">
 <g fill="none" fill-rule="evenodd">
  <g transform="translate(-308,-621)" fill="#f00">
   <path d="m322.9 634.98c0.022-0.283-0.064-0.571-0.28-0.787l-8.923-8.908c-0.393-0.393-1.031-0.393-1.426 0-0.393 0.394-0.393 1.031 0 1.424l8.286 8.271-8.286 8.272c-0.393 0.392-0.393 1.03 0 1.423 0.395 0.393 1.033 0.393 1.426 0l8.923-8.907c0.216-0.216 0.302-0.504 0.28-0.788zm11.819-0.787-10.939-10.921c-0.393-0.393-1.032-0.393-1.426 0-0.394 0.394-0.394 1.031 0 1.424l10.301 10.284-10.301 10.285c-0.394 0.393-0.394 1.03 0 1.423s1.033 0.393 1.426 0l10.939-10.92c0.215-0.216 0.301-0.504 0.28-0.788 0.021-0.283-0.065-0.571-0.28-0.787z"/>
  </g>
 </g>
</svg>
