<svg width="31" height="32" version="1.1" viewBox="0 -2 31 32" xmlns="http://www.w3.org/2000/svg">
 <g fill="none" fill-rule="evenodd">
  <g transform="translate(-257,-621)" fill="#f00">
   <path d="m275.42 634.98 8.274-8.271c0.393-0.393 0.393-1.03 0-1.424-0.393-0.393-1.03-0.393-1.423 0l-8.911 8.908c-0.216 0.216-0.301 0.504-0.28 0.787-0.021 0.284 0.064 0.572 0.28 0.788l8.911 8.907c0.393 0.393 1.03 0.393 1.423 0s0.393-1.031 0-1.423l-8.274-8.272zm-12.082 0 10.288-10.284c0.393-0.393 0.393-1.03 0-1.424-0.394-0.393-1.031-0.393-1.424 0l-10.924 10.921c-0.216 0.216-0.301 0.504-0.28 0.787-0.021 0.284 0.064 0.572 0.28 0.788l10.924 10.92c0.393 0.393 1.03 0.393 1.424 0 0.393-0.393 0.393-1.03 0-1.423l-10.288-10.285z"/>
  </g>
 </g>
</svg>
