<svg width="40" height="32" version="1.1" viewBox="0 -2 40 32" xmlns="http://www.w3.org/2000/svg">
 <g fill="none" fill-rule="evenodd">
  <g transform="translate(-408,-1137)" fill="#f00">
   <path d="m437 1161h-17s-6.038-0.62-6-6c0.021-3.04 2.688-5.82 6-6 0-4.14 2.65-8 7-8 3.433 0 5.723 2.1 6.538 5.01 4.955-0.21 8.306 3.71 8.462 6.99 0.135 2.83-2.32 6.48-5 8zm-1.933-16.97c-1.468-2.98-4.524-5.03-8.067-5.03-4.749 0-8.63 3.68-8.967 8.34-3.491 1-6.033 4.05-6.033 7.66 0 4.26 3.54 7.73 8 7.98l17 0.02c3.437-1.49 7-5.65 7-9.5 0-5.06-3.951-9.18-8.933-9.47zm-1.772 7.36-4.295 4.27v-9.65c0-0.55-0.447-1-1-1-0.552 0-1 0.45-1 1v9.62l-4.264-4.24c-0.392-0.39-1.029-0.39-1.423 0-0.392 0.39-0.392 1.02 0 1.42l5.941 5.91c0.21 0.21 0.487 0.3 0.762 0.28 0.274 0.02 0.552-0.07 0.761-0.28l5.941-5.91c0.392-0.4 0.392-1.03 0-1.42-0.393-0.39-1.03-0.39-1.423 0z"/>
  </g>
 </g>
</svg>
