
<svg width="38px" height="38px" viewBox="0 0 38 38" version="1.1" xmlns="http://www.w3.org/2000/svg" xmlns:xlink="http://www.w3.org/1999/xlink">
    <defs>
        <filter x="-45.5%" y="-1.9%" width="190.9%" height="103.7%" filterUnits="objectBoundingBox" id="filter-1">
            <feOffset dx="0" dy="2" in="SourceAlpha" result="shadowOffsetOuter1"></feOffset>
            <feGaussianBlur stdDeviation="2" in="shadowOffsetOuter1" result="shadowBlurOuter1"></feGaussianBlur>
            <feColorMatrix values="0 0 0 0 0   0 0 0 0 0   0 0 0 0 0  0 0 0 0.5 0" type="matrix" in="shadowBlurOuter1" result="shadowMatrixOuter1"></feColorMatrix>
            <feMerge>
                <feMergeNode in="shadowMatrixOuter1"></feMergeNode>
                <feMergeNode in="SourceGraphic"></feMergeNode>
            </feMerge>
        </filter>
    </defs>
    <g id="Page-1" stroke="none" stroke-width="1" fill="none" fill-rule="evenodd">
        <g id="no-coordinates" transform="translate(-1389.000000, -454.000000)">
            <rect fill="#FFFFFF" x="0" y="0" width="1440" height="1024"></rect>
            <g id="Боковое-меню" filter="url(#filter-1)" transform="translate(1386.000000, 16.000000)" fill="#686565">
                <g id="Icon/Error/White" transform="translate(7.000000, 440.000000)">
                    <path d="M15,19.4625 C14.482233,19.4625 14.0625,19.042767 14.0625,18.525 L14.0625,7.575 C14.0625,7.05723305 14.482233,6.6375 15,6.6375 C15.517767,6.6375 15.9375,7.05723305 15.9375,7.575 L15.9375,18.525 C15.9375,19.042767 15.517767,19.4625 15,19.4625 Z" id="Shape"></path>
                    <circle id="Oval" cx="15" cy="22.471875" r="1.246875"></circle>
                    <path d="M15,30 C6.71572875,30 8.32667268e-16,23.2842712 0,15 C-1.04083409e-15,6.71572875 6.71572875,1.66533454e-15 15,0 C23.2842712,-1.45716772e-15 30,6.71572875 30,15 C30,18.9782473 28.4196474,22.793556 25.6066017,25.6066017 C22.793556,28.4196474 18.9782473,30 15,30 Z M15,1.875 C7.75126266,1.875 1.875,7.75126266 1.875,15 C1.875,22.2487373 7.75126266,28.125 15,28.125 C22.2487373,28.125 28.125,22.2487373 28.125,15 C28.125,7.75126266 22.2487373,1.875 15,1.875 L15,1.875 Z" id="Shape"></path>
                </g>
            </g>
        </g>
    </g>
</svg>