<svg width="38" height="38" version="1.1" viewBox="-2 -2 34 34" xmlns="http://www.w3.org/2000/svg">
 <g fill="#686565" fill-rule="evenodd">
  <g>
   <path d="m15 19.462c-0.51777 0-0.9375-0.41973-0.9375-0.9375v-10.95c0-0.51777 0.41973-0.9375 0.9375-0.9375s0.9375 0.41973 0.9375 0.9375v10.95c0 0.51777-0.41973 0.9375-0.9375 0.9375z"/>
   <circle cx="15" cy="22.472" r="1.2469"/>
   <path d="m15 30c-8.2843 0-15-6.7157-15-15s6.7157-15 15-15 15 6.7157 15 15c0 3.9782-1.5804 7.7936-4.3934 10.607-2.813 2.813-6.6284 4.3934-10.607 4.3934zm0-28.125c-7.2487 0-13.125 5.8763-13.125 13.125s5.8763 13.125 13.125 13.125 13.125-5.8763 13.125-13.125-5.8763-13.125-13.125-13.125z"/>
  </g>
 </g>
</svg>
