<svg width="32px" height="32px" version="1.1" viewBox="-3 -3 38 38" xmlns="http://www.w3.org/2000/svg">
 <g fill="none" fill-rule="evenodd">
  <g>
   <rect x=".5" y=".5" width="31" height="31" rx="3" stroke="#f00"/>
   <path d="m24.073 19.049c-0.26198-0.30144-1.0804-0.22276-1.3433 0.0797v2.8162h-3.5165l-3.1077-4.9447-1.1059 1.6666 3.3345 5.2288h4.3956v2.9347c0.26286 0.30144 1.0813 0.16758 1.3433-0.13488l3.7301-3.277c0.26198-0.30144 0.26198-0.78988 0-1.0923zm-19.152-8.9909h3.6863l3.2328 4.9421 1.1593-1.6782s-3.2365-4.9894-3.4706-5.3218h-4.6078c-0.50963 0-0.92156 0.54946-0.92156 1.1113 0 0.56284 0.41194 0.94664 0.92156 0.94664z" fill="#f00"/>
  </g>
 </g>
</svg>
