
<svg width="32px" height="32px" viewBox="0 0 32 32" version="1.1" xmlns="http://www.w3.org/2000/svg" xmlns:xlink="http://www.w3.org/1999/xlink">
    <g id="Page-1" stroke="none" stroke-width="1" fill="none" fill-rule="evenodd">
        <g id="Artboard" transform="translate(-12.000000, -11.000000)">
            <g id="PR" transform="translate(12.000000, 11.000000)">
                <rect id="Rectangle" stroke="#FAFAFA" x="0.5" y="0.5" width="31" height="31" rx="3"></rect>
                <path d="M24.0734066,19.0487904 C23.8114286,18.7473475 22.992967,18.8260292 22.7301099,19.128494 L22.7301099,21.9446867 L19.2136264,21.9446867 L16.1059341,17 L15,18.666622 L18.3345055,23.8953805 L22.7301099,23.8953805 L22.7301099,26.8301067 C22.992967,27.1315497 23.8114286,26.9976886 24.0734066,26.6952238 L27.8035165,23.4181809 C28.0654945,23.1167379 28.0654945,22.6282981 27.8035165,22.3258333 L24.0734066,19.0487904 L24.0734066,19.0487904 Z M22.6704699,9.74836885 L22.6704699,12.3022611 C22.9363018,12.5815931 23.764026,12.6984565 24.0289689,12.4191245 L27.8012929,9.37212578 C28.0662357,9.0908936 28.0662357,8.63579151 27.8012929,8.35550943 L24.0289689,5.30756058 C23.764026,5.0272785 22.9363018,4.86576001 22.6704699,5.14604209 L22.6704699,7.84815136 L18.2251199,7.84815136 L8.44534998,22.0997825 L4.88907,22.0997825 C4.39741429,22.0997825 4,22.4541731 4,22.9738826 C4,23.4926419 4.39741429,24 4.88907,24 L9.33441997,24 L19.1141899,9.74836885 L22.6704699,9.74836885 L22.6704699,9.74836885 Z M4.92156461,10.0579156 L8.60782306,10.0579156 L11.8406717,15 L13,13.3217698 C13,13.3217698 9.76346508,8.33235337 9.52938767,8 L4.92156461,8 C4.41193938,8 4,8.54946347 4,9.11127444 C4,9.67411436 4.41193938,10.0579156 4.92156461,10.0579156 L4.92156461,10.0579156 Z" id="Fill-117" fill="#FAFAFA"></path>
            </g>
        </g>
    </g>
</svg>