
<svg width="32px" height="32px" viewBox="0 0 32 32" version="1.1" xmlns="http://www.w3.org/2000/svg" xmlns:xlink="http://www.w3.org/1999/xlink">
    <g id="Page-1" stroke="none" stroke-width="1" fill="none" fill-rule="evenodd">
        <g id="Artboard" transform="translate(-12.000000, -60.000000)">
            <g id="Direct" transform="translate(12.000000, 60.000000)">
                <rect id="Rectangle" stroke="#FAFAFA" x="0.5" y="0.5" width="31" height="31" rx="3"></rect>
                <path d="M22.6704699,9.74836885 L22.6704699,12.3022611 C22.9363018,12.5815931 23.764026,12.6984565 24.0289689,12.4191245 L27.8012929,9.37212578 C28.0662357,9.0908936 28.0662357,8.63579151 27.8012929,8.35550943 L24.0289689,5.30756058 C23.764026,5.0272785 22.9363018,4.86576001 22.6704699,5.14604209 L22.6704699,7.84815136 L18.2251199,7.84815136 L8.44534998,22.0997825 L4.88907,22.0997825 C4.39741429,22.0997825 4,22.4541731 4,22.9738826 C4,23.4926419 4.39741429,24 4.88907,24 L9.33441997,24 L19.1141899,9.74836885 L22.6704699,9.74836885 L22.6704699,9.74836885 Z" id="Fill-117" fill="#FAFAFA"></path>
            </g>
        </g>
    </g>
</svg>