<svg width="38" height="38" version="1.1" viewBox="-3 -1 34 34" xmlns="http://www.w3.org/2000/svg">
 <g fill="none" fill-rule="evenodd">
  <g transform="translate(-466,-567)" fill="#f00">
   <path d="m476 594c0 0.553-0.447 1-1 1h-2c-0.553 0-1-0.447-1-1v-22c0-0.552 0.447-1 1-1h2c0.553 0 1 0.448 1 1zm0-25h-4c-1.104 0-2 0.896-2 2v24c0 1.104 0.896 2 2 2h4c1.104 0 2-0.896 2-2v-24c0-1.104-0.896-2-2-2zm12 25c0 0.553-0.447 1-1 1h-2c-0.553 0-1-0.447-1-1v-22c0-0.552 0.447-1 1-1h2c0.553 0 1 0.448 1 1zm0-25h-4c-1.104 0-2 0.896-2 2v24c0 1.104 0.896 2 2 2h4c1.104 0 2-0.896 2-2v-24c0-1.104-0.896-2-2-2z"/>
  </g>
 </g>
</svg>
