<svg width="40" height="40" version="1.1" viewBox="0 -2 40 40" xmlns="http://www.w3.org/2000/svg">
 <g fill="none" fill-rule="evenodd">
  <g transform="translate(-148,-1137)" fill="#f00">
   <path d="m175.74 1141h7.26c0.552 0 1-0.45 1-1s-0.448-1-1-1h-10c-0.121 0-1 0-1 1v10c0 0.55 0.448 1 1 1s1-0.45 1-1v-7.64c4.728 2.25 8 7.06 8 12.64 0 7.73-6.268 14-14 14s-14-6.27-14-14c0-7.05 5.218-12.87 12-13.84v-2.02c-7.891 0.99-14 7.7-14 15.86 0 8.84 7.164 16 16 16s16-7.16 16-16c0-6.03-3.336-11.27-8.26-14"/>
  </g>
 </g>
</svg>
