<svg width="34" height="40" version="1.1" viewBox="0 -2 34 40" xmlns="http://www.w3.org/2000/svg">
 <g fill="none" fill-rule="evenodd">
  <g transform="translate(-151,-409)" fill="#f00">
   <path d="m176.54 428.82c-0.157 0.103-0.335 0.178-0.537 0.178h-18c-0.552 0-1-0.447-1-1v-8c0-0.552 0.448-1 1-1h18c0.213 0 0.399 0.081 0.561 0.194l2.402 4.79-2.426 4.838zm-7.537 10.178c0 1.104-0.896 2-2 2h-2c-1.104 0-2-0.896-2-2v-8h6v8zm-6-24c0-1.104 0.896-2 2-2h2c1.104 0 2 0.896 2 2v2h-6v-2zm17.717 8.224-2.98-5.942c-0.213-0.213-0.496-0.3-0.775-0.282h-5.962v-2c0-2.209-1.791-4-4-4h-2c-2.209 0-4 1.791-4 4v2h-4c-1.104 0-2 0.896-2 2v10c0 1.104 0.896 2 2 2h4v8c0 2.209 1.791 4 4 4h2c2.209 0 4-1.791 4-4v-8h6v-0.024c0.266 6e-3 0.534-0.086 0.737-0.288l2.98-5.943c0.225-0.42 0.255-0.557 0.285-0.761 0.014-0.273-0.075-0.38-0.285-0.76z"/>
  </g>
 </g>
</svg>
