<svg width="40" height="40" version="1.1" viewBox="0 -2 40 40" xmlns="http://www.w3.org/2000/svg">
 <g fill="none" fill-rule="evenodd">
  <g transform="translate(-148,-513)" fill="#f00">
   <path d="m171 525c0.552 0 1-0.447 1-1v-4c0-0.553-0.448-1-1-1s-1 0.447-1 1v4c0 0.553 0.448 1 1 1zm11 18c0 1.104-0.896 2-2 2h-24c-1.104 0-2-0.896-2-2v-24c0-1.104 0.896-2 2-2h2v10c0 1.104 0.896 2 2 2h16c1.104 0 2-0.896 2-2v-10h2c1.104 0 2 0.896 2 2v24zm-22-26h16v9c0 0.553-0.448 1-1 1h-14c-0.552 0-1-0.447-1-1v-9zm20-2h-24c-2.209 0-4 1.791-4 4v24c0 2.209 1.791 4 4 4h24c2.209 0 4-1.791 4-4v-24c0-2.209-1.791-4-4-4z"/>
  </g>
 </g>
</svg>
