<svg width="40" height="40" version="1.1" viewBox="0 -2 40 40" xmlns="http://www.w3.org/2000/svg">
 <g fill="none" fill-rule="evenodd">
  <g transform="translate(-252,-1137)" fill="#f00">
   <path d="m269.46 1163.4c-6.29 0-11.389-5.01-11.389-11.2s5.099-11.21 11.389-11.21 11.39 5.02 11.39 11.21-5.1 11.2-11.39 11.2zm18.228 5.8-8.259-8.13c2.162-2.35 3.491-5.45 3.491-8.87 0-7.32-6.026-13.25-13.46-13.25s-13.46 5.93-13.46 13.25c0 7.31 6.026 13.24 13.46 13.24 3.212 0 6.158-1.11 8.472-2.96l8.292 8.16c0.405 0.4 1.06 0.4 1.464 0 0.405-0.39 0.405-1.04 0-1.44z"/>
  </g>
 </g>
</svg>
