
<svg width="40px" height="40px" viewBox="0 0 40 40" version="1.1" xmlns="http://www.w3.org/2000/svg" xmlns:xlink="http://www.w3.org/1999/xlink">
    <defs>
        <filter x="-1.7%" y="-0.9%" width="103.4%" height="101.8%" filterUnits="objectBoundingBox" id="filter-1">
            <feOffset dx="0" dy="2" in="SourceAlpha" result="shadowOffsetOuter1"></feOffset>
            <feGaussianBlur stdDeviation="2" in="shadowOffsetOuter1" result="shadowBlurOuter1"></feGaussianBlur>
            <feColorMatrix values="0 0 0 0 0   0 0 0 0 0   0 0 0 0 0  0 0 0 0.5 0" type="matrix" in="shadowBlurOuter1" result="shadowMatrixOuter1"></feColorMatrix>
            <feMerge>
                <feMergeNode in="shadowMatrixOuter1"></feMergeNode>
                <feMergeNode in="SourceGraphic"></feMergeNode>
            </feMerge>
        </filter>
    </defs>
    <g id="Page-1" stroke="none" stroke-width="1" fill="none" fill-rule="evenodd">
        <g id="Icon-Set" filter="url(#filter-1)" transform="translate(-252.000000, -1137.000000)" fill="#FFFFFE">
            <path d="M269.46,1163.45 C263.17,1163.45 258.071,1158.44 258.071,1152.25 C258.071,1146.06 263.17,1141.04 269.46,1141.04 C275.75,1141.04 280.85,1146.06 280.85,1152.25 C280.85,1158.44 275.75,1163.45 269.46,1163.45 L269.46,1163.45 Z M287.688,1169.25 L279.429,1161.12 C281.591,1158.77 282.92,1155.67 282.92,1152.25 C282.92,1144.93 276.894,1139 269.46,1139 C262.026,1139 256,1144.93 256,1152.25 C256,1159.56 262.026,1165.49 269.46,1165.49 C272.672,1165.49 275.618,1164.38 277.932,1162.53 L286.224,1170.69 C286.629,1171.09 287.284,1171.09 287.688,1170.69 C288.093,1170.3 288.093,1169.65 287.688,1169.25 L287.688,1169.25 Z" id="Fill-19"></path>
        </g>
    </g>
</svg>